  0
SECTION
  2
HEADER
  9
$ACADVER
  1
AC1009
  9
$EXTMIN
 10
0.0
 20
0.0
 30
0.0
  9
$EXTMAX
 10
1000.0
 20
1000.0
 30
0.0
  9
$FILLMODE
 70
 0
  9
$SPLFRAME
 70
 1
  0
ENDSEC
  0
SECTION
  2
TABLES
  0
TABLE
  2
LAYER
 70
1
  0
LAYER
  2
0
 70
     0
 62
     7
  6
CONTINUOUS
  0
ENDTAB
  0
ENDSEC
  0
SECTION
  2
ENTITIES
  0
LINE
  8
0
 62
     253
 10
0.529947
 20
0.4139
 30
0.0
 11
0.666992
 21
0.371961
 31
0.0
  0
LINE
  8
0
 62
     253
 10
0.666992
 20
0.371961
 30
0.0
 11
0.781793
 21
0.303819
 31
0.0
  0
LINE
  8
0
 62
     253
 10
0.781793
 20
0.303819
 30
0.0
 11
0.846463
 21
0.343317
 31
0.0
  0
LINE
  8
0
 62
     253
 10
0.846463
 20
0.343317
 30
0.0
 11
0.917481
 21
0.375651
 31
0.0
  0
LINE
  8
0
 62
     253
 10
0.917481
 20
0.375651
 30
0.0
 11
0.995768
 21
0.395236
 31
0.0
  0
LINE
  8
0
 62
     253
 10
0.995768
 20
0.395236
 30
0.0
 11
1.08247
 21
0.396267
 31
0.0
  0
LINE
  8
0
 62
     253
 10
1.08247
 20
0.396267
 30
0.0
 11
1.14638
 21
0.381456
 31
0.0
  0
LINE
  8
0
 62
     253
 10
1.14638
 20
0.381456
 30
0.0
 11
1.20475
 21
0.354872
 31
0.0
  0
LINE
  8
0
 62
     253
 10
1.20475
 20
0.354872
 30
0.0
 11
1.26004
 21
0.321289
 31
0.0
  0
LINE
  8
0
 62
     253
 10
1.26004
 20
0.321289
 30
0.0
 11
1.31456
 21
0.285319
 31
0.0
  0
LINE
  8
0
 62
     253
 10
1.31456
 20
0.285319
 30
0.0
 11
1.37093
 21
0.251628
 31
0.0
  0
LINE
  8
0
 62
     253
 10
1.37093
 20
0.251628
 30
0.0
 11
1.43142
 21
0.224989
 31
0.0
  0
LINE
  8
0
 62
     253
 10
1.43142
 20
0.224989
 30
0.0
 11
1.49858
 21
0.210015
 31
0.0
  0
LINE
  8
0
 62
     253
 10
1.49858
 20
0.210015
 30
0.0
 11
1.57487
 21
0.211317
 31
0.0
  0
LINE
  8
0
 62
     253
 10
1.57487
 20
0.211317
 30
0.0
 11
1.57487
 21
0.206922
 31
0.0
  0
LINE
  8
0
 62
     253
 10
1.57487
 20
0.206922
 30
0.0
 11
1.48481
 21
0.139649
 31
0.0
  0
LINE
  8
0
 62
     253
 10
1.48481
 20
0.139649
 30
0.0
 11
1.38921
 21
0.0788303
 31
0.0
  0
LINE
  8
0
 62
     253
 10
1.38921
 20
0.0788303
 30
0.0
 11
1.28304
 21
0.0303276
 31
0.0
  0
LINE
  8
0
 62
     253
 10
1.28304
 20
0.0303276
 30
0.0
 11
1.1614
 21
-0
 31
0.0
  0
LINE
  8
0
 62
     253
 10
1.1614
 20
-0
 30
0.0
 11
1.10129
 21
-0
 31
0.0
  0
LINE
  8
0
 62
     253
 10
1.10129
 20
-0
 30
0.0
 11
1.00336
 21
0.0262044
 31
0.0
  0
LINE
  8
0
 62
     253
 10
1.00336
 20
0.0262044
 30
0.0
 11
0.916721
 21
0.0656467
 31
0.0
  0
LINE
  8
0
 62
     253
 10
0.916721
 20
0.0656467
 30
0.0
 11
0.838758
 21
0.11518
 31
0.0
  0
LINE
  8
0
 62
     253
 10
0.838758
 20
0.11518
 30
0.0
 11
0.766764
 21
0.171713
 31
0.0
  0
LINE
  8
0
 62
     253
 10
0.766764
 20
0.171713
 30
0.0
 11
0.687283
 21
0.116211
 31
0.0
  0
LINE
  8
0
 62
     253
 10
0.687283
 20
0.116211
 30
0.0
 11
0.602864
 21
0.0665147
 31
0.0
  0
LINE
  8
0
 62
     253
 10
0.602864
 20
0.0665147
 30
0.0
 11
0.5102
 21
0.0264757
 31
0.0
  0
LINE
  8
0
 62
     253
 10
0.5102
 20
0.0264757
 30
0.0
 11
0.405925
 21
-0
 31
0.0
  0
LINE
  8
0
 62
     253
 10
0.405925
 20
-0
 30
0.0
 11
0.349556
 21
-0
 31
0.0
  0
LINE
  8
0
 62
     253
 10
0.349556
 20
-0
 30
0.0
 11
0.243761
 21
0.028049
 31
0.0
  0
LINE
  8
0
 62
     253
 10
0.243761
 20
0.028049
 30
0.0
 11
0.153267
 21
0.0739475
 31
0.0
  0
LINE
  8
0
 62
     253
 10
0.153267
 20
0.0739475
 30
0.0
 11
0.0735135
 21
0.132378
 31
0.0
  0
LINE
  8
0
 62
     253
 10
0.0735135
 20
0.132378
 30
0.0
 11
0
 21
0.198133
 31
0.0
  0
LINE
  8
0
 62
     253
 10
0
 20
0.198133
 30
0.0
 11
0
 21
0.202528
 31
0.0
  0
LINE
  8
0
 62
     253
 10
0
 20
0.202528
 30
0.0
 11
0.0759006
 21
0.179688
 31
0.0
  0
LINE
  8
0
 62
     253
 10
0.0759006
 20
0.179688
 30
0.0
 11
0.141276
 21
0.186469
 31
0.0
  0
LINE
  8
0
 62
     253
 10
0.141276
 20
0.186469
 30
0.0
 11
0.198893
 21
0.215169
 31
0.0
  0
LINE
  8
0
 62
     253
 10
0.198893
 20
0.215169
 30
0.0
 11
0.251628
 21
0.257921
 31
0.0
  0
LINE
  8
0
 62
     253
 10
0.251628
 20
0.257921
 30
0.0
 11
0.302246
 21
0.306967
 31
0.0
  0
LINE
  8
0
 62
     253
 10
0.302246
 20
0.306967
 30
0.0
 11
0.353569
 21
0.354546
 31
0.0
  0
LINE
  8
0
 62
     253
 10
0.353569
 20
0.354546
 30
0.0
 11
0.408475
 21
0.392794
 31
0.0
  0
LINE
  8
0
 62
     253
 10
0.408475
 20
0.392794
 30
0.0
 11
0.469835
 21
0.4139
 31
0.0
  0
LINE
  8
0
 62
     253
 10
0.469835
 20
0.4139
 30
0.0
 11
0.529947
 21
0.4139
 31
0.0
  0
ENDSEC
  0
EOF
