  0
SECTION
  2
BLOCKS
  0
ENDSEC
  0
SECTION
  2
ENTITIES
  0
LINE
  8
0
 10
178
 20
3
 11
190
 21
3
  0
LINE
  8
0
 10
190
 20
3
 11
190
 21
0
  0
LINE
  8
0
 10
190
 20
0
 11
208
 21
0
  0
LINE
  8
0
 10
208
 20
0
 11
208
 21
3
  0
LINE
  8
0
 10
208
 20
3
 11
220
 21
3
  0
LINE
  8
0
 10
220
 20
3
 11
220
 21
0
  0
LINE
  8
0
 10
220
 20
0
 11
238
 21
0
  0
LINE
  8
0
 10
238
 20
0
 11
238
 21
3
  0
LINE
  8
0
 10
238
 20
3
 11
250
 21
3
  0
LINE
  8
0
 10
250
 20
3
 11
250
 21
0
  0
LINE
  8
0
 10
250
 20
0
 11
262
 21
0
  0
LINE
  8
0
 10
262
 20
0
 11
262
 21
12
  0
LINE
  8
0
 10
262
 20
12
 11
259
 21
12
  0
LINE
  8
0
 10
259
 20
12
 11
259
 21
24
  0
LINE
  8
0
 10
259
 20
24
 11
262
 21
24
  0
LINE
  8
0
 10
262
 20
24
 11
262
 21
42
  0
LINE
  8
0
 10
262
 20
42
 11
259
 21
42
  0
LINE
  8
0
 10
259
 20
42
 11
259
 21
54
  0
LINE
  8
0
 10
259
 20
54
 11
262
 21
54
  0
LINE
  8
0
 10
262
 20
54
 11
262
 21
66
  0
LINE
  8
0
 10
262
 20
66
 11
254
 21
66
  0
LINE
  8
0
 10
254
 20
66
 11
254.094
 21
65.997
  0
LINE
  8
0
 10
254.094
 20
65.997
 11
254.188
 21
65.9882
  0
LINE
  8
0
 10
254.188
 20
65.9882
 11
254.281
 21
65.9734
  0
LINE
  8
0
 10
254.281
 20
65.9734
 11
254.373
 21
65.9529
  0
LINE
  8
0
 10
254.373
 20
65.9529
 11
254.464
 21
65.9266
  0
LINE
  8
0
 10
254.464
 20
65.9266
 11
254.552
 21
65.8947
  0
LINE
  8
0
 10
254.552
 20
65.8947
 11
254.639
 21
65.8572
  0
LINE
  8
0
 10
254.639
 20
65.8572
 11
254.723
 21
65.8145
  0
LINE
  8
0
 10
254.723
 20
65.8145
 11
254.804
 21
65.7665
  0
LINE
  8
0
 10
254.804
 20
65.7665
 11
254.882
 21
65.7135
  0
LINE
  8
0
 10
254.882
 20
65.7135
 11
254.956
 21
65.6558
  0
LINE
  8
0
 10
254.956
 20
65.6558
 11
255.027
 21
65.5934
  0
LINE
  8
0
 10
255.027
 20
65.5934
 11
255.093
 21
65.5268
  0
LINE
  8
0
 10
255.093
 20
65.5268
 11
255.156
 21
65.4561
  0
LINE
  8
0
 10
255.156
 20
65.4561
 11
255.214
 21
65.3817
  0
LINE
  8
0
 10
255.214
 20
65.3817
 11
255.266
 21
65.3037
  0
LINE
  8
0
 10
255.266
 20
65.3037
 11
255.314
 21
65.2226
  0
LINE
  8
0
 10
255.314
 20
65.2226
 11
255.357
 21
65.1387
  0
LINE
  8
0
 10
255.357
 20
65.1387
 11
255.395
 21
65.0522
  0
LINE
  8
0
 10
255.395
 20
65.0522
 11
255.427
 21
64.9635
  0
LINE
  8
0
 10
255.427
 20
64.9635
 11
255.453
 21
64.873
  0
LINE
  8
0
 10
255.453
 20
64.873
 11
255.473
 21
64.7811
  0
LINE
  8
0
 10
255.473
 20
64.7811
 11
255.488
 21
64.688
  0
LINE
  8
0
 10
255.488
 20
64.688
 11
255.497
 21
64.5942
  0
LINE
  8
0
 10
255.497
 20
64.5942
 11
255.5
 21
64.5
  0
LINE
  8
0
 10
255.5
 20
64.5
 11
255.497
 21
64.4058
  0
LINE
  8
0
 10
255.497
 20
64.4058
 11
255.488
 21
64.312
  0
LINE
  8
0
 10
255.488
 20
64.312
 11
255.473
 21
64.2189
  0
LINE
  8
0
 10
255.473
 20
64.2189
 11
255.453
 21
64.127
  0
LINE
  8
0
 10
255.453
 20
64.127
 11
255.427
 21
64.0365
  0
LINE
  8
0
 10
255.427
 20
64.0365
 11
255.395
 21
63.9478
  0
LINE
  8
0
 10
255.395
 20
63.9478
 11
255.357
 21
63.8613
  0
LINE
  8
0
 10
255.357
 20
63.8613
 11
255.314
 21
63.7774
  0
LINE
  8
0
 10
255.314
 20
63.7774
 11
255.266
 21
63.6963
  0
LINE
  8
0
 10
255.266
 20
63.6963
 11
255.214
 21
63.6183
  0
LINE
  8
0
 10
255.214
 20
63.6183
 11
255.156
 21
63.5439
  0
LINE
  8
0
 10
255.156
 20
63.5439
 11
255.093
 21
63.4732
  0
LINE
  8
0
 10
255.093
 20
63.4732
 11
255.027
 21
63.4065
  0
LINE
  8
0
 10
255.027
 20
63.4065
 11
254.956
 21
63.3442
  0
LINE
  8
0
 10
254.956
 20
63.3442
 11
254.882
 21
63.2865
  0
LINE
  8
0
 10
254.882
 20
63.2865
 11
254.804
 21
63.2335
  0
LINE
  8
0
 10
254.804
 20
63.2335
 11
254.723
 21
63.1855
  0
LINE
  8
0
 10
254.723
 20
63.1855
 11
254.639
 21
63.1427
  0
LINE
  8
0
 10
254.639
 20
63.1427
 11
254.552
 21
63.1053
  0
LINE
  8
0
 10
254.552
 20
63.1053
 11
254.464
 21
63.0734
  0
LINE
  8
0
 10
254.464
 20
63.0734
 11
254.373
 21
63.0471
  0
LINE
  8
0
 10
254.373
 20
63.0471
 11
254.281
 21
63.0266
  0
LINE
  8
0
 10
254.281
 20
63.0266
 11
254.188
 21
63.0118
  0
LINE
  8
0
 10
254.188
 20
63.0118
 11
254.094
 21
63.0029
  0
LINE
  8
0
 10
254.094
 20
63.0029
 11
254
 21
63
  0
LINE
  8
0
 10
254
 20
63
 11
253.906
 21
63.0029
  0
LINE
  8
0
 10
253.906
 20
63.0029
 11
253.812
 21
63.0118
  0
LINE
  8
0
 10
253.812
 20
63.0118
 11
253.719
 21
63.0266
  0
LINE
  8
0
 10
253.719
 20
63.0266
 11
253.627
 21
63.0471
  0
LINE
  8
0
 10
253.627
 20
63.0471
 11
253.536
 21
63.0734
  0
LINE
  8
0
 10
253.536
 20
63.0734
 11
253.448
 21
63.1053
  0
LINE
  8
0
 10
253.448
 20
63.1053
 11
253.361
 21
63.1427
  0
LINE
  8
0
 10
253.361
 20
63.1427
 11
253.277
 21
63.1855
  0
LINE
  8
0
 10
253.277
 20
63.1855
 11
253.196
 21
63.2335
  0
LINE
  8
0
 10
253.196
 20
63.2335
 11
253.118
 21
63.2865
  0
LINE
  8
0
 10
253.118
 20
63.2865
 11
253.044
 21
63.3442
  0
LINE
  8
0
 10
253.044
 20
63.3442
 11
252.973
 21
63.4065
  0
LINE
  8
0
 10
252.973
 20
63.4065
 11
252.907
 21
63.4732
  0
LINE
  8
0
 10
252.907
 20
63.4732
 11
252.844
 21
63.5439
  0
LINE
  8
0
 10
252.844
 20
63.5439
 11
252.786
 21
63.6183
  0
LINE
  8
0
 10
252.786
 20
63.6183
 11
252.734
 21
63.6963
  0
LINE
  8
0
 10
252.734
 20
63.6963
 11
252.686
 21
63.7774
  0
LINE
  8
0
 10
252.686
 20
63.7774
 11
252.643
 21
63.8613
  0
LINE
  8
0
 10
252.643
 20
63.8613
 11
252.605
 21
63.9478
  0
LINE
  8
0
 10
252.605
 20
63.9478
 11
252.573
 21
64.0365
  0
LINE
  8
0
 10
252.573
 20
64.0365
 11
252.547
 21
64.127
  0
LINE
  8
0
 10
252.547
 20
64.127
 11
252.527
 21
64.2189
  0
LINE
  8
0
 10
252.527
 20
64.2189
 11
252.512
 21
64.312
  0
LINE
  8
0
 10
252.512
 20
64.312
 11
252.503
 21
64.4058
  0
LINE
  8
0
 10
252.503
 20
64.4058
 11
252.5
 21
64.5
  0
LINE
  8
0
 10
252.5
 20
64.5
 11
252.503
 21
64.5942
  0
LINE
  8
0
 10
252.503
 20
64.5942
 11
252.512
 21
64.688
  0
LINE
  8
0
 10
252.512
 20
64.688
 11
252.527
 21
64.7811
  0
LINE
  8
0
 10
252.527
 20
64.7811
 11
252.547
 21
64.873
  0
LINE
  8
0
 10
252.547
 20
64.873
 11
252.573
 21
64.9635
  0
LINE
  8
0
 10
252.573
 20
64.9635
 11
252.605
 21
65.0522
  0
LINE
  8
0
 10
252.605
 20
65.0522
 11
252.643
 21
65.1387
  0
LINE
  8
0
 10
252.643
 20
65.1387
 11
252.686
 21
65.2226
  0
LINE
  8
0
 10
252.686
 20
65.2226
 11
252.734
 21
65.3037
  0
LINE
  8
0
 10
252.734
 20
65.3037
 11
252.786
 21
65.3817
  0
LINE
  8
0
 10
252.786
 20
65.3817
 11
252.844
 21
65.4561
  0
LINE
  8
0
 10
252.844
 20
65.4561
 11
252.907
 21
65.5268
  0
LINE
  8
0
 10
252.907
 20
65.5268
 11
252.973
 21
65.5934
  0
LINE
  8
0
 10
252.973
 20
65.5934
 11
253.044
 21
65.6558
  0
LINE
  8
0
 10
253.044
 20
65.6558
 11
253.118
 21
65.7135
  0
LINE
  8
0
 10
253.118
 20
65.7135
 11
253.196
 21
65.7665
  0
LINE
  8
0
 10
253.196
 20
65.7665
 11
253.277
 21
65.8145
  0
LINE
  8
0
 10
253.277
 20
65.8145
 11
253.361
 21
65.8572
  0
LINE
  8
0
 10
253.361
 20
65.8572
 11
253.448
 21
65.8947
  0
LINE
  8
0
 10
253.448
 20
65.8947
 11
253.536
 21
65.9266
  0
LINE
  8
0
 10
253.536
 20
65.9266
 11
253.627
 21
65.9529
  0
LINE
  8
0
 10
253.627
 20
65.9529
 11
253.719
 21
65.9734
  0
LINE
  8
0
 10
253.719
 20
65.9734
 11
253.812
 21
65.9882
  0
LINE
  8
0
 10
253.812
 20
65.9882
 11
253.906
 21
65.997
  0
LINE
  8
0
 10
253.906
 20
65.997
 11
254
 21
66
  0
LINE
  8
0
 10
254
 20
66
 11
250
 21
66
  0
LINE
  8
0
 10
250
 20
66
 11
250
 21
63
  0
LINE
  8
0
 10
250
 20
63
 11
238
 21
63
  0
LINE
  8
0
 10
238
 20
63
 11
238
 21
66
  0
LINE
  8
0
 10
238
 20
66
 11
220
 21
66
  0
LINE
  8
0
 10
220
 20
66
 11
220
 21
63
  0
LINE
  8
0
 10
220
 20
63
 11
208
 21
63
  0
LINE
  8
0
 10
208
 20
63
 11
208
 21
66
  0
LINE
  8
0
 10
208
 20
66
 11
190
 21
66
  0
LINE
  8
0
 10
190
 20
66
 11
190
 21
63
  0
LINE
  8
0
 10
190
 20
63
 11
178
 21
63
  0
LINE
  8
0
 10
178
 20
63
 11
178
 21
66
  0
LINE
  8
0
 10
178
 20
66
 11
174
 21
66
  0
LINE
  8
0
 10
174
 20
66
 11
174.094
 21
65.997
  0
LINE
  8
0
 10
174.094
 20
65.997
 11
174.188
 21
65.9882
  0
LINE
  8
0
 10
174.188
 20
65.9882
 11
174.281
 21
65.9734
  0
LINE
  8
0
 10
174.281
 20
65.9734
 11
174.373
 21
65.9529
  0
LINE
  8
0
 10
174.373
 20
65.9529
 11
174.464
 21
65.9266
  0
LINE
  8
0
 10
174.464
 20
65.9266
 11
174.552
 21
65.8947
  0
LINE
  8
0
 10
174.552
 20
65.8947
 11
174.639
 21
65.8572
  0
LINE
  8
0
 10
174.639
 20
65.8572
 11
174.723
 21
65.8145
  0
LINE
  8
0
 10
174.723
 20
65.8145
 11
174.804
 21
65.7665
  0
LINE
  8
0
 10
174.804
 20
65.7665
 11
174.882
 21
65.7135
  0
LINE
  8
0
 10
174.882
 20
65.7135
 11
174.956
 21
65.6558
  0
LINE
  8
0
 10
174.956
 20
65.6558
 11
175.027
 21
65.5934
  0
LINE
  8
0
 10
175.027
 20
65.5934
 11
175.093
 21
65.5268
  0
LINE
  8
0
 10
175.093
 20
65.5268
 11
175.156
 21
65.4561
  0
LINE
  8
0
 10
175.156
 20
65.4561
 11
175.214
 21
65.3817
  0
LINE
  8
0
 10
175.214
 20
65.3817
 11
175.266
 21
65.3037
  0
LINE
  8
0
 10
175.266
 20
65.3037
 11
175.314
 21
65.2226
  0
LINE
  8
0
 10
175.314
 20
65.2226
 11
175.357
 21
65.1387
  0
LINE
  8
0
 10
175.357
 20
65.1387
 11
175.395
 21
65.0522
  0
LINE
  8
0
 10
175.395
 20
65.0522
 11
175.427
 21
64.9635
  0
LINE
  8
0
 10
175.427
 20
64.9635
 11
175.453
 21
64.873
  0
LINE
  8
0
 10
175.453
 20
64.873
 11
175.473
 21
64.7811
  0
LINE
  8
0
 10
175.473
 20
64.7811
 11
175.488
 21
64.688
  0
LINE
  8
0
 10
175.488
 20
64.688
 11
175.497
 21
64.5942
  0
LINE
  8
0
 10
175.497
 20
64.5942
 11
175.5
 21
64.5
  0
LINE
  8
0
 10
175.5
 20
64.5
 11
175.497
 21
64.4058
  0
LINE
  8
0
 10
175.497
 20
64.4058
 11
175.488
 21
64.312
  0
LINE
  8
0
 10
175.488
 20
64.312
 11
175.473
 21
64.2189
  0
LINE
  8
0
 10
175.473
 20
64.2189
 11
175.453
 21
64.127
  0
LINE
  8
0
 10
175.453
 20
64.127
 11
175.427
 21
64.0365
  0
LINE
  8
0
 10
175.427
 20
64.0365
 11
175.395
 21
63.9478
  0
LINE
  8
0
 10
175.395
 20
63.9478
 11
175.357
 21
63.8613
  0
LINE
  8
0
 10
175.357
 20
63.8613
 11
175.314
 21
63.7774
  0
LINE
  8
0
 10
175.314
 20
63.7774
 11
175.266
 21
63.6963
  0
LINE
  8
0
 10
175.266
 20
63.6963
 11
175.214
 21
63.6183
  0
LINE
  8
0
 10
175.214
 20
63.6183
 11
175.156
 21
63.5439
  0
LINE
  8
0
 10
175.156
 20
63.5439
 11
175.093
 21
63.4732
  0
LINE
  8
0
 10
175.093
 20
63.4732
 11
175.027
 21
63.4065
  0
LINE
  8
0
 10
175.027
 20
63.4065
 11
174.956
 21
63.3442
  0
LINE
  8
0
 10
174.956
 20
63.3442
 11
174.882
 21
63.2865
  0
LINE
  8
0
 10
174.882
 20
63.2865
 11
174.804
 21
63.2335
  0
LINE
  8
0
 10
174.804
 20
63.2335
 11
174.723
 21
63.1855
  0
LINE
  8
0
 10
174.723
 20
63.1855
 11
174.639
 21
63.1427
  0
LINE
  8
0
 10
174.639
 20
63.1427
 11
174.552
 21
63.1053
  0
LINE
  8
0
 10
174.552
 20
63.1053
 11
174.464
 21
63.0734
  0
LINE
  8
0
 10
174.464
 20
63.0734
 11
174.373
 21
63.0471
  0
LINE
  8
0
 10
174.373
 20
63.0471
 11
174.281
 21
63.0266
  0
LINE
  8
0
 10
174.281
 20
63.0266
 11
174.188
 21
63.0118
  0
LINE
  8
0
 10
174.188
 20
63.0118
 11
174.094
 21
63.0029
  0
LINE
  8
0
 10
174.094
 20
63.0029
 11
174
 21
63
  0
LINE
  8
0
 10
174
 20
63
 11
173.906
 21
63.0029
  0
LINE
  8
0
 10
173.906
 20
63.0029
 11
173.812
 21
63.0118
  0
LINE
  8
0
 10
173.812
 20
63.0118
 11
173.719
 21
63.0266
  0
LINE
  8
0
 10
173.719
 20
63.0266
 11
173.627
 21
63.0471
  0
LINE
  8
0
 10
173.627
 20
63.0471
 11
173.536
 21
63.0734
  0
LINE
  8
0
 10
173.536
 20
63.0734
 11
173.448
 21
63.1053
  0
LINE
  8
0
 10
173.448
 20
63.1053
 11
173.361
 21
63.1427
  0
LINE
  8
0
 10
173.361
 20
63.1427
 11
173.277
 21
63.1855
  0
LINE
  8
0
 10
173.277
 20
63.1855
 11
173.196
 21
63.2335
  0
LINE
  8
0
 10
173.196
 20
63.2335
 11
173.118
 21
63.2865
  0
LINE
  8
0
 10
173.118
 20
63.2865
 11
173.044
 21
63.3442
  0
LINE
  8
0
 10
173.044
 20
63.3442
 11
172.973
 21
63.4065
  0
LINE
  8
0
 10
172.973
 20
63.4065
 11
172.907
 21
63.4732
  0
LINE
  8
0
 10
172.907
 20
63.4732
 11
172.844
 21
63.5439
  0
LINE
  8
0
 10
172.844
 20
63.5439
 11
172.786
 21
63.6183
  0
LINE
  8
0
 10
172.786
 20
63.6183
 11
172.734
 21
63.6963
  0
LINE
  8
0
 10
172.734
 20
63.6963
 11
172.686
 21
63.7774
  0
LINE
  8
0
 10
172.686
 20
63.7774
 11
172.643
 21
63.8613
  0
LINE
  8
0
 10
172.643
 20
63.8613
 11
172.605
 21
63.9478
  0
LINE
  8
0
 10
172.605
 20
63.9478
 11
172.573
 21
64.0365
  0
LINE
  8
0
 10
172.573
 20
64.0365
 11
172.547
 21
64.127
  0
LINE
  8
0
 10
172.547
 20
64.127
 11
172.527
 21
64.2189
  0
LINE
  8
0
 10
172.527
 20
64.2189
 11
172.512
 21
64.312
  0
LINE
  8
0
 10
172.512
 20
64.312
 11
172.503
 21
64.4058
  0
LINE
  8
0
 10
172.503
 20
64.4058
 11
172.5
 21
64.5
  0
LINE
  8
0
 10
172.5
 20
64.5
 11
172.503
 21
64.5942
  0
LINE
  8
0
 10
172.503
 20
64.5942
 11
172.512
 21
64.688
  0
LINE
  8
0
 10
172.512
 20
64.688
 11
172.527
 21
64.7811
  0
LINE
  8
0
 10
172.527
 20
64.7811
 11
172.547
 21
64.873
  0
LINE
  8
0
 10
172.547
 20
64.873
 11
172.573
 21
64.9635
  0
LINE
  8
0
 10
172.573
 20
64.9635
 11
172.605
 21
65.0522
  0
LINE
  8
0
 10
172.605
 20
65.0522
 11
172.643
 21
65.1387
  0
LINE
  8
0
 10
172.643
 20
65.1387
 11
172.686
 21
65.2226
  0
LINE
  8
0
 10
172.686
 20
65.2226
 11
172.734
 21
65.3037
  0
LINE
  8
0
 10
172.734
 20
65.3037
 11
172.786
 21
65.3817
  0
LINE
  8
0
 10
172.786
 20
65.3817
 11
172.844
 21
65.4561
  0
LINE
  8
0
 10
172.844
 20
65.4561
 11
172.907
 21
65.5268
  0
LINE
  8
0
 10
172.907
 20
65.5268
 11
172.973
 21
65.5934
  0
LINE
  8
0
 10
172.973
 20
65.5934
 11
173.044
 21
65.6558
  0
LINE
  8
0
 10
173.044
 20
65.6558
 11
173.118
 21
65.7135
  0
LINE
  8
0
 10
173.118
 20
65.7135
 11
173.196
 21
65.7665
  0
LINE
  8
0
 10
173.196
 20
65.7665
 11
173.277
 21
65.8145
  0
LINE
  8
0
 10
173.277
 20
65.8145
 11
173.361
 21
65.8572
  0
LINE
  8
0
 10
173.361
 20
65.8572
 11
173.448
 21
65.8947
  0
LINE
  8
0
 10
173.448
 20
65.8947
 11
173.536
 21
65.9266
  0
LINE
  8
0
 10
173.536
 20
65.9266
 11
173.627
 21
65.9529
  0
LINE
  8
0
 10
173.627
 20
65.9529
 11
173.719
 21
65.9734
  0
LINE
  8
0
 10
173.719
 20
65.9734
 11
173.812
 21
65.9882
  0
LINE
  8
0
 10
173.812
 20
65.9882
 11
173.906
 21
65.997
  0
LINE
  8
0
 10
173.906
 20
65.997
 11
174
 21
66
  0
LINE
  8
0
 10
174
 20
66
 11
166
 21
66
  0
LINE
  8
0
 10
166
 20
66
 11
166
 21
54
  0
LINE
  8
0
 10
166
 20
54
 11
169
 21
54
  0
LINE
  8
0
 10
169
 20
54
 11
169
 21
42
  0
LINE
  8
0
 10
169
 20
42
 11
166
 21
42
  0
LINE
  8
0
 10
166
 20
42
 11
166
 21
24
  0
LINE
  8
0
 10
166
 20
24
 11
169
 21
24
  0
LINE
  8
0
 10
169
 20
24
 11
169
 21
12
  0
LINE
  8
0
 10
169
 20
12
 11
166
 21
12
  0
LINE
  8
0
 10
166
 20
12
 11
166
 21
0
  0
LINE
  8
0
 10
166
 20
0
 11
178
 21
0
  0
LINE
  8
0
 10
178
 20
0
 11
178
 21
3
  0
LINE
  8
0
 10
238.906
 20
51.0029
 11
238.812
 21
51.0118
  0
LINE
  8
0
 10
238.812
 20
51.0118
 11
238.719
 21
51.0266
  0
LINE
  8
0
 10
238.719
 20
51.0266
 11
238.627
 21
51.0471
  0
LINE
  8
0
 10
238.627
 20
51.0471
 11
238.536
 21
51.0734
  0
LINE
  8
0
 10
238.536
 20
51.0734
 11
238.448
 21
51.1053
  0
LINE
  8
0
 10
238.448
 20
51.1053
 11
238.361
 21
51.1427
  0
LINE
  8
0
 10
238.361
 20
51.1427
 11
238.277
 21
51.1855
  0
LINE
  8
0
 10
238.277
 20
51.1855
 11
238.196
 21
51.2335
  0
LINE
  8
0
 10
238.196
 20
51.2335
 11
238.118
 21
51.2865
  0
LINE
  8
0
 10
238.118
 20
51.2865
 11
238.044
 21
51.3442
  0
LINE
  8
0
 10
238.044
 20
51.3442
 11
237.973
 21
51.4065
  0
LINE
  8
0
 10
237.973
 20
51.4065
 11
237.907
 21
51.4732
  0
LINE
  8
0
 10
237.907
 20
51.4732
 11
237.844
 21
51.5439
  0
LINE
  8
0
 10
237.844
 20
51.5439
 11
237.786
 21
51.6183
  0
LINE
  8
0
 10
237.786
 20
51.6183
 11
237.734
 21
51.6963
  0
LINE
  8
0
 10
237.734
 20
51.6963
 11
237.686
 21
51.7774
  0
LINE
  8
0
 10
237.686
 20
51.7774
 11
237.643
 21
51.8613
  0
LINE
  8
0
 10
237.643
 20
51.8613
 11
237.605
 21
51.9478
  0
LINE
  8
0
 10
237.605
 20
51.9478
 11
237.573
 21
52.0365
  0
LINE
  8
0
 10
237.573
 20
52.0365
 11
237.547
 21
52.127
  0
LINE
  8
0
 10
237.547
 20
52.127
 11
237.527
 21
52.2189
  0
LINE
  8
0
 10
237.527
 20
52.2189
 11
237.512
 21
52.312
  0
LINE
  8
0
 10
237.512
 20
52.312
 11
237.503
 21
52.4058
  0
LINE
  8
0
 10
237.503
 20
52.4058
 11
237.5
 21
52.5
  0
LINE
  8
0
 10
237.5
 20
52.5
 11
237.503
 21
52.5942
  0
LINE
  8
0
 10
237.503
 20
52.5942
 11
237.512
 21
52.688
  0
LINE
  8
0
 10
237.512
 20
52.688
 11
237.527
 21
52.7811
  0
LINE
  8
0
 10
237.527
 20
52.7811
 11
237.547
 21
52.873
  0
LINE
  8
0
 10
237.547
 20
52.873
 11
237.573
 21
52.9635
  0
LINE
  8
0
 10
237.573
 20
52.9635
 11
237.605
 21
53.0522
  0
LINE
  8
0
 10
237.605
 20
53.0522
 11
237.643
 21
53.1387
  0
LINE
  8
0
 10
237.643
 20
53.1387
 11
237.686
 21
53.2226
  0
LINE
  8
0
 10
237.686
 20
53.2226
 11
237.734
 21
53.3037
  0
LINE
  8
0
 10
237.734
 20
53.3037
 11
237.786
 21
53.3817
  0
LINE
  8
0
 10
237.786
 20
53.3817
 11
237.844
 21
53.4561
  0
LINE
  8
0
 10
237.844
 20
53.4561
 11
237.907
 21
53.5268
  0
LINE
  8
0
 10
237.907
 20
53.5268
 11
237.973
 21
53.5934
  0
LINE
  8
0
 10
237.973
 20
53.5934
 11
238.044
 21
53.6558
  0
LINE
  8
0
 10
238.044
 20
53.6558
 11
238.118
 21
53.7135
  0
LINE
  8
0
 10
238.118
 20
53.7135
 11
238.196
 21
53.7665
  0
LINE
  8
0
 10
238.196
 20
53.7665
 11
238.277
 21
53.8145
  0
LINE
  8
0
 10
238.277
 20
53.8145
 11
238.361
 21
53.8572
  0
LINE
  8
0
 10
238.361
 20
53.8572
 11
238.448
 21
53.8947
  0
LINE
  8
0
 10
238.448
 20
53.8947
 11
238.536
 21
53.9266
  0
LINE
  8
0
 10
238.536
 20
53.9266
 11
238.627
 21
53.9529
  0
LINE
  8
0
 10
238.627
 20
53.9529
 11
238.719
 21
53.9734
  0
LINE
  8
0
 10
238.719
 20
53.9734
 11
238.812
 21
53.9882
  0
LINE
  8
0
 10
238.812
 20
53.9882
 11
238.906
 21
53.997
  0
LINE
  8
0
 10
238.906
 20
53.997
 11
239
 21
54
  0
LINE
  8
0
 10
239
 20
54
 11
239.094
 21
53.997
  0
LINE
  8
0
 10
239.094
 20
53.997
 11
239.188
 21
53.9882
  0
LINE
  8
0
 10
239.188
 20
53.9882
 11
239.281
 21
53.9734
  0
LINE
  8
0
 10
239.281
 20
53.9734
 11
239.373
 21
53.9529
  0
LINE
  8
0
 10
239.373
 20
53.9529
 11
239.464
 21
53.9266
  0
LINE
  8
0
 10
239.464
 20
53.9266
 11
239.552
 21
53.8947
  0
LINE
  8
0
 10
239.552
 20
53.8947
 11
239.639
 21
53.8572
  0
LINE
  8
0
 10
239.639
 20
53.8572
 11
239.723
 21
53.8145
  0
LINE
  8
0
 10
239.723
 20
53.8145
 11
239.804
 21
53.7665
  0
LINE
  8
0
 10
239.804
 20
53.7665
 11
239.882
 21
53.7135
  0
LINE
  8
0
 10
239.882
 20
53.7135
 11
239.956
 21
53.6558
  0
LINE
  8
0
 10
239.956
 20
53.6558
 11
240.027
 21
53.5934
  0
LINE
  8
0
 10
240.027
 20
53.5934
 11
240.093
 21
53.5268
  0
LINE
  8
0
 10
240.093
 20
53.5268
 11
240.156
 21
53.4561
  0
LINE
  8
0
 10
240.156
 20
53.4561
 11
240.214
 21
53.3817
  0
LINE
  8
0
 10
240.214
 20
53.3817
 11
240.266
 21
53.3037
  0
LINE
  8
0
 10
240.266
 20
53.3037
 11
240.314
 21
53.2226
  0
LINE
  8
0
 10
240.314
 20
53.2226
 11
240.357
 21
53.1387
  0
LINE
  8
0
 10
240.357
 20
53.1387
 11
240.395
 21
53.0522
  0
LINE
  8
0
 10
240.395
 20
53.0522
 11
240.427
 21
52.9635
  0
LINE
  8
0
 10
240.427
 20
52.9635
 11
240.453
 21
52.873
  0
LINE
  8
0
 10
240.453
 20
52.873
 11
240.473
 21
52.7811
  0
LINE
  8
0
 10
240.473
 20
52.7811
 11
240.488
 21
52.688
  0
LINE
  8
0
 10
240.488
 20
52.688
 11
240.497
 21
52.5942
  0
LINE
  8
0
 10
240.497
 20
52.5942
 11
240.5
 21
52.5
  0
LINE
  8
0
 10
240.5
 20
52.5
 11
240.497
 21
52.4058
  0
LINE
  8
0
 10
240.497
 20
52.4058
 11
240.488
 21
52.312
  0
LINE
  8
0
 10
240.488
 20
52.312
 11
240.473
 21
52.2189
  0
LINE
  8
0
 10
240.473
 20
52.2189
 11
240.453
 21
52.127
  0
LINE
  8
0
 10
240.453
 20
52.127
 11
240.427
 21
52.0365
  0
LINE
  8
0
 10
240.427
 20
52.0365
 11
240.395
 21
51.9478
  0
LINE
  8
0
 10
240.395
 20
51.9478
 11
240.357
 21
51.8613
  0
LINE
  8
0
 10
240.357
 20
51.8613
 11
240.314
 21
51.7774
  0
LINE
  8
0
 10
240.314
 20
51.7774
 11
240.266
 21
51.6963
  0
LINE
  8
0
 10
240.266
 20
51.6963
 11
240.214
 21
51.6183
  0
LINE
  8
0
 10
240.214
 20
51.6183
 11
240.156
 21
51.5439
  0
LINE
  8
0
 10
240.156
 20
51.5439
 11
240.093
 21
51.4732
  0
LINE
  8
0
 10
240.093
 20
51.4732
 11
240.027
 21
51.4065
  0
LINE
  8
0
 10
240.027
 20
51.4065
 11
239.956
 21
51.3442
  0
LINE
  8
0
 10
239.956
 20
51.3442
 11
239.882
 21
51.2865
  0
LINE
  8
0
 10
239.882
 20
51.2865
 11
239.804
 21
51.2335
  0
LINE
  8
0
 10
239.804
 20
51.2335
 11
239.723
 21
51.1855
  0
LINE
  8
0
 10
239.723
 20
51.1855
 11
239.639
 21
51.1427
  0
LINE
  8
0
 10
239.639
 20
51.1427
 11
239.552
 21
51.1053
  0
LINE
  8
0
 10
239.552
 20
51.1053
 11
239.464
 21
51.0734
  0
LINE
  8
0
 10
239.464
 20
51.0734
 11
239.373
 21
51.0471
  0
LINE
  8
0
 10
239.373
 20
51.0471
 11
239.281
 21
51.0266
  0
LINE
  8
0
 10
239.281
 20
51.0266
 11
239.188
 21
51.0118
  0
LINE
  8
0
 10
239.188
 20
51.0118
 11
239.094
 21
51.0029
  0
LINE
  8
0
 10
239.094
 20
51.0029
 11
239
 21
51
  0
LINE
  8
0
 10
239
 20
51
 11
238.906
 21
51.0029
  0
LINE
  8
0
 10
238.906
 20
12.0029
 11
238.812
 21
12.0118
  0
LINE
  8
0
 10
238.812
 20
12.0118
 11
238.719
 21
12.0266
  0
LINE
  8
0
 10
238.719
 20
12.0266
 11
238.627
 21
12.0471
  0
LINE
  8
0
 10
238.627
 20
12.0471
 11
238.536
 21
12.0734
  0
LINE
  8
0
 10
238.536
 20
12.0734
 11
238.448
 21
12.1053
  0
LINE
  8
0
 10
238.448
 20
12.1053
 11
238.361
 21
12.1427
  0
LINE
  8
0
 10
238.361
 20
12.1427
 11
238.277
 21
12.1855
  0
LINE
  8
0
 10
238.277
 20
12.1855
 11
238.196
 21
12.2335
  0
LINE
  8
0
 10
238.196
 20
12.2335
 11
238.118
 21
12.2865
  0
LINE
  8
0
 10
238.118
 20
12.2865
 11
238.044
 21
12.3442
  0
LINE
  8
0
 10
238.044
 20
12.3442
 11
237.973
 21
12.4065
  0
LINE
  8
0
 10
237.973
 20
12.4065
 11
237.907
 21
12.4732
  0
LINE
  8
0
 10
237.907
 20
12.4732
 11
237.844
 21
12.5439
  0
LINE
  8
0
 10
237.844
 20
12.5439
 11
237.786
 21
12.6183
  0
LINE
  8
0
 10
237.786
 20
12.6183
 11
237.734
 21
12.6963
  0
LINE
  8
0
 10
237.734
 20
12.6963
 11
237.686
 21
12.7774
  0
LINE
  8
0
 10
237.686
 20
12.7774
 11
237.643
 21
12.8613
  0
LINE
  8
0
 10
237.643
 20
12.8613
 11
237.605
 21
12.9478
  0
LINE
  8
0
 10
237.605
 20
12.9478
 11
237.573
 21
13.0365
  0
LINE
  8
0
 10
237.573
 20
13.0365
 11
237.547
 21
13.127
  0
LINE
  8
0
 10
237.547
 20
13.127
 11
237.527
 21
13.2189
  0
LINE
  8
0
 10
237.527
 20
13.2189
 11
237.512
 21
13.312
  0
LINE
  8
0
 10
237.512
 20
13.312
 11
237.503
 21
13.4058
  0
LINE
  8
0
 10
237.503
 20
13.4058
 11
237.5
 21
13.5
  0
LINE
  8
0
 10
237.5
 20
13.5
 11
237.503
 21
13.5942
  0
LINE
  8
0
 10
237.503
 20
13.5942
 11
237.512
 21
13.688
  0
LINE
  8
0
 10
237.512
 20
13.688
 11
237.527
 21
13.7811
  0
LINE
  8
0
 10
237.527
 20
13.7811
 11
237.547
 21
13.873
  0
LINE
  8
0
 10
237.547
 20
13.873
 11
237.573
 21
13.9635
  0
LINE
  8
0
 10
237.573
 20
13.9635
 11
237.605
 21
14.0522
  0
LINE
  8
0
 10
237.605
 20
14.0522
 11
237.643
 21
14.1387
  0
LINE
  8
0
 10
237.643
 20
14.1387
 11
237.686
 21
14.2226
  0
LINE
  8
0
 10
237.686
 20
14.2226
 11
237.734
 21
14.3037
  0
LINE
  8
0
 10
237.734
 20
14.3037
 11
237.786
 21
14.3817
  0
LINE
  8
0
 10
237.786
 20
14.3817
 11
237.844
 21
14.4561
  0
LINE
  8
0
 10
237.844
 20
14.4561
 11
237.907
 21
14.5268
  0
LINE
  8
0
 10
237.907
 20
14.5268
 11
237.973
 21
14.5934
  0
LINE
  8
0
 10
237.973
 20
14.5934
 11
238.044
 21
14.6558
  0
LINE
  8
0
 10
238.044
 20
14.6558
 11
238.118
 21
14.7135
  0
LINE
  8
0
 10
238.118
 20
14.7135
 11
238.196
 21
14.7665
  0
LINE
  8
0
 10
238.196
 20
14.7665
 11
238.277
 21
14.8145
  0
LINE
  8
0
 10
238.277
 20
14.8145
 11
238.361
 21
14.8572
  0
LINE
  8
0
 10
238.361
 20
14.8572
 11
238.448
 21
14.8947
  0
LINE
  8
0
 10
238.448
 20
14.8947
 11
238.536
 21
14.9266
  0
LINE
  8
0
 10
238.536
 20
14.9266
 11
238.627
 21
14.9529
  0
LINE
  8
0
 10
238.627
 20
14.9529
 11
238.719
 21
14.9734
  0
LINE
  8
0
 10
238.719
 20
14.9734
 11
238.812
 21
14.9882
  0
LINE
  8
0
 10
238.812
 20
14.9882
 11
238.906
 21
14.997
  0
LINE
  8
0
 10
238.906
 20
14.997
 11
239
 21
15
  0
LINE
  8
0
 10
239
 20
15
 11
239.094
 21
14.997
  0
LINE
  8
0
 10
239.094
 20
14.997
 11
239.188
 21
14.9882
  0
LINE
  8
0
 10
239.188
 20
14.9882
 11
239.281
 21
14.9734
  0
LINE
  8
0
 10
239.281
 20
14.9734
 11
239.373
 21
14.9529
  0
LINE
  8
0
 10
239.373
 20
14.9529
 11
239.464
 21
14.9266
  0
LINE
  8
0
 10
239.464
 20
14.9266
 11
239.552
 21
14.8947
  0
LINE
  8
0
 10
239.552
 20
14.8947
 11
239.639
 21
14.8572
  0
LINE
  8
0
 10
239.639
 20
14.8572
 11
239.723
 21
14.8145
  0
LINE
  8
0
 10
239.723
 20
14.8145
 11
239.804
 21
14.7665
  0
LINE
  8
0
 10
239.804
 20
14.7665
 11
239.882
 21
14.7135
  0
LINE
  8
0
 10
239.882
 20
14.7135
 11
239.956
 21
14.6558
  0
LINE
  8
0
 10
239.956
 20
14.6558
 11
240.027
 21
14.5934
  0
LINE
  8
0
 10
240.027
 20
14.5934
 11
240.093
 21
14.5268
  0
LINE
  8
0
 10
240.093
 20
14.5268
 11
240.156
 21
14.4561
  0
LINE
  8
0
 10
240.156
 20
14.4561
 11
240.214
 21
14.3817
  0
LINE
  8
0
 10
240.214
 20
14.3817
 11
240.266
 21
14.3037
  0
LINE
  8
0
 10
240.266
 20
14.3037
 11
240.314
 21
14.2226
  0
LINE
  8
0
 10
240.314
 20
14.2226
 11
240.357
 21
14.1387
  0
LINE
  8
0
 10
240.357
 20
14.1387
 11
240.395
 21
14.0522
  0
LINE
  8
0
 10
240.395
 20
14.0522
 11
240.427
 21
13.9635
  0
LINE
  8
0
 10
240.427
 20
13.9635
 11
240.453
 21
13.873
  0
LINE
  8
0
 10
240.453
 20
13.873
 11
240.473
 21
13.7811
  0
LINE
  8
0
 10
240.473
 20
13.7811
 11
240.488
 21
13.688
  0
LINE
  8
0
 10
240.488
 20
13.688
 11
240.497
 21
13.5942
  0
LINE
  8
0
 10
240.497
 20
13.5942
 11
240.5
 21
13.5
  0
LINE
  8
0
 10
240.5
 20
13.5
 11
240.497
 21
13.4058
  0
LINE
  8
0
 10
240.497
 20
13.4058
 11
240.488
 21
13.312
  0
LINE
  8
0
 10
240.488
 20
13.312
 11
240.473
 21
13.2189
  0
LINE
  8
0
 10
240.473
 20
13.2189
 11
240.453
 21
13.127
  0
LINE
  8
0
 10
240.453
 20
13.127
 11
240.427
 21
13.0365
  0
LINE
  8
0
 10
240.427
 20
13.0365
 11
240.395
 21
12.9478
  0
LINE
  8
0
 10
240.395
 20
12.9478
 11
240.357
 21
12.8613
  0
LINE
  8
0
 10
240.357
 20
12.8613
 11
240.314
 21
12.7774
  0
LINE
  8
0
 10
240.314
 20
12.7774
 11
240.266
 21
12.6963
  0
LINE
  8
0
 10
240.266
 20
12.6963
 11
240.214
 21
12.6183
  0
LINE
  8
0
 10
240.214
 20
12.6183
 11
240.156
 21
12.5439
  0
LINE
  8
0
 10
240.156
 20
12.5439
 11
240.093
 21
12.4732
  0
LINE
  8
0
 10
240.093
 20
12.4732
 11
240.027
 21
12.4065
  0
LINE
  8
0
 10
240.027
 20
12.4065
 11
239.956
 21
12.3442
  0
LINE
  8
0
 10
239.956
 20
12.3442
 11
239.882
 21
12.2865
  0
LINE
  8
0
 10
239.882
 20
12.2865
 11
239.804
 21
12.2335
  0
LINE
  8
0
 10
239.804
 20
12.2335
 11
239.723
 21
12.1855
  0
LINE
  8
0
 10
239.723
 20
12.1855
 11
239.639
 21
12.1427
  0
LINE
  8
0
 10
239.639
 20
12.1427
 11
239.552
 21
12.1053
  0
LINE
  8
0
 10
239.552
 20
12.1053
 11
239.464
 21
12.0734
  0
LINE
  8
0
 10
239.464
 20
12.0734
 11
239.373
 21
12.0471
  0
LINE
  8
0
 10
239.373
 20
12.0471
 11
239.281
 21
12.0266
  0
LINE
  8
0
 10
239.281
 20
12.0266
 11
239.188
 21
12.0118
  0
LINE
  8
0
 10
239.188
 20
12.0118
 11
239.094
 21
12.0029
  0
LINE
  8
0
 10
239.094
 20
12.0029
 11
239
 21
12
  0
LINE
  8
0
 10
239
 20
12
 11
238.906
 21
12.0029
  0
LINE
  8
0
 10
173.906
 20
0.00294495
 11
173.812
 21
0.0118256
  0
LINE
  8
0
 10
173.812
 20
0.0118256
 11
173.719
 21
0.0265656
  0
LINE
  8
0
 10
173.719
 20
0.0265656
 11
173.627
 21
0.0471191
  0
LINE
  8
0
 10
173.627
 20
0.0471191
 11
173.536
 21
0.07341
  0
LINE
  8
0
 10
173.536
 20
0.07341
 11
173.448
 21
0.105331
  0
LINE
  8
0
 10
173.448
 20
0.105331
 11
173.361
 21
0.142746
  0
LINE
  8
0
 10
173.361
 20
0.142746
 11
173.277
 21
0.185532
  0
LINE
  8
0
 10
173.277
 20
0.185532
 11
173.196
 21
0.233505
  0
LINE
  8
0
 10
173.196
 20
0.233505
 11
173.118
 21
0.286469
  0
LINE
  8
0
 10
173.118
 20
0.286469
 11
173.044
 21
0.344223
  0
LINE
  8
0
 10
173.044
 20
0.344223
 11
172.973
 21
0.40654
  0
LINE
  8
0
 10
172.973
 20
0.40654
 11
172.907
 21
0.473175
  0
LINE
  8
0
 10
172.907
 20
0.473175
 11
172.844
 21
0.543854
  0
LINE
  8
0
 10
172.844
 20
0.543854
 11
172.786
 21
0.618317
  0
LINE
  8
0
 10
172.786
 20
0.618317
 11
172.734
 21
0.696259
  0
LINE
  8
0
 10
172.734
 20
0.696259
 11
172.686
 21
0.777359
  0
LINE
  8
0
 10
172.686
 20
0.777359
 11
172.643
 21
0.861328
  0
LINE
  8
0
 10
172.643
 20
0.861328
 11
172.605
 21
0.9478
  0
LINE
  8
0
 10
172.605
 20
0.9478
 11
172.573
 21
1.03647
  0
LINE
  8
0
 10
172.573
 20
1.03647
 11
172.547
 21
1.12695
  0
LINE
  8
0
 10
172.547
 20
1.12695
 11
172.527
 21
1.21892
  0
LINE
  8
0
 10
172.527
 20
1.21892
 11
172.512
 21
1.312
  0
LINE
  8
0
 10
172.512
 20
1.312
 11
172.503
 21
1.40581
  0
LINE
  8
0
 10
172.503
 20
1.40581
 11
172.5
 21
1.5
  0
LINE
  8
0
 10
172.5
 20
1.5
 11
172.503
 21
1.59418
  0
LINE
  8
0
 10
172.503
 20
1.59418
 11
172.512
 21
1.68799
  0
LINE
  8
0
 10
172.512
 20
1.68799
 11
172.527
 21
1.78107
  0
LINE
  8
0
 10
172.527
 20
1.78107
 11
172.547
 21
1.87303
  0
LINE
  8
0
 10
172.547
 20
1.87303
 11
172.573
 21
1.96352
  0
LINE
  8
0
 10
172.573
 20
1.96352
 11
172.605
 21
2.05219
  0
LINE
  8
0
 10
172.605
 20
2.05219
 11
172.643
 21
2.13866
  0
LINE
  8
0
 10
172.643
 20
2.13866
 11
172.686
 21
2.22263
  0
LINE
  8
0
 10
172.686
 20
2.22263
 11
172.734
 21
2.30373
  0
LINE
  8
0
 10
172.734
 20
2.30373
 11
172.786
 21
2.38167
  0
LINE
  8
0
 10
172.786
 20
2.38167
 11
172.844
 21
2.45613
  0
LINE
  8
0
 10
172.844
 20
2.45613
 11
172.907
 21
2.52681
  0
LINE
  8
0
 10
172.907
 20
2.52681
 11
172.973
 21
2.59344
  0
LINE
  8
0
 10
172.973
 20
2.59344
 11
173.044
 21
2.65576
  0
LINE
  8
0
 10
173.044
 20
2.65576
 11
173.118
 21
2.71352
  0
LINE
  8
0
 10
173.118
 20
2.71352
 11
173.196
 21
2.76648
  0
LINE
  8
0
 10
173.196
 20
2.76648
 11
173.277
 21
2.81445
  0
LINE
  8
0
 10
173.277
 20
2.81445
 11
173.361
 21
2.85724
  0
LINE
  8
0
 10
173.361
 20
2.85724
 11
173.448
 21
2.89465
  0
LINE
  8
0
 10
173.448
 20
2.89465
 11
173.536
 21
2.92657
  0
LINE
  8
0
 10
173.536
 20
2.92657
 11
173.627
 21
2.95287
  0
LINE
  8
0
 10
173.627
 20
2.95287
 11
173.719
 21
2.97342
  0
LINE
  8
0
 10
173.719
 20
2.97342
 11
173.812
 21
2.98816
  0
LINE
  8
0
 10
173.812
 20
2.98816
 11
173.906
 21
2.99704
  0
LINE
  8
0
 10
173.906
 20
2.99704
 11
174
 21
3
  0
LINE
  8
0
 10
174
 20
3
 11
174.094
 21
2.99704
  0
LINE
  8
0
 10
174.094
 20
2.99704
 11
174.188
 21
2.98816
  0
LINE
  8
0
 10
174.188
 20
2.98816
 11
174.281
 21
2.97342
  0
LINE
  8
0
 10
174.281
 20
2.97342
 11
174.373
 21
2.95287
  0
LINE
  8
0
 10
174.373
 20
2.95287
 11
174.464
 21
2.92657
  0
LINE
  8
0
 10
174.464
 20
2.92657
 11
174.552
 21
2.89465
  0
LINE
  8
0
 10
174.552
 20
2.89465
 11
174.639
 21
2.85724
  0
LINE
  8
0
 10
174.639
 20
2.85724
 11
174.723
 21
2.81445
  0
LINE
  8
0
 10
174.723
 20
2.81445
 11
174.804
 21
2.76648
  0
LINE
  8
0
 10
174.804
 20
2.76648
 11
174.882
 21
2.71352
  0
LINE
  8
0
 10
174.882
 20
2.71352
 11
174.956
 21
2.65576
  0
LINE
  8
0
 10
174.956
 20
2.65576
 11
175.027
 21
2.59344
  0
LINE
  8
0
 10
175.027
 20
2.59344
 11
175.093
 21
2.52681
  0
LINE
  8
0
 10
175.093
 20
2.52681
 11
175.156
 21
2.45613
  0
LINE
  8
0
 10
175.156
 20
2.45613
 11
175.214
 21
2.38167
  0
LINE
  8
0
 10
175.214
 20
2.38167
 11
175.266
 21
2.30373
  0
LINE
  8
0
 10
175.266
 20
2.30373
 11
175.314
 21
2.22263
  0
LINE
  8
0
 10
175.314
 20
2.22263
 11
175.357
 21
2.13866
  0
LINE
  8
0
 10
175.357
 20
2.13866
 11
175.395
 21
2.05219
  0
LINE
  8
0
 10
175.395
 20
2.05219
 11
175.427
 21
1.96352
  0
LINE
  8
0
 10
175.427
 20
1.96352
 11
175.453
 21
1.87303
  0
LINE
  8
0
 10
175.453
 20
1.87303
 11
175.473
 21
1.78107
  0
LINE
  8
0
 10
175.473
 20
1.78107
 11
175.488
 21
1.68799
  0
LINE
  8
0
 10
175.488
 20
1.68799
 11
175.497
 21
1.59418
  0
LINE
  8
0
 10
175.497
 20
1.59418
 11
175.5
 21
1.5
  0
LINE
  8
0
 10
175.5
 20
1.5
 11
175.497
 21
1.40581
  0
LINE
  8
0
 10
175.497
 20
1.40581
 11
175.488
 21
1.312
  0
LINE
  8
0
 10
175.488
 20
1.312
 11
175.473
 21
1.21892
  0
LINE
  8
0
 10
175.473
 20
1.21892
 11
175.453
 21
1.12695
  0
LINE
  8
0
 10
175.453
 20
1.12695
 11
175.427
 21
1.03647
  0
LINE
  8
0
 10
175.427
 20
1.03647
 11
175.395
 21
0.9478
  0
LINE
  8
0
 10
175.395
 20
0.9478
 11
175.357
 21
0.861328
  0
LINE
  8
0
 10
175.357
 20
0.861328
 11
175.314
 21
0.777359
  0
LINE
  8
0
 10
175.314
 20
0.777359
 11
175.266
 21
0.696259
  0
LINE
  8
0
 10
175.266
 20
0.696259
 11
175.214
 21
0.618317
  0
LINE
  8
0
 10
175.214
 20
0.618317
 11
175.156
 21
0.543854
  0
LINE
  8
0
 10
175.156
 20
0.543854
 11
175.093
 21
0.473175
  0
LINE
  8
0
 10
175.093
 20
0.473175
 11
175.027
 21
0.40654
  0
LINE
  8
0
 10
175.027
 20
0.40654
 11
174.956
 21
0.344223
  0
LINE
  8
0
 10
174.956
 20
0.344223
 11
174.882
 21
0.286469
  0
LINE
  8
0
 10
174.882
 20
0.286469
 11
174.804
 21
0.233505
  0
LINE
  8
0
 10
174.804
 20
0.233505
 11
174.723
 21
0.185532
  0
LINE
  8
0
 10
174.723
 20
0.185532
 11
174.639
 21
0.142746
  0
LINE
  8
0
 10
174.639
 20
0.142746
 11
174.552
 21
0.105331
  0
LINE
  8
0
 10
174.552
 20
0.105331
 11
174.464
 21
0.07341
  0
LINE
  8
0
 10
174.464
 20
0.07341
 11
174.373
 21
0.0471191
  0
LINE
  8
0
 10
174.373
 20
0.0471191
 11
174.281
 21
0.0265656
  0
LINE
  8
0
 10
174.281
 20
0.0265656
 11
174.188
 21
0.0118256
  0
LINE
  8
0
 10
174.188
 20
0.0118256
 11
174.094
 21
0.00294495
  0
LINE
  8
0
 10
174.094
 20
0.00294495
 11
174
 21
0
  0
LINE
  8
0
 10
174
 20
0
 11
173.906
 21
0.00294495
  0
LINE
  8
0
 10
253.906
 20
0.00294495
 11
253.812
 21
0.0118256
  0
LINE
  8
0
 10
253.812
 20
0.0118256
 11
253.719
 21
0.0265656
  0
LINE
  8
0
 10
253.719
 20
0.0265656
 11
253.627
 21
0.0471191
  0
LINE
  8
0
 10
253.627
 20
0.0471191
 11
253.536
 21
0.07341
  0
LINE
  8
0
 10
253.536
 20
0.07341
 11
253.448
 21
0.105331
  0
LINE
  8
0
 10
253.448
 20
0.105331
 11
253.361
 21
0.142746
  0
LINE
  8
0
 10
253.361
 20
0.142746
 11
253.277
 21
0.185532
  0
LINE
  8
0
 10
253.277
 20
0.185532
 11
253.196
 21
0.233505
  0
LINE
  8
0
 10
253.196
 20
0.233505
 11
253.118
 21
0.286469
  0
LINE
  8
0
 10
253.118
 20
0.286469
 11
253.044
 21
0.344223
  0
LINE
  8
0
 10
253.044
 20
0.344223
 11
252.973
 21
0.40654
  0
LINE
  8
0
 10
252.973
 20
0.40654
 11
252.907
 21
0.473175
  0
LINE
  8
0
 10
252.907
 20
0.473175
 11
252.844
 21
0.543854
  0
LINE
  8
0
 10
252.844
 20
0.543854
 11
252.786
 21
0.618317
  0
LINE
  8
0
 10
252.786
 20
0.618317
 11
252.734
 21
0.696259
  0
LINE
  8
0
 10
252.734
 20
0.696259
 11
252.686
 21
0.777359
  0
LINE
  8
0
 10
252.686
 20
0.777359
 11
252.643
 21
0.861328
  0
LINE
  8
0
 10
252.643
 20
0.861328
 11
252.605
 21
0.9478
  0
LINE
  8
0
 10
252.605
 20
0.9478
 11
252.573
 21
1.03647
  0
LINE
  8
0
 10
252.573
 20
1.03647
 11
252.547
 21
1.12695
  0
LINE
  8
0
 10
252.547
 20
1.12695
 11
252.527
 21
1.21892
  0
LINE
  8
0
 10
252.527
 20
1.21892
 11
252.512
 21
1.312
  0
LINE
  8
0
 10
252.512
 20
1.312
 11
252.503
 21
1.40581
  0
LINE
  8
0
 10
252.503
 20
1.40581
 11
252.5
 21
1.5
  0
LINE
  8
0
 10
252.5
 20
1.5
 11
252.503
 21
1.59418
  0
LINE
  8
0
 10
252.503
 20
1.59418
 11
252.512
 21
1.68799
  0
LINE
  8
0
 10
252.512
 20
1.68799
 11
252.527
 21
1.78107
  0
LINE
  8
0
 10
252.527
 20
1.78107
 11
252.547
 21
1.87303
  0
LINE
  8
0
 10
252.547
 20
1.87303
 11
252.573
 21
1.96352
  0
LINE
  8
0
 10
252.573
 20
1.96352
 11
252.605
 21
2.05219
  0
LINE
  8
0
 10
252.605
 20
2.05219
 11
252.643
 21
2.13866
  0
LINE
  8
0
 10
252.643
 20
2.13866
 11
252.686
 21
2.22263
  0
LINE
  8
0
 10
252.686
 20
2.22263
 11
252.734
 21
2.30373
  0
LINE
  8
0
 10
252.734
 20
2.30373
 11
252.786
 21
2.38167
  0
LINE
  8
0
 10
252.786
 20
2.38167
 11
252.844
 21
2.45613
  0
LINE
  8
0
 10
252.844
 20
2.45613
 11
252.907
 21
2.52681
  0
LINE
  8
0
 10
252.907
 20
2.52681
 11
252.973
 21
2.59344
  0
LINE
  8
0
 10
252.973
 20
2.59344
 11
253.044
 21
2.65576
  0
LINE
  8
0
 10
253.044
 20
2.65576
 11
253.118
 21
2.71352
  0
LINE
  8
0
 10
253.118
 20
2.71352
 11
253.196
 21
2.76648
  0
LINE
  8
0
 10
253.196
 20
2.76648
 11
253.277
 21
2.81445
  0
LINE
  8
0
 10
253.277
 20
2.81445
 11
253.361
 21
2.85724
  0
LINE
  8
0
 10
253.361
 20
2.85724
 11
253.448
 21
2.89465
  0
LINE
  8
0
 10
253.448
 20
2.89465
 11
253.536
 21
2.92657
  0
LINE
  8
0
 10
253.536
 20
2.92657
 11
253.627
 21
2.95287
  0
LINE
  8
0
 10
253.627
 20
2.95287
 11
253.719
 21
2.97342
  0
LINE
  8
0
 10
253.719
 20
2.97342
 11
253.812
 21
2.98816
  0
LINE
  8
0
 10
253.812
 20
2.98816
 11
253.906
 21
2.99704
  0
LINE
  8
0
 10
253.906
 20
2.99704
 11
254
 21
3
  0
LINE
  8
0
 10
254
 20
3
 11
254.094
 21
2.99704
  0
LINE
  8
0
 10
254.094
 20
2.99704
 11
254.188
 21
2.98816
  0
LINE
  8
0
 10
254.188
 20
2.98816
 11
254.281
 21
2.97342
  0
LINE
  8
0
 10
254.281
 20
2.97342
 11
254.373
 21
2.95287
  0
LINE
  8
0
 10
254.373
 20
2.95287
 11
254.464
 21
2.92657
  0
LINE
  8
0
 10
254.464
 20
2.92657
 11
254.552
 21
2.89465
  0
LINE
  8
0
 10
254.552
 20
2.89465
 11
254.639
 21
2.85724
  0
LINE
  8
0
 10
254.639
 20
2.85724
 11
254.723
 21
2.81445
  0
LINE
  8
0
 10
254.723
 20
2.81445
 11
254.804
 21
2.76648
  0
LINE
  8
0
 10
254.804
 20
2.76648
 11
254.882
 21
2.71352
  0
LINE
  8
0
 10
254.882
 20
2.71352
 11
254.956
 21
2.65576
  0
LINE
  8
0
 10
254.956
 20
2.65576
 11
255.027
 21
2.59344
  0
LINE
  8
0
 10
255.027
 20
2.59344
 11
255.093
 21
2.52681
  0
LINE
  8
0
 10
255.093
 20
2.52681
 11
255.156
 21
2.45613
  0
LINE
  8
0
 10
255.156
 20
2.45613
 11
255.214
 21
2.38167
  0
LINE
  8
0
 10
255.214
 20
2.38167
 11
255.266
 21
2.30373
  0
LINE
  8
0
 10
255.266
 20
2.30373
 11
255.314
 21
2.22263
  0
LINE
  8
0
 10
255.314
 20
2.22263
 11
255.357
 21
2.13866
  0
LINE
  8
0
 10
255.357
 20
2.13866
 11
255.395
 21
2.05219
  0
LINE
  8
0
 10
255.395
 20
2.05219
 11
255.427
 21
1.96352
  0
LINE
  8
0
 10
255.427
 20
1.96352
 11
255.453
 21
1.87303
  0
LINE
  8
0
 10
255.453
 20
1.87303
 11
255.473
 21
1.78107
  0
LINE
  8
0
 10
255.473
 20
1.78107
 11
255.488
 21
1.68799
  0
LINE
  8
0
 10
255.488
 20
1.68799
 11
255.497
 21
1.59418
  0
LINE
  8
0
 10
255.497
 20
1.59418
 11
255.5
 21
1.5
  0
LINE
  8
0
 10
255.5
 20
1.5
 11
255.497
 21
1.40581
  0
LINE
  8
0
 10
255.497
 20
1.40581
 11
255.488
 21
1.312
  0
LINE
  8
0
 10
255.488
 20
1.312
 11
255.473
 21
1.21892
  0
LINE
  8
0
 10
255.473
 20
1.21892
 11
255.453
 21
1.12695
  0
LINE
  8
0
 10
255.453
 20
1.12695
 11
255.427
 21
1.03647
  0
LINE
  8
0
 10
255.427
 20
1.03647
 11
255.395
 21
0.9478
  0
LINE
  8
0
 10
255.395
 20
0.9478
 11
255.357
 21
0.861328
  0
LINE
  8
0
 10
255.357
 20
0.861328
 11
255.314
 21
0.777359
  0
LINE
  8
0
 10
255.314
 20
0.777359
 11
255.266
 21
0.696259
  0
LINE
  8
0
 10
255.266
 20
0.696259
 11
255.214
 21
0.618317
  0
LINE
  8
0
 10
255.214
 20
0.618317
 11
255.156
 21
0.543854
  0
LINE
  8
0
 10
255.156
 20
0.543854
 11
255.093
 21
0.473175
  0
LINE
  8
0
 10
255.093
 20
0.473175
 11
255.027
 21
0.40654
  0
LINE
  8
0
 10
255.027
 20
0.40654
 11
254.956
 21
0.344223
  0
LINE
  8
0
 10
254.956
 20
0.344223
 11
254.882
 21
0.286469
  0
LINE
  8
0
 10
254.882
 20
0.286469
 11
254.804
 21
0.233505
  0
LINE
  8
0
 10
254.804
 20
0.233505
 11
254.723
 21
0.185532
  0
LINE
  8
0
 10
254.723
 20
0.185532
 11
254.639
 21
0.142746
  0
LINE
  8
0
 10
254.639
 20
0.142746
 11
254.552
 21
0.105331
  0
LINE
  8
0
 10
254.552
 20
0.105331
 11
254.464
 21
0.07341
  0
LINE
  8
0
 10
254.464
 20
0.07341
 11
254.373
 21
0.0471191
  0
LINE
  8
0
 10
254.373
 20
0.0471191
 11
254.281
 21
0.0265656
  0
LINE
  8
0
 10
254.281
 20
0.0265656
 11
254.188
 21
0.0118256
  0
LINE
  8
0
 10
254.188
 20
0.0118256
 11
254.094
 21
0.00294495
  0
LINE
  8
0
 10
254.094
 20
0.00294495
 11
254
 21
0
  0
LINE
  8
0
 10
254
 20
0
 11
253.906
 21
0.00294495
  0
LINE
  8
0
 10
92
 20
3
 11
110
 21
3
  0
LINE
  8
0
 10
110
 20
3
 11
110
 21
0
  0
LINE
  8
0
 10
110
 20
0
 11
122
 21
0
  0
LINE
  8
0
 10
122
 20
0
 11
122
 21
3
  0
LINE
  8
0
 10
122
 20
3
 11
140
 21
3
  0
LINE
  8
0
 10
140
 20
3
 11
140
 21
0
  0
LINE
  8
0
 10
140
 20
0
 11
152
 21
0
  0
LINE
  8
0
 10
152
 20
0
 11
152
 21
3
  0
LINE
  8
0
 10
152
 20
3
 11
154.5
 21
3
  0
LINE
  8
0
 10
154.5
 20
3
 11
154.5
 21
6
  0
LINE
  8
0
 10
154.5
 20
6
 11
153.25
 21
6
  0
LINE
  8
0
 10
153.25
 20
6
 11
153.25
 21
8.5
  0
LINE
  8
0
 10
153.25
 20
8.5
 11
154.5
 21
8.5
  0
LINE
  8
0
 10
154.5
 20
8.5
 11
154.5
 21
11
  0
LINE
  8
0
 10
154.5
 20
11
 11
157.5
 21
11
  0
LINE
  8
0
 10
157.5
 20
11
 11
157.5
 21
8.5
  0
LINE
  8
0
 10
157.5
 20
8.5
 11
158.75
 21
8.5
  0
LINE
  8
0
 10
158.75
 20
8.5
 11
158.75
 21
6
  0
LINE
  8
0
 10
158.75
 20
6
 11
157.5
 21
6
  0
LINE
  8
0
 10
157.5
 20
6
 11
157.5
 21
3
  0
LINE
  8
0
 10
157.5
 20
3
 11
164
 21
3
  0
LINE
  8
0
 10
164
 20
3
 11
164
 21
12
  0
LINE
  8
0
 10
164
 20
12
 11
161
 21
12
  0
LINE
  8
0
 10
161
 20
12
 11
161
 21
16.5
  0
LINE
  8
0
 10
161
 20
16.5
 11
158
 21
16.5
  0
LINE
  8
0
 10
158
 20
16.5
 11
158
 21
15.25
  0
LINE
  8
0
 10
158
 20
15.25
 11
155.5
 21
15.25
  0
LINE
  8
0
 10
155.5
 20
15.25
 11
155.5
 21
16.5
  0
LINE
  8
0
 10
155.5
 20
16.5
 11
153
 21
16.5
  0
LINE
  8
0
 10
153
 20
16.5
 11
153
 21
19.5
  0
LINE
  8
0
 10
153
 20
19.5
 11
155.5
 21
19.5
  0
LINE
  8
0
 10
155.5
 20
19.5
 11
155.5
 21
20.75
  0
LINE
  8
0
 10
155.5
 20
20.75
 11
158
 21
20.75
  0
LINE
  8
0
 10
158
 20
20.75
 11
158
 21
19.5
  0
LINE
  8
0
 10
158
 20
19.5
 11
161
 21
19.5
  0
LINE
  8
0
 10
161
 20
19.5
 11
161
 21
24
  0
LINE
  8
0
 10
161
 20
24
 11
164
 21
24
  0
LINE
  8
0
 10
164
 20
24
 11
164
 21
42
  0
LINE
  8
0
 10
164
 20
42
 11
161
 21
42
  0
LINE
  8
0
 10
161
 20
42
 11
161
 21
46.5
  0
LINE
  8
0
 10
161
 20
46.5
 11
158
 21
46.5
  0
LINE
  8
0
 10
158
 20
46.5
 11
158
 21
45.25
  0
LINE
  8
0
 10
158
 20
45.25
 11
155.5
 21
45.25
  0
LINE
  8
0
 10
155.5
 20
45.25
 11
155.5
 21
46.5
  0
LINE
  8
0
 10
155.5
 20
46.5
 11
153
 21
46.5
  0
LINE
  8
0
 10
153
 20
46.5
 11
153
 21
49.5
  0
LINE
  8
0
 10
153
 20
49.5
 11
155.5
 21
49.5
  0
LINE
  8
0
 10
155.5
 20
49.5
 11
155.5
 21
50.75
  0
LINE
  8
0
 10
155.5
 20
50.75
 11
158
 21
50.75
  0
LINE
  8
0
 10
158
 20
50.75
 11
158
 21
49.5
  0
LINE
  8
0
 10
158
 20
49.5
 11
161
 21
49.5
  0
LINE
  8
0
 10
161
 20
49.5
 11
161
 21
54
  0
LINE
  8
0
 10
161
 20
54
 11
164
 21
54
  0
LINE
  8
0
 10
164
 20
54
 11
164
 21
63
  0
LINE
  8
0
 10
164
 20
63
 11
157.5
 21
63
  0
LINE
  8
0
 10
157.5
 20
63
 11
157.5
 21
60
  0
LINE
  8
0
 10
157.5
 20
60
 11
158.75
 21
60
  0
LINE
  8
0
 10
158.75
 20
60
 11
158.75
 21
57.5
  0
LINE
  8
0
 10
158.75
 20
57.5
 11
157.5
 21
57.5
  0
LINE
  8
0
 10
157.5
 20
57.5
 11
157.5
 21
55
  0
LINE
  8
0
 10
157.5
 20
55
 11
154.5
 21
55
  0
LINE
  8
0
 10
154.5
 20
55
 11
154.5
 21
57.5
  0
LINE
  8
0
 10
154.5
 20
57.5
 11
153.25
 21
57.5
  0
LINE
  8
0
 10
153.25
 20
57.5
 11
153.25
 21
60
  0
LINE
  8
0
 10
153.25
 20
60
 11
154.5
 21
60
  0
LINE
  8
0
 10
154.5
 20
60
 11
154.5
 21
63
  0
LINE
  8
0
 10
154.5
 20
63
 11
152
 21
63
  0
LINE
  8
0
 10
152
 20
63
 11
152
 21
66
  0
LINE
  8
0
 10
152
 20
66
 11
140
 21
66
  0
LINE
  8
0
 10
140
 20
66
 11
140
 21
63
  0
LINE
  8
0
 10
140
 20
63
 11
122
 21
63
  0
LINE
  8
0
 10
122
 20
63
 11
122
 21
66
  0
LINE
  8
0
 10
122
 20
66
 11
110
 21
66
  0
LINE
  8
0
 10
110
 20
66
 11
110
 21
63
  0
LINE
  8
0
 10
110
 20
63
 11
92
 21
63
  0
LINE
  8
0
 10
92
 20
63
 11
92
 21
66
  0
LINE
  8
0
 10
92
 20
66
 11
80
 21
66
  0
LINE
  8
0
 10
80
 20
66
 11
80
 21
63
  0
LINE
  8
0
 10
80
 20
63
 11
77.5
 21
63
  0
LINE
  8
0
 10
77.5
 20
63
 11
77.5
 21
60
  0
LINE
  8
0
 10
77.5
 20
60
 11
78.75
 21
60
  0
LINE
  8
0
 10
78.75
 20
60
 11
78.75
 21
57.5
  0
LINE
  8
0
 10
78.75
 20
57.5
 11
77.5
 21
57.5
  0
LINE
  8
0
 10
77.5
 20
57.5
 11
77.5
 21
55
  0
LINE
  8
0
 10
77.5
 20
55
 11
74.5
 21
55
  0
LINE
  8
0
 10
74.5
 20
55
 11
74.5
 21
57.5
  0
LINE
  8
0
 10
74.5
 20
57.5
 11
73.25
 21
57.5
  0
LINE
  8
0
 10
73.25
 20
57.5
 11
73.25
 21
60
  0
LINE
  8
0
 10
73.25
 20
60
 11
74.5
 21
60
  0
LINE
  8
0
 10
74.5
 20
60
 11
74.5
 21
63
  0
LINE
  8
0
 10
74.5
 20
63
 11
68
 21
63
  0
LINE
  8
0
 10
68
 20
63
 11
68
 21
54
  0
LINE
  8
0
 10
68
 20
54
 11
71
 21
54
  0
LINE
  8
0
 10
71
 20
54
 11
71
 21
49.5
  0
LINE
  8
0
 10
71
 20
49.5
 11
74
 21
49.5
  0
LINE
  8
0
 10
74
 20
49.5
 11
74
 21
50.75
  0
LINE
  8
0
 10
74
 20
50.75
 11
76.5
 21
50.75
  0
LINE
  8
0
 10
76.5
 20
50.75
 11
76.5
 21
49.5
  0
LINE
  8
0
 10
76.5
 20
49.5
 11
79
 21
49.5
  0
LINE
  8
0
 10
79
 20
49.5
 11
79
 21
46.5
  0
LINE
  8
0
 10
79
 20
46.5
 11
76.5
 21
46.5
  0
LINE
  8
0
 10
76.5
 20
46.5
 11
76.5
 21
45.25
  0
LINE
  8
0
 10
76.5
 20
45.25
 11
74
 21
45.25
  0
LINE
  8
0
 10
74
 20
45.25
 11
74
 21
46.5
  0
LINE
  8
0
 10
74
 20
46.5
 11
71
 21
46.5
  0
LINE
  8
0
 10
71
 20
46.5
 11
71
 21
42
  0
LINE
  8
0
 10
71
 20
42
 11
68
 21
42
  0
LINE
  8
0
 10
68
 20
42
 11
68
 21
24
  0
LINE
  8
0
 10
68
 20
24
 11
71
 21
24
  0
LINE
  8
0
 10
71
 20
24
 11
71
 21
19.5
  0
LINE
  8
0
 10
71
 20
19.5
 11
74
 21
19.5
  0
LINE
  8
0
 10
74
 20
19.5
 11
74
 21
20.75
  0
LINE
  8
0
 10
74
 20
20.75
 11
76.5
 21
20.75
  0
LINE
  8
0
 10
76.5
 20
20.75
 11
76.5
 21
19.5
  0
LINE
  8
0
 10
76.5
 20
19.5
 11
79
 21
19.5
  0
LINE
  8
0
 10
79
 20
19.5
 11
79
 21
16.5
  0
LINE
  8
0
 10
79
 20
16.5
 11
76.5
 21
16.5
  0
LINE
  8
0
 10
76.5
 20
16.5
 11
76.5
 21
15.25
  0
LINE
  8
0
 10
76.5
 20
15.25
 11
74
 21
15.25
  0
LINE
  8
0
 10
74
 20
15.25
 11
74
 21
16.5
  0
LINE
  8
0
 10
74
 20
16.5
 11
71
 21
16.5
  0
LINE
  8
0
 10
71
 20
16.5
 11
71
 21
12
  0
LINE
  8
0
 10
71
 20
12
 11
68
 21
12
  0
LINE
  8
0
 10
68
 20
12
 11
68
 21
3
  0
LINE
  8
0
 10
68
 20
3
 11
74.5
 21
3
  0
LINE
  8
0
 10
74.5
 20
3
 11
74.5
 21
6
  0
LINE
  8
0
 10
74.5
 20
6
 11
73.25
 21
6
  0
LINE
  8
0
 10
73.25
 20
6
 11
73.25
 21
8.5
  0
LINE
  8
0
 10
73.25
 20
8.5
 11
74.5
 21
8.5
  0
LINE
  8
0
 10
74.5
 20
8.5
 11
74.5
 21
11
  0
LINE
  8
0
 10
74.5
 20
11
 11
77.5
 21
11
  0
LINE
  8
0
 10
77.5
 20
11
 11
77.5
 21
8.5
  0
LINE
  8
0
 10
77.5
 20
8.5
 11
78.75
 21
8.5
  0
LINE
  8
0
 10
78.75
 20
8.5
 11
78.75
 21
6
  0
LINE
  8
0
 10
78.75
 20
6
 11
77.5
 21
6
  0
LINE
  8
0
 10
77.5
 20
6
 11
77.5
 21
3
  0
LINE
  8
0
 10
77.5
 20
3
 11
80
 21
3
  0
LINE
  8
0
 10
80
 20
3
 11
80
 21
0
  0
LINE
  8
0
 10
80
 20
0
 11
92
 21
0
  0
LINE
  8
0
 10
92
 20
0
 11
92
 21
3
  0
LINE
  8
0
 10
107.606
 20
21.3029
 11
107.512
 21
21.3118
  0
LINE
  8
0
 10
107.512
 20
21.3118
 11
107.419
 21
21.3266
  0
LINE
  8
0
 10
107.419
 20
21.3266
 11
107.327
 21
21.3471
  0
LINE
  8
0
 10
107.327
 20
21.3471
 11
107.236
 21
21.3734
  0
LINE
  8
0
 10
107.236
 20
21.3734
 11
107.148
 21
21.4053
  0
LINE
  8
0
 10
107.148
 20
21.4053
 11
107.061
 21
21.4427
  0
LINE
  8
0
 10
107.061
 20
21.4427
 11
106.977
 21
21.4855
  0
LINE
  8
0
 10
106.977
 20
21.4855
 11
106.896
 21
21.5335
  0
LINE
  8
0
 10
106.896
 20
21.5335
 11
106.818
 21
21.5865
  0
LINE
  8
0
 10
106.818
 20
21.5865
 11
106.744
 21
21.6442
  0
LINE
  8
0
 10
106.744
 20
21.6442
 11
106.673
 21
21.7065
  0
LINE
  8
0
 10
106.673
 20
21.7065
 11
106.607
 21
21.7732
  0
LINE
  8
0
 10
106.607
 20
21.7732
 11
106.544
 21
21.8439
  0
LINE
  8
0
 10
106.544
 20
21.8439
 11
106.486
 21
21.9183
  0
LINE
  8
0
 10
106.486
 20
21.9183
 11
106.434
 21
21.9962
  0
LINE
  8
0
 10
106.434
 20
21.9962
 11
106.386
 21
22.0774
  0
LINE
  8
0
 10
106.386
 20
22.0774
 11
106.343
 21
22.1613
  0
LINE
  8
0
 10
106.343
 20
22.1613
 11
106.305
 21
22.2478
  0
LINE
  8
0
 10
106.305
 20
22.2478
 11
106.273
 21
22.3365
  0
LINE
  8
0
 10
106.273
 20
22.3365
 11
106.247
 21
22.427
  0
LINE
  8
0
 10
106.247
 20
22.427
 11
106.227
 21
22.5189
  0
LINE
  8
0
 10
106.227
 20
22.5189
 11
106.212
 21
22.612
  0
LINE
  8
0
 10
106.212
 20
22.612
 11
106.203
 21
22.7058
  0
LINE
  8
0
 10
106.203
 20
22.7058
 11
106.2
 21
22.8
  0
LINE
  8
0
 10
106.2
 20
22.8
 11
106.203
 21
22.8942
  0
LINE
  8
0
 10
106.203
 20
22.8942
 11
106.212
 21
22.988
  0
LINE
  8
0
 10
106.212
 20
22.988
 11
106.227
 21
23.0811
  0
LINE
  8
0
 10
106.227
 20
23.0811
 11
106.247
 21
23.173
  0
LINE
  8
0
 10
106.247
 20
23.173
 11
106.273
 21
23.2635
  0
LINE
  8
0
 10
106.273
 20
23.2635
 11
106.305
 21
23.3522
  0
LINE
  8
0
 10
106.305
 20
23.3522
 11
106.343
 21
23.4387
  0
LINE
  8
0
 10
106.343
 20
23.4387
 11
106.386
 21
23.5226
  0
LINE
  8
0
 10
106.386
 20
23.5226
 11
106.434
 21
23.6037
  0
LINE
  8
0
 10
106.434
 20
23.6037
 11
106.486
 21
23.6817
  0
LINE
  8
0
 10
106.486
 20
23.6817
 11
106.544
 21
23.7561
  0
LINE
  8
0
 10
106.544
 20
23.7561
 11
106.607
 21
23.8268
  0
LINE
  8
0
 10
106.607
 20
23.8268
 11
106.673
 21
23.8934
  0
LINE
  8
0
 10
106.673
 20
23.8934
 11
106.744
 21
23.9558
  0
LINE
  8
0
 10
106.744
 20
23.9558
 11
106.818
 21
24.0135
  0
LINE
  8
0
 10
106.818
 20
24.0135
 11
106.896
 21
24.0665
  0
LINE
  8
0
 10
106.896
 20
24.0665
 11
106.977
 21
24.1145
  0
LINE
  8
0
 10
106.977
 20
24.1145
 11
107.061
 21
24.1572
  0
LINE
  8
0
 10
107.061
 20
24.1572
 11
107.148
 21
24.1947
  0
LINE
  8
0
 10
107.148
 20
24.1947
 11
107.236
 21
24.2266
  0
LINE
  8
0
 10
107.236
 20
24.2266
 11
107.327
 21
24.2529
  0
LINE
  8
0
 10
107.327
 20
24.2529
 11
107.419
 21
24.2734
  0
LINE
  8
0
 10
107.419
 20
24.2734
 11
107.512
 21
24.2882
  0
LINE
  8
0
 10
107.512
 20
24.2882
 11
107.606
 21
24.297
  0
LINE
  8
0
 10
107.606
 20
24.297
 11
107.7
 21
24.3
  0
LINE
  8
0
 10
107.7
 20
24.3
 11
107.794
 21
24.297
  0
LINE
  8
0
 10
107.794
 20
24.297
 11
107.888
 21
24.2882
  0
LINE
  8
0
 10
107.888
 20
24.2882
 11
107.981
 21
24.2734
  0
LINE
  8
0
 10
107.981
 20
24.2734
 11
108.073
 21
24.2529
  0
LINE
  8
0
 10
108.073
 20
24.2529
 11
108.164
 21
24.2266
  0
LINE
  8
0
 10
108.164
 20
24.2266
 11
108.252
 21
24.1947
  0
LINE
  8
0
 10
108.252
 20
24.1947
 11
108.339
 21
24.1572
  0
LINE
  8
0
 10
108.339
 20
24.1572
 11
108.423
 21
24.1145
  0
LINE
  8
0
 10
108.423
 20
24.1145
 11
108.504
 21
24.0665
  0
LINE
  8
0
 10
108.504
 20
24.0665
 11
108.582
 21
24.0135
  0
LINE
  8
0
 10
108.582
 20
24.0135
 11
108.656
 21
23.9558
  0
LINE
  8
0
 10
108.656
 20
23.9558
 11
108.727
 21
23.8934
  0
LINE
  8
0
 10
108.727
 20
23.8934
 11
108.793
 21
23.8268
  0
LINE
  8
0
 10
108.793
 20
23.8268
 11
108.856
 21
23.7561
  0
LINE
  8
0
 10
108.856
 20
23.7561
 11
108.914
 21
23.6817
  0
LINE
  8
0
 10
108.914
 20
23.6817
 11
108.966
 21
23.6037
  0
LINE
  8
0
 10
108.966
 20
23.6037
 11
109.014
 21
23.5226
  0
LINE
  8
0
 10
109.014
 20
23.5226
 11
109.057
 21
23.4387
  0
LINE
  8
0
 10
109.057
 20
23.4387
 11
109.095
 21
23.3522
  0
LINE
  8
0
 10
109.095
 20
23.3522
 11
109.127
 21
23.2635
  0
LINE
  8
0
 10
109.127
 20
23.2635
 11
109.153
 21
23.173
  0
LINE
  8
0
 10
109.153
 20
23.173
 11
109.173
 21
23.0811
  0
LINE
  8
0
 10
109.173
 20
23.0811
 11
109.188
 21
22.988
  0
LINE
  8
0
 10
109.188
 20
22.988
 11
109.197
 21
22.8942
  0
LINE
  8
0
 10
109.197
 20
22.8942
 11
109.2
 21
22.8
  0
LINE
  8
0
 10
109.2
 20
22.8
 11
109.197
 21
22.7058
  0
LINE
  8
0
 10
109.197
 20
22.7058
 11
109.188
 21
22.612
  0
LINE
  8
0
 10
109.188
 20
22.612
 11
109.173
 21
22.5189
  0
LINE
  8
0
 10
109.173
 20
22.5189
 11
109.153
 21
22.427
  0
LINE
  8
0
 10
109.153
 20
22.427
 11
109.127
 21
22.3365
  0
LINE
  8
0
 10
109.127
 20
22.3365
 11
109.095
 21
22.2478
  0
LINE
  8
0
 10
109.095
 20
22.2478
 11
109.057
 21
22.1613
  0
LINE
  8
0
 10
109.057
 20
22.1613
 11
109.014
 21
22.0774
  0
LINE
  8
0
 10
109.014
 20
22.0774
 11
108.966
 21
21.9962
  0
LINE
  8
0
 10
108.966
 20
21.9962
 11
108.914
 21
21.9183
  0
LINE
  8
0
 10
108.914
 20
21.9183
 11
108.856
 21
21.8439
  0
LINE
  8
0
 10
108.856
 20
21.8439
 11
108.793
 21
21.7732
  0
LINE
  8
0
 10
108.793
 20
21.7732
 11
108.727
 21
21.7065
  0
LINE
  8
0
 10
108.727
 20
21.7065
 11
108.656
 21
21.6442
  0
LINE
  8
0
 10
108.656
 20
21.6442
 11
108.582
 21
21.5865
  0
LINE
  8
0
 10
108.582
 20
21.5865
 11
108.504
 21
21.5335
  0
LINE
  8
0
 10
108.504
 20
21.5335
 11
108.423
 21
21.4855
  0
LINE
  8
0
 10
108.423
 20
21.4855
 11
108.339
 21
21.4427
  0
LINE
  8
0
 10
108.339
 20
21.4427
 11
108.252
 21
21.4053
  0
LINE
  8
0
 10
108.252
 20
21.4053
 11
108.164
 21
21.3734
  0
LINE
  8
0
 10
108.164
 20
21.3734
 11
108.073
 21
21.3471
  0
LINE
  8
0
 10
108.073
 20
21.3471
 11
107.981
 21
21.3266
  0
LINE
  8
0
 10
107.981
 20
21.3266
 11
107.888
 21
21.3118
  0
LINE
  8
0
 10
107.888
 20
21.3118
 11
107.794
 21
21.3029
  0
LINE
  8
0
 10
107.794
 20
21.3029
 11
107.7
 21
21.3
  0
LINE
  8
0
 10
107.7
 20
21.3
 11
107.606
 21
21.3029
  0
LINE
  8
0
 10
87.0145
 20
10.4574
 11
86.78
 21
10.4796
  0
LINE
  8
0
 10
86.78
 20
10.4796
 11
86.5473
 21
10.5164
  0
LINE
  8
0
 10
86.5473
 20
10.5164
 11
86.3174
 21
10.5678
  0
LINE
  8
0
 10
86.3174
 20
10.5678
 11
86.0912
 21
10.6335
  0
LINE
  8
0
 10
86.0912
 20
10.6335
 11
85.8695
 21
10.7133
  0
LINE
  8
0
 10
85.8695
 20
10.7133
 11
85.6533
 21
10.8069
  0
LINE
  8
0
 10
85.6533
 20
10.8069
 11
85.4434
 21
10.9138
  0
LINE
  8
0
 10
85.4434
 20
10.9138
 11
85.2406
 21
11.0338
  0
LINE
  8
0
 10
85.2406
 20
11.0338
 11
85.0458
 21
11.1662
  0
LINE
  8
0
 10
85.0458
 20
11.1662
 11
84.8596
 21
11.3106
  0
LINE
  8
0
 10
84.8596
 20
11.3106
 11
84.6829
 21
11.4664
  0
LINE
  8
0
 10
84.6829
 20
11.4664
 11
84.5164
 21
11.6329
  0
LINE
  8
0
 10
84.5164
 20
11.6329
 11
84.3606
 21
11.8096
  0
LINE
  8
0
 10
84.3606
 20
11.8096
 11
84.2162
 21
11.9958
  0
LINE
  8
0
 10
84.2162
 20
11.9958
 11
84.0838
 21
12.1906
  0
LINE
  8
0
 10
84.0838
 20
12.1906
 11
83.9638
 21
12.3934
  0
LINE
  8
0
 10
83.9638
 20
12.3934
 11
83.8569
 21
12.6033
  0
LINE
  8
0
 10
83.8569
 20
12.6033
 11
83.7633
 21
12.8195
  0
LINE
  8
0
 10
83.7633
 20
12.8195
 11
83.6835
 21
13.0412
  0
LINE
  8
0
 10
83.6835
 20
13.0412
 11
83.6178
 21
13.2674
  0
LINE
  8
0
 10
83.6178
 20
13.2674
 11
83.5664
 21
13.4973
  0
LINE
  8
0
 10
83.5664
 20
13.4973
 11
83.5296
 21
13.73
  0
LINE
  8
0
 10
83.5296
 20
13.73
 11
83.5074
 21
13.9645
  0
LINE
  8
0
 10
83.5074
 20
13.9645
 11
83.5
 21
14.2
  0
LINE
  8
0
 10
83.5
 20
14.2
 11
83.5074
 21
14.4355
  0
LINE
  8
0
 10
83.5074
 20
14.4355
 11
83.5296
 21
14.67
  0
LINE
  8
0
 10
83.5296
 20
14.67
 11
83.5664
 21
14.9027
  0
LINE
  8
0
 10
83.5664
 20
14.9027
 11
83.6178
 21
15.1326
  0
LINE
  8
0
 10
83.6178
 20
15.1326
 11
83.6835
 21
15.3588
  0
LINE
  8
0
 10
83.6835
 20
15.3588
 11
83.7633
 21
15.5805
  0
LINE
  8
0
 10
83.7633
 20
15.5805
 11
83.8569
 21
15.7967
  0
LINE
  8
0
 10
83.8569
 20
15.7967
 11
83.9638
 21
16.0066
  0
LINE
  8
0
 10
83.9638
 20
16.0066
 11
84.0838
 21
16.2093
  0
LINE
  8
0
 10
84.0838
 20
16.2093
 11
84.2162
 21
16.4042
  0
LINE
  8
0
 10
84.2162
 20
16.4042
 11
84.3606
 21
16.5903
  0
LINE
  8
0
 10
84.3606
 20
16.5903
 11
84.5164
 21
16.767
  0
LINE
  8
0
 10
84.5164
 20
16.767
 11
84.6829
 21
16.9336
  0
LINE
  8
0
 10
84.6829
 20
16.9336
 11
84.8596
 21
17.0894
  0
LINE
  8
0
 10
84.8596
 20
17.0894
 11
85.0458
 21
17.2338
  0
LINE
  8
0
 10
85.0458
 20
17.2338
 11
85.2406
 21
17.3662
  0
LINE
  8
0
 10
85.2406
 20
17.3662
 11
85.4434
 21
17.4861
  0
LINE
  8
0
 10
85.4434
 20
17.4861
 11
85.6533
 21
17.5931
  0
LINE
  8
0
 10
85.6533
 20
17.5931
 11
85.8695
 21
17.6867
  0
LINE
  8
0
 10
85.8695
 20
17.6867
 11
86.0912
 21
17.7664
  0
LINE
  8
0
 10
86.0912
 20
17.7664
 11
86.3174
 21
17.8322
  0
LINE
  8
0
 10
86.3174
 20
17.8322
 11
86.5473
 21
17.8836
  0
LINE
  8
0
 10
86.5473
 20
17.8836
 11
86.78
 21
17.9204
  0
LINE
  8
0
 10
86.78
 20
17.9204
 11
87.0145
 21
17.9426
  0
LINE
  8
0
 10
87.0145
 20
17.9426
 11
87.25
 21
17.95
  0
LINE
  8
0
 10
87.25
 20
17.95
 11
87.4855
 21
17.9426
  0
LINE
  8
0
 10
87.4855
 20
17.9426
 11
87.72
 21
17.9204
  0
LINE
  8
0
 10
87.72
 20
17.9204
 11
87.9527
 21
17.8836
  0
LINE
  8
0
 10
87.9527
 20
17.8836
 11
88.1826
 21
17.8322
  0
LINE
  8
0
 10
88.1826
 20
17.8322
 11
88.4088
 21
17.7664
  0
LINE
  8
0
 10
88.4088
 20
17.7664
 11
88.6305
 21
17.6867
  0
LINE
  8
0
 10
88.6305
 20
17.6867
 11
88.8467
 21
17.5931
  0
LINE
  8
0
 10
88.8467
 20
17.5931
 11
89.0566
 21
17.4861
  0
LINE
  8
0
 10
89.0566
 20
17.4861
 11
89.2593
 21
17.3662
  0
LINE
  8
0
 10
89.2593
 20
17.3662
 11
89.4542
 21
17.2338
  0
LINE
  8
0
 10
89.4542
 20
17.2338
 11
89.6403
 21
17.0894
  0
LINE
  8
0
 10
89.6403
 20
17.0894
 11
89.817
 21
16.9336
  0
LINE
  8
0
 10
89.817
 20
16.9336
 11
89.9836
 21
16.767
  0
LINE
  8
0
 10
89.9836
 20
16.767
 11
90.1394
 21
16.5903
  0
LINE
  8
0
 10
90.1394
 20
16.5903
 11
90.2838
 21
16.4042
  0
LINE
  8
0
 10
90.2838
 20
16.4042
 11
90.4162
 21
16.2093
  0
LINE
  8
0
 10
90.4162
 20
16.2093
 11
90.5361
 21
16.0066
  0
LINE
  8
0
 10
90.5361
 20
16.0066
 11
90.6431
 21
15.7967
  0
LINE
  8
0
 10
90.6431
 20
15.7967
 11
90.7366
 21
15.5805
  0
LINE
  8
0
 10
90.7366
 20
15.5805
 11
90.8165
 21
15.3588
  0
LINE
  8
0
 10
90.8165
 20
15.3588
 11
90.8822
 21
15.1326
  0
LINE
  8
0
 10
90.8822
 20
15.1326
 11
90.9336
 21
14.9027
  0
LINE
  8
0
 10
90.9336
 20
14.9027
 11
90.9704
 21
14.67
  0
LINE
  8
0
 10
90.9704
 20
14.67
 11
90.9926
 21
14.4355
  0
LINE
  8
0
 10
90.9926
 20
14.4355
 11
91
 21
14.2
  0
LINE
  8
0
 10
91
 20
14.2
 11
90.9926
 21
13.9645
  0
LINE
  8
0
 10
90.9926
 20
13.9645
 11
90.9704
 21
13.73
  0
LINE
  8
0
 10
90.9704
 20
13.73
 11
90.9336
 21
13.4973
  0
LINE
  8
0
 10
90.9336
 20
13.4973
 11
90.8822
 21
13.2674
  0
LINE
  8
0
 10
90.8822
 20
13.2674
 11
90.8165
 21
13.0412
  0
LINE
  8
0
 10
90.8165
 20
13.0412
 11
90.7366
 21
12.8195
  0
LINE
  8
0
 10
90.7366
 20
12.8195
 11
90.6431
 21
12.6033
  0
LINE
  8
0
 10
90.6431
 20
12.6033
 11
90.5361
 21
12.3934
  0
LINE
  8
0
 10
90.5361
 20
12.3934
 11
90.4162
 21
12.1906
  0
LINE
  8
0
 10
90.4162
 20
12.1906
 11
90.2838
 21
11.9958
  0
LINE
  8
0
 10
90.2838
 20
11.9958
 11
90.1394
 21
11.8096
  0
LINE
  8
0
 10
90.1394
 20
11.8096
 11
89.9836
 21
11.6329
  0
LINE
  8
0
 10
89.9836
 20
11.6329
 11
89.817
 21
11.4664
  0
LINE
  8
0
 10
89.817
 20
11.4664
 11
89.6403
 21
11.3106
  0
LINE
  8
0
 10
89.6403
 20
11.3106
 11
89.4542
 21
11.1662
  0
LINE
  8
0
 10
89.4542
 20
11.1662
 11
89.2593
 21
11.0338
  0
LINE
  8
0
 10
89.2593
 20
11.0338
 11
89.0566
 21
10.9138
  0
LINE
  8
0
 10
89.0566
 20
10.9138
 11
88.8467
 21
10.8069
  0
LINE
  8
0
 10
88.8467
 20
10.8069
 11
88.6305
 21
10.7133
  0
LINE
  8
0
 10
88.6305
 20
10.7133
 11
88.4088
 21
10.6335
  0
LINE
  8
0
 10
88.4088
 20
10.6335
 11
88.1826
 21
10.5678
  0
LINE
  8
0
 10
88.1826
 20
10.5678
 11
87.9527
 21
10.5164
  0
LINE
  8
0
 10
87.9527
 20
10.5164
 11
87.72
 21
10.4796
  0
LINE
  8
0
 10
87.72
 20
10.4796
 11
87.4855
 21
10.4574
  0
LINE
  8
0
 10
87.4855
 20
10.4574
 11
87.25
 21
10.45
  0
LINE
  8
0
 10
87.25
 20
10.45
 11
87.0145
 21
10.4574
  0
LINE
  8
0
 10
117
 20
11.7
 11
117
 21
16.7
  0
LINE
  8
0
 10
117
 20
16.7
 11
120
 21
16.7
  0
LINE
  8
0
 10
120
 20
16.7
 11
120
 21
11.7
  0
LINE
  8
0
 10
120
 20
11.7
 11
117
 21
11.7
  0
LINE
  8
0
 10
98.3744
 20
12.2039
 11
98.2493
 21
12.2158
  0
LINE
  8
0
 10
98.2493
 20
12.2158
 11
98.1252
 21
12.2354
  0
LINE
  8
0
 10
98.1252
 20
12.2354
 11
98.0026
 21
12.2628
  0
LINE
  8
0
 10
98.0026
 20
12.2628
 11
97.882
 21
12.2979
  0
LINE
  8
0
 10
97.882
 20
12.2979
 11
97.7637
 21
12.3404
  0
LINE
  8
0
 10
97.7637
 20
12.3404
 11
97.6484
 21
12.3903
  0
LINE
  8
0
 10
97.6484
 20
12.3903
 11
97.5365
 21
12.4474
  0
LINE
  8
0
 10
97.5365
 20
12.4474
 11
97.4283
 21
12.5113
  0
LINE
  8
0
 10
97.4283
 20
12.5113
 11
97.3244
 21
12.582
  0
LINE
  8
0
 10
97.3244
 20
12.582
 11
97.2251
 21
12.659
  0
LINE
  8
0
 10
97.2251
 20
12.659
 11
97.1309
 21
12.7421
  0
LINE
  8
0
 10
97.1309
 20
12.7421
 11
97.0421
 21
12.8309
  0
LINE
  8
0
 10
97.0421
 20
12.8309
 11
96.959
 21
12.9251
  0
LINE
  8
0
 10
96.959
 20
12.9251
 11
96.882
 21
13.0244
  0
LINE
  8
0
 10
96.882
 20
13.0244
 11
96.8113
 21
13.1283
  0
LINE
  8
0
 10
96.8113
 20
13.1283
 11
96.7474
 21
13.2365
  0
LINE
  8
0
 10
96.7474
 20
13.2365
 11
96.6903
 21
13.3484
  0
LINE
  8
0
 10
96.6903
 20
13.3484
 11
96.6404
 21
13.4637
  0
LINE
  8
0
 10
96.6404
 20
13.4637
 11
96.5979
 21
13.582
  0
LINE
  8
0
 10
96.5979
 20
13.582
 11
96.5628
 21
13.7026
  0
LINE
  8
0
 10
96.5628
 20
13.7026
 11
96.5354
 21
13.8252
  0
LINE
  8
0
 10
96.5354
 20
13.8252
 11
96.5158
 21
13.9493
  0
LINE
  8
0
 10
96.5158
 20
13.9493
 11
96.5039
 21
14.0744
  0
LINE
  8
0
 10
96.5039
 20
14.0744
 11
96.5
 21
14.2
  0
LINE
  8
0
 10
96.5
 20
14.2
 11
96.5039
 21
14.3256
  0
LINE
  8
0
 10
96.5039
 20
14.3256
 11
96.5158
 21
14.4507
  0
LINE
  8
0
 10
96.5158
 20
14.4507
 11
96.5354
 21
14.5748
  0
LINE
  8
0
 10
96.5354
 20
14.5748
 11
96.5628
 21
14.6974
  0
LINE
  8
0
 10
96.5628
 20
14.6974
 11
96.5979
 21
14.818
  0
LINE
  8
0
 10
96.5979
 20
14.818
 11
96.6404
 21
14.9362
  0
LINE
  8
0
 10
96.6404
 20
14.9362
 11
96.6903
 21
15.0515
  0
LINE
  8
0
 10
96.6903
 20
15.0515
 11
96.7474
 21
15.1635
  0
LINE
  8
0
 10
96.7474
 20
15.1635
 11
96.8113
 21
15.2717
  0
LINE
  8
0
 10
96.8113
 20
15.2717
 11
96.882
 21
15.3756
  0
LINE
  8
0
 10
96.882
 20
15.3756
 11
96.959
 21
15.4748
  0
LINE
  8
0
 10
96.959
 20
15.4748
 11
97.0421
 21
15.5691
  0
LINE
  8
0
 10
97.0421
 20
15.5691
 11
97.1309
 21
15.6579
  0
LINE
  8
0
 10
97.1309
 20
15.6579
 11
97.2251
 21
15.741
  0
LINE
  8
0
 10
97.2251
 20
15.741
 11
97.3244
 21
15.818
  0
LINE
  8
0
 10
97.3244
 20
15.818
 11
97.4283
 21
15.8886
  0
LINE
  8
0
 10
97.4283
 20
15.8886
 11
97.5365
 21
15.9526
  0
LINE
  8
0
 10
97.5365
 20
15.9526
 11
97.6484
 21
16.0096
  0
LINE
  8
0
 10
97.6484
 20
16.0096
 11
97.7637
 21
16.0595
  0
LINE
  8
0
 10
97.7637
 20
16.0595
 11
97.882
 21
16.1021
  0
LINE
  8
0
 10
97.882
 20
16.1021
 11
98.0026
 21
16.1372
  0
LINE
  8
0
 10
98.0026
 20
16.1372
 11
98.1252
 21
16.1646
  0
LINE
  8
0
 10
98.1252
 20
16.1646
 11
98.2493
 21
16.1842
  0
LINE
  8
0
 10
98.2493
 20
16.1842
 11
98.3744
 21
16.196
  0
LINE
  8
0
 10
98.3744
 20
16.196
 11
98.5
 21
16.2
  0
LINE
  8
0
 10
98.5
 20
16.2
 11
98.6256
 21
16.196
  0
LINE
  8
0
 10
98.6256
 20
16.196
 11
98.7507
 21
16.1842
  0
LINE
  8
0
 10
98.7507
 20
16.1842
 11
98.8748
 21
16.1646
  0
LINE
  8
0
 10
98.8748
 20
16.1646
 11
98.9974
 21
16.1372
  0
LINE
  8
0
 10
98.9974
 20
16.1372
 11
99.118
 21
16.1021
  0
LINE
  8
0
 10
99.118
 20
16.1021
 11
99.2362
 21
16.0595
  0
LINE
  8
0
 10
99.2362
 20
16.0595
 11
99.3515
 21
16.0096
  0
LINE
  8
0
 10
99.3515
 20
16.0096
 11
99.4635
 21
15.9526
  0
LINE
  8
0
 10
99.4635
 20
15.9526
 11
99.5716
 21
15.8886
  0
LINE
  8
0
 10
99.5716
 20
15.8886
 11
99.6756
 21
15.818
  0
LINE
  8
0
 10
99.6756
 20
15.818
 11
99.7748
 21
15.741
  0
LINE
  8
0
 10
99.7748
 20
15.741
 11
99.8691
 21
15.6579
  0
LINE
  8
0
 10
99.8691
 20
15.6579
 11
99.9579
 21
15.5691
  0
LINE
  8
0
 10
99.9579
 20
15.5691
 11
100.041
 21
15.4748
  0
LINE
  8
0
 10
100.041
 20
15.4748
 11
100.118
 21
15.3756
  0
LINE
  8
0
 10
100.118
 20
15.3756
 11
100.189
 21
15.2717
  0
LINE
  8
0
 10
100.189
 20
15.2717
 11
100.253
 21
15.1635
  0
LINE
  8
0
 10
100.253
 20
15.1635
 11
100.31
 21
15.0515
  0
LINE
  8
0
 10
100.31
 20
15.0515
 11
100.36
 21
14.9362
  0
LINE
  8
0
 10
100.36
 20
14.9362
 11
100.402
 21
14.818
  0
LINE
  8
0
 10
100.402
 20
14.818
 11
100.437
 21
14.6974
  0
LINE
  8
0
 10
100.437
 20
14.6974
 11
100.465
 21
14.5748
  0
LINE
  8
0
 10
100.465
 20
14.5748
 11
100.484
 21
14.4507
  0
LINE
  8
0
 10
100.484
 20
14.4507
 11
100.496
 21
14.3256
  0
LINE
  8
0
 10
100.496
 20
14.3256
 11
100.5
 21
14.2
  0
LINE
  8
0
 10
100.5
 20
14.2
 11
100.496
 21
14.0744
  0
LINE
  8
0
 10
100.496
 20
14.0744
 11
100.484
 21
13.9493
  0
LINE
  8
0
 10
100.484
 20
13.9493
 11
100.465
 21
13.8252
  0
LINE
  8
0
 10
100.465
 20
13.8252
 11
100.437
 21
13.7026
  0
LINE
  8
0
 10
100.437
 20
13.7026
 11
100.402
 21
13.582
  0
LINE
  8
0
 10
100.402
 20
13.582
 11
100.36
 21
13.4637
  0
LINE
  8
0
 10
100.36
 20
13.4637
 11
100.31
 21
13.3484
  0
LINE
  8
0
 10
100.31
 20
13.3484
 11
100.253
 21
13.2365
  0
LINE
  8
0
 10
100.253
 20
13.2365
 11
100.189
 21
13.1283
  0
LINE
  8
0
 10
100.189
 20
13.1283
 11
100.118
 21
13.0244
  0
LINE
  8
0
 10
100.118
 20
13.0244
 11
100.041
 21
12.9251
  0
LINE
  8
0
 10
100.041
 20
12.9251
 11
99.9579
 21
12.8309
  0
LINE
  8
0
 10
99.9579
 20
12.8309
 11
99.8691
 21
12.7421
  0
LINE
  8
0
 10
99.8691
 20
12.7421
 11
99.7748
 21
12.659
  0
LINE
  8
0
 10
99.7748
 20
12.659
 11
99.6756
 21
12.582
  0
LINE
  8
0
 10
99.6756
 20
12.582
 11
99.5716
 21
12.5113
  0
LINE
  8
0
 10
99.5716
 20
12.5113
 11
99.4635
 21
12.4474
  0
LINE
  8
0
 10
99.4635
 20
12.4474
 11
99.3515
 21
12.3903
  0
LINE
  8
0
 10
99.3515
 20
12.3903
 11
99.2362
 21
12.3404
  0
LINE
  8
0
 10
99.2362
 20
12.3404
 11
99.118
 21
12.2979
  0
LINE
  8
0
 10
99.118
 20
12.2979
 11
98.9974
 21
12.2628
  0
LINE
  8
0
 10
98.9974
 20
12.2628
 11
98.8748
 21
12.2354
  0
LINE
  8
0
 10
98.8748
 20
12.2354
 11
98.7507
 21
12.2158
  0
LINE
  8
0
 10
98.7507
 20
12.2158
 11
98.6256
 21
12.2039
  0
LINE
  8
0
 10
98.6256
 20
12.2039
 11
98.5
 21
12.2
  0
LINE
  8
0
 10
98.5
 20
12.2
 11
98.3744
 21
12.2039
  0
LINE
  8
0
 10
107.606
 20
4.10295
 11
107.512
 21
4.11182
  0
LINE
  8
0
 10
107.512
 20
4.11182
 11
107.419
 21
4.12656
  0
LINE
  8
0
 10
107.419
 20
4.12656
 11
107.327
 21
4.14713
  0
LINE
  8
0
 10
107.327
 20
4.14713
 11
107.236
 21
4.1734
  0
LINE
  8
0
 10
107.236
 20
4.1734
 11
107.148
 21
4.20532
  0
LINE
  8
0
 10
107.148
 20
4.20532
 11
107.061
 21
4.24275
  0
LINE
  8
0
 10
107.061
 20
4.24275
 11
106.977
 21
4.28554
  0
LINE
  8
0
 10
106.977
 20
4.28554
 11
106.896
 21
4.3335
  0
LINE
  8
0
 10
106.896
 20
4.3335
 11
106.818
 21
4.38646
  0
LINE
  8
0
 10
106.818
 20
4.38646
 11
106.744
 21
4.44423
  0
LINE
  8
0
 10
106.744
 20
4.44423
 11
106.673
 21
4.50655
  0
LINE
  8
0
 10
106.673
 20
4.50655
 11
106.607
 21
4.57317
  0
LINE
  8
0
 10
106.607
 20
4.57317
 11
106.544
 21
4.64386
  0
LINE
  8
0
 10
106.544
 20
4.64386
 11
106.486
 21
4.71831
  0
LINE
  8
0
 10
106.486
 20
4.71831
 11
106.434
 21
4.79625
  0
LINE
  8
0
 10
106.434
 20
4.79625
 11
106.386
 21
4.87737
  0
LINE
  8
0
 10
106.386
 20
4.87737
 11
106.343
 21
4.96132
  0
LINE
  8
0
 10
106.343
 20
4.96132
 11
106.305
 21
5.04781
  0
LINE
  8
0
 10
106.305
 20
5.04781
 11
106.273
 21
5.13646
  0
LINE
  8
0
 10
106.273
 20
5.13646
 11
106.247
 21
5.22696
  0
LINE
  8
0
 10
106.247
 20
5.22696
 11
106.227
 21
5.31892
  0
LINE
  8
0
 10
106.227
 20
5.31892
 11
106.212
 21
5.41199
  0
LINE
  8
0
 10
106.212
 20
5.41199
 11
106.203
 21
5.50581
  0
LINE
  8
0
 10
106.203
 20
5.50581
 11
106.2
 21
5.59999
  0
LINE
  8
0
 10
106.2
 20
5.59999
 11
106.203
 21
5.69418
  0
LINE
  8
0
 10
106.203
 20
5.69418
 11
106.212
 21
5.78799
  0
LINE
  8
0
 10
106.212
 20
5.78799
 11
106.227
 21
5.88106
  0
LINE
  8
0
 10
106.227
 20
5.88106
 11
106.247
 21
5.97302
  0
LINE
  8
0
 10
106.247
 20
5.97302
 11
106.273
 21
6.06352
  0
LINE
  8
0
 10
106.273
 20
6.06352
 11
106.305
 21
6.15218
  0
LINE
  8
0
 10
106.305
 20
6.15218
 11
106.343
 21
6.23866
  0
LINE
  8
0
 10
106.343
 20
6.23866
 11
106.386
 21
6.32262
  0
LINE
  8
0
 10
106.386
 20
6.32262
 11
106.434
 21
6.40373
  0
LINE
  8
0
 10
106.434
 20
6.40373
 11
106.486
 21
6.48167
  0
LINE
  8
0
 10
106.486
 20
6.48167
 11
106.544
 21
6.55612
  0
LINE
  8
0
 10
106.544
 20
6.55612
 11
106.607
 21
6.62682
  0
LINE
  8
0
 10
106.607
 20
6.62682
 11
106.673
 21
6.69345
  0
LINE
  8
0
 10
106.673
 20
6.69345
 11
106.744
 21
6.75577
  0
LINE
  8
0
 10
106.744
 20
6.75577
 11
106.818
 21
6.81352
  0
LINE
  8
0
 10
106.818
 20
6.81352
 11
106.896
 21
6.86649
  0
LINE
  8
0
 10
106.896
 20
6.86649
 11
106.977
 21
6.91446
  0
LINE
  8
0
 10
106.977
 20
6.91446
 11
107.061
 21
6.95723
  0
LINE
  8
0
 10
107.061
 20
6.95723
 11
107.148
 21
6.99466
  0
LINE
  8
0
 10
107.148
 20
6.99466
 11
107.236
 21
7.02658
  0
LINE
  8
0
 10
107.236
 20
7.02658
 11
107.327
 21
7.05287
  0
LINE
  8
0
 10
107.327
 20
7.05287
 11
107.419
 21
7.07343
  0
LINE
  8
0
 10
107.419
 20
7.07343
 11
107.512
 21
7.08817
  0
LINE
  8
0
 10
107.512
 20
7.08817
 11
107.606
 21
7.09703
  0
LINE
  8
0
 10
107.606
 20
7.09703
 11
107.7
 21
7.09999
  0
LINE
  8
0
 10
107.7
 20
7.09999
 11
107.794
 21
7.09703
  0
LINE
  8
0
 10
107.794
 20
7.09703
 11
107.888
 21
7.08817
  0
LINE
  8
0
 10
107.888
 20
7.08817
 11
107.981
 21
7.07343
  0
LINE
  8
0
 10
107.981
 20
7.07343
 11
108.073
 21
7.05287
  0
LINE
  8
0
 10
108.073
 20
7.05287
 11
108.164
 21
7.02658
  0
LINE
  8
0
 10
108.164
 20
7.02658
 11
108.252
 21
6.99466
  0
LINE
  8
0
 10
108.252
 20
6.99466
 11
108.339
 21
6.95723
  0
LINE
  8
0
 10
108.339
 20
6.95723
 11
108.423
 21
6.91446
  0
LINE
  8
0
 10
108.423
 20
6.91446
 11
108.504
 21
6.86649
  0
LINE
  8
0
 10
108.504
 20
6.86649
 11
108.582
 21
6.81352
  0
LINE
  8
0
 10
108.582
 20
6.81352
 11
108.656
 21
6.75577
  0
LINE
  8
0
 10
108.656
 20
6.75577
 11
108.727
 21
6.69345
  0
LINE
  8
0
 10
108.727
 20
6.69345
 11
108.793
 21
6.62682
  0
LINE
  8
0
 10
108.793
 20
6.62682
 11
108.856
 21
6.55612
  0
LINE
  8
0
 10
108.856
 20
6.55612
 11
108.914
 21
6.48167
  0
LINE
  8
0
 10
108.914
 20
6.48167
 11
108.966
 21
6.40373
  0
LINE
  8
0
 10
108.966
 20
6.40373
 11
109.014
 21
6.32262
  0
LINE
  8
0
 10
109.014
 20
6.32262
 11
109.057
 21
6.23866
  0
LINE
  8
0
 10
109.057
 20
6.23866
 11
109.095
 21
6.15218
  0
LINE
  8
0
 10
109.095
 20
6.15218
 11
109.127
 21
6.06352
  0
LINE
  8
0
 10
109.127
 20
6.06352
 11
109.153
 21
5.97302
  0
LINE
  8
0
 10
109.153
 20
5.97302
 11
109.173
 21
5.88106
  0
LINE
  8
0
 10
109.173
 20
5.88106
 11
109.188
 21
5.78799
  0
LINE
  8
0
 10
109.188
 20
5.78799
 11
109.197
 21
5.69418
  0
LINE
  8
0
 10
109.197
 20
5.69418
 11
109.2
 21
5.59999
  0
LINE
  8
0
 10
109.2
 20
5.59999
 11
109.197
 21
5.50581
  0
LINE
  8
0
 10
109.197
 20
5.50581
 11
109.188
 21
5.41199
  0
LINE
  8
0
 10
109.188
 20
5.41199
 11
109.173
 21
5.31892
  0
LINE
  8
0
 10
109.173
 20
5.31892
 11
109.153
 21
5.22696
  0
LINE
  8
0
 10
109.153
 20
5.22696
 11
109.127
 21
5.13646
  0
LINE
  8
0
 10
109.127
 20
5.13646
 11
109.095
 21
5.04781
  0
LINE
  8
0
 10
109.095
 20
5.04781
 11
109.057
 21
4.96132
  0
LINE
  8
0
 10
109.057
 20
4.96132
 11
109.014
 21
4.87737
  0
LINE
  8
0
 10
109.014
 20
4.87737
 11
108.966
 21
4.79625
  0
LINE
  8
0
 10
108.966
 20
4.79625
 11
108.914
 21
4.71831
  0
LINE
  8
0
 10
108.914
 20
4.71831
 11
108.856
 21
4.64386
  0
LINE
  8
0
 10
108.856
 20
4.64386
 11
108.793
 21
4.57317
  0
LINE
  8
0
 10
108.793
 20
4.57317
 11
108.727
 21
4.50655
  0
LINE
  8
0
 10
108.727
 20
4.50655
 11
108.656
 21
4.44423
  0
LINE
  8
0
 10
108.656
 20
4.44423
 11
108.582
 21
4.38646
  0
LINE
  8
0
 10
108.582
 20
4.38646
 11
108.504
 21
4.3335
  0
LINE
  8
0
 10
108.504
 20
4.3335
 11
108.423
 21
4.28554
  0
LINE
  8
0
 10
108.423
 20
4.28554
 11
108.339
 21
4.24275
  0
LINE
  8
0
 10
108.339
 20
4.24275
 11
108.252
 21
4.20532
  0
LINE
  8
0
 10
108.252
 20
4.20532
 11
108.164
 21
4.1734
  0
LINE
  8
0
 10
108.164
 20
4.1734
 11
108.073
 21
4.14713
  0
LINE
  8
0
 10
108.073
 20
4.14713
 11
107.981
 21
4.12656
  0
LINE
  8
0
 10
107.981
 20
4.12656
 11
107.888
 21
4.11182
  0
LINE
  8
0
 10
107.888
 20
4.11182
 11
107.794
 21
4.10295
  0
LINE
  8
0
 10
107.794
 20
4.10295
 11
107.7
 21
4.09999
  0
LINE
  8
0
 10
107.7
 20
4.09999
 11
107.606
 21
4.10295
  0
LINE
  8
0
 10
24
 20
3
 11
42
 21
3
  0
LINE
  8
0
 10
42
 20
3
 11
42
 21
0
  0
LINE
  8
0
 10
42
 20
0
 11
54
 21
0
  0
LINE
  8
0
 10
54
 20
0
 11
54
 21
3
  0
LINE
  8
0
 10
54
 20
3
 11
63
 21
3
  0
LINE
  8
0
 10
63
 20
3
 11
63
 21
12
  0
LINE
  8
0
 10
63
 20
12
 11
66
 21
12
  0
LINE
  8
0
 10
66
 20
12
 11
66
 21
24
  0
LINE
  8
0
 10
66
 20
24
 11
63
 21
24
  0
LINE
  8
0
 10
63
 20
24
 11
63
 21
42
  0
LINE
  8
0
 10
63
 20
42
 11
66
 21
42
  0
LINE
  8
0
 10
66
 20
42
 11
66
 21
54
  0
LINE
  8
0
 10
66
 20
54
 11
63
 21
54
  0
LINE
  8
0
 10
63
 20
54
 11
63
 21
63
  0
LINE
  8
0
 10
63
 20
63
 11
54
 21
63
  0
LINE
  8
0
 10
54
 20
63
 11
54
 21
66
  0
LINE
  8
0
 10
54
 20
66
 11
42
 21
66
  0
LINE
  8
0
 10
42
 20
66
 11
42
 21
63
  0
LINE
  8
0
 10
42
 20
63
 11
24
 21
63
  0
LINE
  8
0
 10
24
 20
63
 11
24
 21
66
  0
LINE
  8
0
 10
24
 20
66
 11
12
 21
66
  0
LINE
  8
0
 10
12
 20
66
 11
12
 21
63
  0
LINE
  8
0
 10
12
 20
63
 11
3
 21
63
  0
LINE
  8
0
 10
3
 20
63
 11
3
 21
54
  0
LINE
  8
0
 10
3
 20
54
 11
0
 21
54
  0
LINE
  8
0
 10
0
 20
54
 11
0
 21
42
  0
LINE
  8
0
 10
0
 20
42
 11
3
 21
42
  0
LINE
  8
0
 10
3
 20
42
 11
3
 21
24
  0
LINE
  8
0
 10
3
 20
24
 11
0
 21
24
  0
LINE
  8
0
 10
0
 20
24
 11
0
 21
12
  0
LINE
  8
0
 10
0
 20
12
 11
3
 21
12
  0
LINE
  8
0
 10
3
 20
12
 11
3
 21
3
  0
LINE
  8
0
 10
3
 20
3
 11
12
 21
3
  0
LINE
  8
0
 10
12
 20
3
 11
12
 21
0
  0
LINE
  8
0
 10
12
 20
0
 11
24
 21
0
  0
LINE
  8
0
 10
24
 20
0
 11
24
 21
3
  0
LINE
  8
0
 10
45.9977
 20
35.0158
 11
45.4973
 21
35.0631
  0
LINE
  8
0
 10
45.4973
 20
35.0631
 11
45.0009
 21
35.1417
  0
LINE
  8
0
 10
45.0009
 20
35.1417
 11
44.5105
 21
35.2513
  0
LINE
  8
0
 10
44.5105
 20
35.2513
 11
44.0279
 21
35.3916
  0
LINE
  8
0
 10
44.0279
 20
35.3916
 11
43.555
 21
35.5618
  0
LINE
  8
0
 10
43.555
 20
35.5618
 11
43.0938
 21
35.7614
  0
LINE
  8
0
 10
43.0938
 20
35.7614
 11
42.646
 21
35.9895
  0
LINE
  8
0
 10
42.646
 20
35.9895
 11
42.2134
 21
36.2454
  0
LINE
  8
0
 10
42.2134
 20
36.2454
 11
41.7977
 21
36.5279
  0
LINE
  8
0
 10
41.7977
 20
36.5279
 11
41.4006
 21
36.8359
  0
LINE
  8
0
 10
41.4006
 20
36.8359
 11
41.0236
 21
37.1683
  0
LINE
  8
0
 10
41.0236
 20
37.1683
 11
40.6682
 21
37.5236
  0
LINE
  8
0
 10
40.6682
 20
37.5236
 11
40.3359
 21
37.9006
  0
LINE
  8
0
 10
40.3359
 20
37.9006
 11
40.0279
 21
38.2977
  0
LINE
  8
0
 10
40.0279
 20
38.2977
 11
39.7454
 21
38.7134
  0
LINE
  8
0
 10
39.7454
 20
38.7134
 11
39.4895
 21
39.146
  0
LINE
  8
0
 10
39.4895
 20
39.146
 11
39.2614
 21
39.5938
  0
LINE
  8
0
 10
39.2614
 20
39.5938
 11
39.0618
 21
40.055
  0
LINE
  8
0
 10
39.0618
 20
40.055
 11
38.8915
 21
40.5279
  0
LINE
  8
0
 10
38.8915
 20
40.5279
 11
38.7513
 21
41.0105
  0
LINE
  8
0
 10
38.7513
 20
41.0105
 11
38.6417
 21
41.501
  0
LINE
  8
0
 10
38.6417
 20
41.501
 11
38.5631
 21
41.9973
  0
LINE
  8
0
 10
38.5631
 20
41.9973
 11
38.5158
 21
42.4977
  0
LINE
  8
0
 10
38.5158
 20
42.4977
 11
38.5
 21
43
  0
LINE
  8
0
 10
38.5
 20
43
 11
38.5158
 21
43.5023
  0
LINE
  8
0
 10
38.5158
 20
43.5023
 11
38.5631
 21
44.0027
  0
LINE
  8
0
 10
38.5631
 20
44.0027
 11
38.6417
 21
44.499
  0
LINE
  8
0
 10
38.6417
 20
44.499
 11
38.7513
 21
44.9895
  0
LINE
  8
0
 10
38.7513
 20
44.9895
 11
38.8915
 21
45.4721
  0
LINE
  8
0
 10
38.8915
 20
45.4721
 11
39.0618
 21
45.945
  0
LINE
  8
0
 10
39.0618
 20
45.945
 11
39.2614
 21
46.4062
  0
LINE
  8
0
 10
39.2614
 20
46.4062
 11
39.4895
 21
46.854
  0
LINE
  8
0
 10
39.4895
 20
46.854
 11
39.7454
 21
47.2866
  0
LINE
  8
0
 10
39.7454
 20
47.2866
 11
40.0279
 21
47.7023
  0
LINE
  8
0
 10
40.0279
 20
47.7023
 11
40.3359
 21
48.0994
  0
LINE
  8
0
 10
40.3359
 20
48.0994
 11
40.6682
 21
48.4764
  0
LINE
  8
0
 10
40.6682
 20
48.4764
 11
41.0236
 21
48.8317
  0
LINE
  8
0
 10
41.0236
 20
48.8317
 11
41.4006
 21
49.1641
  0
LINE
  8
0
 10
41.4006
 20
49.1641
 11
41.7977
 21
49.4721
  0
LINE
  8
0
 10
41.7977
 20
49.4721
 11
42.2134
 21
49.7546
  0
LINE
  8
0
 10
42.2134
 20
49.7546
 11
42.646
 21
50.0105
  0
LINE
  8
0
 10
42.646
 20
50.0105
 11
43.0938
 21
50.2386
  0
LINE
  8
0
 10
43.0938
 20
50.2386
 11
43.555
 21
50.4382
  0
LINE
  8
0
 10
43.555
 20
50.4382
 11
44.0279
 21
50.6084
  0
LINE
  8
0
 10
44.0279
 20
50.6084
 11
44.5105
 21
50.7487
  0
LINE
  8
0
 10
44.5105
 20
50.7487
 11
45.0009
 21
50.8583
  0
LINE
  8
0
 10
45.0009
 20
50.8583
 11
45.4973
 21
50.9369
  0
LINE
  8
0
 10
45.4973
 20
50.9369
 11
45.9977
 21
50.9842
  0
LINE
  8
0
 10
45.9977
 20
50.9842
 11
46.5
 21
51
  0
LINE
  8
0
 10
46.5
 20
51
 11
47.0023
 21
50.9842
  0
LINE
  8
0
 10
47.0023
 20
50.9842
 11
47.5027
 21
50.9369
  0
LINE
  8
0
 10
47.5027
 20
50.9369
 11
47.999
 21
50.8583
  0
LINE
  8
0
 10
47.999
 20
50.8583
 11
48.4895
 21
50.7487
  0
LINE
  8
0
 10
48.4895
 20
50.7487
 11
48.9721
 21
50.6084
  0
LINE
  8
0
 10
48.9721
 20
50.6084
 11
49.445
 21
50.4382
  0
LINE
  8
0
 10
49.445
 20
50.4382
 11
49.9062
 21
50.2386
  0
LINE
  8
0
 10
49.9062
 20
50.2386
 11
50.354
 21
50.0105
  0
LINE
  8
0
 10
50.354
 20
50.0105
 11
50.7866
 21
49.7546
  0
LINE
  8
0
 10
50.7866
 20
49.7546
 11
51.2023
 21
49.4721
  0
LINE
  8
0
 10
51.2023
 20
49.4721
 11
51.5994
 21
49.1641
  0
LINE
  8
0
 10
51.5994
 20
49.1641
 11
51.9764
 21
48.8317
  0
LINE
  8
0
 10
51.9764
 20
48.8317
 11
52.3317
 21
48.4764
  0
LINE
  8
0
 10
52.3317
 20
48.4764
 11
52.6641
 21
48.0994
  0
LINE
  8
0
 10
52.6641
 20
48.0994
 11
52.9721
 21
47.7023
  0
LINE
  8
0
 10
52.9721
 20
47.7023
 11
53.2546
 21
47.2866
  0
LINE
  8
0
 10
53.2546
 20
47.2866
 11
53.5105
 21
46.854
  0
LINE
  8
0
 10
53.5105
 20
46.854
 11
53.7386
 21
46.4062
  0
LINE
  8
0
 10
53.7386
 20
46.4062
 11
53.9382
 21
45.945
  0
LINE
  8
0
 10
53.9382
 20
45.945
 11
54.1084
 21
45.4721
  0
LINE
  8
0
 10
54.1084
 20
45.4721
 11
54.2487
 21
44.9895
  0
LINE
  8
0
 10
54.2487
 20
44.9895
 11
54.3583
 21
44.499
  0
LINE
  8
0
 10
54.3583
 20
44.499
 11
54.4369
 21
44.0027
  0
LINE
  8
0
 10
54.4369
 20
44.0027
 11
54.4842
 21
43.5023
  0
LINE
  8
0
 10
54.4842
 20
43.5023
 11
54.5
 21
43
  0
LINE
  8
0
 10
54.5
 20
43
 11
54.4842
 21
42.4977
  0
LINE
  8
0
 10
54.4842
 20
42.4977
 11
54.4369
 21
41.9973
  0
LINE
  8
0
 10
54.4369
 20
41.9973
 11
54.3583
 21
41.501
  0
LINE
  8
0
 10
54.3583
 20
41.501
 11
54.2487
 21
41.0105
  0
LINE
  8
0
 10
54.2487
 20
41.0105
 11
54.1084
 21
40.5279
  0
LINE
  8
0
 10
54.1084
 20
40.5279
 11
53.9382
 21
40.055
  0
LINE
  8
0
 10
53.9382
 20
40.055
 11
53.7386
 21
39.5938
  0
LINE
  8
0
 10
53.7386
 20
39.5938
 11
53.5105
 21
39.146
  0
LINE
  8
0
 10
53.5105
 20
39.146
 11
53.2546
 21
38.7134
  0
LINE
  8
0
 10
53.2546
 20
38.7134
 11
52.9721
 21
38.2977
  0
LINE
  8
0
 10
52.9721
 20
38.2977
 11
52.6641
 21
37.9006
  0
LINE
  8
0
 10
52.6641
 20
37.9006
 11
52.3317
 21
37.5236
  0
LINE
  8
0
 10
52.3317
 20
37.5236
 11
51.9764
 21
37.1683
  0
LINE
  8
0
 10
51.9764
 20
37.1683
 11
51.5994
 21
36.8359
  0
LINE
  8
0
 10
51.5994
 20
36.8359
 11
51.2023
 21
36.5279
  0
LINE
  8
0
 10
51.2023
 20
36.5279
 11
50.7866
 21
36.2454
  0
LINE
  8
0
 10
50.7866
 20
36.2454
 11
50.354
 21
35.9895
  0
LINE
  8
0
 10
50.354
 20
35.9895
 11
49.9062
 21
35.7614
  0
LINE
  8
0
 10
49.9062
 20
35.7614
 11
49.445
 21
35.5618
  0
LINE
  8
0
 10
49.445
 20
35.5618
 11
48.9721
 21
35.3916
  0
LINE
  8
0
 10
48.9721
 20
35.3916
 11
48.4895
 21
35.2513
  0
LINE
  8
0
 10
48.4895
 20
35.2513
 11
47.999
 21
35.1417
  0
LINE
  8
0
 10
47.999
 20
35.1417
 11
47.5027
 21
35.0631
  0
LINE
  8
0
 10
47.5027
 20
35.0631
 11
47.0023
 21
35.0158
  0
LINE
  8
0
 10
47.0023
 20
35.0158
 11
46.5
 21
35
  0
LINE
  8
0
 10
46.5
 20
35
 11
45.9977
 21
35.0158
  0
LINE
  8
0
 10
18.9977
 20
35.0158
 11
18.4973
 21
35.0631
  0
LINE
  8
0
 10
18.4973
 20
35.0631
 11
18.001
 21
35.1417
  0
LINE
  8
0
 10
18.001
 20
35.1417
 11
17.5105
 21
35.2513
  0
LINE
  8
0
 10
17.5105
 20
35.2513
 11
17.0279
 21
35.3916
  0
LINE
  8
0
 10
17.0279
 20
35.3916
 11
16.555
 21
35.5618
  0
LINE
  8
0
 10
16.555
 20
35.5618
 11
16.0938
 21
35.7614
  0
LINE
  8
0
 10
16.0938
 20
35.7614
 11
15.646
 21
35.9895
  0
LINE
  8
0
 10
15.646
 20
35.9895
 11
15.2134
 21
36.2454
  0
LINE
  8
0
 10
15.2134
 20
36.2454
 11
14.7977
 21
36.5279
  0
LINE
  8
0
 10
14.7977
 20
36.5279
 11
14.4006
 21
36.8359
  0
LINE
  8
0
 10
14.4006
 20
36.8359
 11
14.0236
 21
37.1683
  0
LINE
  8
0
 10
14.0236
 20
37.1683
 11
13.6683
 21
37.5236
  0
LINE
  8
0
 10
13.6683
 20
37.5236
 11
13.3359
 21
37.9006
  0
LINE
  8
0
 10
13.3359
 20
37.9006
 11
13.0279
 21
38.2977
  0
LINE
  8
0
 10
13.0279
 20
38.2977
 11
12.7454
 21
38.7134
  0
LINE
  8
0
 10
12.7454
 20
38.7134
 11
12.4895
 21
39.146
  0
LINE
  8
0
 10
12.4895
 20
39.146
 11
12.2614
 21
39.5938
  0
LINE
  8
0
 10
12.2614
 20
39.5938
 11
12.0618
 21
40.055
  0
LINE
  8
0
 10
12.0618
 20
40.055
 11
11.8916
 21
40.5279
  0
LINE
  8
0
 10
11.8916
 20
40.5279
 11
11.7513
 21
41.0105
  0
LINE
  8
0
 10
11.7513
 20
41.0105
 11
11.6417
 21
41.501
  0
LINE
  8
0
 10
11.6417
 20
41.501
 11
11.5631
 21
41.9973
  0
LINE
  8
0
 10
11.5631
 20
41.9973
 11
11.5158
 21
42.4977
  0
LINE
  8
0
 10
11.5158
 20
42.4977
 11
11.5
 21
43
  0
LINE
  8
0
 10
11.5
 20
43
 11
11.5158
 21
43.5023
  0
LINE
  8
0
 10
11.5158
 20
43.5023
 11
11.5631
 21
44.0027
  0
LINE
  8
0
 10
11.5631
 20
44.0027
 11
11.6417
 21
44.499
  0
LINE
  8
0
 10
11.6417
 20
44.499
 11
11.7513
 21
44.9895
  0
LINE
  8
0
 10
11.7513
 20
44.9895
 11
11.8916
 21
45.4721
  0
LINE
  8
0
 10
11.8916
 20
45.4721
 11
12.0618
 21
45.945
  0
LINE
  8
0
 10
12.0618
 20
45.945
 11
12.2614
 21
46.4062
  0
LINE
  8
0
 10
12.2614
 20
46.4062
 11
12.4895
 21
46.854
  0
LINE
  8
0
 10
12.4895
 20
46.854
 11
12.7454
 21
47.2866
  0
LINE
  8
0
 10
12.7454
 20
47.2866
 11
13.0279
 21
47.7023
  0
LINE
  8
0
 10
13.0279
 20
47.7023
 11
13.3359
 21
48.0994
  0
LINE
  8
0
 10
13.3359
 20
48.0994
 11
13.6683
 21
48.4764
  0
LINE
  8
0
 10
13.6683
 20
48.4764
 11
14.0236
 21
48.8317
  0
LINE
  8
0
 10
14.0236
 20
48.8317
 11
14.4006
 21
49.1641
  0
LINE
  8
0
 10
14.4006
 20
49.1641
 11
14.7977
 21
49.4721
  0
LINE
  8
0
 10
14.7977
 20
49.4721
 11
15.2134
 21
49.7546
  0
LINE
  8
0
 10
15.2134
 20
49.7546
 11
15.646
 21
50.0105
  0
LINE
  8
0
 10
15.646
 20
50.0105
 11
16.0938
 21
50.2386
  0
LINE
  8
0
 10
16.0938
 20
50.2386
 11
16.555
 21
50.4382
  0
LINE
  8
0
 10
16.555
 20
50.4382
 11
17.0279
 21
50.6084
  0
LINE
  8
0
 10
17.0279
 20
50.6084
 11
17.5105
 21
50.7487
  0
LINE
  8
0
 10
17.5105
 20
50.7487
 11
18.001
 21
50.8583
  0
LINE
  8
0
 10
18.001
 20
50.8583
 11
18.4973
 21
50.9369
  0
LINE
  8
0
 10
18.4973
 20
50.9369
 11
18.9977
 21
50.9842
  0
LINE
  8
0
 10
18.9977
 20
50.9842
 11
19.5
 21
51
  0
LINE
  8
0
 10
19.5
 20
51
 11
20.0023
 21
50.9842
  0
LINE
  8
0
 10
20.0023
 20
50.9842
 11
20.5027
 21
50.9369
  0
LINE
  8
0
 10
20.5027
 20
50.9369
 11
20.9991
 21
50.8583
  0
LINE
  8
0
 10
20.9991
 20
50.8583
 11
21.4895
 21
50.7487
  0
LINE
  8
0
 10
21.4895
 20
50.7487
 11
21.9721
 21
50.6084
  0
LINE
  8
0
 10
21.9721
 20
50.6084
 11
22.445
 21
50.4382
  0
LINE
  8
0
 10
22.445
 20
50.4382
 11
22.9062
 21
50.2386
  0
LINE
  8
0
 10
22.9062
 20
50.2386
 11
23.354
 21
50.0105
  0
LINE
  8
0
 10
23.354
 20
50.0105
 11
23.7866
 21
49.7546
  0
LINE
  8
0
 10
23.7866
 20
49.7546
 11
24.2023
 21
49.4721
  0
LINE
  8
0
 10
24.2023
 20
49.4721
 11
24.5994
 21
49.1641
  0
LINE
  8
0
 10
24.5994
 20
49.1641
 11
24.9764
 21
48.8317
  0
LINE
  8
0
 10
24.9764
 20
48.8317
 11
25.3318
 21
48.4764
  0
LINE
  8
0
 10
25.3318
 20
48.4764
 11
25.6641
 21
48.0994
  0
LINE
  8
0
 10
25.6641
 20
48.0994
 11
25.9721
 21
47.7023
  0
LINE
  8
0
 10
25.9721
 20
47.7023
 11
26.2546
 21
47.2866
  0
LINE
  8
0
 10
26.2546
 20
47.2866
 11
26.5105
 21
46.854
  0
LINE
  8
0
 10
26.5105
 20
46.854
 11
26.7386
 21
46.4062
  0
LINE
  8
0
 10
26.7386
 20
46.4062
 11
26.9382
 21
45.945
  0
LINE
  8
0
 10
26.9382
 20
45.945
 11
27.1085
 21
45.4721
  0
LINE
  8
0
 10
27.1085
 20
45.4721
 11
27.2487
 21
44.9895
  0
LINE
  8
0
 10
27.2487
 20
44.9895
 11
27.3583
 21
44.499
  0
LINE
  8
0
 10
27.3583
 20
44.499
 11
27.4369
 21
44.0027
  0
LINE
  8
0
 10
27.4369
 20
44.0027
 11
27.4842
 21
43.5023
  0
LINE
  8
0
 10
27.4842
 20
43.5023
 11
27.5
 21
43
  0
LINE
  8
0
 10
27.5
 20
43
 11
27.4842
 21
42.4977
  0
LINE
  8
0
 10
27.4842
 20
42.4977
 11
27.4369
 21
41.9973
  0
LINE
  8
0
 10
27.4369
 20
41.9973
 11
27.3583
 21
41.501
  0
LINE
  8
0
 10
27.3583
 20
41.501
 11
27.2487
 21
41.0105
  0
LINE
  8
0
 10
27.2487
 20
41.0105
 11
27.1085
 21
40.5279
  0
LINE
  8
0
 10
27.1085
 20
40.5279
 11
26.9382
 21
40.055
  0
LINE
  8
0
 10
26.9382
 20
40.055
 11
26.7386
 21
39.5938
  0
LINE
  8
0
 10
26.7386
 20
39.5938
 11
26.5105
 21
39.146
  0
LINE
  8
0
 10
26.5105
 20
39.146
 11
26.2546
 21
38.7134
  0
LINE
  8
0
 10
26.2546
 20
38.7134
 11
25.9721
 21
38.2977
  0
LINE
  8
0
 10
25.9721
 20
38.2977
 11
25.6641
 21
37.9006
  0
LINE
  8
0
 10
25.6641
 20
37.9006
 11
25.3318
 21
37.5236
  0
LINE
  8
0
 10
25.3318
 20
37.5236
 11
24.9764
 21
37.1683
  0
LINE
  8
0
 10
24.9764
 20
37.1683
 11
24.5994
 21
36.8359
  0
LINE
  8
0
 10
24.5994
 20
36.8359
 11
24.2023
 21
36.5279
  0
LINE
  8
0
 10
24.2023
 20
36.5279
 11
23.7866
 21
36.2454
  0
LINE
  8
0
 10
23.7866
 20
36.2454
 11
23.354
 21
35.9895
  0
LINE
  8
0
 10
23.354
 20
35.9895
 11
22.9062
 21
35.7614
  0
LINE
  8
0
 10
22.9062
 20
35.7614
 11
22.445
 21
35.5618
  0
LINE
  8
0
 10
22.445
 20
35.5618
 11
21.9721
 21
35.3916
  0
LINE
  8
0
 10
21.9721
 20
35.3916
 11
21.4895
 21
35.2513
  0
LINE
  8
0
 10
21.4895
 20
35.2513
 11
20.9991
 21
35.1417
  0
LINE
  8
0
 10
20.9991
 20
35.1417
 11
20.5027
 21
35.0631
  0
LINE
  8
0
 10
20.5027
 20
35.0631
 11
20.0023
 21
35.0158
  0
LINE
  8
0
 10
20.0023
 20
35.0158
 11
19.5
 21
35
  0
LINE
  8
0
 10
19.5
 20
35
 11
18.9977
 21
35.0158
  0
LINE
  8
0
 10
1.40582
 20
46.5029
 11
1.31201
 21
46.5118
  0
LINE
  8
0
 10
1.31201
 20
46.5118
 11
1.21893
 21
46.5266
  0
LINE
  8
0
 10
1.21893
 20
46.5266
 11
1.12697
 21
46.5471
  0
LINE
  8
0
 10
1.12697
 20
46.5471
 11
1.03648
 21
46.5734
  0
LINE
  8
0
 10
1.03648
 20
46.5734
 11
0.947815
 21
46.6053
  0
LINE
  8
0
 10
0.947815
 20
46.6053
 11
0.861343
 21
46.6427
  0
LINE
  8
0
 10
0.861343
 20
46.6427
 11
0.777374
 21
46.6855
  0
LINE
  8
0
 10
0.777374
 20
46.6855
 11
0.696274
 21
46.7335
  0
LINE
  8
0
 10
0.696274
 20
46.7335
 11
0.618332
 21
46.7865
  0
LINE
  8
0
 10
0.618332
 20
46.7865
 11
0.543869
 21
46.8442
  0
LINE
  8
0
 10
0.543869
 20
46.8442
 11
0.47319
 21
46.9065
  0
LINE
  8
0
 10
0.47319
 20
46.9065
 11
0.406555
 21
46.9732
  0
LINE
  8
0
 10
0.406555
 20
46.9732
 11
0.344238
 21
47.0439
  0
LINE
  8
0
 10
0.344238
 20
47.0439
 11
0.286484
 21
47.1183
  0
LINE
  8
0
 10
0.286484
 20
47.1183
 11
0.233521
 21
47.1963
  0
LINE
  8
0
 10
0.233521
 20
47.1963
 11
0.185547
 21
47.2774
  0
LINE
  8
0
 10
0.185547
 20
47.2774
 11
0.142761
 21
47.3613
  0
LINE
  8
0
 10
0.142761
 20
47.3613
 11
0.105347
 21
47.4478
  0
LINE
  8
0
 10
0.105347
 20
47.4478
 11
0.0734253
 21
47.5365
  0
LINE
  8
0
 10
0.0734253
 20
47.5365
 11
0.0471344
 21
47.627
  0
LINE
  8
0
 10
0.0471344
 20
47.627
 11
0.0265808
 21
47.7189
  0
LINE
  8
0
 10
0.0265808
 20
47.7189
 11
0.0118408
 21
47.812
  0
LINE
  8
0
 10
0.0118408
 20
47.812
 11
0.00296021
 21
47.9058
  0
LINE
  8
0
 10
0.00296021
 20
47.9058
 11
0
 21
48
  0
LINE
  8
0
 10
0
 20
48
 11
0.00296021
 21
48.0942
  0
LINE
  8
0
 10
0.00296021
 20
48.0942
 11
0.0118408
 21
48.188
  0
LINE
  8
0
 10
0.0118408
 20
48.188
 11
0.0265808
 21
48.2811
  0
LINE
  8
0
 10
0.0265808
 20
48.2811
 11
0.0471344
 21
48.373
  0
LINE
  8
0
 10
0.0471344
 20
48.373
 11
0.0734253
 21
48.4635
  0
LINE
  8
0
 10
0.0734253
 20
48.4635
 11
0.105347
 21
48.5522
  0
LINE
  8
0
 10
0.105347
 20
48.5522
 11
0.142761
 21
48.6387
  0
LINE
  8
0
 10
0.142761
 20
48.6387
 11
0.185547
 21
48.7226
  0
LINE
  8
0
 10
0.185547
 20
48.7226
 11
0.233521
 21
48.8037
  0
LINE
  8
0
 10
0.233521
 20
48.8037
 11
0.286484
 21
48.8817
  0
LINE
  8
0
 10
0.286484
 20
48.8817
 11
0.344238
 21
48.9561
  0
LINE
  8
0
 10
0.344238
 20
48.9561
 11
0.406555
 21
49.0268
  0
LINE
  8
0
 10
0.406555
 20
49.0268
 11
0.47319
 21
49.0934
  0
LINE
  8
0
 10
0.47319
 20
49.0934
 11
0.543869
 21
49.1558
  0
LINE
  8
0
 10
0.543869
 20
49.1558
 11
0.618332
 21
49.2135
  0
LINE
  8
0
 10
0.618332
 20
49.2135
 11
0.696274
 21
49.2665
  0
LINE
  8
0
 10
0.696274
 20
49.2665
 11
0.777374
 21
49.3145
  0
LINE
  8
0
 10
0.777374
 20
49.3145
 11
0.861343
 21
49.3572
  0
LINE
  8
0
 10
0.861343
 20
49.3572
 11
0.947815
 21
49.3947
  0
LINE
  8
0
 10
0.947815
 20
49.3947
 11
1.03648
 21
49.4266
  0
LINE
  8
0
 10
1.03648
 20
49.4266
 11
1.12697
 21
49.4529
  0
LINE
  8
0
 10
1.12697
 20
49.4529
 11
1.21893
 21
49.4734
  0
LINE
  8
0
 10
1.21893
 20
49.4734
 11
1.31201
 21
49.4882
  0
LINE
  8
0
 10
1.31201
 20
49.4882
 11
1.40582
 21
49.497
  0
LINE
  8
0
 10
1.40582
 20
49.497
 11
1.5
 21
49.5
  0
LINE
  8
0
 10
1.5
 20
49.5
 11
1.59419
 21
49.497
  0
LINE
  8
0
 10
1.59419
 20
49.497
 11
1.688
 21
49.4882
  0
LINE
  8
0
 10
1.688
 20
49.4882
 11
1.78108
 21
49.4734
  0
LINE
  8
0
 10
1.78108
 20
49.4734
 11
1.87305
 21
49.4529
  0
LINE
  8
0
 10
1.87305
 20
49.4529
 11
1.96353
 21
49.4266
  0
LINE
  8
0
 10
1.96353
 20
49.4266
 11
2.0522
 21
49.3947
  0
LINE
  8
0
 10
2.0522
 20
49.3947
 11
2.13867
 21
49.3572
  0
LINE
  8
0
 10
2.13867
 20
49.3572
 11
2.22264
 21
49.3145
  0
LINE
  8
0
 10
2.22264
 20
49.3145
 11
2.30374
 21
49.2665
  0
LINE
  8
0
 10
2.30374
 20
49.2665
 11
2.38168
 21
49.2135
  0
LINE
  8
0
 10
2.38168
 20
49.2135
 11
2.45615
 21
49.1558
  0
LINE
  8
0
 10
2.45615
 20
49.1558
 11
2.52682
 21
49.0934
  0
LINE
  8
0
 10
2.52682
 20
49.0934
 11
2.59346
 21
49.0268
  0
LINE
  8
0
 10
2.59346
 20
49.0268
 11
2.65578
 21
48.9561
  0
LINE
  8
0
 10
2.65578
 20
48.9561
 11
2.71353
 21
48.8817
  0
LINE
  8
0
 10
2.71353
 20
48.8817
 11
2.76649
 21
48.8037
  0
LINE
  8
0
 10
2.76649
 20
48.8037
 11
2.81447
 21
48.7226
  0
LINE
  8
0
 10
2.81447
 20
48.7226
 11
2.85725
 21
48.6387
  0
LINE
  8
0
 10
2.85725
 20
48.6387
 11
2.89467
 21
48.5522
  0
LINE
  8
0
 10
2.89467
 20
48.5522
 11
2.92659
 21
48.4635
  0
LINE
  8
0
 10
2.92659
 20
48.4635
 11
2.95288
 21
48.373
  0
LINE
  8
0
 10
2.95288
 20
48.373
 11
2.97343
 21
48.2811
  0
LINE
  8
0
 10
2.97343
 20
48.2811
 11
2.98817
 21
48.188
  0
LINE
  8
0
 10
2.98817
 20
48.188
 11
2.99706
 21
48.0942
  0
LINE
  8
0
 10
2.99706
 20
48.0942
 11
3
 21
48
  0
LINE
  8
0
 10
3
 20
48
 11
2.99706
 21
47.9058
  0
LINE
  8
0
 10
2.99706
 20
47.9058
 11
2.98817
 21
47.812
  0
LINE
  8
0
 10
2.98817
 20
47.812
 11
2.97343
 21
47.7189
  0
LINE
  8
0
 10
2.97343
 20
47.7189
 11
2.95288
 21
47.627
  0
LINE
  8
0
 10
2.95288
 20
47.627
 11
2.92659
 21
47.5365
  0
LINE
  8
0
 10
2.92659
 20
47.5365
 11
2.89467
 21
47.4478
  0
LINE
  8
0
 10
2.89467
 20
47.4478
 11
2.85725
 21
47.3613
  0
LINE
  8
0
 10
2.85725
 20
47.3613
 11
2.81447
 21
47.2774
  0
LINE
  8
0
 10
2.81447
 20
47.2774
 11
2.76649
 21
47.1963
  0
LINE
  8
0
 10
2.76649
 20
47.1963
 11
2.71353
 21
47.1183
  0
LINE
  8
0
 10
2.71353
 20
47.1183
 11
2.65578
 21
47.0439
  0
LINE
  8
0
 10
2.65578
 20
47.0439
 11
2.59346
 21
46.9732
  0
LINE
  8
0
 10
2.59346
 20
46.9732
 11
2.52682
 21
46.9065
  0
LINE
  8
0
 10
2.52682
 20
46.9065
 11
2.45615
 21
46.8442
  0
LINE
  8
0
 10
2.45615
 20
46.8442
 11
2.38168
 21
46.7865
  0
LINE
  8
0
 10
2.38168
 20
46.7865
 11
2.30374
 21
46.7335
  0
LINE
  8
0
 10
2.30374
 20
46.7335
 11
2.22264
 21
46.6855
  0
LINE
  8
0
 10
2.22264
 20
46.6855
 11
2.13867
 21
46.6427
  0
LINE
  8
0
 10
2.13867
 20
46.6427
 11
2.0522
 21
46.6053
  0
LINE
  8
0
 10
2.0522
 20
46.6053
 11
1.96353
 21
46.5734
  0
LINE
  8
0
 10
1.96353
 20
46.5734
 11
1.87305
 21
46.5471
  0
LINE
  8
0
 10
1.87305
 20
46.5471
 11
1.78108
 21
46.5266
  0
LINE
  8
0
 10
1.78108
 20
46.5266
 11
1.688
 21
46.5118
  0
LINE
  8
0
 10
1.688
 20
46.5118
 11
1.59419
 21
46.5029
  0
LINE
  8
0
 10
1.59419
 20
46.5029
 11
1.5
 21
46.5
  0
LINE
  8
0
 10
1.5
 20
46.5
 11
1.40582
 21
46.5029
  0
LINE
  8
0
 10
64.4058
 20
46.5029
 11
64.312
 21
46.5118
  0
LINE
  8
0
 10
64.312
 20
46.5118
 11
64.2189
 21
46.5266
  0
LINE
  8
0
 10
64.2189
 20
46.5266
 11
64.127
 21
46.5471
  0
LINE
  8
0
 10
64.127
 20
46.5471
 11
64.0365
 21
46.5734
  0
LINE
  8
0
 10
64.0365
 20
46.5734
 11
63.9478
 21
46.6053
  0
LINE
  8
0
 10
63.9478
 20
46.6053
 11
63.8613
 21
46.6427
  0
LINE
  8
0
 10
63.8613
 20
46.6427
 11
63.7774
 21
46.6855
  0
LINE
  8
0
 10
63.7774
 20
46.6855
 11
63.6963
 21
46.7335
  0
LINE
  8
0
 10
63.6963
 20
46.7335
 11
63.6183
 21
46.7865
  0
LINE
  8
0
 10
63.6183
 20
46.7865
 11
63.5439
 21
46.8442
  0
LINE
  8
0
 10
63.5439
 20
46.8442
 11
63.4732
 21
46.9065
  0
LINE
  8
0
 10
63.4732
 20
46.9065
 11
63.4065
 21
46.9732
  0
LINE
  8
0
 10
63.4065
 20
46.9732
 11
63.3442
 21
47.0439
  0
LINE
  8
0
 10
63.3442
 20
47.0439
 11
63.2865
 21
47.1183
  0
LINE
  8
0
 10
63.2865
 20
47.1183
 11
63.2335
 21
47.1963
  0
LINE
  8
0
 10
63.2335
 20
47.1963
 11
63.1855
 21
47.2774
  0
LINE
  8
0
 10
63.1855
 20
47.2774
 11
63.1427
 21
47.3613
  0
LINE
  8
0
 10
63.1427
 20
47.3613
 11
63.1053
 21
47.4478
  0
LINE
  8
0
 10
63.1053
 20
47.4478
 11
63.0734
 21
47.5365
  0
LINE
  8
0
 10
63.0734
 20
47.5365
 11
63.0471
 21
47.627
  0
LINE
  8
0
 10
63.0471
 20
47.627
 11
63.0266
 21
47.7189
  0
LINE
  8
0
 10
63.0266
 20
47.7189
 11
63.0118
 21
47.812
  0
LINE
  8
0
 10
63.0118
 20
47.812
 11
63.0029
 21
47.9058
  0
LINE
  8
0
 10
63.0029
 20
47.9058
 11
63
 21
48
  0
LINE
  8
0
 10
63
 20
48
 11
63.0029
 21
48.0942
  0
LINE
  8
0
 10
63.0029
 20
48.0942
 11
63.0118
 21
48.188
  0
LINE
  8
0
 10
63.0118
 20
48.188
 11
63.0266
 21
48.2811
  0
LINE
  8
0
 10
63.0266
 20
48.2811
 11
63.0471
 21
48.373
  0
LINE
  8
0
 10
63.0471
 20
48.373
 11
63.0734
 21
48.4635
  0
LINE
  8
0
 10
63.0734
 20
48.4635
 11
63.1053
 21
48.5522
  0
LINE
  8
0
 10
63.1053
 20
48.5522
 11
63.1427
 21
48.6387
  0
LINE
  8
0
 10
63.1427
 20
48.6387
 11
63.1855
 21
48.7226
  0
LINE
  8
0
 10
63.1855
 20
48.7226
 11
63.2335
 21
48.8037
  0
LINE
  8
0
 10
63.2335
 20
48.8037
 11
63.2865
 21
48.8817
  0
LINE
  8
0
 10
63.2865
 20
48.8817
 11
63.3442
 21
48.9561
  0
LINE
  8
0
 10
63.3442
 20
48.9561
 11
63.4065
 21
49.0268
  0
LINE
  8
0
 10
63.4065
 20
49.0268
 11
63.4732
 21
49.0934
  0
LINE
  8
0
 10
63.4732
 20
49.0934
 11
63.5439
 21
49.1558
  0
LINE
  8
0
 10
63.5439
 20
49.1558
 11
63.6183
 21
49.2135
  0
LINE
  8
0
 10
63.6183
 20
49.2135
 11
63.6963
 21
49.2665
  0
LINE
  8
0
 10
63.6963
 20
49.2665
 11
63.7774
 21
49.3145
  0
LINE
  8
0
 10
63.7774
 20
49.3145
 11
63.8613
 21
49.3572
  0
LINE
  8
0
 10
63.8613
 20
49.3572
 11
63.9478
 21
49.3947
  0
LINE
  8
0
 10
63.9478
 20
49.3947
 11
64.0365
 21
49.4266
  0
LINE
  8
0
 10
64.0365
 20
49.4266
 11
64.127
 21
49.4529
  0
LINE
  8
0
 10
64.127
 20
49.4529
 11
64.2189
 21
49.4734
  0
LINE
  8
0
 10
64.2189
 20
49.4734
 11
64.312
 21
49.4882
  0
LINE
  8
0
 10
64.312
 20
49.4882
 11
64.4058
 21
49.497
  0
LINE
  8
0
 10
64.4058
 20
49.497
 11
64.5
 21
49.5
  0
LINE
  8
0
 10
64.5
 20
49.5
 11
64.5942
 21
49.497
  0
LINE
  8
0
 10
64.5942
 20
49.497
 11
64.688
 21
49.4882
  0
LINE
  8
0
 10
64.688
 20
49.4882
 11
64.7811
 21
49.4734
  0
LINE
  8
0
 10
64.7811
 20
49.4734
 11
64.873
 21
49.4529
  0
LINE
  8
0
 10
64.873
 20
49.4529
 11
64.9635
 21
49.4266
  0
LINE
  8
0
 10
64.9635
 20
49.4266
 11
65.0522
 21
49.3947
  0
LINE
  8
0
 10
65.0522
 20
49.3947
 11
65.1387
 21
49.3572
  0
LINE
  8
0
 10
65.1387
 20
49.3572
 11
65.2226
 21
49.3145
  0
LINE
  8
0
 10
65.2226
 20
49.3145
 11
65.3037
 21
49.2665
  0
LINE
  8
0
 10
65.3037
 20
49.2665
 11
65.3817
 21
49.2135
  0
LINE
  8
0
 10
65.3817
 20
49.2135
 11
65.4561
 21
49.1558
  0
LINE
  8
0
 10
65.4561
 20
49.1558
 11
65.5268
 21
49.0934
  0
LINE
  8
0
 10
65.5268
 20
49.0934
 11
65.5934
 21
49.0268
  0
LINE
  8
0
 10
65.5934
 20
49.0268
 11
65.6558
 21
48.9561
  0
LINE
  8
0
 10
65.6558
 20
48.9561
 11
65.7135
 21
48.8817
  0
LINE
  8
0
 10
65.7135
 20
48.8817
 11
65.7665
 21
48.8037
  0
LINE
  8
0
 10
65.7665
 20
48.8037
 11
65.8145
 21
48.7226
  0
LINE
  8
0
 10
65.8145
 20
48.7226
 11
65.8572
 21
48.6387
  0
LINE
  8
0
 10
65.8572
 20
48.6387
 11
65.8947
 21
48.5522
  0
LINE
  8
0
 10
65.8947
 20
48.5522
 11
65.9266
 21
48.4635
  0
LINE
  8
0
 10
65.9266
 20
48.4635
 11
65.9529
 21
48.373
  0
LINE
  8
0
 10
65.9529
 20
48.373
 11
65.9734
 21
48.2811
  0
LINE
  8
0
 10
65.9734
 20
48.2811
 11
65.9882
 21
48.188
  0
LINE
  8
0
 10
65.9882
 20
48.188
 11
65.997
 21
48.0942
  0
LINE
  8
0
 10
65.997
 20
48.0942
 11
66
 21
48
  0
LINE
  8
0
 10
66
 20
48
 11
65.997
 21
47.9058
  0
LINE
  8
0
 10
65.997
 20
47.9058
 11
65.9882
 21
47.812
  0
LINE
  8
0
 10
65.9882
 20
47.812
 11
65.9734
 21
47.7189
  0
LINE
  8
0
 10
65.9734
 20
47.7189
 11
65.9529
 21
47.627
  0
LINE
  8
0
 10
65.9529
 20
47.627
 11
65.9266
 21
47.5365
  0
LINE
  8
0
 10
65.9266
 20
47.5365
 11
65.8947
 21
47.4478
  0
LINE
  8
0
 10
65.8947
 20
47.4478
 11
65.8572
 21
47.3613
  0
LINE
  8
0
 10
65.8572
 20
47.3613
 11
65.8145
 21
47.2774
  0
LINE
  8
0
 10
65.8145
 20
47.2774
 11
65.7665
 21
47.1963
  0
LINE
  8
0
 10
65.7665
 20
47.1963
 11
65.7135
 21
47.1183
  0
LINE
  8
0
 10
65.7135
 20
47.1183
 11
65.6558
 21
47.0439
  0
LINE
  8
0
 10
65.6558
 20
47.0439
 11
65.5934
 21
46.9732
  0
LINE
  8
0
 10
65.5934
 20
46.9732
 11
65.5268
 21
46.9065
  0
LINE
  8
0
 10
65.5268
 20
46.9065
 11
65.4561
 21
46.8442
  0
LINE
  8
0
 10
65.4561
 20
46.8442
 11
65.3817
 21
46.7865
  0
LINE
  8
0
 10
65.3817
 20
46.7865
 11
65.3037
 21
46.7335
  0
LINE
  8
0
 10
65.3037
 20
46.7335
 11
65.2226
 21
46.6855
  0
LINE
  8
0
 10
65.2226
 20
46.6855
 11
65.1387
 21
46.6427
  0
LINE
  8
0
 10
65.1387
 20
46.6427
 11
65.0522
 21
46.6053
  0
LINE
  8
0
 10
65.0522
 20
46.6053
 11
64.9635
 21
46.5734
  0
LINE
  8
0
 10
64.9635
 20
46.5734
 11
64.873
 21
46.5471
  0
LINE
  8
0
 10
64.873
 20
46.5471
 11
64.7811
 21
46.5266
  0
LINE
  8
0
 10
64.7811
 20
46.5266
 11
64.688
 21
46.5118
  0
LINE
  8
0
 10
64.688
 20
46.5118
 11
64.5942
 21
46.5029
  0
LINE
  8
0
 10
64.5942
 20
46.5029
 11
64.5
 21
46.5
  0
LINE
  8
0
 10
64.5
 20
46.5
 11
64.4058
 21
46.5029
  0
LINE
  8
0
 10
28.9058
 20
16.5029
 11
28.812
 21
16.5118
  0
LINE
  8
0
 10
28.812
 20
16.5118
 11
28.7189
 21
16.5266
  0
LINE
  8
0
 10
28.7189
 20
16.5266
 11
28.627
 21
16.5471
  0
LINE
  8
0
 10
28.627
 20
16.5471
 11
28.5365
 21
16.5734
  0
LINE
  8
0
 10
28.5365
 20
16.5734
 11
28.4478
 21
16.6053
  0
LINE
  8
0
 10
28.4478
 20
16.6053
 11
28.3613
 21
16.6427
  0
LINE
  8
0
 10
28.3613
 20
16.6427
 11
28.2774
 21
16.6855
  0
LINE
  8
0
 10
28.2774
 20
16.6855
 11
28.1963
 21
16.7335
  0
LINE
  8
0
 10
28.1963
 20
16.7335
 11
28.1183
 21
16.7865
  0
LINE
  8
0
 10
28.1183
 20
16.7865
 11
28.0439
 21
16.8442
  0
LINE
  8
0
 10
28.0439
 20
16.8442
 11
27.9732
 21
16.9065
  0
LINE
  8
0
 10
27.9732
 20
16.9065
 11
27.9065
 21
16.9732
  0
LINE
  8
0
 10
27.9065
 20
16.9732
 11
27.8442
 21
17.0439
  0
LINE
  8
0
 10
27.8442
 20
17.0439
 11
27.7865
 21
17.1183
  0
LINE
  8
0
 10
27.7865
 20
17.1183
 11
27.7335
 21
17.1963
  0
LINE
  8
0
 10
27.7335
 20
17.1963
 11
27.6855
 21
17.2774
  0
LINE
  8
0
 10
27.6855
 20
17.2774
 11
27.6427
 21
17.3613
  0
LINE
  8
0
 10
27.6427
 20
17.3613
 11
27.6053
 21
17.4478
  0
LINE
  8
0
 10
27.6053
 20
17.4478
 11
27.5734
 21
17.5365
  0
LINE
  8
0
 10
27.5734
 20
17.5365
 11
27.5471
 21
17.627
  0
LINE
  8
0
 10
27.5471
 20
17.627
 11
27.5266
 21
17.7189
  0
LINE
  8
0
 10
27.5266
 20
17.7189
 11
27.5118
 21
17.812
  0
LINE
  8
0
 10
27.5118
 20
17.812
 11
27.5029
 21
17.9058
  0
LINE
  8
0
 10
27.5029
 20
17.9058
 11
27.5
 21
18
  0
LINE
  8
0
 10
27.5
 20
18
 11
27.5029
 21
18.0942
  0
LINE
  8
0
 10
27.5029
 20
18.0942
 11
27.5118
 21
18.188
  0
LINE
  8
0
 10
27.5118
 20
18.188
 11
27.5266
 21
18.2811
  0
LINE
  8
0
 10
27.5266
 20
18.2811
 11
27.5471
 21
18.373
  0
LINE
  8
0
 10
27.5471
 20
18.373
 11
27.5734
 21
18.4635
  0
LINE
  8
0
 10
27.5734
 20
18.4635
 11
27.6053
 21
18.5522
  0
LINE
  8
0
 10
27.6053
 20
18.5522
 11
27.6427
 21
18.6387
  0
LINE
  8
0
 10
27.6427
 20
18.6387
 11
27.6855
 21
18.7226
  0
LINE
  8
0
 10
27.6855
 20
18.7226
 11
27.7335
 21
18.8037
  0
LINE
  8
0
 10
27.7335
 20
18.8037
 11
27.7865
 21
18.8817
  0
LINE
  8
0
 10
27.7865
 20
18.8817
 11
27.8442
 21
18.9561
  0
LINE
  8
0
 10
27.8442
 20
18.9561
 11
27.9065
 21
19.0268
  0
LINE
  8
0
 10
27.9065
 20
19.0268
 11
27.9732
 21
19.0934
  0
LINE
  8
0
 10
27.9732
 20
19.0934
 11
28.0439
 21
19.1558
  0
LINE
  8
0
 10
28.0439
 20
19.1558
 11
28.1183
 21
19.2135
  0
LINE
  8
0
 10
28.1183
 20
19.2135
 11
28.1963
 21
19.2665
  0
LINE
  8
0
 10
28.1963
 20
19.2665
 11
28.2774
 21
19.3145
  0
LINE
  8
0
 10
28.2774
 20
19.3145
 11
28.3613
 21
19.3572
  0
LINE
  8
0
 10
28.3613
 20
19.3572
 11
28.4478
 21
19.3947
  0
LINE
  8
0
 10
28.4478
 20
19.3947
 11
45.5365
 21
25.4266
  0
LINE
  8
0
 10
45.5365
 20
25.4266
 11
45.627
 21
25.4529
  0
LINE
  8
0
 10
45.627
 20
25.4529
 11
45.7189
 21
25.4734
  0
LINE
  8
0
 10
45.7189
 20
25.4734
 11
45.812
 21
25.4882
  0
LINE
  8
0
 10
45.812
 20
25.4882
 11
45.9058
 21
25.497
  0
LINE
  8
0
 10
45.9058
 20
25.497
 11
46
 21
25.5
  0
LINE
  8
0
 10
46
 20
25.5
 11
46.0942
 21
25.497
  0
LINE
  8
0
 10
46.0942
 20
25.497
 11
46.188
 21
25.4882
  0
LINE
  8
0
 10
46.188
 20
25.4882
 11
46.2811
 21
25.4734
  0
LINE
  8
0
 10
46.2811
 20
25.4734
 11
46.373
 21
25.4529
  0
LINE
  8
0
 10
46.373
 20
25.4529
 11
46.4635
 21
25.4266
  0
LINE
  8
0
 10
46.4635
 20
25.4266
 11
46.5522
 21
25.3947
  0
LINE
  8
0
 10
46.5522
 20
25.3947
 11
46.6387
 21
25.3572
  0
LINE
  8
0
 10
46.6387
 20
25.3572
 11
46.7226
 21
25.3145
  0
LINE
  8
0
 10
46.7226
 20
25.3145
 11
46.8037
 21
25.2665
  0
LINE
  8
0
 10
46.8037
 20
25.2665
 11
46.8817
 21
25.2135
  0
LINE
  8
0
 10
46.8817
 20
25.2135
 11
46.9561
 21
25.1558
  0
LINE
  8
0
 10
46.9561
 20
25.1558
 11
47.0268
 21
25.0934
  0
LINE
  8
0
 10
47.0268
 20
25.0934
 11
47.0934
 21
25.0268
  0
LINE
  8
0
 10
47.0934
 20
25.0268
 11
47.1558
 21
24.9561
  0
LINE
  8
0
 10
47.1558
 20
24.9561
 11
47.2135
 21
24.8817
  0
LINE
  8
0
 10
47.2135
 20
24.8817
 11
47.2665
 21
24.8037
  0
LINE
  8
0
 10
47.2665
 20
24.8037
 11
47.3145
 21
24.7226
  0
LINE
  8
0
 10
47.3145
 20
24.7226
 11
47.3572
 21
24.6387
  0
LINE
  8
0
 10
47.3572
 20
24.6387
 11
47.3947
 21
24.5522
  0
LINE
  8
0
 10
47.3947
 20
24.5522
 11
47.4266
 21
24.4635
  0
LINE
  8
0
 10
47.4266
 20
24.4635
 11
47.4529
 21
24.373
  0
LINE
  8
0
 10
47.4529
 20
24.373
 11
47.4734
 21
24.2811
  0
LINE
  8
0
 10
47.4734
 20
24.2811
 11
47.4882
 21
24.188
  0
LINE
  8
0
 10
47.4882
 20
24.188
 11
47.497
 21
24.0942
  0
LINE
  8
0
 10
47.497
 20
24.0942
 11
47.5
 21
24
  0
LINE
  8
0
 10
47.5
 20
24
 11
47.497
 21
23.9058
  0
LINE
  8
0
 10
47.497
 20
23.9058
 11
47.4882
 21
23.812
  0
LINE
  8
0
 10
47.4882
 20
23.812
 11
47.4734
 21
23.7189
  0
LINE
  8
0
 10
47.4734
 20
23.7189
 11
47.4529
 21
23.627
  0
LINE
  8
0
 10
47.4529
 20
23.627
 11
47.4266
 21
23.5365
  0
LINE
  8
0
 10
47.4266
 20
23.5365
 11
47.3947
 21
23.4478
  0
LINE
  8
0
 10
47.3947
 20
23.4478
 11
47.3572
 21
23.3613
  0
LINE
  8
0
 10
47.3572
 20
23.3613
 11
47.3145
 21
23.2774
  0
LINE
  8
0
 10
47.3145
 20
23.2774
 11
47.2665
 21
23.1963
  0
LINE
  8
0
 10
47.2665
 20
23.1963
 11
47.2135
 21
23.1183
  0
LINE
  8
0
 10
47.2135
 20
23.1183
 11
47.1558
 21
23.0439
  0
LINE
  8
0
 10
47.1558
 20
23.0439
 11
47.0934
 21
22.9732
  0
LINE
  8
0
 10
47.0934
 20
22.9732
 11
47.0268
 21
22.9065
  0
LINE
  8
0
 10
47.0268
 20
22.9065
 11
46.9561
 21
22.8442
  0
LINE
  8
0
 10
46.9561
 20
22.8442
 11
46.8817
 21
22.7865
  0
LINE
  8
0
 10
46.8817
 20
22.7865
 11
46.8037
 21
22.7335
  0
LINE
  8
0
 10
46.8037
 20
22.7335
 11
46.7226
 21
22.6855
  0
LINE
  8
0
 10
46.7226
 20
22.6855
 11
46.6387
 21
22.6427
  0
LINE
  8
0
 10
46.6387
 20
22.6427
 11
46.5522
 21
22.6053
  0
LINE
  8
0
 10
46.5522
 20
22.6053
 11
29.4635
 21
16.5734
  0
LINE
  8
0
 10
29.4635
 20
16.5734
 11
29.373
 21
16.5471
  0
LINE
  8
0
 10
29.373
 20
16.5471
 11
29.2811
 21
16.5266
  0
LINE
  8
0
 10
29.2811
 20
16.5266
 11
29.188
 21
16.5118
  0
LINE
  8
0
 10
29.188
 20
16.5118
 11
29.0942
 21
16.5029
  0
LINE
  8
0
 10
29.0942
 20
16.5029
 11
29
 21
16.5
  0
LINE
  8
0
 10
29
 20
16.5
 11
28.9058
 21
16.5029
  0
LINE
  8
0
 10
1.40582
 20
16.5029
 11
1.31201
 21
16.5118
  0
LINE
  8
0
 10
1.31201
 20
16.5118
 11
1.21893
 21
16.5266
  0
LINE
  8
0
 10
1.21893
 20
16.5266
 11
1.12697
 21
16.5471
  0
LINE
  8
0
 10
1.12697
 20
16.5471
 11
1.03648
 21
16.5734
  0
LINE
  8
0
 10
1.03648
 20
16.5734
 11
0.947815
 21
16.6053
  0
LINE
  8
0
 10
0.947815
 20
16.6053
 11
0.861343
 21
16.6427
  0
LINE
  8
0
 10
0.861343
 20
16.6427
 11
0.777374
 21
16.6855
  0
LINE
  8
0
 10
0.777374
 20
16.6855
 11
0.696274
 21
16.7335
  0
LINE
  8
0
 10
0.696274
 20
16.7335
 11
0.618332
 21
16.7865
  0
LINE
  8
0
 10
0.618332
 20
16.7865
 11
0.543869
 21
16.8442
  0
LINE
  8
0
 10
0.543869
 20
16.8442
 11
0.47319
 21
16.9065
  0
LINE
  8
0
 10
0.47319
 20
16.9065
 11
0.406555
 21
16.9732
  0
LINE
  8
0
 10
0.406555
 20
16.9732
 11
0.344238
 21
17.0439
  0
LINE
  8
0
 10
0.344238
 20
17.0439
 11
0.286484
 21
17.1183
  0
LINE
  8
0
 10
0.286484
 20
17.1183
 11
0.233521
 21
17.1963
  0
LINE
  8
0
 10
0.233521
 20
17.1963
 11
0.185547
 21
17.2774
  0
LINE
  8
0
 10
0.185547
 20
17.2774
 11
0.142761
 21
17.3613
  0
LINE
  8
0
 10
0.142761
 20
17.3613
 11
0.105347
 21
17.4478
  0
LINE
  8
0
 10
0.105347
 20
17.4478
 11
0.0734253
 21
17.5365
  0
LINE
  8
0
 10
0.0734253
 20
17.5365
 11
0.0471344
 21
17.627
  0
LINE
  8
0
 10
0.0471344
 20
17.627
 11
0.0265808
 21
17.7189
  0
LINE
  8
0
 10
0.0265808
 20
17.7189
 11
0.0118408
 21
17.812
  0
LINE
  8
0
 10
0.0118408
 20
17.812
 11
0.00296021
 21
17.9058
  0
LINE
  8
0
 10
0.00296021
 20
17.9058
 11
0
 21
18
  0
LINE
  8
0
 10
0
 20
18
 11
0.00296021
 21
18.0942
  0
LINE
  8
0
 10
0.00296021
 20
18.0942
 11
0.0118408
 21
18.188
  0
LINE
  8
0
 10
0.0118408
 20
18.188
 11
0.0265808
 21
18.2811
  0
LINE
  8
0
 10
0.0265808
 20
18.2811
 11
0.0471344
 21
18.373
  0
LINE
  8
0
 10
0.0471344
 20
18.373
 11
0.0734253
 21
18.4635
  0
LINE
  8
0
 10
0.0734253
 20
18.4635
 11
0.105347
 21
18.5522
  0
LINE
  8
0
 10
0.105347
 20
18.5522
 11
0.142761
 21
18.6387
  0
LINE
  8
0
 10
0.142761
 20
18.6387
 11
0.185547
 21
18.7226
  0
LINE
  8
0
 10
0.185547
 20
18.7226
 11
0.233521
 21
18.8037
  0
LINE
  8
0
 10
0.233521
 20
18.8037
 11
0.286484
 21
18.8817
  0
LINE
  8
0
 10
0.286484
 20
18.8817
 11
0.344238
 21
18.9561
  0
LINE
  8
0
 10
0.344238
 20
18.9561
 11
0.406555
 21
19.0268
  0
LINE
  8
0
 10
0.406555
 20
19.0268
 11
0.47319
 21
19.0934
  0
LINE
  8
0
 10
0.47319
 20
19.0934
 11
0.543869
 21
19.1558
  0
LINE
  8
0
 10
0.543869
 20
19.1558
 11
0.618332
 21
19.2135
  0
LINE
  8
0
 10
0.618332
 20
19.2135
 11
0.696274
 21
19.2665
  0
LINE
  8
0
 10
0.696274
 20
19.2665
 11
0.777374
 21
19.3145
  0
LINE
  8
0
 10
0.777374
 20
19.3145
 11
0.861343
 21
19.3572
  0
LINE
  8
0
 10
0.861343
 20
19.3572
 11
0.947815
 21
19.3947
  0
LINE
  8
0
 10
0.947815
 20
19.3947
 11
1.03648
 21
19.4266
  0
LINE
  8
0
 10
1.03648
 20
19.4266
 11
1.12697
 21
19.4529
  0
LINE
  8
0
 10
1.12697
 20
19.4529
 11
1.21893
 21
19.4734
  0
LINE
  8
0
 10
1.21893
 20
19.4734
 11
1.31201
 21
19.4882
  0
LINE
  8
0
 10
1.31201
 20
19.4882
 11
1.40582
 21
19.497
  0
LINE
  8
0
 10
1.40582
 20
19.497
 11
1.5
 21
19.5
  0
LINE
  8
0
 10
1.5
 20
19.5
 11
1.59419
 21
19.497
  0
LINE
  8
0
 10
1.59419
 20
19.497
 11
1.688
 21
19.4882
  0
LINE
  8
0
 10
1.688
 20
19.4882
 11
1.78108
 21
19.4734
  0
LINE
  8
0
 10
1.78108
 20
19.4734
 11
1.87305
 21
19.4529
  0
LINE
  8
0
 10
1.87305
 20
19.4529
 11
1.96353
 21
19.4266
  0
LINE
  8
0
 10
1.96353
 20
19.4266
 11
2.0522
 21
19.3947
  0
LINE
  8
0
 10
2.0522
 20
19.3947
 11
2.13867
 21
19.3572
  0
LINE
  8
0
 10
2.13867
 20
19.3572
 11
2.22264
 21
19.3145
  0
LINE
  8
0
 10
2.22264
 20
19.3145
 11
2.30374
 21
19.2665
  0
LINE
  8
0
 10
2.30374
 20
19.2665
 11
2.38168
 21
19.2135
  0
LINE
  8
0
 10
2.38168
 20
19.2135
 11
2.45615
 21
19.1558
  0
LINE
  8
0
 10
2.45615
 20
19.1558
 11
2.52682
 21
19.0934
  0
LINE
  8
0
 10
2.52682
 20
19.0934
 11
2.59346
 21
19.0268
  0
LINE
  8
0
 10
2.59346
 20
19.0268
 11
2.65578
 21
18.9561
  0
LINE
  8
0
 10
2.65578
 20
18.9561
 11
2.71353
 21
18.8817
  0
LINE
  8
0
 10
2.71353
 20
18.8817
 11
2.76649
 21
18.8037
  0
LINE
  8
0
 10
2.76649
 20
18.8037
 11
2.81447
 21
18.7226
  0
LINE
  8
0
 10
2.81447
 20
18.7226
 11
2.85725
 21
18.6387
  0
LINE
  8
0
 10
2.85725
 20
18.6387
 11
2.89467
 21
18.5522
  0
LINE
  8
0
 10
2.89467
 20
18.5522
 11
2.92659
 21
18.4635
  0
LINE
  8
0
 10
2.92659
 20
18.4635
 11
2.95288
 21
18.373
  0
LINE
  8
0
 10
2.95288
 20
18.373
 11
2.97343
 21
18.2811
  0
LINE
  8
0
 10
2.97343
 20
18.2811
 11
2.98817
 21
18.188
  0
LINE
  8
0
 10
2.98817
 20
18.188
 11
2.99706
 21
18.0942
  0
LINE
  8
0
 10
2.99706
 20
18.0942
 11
3
 21
18
  0
LINE
  8
0
 10
3
 20
18
 11
2.99706
 21
17.9058
  0
LINE
  8
0
 10
2.99706
 20
17.9058
 11
2.98817
 21
17.812
  0
LINE
  8
0
 10
2.98817
 20
17.812
 11
2.97343
 21
17.7189
  0
LINE
  8
0
 10
2.97343
 20
17.7189
 11
2.95288
 21
17.627
  0
LINE
  8
0
 10
2.95288
 20
17.627
 11
2.92659
 21
17.5365
  0
LINE
  8
0
 10
2.92659
 20
17.5365
 11
2.89467
 21
17.4478
  0
LINE
  8
0
 10
2.89467
 20
17.4478
 11
2.85725
 21
17.3613
  0
LINE
  8
0
 10
2.85725
 20
17.3613
 11
2.81447
 21
17.2774
  0
LINE
  8
0
 10
2.81447
 20
17.2774
 11
2.76649
 21
17.1963
  0
LINE
  8
0
 10
2.76649
 20
17.1963
 11
2.71353
 21
17.1183
  0
LINE
  8
0
 10
2.71353
 20
17.1183
 11
2.65578
 21
17.0439
  0
LINE
  8
0
 10
2.65578
 20
17.0439
 11
2.59346
 21
16.9732
  0
LINE
  8
0
 10
2.59346
 20
16.9732
 11
2.52682
 21
16.9065
  0
LINE
  8
0
 10
2.52682
 20
16.9065
 11
2.45615
 21
16.8442
  0
LINE
  8
0
 10
2.45615
 20
16.8442
 11
2.38168
 21
16.7865
  0
LINE
  8
0
 10
2.38168
 20
16.7865
 11
2.30374
 21
16.7335
  0
LINE
  8
0
 10
2.30374
 20
16.7335
 11
2.22264
 21
16.6855
  0
LINE
  8
0
 10
2.22264
 20
16.6855
 11
2.13867
 21
16.6427
  0
LINE
  8
0
 10
2.13867
 20
16.6427
 11
2.0522
 21
16.6053
  0
LINE
  8
0
 10
2.0522
 20
16.6053
 11
1.96353
 21
16.5734
  0
LINE
  8
0
 10
1.96353
 20
16.5734
 11
1.87305
 21
16.5471
  0
LINE
  8
0
 10
1.87305
 20
16.5471
 11
1.78108
 21
16.5266
  0
LINE
  8
0
 10
1.78108
 20
16.5266
 11
1.688
 21
16.5118
  0
LINE
  8
0
 10
1.688
 20
16.5118
 11
1.59419
 21
16.5029
  0
LINE
  8
0
 10
1.59419
 20
16.5029
 11
1.5
 21
16.5
  0
LINE
  8
0
 10
1.5
 20
16.5
 11
1.40582
 21
16.5029
  0
LINE
  8
0
 10
64.4058
 20
16.5029
 11
64.312
 21
16.5118
  0
LINE
  8
0
 10
64.312
 20
16.5118
 11
64.2189
 21
16.5266
  0
LINE
  8
0
 10
64.2189
 20
16.5266
 11
64.127
 21
16.5471
  0
LINE
  8
0
 10
64.127
 20
16.5471
 11
64.0365
 21
16.5734
  0
LINE
  8
0
 10
64.0365
 20
16.5734
 11
63.9478
 21
16.6053
  0
LINE
  8
0
 10
63.9478
 20
16.6053
 11
63.8613
 21
16.6427
  0
LINE
  8
0
 10
63.8613
 20
16.6427
 11
63.7774
 21
16.6855
  0
LINE
  8
0
 10
63.7774
 20
16.6855
 11
63.6963
 21
16.7335
  0
LINE
  8
0
 10
63.6963
 20
16.7335
 11
63.6183
 21
16.7865
  0
LINE
  8
0
 10
63.6183
 20
16.7865
 11
63.5439
 21
16.8442
  0
LINE
  8
0
 10
63.5439
 20
16.8442
 11
63.4732
 21
16.9065
  0
LINE
  8
0
 10
63.4732
 20
16.9065
 11
63.4065
 21
16.9732
  0
LINE
  8
0
 10
63.4065
 20
16.9732
 11
63.3442
 21
17.0439
  0
LINE
  8
0
 10
63.3442
 20
17.0439
 11
63.2865
 21
17.1183
  0
LINE
  8
0
 10
63.2865
 20
17.1183
 11
63.2335
 21
17.1963
  0
LINE
  8
0
 10
63.2335
 20
17.1963
 11
63.1855
 21
17.2774
  0
LINE
  8
0
 10
63.1855
 20
17.2774
 11
63.1427
 21
17.3613
  0
LINE
  8
0
 10
63.1427
 20
17.3613
 11
63.1053
 21
17.4478
  0
LINE
  8
0
 10
63.1053
 20
17.4478
 11
63.0734
 21
17.5365
  0
LINE
  8
0
 10
63.0734
 20
17.5365
 11
63.0471
 21
17.627
  0
LINE
  8
0
 10
63.0471
 20
17.627
 11
63.0266
 21
17.7189
  0
LINE
  8
0
 10
63.0266
 20
17.7189
 11
63.0118
 21
17.812
  0
LINE
  8
0
 10
63.0118
 20
17.812
 11
63.0029
 21
17.9058
  0
LINE
  8
0
 10
63.0029
 20
17.9058
 11
63
 21
18
  0
LINE
  8
0
 10
63
 20
18
 11
63.0029
 21
18.0942
  0
LINE
  8
0
 10
63.0029
 20
18.0942
 11
63.0118
 21
18.188
  0
LINE
  8
0
 10
63.0118
 20
18.188
 11
63.0266
 21
18.2811
  0
LINE
  8
0
 10
63.0266
 20
18.2811
 11
63.0471
 21
18.373
  0
LINE
  8
0
 10
63.0471
 20
18.373
 11
63.0734
 21
18.4635
  0
LINE
  8
0
 10
63.0734
 20
18.4635
 11
63.1053
 21
18.5522
  0
LINE
  8
0
 10
63.1053
 20
18.5522
 11
63.1427
 21
18.6387
  0
LINE
  8
0
 10
63.1427
 20
18.6387
 11
63.1855
 21
18.7226
  0
LINE
  8
0
 10
63.1855
 20
18.7226
 11
63.2335
 21
18.8037
  0
LINE
  8
0
 10
63.2335
 20
18.8037
 11
63.2865
 21
18.8817
  0
LINE
  8
0
 10
63.2865
 20
18.8817
 11
63.3442
 21
18.9561
  0
LINE
  8
0
 10
63.3442
 20
18.9561
 11
63.4065
 21
19.0268
  0
LINE
  8
0
 10
63.4065
 20
19.0268
 11
63.4732
 21
19.0934
  0
LINE
  8
0
 10
63.4732
 20
19.0934
 11
63.5439
 21
19.1558
  0
LINE
  8
0
 10
63.5439
 20
19.1558
 11
63.6183
 21
19.2135
  0
LINE
  8
0
 10
63.6183
 20
19.2135
 11
63.6963
 21
19.2665
  0
LINE
  8
0
 10
63.6963
 20
19.2665
 11
63.7774
 21
19.3145
  0
LINE
  8
0
 10
63.7774
 20
19.3145
 11
63.8613
 21
19.3572
  0
LINE
  8
0
 10
63.8613
 20
19.3572
 11
63.9478
 21
19.3947
  0
LINE
  8
0
 10
63.9478
 20
19.3947
 11
64.0365
 21
19.4266
  0
LINE
  8
0
 10
64.0365
 20
19.4266
 11
64.127
 21
19.4529
  0
LINE
  8
0
 10
64.127
 20
19.4529
 11
64.2189
 21
19.4734
  0
LINE
  8
0
 10
64.2189
 20
19.4734
 11
64.312
 21
19.4882
  0
LINE
  8
0
 10
64.312
 20
19.4882
 11
64.4058
 21
19.497
  0
LINE
  8
0
 10
64.4058
 20
19.497
 11
64.5
 21
19.5
  0
LINE
  8
0
 10
64.5
 20
19.5
 11
64.5942
 21
19.497
  0
LINE
  8
0
 10
64.5942
 20
19.497
 11
64.688
 21
19.4882
  0
LINE
  8
0
 10
64.688
 20
19.4882
 11
64.7811
 21
19.4734
  0
LINE
  8
0
 10
64.7811
 20
19.4734
 11
64.873
 21
19.4529
  0
LINE
  8
0
 10
64.873
 20
19.4529
 11
64.9635
 21
19.4266
  0
LINE
  8
0
 10
64.9635
 20
19.4266
 11
65.0522
 21
19.3947
  0
LINE
  8
0
 10
65.0522
 20
19.3947
 11
65.1387
 21
19.3572
  0
LINE
  8
0
 10
65.1387
 20
19.3572
 11
65.2226
 21
19.3145
  0
LINE
  8
0
 10
65.2226
 20
19.3145
 11
65.3037
 21
19.2665
  0
LINE
  8
0
 10
65.3037
 20
19.2665
 11
65.3817
 21
19.2135
  0
LINE
  8
0
 10
65.3817
 20
19.2135
 11
65.4561
 21
19.1558
  0
LINE
  8
0
 10
65.4561
 20
19.1558
 11
65.5268
 21
19.0934
  0
LINE
  8
0
 10
65.5268
 20
19.0934
 11
65.5934
 21
19.0268
  0
LINE
  8
0
 10
65.5934
 20
19.0268
 11
65.6558
 21
18.9561
  0
LINE
  8
0
 10
65.6558
 20
18.9561
 11
65.7135
 21
18.8817
  0
LINE
  8
0
 10
65.7135
 20
18.8817
 11
65.7665
 21
18.8037
  0
LINE
  8
0
 10
65.7665
 20
18.8037
 11
65.8145
 21
18.7226
  0
LINE
  8
0
 10
65.8145
 20
18.7226
 11
65.8572
 21
18.6387
  0
LINE
  8
0
 10
65.8572
 20
18.6387
 11
65.8947
 21
18.5522
  0
LINE
  8
0
 10
65.8947
 20
18.5522
 11
65.9266
 21
18.4635
  0
LINE
  8
0
 10
65.9266
 20
18.4635
 11
65.9529
 21
18.373
  0
LINE
  8
0
 10
65.9529
 20
18.373
 11
65.9734
 21
18.2811
  0
LINE
  8
0
 10
65.9734
 20
18.2811
 11
65.9882
 21
18.188
  0
LINE
  8
0
 10
65.9882
 20
18.188
 11
65.997
 21
18.0942
  0
LINE
  8
0
 10
65.997
 20
18.0942
 11
66
 21
18
  0
LINE
  8
0
 10
66
 20
18
 11
65.997
 21
17.9058
  0
LINE
  8
0
 10
65.997
 20
17.9058
 11
65.9882
 21
17.812
  0
LINE
  8
0
 10
65.9882
 20
17.812
 11
65.9734
 21
17.7189
  0
LINE
  8
0
 10
65.9734
 20
17.7189
 11
65.9529
 21
17.627
  0
LINE
  8
0
 10
65.9529
 20
17.627
 11
65.9266
 21
17.5365
  0
LINE
  8
0
 10
65.9266
 20
17.5365
 11
65.8947
 21
17.4478
  0
LINE
  8
0
 10
65.8947
 20
17.4478
 11
65.8572
 21
17.3613
  0
LINE
  8
0
 10
65.8572
 20
17.3613
 11
65.8145
 21
17.2774
  0
LINE
  8
0
 10
65.8145
 20
17.2774
 11
65.7665
 21
17.1963
  0
LINE
  8
0
 10
65.7665
 20
17.1963
 11
65.7135
 21
17.1183
  0
LINE
  8
0
 10
65.7135
 20
17.1183
 11
65.6558
 21
17.0439
  0
LINE
  8
0
 10
65.6558
 20
17.0439
 11
65.5934
 21
16.9732
  0
LINE
  8
0
 10
65.5934
 20
16.9732
 11
65.5268
 21
16.9065
  0
LINE
  8
0
 10
65.5268
 20
16.9065
 11
65.4561
 21
16.8442
  0
LINE
  8
0
 10
65.4561
 20
16.8442
 11
65.3817
 21
16.7865
  0
LINE
  8
0
 10
65.3817
 20
16.7865
 11
65.3037
 21
16.7335
  0
LINE
  8
0
 10
65.3037
 20
16.7335
 11
65.2226
 21
16.6855
  0
LINE
  8
0
 10
65.2226
 20
16.6855
 11
65.1387
 21
16.6427
  0
LINE
  8
0
 10
65.1387
 20
16.6427
 11
65.0522
 21
16.6053
  0
LINE
  8
0
 10
65.0522
 20
16.6053
 11
64.9635
 21
16.5734
  0
LINE
  8
0
 10
64.9635
 20
16.5734
 11
64.873
 21
16.5471
  0
LINE
  8
0
 10
64.873
 20
16.5471
 11
64.7811
 21
16.5266
  0
LINE
  8
0
 10
64.7811
 20
16.5266
 11
64.688
 21
16.5118
  0
LINE
  8
0
 10
64.688
 20
16.5118
 11
64.5942
 21
16.5029
  0
LINE
  8
0
 10
64.5942
 20
16.5029
 11
64.5
 21
16.5
  0
LINE
  8
0
 10
64.5
 20
16.5
 11
64.4058
 21
16.5029
  0
ENDSEC
  0
SECTION
  2
OBJECTS
  0
DICTIONARY
  0
ENDSEC
  0
EOF
