  0
SECTION
  2
BLOCKS
  0
ENDSEC
  0
SECTION
  2
ENTITIES
  0
LINE
  8
0
 10
25.75
 20
78
 11
47.25
 21
78
  0
LINE
  8
0
 10
47.25
 20
78
 11
47.25
 21
75
  0
LINE
  8
0
 10
47.25
 20
75
 11
59.25
 21
75
  0
LINE
  8
0
 10
59.25
 20
75
 11
59.25
 21
78
  0
LINE
  8
0
 10
59.25
 20
78
 11
70
 21
78
  0
LINE
  8
0
 10
70
 20
78
 11
70
 21
88.75
  0
LINE
  8
0
 10
70
 20
88.75
 11
73
 21
88.75
  0
LINE
  8
0
 10
73
 20
88.75
 11
73
 21
93.25
  0
LINE
  8
0
 10
73
 20
93.25
 11
71
 21
93.25
  0
LINE
  8
0
 10
71
 20
93.25
 11
70.9058
 21
93.2529
  0
LINE
  8
0
 10
70.9058
 20
93.2529
 11
70.812
 21
93.2618
  0
LINE
  8
0
 10
70.812
 20
93.2618
 11
70.7189
 21
93.2766
  0
LINE
  8
0
 10
70.7189
 20
93.2766
 11
70.627
 21
93.2971
  0
LINE
  8
0
 10
70.627
 20
93.2971
 11
70.5365
 21
93.3234
  0
LINE
  8
0
 10
70.5365
 20
93.3234
 11
70.4478
 21
93.3553
  0
LINE
  8
0
 10
70.4478
 20
93.3553
 11
70.3613
 21
93.3927
  0
LINE
  8
0
 10
70.3613
 20
93.3927
 11
70.2774
 21
93.4355
  0
LINE
  8
0
 10
70.2774
 20
93.4355
 11
70.1963
 21
93.4835
  0
LINE
  8
0
 10
70.1963
 20
93.4835
 11
70.1183
 21
93.5365
  0
LINE
  8
0
 10
70.1183
 20
93.5365
 11
70.0439
 21
93.5942
  0
LINE
  8
0
 10
70.0439
 20
93.5942
 11
69.9732
 21
93.6565
  0
LINE
  8
0
 10
69.9732
 20
93.6565
 11
69.9065
 21
93.7232
  0
LINE
  8
0
 10
69.9065
 20
93.7232
 11
69.8442
 21
93.7939
  0
LINE
  8
0
 10
69.8442
 20
93.7939
 11
69.7865
 21
93.8683
  0
LINE
  8
0
 10
69.7865
 20
93.8683
 11
69.7335
 21
93.9463
  0
LINE
  8
0
 10
69.7335
 20
93.9463
 11
69.6855
 21
94.0274
  0
LINE
  8
0
 10
69.6855
 20
94.0274
 11
69.6427
 21
94.1113
  0
LINE
  8
0
 10
69.6427
 20
94.1113
 11
69.6053
 21
94.1978
  0
LINE
  8
0
 10
69.6053
 20
94.1978
 11
69.5734
 21
94.2865
  0
LINE
  8
0
 10
69.5734
 20
94.2865
 11
69.5471
 21
94.377
  0
LINE
  8
0
 10
69.5471
 20
94.377
 11
69.5266
 21
94.4689
  0
LINE
  8
0
 10
69.5266
 20
94.4689
 11
69.5118
 21
94.562
  0
LINE
  8
0
 10
69.5118
 20
94.562
 11
69.5029
 21
94.6558
  0
LINE
  8
0
 10
69.5029
 20
94.6558
 11
69.5
 21
94.75
  0
LINE
  8
0
 10
69.5
 20
94.75
 11
69.5029
 21
94.8442
  0
LINE
  8
0
 10
69.5029
 20
94.8442
 11
69.5118
 21
94.938
  0
LINE
  8
0
 10
69.5118
 20
94.938
 11
69.5266
 21
95.0311
  0
LINE
  8
0
 10
69.5266
 20
95.0311
 11
69.5471
 21
95.123
  0
LINE
  8
0
 10
69.5471
 20
95.123
 11
69.5734
 21
95.2135
  0
LINE
  8
0
 10
69.5734
 20
95.2135
 11
69.6053
 21
95.3022
  0
LINE
  8
0
 10
69.6053
 20
95.3022
 11
69.6427
 21
95.3887
  0
LINE
  8
0
 10
69.6427
 20
95.3887
 11
69.6855
 21
95.4726
  0
LINE
  8
0
 10
69.6855
 20
95.4726
 11
69.7335
 21
95.5537
  0
LINE
  8
0
 10
69.7335
 20
95.5537
 11
69.7865
 21
95.6317
  0
LINE
  8
0
 10
69.7865
 20
95.6317
 11
69.8442
 21
95.7061
  0
LINE
  8
0
 10
69.8442
 20
95.7061
 11
69.9065
 21
95.7768
  0
LINE
  8
0
 10
69.9065
 20
95.7768
 11
69.9732
 21
95.8434
  0
LINE
  8
0
 10
69.9732
 20
95.8434
 11
70.0439
 21
95.9058
  0
LINE
  8
0
 10
70.0439
 20
95.9058
 11
70.1183
 21
95.9635
  0
LINE
  8
0
 10
70.1183
 20
95.9635
 11
70.1963
 21
96.0165
  0
LINE
  8
0
 10
70.1963
 20
96.0165
 11
70.2774
 21
96.0645
  0
LINE
  8
0
 10
70.2774
 20
96.0645
 11
70.3613
 21
96.1072
  0
LINE
  8
0
 10
70.3613
 20
96.1072
 11
70.4478
 21
96.1447
  0
LINE
  8
0
 10
70.4478
 20
96.1447
 11
70.5365
 21
96.1766
  0
LINE
  8
0
 10
70.5365
 20
96.1766
 11
70.627
 21
96.2029
  0
LINE
  8
0
 10
70.627
 20
96.2029
 11
70.7189
 21
96.2234
  0
LINE
  8
0
 10
70.7189
 20
96.2234
 11
70.812
 21
96.2382
  0
LINE
  8
0
 10
70.812
 20
96.2382
 11
70.9058
 21
96.247
  0
LINE
  8
0
 10
70.9058
 20
96.247
 11
71
 21
96.25
  0
LINE
  8
0
 10
71
 20
96.25
 11
73
 21
96.25
  0
LINE
  8
0
 10
73
 20
96.25
 11
73
 21
100.75
  0
LINE
  8
0
 10
73
 20
100.75
 11
70
 21
100.75
  0
LINE
  8
0
 10
70
 20
100.75
 11
70
 21
122.25
  0
LINE
  8
0
 10
70
 20
122.25
 11
73
 21
122.25
  0
LINE
  8
0
 10
73
 20
122.25
 11
73
 21
126.75
  0
LINE
  8
0
 10
73
 20
126.75
 11
71
 21
126.75
  0
LINE
  8
0
 10
71
 20
126.75
 11
70.9058
 21
126.753
  0
LINE
  8
0
 10
70.9058
 20
126.753
 11
70.812
 21
126.762
  0
LINE
  8
0
 10
70.812
 20
126.762
 11
70.7189
 21
126.777
  0
LINE
  8
0
 10
70.7189
 20
126.777
 11
70.627
 21
126.797
  0
LINE
  8
0
 10
70.627
 20
126.797
 11
70.5365
 21
126.823
  0
LINE
  8
0
 10
70.5365
 20
126.823
 11
70.4478
 21
126.855
  0
LINE
  8
0
 10
70.4478
 20
126.855
 11
70.3613
 21
126.893
  0
LINE
  8
0
 10
70.3613
 20
126.893
 11
70.2774
 21
126.936
  0
LINE
  8
0
 10
70.2774
 20
126.936
 11
70.1963
 21
126.984
  0
LINE
  8
0
 10
70.1963
 20
126.984
 11
70.1183
 21
127.036
  0
LINE
  8
0
 10
70.1183
 20
127.036
 11
70.0439
 21
127.094
  0
LINE
  8
0
 10
70.0439
 20
127.094
 11
69.9732
 21
127.157
  0
LINE
  8
0
 10
69.9732
 20
127.157
 11
69.9065
 21
127.223
  0
LINE
  8
0
 10
69.9065
 20
127.223
 11
69.8442
 21
127.294
  0
LINE
  8
0
 10
69.8442
 20
127.294
 11
69.7865
 21
127.368
  0
LINE
  8
0
 10
69.7865
 20
127.368
 11
69.7335
 21
127.446
  0
LINE
  8
0
 10
69.7335
 20
127.446
 11
69.6855
 21
127.527
  0
LINE
  8
0
 10
69.6855
 20
127.527
 11
69.6427
 21
127.611
  0
LINE
  8
0
 10
69.6427
 20
127.611
 11
69.6053
 21
127.698
  0
LINE
  8
0
 10
69.6053
 20
127.698
 11
69.5734
 21
127.786
  0
LINE
  8
0
 10
69.5734
 20
127.786
 11
69.5471
 21
127.877
  0
LINE
  8
0
 10
69.5471
 20
127.877
 11
69.5266
 21
127.969
  0
LINE
  8
0
 10
69.5266
 20
127.969
 11
69.5118
 21
128.062
  0
LINE
  8
0
 10
69.5118
 20
128.062
 11
69.5029
 21
128.156
  0
LINE
  8
0
 10
69.5029
 20
128.156
 11
69.5
 21
128.25
  0
LINE
  8
0
 10
69.5
 20
128.25
 11
69.5029
 21
128.344
  0
LINE
  8
0
 10
69.5029
 20
128.344
 11
69.5118
 21
128.438
  0
LINE
  8
0
 10
69.5118
 20
128.438
 11
69.5266
 21
128.531
  0
LINE
  8
0
 10
69.5266
 20
128.531
 11
69.5471
 21
128.623
  0
LINE
  8
0
 10
69.5471
 20
128.623
 11
69.5734
 21
128.714
  0
LINE
  8
0
 10
69.5734
 20
128.714
 11
69.6053
 21
128.802
  0
LINE
  8
0
 10
69.6053
 20
128.802
 11
69.6427
 21
128.889
  0
LINE
  8
0
 10
69.6427
 20
128.889
 11
69.6855
 21
128.973
  0
LINE
  8
0
 10
69.6855
 20
128.973
 11
69.7335
 21
129.054
  0
LINE
  8
0
 10
69.7335
 20
129.054
 11
69.7865
 21
129.132
  0
LINE
  8
0
 10
69.7865
 20
129.132
 11
69.8442
 21
129.206
  0
LINE
  8
0
 10
69.8442
 20
129.206
 11
69.9065
 21
129.277
  0
LINE
  8
0
 10
69.9065
 20
129.277
 11
69.9732
 21
129.343
  0
LINE
  8
0
 10
69.9732
 20
129.343
 11
70.0439
 21
129.406
  0
LINE
  8
0
 10
70.0439
 20
129.406
 11
70.1183
 21
129.464
  0
LINE
  8
0
 10
70.1183
 20
129.464
 11
70.1963
 21
129.516
  0
LINE
  8
0
 10
70.1963
 20
129.516
 11
70.2774
 21
129.564
  0
LINE
  8
0
 10
70.2774
 20
129.564
 11
70.3613
 21
129.607
  0
LINE
  8
0
 10
70.3613
 20
129.607
 11
70.4478
 21
129.645
  0
LINE
  8
0
 10
70.4478
 20
129.645
 11
70.5365
 21
129.677
  0
LINE
  8
0
 10
70.5365
 20
129.677
 11
70.627
 21
129.703
  0
LINE
  8
0
 10
70.627
 20
129.703
 11
70.7189
 21
129.723
  0
LINE
  8
0
 10
70.7189
 20
129.723
 11
70.812
 21
129.738
  0
LINE
  8
0
 10
70.812
 20
129.738
 11
70.9058
 21
129.747
  0
LINE
  8
0
 10
70.9058
 20
129.747
 11
71
 21
129.75
  0
LINE
  8
0
 10
71
 20
129.75
 11
73
 21
129.75
  0
LINE
  8
0
 10
73
 20
129.75
 11
73
 21
134.25
  0
LINE
  8
0
 10
73
 20
134.25
 11
70
 21
134.25
  0
LINE
  8
0
 10
70
 20
134.25
 11
70
 21
145
  0
LINE
  8
0
 10
70
 20
145
 11
59.25
 21
145
  0
LINE
  8
0
 10
59.25
 20
145
 11
59.25
 21
148
  0
LINE
  8
0
 10
59.25
 20
148
 11
47.25
 21
148
  0
LINE
  8
0
 10
47.25
 20
148
 11
47.25
 21
145
  0
LINE
  8
0
 10
47.25
 20
145
 11
25.75
 21
145
  0
LINE
  8
0
 10
25.75
 20
145
 11
25.75
 21
148
  0
LINE
  8
0
 10
25.75
 20
148
 11
13.75
 21
148
  0
LINE
  8
0
 10
13.75
 20
148
 11
13.75
 21
145
  0
LINE
  8
0
 10
13.75
 20
145
 11
3
 21
145
  0
LINE
  8
0
 10
3
 20
145
 11
3
 21
134.25
  0
LINE
  8
0
 10
3
 20
134.25
 11
0
 21
134.25
  0
LINE
  8
0
 10
0
 20
134.25
 11
0
 21
129.75
  0
LINE
  8
0
 10
0
 20
129.75
 11
2.00002
 21
129.75
  0
LINE
  8
0
 10
2.00002
 20
129.75
 11
2.09419
 21
129.747
  0
LINE
  8
0
 10
2.09419
 20
129.747
 11
2.188
 21
129.738
  0
LINE
  8
0
 10
2.188
 20
129.738
 11
2.28108
 21
129.723
  0
LINE
  8
0
 10
2.28108
 20
129.723
 11
2.37305
 21
129.703
  0
LINE
  8
0
 10
2.37305
 20
129.703
 11
2.46353
 21
129.677
  0
LINE
  8
0
 10
2.46353
 20
129.677
 11
2.5522
 21
129.645
  0
LINE
  8
0
 10
2.5522
 20
129.645
 11
2.63867
 21
129.607
  0
LINE
  8
0
 10
2.63867
 20
129.607
 11
2.72264
 21
129.564
  0
LINE
  8
0
 10
2.72264
 20
129.564
 11
2.80374
 21
129.516
  0
LINE
  8
0
 10
2.80374
 20
129.516
 11
2.88168
 21
129.464
  0
LINE
  8
0
 10
2.88168
 20
129.464
 11
2.95615
 21
129.406
  0
LINE
  8
0
 10
2.95615
 20
129.406
 11
3.02681
 21
129.343
  0
LINE
  8
0
 10
3.02681
 20
129.343
 11
3.09344
 21
129.277
  0
LINE
  8
0
 10
3.09344
 20
129.277
 11
3.15576
 21
129.206
  0
LINE
  8
0
 10
3.15576
 20
129.206
 11
3.21352
 21
129.132
  0
LINE
  8
0
 10
3.21352
 20
129.132
 11
3.26648
 21
129.054
  0
LINE
  8
0
 10
3.26648
 20
129.054
 11
3.31445
 21
128.973
  0
LINE
  8
0
 10
3.31445
 20
128.973
 11
3.35724
 21
128.889
  0
LINE
  8
0
 10
3.35724
 20
128.889
 11
3.39465
 21
128.802
  0
LINE
  8
0
 10
3.39465
 20
128.802
 11
3.42657
 21
128.714
  0
LINE
  8
0
 10
3.42657
 20
128.714
 11
3.45287
 21
128.623
  0
LINE
  8
0
 10
3.45287
 20
128.623
 11
3.47342
 21
128.531
  0
LINE
  8
0
 10
3.47342
 20
128.531
 11
3.48816
 21
128.438
  0
LINE
  8
0
 10
3.48816
 20
128.438
 11
3.49704
 21
128.344
  0
LINE
  8
0
 10
3.49704
 20
128.344
 11
3.5
 21
128.25
  0
LINE
  8
0
 10
3.5
 20
128.25
 11
3.49704
 21
128.156
  0
LINE
  8
0
 10
3.49704
 20
128.156
 11
3.48816
 21
128.062
  0
LINE
  8
0
 10
3.48816
 20
128.062
 11
3.47342
 21
127.969
  0
LINE
  8
0
 10
3.47342
 20
127.969
 11
3.45287
 21
127.877
  0
LINE
  8
0
 10
3.45287
 20
127.877
 11
3.42657
 21
127.786
  0
LINE
  8
0
 10
3.42657
 20
127.786
 11
3.39465
 21
127.698
  0
LINE
  8
0
 10
3.39465
 20
127.698
 11
3.35724
 21
127.611
  0
LINE
  8
0
 10
3.35724
 20
127.611
 11
3.31445
 21
127.527
  0
LINE
  8
0
 10
3.31445
 20
127.527
 11
3.26648
 21
127.446
  0
LINE
  8
0
 10
3.26648
 20
127.446
 11
3.21352
 21
127.368
  0
LINE
  8
0
 10
3.21352
 20
127.368
 11
3.15576
 21
127.294
  0
LINE
  8
0
 10
3.15576
 20
127.294
 11
3.09344
 21
127.223
  0
LINE
  8
0
 10
3.09344
 20
127.223
 11
3.02681
 21
127.157
  0
LINE
  8
0
 10
3.02681
 20
127.157
 11
2.95615
 21
127.094
  0
LINE
  8
0
 10
2.95615
 20
127.094
 11
2.88168
 21
127.036
  0
LINE
  8
0
 10
2.88168
 20
127.036
 11
2.80374
 21
126.984
  0
LINE
  8
0
 10
2.80374
 20
126.984
 11
2.72264
 21
126.936
  0
LINE
  8
0
 10
2.72264
 20
126.936
 11
2.63867
 21
126.893
  0
LINE
  8
0
 10
2.63867
 20
126.893
 11
2.5522
 21
126.855
  0
LINE
  8
0
 10
2.5522
 20
126.855
 11
2.46353
 21
126.823
  0
LINE
  8
0
 10
2.46353
 20
126.823
 11
2.37305
 21
126.797
  0
LINE
  8
0
 10
2.37305
 20
126.797
 11
2.28108
 21
126.777
  0
LINE
  8
0
 10
2.28108
 20
126.777
 11
2.188
 21
126.762
  0
LINE
  8
0
 10
2.188
 20
126.762
 11
2.09419
 21
126.753
  0
LINE
  8
0
 10
2.09419
 20
126.753
 11
2
 21
126.75
  0
LINE
  8
0
 10
2
 20
126.75
 11
0
 21
126.75
  0
LINE
  8
0
 10
0
 20
126.75
 11
0
 21
122.25
  0
LINE
  8
0
 10
0
 20
122.25
 11
3
 21
122.25
  0
LINE
  8
0
 10
3
 20
122.25
 11
3
 21
100.75
  0
LINE
  8
0
 10
3
 20
100.75
 11
0
 21
100.75
  0
LINE
  8
0
 10
0
 20
100.75
 11
0
 21
96.25
  0
LINE
  8
0
 10
0
 20
96.25
 11
2.00002
 21
96.25
  0
LINE
  8
0
 10
2.00002
 20
96.25
 11
2.09419
 21
96.247
  0
LINE
  8
0
 10
2.09419
 20
96.247
 11
2.188
 21
96.2382
  0
LINE
  8
0
 10
2.188
 20
96.2382
 11
2.28108
 21
96.2234
  0
LINE
  8
0
 10
2.28108
 20
96.2234
 11
2.37305
 21
96.2029
  0
LINE
  8
0
 10
2.37305
 20
96.2029
 11
2.46353
 21
96.1766
  0
LINE
  8
0
 10
2.46353
 20
96.1766
 11
2.5522
 21
96.1447
  0
LINE
  8
0
 10
2.5522
 20
96.1447
 11
2.63867
 21
96.1072
  0
LINE
  8
0
 10
2.63867
 20
96.1072
 11
2.72264
 21
96.0645
  0
LINE
  8
0
 10
2.72264
 20
96.0645
 11
2.80374
 21
96.0165
  0
LINE
  8
0
 10
2.80374
 20
96.0165
 11
2.88168
 21
95.9635
  0
LINE
  8
0
 10
2.88168
 20
95.9635
 11
2.95615
 21
95.9058
  0
LINE
  8
0
 10
2.95615
 20
95.9058
 11
3.02681
 21
95.8434
  0
LINE
  8
0
 10
3.02681
 20
95.8434
 11
3.09344
 21
95.7768
  0
LINE
  8
0
 10
3.09344
 20
95.7768
 11
3.15576
 21
95.7061
  0
LINE
  8
0
 10
3.15576
 20
95.7061
 11
3.21352
 21
95.6317
  0
LINE
  8
0
 10
3.21352
 20
95.6317
 11
3.26648
 21
95.5537
  0
LINE
  8
0
 10
3.26648
 20
95.5537
 11
3.31445
 21
95.4726
  0
LINE
  8
0
 10
3.31445
 20
95.4726
 11
3.35724
 21
95.3887
  0
LINE
  8
0
 10
3.35724
 20
95.3887
 11
3.39465
 21
95.3022
  0
LINE
  8
0
 10
3.39465
 20
95.3022
 11
3.42657
 21
95.2135
  0
LINE
  8
0
 10
3.42657
 20
95.2135
 11
3.45287
 21
95.123
  0
LINE
  8
0
 10
3.45287
 20
95.123
 11
3.47342
 21
95.0311
  0
LINE
  8
0
 10
3.47342
 20
95.0311
 11
3.48816
 21
94.938
  0
LINE
  8
0
 10
3.48816
 20
94.938
 11
3.49704
 21
94.8442
  0
LINE
  8
0
 10
3.49704
 20
94.8442
 11
3.5
 21
94.75
  0
LINE
  8
0
 10
3.5
 20
94.75
 11
3.49704
 21
94.6558
  0
LINE
  8
0
 10
3.49704
 20
94.6558
 11
3.48816
 21
94.562
  0
LINE
  8
0
 10
3.48816
 20
94.562
 11
3.47342
 21
94.4689
  0
LINE
  8
0
 10
3.47342
 20
94.4689
 11
3.45287
 21
94.377
  0
LINE
  8
0
 10
3.45287
 20
94.377
 11
3.42657
 21
94.2865
  0
LINE
  8
0
 10
3.42657
 20
94.2865
 11
3.39465
 21
94.1978
  0
LINE
  8
0
 10
3.39465
 20
94.1978
 11
3.35724
 21
94.1113
  0
LINE
  8
0
 10
3.35724
 20
94.1113
 11
3.31445
 21
94.0274
  0
LINE
  8
0
 10
3.31445
 20
94.0274
 11
3.26648
 21
93.9463
  0
LINE
  8
0
 10
3.26648
 20
93.9463
 11
3.21352
 21
93.8683
  0
LINE
  8
0
 10
3.21352
 20
93.8683
 11
3.15576
 21
93.7939
  0
LINE
  8
0
 10
3.15576
 20
93.7939
 11
3.09344
 21
93.7232
  0
LINE
  8
0
 10
3.09344
 20
93.7232
 11
3.02681
 21
93.6565
  0
LINE
  8
0
 10
3.02681
 20
93.6565
 11
2.95615
 21
93.5942
  0
LINE
  8
0
 10
2.95615
 20
93.5942
 11
2.88168
 21
93.5365
  0
LINE
  8
0
 10
2.88168
 20
93.5365
 11
2.80374
 21
93.4835
  0
LINE
  8
0
 10
2.80374
 20
93.4835
 11
2.72264
 21
93.4355
  0
LINE
  8
0
 10
2.72264
 20
93.4355
 11
2.63867
 21
93.3927
  0
LINE
  8
0
 10
2.63867
 20
93.3927
 11
2.5522
 21
93.3553
  0
LINE
  8
0
 10
2.5522
 20
93.3553
 11
2.46353
 21
93.3234
  0
LINE
  8
0
 10
2.46353
 20
93.3234
 11
2.37305
 21
93.2971
  0
LINE
  8
0
 10
2.37305
 20
93.2971
 11
2.28108
 21
93.2766
  0
LINE
  8
0
 10
2.28108
 20
93.2766
 11
2.188
 21
93.2618
  0
LINE
  8
0
 10
2.188
 20
93.2618
 11
2.09419
 21
93.2529
  0
LINE
  8
0
 10
2.09419
 20
93.2529
 11
2
 21
93.25
  0
LINE
  8
0
 10
2
 20
93.25
 11
0
 21
93.25
  0
LINE
  8
0
 10
0
 20
93.25
 11
0
 21
88.75
  0
LINE
  8
0
 10
0
 20
88.75
 11
3
 21
88.75
  0
LINE
  8
0
 10
3
 20
88.75
 11
3
 21
78
  0
LINE
  8
0
 10
3
 20
78
 11
13.75
 21
78
  0
LINE
  8
0
 10
13.75
 20
78
 11
13.75
 21
75
  0
LINE
  8
0
 10
13.75
 20
75
 11
25.75
 21
75
  0
LINE
  8
0
 10
25.75
 20
75
 11
25.75
 21
78
  0
LINE
  8
0
 10
54.15
 20
134
 11
54.15
 21
141
  0
LINE
  8
0
 10
54.15
 20
141
 11
62.15
 21
141
  0
LINE
  8
0
 10
62.15
 20
141
 11
62.15
 21
134
  0
LINE
  8
0
 10
62.15
 20
134
 11
54.15
 21
134
  0
LINE
  8
0
 10
17.85
 20
119
 11
17.85
 21
132
  0
LINE
  8
0
 10
17.85
 20
132
 11
31.85
 21
132
  0
LINE
  8
0
 10
31.85
 20
132
 11
31.85
 21
119
  0
LINE
  8
0
 10
31.85
 20
119
 11
17.85
 21
119
  0
LINE
  8
0
 10
49.15
 20
119
 11
49.15
 21
131
  0
LINE
  8
0
 10
49.15
 20
131
 11
58.15
 21
131
  0
LINE
  8
0
 10
58.15
 20
131
 11
58.15
 21
119
  0
LINE
  8
0
 10
58.15
 20
119
 11
49.15
 21
119
  0
LINE
  8
0
 10
64.8179
 20
107.106
 11
64.6365
 21
107.123
  0
LINE
  8
0
 10
64.6365
 20
107.123
 11
64.4566
 21
107.151
  0
LINE
  8
0
 10
64.4566
 20
107.151
 11
64.2788
 21
107.191
  0
LINE
  8
0
 10
64.2788
 20
107.191
 11
64.1038
 21
107.242
  0
LINE
  8
0
 10
64.1038
 20
107.242
 11
63.9324
 21
107.304
  0
LINE
  8
0
 10
63.9324
 20
107.304
 11
63.7652
 21
107.376
  0
LINE
  8
0
 10
63.7652
 20
107.376
 11
63.6029
 21
107.459
  0
LINE
  8
0
 10
63.6029
 20
107.459
 11
63.4461
 21
107.551
  0
LINE
  8
0
 10
63.4461
 20
107.551
 11
63.2954
 21
107.654
  0
LINE
  8
0
 10
63.2954
 20
107.654
 11
63.1515
 21
107.766
  0
LINE
  8
0
 10
63.1515
 20
107.766
 11
63.0148
 21
107.886
  0
LINE
  8
0
 10
63.0148
 20
107.886
 11
62.886
 21
108.015
  0
LINE
  8
0
 10
62.886
 20
108.015
 11
62.7655
 21
108.151
  0
LINE
  8
0
 10
62.7655
 20
108.151
 11
62.6538
 21
108.295
  0
LINE
  8
0
 10
62.6538
 20
108.295
 11
62.5514
 21
108.446
  0
LINE
  8
0
 10
62.5514
 20
108.446
 11
62.4587
 21
108.603
  0
LINE
  8
0
 10
62.4587
 20
108.603
 11
62.376
 21
108.765
  0
LINE
  8
0
 10
62.376
 20
108.765
 11
62.3036
 21
108.932
  0
LINE
  8
0
 10
62.3036
 20
108.932
 11
62.2419
 21
109.104
  0
LINE
  8
0
 10
62.2419
 20
109.104
 11
62.1911
 21
109.279
  0
LINE
  8
0
 10
62.1911
 20
109.279
 11
62.1514
 21
109.457
  0
LINE
  8
0
 10
62.1514
 20
109.457
 11
62.1229
 21
109.637
  0
LINE
  8
0
 10
62.1229
 20
109.637
 11
62.1057
 21
109.818
  0
LINE
  8
0
 10
62.1057
 20
109.818
 11
62.1
 21
110
  0
LINE
  8
0
 10
62.1
 20
110
 11
62.1057
 21
110.182
  0
LINE
  8
0
 10
62.1057
 20
110.182
 11
62.1229
 21
110.363
  0
LINE
  8
0
 10
62.1229
 20
110.363
 11
62.1514
 21
110.543
  0
LINE
  8
0
 10
62.1514
 20
110.543
 11
62.1911
 21
110.721
  0
LINE
  8
0
 10
62.1911
 20
110.721
 11
62.2419
 21
110.896
  0
LINE
  8
0
 10
62.2419
 20
110.896
 11
62.3036
 21
111.068
  0
LINE
  8
0
 10
62.3036
 20
111.068
 11
62.376
 21
111.235
  0
LINE
  8
0
 10
62.376
 20
111.235
 11
62.4587
 21
111.397
  0
LINE
  8
0
 10
62.4587
 20
111.397
 11
62.5514
 21
111.554
  0
LINE
  8
0
 10
62.5514
 20
111.554
 11
62.6538
 21
111.705
  0
LINE
  8
0
 10
62.6538
 20
111.705
 11
62.7655
 21
111.849
  0
LINE
  8
0
 10
62.7655
 20
111.849
 11
62.886
 21
111.985
  0
LINE
  8
0
 10
62.886
 20
111.985
 11
63.0148
 21
112.114
  0
LINE
  8
0
 10
63.0148
 20
112.114
 11
63.1515
 21
112.234
  0
LINE
  8
0
 10
63.1515
 20
112.234
 11
63.2954
 21
112.346
  0
LINE
  8
0
 10
63.2954
 20
112.346
 11
63.4461
 21
112.449
  0
LINE
  8
0
 10
63.4461
 20
112.449
 11
63.6029
 21
112.541
  0
LINE
  8
0
 10
63.6029
 20
112.541
 11
63.7652
 21
112.624
  0
LINE
  8
0
 10
63.7652
 20
112.624
 11
63.9324
 21
112.696
  0
LINE
  8
0
 10
63.9324
 20
112.696
 11
64.1038
 21
112.758
  0
LINE
  8
0
 10
64.1038
 20
112.758
 11
64.2788
 21
112.809
  0
LINE
  8
0
 10
64.2788
 20
112.809
 11
64.4566
 21
112.849
  0
LINE
  8
0
 10
64.4566
 20
112.849
 11
64.6365
 21
112.877
  0
LINE
  8
0
 10
64.6365
 20
112.877
 11
64.8179
 21
112.894
  0
LINE
  8
0
 10
64.8179
 20
112.894
 11
65
 21
112.9
  0
LINE
  8
0
 10
65
 20
112.9
 11
65.1821
 21
112.894
  0
LINE
  8
0
 10
65.1821
 20
112.894
 11
65.3635
 21
112.877
  0
LINE
  8
0
 10
65.3635
 20
112.877
 11
65.5434
 21
112.849
  0
LINE
  8
0
 10
65.5434
 20
112.849
 11
65.7212
 21
112.809
  0
LINE
  8
0
 10
65.7212
 20
112.809
 11
65.8961
 21
112.758
  0
LINE
  8
0
 10
65.8961
 20
112.758
 11
66.0676
 21
112.696
  0
LINE
  8
0
 10
66.0676
 20
112.696
 11
66.2348
 21
112.624
  0
LINE
  8
0
 10
66.2348
 20
112.624
 11
66.3971
 21
112.541
  0
LINE
  8
0
 10
66.3971
 20
112.541
 11
66.5539
 21
112.449
  0
LINE
  8
0
 10
66.5539
 20
112.449
 11
66.7046
 21
112.346
  0
LINE
  8
0
 10
66.7046
 20
112.346
 11
66.8485
 21
112.234
  0
LINE
  8
0
 10
66.8485
 20
112.234
 11
66.9852
 21
112.114
  0
LINE
  8
0
 10
66.9852
 20
112.114
 11
67.114
 21
111.985
  0
LINE
  8
0
 10
67.114
 20
111.985
 11
67.2345
 21
111.849
  0
LINE
  8
0
 10
67.2345
 20
111.849
 11
67.3461
 21
111.705
  0
LINE
  8
0
 10
67.3461
 20
111.705
 11
67.4485
 21
111.554
  0
LINE
  8
0
 10
67.4485
 20
111.554
 11
67.5413
 21
111.397
  0
LINE
  8
0
 10
67.5413
 20
111.397
 11
67.624
 21
111.235
  0
LINE
  8
0
 10
67.624
 20
111.235
 11
67.6964
 21
111.068
  0
LINE
  8
0
 10
67.6964
 20
111.068
 11
67.7581
 21
110.896
  0
LINE
  8
0
 10
67.7581
 20
110.896
 11
67.8089
 21
110.721
  0
LINE
  8
0
 10
67.8089
 20
110.721
 11
67.8486
 21
110.543
  0
LINE
  8
0
 10
67.8486
 20
110.543
 11
67.8771
 21
110.363
  0
LINE
  8
0
 10
67.8771
 20
110.363
 11
67.8943
 21
110.182
  0
LINE
  8
0
 10
67.8943
 20
110.182
 11
67.9
 21
110
  0
LINE
  8
0
 10
67.9
 20
110
 11
67.8943
 21
109.818
  0
LINE
  8
0
 10
67.8943
 20
109.818
 11
67.8771
 21
109.637
  0
LINE
  8
0
 10
67.8771
 20
109.637
 11
67.8486
 21
109.457
  0
LINE
  8
0
 10
67.8486
 20
109.457
 11
67.8089
 21
109.279
  0
LINE
  8
0
 10
67.8089
 20
109.279
 11
67.7581
 21
109.104
  0
LINE
  8
0
 10
67.7581
 20
109.104
 11
67.6964
 21
108.932
  0
LINE
  8
0
 10
67.6964
 20
108.932
 11
67.624
 21
108.765
  0
LINE
  8
0
 10
67.624
 20
108.765
 11
67.5413
 21
108.603
  0
LINE
  8
0
 10
67.5413
 20
108.603
 11
67.4485
 21
108.446
  0
LINE
  8
0
 10
67.4485
 20
108.446
 11
67.3461
 21
108.295
  0
LINE
  8
0
 10
67.3461
 20
108.295
 11
67.2345
 21
108.151
  0
LINE
  8
0
 10
67.2345
 20
108.151
 11
67.114
 21
108.015
  0
LINE
  8
0
 10
67.114
 20
108.015
 11
66.9852
 21
107.886
  0
LINE
  8
0
 10
66.9852
 20
107.886
 11
66.8485
 21
107.766
  0
LINE
  8
0
 10
66.8485
 20
107.766
 11
66.7046
 21
107.654
  0
LINE
  8
0
 10
66.7046
 20
107.654
 11
66.5539
 21
107.551
  0
LINE
  8
0
 10
66.5539
 20
107.551
 11
66.3971
 21
107.459
  0
LINE
  8
0
 10
66.3971
 20
107.459
 11
66.2348
 21
107.376
  0
LINE
  8
0
 10
66.2348
 20
107.376
 11
66.0676
 21
107.304
  0
LINE
  8
0
 10
66.0676
 20
107.304
 11
65.8961
 21
107.242
  0
LINE
  8
0
 10
65.8961
 20
107.242
 11
65.7212
 21
107.191
  0
LINE
  8
0
 10
65.7212
 20
107.191
 11
65.5434
 21
107.151
  0
LINE
  8
0
 10
65.5434
 20
107.151
 11
65.3635
 21
107.123
  0
LINE
  8
0
 10
65.3635
 20
107.123
 11
65.1821
 21
107.106
  0
LINE
  8
0
 10
65.1821
 20
107.106
 11
65
 21
107.1
  0
LINE
  8
0
 10
65
 20
107.1
 11
64.8179
 21
107.106
  0
LINE
  8
0
 10
192.5
 20
2
 11
192.503
 21
2.09418
  0
LINE
  8
0
 10
192.503
 20
2.09418
 11
192.512
 21
2.18799
  0
LINE
  8
0
 10
192.512
 20
2.18799
 11
192.527
 21
2.28107
  0
LINE
  8
0
 10
192.527
 20
2.28107
 11
192.547
 21
2.37303
  0
LINE
  8
0
 10
192.547
 20
2.37303
 11
192.573
 21
2.46352
  0
LINE
  8
0
 10
192.573
 20
2.46352
 11
192.605
 21
2.55219
  0
LINE
  8
0
 10
192.605
 20
2.55219
 11
192.643
 21
2.63866
  0
LINE
  8
0
 10
192.643
 20
2.63866
 11
192.686
 21
2.72263
  0
LINE
  8
0
 10
192.686
 20
2.72263
 11
192.734
 21
2.80373
  0
LINE
  8
0
 10
192.734
 20
2.80373
 11
192.786
 21
2.88167
  0
LINE
  8
0
 10
192.786
 20
2.88167
 11
192.844
 21
2.95613
  0
LINE
  8
0
 10
192.844
 20
2.95613
 11
192.907
 21
3.02681
  0
LINE
  8
0
 10
192.907
 20
3.02681
 11
192.973
 21
3.09344
  0
LINE
  8
0
 10
192.973
 20
3.09344
 11
193.044
 21
3.15576
  0
LINE
  8
0
 10
193.044
 20
3.15576
 11
193.118
 21
3.21352
  0
LINE
  8
0
 10
193.118
 20
3.21352
 11
193.196
 21
3.26648
  0
LINE
  8
0
 10
193.196
 20
3.26648
 11
193.277
 21
3.31445
  0
LINE
  8
0
 10
193.277
 20
3.31445
 11
193.361
 21
3.35724
  0
LINE
  8
0
 10
193.361
 20
3.35724
 11
193.448
 21
3.39465
  0
LINE
  8
0
 10
193.448
 20
3.39465
 11
193.536
 21
3.42657
  0
LINE
  8
0
 10
193.536
 20
3.42657
 11
193.627
 21
3.45287
  0
LINE
  8
0
 10
193.627
 20
3.45287
 11
193.719
 21
3.47342
  0
LINE
  8
0
 10
193.719
 20
3.47342
 11
193.812
 21
3.48816
  0
LINE
  8
0
 10
193.812
 20
3.48816
 11
193.906
 21
3.49704
  0
LINE
  8
0
 10
193.906
 20
3.49704
 11
194
 21
3.5
  0
LINE
  8
0
 10
194
 20
3.5
 11
194.094
 21
3.49704
  0
LINE
  8
0
 10
194.094
 20
3.49704
 11
194.188
 21
3.48816
  0
LINE
  8
0
 10
194.188
 20
3.48816
 11
194.281
 21
3.47342
  0
LINE
  8
0
 10
194.281
 20
3.47342
 11
194.373
 21
3.45287
  0
LINE
  8
0
 10
194.373
 20
3.45287
 11
194.464
 21
3.42657
  0
LINE
  8
0
 10
194.464
 20
3.42657
 11
194.552
 21
3.39465
  0
LINE
  8
0
 10
194.552
 20
3.39465
 11
194.639
 21
3.35724
  0
LINE
  8
0
 10
194.639
 20
3.35724
 11
194.723
 21
3.31445
  0
LINE
  8
0
 10
194.723
 20
3.31445
 11
194.804
 21
3.26648
  0
LINE
  8
0
 10
194.804
 20
3.26648
 11
194.882
 21
3.21352
  0
LINE
  8
0
 10
194.882
 20
3.21352
 11
194.956
 21
3.15576
  0
LINE
  8
0
 10
194.956
 20
3.15576
 11
195.027
 21
3.09344
  0
LINE
  8
0
 10
195.027
 20
3.09344
 11
195.093
 21
3.02681
  0
LINE
  8
0
 10
195.093
 20
3.02681
 11
195.156
 21
2.95613
  0
LINE
  8
0
 10
195.156
 20
2.95613
 11
195.214
 21
2.88167
  0
LINE
  8
0
 10
195.214
 20
2.88167
 11
195.266
 21
2.80373
  0
LINE
  8
0
 10
195.266
 20
2.80373
 11
195.314
 21
2.72263
  0
LINE
  8
0
 10
195.314
 20
2.72263
 11
195.357
 21
2.63866
  0
LINE
  8
0
 10
195.357
 20
2.63866
 11
195.395
 21
2.55219
  0
LINE
  8
0
 10
195.395
 20
2.55219
 11
195.427
 21
2.46352
  0
LINE
  8
0
 10
195.427
 20
2.46352
 11
195.453
 21
2.37303
  0
LINE
  8
0
 10
195.453
 20
2.37303
 11
195.473
 21
2.28107
  0
LINE
  8
0
 10
195.473
 20
2.28107
 11
195.488
 21
2.18799
  0
LINE
  8
0
 10
195.488
 20
2.18799
 11
195.497
 21
2.09418
  0
LINE
  8
0
 10
195.497
 20
2.09418
 11
195.5
 21
1.99998
  0
LINE
  8
0
 10
195.5
 20
1.99998
 11
195.5
 21
0
  0
LINE
  8
0
 10
195.5
 20
0
 11
202.5
 21
0
  0
LINE
  8
0
 10
202.5
 20
0
 11
202.5
 21
3
  0
LINE
  8
0
 10
202.5
 20
3
 11
214.5
 21
3
  0
LINE
  8
0
 10
214.5
 20
3
 11
214.5
 21
0
  0
LINE
  8
0
 10
214.5
 20
0
 11
237.5
 21
0
  0
LINE
  8
0
 10
237.5
 20
0
 11
237.5
 21
3
  0
LINE
  8
0
 10
237.5
 20
3
 11
249.5
 21
3
  0
LINE
  8
0
 10
249.5
 20
3
 11
249.5
 21
0
  0
LINE
  8
0
 10
249.5
 20
0
 11
272.5
 21
0
  0
LINE
  8
0
 10
272.5
 20
0
 11
272.5
 21
3
  0
LINE
  8
0
 10
272.5
 20
3
 11
284.5
 21
3
  0
LINE
  8
0
 10
284.5
 20
3
 11
284.5
 21
0
  0
LINE
  8
0
 10
284.5
 20
0
 11
291.5
 21
0
  0
LINE
  8
0
 10
291.5
 20
0
 11
291.5
 21
2
  0
LINE
  8
0
 10
291.5
 20
2
 11
291.503
 21
2.09418
  0
LINE
  8
0
 10
291.503
 20
2.09418
 11
291.512
 21
2.18799
  0
LINE
  8
0
 10
291.512
 20
2.18799
 11
291.527
 21
2.28107
  0
LINE
  8
0
 10
291.527
 20
2.28107
 11
291.547
 21
2.37303
  0
LINE
  8
0
 10
291.547
 20
2.37303
 11
291.573
 21
2.46352
  0
LINE
  8
0
 10
291.573
 20
2.46352
 11
291.605
 21
2.55219
  0
LINE
  8
0
 10
291.605
 20
2.55219
 11
291.643
 21
2.63866
  0
LINE
  8
0
 10
291.643
 20
2.63866
 11
291.686
 21
2.72263
  0
LINE
  8
0
 10
291.686
 20
2.72263
 11
291.734
 21
2.80373
  0
LINE
  8
0
 10
291.734
 20
2.80373
 11
291.786
 21
2.88167
  0
LINE
  8
0
 10
291.786
 20
2.88167
 11
291.844
 21
2.95613
  0
LINE
  8
0
 10
291.844
 20
2.95613
 11
291.907
 21
3.02681
  0
LINE
  8
0
 10
291.907
 20
3.02681
 11
291.973
 21
3.09344
  0
LINE
  8
0
 10
291.973
 20
3.09344
 11
292.044
 21
3.15576
  0
LINE
  8
0
 10
292.044
 20
3.15576
 11
292.118
 21
3.21352
  0
LINE
  8
0
 10
292.118
 20
3.21352
 11
292.196
 21
3.26648
  0
LINE
  8
0
 10
292.196
 20
3.26648
 11
292.277
 21
3.31445
  0
LINE
  8
0
 10
292.277
 20
3.31445
 11
292.361
 21
3.35724
  0
LINE
  8
0
 10
292.361
 20
3.35724
 11
292.448
 21
3.39465
  0
LINE
  8
0
 10
292.448
 20
3.39465
 11
292.536
 21
3.42657
  0
LINE
  8
0
 10
292.536
 20
3.42657
 11
292.627
 21
3.45287
  0
LINE
  8
0
 10
292.627
 20
3.45287
 11
292.719
 21
3.47342
  0
LINE
  8
0
 10
292.719
 20
3.47342
 11
292.812
 21
3.48816
  0
LINE
  8
0
 10
292.812
 20
3.48816
 11
292.906
 21
3.49704
  0
LINE
  8
0
 10
292.906
 20
3.49704
 11
293
 21
3.5
  0
LINE
  8
0
 10
293
 20
3.5
 11
293.094
 21
3.49704
  0
LINE
  8
0
 10
293.094
 20
3.49704
 11
293.188
 21
3.48816
  0
LINE
  8
0
 10
293.188
 20
3.48816
 11
293.281
 21
3.47342
  0
LINE
  8
0
 10
293.281
 20
3.47342
 11
293.373
 21
3.45287
  0
LINE
  8
0
 10
293.373
 20
3.45287
 11
293.464
 21
3.42657
  0
LINE
  8
0
 10
293.464
 20
3.42657
 11
293.552
 21
3.39465
  0
LINE
  8
0
 10
293.552
 20
3.39465
 11
293.639
 21
3.35724
  0
LINE
  8
0
 10
293.639
 20
3.35724
 11
293.723
 21
3.31445
  0
LINE
  8
0
 10
293.723
 20
3.31445
 11
293.804
 21
3.26648
  0
LINE
  8
0
 10
293.804
 20
3.26648
 11
293.882
 21
3.21352
  0
LINE
  8
0
 10
293.882
 20
3.21352
 11
293.956
 21
3.15576
  0
LINE
  8
0
 10
293.956
 20
3.15576
 11
294.027
 21
3.09344
  0
LINE
  8
0
 10
294.027
 20
3.09344
 11
294.093
 21
3.02681
  0
LINE
  8
0
 10
294.093
 20
3.02681
 11
294.156
 21
2.95613
  0
LINE
  8
0
 10
294.156
 20
2.95613
 11
294.214
 21
2.88167
  0
LINE
  8
0
 10
294.214
 20
2.88167
 11
294.266
 21
2.80373
  0
LINE
  8
0
 10
294.266
 20
2.80373
 11
294.314
 21
2.72263
  0
LINE
  8
0
 10
294.314
 20
2.72263
 11
294.357
 21
2.63866
  0
LINE
  8
0
 10
294.357
 20
2.63866
 11
294.395
 21
2.55219
  0
LINE
  8
0
 10
294.395
 20
2.55219
 11
294.427
 21
2.46352
  0
LINE
  8
0
 10
294.427
 20
2.46352
 11
294.453
 21
2.37303
  0
LINE
  8
0
 10
294.453
 20
2.37303
 11
294.473
 21
2.28107
  0
LINE
  8
0
 10
294.473
 20
2.28107
 11
294.488
 21
2.18799
  0
LINE
  8
0
 10
294.488
 20
2.18799
 11
294.497
 21
2.09418
  0
LINE
  8
0
 10
294.497
 20
2.09418
 11
294.5
 21
1.99998
  0
LINE
  8
0
 10
294.5
 20
1.99998
 11
294.5
 21
0
  0
LINE
  8
0
 10
294.5
 20
0
 11
299
 21
0
  0
LINE
  8
0
 10
299
 20
0
 11
299
 21
13.75
  0
LINE
  8
0
 10
299
 20
13.75
 11
296
 21
13.75
  0
LINE
  8
0
 10
296
 20
13.75
 11
296
 21
25.75
  0
LINE
  8
0
 10
296
 20
25.75
 11
299
 21
25.75
  0
LINE
  8
0
 10
299
 20
25.75
 11
299
 21
47.25
  0
LINE
  8
0
 10
299
 20
47.25
 11
296
 21
47.25
  0
LINE
  8
0
 10
296
 20
47.25
 11
296
 21
59.25
  0
LINE
  8
0
 10
296
 20
59.25
 11
299
 21
59.25
  0
LINE
  8
0
 10
299
 20
59.25
 11
299
 21
73
  0
LINE
  8
0
 10
299
 20
73
 11
294.5
 21
73
  0
LINE
  8
0
 10
294.5
 20
73
 11
294.5
 21
71
  0
LINE
  8
0
 10
294.5
 20
71
 11
294.497
 21
70.9058
  0
LINE
  8
0
 10
294.497
 20
70.9058
 11
294.488
 21
70.812
  0
LINE
  8
0
 10
294.488
 20
70.812
 11
294.473
 21
70.7189
  0
LINE
  8
0
 10
294.473
 20
70.7189
 11
294.453
 21
70.627
  0
LINE
  8
0
 10
294.453
 20
70.627
 11
294.427
 21
70.5365
  0
LINE
  8
0
 10
294.427
 20
70.5365
 11
294.395
 21
70.4478
  0
LINE
  8
0
 10
294.395
 20
70.4478
 11
294.357
 21
70.3613
  0
LINE
  8
0
 10
294.357
 20
70.3613
 11
294.314
 21
70.2774
  0
LINE
  8
0
 10
294.314
 20
70.2774
 11
294.266
 21
70.1963
  0
LINE
  8
0
 10
294.266
 20
70.1963
 11
294.214
 21
70.1183
  0
LINE
  8
0
 10
294.214
 20
70.1183
 11
294.156
 21
70.0439
  0
LINE
  8
0
 10
294.156
 20
70.0439
 11
294.093
 21
69.9732
  0
LINE
  8
0
 10
294.093
 20
69.9732
 11
294.027
 21
69.9065
  0
LINE
  8
0
 10
294.027
 20
69.9065
 11
293.956
 21
69.8442
  0
LINE
  8
0
 10
293.956
 20
69.8442
 11
293.882
 21
69.7865
  0
LINE
  8
0
 10
293.882
 20
69.7865
 11
293.804
 21
69.7335
  0
LINE
  8
0
 10
293.804
 20
69.7335
 11
293.723
 21
69.6855
  0
LINE
  8
0
 10
293.723
 20
69.6855
 11
293.639
 21
69.6427
  0
LINE
  8
0
 10
293.639
 20
69.6427
 11
293.552
 21
69.6053
  0
LINE
  8
0
 10
293.552
 20
69.6053
 11
293.464
 21
69.5734
  0
LINE
  8
0
 10
293.464
 20
69.5734
 11
293.373
 21
69.5471
  0
LINE
  8
0
 10
293.373
 20
69.5471
 11
293.281
 21
69.5266
  0
LINE
  8
0
 10
293.281
 20
69.5266
 11
293.188
 21
69.5118
  0
LINE
  8
0
 10
293.188
 20
69.5118
 11
293.094
 21
69.5029
  0
LINE
  8
0
 10
293.094
 20
69.5029
 11
293
 21
69.5
  0
LINE
  8
0
 10
293
 20
69.5
 11
292.906
 21
69.5029
  0
LINE
  8
0
 10
292.906
 20
69.5029
 11
292.812
 21
69.5118
  0
LINE
  8
0
 10
292.812
 20
69.5118
 11
292.719
 21
69.5266
  0
LINE
  8
0
 10
292.719
 20
69.5266
 11
292.627
 21
69.5471
  0
LINE
  8
0
 10
292.627
 20
69.5471
 11
292.536
 21
69.5734
  0
LINE
  8
0
 10
292.536
 20
69.5734
 11
292.448
 21
69.6053
  0
LINE
  8
0
 10
292.448
 20
69.6053
 11
292.361
 21
69.6427
  0
LINE
  8
0
 10
292.361
 20
69.6427
 11
292.277
 21
69.6855
  0
LINE
  8
0
 10
292.277
 20
69.6855
 11
292.196
 21
69.7335
  0
LINE
  8
0
 10
292.196
 20
69.7335
 11
292.118
 21
69.7865
  0
LINE
  8
0
 10
292.118
 20
69.7865
 11
292.044
 21
69.8442
  0
LINE
  8
0
 10
292.044
 20
69.8442
 11
291.973
 21
69.9065
  0
LINE
  8
0
 10
291.973
 20
69.9065
 11
291.907
 21
69.9732
  0
LINE
  8
0
 10
291.907
 20
69.9732
 11
291.844
 21
70.0439
  0
LINE
  8
0
 10
291.844
 20
70.0439
 11
291.786
 21
70.1183
  0
LINE
  8
0
 10
291.786
 20
70.1183
 11
291.734
 21
70.1963
  0
LINE
  8
0
 10
291.734
 20
70.1963
 11
291.686
 21
70.2774
  0
LINE
  8
0
 10
291.686
 20
70.2774
 11
291.643
 21
70.3613
  0
LINE
  8
0
 10
291.643
 20
70.3613
 11
291.605
 21
70.4478
  0
LINE
  8
0
 10
291.605
 20
70.4478
 11
291.573
 21
70.5365
  0
LINE
  8
0
 10
291.573
 20
70.5365
 11
291.547
 21
70.627
  0
LINE
  8
0
 10
291.547
 20
70.627
 11
291.527
 21
70.7189
  0
LINE
  8
0
 10
291.527
 20
70.7189
 11
291.512
 21
70.812
  0
LINE
  8
0
 10
291.512
 20
70.812
 11
291.503
 21
70.9058
  0
LINE
  8
0
 10
291.503
 20
70.9058
 11
291.5
 21
71
  0
LINE
  8
0
 10
291.5
 20
71
 11
291.5
 21
73
  0
LINE
  8
0
 10
291.5
 20
73
 11
284.5
 21
73
  0
LINE
  8
0
 10
284.5
 20
73
 11
284.5
 21
70
  0
LINE
  8
0
 10
284.5
 20
70
 11
272.5
 21
70
  0
LINE
  8
0
 10
272.5
 20
70
 11
272.5
 21
73
  0
LINE
  8
0
 10
272.5
 20
73
 11
249.5
 21
73
  0
LINE
  8
0
 10
249.5
 20
73
 11
249.5
 21
70
  0
LINE
  8
0
 10
249.5
 20
70
 11
237.5
 21
70
  0
LINE
  8
0
 10
237.5
 20
70
 11
237.5
 21
73
  0
LINE
  8
0
 10
237.5
 20
73
 11
214.5
 21
73
  0
LINE
  8
0
 10
214.5
 20
73
 11
214.5
 21
70
  0
LINE
  8
0
 10
214.5
 20
70
 11
202.5
 21
70
  0
LINE
  8
0
 10
202.5
 20
70
 11
202.5
 21
73
  0
LINE
  8
0
 10
202.5
 20
73
 11
195.5
 21
73
  0
LINE
  8
0
 10
195.5
 20
73
 11
195.5
 21
71
  0
LINE
  8
0
 10
195.5
 20
71
 11
195.497
 21
70.9058
  0
LINE
  8
0
 10
195.497
 20
70.9058
 11
195.488
 21
70.812
  0
LINE
  8
0
 10
195.488
 20
70.812
 11
195.473
 21
70.7189
  0
LINE
  8
0
 10
195.473
 20
70.7189
 11
195.453
 21
70.627
  0
LINE
  8
0
 10
195.453
 20
70.627
 11
195.427
 21
70.5365
  0
LINE
  8
0
 10
195.427
 20
70.5365
 11
195.395
 21
70.4478
  0
LINE
  8
0
 10
195.395
 20
70.4478
 11
195.357
 21
70.3613
  0
LINE
  8
0
 10
195.357
 20
70.3613
 11
195.314
 21
70.2774
  0
LINE
  8
0
 10
195.314
 20
70.2774
 11
195.266
 21
70.1963
  0
LINE
  8
0
 10
195.266
 20
70.1963
 11
195.214
 21
70.1183
  0
LINE
  8
0
 10
195.214
 20
70.1183
 11
195.156
 21
70.0439
  0
LINE
  8
0
 10
195.156
 20
70.0439
 11
195.093
 21
69.9732
  0
LINE
  8
0
 10
195.093
 20
69.9732
 11
195.027
 21
69.9065
  0
LINE
  8
0
 10
195.027
 20
69.9065
 11
194.956
 21
69.8442
  0
LINE
  8
0
 10
194.956
 20
69.8442
 11
194.882
 21
69.7865
  0
LINE
  8
0
 10
194.882
 20
69.7865
 11
194.804
 21
69.7335
  0
LINE
  8
0
 10
194.804
 20
69.7335
 11
194.723
 21
69.6855
  0
LINE
  8
0
 10
194.723
 20
69.6855
 11
194.639
 21
69.6427
  0
LINE
  8
0
 10
194.639
 20
69.6427
 11
194.552
 21
69.6053
  0
LINE
  8
0
 10
194.552
 20
69.6053
 11
194.464
 21
69.5734
  0
LINE
  8
0
 10
194.464
 20
69.5734
 11
194.373
 21
69.5471
  0
LINE
  8
0
 10
194.373
 20
69.5471
 11
194.281
 21
69.5266
  0
LINE
  8
0
 10
194.281
 20
69.5266
 11
194.188
 21
69.5118
  0
LINE
  8
0
 10
194.188
 20
69.5118
 11
194.094
 21
69.5029
  0
LINE
  8
0
 10
194.094
 20
69.5029
 11
194
 21
69.5
  0
LINE
  8
0
 10
194
 20
69.5
 11
193.906
 21
69.5029
  0
LINE
  8
0
 10
193.906
 20
69.5029
 11
193.812
 21
69.5118
  0
LINE
  8
0
 10
193.812
 20
69.5118
 11
193.719
 21
69.5266
  0
LINE
  8
0
 10
193.719
 20
69.5266
 11
193.627
 21
69.5471
  0
LINE
  8
0
 10
193.627
 20
69.5471
 11
193.536
 21
69.5734
  0
LINE
  8
0
 10
193.536
 20
69.5734
 11
193.448
 21
69.6053
  0
LINE
  8
0
 10
193.448
 20
69.6053
 11
193.361
 21
69.6427
  0
LINE
  8
0
 10
193.361
 20
69.6427
 11
193.277
 21
69.6855
  0
LINE
  8
0
 10
193.277
 20
69.6855
 11
193.196
 21
69.7335
  0
LINE
  8
0
 10
193.196
 20
69.7335
 11
193.118
 21
69.7865
  0
LINE
  8
0
 10
193.118
 20
69.7865
 11
193.044
 21
69.8442
  0
LINE
  8
0
 10
193.044
 20
69.8442
 11
192.973
 21
69.9065
  0
LINE
  8
0
 10
192.973
 20
69.9065
 11
192.907
 21
69.9732
  0
LINE
  8
0
 10
192.907
 20
69.9732
 11
192.844
 21
70.0439
  0
LINE
  8
0
 10
192.844
 20
70.0439
 11
192.786
 21
70.1183
  0
LINE
  8
0
 10
192.786
 20
70.1183
 11
192.734
 21
70.1963
  0
LINE
  8
0
 10
192.734
 20
70.1963
 11
192.686
 21
70.2774
  0
LINE
  8
0
 10
192.686
 20
70.2774
 11
192.643
 21
70.3613
  0
LINE
  8
0
 10
192.643
 20
70.3613
 11
192.605
 21
70.4478
  0
LINE
  8
0
 10
192.605
 20
70.4478
 11
192.573
 21
70.5365
  0
LINE
  8
0
 10
192.573
 20
70.5365
 11
192.547
 21
70.627
  0
LINE
  8
0
 10
192.547
 20
70.627
 11
192.527
 21
70.7189
  0
LINE
  8
0
 10
192.527
 20
70.7189
 11
192.512
 21
70.812
  0
LINE
  8
0
 10
192.512
 20
70.812
 11
192.503
 21
70.9058
  0
LINE
  8
0
 10
192.503
 20
70.9058
 11
192.5
 21
71
  0
LINE
  8
0
 10
192.5
 20
71
 11
192.5
 21
73
  0
LINE
  8
0
 10
192.5
 20
73
 11
188
 21
73
  0
LINE
  8
0
 10
188
 20
73
 11
188
 21
59.25
  0
LINE
  8
0
 10
188
 20
59.25
 11
191
 21
59.25
  0
LINE
  8
0
 10
191
 20
59.25
 11
191
 21
47.25
  0
LINE
  8
0
 10
191
 20
47.25
 11
188
 21
47.25
  0
LINE
  8
0
 10
188
 20
47.25
 11
188
 21
25.75
  0
LINE
  8
0
 10
188
 20
25.75
 11
191
 21
25.75
  0
LINE
  8
0
 10
191
 20
25.75
 11
191
 21
13.75
  0
LINE
  8
0
 10
191
 20
13.75
 11
188
 21
13.75
  0
LINE
  8
0
 10
188
 20
13.75
 11
188
 21
0
  0
LINE
  8
0
 10
188
 20
0
 11
192.5
 21
0
  0
LINE
  8
0
 10
192.5
 20
0
 11
192.5
 21
2
  0
LINE
  8
0
 10
206
 20
58
 11
206
 21
62
  0
LINE
  8
0
 10
206
 20
62
 11
211.5
 21
62
  0
LINE
  8
0
 10
211.5
 20
62
 11
211.5
 21
58
  0
LINE
  8
0
 10
211.5
 20
58
 11
206
 21
58
  0
LINE
  8
0
 10
275.906
 20
54.5029
 11
275.812
 21
54.5118
  0
LINE
  8
0
 10
275.812
 20
54.5118
 11
275.719
 21
54.5266
  0
LINE
  8
0
 10
275.719
 20
54.5266
 11
275.627
 21
54.5471
  0
LINE
  8
0
 10
275.627
 20
54.5471
 11
275.536
 21
54.5734
  0
LINE
  8
0
 10
275.536
 20
54.5734
 11
275.448
 21
54.6053
  0
LINE
  8
0
 10
275.448
 20
54.6053
 11
275.361
 21
54.6427
  0
LINE
  8
0
 10
275.361
 20
54.6427
 11
275.277
 21
54.6855
  0
LINE
  8
0
 10
275.277
 20
54.6855
 11
275.196
 21
54.7335
  0
LINE
  8
0
 10
275.196
 20
54.7335
 11
275.118
 21
54.7865
  0
LINE
  8
0
 10
275.118
 20
54.7865
 11
275.044
 21
54.8442
  0
LINE
  8
0
 10
275.044
 20
54.8442
 11
274.973
 21
54.9065
  0
LINE
  8
0
 10
274.973
 20
54.9065
 11
274.907
 21
54.9732
  0
LINE
  8
0
 10
274.907
 20
54.9732
 11
274.844
 21
55.0439
  0
LINE
  8
0
 10
274.844
 20
55.0439
 11
274.786
 21
55.1183
  0
LINE
  8
0
 10
274.786
 20
55.1183
 11
274.734
 21
55.1963
  0
LINE
  8
0
 10
274.734
 20
55.1963
 11
274.686
 21
55.2774
  0
LINE
  8
0
 10
274.686
 20
55.2774
 11
274.643
 21
55.3613
  0
LINE
  8
0
 10
274.643
 20
55.3613
 11
274.605
 21
55.4478
  0
LINE
  8
0
 10
274.605
 20
55.4478
 11
274.573
 21
55.5365
  0
LINE
  8
0
 10
274.573
 20
55.5365
 11
274.547
 21
55.627
  0
LINE
  8
0
 10
274.547
 20
55.627
 11
274.527
 21
55.7189
  0
LINE
  8
0
 10
274.527
 20
55.7189
 11
274.512
 21
55.812
  0
LINE
  8
0
 10
274.512
 20
55.812
 11
274.503
 21
55.9058
  0
LINE
  8
0
 10
274.503
 20
55.9058
 11
274.5
 21
56
  0
LINE
  8
0
 10
274.5
 20
56
 11
274.503
 21
56.0942
  0
LINE
  8
0
 10
274.503
 20
56.0942
 11
274.512
 21
56.188
  0
LINE
  8
0
 10
274.512
 20
56.188
 11
274.527
 21
56.2811
  0
LINE
  8
0
 10
274.527
 20
56.2811
 11
274.547
 21
56.373
  0
LINE
  8
0
 10
274.547
 20
56.373
 11
274.573
 21
56.4635
  0
LINE
  8
0
 10
274.573
 20
56.4635
 11
274.605
 21
56.5522
  0
LINE
  8
0
 10
274.605
 20
56.5522
 11
274.643
 21
56.6387
  0
LINE
  8
0
 10
274.643
 20
56.6387
 11
274.686
 21
56.7226
  0
LINE
  8
0
 10
274.686
 20
56.7226
 11
274.734
 21
56.8037
  0
LINE
  8
0
 10
274.734
 20
56.8037
 11
274.786
 21
56.8817
  0
LINE
  8
0
 10
274.786
 20
56.8817
 11
274.844
 21
56.9561
  0
LINE
  8
0
 10
274.844
 20
56.9561
 11
274.907
 21
57.0268
  0
LINE
  8
0
 10
274.907
 20
57.0268
 11
274.973
 21
57.0934
  0
LINE
  8
0
 10
274.973
 20
57.0934
 11
275.044
 21
57.1558
  0
LINE
  8
0
 10
275.044
 20
57.1558
 11
275.118
 21
57.2135
  0
LINE
  8
0
 10
275.118
 20
57.2135
 11
275.196
 21
57.2665
  0
LINE
  8
0
 10
275.196
 20
57.2665
 11
275.277
 21
57.3145
  0
LINE
  8
0
 10
275.277
 20
57.3145
 11
275.361
 21
57.3572
  0
LINE
  8
0
 10
275.361
 20
57.3572
 11
275.448
 21
57.3947
  0
LINE
  8
0
 10
275.448
 20
57.3947
 11
275.536
 21
57.4266
  0
LINE
  8
0
 10
275.536
 20
57.4266
 11
275.627
 21
57.4529
  0
LINE
  8
0
 10
275.627
 20
57.4529
 11
275.719
 21
57.4734
  0
LINE
  8
0
 10
275.719
 20
57.4734
 11
275.812
 21
57.4882
  0
LINE
  8
0
 10
275.812
 20
57.4882
 11
275.906
 21
57.497
  0
LINE
  8
0
 10
275.906
 20
57.497
 11
276
 21
57.5
  0
LINE
  8
0
 10
276
 20
57.5
 11
276.094
 21
57.497
  0
LINE
  8
0
 10
276.094
 20
57.497
 11
276.188
 21
57.4882
  0
LINE
  8
0
 10
276.188
 20
57.4882
 11
276.281
 21
57.4734
  0
LINE
  8
0
 10
276.281
 20
57.4734
 11
276.373
 21
57.4529
  0
LINE
  8
0
 10
276.373
 20
57.4529
 11
276.464
 21
57.4266
  0
LINE
  8
0
 10
276.464
 20
57.4266
 11
276.552
 21
57.3947
  0
LINE
  8
0
 10
276.552
 20
57.3947
 11
276.639
 21
57.3572
  0
LINE
  8
0
 10
276.639
 20
57.3572
 11
276.723
 21
57.3145
  0
LINE
  8
0
 10
276.723
 20
57.3145
 11
276.804
 21
57.2665
  0
LINE
  8
0
 10
276.804
 20
57.2665
 11
276.882
 21
57.2135
  0
LINE
  8
0
 10
276.882
 20
57.2135
 11
276.956
 21
57.1558
  0
LINE
  8
0
 10
276.956
 20
57.1558
 11
277.027
 21
57.0934
  0
LINE
  8
0
 10
277.027
 20
57.0934
 11
277.093
 21
57.0268
  0
LINE
  8
0
 10
277.093
 20
57.0268
 11
277.156
 21
56.9561
  0
LINE
  8
0
 10
277.156
 20
56.9561
 11
277.214
 21
56.8817
  0
LINE
  8
0
 10
277.214
 20
56.8817
 11
277.266
 21
56.8037
  0
LINE
  8
0
 10
277.266
 20
56.8037
 11
277.314
 21
56.7226
  0
LINE
  8
0
 10
277.314
 20
56.7226
 11
277.357
 21
56.6387
  0
LINE
  8
0
 10
277.357
 20
56.6387
 11
277.395
 21
56.5522
  0
LINE
  8
0
 10
277.395
 20
56.5522
 11
277.427
 21
56.4635
  0
LINE
  8
0
 10
277.427
 20
56.4635
 11
277.453
 21
56.373
  0
LINE
  8
0
 10
277.453
 20
56.373
 11
277.473
 21
56.2811
  0
LINE
  8
0
 10
277.473
 20
56.2811
 11
277.488
 21
56.188
  0
LINE
  8
0
 10
277.488
 20
56.188
 11
277.497
 21
56.0942
  0
LINE
  8
0
 10
277.497
 20
56.0942
 11
277.5
 21
56
  0
LINE
  8
0
 10
277.5
 20
56
 11
277.497
 21
55.9058
  0
LINE
  8
0
 10
277.497
 20
55.9058
 11
277.488
 21
55.812
  0
LINE
  8
0
 10
277.488
 20
55.812
 11
277.473
 21
55.7189
  0
LINE
  8
0
 10
277.473
 20
55.7189
 11
277.453
 21
55.627
  0
LINE
  8
0
 10
277.453
 20
55.627
 11
277.427
 21
55.5365
  0
LINE
  8
0
 10
277.427
 20
55.5365
 11
277.395
 21
55.4478
  0
LINE
  8
0
 10
277.395
 20
55.4478
 11
277.357
 21
55.3613
  0
LINE
  8
0
 10
277.357
 20
55.3613
 11
277.314
 21
55.2774
  0
LINE
  8
0
 10
277.314
 20
55.2774
 11
277.266
 21
55.1963
  0
LINE
  8
0
 10
277.266
 20
55.1963
 11
277.214
 21
55.1183
  0
LINE
  8
0
 10
277.214
 20
55.1183
 11
277.156
 21
55.0439
  0
LINE
  8
0
 10
277.156
 20
55.0439
 11
277.093
 21
54.9732
  0
LINE
  8
0
 10
277.093
 20
54.9732
 11
277.027
 21
54.9065
  0
LINE
  8
0
 10
277.027
 20
54.9065
 11
276.956
 21
54.8442
  0
LINE
  8
0
 10
276.956
 20
54.8442
 11
276.882
 21
54.7865
  0
LINE
  8
0
 10
276.882
 20
54.7865
 11
276.804
 21
54.7335
  0
LINE
  8
0
 10
276.804
 20
54.7335
 11
276.723
 21
54.6855
  0
LINE
  8
0
 10
276.723
 20
54.6855
 11
276.639
 21
54.6427
  0
LINE
  8
0
 10
276.639
 20
54.6427
 11
276.552
 21
54.6053
  0
LINE
  8
0
 10
276.552
 20
54.6053
 11
276.464
 21
54.5734
  0
LINE
  8
0
 10
276.464
 20
54.5734
 11
276.373
 21
54.5471
  0
LINE
  8
0
 10
276.373
 20
54.5471
 11
276.281
 21
54.5266
  0
LINE
  8
0
 10
276.281
 20
54.5266
 11
276.188
 21
54.5118
  0
LINE
  8
0
 10
276.188
 20
54.5118
 11
276.094
 21
54.5029
  0
LINE
  8
0
 10
276.094
 20
54.5029
 11
276
 21
54.5
  0
LINE
  8
0
 10
276
 20
54.5
 11
275.906
 21
54.5029
  0
LINE
  8
0
 10
275.906
 20
15.5029
 11
275.812
 21
15.5118
  0
LINE
  8
0
 10
275.812
 20
15.5118
 11
275.719
 21
15.5266
  0
LINE
  8
0
 10
275.719
 20
15.5266
 11
275.627
 21
15.5471
  0
LINE
  8
0
 10
275.627
 20
15.5471
 11
275.536
 21
15.5734
  0
LINE
  8
0
 10
275.536
 20
15.5734
 11
275.448
 21
15.6053
  0
LINE
  8
0
 10
275.448
 20
15.6053
 11
275.361
 21
15.6427
  0
LINE
  8
0
 10
275.361
 20
15.6427
 11
275.277
 21
15.6855
  0
LINE
  8
0
 10
275.277
 20
15.6855
 11
275.196
 21
15.7335
  0
LINE
  8
0
 10
275.196
 20
15.7335
 11
275.118
 21
15.7865
  0
LINE
  8
0
 10
275.118
 20
15.7865
 11
275.044
 21
15.8442
  0
LINE
  8
0
 10
275.044
 20
15.8442
 11
274.973
 21
15.9065
  0
LINE
  8
0
 10
274.973
 20
15.9065
 11
274.907
 21
15.9732
  0
LINE
  8
0
 10
274.907
 20
15.9732
 11
274.844
 21
16.0439
  0
LINE
  8
0
 10
274.844
 20
16.0439
 11
274.786
 21
16.1183
  0
LINE
  8
0
 10
274.786
 20
16.1183
 11
274.734
 21
16.1963
  0
LINE
  8
0
 10
274.734
 20
16.1963
 11
274.686
 21
16.2774
  0
LINE
  8
0
 10
274.686
 20
16.2774
 11
274.643
 21
16.3613
  0
LINE
  8
0
 10
274.643
 20
16.3613
 11
274.605
 21
16.4478
  0
LINE
  8
0
 10
274.605
 20
16.4478
 11
274.573
 21
16.5365
  0
LINE
  8
0
 10
274.573
 20
16.5365
 11
274.547
 21
16.627
  0
LINE
  8
0
 10
274.547
 20
16.627
 11
274.527
 21
16.7189
  0
LINE
  8
0
 10
274.527
 20
16.7189
 11
274.512
 21
16.812
  0
LINE
  8
0
 10
274.512
 20
16.812
 11
274.503
 21
16.9058
  0
LINE
  8
0
 10
274.503
 20
16.9058
 11
274.5
 21
17
  0
LINE
  8
0
 10
274.5
 20
17
 11
274.503
 21
17.0942
  0
LINE
  8
0
 10
274.503
 20
17.0942
 11
274.512
 21
17.188
  0
LINE
  8
0
 10
274.512
 20
17.188
 11
274.527
 21
17.2811
  0
LINE
  8
0
 10
274.527
 20
17.2811
 11
274.547
 21
17.373
  0
LINE
  8
0
 10
274.547
 20
17.373
 11
274.573
 21
17.4635
  0
LINE
  8
0
 10
274.573
 20
17.4635
 11
274.605
 21
17.5522
  0
LINE
  8
0
 10
274.605
 20
17.5522
 11
274.643
 21
17.6387
  0
LINE
  8
0
 10
274.643
 20
17.6387
 11
274.686
 21
17.7226
  0
LINE
  8
0
 10
274.686
 20
17.7226
 11
274.734
 21
17.8037
  0
LINE
  8
0
 10
274.734
 20
17.8037
 11
274.786
 21
17.8817
  0
LINE
  8
0
 10
274.786
 20
17.8817
 11
274.844
 21
17.9561
  0
LINE
  8
0
 10
274.844
 20
17.9561
 11
274.907
 21
18.0268
  0
LINE
  8
0
 10
274.907
 20
18.0268
 11
274.973
 21
18.0934
  0
LINE
  8
0
 10
274.973
 20
18.0934
 11
275.044
 21
18.1558
  0
LINE
  8
0
 10
275.044
 20
18.1558
 11
275.118
 21
18.2135
  0
LINE
  8
0
 10
275.118
 20
18.2135
 11
275.196
 21
18.2665
  0
LINE
  8
0
 10
275.196
 20
18.2665
 11
275.277
 21
18.3145
  0
LINE
  8
0
 10
275.277
 20
18.3145
 11
275.361
 21
18.3572
  0
LINE
  8
0
 10
275.361
 20
18.3572
 11
275.448
 21
18.3947
  0
LINE
  8
0
 10
275.448
 20
18.3947
 11
275.536
 21
18.4266
  0
LINE
  8
0
 10
275.536
 20
18.4266
 11
275.627
 21
18.4529
  0
LINE
  8
0
 10
275.627
 20
18.4529
 11
275.719
 21
18.4734
  0
LINE
  8
0
 10
275.719
 20
18.4734
 11
275.812
 21
18.4882
  0
LINE
  8
0
 10
275.812
 20
18.4882
 11
275.906
 21
18.497
  0
LINE
  8
0
 10
275.906
 20
18.497
 11
276
 21
18.5
  0
LINE
  8
0
 10
276
 20
18.5
 11
276.094
 21
18.497
  0
LINE
  8
0
 10
276.094
 20
18.497
 11
276.188
 21
18.4882
  0
LINE
  8
0
 10
276.188
 20
18.4882
 11
276.281
 21
18.4734
  0
LINE
  8
0
 10
276.281
 20
18.4734
 11
276.373
 21
18.4529
  0
LINE
  8
0
 10
276.373
 20
18.4529
 11
276.464
 21
18.4266
  0
LINE
  8
0
 10
276.464
 20
18.4266
 11
276.552
 21
18.3947
  0
LINE
  8
0
 10
276.552
 20
18.3947
 11
276.639
 21
18.3572
  0
LINE
  8
0
 10
276.639
 20
18.3572
 11
276.723
 21
18.3145
  0
LINE
  8
0
 10
276.723
 20
18.3145
 11
276.804
 21
18.2665
  0
LINE
  8
0
 10
276.804
 20
18.2665
 11
276.882
 21
18.2135
  0
LINE
  8
0
 10
276.882
 20
18.2135
 11
276.956
 21
18.1558
  0
LINE
  8
0
 10
276.956
 20
18.1558
 11
277.027
 21
18.0934
  0
LINE
  8
0
 10
277.027
 20
18.0934
 11
277.093
 21
18.0268
  0
LINE
  8
0
 10
277.093
 20
18.0268
 11
277.156
 21
17.9561
  0
LINE
  8
0
 10
277.156
 20
17.9561
 11
277.214
 21
17.8817
  0
LINE
  8
0
 10
277.214
 20
17.8817
 11
277.266
 21
17.8037
  0
LINE
  8
0
 10
277.266
 20
17.8037
 11
277.314
 21
17.7226
  0
LINE
  8
0
 10
277.314
 20
17.7226
 11
277.357
 21
17.6387
  0
LINE
  8
0
 10
277.357
 20
17.6387
 11
277.395
 21
17.5522
  0
LINE
  8
0
 10
277.395
 20
17.5522
 11
277.427
 21
17.4635
  0
LINE
  8
0
 10
277.427
 20
17.4635
 11
277.453
 21
17.373
  0
LINE
  8
0
 10
277.453
 20
17.373
 11
277.473
 21
17.2811
  0
LINE
  8
0
 10
277.473
 20
17.2811
 11
277.488
 21
17.188
  0
LINE
  8
0
 10
277.488
 20
17.188
 11
277.497
 21
17.0942
  0
LINE
  8
0
 10
277.497
 20
17.0942
 11
277.5
 21
17
  0
LINE
  8
0
 10
277.5
 20
17
 11
277.497
 21
16.9058
  0
LINE
  8
0
 10
277.497
 20
16.9058
 11
277.488
 21
16.812
  0
LINE
  8
0
 10
277.488
 20
16.812
 11
277.473
 21
16.7189
  0
LINE
  8
0
 10
277.473
 20
16.7189
 11
277.453
 21
16.627
  0
LINE
  8
0
 10
277.453
 20
16.627
 11
277.427
 21
16.5365
  0
LINE
  8
0
 10
277.427
 20
16.5365
 11
277.395
 21
16.4478
  0
LINE
  8
0
 10
277.395
 20
16.4478
 11
277.357
 21
16.3613
  0
LINE
  8
0
 10
277.357
 20
16.3613
 11
277.314
 21
16.2774
  0
LINE
  8
0
 10
277.314
 20
16.2774
 11
277.266
 21
16.1963
  0
LINE
  8
0
 10
277.266
 20
16.1963
 11
277.214
 21
16.1183
  0
LINE
  8
0
 10
277.214
 20
16.1183
 11
277.156
 21
16.0439
  0
LINE
  8
0
 10
277.156
 20
16.0439
 11
277.093
 21
15.9732
  0
LINE
  8
0
 10
277.093
 20
15.9732
 11
277.027
 21
15.9065
  0
LINE
  8
0
 10
277.027
 20
15.9065
 11
276.956
 21
15.8442
  0
LINE
  8
0
 10
276.956
 20
15.8442
 11
276.882
 21
15.7865
  0
LINE
  8
0
 10
276.882
 20
15.7865
 11
276.804
 21
15.7335
  0
LINE
  8
0
 10
276.804
 20
15.7335
 11
276.723
 21
15.6855
  0
LINE
  8
0
 10
276.723
 20
15.6855
 11
276.639
 21
15.6427
  0
LINE
  8
0
 10
276.639
 20
15.6427
 11
276.552
 21
15.6053
  0
LINE
  8
0
 10
276.552
 20
15.6053
 11
276.464
 21
15.5734
  0
LINE
  8
0
 10
276.464
 20
15.5734
 11
276.373
 21
15.5471
  0
LINE
  8
0
 10
276.373
 20
15.5471
 11
276.281
 21
15.5266
  0
LINE
  8
0
 10
276.281
 20
15.5266
 11
276.188
 21
15.5118
  0
LINE
  8
0
 10
276.188
 20
15.5118
 11
276.094
 21
15.5029
  0
LINE
  8
0
 10
276.094
 20
15.5029
 11
276
 21
15.5
  0
LINE
  8
0
 10
276
 20
15.5
 11
275.906
 21
15.5029
  0
LINE
  8
0
 10
206
 20
11
 11
206
 21
15
  0
LINE
  8
0
 10
206
 20
15
 11
211.5
 21
15
  0
LINE
  8
0
 10
211.5
 20
15
 11
211.5
 21
11
  0
LINE
  8
0
 10
211.5
 20
11
 11
206
 21
11
  0
LINE
  8
0
 10
305.5
 20
2
 11
305.503
 21
2.09418
  0
LINE
  8
0
 10
305.503
 20
2.09418
 11
305.512
 21
2.18799
  0
LINE
  8
0
 10
305.512
 20
2.18799
 11
305.527
 21
2.28107
  0
LINE
  8
0
 10
305.527
 20
2.28107
 11
305.547
 21
2.37303
  0
LINE
  8
0
 10
305.547
 20
2.37303
 11
305.573
 21
2.46352
  0
LINE
  8
0
 10
305.573
 20
2.46352
 11
305.605
 21
2.55219
  0
LINE
  8
0
 10
305.605
 20
2.55219
 11
305.643
 21
2.63866
  0
LINE
  8
0
 10
305.643
 20
2.63866
 11
305.686
 21
2.72263
  0
LINE
  8
0
 10
305.686
 20
2.72263
 11
305.734
 21
2.80373
  0
LINE
  8
0
 10
305.734
 20
2.80373
 11
305.786
 21
2.88167
  0
LINE
  8
0
 10
305.786
 20
2.88167
 11
305.844
 21
2.95613
  0
LINE
  8
0
 10
305.844
 20
2.95613
 11
305.907
 21
3.02681
  0
LINE
  8
0
 10
305.907
 20
3.02681
 11
305.973
 21
3.09344
  0
LINE
  8
0
 10
305.973
 20
3.09344
 11
306.044
 21
3.15576
  0
LINE
  8
0
 10
306.044
 20
3.15576
 11
306.118
 21
3.21352
  0
LINE
  8
0
 10
306.118
 20
3.21352
 11
306.196
 21
3.26648
  0
LINE
  8
0
 10
306.196
 20
3.26648
 11
306.277
 21
3.31445
  0
LINE
  8
0
 10
306.277
 20
3.31445
 11
306.361
 21
3.35724
  0
LINE
  8
0
 10
306.361
 20
3.35724
 11
306.448
 21
3.39465
  0
LINE
  8
0
 10
306.448
 20
3.39465
 11
306.536
 21
3.42657
  0
LINE
  8
0
 10
306.536
 20
3.42657
 11
306.627
 21
3.45287
  0
LINE
  8
0
 10
306.627
 20
3.45287
 11
306.719
 21
3.47342
  0
LINE
  8
0
 10
306.719
 20
3.47342
 11
306.812
 21
3.48816
  0
LINE
  8
0
 10
306.812
 20
3.48816
 11
306.906
 21
3.49704
  0
LINE
  8
0
 10
306.906
 20
3.49704
 11
307
 21
3.5
  0
LINE
  8
0
 10
307
 20
3.5
 11
307.094
 21
3.49704
  0
LINE
  8
0
 10
307.094
 20
3.49704
 11
307.188
 21
3.48816
  0
LINE
  8
0
 10
307.188
 20
3.48816
 11
307.281
 21
3.47342
  0
LINE
  8
0
 10
307.281
 20
3.47342
 11
307.373
 21
3.45287
  0
LINE
  8
0
 10
307.373
 20
3.45287
 11
307.464
 21
3.42657
  0
LINE
  8
0
 10
307.464
 20
3.42657
 11
307.552
 21
3.39465
  0
LINE
  8
0
 10
307.552
 20
3.39465
 11
307.639
 21
3.35724
  0
LINE
  8
0
 10
307.639
 20
3.35724
 11
307.723
 21
3.31445
  0
LINE
  8
0
 10
307.723
 20
3.31445
 11
307.804
 21
3.26648
  0
LINE
  8
0
 10
307.804
 20
3.26648
 11
307.882
 21
3.21352
  0
LINE
  8
0
 10
307.882
 20
3.21352
 11
307.956
 21
3.15576
  0
LINE
  8
0
 10
307.956
 20
3.15576
 11
308.027
 21
3.09344
  0
LINE
  8
0
 10
308.027
 20
3.09344
 11
308.093
 21
3.02681
  0
LINE
  8
0
 10
308.093
 20
3.02681
 11
308.156
 21
2.95613
  0
LINE
  8
0
 10
308.156
 20
2.95613
 11
308.214
 21
2.88167
  0
LINE
  8
0
 10
308.214
 20
2.88167
 11
308.266
 21
2.80373
  0
LINE
  8
0
 10
308.266
 20
2.80373
 11
308.314
 21
2.72263
  0
LINE
  8
0
 10
308.314
 20
2.72263
 11
308.357
 21
2.63866
  0
LINE
  8
0
 10
308.357
 20
2.63866
 11
308.395
 21
2.55219
  0
LINE
  8
0
 10
308.395
 20
2.55219
 11
308.427
 21
2.46352
  0
LINE
  8
0
 10
308.427
 20
2.46352
 11
308.453
 21
2.37303
  0
LINE
  8
0
 10
308.453
 20
2.37303
 11
308.473
 21
2.28107
  0
LINE
  8
0
 10
308.473
 20
2.28107
 11
308.488
 21
2.18799
  0
LINE
  8
0
 10
308.488
 20
2.18799
 11
308.497
 21
2.09418
  0
LINE
  8
0
 10
308.497
 20
2.09418
 11
308.5
 21
1.99998
  0
LINE
  8
0
 10
308.5
 20
1.99998
 11
308.5
 21
0
  0
LINE
  8
0
 10
308.5
 20
0
 11
315.5
 21
0
  0
LINE
  8
0
 10
315.5
 20
0
 11
315.5
 21
3
  0
LINE
  8
0
 10
315.5
 20
3
 11
327.5
 21
3
  0
LINE
  8
0
 10
327.5
 20
3
 11
327.5
 21
0
  0
LINE
  8
0
 10
327.5
 20
0
 11
350.5
 21
0
  0
LINE
  8
0
 10
350.5
 20
0
 11
350.5
 21
3
  0
LINE
  8
0
 10
350.5
 20
3
 11
362.5
 21
3
  0
LINE
  8
0
 10
362.5
 20
3
 11
362.5
 21
0
  0
LINE
  8
0
 10
362.5
 20
0
 11
385.5
 21
0
  0
LINE
  8
0
 10
385.5
 20
0
 11
385.5
 21
3
  0
LINE
  8
0
 10
385.5
 20
3
 11
397.5
 21
3
  0
LINE
  8
0
 10
397.5
 20
3
 11
397.5
 21
0
  0
LINE
  8
0
 10
397.5
 20
0
 11
404.5
 21
0
  0
LINE
  8
0
 10
404.5
 20
0
 11
404.5
 21
2
  0
LINE
  8
0
 10
404.5
 20
2
 11
404.503
 21
2.09418
  0
LINE
  8
0
 10
404.503
 20
2.09418
 11
404.512
 21
2.18799
  0
LINE
  8
0
 10
404.512
 20
2.18799
 11
404.527
 21
2.28107
  0
LINE
  8
0
 10
404.527
 20
2.28107
 11
404.547
 21
2.37303
  0
LINE
  8
0
 10
404.547
 20
2.37303
 11
404.573
 21
2.46352
  0
LINE
  8
0
 10
404.573
 20
2.46352
 11
404.605
 21
2.55219
  0
LINE
  8
0
 10
404.605
 20
2.55219
 11
404.643
 21
2.63866
  0
LINE
  8
0
 10
404.643
 20
2.63866
 11
404.686
 21
2.72263
  0
LINE
  8
0
 10
404.686
 20
2.72263
 11
404.734
 21
2.80373
  0
LINE
  8
0
 10
404.734
 20
2.80373
 11
404.786
 21
2.88167
  0
LINE
  8
0
 10
404.786
 20
2.88167
 11
404.844
 21
2.95613
  0
LINE
  8
0
 10
404.844
 20
2.95613
 11
404.907
 21
3.02681
  0
LINE
  8
0
 10
404.907
 20
3.02681
 11
404.973
 21
3.09344
  0
LINE
  8
0
 10
404.973
 20
3.09344
 11
405.044
 21
3.15576
  0
LINE
  8
0
 10
405.044
 20
3.15576
 11
405.118
 21
3.21352
  0
LINE
  8
0
 10
405.118
 20
3.21352
 11
405.196
 21
3.26648
  0
LINE
  8
0
 10
405.196
 20
3.26648
 11
405.277
 21
3.31445
  0
LINE
  8
0
 10
405.277
 20
3.31445
 11
405.361
 21
3.35724
  0
LINE
  8
0
 10
405.361
 20
3.35724
 11
405.448
 21
3.39465
  0
LINE
  8
0
 10
405.448
 20
3.39465
 11
405.536
 21
3.42657
  0
LINE
  8
0
 10
405.536
 20
3.42657
 11
405.627
 21
3.45287
  0
LINE
  8
0
 10
405.627
 20
3.45287
 11
405.719
 21
3.47342
  0
LINE
  8
0
 10
405.719
 20
3.47342
 11
405.812
 21
3.48816
  0
LINE
  8
0
 10
405.812
 20
3.48816
 11
405.906
 21
3.49704
  0
LINE
  8
0
 10
405.906
 20
3.49704
 11
406
 21
3.5
  0
LINE
  8
0
 10
406
 20
3.5
 11
406.094
 21
3.49704
  0
LINE
  8
0
 10
406.094
 20
3.49704
 11
406.188
 21
3.48816
  0
LINE
  8
0
 10
406.188
 20
3.48816
 11
406.281
 21
3.47342
  0
LINE
  8
0
 10
406.281
 20
3.47342
 11
406.373
 21
3.45287
  0
LINE
  8
0
 10
406.373
 20
3.45287
 11
406.464
 21
3.42657
  0
LINE
  8
0
 10
406.464
 20
3.42657
 11
406.552
 21
3.39465
  0
LINE
  8
0
 10
406.552
 20
3.39465
 11
406.639
 21
3.35724
  0
LINE
  8
0
 10
406.639
 20
3.35724
 11
406.723
 21
3.31445
  0
LINE
  8
0
 10
406.723
 20
3.31445
 11
406.804
 21
3.26648
  0
LINE
  8
0
 10
406.804
 20
3.26648
 11
406.882
 21
3.21352
  0
LINE
  8
0
 10
406.882
 20
3.21352
 11
406.956
 21
3.15576
  0
LINE
  8
0
 10
406.956
 20
3.15576
 11
407.027
 21
3.09344
  0
LINE
  8
0
 10
407.027
 20
3.09344
 11
407.093
 21
3.02681
  0
LINE
  8
0
 10
407.093
 20
3.02681
 11
407.156
 21
2.95613
  0
LINE
  8
0
 10
407.156
 20
2.95613
 11
407.214
 21
2.88167
  0
LINE
  8
0
 10
407.214
 20
2.88167
 11
407.266
 21
2.80373
  0
LINE
  8
0
 10
407.266
 20
2.80373
 11
407.314
 21
2.72263
  0
LINE
  8
0
 10
407.314
 20
2.72263
 11
407.357
 21
2.63866
  0
LINE
  8
0
 10
407.357
 20
2.63866
 11
407.395
 21
2.55219
  0
LINE
  8
0
 10
407.395
 20
2.55219
 11
407.427
 21
2.46352
  0
LINE
  8
0
 10
407.427
 20
2.46352
 11
407.453
 21
2.37303
  0
LINE
  8
0
 10
407.453
 20
2.37303
 11
407.473
 21
2.28107
  0
LINE
  8
0
 10
407.473
 20
2.28107
 11
407.488
 21
2.18799
  0
LINE
  8
0
 10
407.488
 20
2.18799
 11
407.497
 21
2.09418
  0
LINE
  8
0
 10
407.497
 20
2.09418
 11
407.5
 21
1.99998
  0
LINE
  8
0
 10
407.5
 20
1.99998
 11
407.5
 21
0
  0
LINE
  8
0
 10
407.5
 20
0
 11
412
 21
0
  0
LINE
  8
0
 10
412
 20
0
 11
412
 21
13.75
  0
LINE
  8
0
 10
412
 20
13.75
 11
409
 21
13.75
  0
LINE
  8
0
 10
409
 20
13.75
 11
409
 21
25.75
  0
LINE
  8
0
 10
409
 20
25.75
 11
412
 21
25.75
  0
LINE
  8
0
 10
412
 20
25.75
 11
412
 21
47.25
  0
LINE
  8
0
 10
412
 20
47.25
 11
409
 21
47.25
  0
LINE
  8
0
 10
409
 20
47.25
 11
409
 21
59.25
  0
LINE
  8
0
 10
409
 20
59.25
 11
412
 21
59.25
  0
LINE
  8
0
 10
412
 20
59.25
 11
412
 21
73
  0
LINE
  8
0
 10
412
 20
73
 11
407.5
 21
73
  0
LINE
  8
0
 10
407.5
 20
73
 11
407.5
 21
71
  0
LINE
  8
0
 10
407.5
 20
71
 11
407.497
 21
70.9058
  0
LINE
  8
0
 10
407.497
 20
70.9058
 11
407.488
 21
70.812
  0
LINE
  8
0
 10
407.488
 20
70.812
 11
407.473
 21
70.7189
  0
LINE
  8
0
 10
407.473
 20
70.7189
 11
407.453
 21
70.627
  0
LINE
  8
0
 10
407.453
 20
70.627
 11
407.427
 21
70.5365
  0
LINE
  8
0
 10
407.427
 20
70.5365
 11
407.395
 21
70.4478
  0
LINE
  8
0
 10
407.395
 20
70.4478
 11
407.357
 21
70.3613
  0
LINE
  8
0
 10
407.357
 20
70.3613
 11
407.314
 21
70.2774
  0
LINE
  8
0
 10
407.314
 20
70.2774
 11
407.266
 21
70.1963
  0
LINE
  8
0
 10
407.266
 20
70.1963
 11
407.214
 21
70.1183
  0
LINE
  8
0
 10
407.214
 20
70.1183
 11
407.156
 21
70.0439
  0
LINE
  8
0
 10
407.156
 20
70.0439
 11
407.093
 21
69.9732
  0
LINE
  8
0
 10
407.093
 20
69.9732
 11
407.027
 21
69.9065
  0
LINE
  8
0
 10
407.027
 20
69.9065
 11
406.956
 21
69.8442
  0
LINE
  8
0
 10
406.956
 20
69.8442
 11
406.882
 21
69.7865
  0
LINE
  8
0
 10
406.882
 20
69.7865
 11
406.804
 21
69.7335
  0
LINE
  8
0
 10
406.804
 20
69.7335
 11
406.723
 21
69.6855
  0
LINE
  8
0
 10
406.723
 20
69.6855
 11
406.639
 21
69.6427
  0
LINE
  8
0
 10
406.639
 20
69.6427
 11
406.552
 21
69.6053
  0
LINE
  8
0
 10
406.552
 20
69.6053
 11
406.464
 21
69.5734
  0
LINE
  8
0
 10
406.464
 20
69.5734
 11
406.373
 21
69.5471
  0
LINE
  8
0
 10
406.373
 20
69.5471
 11
406.281
 21
69.5266
  0
LINE
  8
0
 10
406.281
 20
69.5266
 11
406.188
 21
69.5118
  0
LINE
  8
0
 10
406.188
 20
69.5118
 11
406.094
 21
69.5029
  0
LINE
  8
0
 10
406.094
 20
69.5029
 11
406
 21
69.5
  0
LINE
  8
0
 10
406
 20
69.5
 11
405.906
 21
69.5029
  0
LINE
  8
0
 10
405.906
 20
69.5029
 11
405.812
 21
69.5118
  0
LINE
  8
0
 10
405.812
 20
69.5118
 11
405.719
 21
69.5266
  0
LINE
  8
0
 10
405.719
 20
69.5266
 11
405.627
 21
69.5471
  0
LINE
  8
0
 10
405.627
 20
69.5471
 11
405.536
 21
69.5734
  0
LINE
  8
0
 10
405.536
 20
69.5734
 11
405.448
 21
69.6053
  0
LINE
  8
0
 10
405.448
 20
69.6053
 11
405.361
 21
69.6427
  0
LINE
  8
0
 10
405.361
 20
69.6427
 11
405.277
 21
69.6855
  0
LINE
  8
0
 10
405.277
 20
69.6855
 11
405.196
 21
69.7335
  0
LINE
  8
0
 10
405.196
 20
69.7335
 11
405.118
 21
69.7865
  0
LINE
  8
0
 10
405.118
 20
69.7865
 11
405.044
 21
69.8442
  0
LINE
  8
0
 10
405.044
 20
69.8442
 11
404.973
 21
69.9065
  0
LINE
  8
0
 10
404.973
 20
69.9065
 11
404.907
 21
69.9732
  0
LINE
  8
0
 10
404.907
 20
69.9732
 11
404.844
 21
70.0439
  0
LINE
  8
0
 10
404.844
 20
70.0439
 11
404.786
 21
70.1183
  0
LINE
  8
0
 10
404.786
 20
70.1183
 11
404.734
 21
70.1963
  0
LINE
  8
0
 10
404.734
 20
70.1963
 11
404.686
 21
70.2774
  0
LINE
  8
0
 10
404.686
 20
70.2774
 11
404.643
 21
70.3613
  0
LINE
  8
0
 10
404.643
 20
70.3613
 11
404.605
 21
70.4478
  0
LINE
  8
0
 10
404.605
 20
70.4478
 11
404.573
 21
70.5365
  0
LINE
  8
0
 10
404.573
 20
70.5365
 11
404.547
 21
70.627
  0
LINE
  8
0
 10
404.547
 20
70.627
 11
404.527
 21
70.7189
  0
LINE
  8
0
 10
404.527
 20
70.7189
 11
404.512
 21
70.812
  0
LINE
  8
0
 10
404.512
 20
70.812
 11
404.503
 21
70.9058
  0
LINE
  8
0
 10
404.503
 20
70.9058
 11
404.5
 21
71
  0
LINE
  8
0
 10
404.5
 20
71
 11
404.5
 21
73
  0
LINE
  8
0
 10
404.5
 20
73
 11
397.5
 21
73
  0
LINE
  8
0
 10
397.5
 20
73
 11
397.5
 21
70
  0
LINE
  8
0
 10
397.5
 20
70
 11
385.5
 21
70
  0
LINE
  8
0
 10
385.5
 20
70
 11
385.5
 21
73
  0
LINE
  8
0
 10
385.5
 20
73
 11
362.5
 21
73
  0
LINE
  8
0
 10
362.5
 20
73
 11
362.5
 21
70
  0
LINE
  8
0
 10
362.5
 20
70
 11
350.5
 21
70
  0
LINE
  8
0
 10
350.5
 20
70
 11
350.5
 21
73
  0
LINE
  8
0
 10
350.5
 20
73
 11
327.5
 21
73
  0
LINE
  8
0
 10
327.5
 20
73
 11
327.5
 21
70
  0
LINE
  8
0
 10
327.5
 20
70
 11
315.5
 21
70
  0
LINE
  8
0
 10
315.5
 20
70
 11
315.5
 21
73
  0
LINE
  8
0
 10
315.5
 20
73
 11
308.5
 21
73
  0
LINE
  8
0
 10
308.5
 20
73
 11
308.5
 21
71
  0
LINE
  8
0
 10
308.5
 20
71
 11
308.497
 21
70.9058
  0
LINE
  8
0
 10
308.497
 20
70.9058
 11
308.488
 21
70.812
  0
LINE
  8
0
 10
308.488
 20
70.812
 11
308.473
 21
70.7189
  0
LINE
  8
0
 10
308.473
 20
70.7189
 11
308.453
 21
70.627
  0
LINE
  8
0
 10
308.453
 20
70.627
 11
308.427
 21
70.5365
  0
LINE
  8
0
 10
308.427
 20
70.5365
 11
308.395
 21
70.4478
  0
LINE
  8
0
 10
308.395
 20
70.4478
 11
308.357
 21
70.3613
  0
LINE
  8
0
 10
308.357
 20
70.3613
 11
308.314
 21
70.2774
  0
LINE
  8
0
 10
308.314
 20
70.2774
 11
308.266
 21
70.1963
  0
LINE
  8
0
 10
308.266
 20
70.1963
 11
308.214
 21
70.1183
  0
LINE
  8
0
 10
308.214
 20
70.1183
 11
308.156
 21
70.0439
  0
LINE
  8
0
 10
308.156
 20
70.0439
 11
308.093
 21
69.9732
  0
LINE
  8
0
 10
308.093
 20
69.9732
 11
308.027
 21
69.9065
  0
LINE
  8
0
 10
308.027
 20
69.9065
 11
307.956
 21
69.8442
  0
LINE
  8
0
 10
307.956
 20
69.8442
 11
307.882
 21
69.7865
  0
LINE
  8
0
 10
307.882
 20
69.7865
 11
307.804
 21
69.7335
  0
LINE
  8
0
 10
307.804
 20
69.7335
 11
307.723
 21
69.6855
  0
LINE
  8
0
 10
307.723
 20
69.6855
 11
307.639
 21
69.6427
  0
LINE
  8
0
 10
307.639
 20
69.6427
 11
307.552
 21
69.6053
  0
LINE
  8
0
 10
307.552
 20
69.6053
 11
307.464
 21
69.5734
  0
LINE
  8
0
 10
307.464
 20
69.5734
 11
307.373
 21
69.5471
  0
LINE
  8
0
 10
307.373
 20
69.5471
 11
307.281
 21
69.5266
  0
LINE
  8
0
 10
307.281
 20
69.5266
 11
307.188
 21
69.5118
  0
LINE
  8
0
 10
307.188
 20
69.5118
 11
307.094
 21
69.5029
  0
LINE
  8
0
 10
307.094
 20
69.5029
 11
307
 21
69.5
  0
LINE
  8
0
 10
307
 20
69.5
 11
306.906
 21
69.5029
  0
LINE
  8
0
 10
306.906
 20
69.5029
 11
306.812
 21
69.5118
  0
LINE
  8
0
 10
306.812
 20
69.5118
 11
306.719
 21
69.5266
  0
LINE
  8
0
 10
306.719
 20
69.5266
 11
306.627
 21
69.5471
  0
LINE
  8
0
 10
306.627
 20
69.5471
 11
306.536
 21
69.5734
  0
LINE
  8
0
 10
306.536
 20
69.5734
 11
306.448
 21
69.6053
  0
LINE
  8
0
 10
306.448
 20
69.6053
 11
306.361
 21
69.6427
  0
LINE
  8
0
 10
306.361
 20
69.6427
 11
306.277
 21
69.6855
  0
LINE
  8
0
 10
306.277
 20
69.6855
 11
306.196
 21
69.7335
  0
LINE
  8
0
 10
306.196
 20
69.7335
 11
306.118
 21
69.7865
  0
LINE
  8
0
 10
306.118
 20
69.7865
 11
306.044
 21
69.8442
  0
LINE
  8
0
 10
306.044
 20
69.8442
 11
305.973
 21
69.9065
  0
LINE
  8
0
 10
305.973
 20
69.9065
 11
305.907
 21
69.9732
  0
LINE
  8
0
 10
305.907
 20
69.9732
 11
305.844
 21
70.0439
  0
LINE
  8
0
 10
305.844
 20
70.0439
 11
305.786
 21
70.1183
  0
LINE
  8
0
 10
305.786
 20
70.1183
 11
305.734
 21
70.1963
  0
LINE
  8
0
 10
305.734
 20
70.1963
 11
305.686
 21
70.2774
  0
LINE
  8
0
 10
305.686
 20
70.2774
 11
305.643
 21
70.3613
  0
LINE
  8
0
 10
305.643
 20
70.3613
 11
305.605
 21
70.4478
  0
LINE
  8
0
 10
305.605
 20
70.4478
 11
305.573
 21
70.5365
  0
LINE
  8
0
 10
305.573
 20
70.5365
 11
305.547
 21
70.627
  0
LINE
  8
0
 10
305.547
 20
70.627
 11
305.527
 21
70.7189
  0
LINE
  8
0
 10
305.527
 20
70.7189
 11
305.512
 21
70.812
  0
LINE
  8
0
 10
305.512
 20
70.812
 11
305.503
 21
70.9058
  0
LINE
  8
0
 10
305.503
 20
70.9058
 11
305.5
 21
71
  0
LINE
  8
0
 10
305.5
 20
71
 11
305.5
 21
73
  0
LINE
  8
0
 10
305.5
 20
73
 11
301
 21
73
  0
LINE
  8
0
 10
301
 20
73
 11
301
 21
59.25
  0
LINE
  8
0
 10
301
 20
59.25
 11
304
 21
59.25
  0
LINE
  8
0
 10
304
 20
59.25
 11
304
 21
47.25
  0
LINE
  8
0
 10
304
 20
47.25
 11
301
 21
47.25
  0
LINE
  8
0
 10
301
 20
47.25
 11
301
 21
25.75
  0
LINE
  8
0
 10
301
 20
25.75
 11
304
 21
25.75
  0
LINE
  8
0
 10
304
 20
25.75
 11
304
 21
23.5
  0
LINE
  8
0
 10
304
 20
23.5
 11
309
 21
23.5
  0
LINE
  8
0
 10
309
 20
23.5
 11
309.188
 21
23.4941
  0
LINE
  8
0
 10
309.188
 20
23.4941
 11
309.376
 21
23.4763
  0
LINE
  8
0
 10
309.376
 20
23.4763
 11
309.562
 21
23.4469
  0
LINE
  8
0
 10
309.562
 20
23.4469
 11
309.746
 21
23.4057
  0
LINE
  8
0
 10
309.746
 20
23.4057
 11
309.927
 21
23.3532
  0
LINE
  8
0
 10
309.927
 20
23.3532
 11
310.104
 21
23.2893
  0
LINE
  8
0
 10
310.104
 20
23.2893
 11
310.277
 21
23.2145
  0
LINE
  8
0
 10
310.277
 20
23.2145
 11
310.445
 21
23.1289
  0
LINE
  8
0
 10
310.445
 20
23.1289
 11
310.607
 21
23.033
  0
LINE
  8
0
 10
310.607
 20
23.033
 11
310.763
 21
22.927
  0
LINE
  8
0
 10
310.763
 20
22.927
 11
310.912
 21
22.8115
  0
LINE
  8
0
 10
310.912
 20
22.8115
 11
311.054
 21
22.6869
  0
LINE
  8
0
 10
311.054
 20
22.6869
 11
311.187
 21
22.5536
  0
LINE
  8
0
 10
311.187
 20
22.5536
 11
311.312
 21
22.4123
  0
LINE
  8
0
 10
311.312
 20
22.4123
 11
311.427
 21
22.2634
  0
LINE
  8
0
 10
311.427
 20
22.2634
 11
311.533
 21
22.1075
  0
LINE
  8
0
 10
311.533
 20
22.1075
 11
311.629
 21
21.9453
  0
LINE
  8
0
 10
311.629
 20
21.9453
 11
311.714
 21
21.7773
  0
LINE
  8
0
 10
311.714
 20
21.7773
 11
311.789
 21
21.6044
  0
LINE
  8
0
 10
311.789
 20
21.6044
 11
311.853
 21
21.427
  0
LINE
  8
0
 10
311.853
 20
21.427
 11
311.906
 21
21.2461
  0
LINE
  8
0
 10
311.906
 20
21.2461
 11
311.947
 21
21.0621
  0
LINE
  8
0
 10
311.947
 20
21.0621
 11
311.976
 21
20.876
  0
LINE
  8
0
 10
311.976
 20
20.876
 11
311.994
 21
20.6884
  0
LINE
  8
0
 10
311.994
 20
20.6884
 11
312
 21
20.5
  0
LINE
  8
0
 10
312
 20
20.5
 11
311.994
 21
20.3116
  0
LINE
  8
0
 10
311.994
 20
20.3116
 11
311.976
 21
20.124
  0
LINE
  8
0
 10
311.976
 20
20.124
 11
311.947
 21
19.9379
  0
LINE
  8
0
 10
311.947
 20
19.9379
 11
311.906
 21
19.7539
  0
LINE
  8
0
 10
311.906
 20
19.7539
 11
311.853
 21
19.5729
  0
LINE
  8
0
 10
311.853
 20
19.5729
 11
311.789
 21
19.3956
  0
LINE
  8
0
 10
311.789
 20
19.3956
 11
311.714
 21
19.2227
  0
LINE
  8
0
 10
311.714
 20
19.2227
 11
311.629
 21
19.0547
  0
LINE
  8
0
 10
311.629
 20
19.0547
 11
311.533
 21
18.8925
  0
LINE
  8
0
 10
311.533
 20
18.8925
 11
311.427
 21
18.7366
  0
LINE
  8
0
 10
311.427
 20
18.7366
 11
311.312
 21
18.5877
  0
LINE
  8
0
 10
311.312
 20
18.5877
 11
311.187
 21
18.4464
  0
LINE
  8
0
 10
311.187
 20
18.4464
 11
311.054
 21
18.3131
  0
LINE
  8
0
 10
311.054
 20
18.3131
 11
310.912
 21
18.1884
  0
LINE
  8
0
 10
310.912
 20
18.1884
 11
310.763
 21
18.0729
  0
LINE
  8
0
 10
310.763
 20
18.0729
 11
310.607
 21
17.967
  0
LINE
  8
0
 10
310.607
 20
17.967
 11
310.445
 21
17.8711
  0
LINE
  8
0
 10
310.445
 20
17.8711
 11
310.277
 21
17.7855
  0
LINE
  8
0
 10
310.277
 20
17.7855
 11
310.104
 21
17.7107
  0
LINE
  8
0
 10
310.104
 20
17.7107
 11
309.927
 21
17.6468
  0
LINE
  8
0
 10
309.927
 20
17.6468
 11
309.746
 21
17.5942
  0
LINE
  8
0
 10
309.746
 20
17.5942
 11
309.562
 21
17.5531
  0
LINE
  8
0
 10
309.562
 20
17.5531
 11
309.376
 21
17.5237
  0
LINE
  8
0
 10
309.376
 20
17.5237
 11
309.188
 21
17.5059
  0
LINE
  8
0
 10
309.188
 20
17.5059
 11
309
 21
17.5
  0
LINE
  8
0
 10
309
 20
17.5
 11
304
 21
17.5
  0
LINE
  8
0
 10
304
 20
17.5
 11
304
 21
13.75
  0
LINE
  8
0
 10
304
 20
13.75
 11
301
 21
13.75
  0
LINE
  8
0
 10
301
 20
13.75
 11
301
 21
0
  0
LINE
  8
0
 10
301
 20
0
 11
305.5
 21
0
  0
LINE
  8
0
 10
305.5
 20
0
 11
305.5
 21
2
  0
LINE
  8
0
 10
397.374
 20
54.1539
 11
397.249
 21
54.1658
  0
LINE
  8
0
 10
397.249
 20
54.1658
 11
397.125
 21
54.1854
  0
LINE
  8
0
 10
397.125
 20
54.1854
 11
397.003
 21
54.2128
  0
LINE
  8
0
 10
397.003
 20
54.2128
 11
396.882
 21
54.2479
  0
LINE
  8
0
 10
396.882
 20
54.2479
 11
396.764
 21
54.2904
  0
LINE
  8
0
 10
396.764
 20
54.2904
 11
396.648
 21
54.3403
  0
LINE
  8
0
 10
396.648
 20
54.3403
 11
396.536
 21
54.3974
  0
LINE
  8
0
 10
396.536
 20
54.3974
 11
396.428
 21
54.4613
  0
LINE
  8
0
 10
396.428
 20
54.4613
 11
396.324
 21
54.532
  0
LINE
  8
0
 10
396.324
 20
54.532
 11
396.225
 21
54.609
  0
LINE
  8
0
 10
396.225
 20
54.609
 11
396.131
 21
54.6921
  0
LINE
  8
0
 10
396.131
 20
54.6921
 11
396.042
 21
54.7809
  0
LINE
  8
0
 10
396.042
 20
54.7809
 11
395.959
 21
54.8751
  0
LINE
  8
0
 10
395.959
 20
54.8751
 11
395.882
 21
54.9744
  0
LINE
  8
0
 10
395.882
 20
54.9744
 11
395.811
 21
55.0783
  0
LINE
  8
0
 10
395.811
 20
55.0783
 11
395.747
 21
55.1865
  0
LINE
  8
0
 10
395.747
 20
55.1865
 11
395.69
 21
55.2984
  0
LINE
  8
0
 10
395.69
 20
55.2984
 11
395.64
 21
55.4137
  0
LINE
  8
0
 10
395.64
 20
55.4137
 11
395.598
 21
55.532
  0
LINE
  8
0
 10
395.598
 20
55.532
 11
395.563
 21
55.6526
  0
LINE
  8
0
 10
395.563
 20
55.6526
 11
395.535
 21
55.7752
  0
LINE
  8
0
 10
395.535
 20
55.7752
 11
395.516
 21
55.8993
  0
LINE
  8
0
 10
395.516
 20
55.8993
 11
395.504
 21
56.0244
  0
LINE
  8
0
 10
395.504
 20
56.0244
 11
395.5
 21
56.15
  0
LINE
  8
0
 10
395.5
 20
56.15
 11
395.5
 21
60.15
  0
LINE
  8
0
 10
395.5
 20
60.15
 11
395.504
 21
60.2756
  0
LINE
  8
0
 10
395.504
 20
60.2756
 11
395.516
 21
60.4007
  0
LINE
  8
0
 10
395.516
 20
60.4007
 11
395.535
 21
60.5247
  0
LINE
  8
0
 10
395.535
 20
60.5247
 11
395.563
 21
60.6474
  0
LINE
  8
0
 10
395.563
 20
60.6474
 11
395.598
 21
60.768
  0
LINE
  8
0
 10
395.598
 20
60.768
 11
395.64
 21
60.8862
  0
LINE
  8
0
 10
395.64
 20
60.8862
 11
395.69
 21
61.0016
  0
LINE
  8
0
 10
395.69
 20
61.0016
 11
395.747
 21
61.1135
  0
LINE
  8
0
 10
395.747
 20
61.1135
 11
395.811
 21
61.2216
  0
LINE
  8
0
 10
395.811
 20
61.2216
 11
395.882
 21
61.3256
  0
LINE
  8
0
 10
395.882
 20
61.3256
 11
395.959
 21
61.4248
  0
LINE
  8
0
 10
395.959
 20
61.4248
 11
396.042
 21
61.5191
  0
LINE
  8
0
 10
396.042
 20
61.5191
 11
396.131
 21
61.6079
  0
LINE
  8
0
 10
396.131
 20
61.6079
 11
396.225
 21
61.691
  0
LINE
  8
0
 10
396.225
 20
61.691
 11
396.324
 21
61.768
  0
LINE
  8
0
 10
396.324
 20
61.768
 11
396.428
 21
61.8387
  0
LINE
  8
0
 10
396.428
 20
61.8387
 11
396.536
 21
61.9026
  0
LINE
  8
0
 10
396.536
 20
61.9026
 11
396.648
 21
61.9596
  0
LINE
  8
0
 10
396.648
 20
61.9596
 11
396.764
 21
62.0096
  0
LINE
  8
0
 10
396.764
 20
62.0096
 11
396.882
 21
62.0521
  0
LINE
  8
0
 10
396.882
 20
62.0521
 11
397.003
 21
62.0872
  0
LINE
  8
0
 10
397.003
 20
62.0872
 11
397.125
 21
62.1146
  0
LINE
  8
0
 10
397.125
 20
62.1146
 11
397.249
 21
62.1342
  0
LINE
  8
0
 10
397.249
 20
62.1342
 11
397.374
 21
62.146
  0
LINE
  8
0
 10
397.374
 20
62.146
 11
397.5
 21
62.15
  0
LINE
  8
0
 10
397.5
 20
62.15
 11
397.626
 21
62.146
  0
LINE
  8
0
 10
397.626
 20
62.146
 11
397.751
 21
62.1342
  0
LINE
  8
0
 10
397.751
 20
62.1342
 11
397.875
 21
62.1146
  0
LINE
  8
0
 10
397.875
 20
62.1146
 11
397.997
 21
62.0872
  0
LINE
  8
0
 10
397.997
 20
62.0872
 11
398.118
 21
62.0521
  0
LINE
  8
0
 10
398.118
 20
62.0521
 11
398.236
 21
62.0096
  0
LINE
  8
0
 10
398.236
 20
62.0096
 11
398.352
 21
61.9596
  0
LINE
  8
0
 10
398.352
 20
61.9596
 11
398.464
 21
61.9026
  0
LINE
  8
0
 10
398.464
 20
61.9026
 11
398.572
 21
61.8387
  0
LINE
  8
0
 10
398.572
 20
61.8387
 11
398.676
 21
61.768
  0
LINE
  8
0
 10
398.676
 20
61.768
 11
398.775
 21
61.691
  0
LINE
  8
0
 10
398.775
 20
61.691
 11
398.869
 21
61.6079
  0
LINE
  8
0
 10
398.869
 20
61.6079
 11
398.958
 21
61.5191
  0
LINE
  8
0
 10
398.958
 20
61.5191
 11
399.041
 21
61.4248
  0
LINE
  8
0
 10
399.041
 20
61.4248
 11
399.118
 21
61.3256
  0
LINE
  8
0
 10
399.118
 20
61.3256
 11
399.189
 21
61.2216
  0
LINE
  8
0
 10
399.189
 20
61.2216
 11
399.253
 21
61.1135
  0
LINE
  8
0
 10
399.253
 20
61.1135
 11
399.31
 21
61.0016
  0
LINE
  8
0
 10
399.31
 20
61.0016
 11
399.36
 21
60.8862
  0
LINE
  8
0
 10
399.36
 20
60.8862
 11
399.402
 21
60.768
  0
LINE
  8
0
 10
399.402
 20
60.768
 11
399.437
 21
60.6474
  0
LINE
  8
0
 10
399.437
 20
60.6474
 11
399.465
 21
60.5247
  0
LINE
  8
0
 10
399.465
 20
60.5247
 11
399.484
 21
60.4007
  0
LINE
  8
0
 10
399.484
 20
60.4007
 11
399.496
 21
60.2756
  0
LINE
  8
0
 10
399.496
 20
60.2756
 11
399.5
 21
60.15
  0
LINE
  8
0
 10
399.5
 20
60.15
 11
399.5
 21
56.15
  0
LINE
  8
0
 10
399.5
 20
56.15
 11
399.496
 21
56.0244
  0
LINE
  8
0
 10
399.496
 20
56.0244
 11
399.484
 21
55.8993
  0
LINE
  8
0
 10
399.484
 20
55.8993
 11
399.465
 21
55.7752
  0
LINE
  8
0
 10
399.465
 20
55.7752
 11
399.437
 21
55.6526
  0
LINE
  8
0
 10
399.437
 20
55.6526
 11
399.402
 21
55.532
  0
LINE
  8
0
 10
399.402
 20
55.532
 11
399.36
 21
55.4137
  0
LINE
  8
0
 10
399.36
 20
55.4137
 11
399.31
 21
55.2984
  0
LINE
  8
0
 10
399.31
 20
55.2984
 11
399.253
 21
55.1865
  0
LINE
  8
0
 10
399.253
 20
55.1865
 11
399.189
 21
55.0783
  0
LINE
  8
0
 10
399.189
 20
55.0783
 11
399.118
 21
54.9744
  0
LINE
  8
0
 10
399.118
 20
54.9744
 11
399.041
 21
54.8751
  0
LINE
  8
0
 10
399.041
 20
54.8751
 11
398.958
 21
54.7809
  0
LINE
  8
0
 10
398.958
 20
54.7809
 11
398.869
 21
54.6921
  0
LINE
  8
0
 10
398.869
 20
54.6921
 11
398.775
 21
54.609
  0
LINE
  8
0
 10
398.775
 20
54.609
 11
398.676
 21
54.532
  0
LINE
  8
0
 10
398.676
 20
54.532
 11
398.572
 21
54.4613
  0
LINE
  8
0
 10
398.572
 20
54.4613
 11
398.464
 21
54.3974
  0
LINE
  8
0
 10
398.464
 20
54.3974
 11
398.352
 21
54.3403
  0
LINE
  8
0
 10
398.352
 20
54.3403
 11
398.236
 21
54.2904
  0
LINE
  8
0
 10
398.236
 20
54.2904
 11
398.118
 21
54.2479
  0
LINE
  8
0
 10
398.118
 20
54.2479
 11
397.997
 21
54.2128
  0
LINE
  8
0
 10
397.997
 20
54.2128
 11
397.875
 21
54.1854
  0
LINE
  8
0
 10
397.875
 20
54.1854
 11
397.751
 21
54.1658
  0
LINE
  8
0
 10
397.751
 20
54.1658
 11
397.626
 21
54.1539
  0
LINE
  8
0
 10
397.626
 20
54.1539
 11
397.5
 21
54.15
  0
LINE
  8
0
 10
397.5
 20
54.15
 11
397.374
 21
54.1539
  0
LINE
  8
0
 10
388.206
 20
59.153
 11
388.112
 21
59.1618
  0
LINE
  8
0
 10
388.112
 20
59.1618
 11
388.019
 21
59.1766
  0
LINE
  8
0
 10
388.019
 20
59.1766
 11
387.927
 21
59.1971
  0
LINE
  8
0
 10
387.927
 20
59.1971
 11
387.836
 21
59.2234
  0
LINE
  8
0
 10
387.836
 20
59.2234
 11
387.748
 21
59.2553
  0
LINE
  8
0
 10
387.748
 20
59.2553
 11
387.661
 21
59.2928
  0
LINE
  8
0
 10
387.661
 20
59.2928
 11
387.577
 21
59.3355
  0
LINE
  8
0
 10
387.577
 20
59.3355
 11
387.496
 21
59.3835
  0
LINE
  8
0
 10
387.496
 20
59.3835
 11
387.418
 21
59.4365
  0
LINE
  8
0
 10
387.418
 20
59.4365
 11
387.344
 21
59.4942
  0
LINE
  8
0
 10
387.344
 20
59.4942
 11
387.273
 21
59.5565
  0
LINE
  8
0
 10
387.273
 20
59.5565
 11
387.207
 21
59.6232
  0
LINE
  8
0
 10
387.207
 20
59.6232
 11
387.144
 21
59.6939
  0
LINE
  8
0
 10
387.144
 20
59.6939
 11
387.086
 21
59.7683
  0
LINE
  8
0
 10
387.086
 20
59.7683
 11
387.033
 21
59.8463
  0
LINE
  8
0
 10
387.033
 20
59.8463
 11
386.986
 21
59.9274
  0
LINE
  8
0
 10
386.986
 20
59.9274
 11
386.943
 21
60.0113
  0
LINE
  8
0
 10
386.943
 20
60.0113
 11
386.905
 21
60.0978
  0
LINE
  8
0
 10
386.905
 20
60.0978
 11
386.873
 21
60.1865
  0
LINE
  8
0
 10
386.873
 20
60.1865
 11
386.847
 21
60.277
  0
LINE
  8
0
 10
386.847
 20
60.277
 11
386.827
 21
60.3689
  0
LINE
  8
0
 10
386.827
 20
60.3689
 11
386.812
 21
60.462
  0
LINE
  8
0
 10
386.812
 20
60.462
 11
386.803
 21
60.5558
  0
LINE
  8
0
 10
386.803
 20
60.5558
 11
386.8
 21
60.65
  0
LINE
  8
0
 10
386.8
 20
60.65
 11
386.803
 21
60.7442
  0
LINE
  8
0
 10
386.803
 20
60.7442
 11
386.812
 21
60.838
  0
LINE
  8
0
 10
386.812
 20
60.838
 11
386.827
 21
60.9311
  0
LINE
  8
0
 10
386.827
 20
60.9311
 11
386.847
 21
61.023
  0
LINE
  8
0
 10
386.847
 20
61.023
 11
386.873
 21
61.1135
  0
LINE
  8
0
 10
386.873
 20
61.1135
 11
386.905
 21
61.2022
  0
LINE
  8
0
 10
386.905
 20
61.2022
 11
386.943
 21
61.2887
  0
LINE
  8
0
 10
386.943
 20
61.2887
 11
386.986
 21
61.3726
  0
LINE
  8
0
 10
386.986
 20
61.3726
 11
387.033
 21
61.4537
  0
LINE
  8
0
 10
387.033
 20
61.4537
 11
387.086
 21
61.5317
  0
LINE
  8
0
 10
387.086
 20
61.5317
 11
387.144
 21
61.6061
  0
LINE
  8
0
 10
387.144
 20
61.6061
 11
387.207
 21
61.6768
  0
LINE
  8
0
 10
387.207
 20
61.6768
 11
387.273
 21
61.7434
  0
LINE
  8
0
 10
387.273
 20
61.7434
 11
387.344
 21
61.8058
  0
LINE
  8
0
 10
387.344
 20
61.8058
 11
387.418
 21
61.8635
  0
LINE
  8
0
 10
387.418
 20
61.8635
 11
387.496
 21
61.9165
  0
LINE
  8
0
 10
387.496
 20
61.9165
 11
387.577
 21
61.9644
  0
LINE
  8
0
 10
387.577
 20
61.9644
 11
387.661
 21
62.0072
  0
LINE
  8
0
 10
387.661
 20
62.0072
 11
387.748
 21
62.0447
  0
LINE
  8
0
 10
387.748
 20
62.0447
 11
387.836
 21
62.0766
  0
LINE
  8
0
 10
387.836
 20
62.0766
 11
387.927
 21
62.1029
  0
LINE
  8
0
 10
387.927
 20
62.1029
 11
388.019
 21
62.1234
  0
LINE
  8
0
 10
388.019
 20
62.1234
 11
388.112
 21
62.1382
  0
LINE
  8
0
 10
388.112
 20
62.1382
 11
388.206
 21
62.147
  0
LINE
  8
0
 10
388.206
 20
62.147
 11
388.3
 21
62.15
  0
LINE
  8
0
 10
388.3
 20
62.15
 11
388.394
 21
62.147
  0
LINE
  8
0
 10
388.394
 20
62.147
 11
388.488
 21
62.1382
  0
LINE
  8
0
 10
388.488
 20
62.1382
 11
388.581
 21
62.1234
  0
LINE
  8
0
 10
388.581
 20
62.1234
 11
388.673
 21
62.1029
  0
LINE
  8
0
 10
388.673
 20
62.1029
 11
388.764
 21
62.0766
  0
LINE
  8
0
 10
388.764
 20
62.0766
 11
388.852
 21
62.0447
  0
LINE
  8
0
 10
388.852
 20
62.0447
 11
388.939
 21
62.0072
  0
LINE
  8
0
 10
388.939
 20
62.0072
 11
389.023
 21
61.9644
  0
LINE
  8
0
 10
389.023
 20
61.9644
 11
389.104
 21
61.9165
  0
LINE
  8
0
 10
389.104
 20
61.9165
 11
389.182
 21
61.8635
  0
LINE
  8
0
 10
389.182
 20
61.8635
 11
389.256
 21
61.8058
  0
LINE
  8
0
 10
389.256
 20
61.8058
 11
389.327
 21
61.7434
  0
LINE
  8
0
 10
389.327
 20
61.7434
 11
389.393
 21
61.6768
  0
LINE
  8
0
 10
389.393
 20
61.6768
 11
389.456
 21
61.6061
  0
LINE
  8
0
 10
389.456
 20
61.6061
 11
389.514
 21
61.5317
  0
LINE
  8
0
 10
389.514
 20
61.5317
 11
389.566
 21
61.4537
  0
LINE
  8
0
 10
389.566
 20
61.4537
 11
389.614
 21
61.3726
  0
LINE
  8
0
 10
389.614
 20
61.3726
 11
389.657
 21
61.2887
  0
LINE
  8
0
 10
389.657
 20
61.2887
 11
389.695
 21
61.2022
  0
LINE
  8
0
 10
389.695
 20
61.2022
 11
389.727
 21
61.1135
  0
LINE
  8
0
 10
389.727
 20
61.1135
 11
389.753
 21
61.023
  0
LINE
  8
0
 10
389.753
 20
61.023
 11
389.773
 21
60.9311
  0
LINE
  8
0
 10
389.773
 20
60.9311
 11
389.788
 21
60.838
  0
LINE
  8
0
 10
389.788
 20
60.838
 11
389.797
 21
60.7442
  0
LINE
  8
0
 10
389.797
 20
60.7442
 11
389.8
 21
60.65
  0
LINE
  8
0
 10
389.8
 20
60.65
 11
389.797
 21
60.5558
  0
LINE
  8
0
 10
389.797
 20
60.5558
 11
389.788
 21
60.462
  0
LINE
  8
0
 10
389.788
 20
60.462
 11
389.773
 21
60.3689
  0
LINE
  8
0
 10
389.773
 20
60.3689
 11
389.753
 21
60.277
  0
LINE
  8
0
 10
389.753
 20
60.277
 11
389.727
 21
60.1865
  0
LINE
  8
0
 10
389.727
 20
60.1865
 11
389.695
 21
60.0978
  0
LINE
  8
0
 10
389.695
 20
60.0978
 11
389.657
 21
60.0113
  0
LINE
  8
0
 10
389.657
 20
60.0113
 11
389.614
 21
59.9274
  0
LINE
  8
0
 10
389.614
 20
59.9274
 11
389.566
 21
59.8463
  0
LINE
  8
0
 10
389.566
 20
59.8463
 11
389.514
 21
59.7683
  0
LINE
  8
0
 10
389.514
 20
59.7683
 11
389.456
 21
59.6939
  0
LINE
  8
0
 10
389.456
 20
59.6939
 11
389.393
 21
59.6232
  0
LINE
  8
0
 10
389.393
 20
59.6232
 11
389.327
 21
59.5565
  0
LINE
  8
0
 10
389.327
 20
59.5565
 11
389.256
 21
59.4942
  0
LINE
  8
0
 10
389.256
 20
59.4942
 11
389.182
 21
59.4365
  0
LINE
  8
0
 10
389.182
 20
59.4365
 11
389.104
 21
59.3835
  0
LINE
  8
0
 10
389.104
 20
59.3835
 11
389.023
 21
59.3355
  0
LINE
  8
0
 10
389.023
 20
59.3355
 11
388.939
 21
59.2928
  0
LINE
  8
0
 10
388.939
 20
59.2928
 11
388.852
 21
59.2553
  0
LINE
  8
0
 10
388.852
 20
59.2553
 11
388.764
 21
59.2234
  0
LINE
  8
0
 10
388.764
 20
59.2234
 11
388.673
 21
59.1971
  0
LINE
  8
0
 10
388.673
 20
59.1971
 11
388.581
 21
59.1766
  0
LINE
  8
0
 10
388.581
 20
59.1766
 11
388.488
 21
59.1618
  0
LINE
  8
0
 10
388.488
 20
59.1618
 11
388.394
 21
59.153
  0
LINE
  8
0
 10
388.394
 20
59.153
 11
388.3
 21
59.15
  0
LINE
  8
0
 10
388.3
 20
59.15
 11
388.206
 21
59.153
  0
LINE
  8
0
 10
337
 20
59.15
 11
336.906
 21
59.153
  0
LINE
  8
0
 10
336.906
 20
59.153
 11
336.812
 21
59.1618
  0
LINE
  8
0
 10
336.812
 20
59.1618
 11
336.719
 21
59.1766
  0
LINE
  8
0
 10
336.719
 20
59.1766
 11
336.627
 21
59.1971
  0
LINE
  8
0
 10
336.627
 20
59.1971
 11
336.536
 21
59.2234
  0
LINE
  8
0
 10
336.536
 20
59.2234
 11
336.448
 21
59.2553
  0
LINE
  8
0
 10
336.448
 20
59.2553
 11
336.361
 21
59.2928
  0
LINE
  8
0
 10
336.361
 20
59.2928
 11
336.277
 21
59.3355
  0
LINE
  8
0
 10
336.277
 20
59.3355
 11
336.196
 21
59.3835
  0
LINE
  8
0
 10
336.196
 20
59.3835
 11
336.118
 21
59.4365
  0
LINE
  8
0
 10
336.118
 20
59.4365
 11
336.044
 21
59.4942
  0
LINE
  8
0
 10
336.044
 20
59.4942
 11
335.973
 21
59.5565
  0
LINE
  8
0
 10
335.973
 20
59.5565
 11
335.907
 21
59.6232
  0
LINE
  8
0
 10
335.907
 20
59.6232
 11
335.844
 21
59.6939
  0
LINE
  8
0
 10
335.844
 20
59.6939
 11
335.786
 21
59.7683
  0
LINE
  8
0
 10
335.786
 20
59.7683
 11
335.734
 21
59.8463
  0
LINE
  8
0
 10
335.734
 20
59.8463
 11
335.686
 21
59.9274
  0
LINE
  8
0
 10
335.686
 20
59.9274
 11
335.643
 21
60.0113
  0
LINE
  8
0
 10
335.643
 20
60.0113
 11
335.605
 21
60.0978
  0
LINE
  8
0
 10
335.605
 20
60.0978
 11
335.573
 21
60.1865
  0
LINE
  8
0
 10
335.573
 20
60.1865
 11
335.547
 21
60.277
  0
LINE
  8
0
 10
335.547
 20
60.277
 11
335.527
 21
60.3689
  0
LINE
  8
0
 10
335.527
 20
60.3689
 11
335.512
 21
60.462
  0
LINE
  8
0
 10
335.512
 20
60.462
 11
335.503
 21
60.5558
  0
LINE
  8
0
 10
335.503
 20
60.5558
 11
335.5
 21
60.65
  0
LINE
  8
0
 10
335.5
 20
60.65
 11
335.503
 21
60.7442
  0
LINE
  8
0
 10
335.503
 20
60.7442
 11
335.512
 21
60.838
  0
LINE
  8
0
 10
335.512
 20
60.838
 11
335.527
 21
60.9311
  0
LINE
  8
0
 10
335.527
 20
60.9311
 11
335.547
 21
61.023
  0
LINE
  8
0
 10
335.547
 20
61.023
 11
335.573
 21
61.1135
  0
LINE
  8
0
 10
335.573
 20
61.1135
 11
335.605
 21
61.2022
  0
LINE
  8
0
 10
335.605
 20
61.2022
 11
335.643
 21
61.2887
  0
LINE
  8
0
 10
335.643
 20
61.2887
 11
335.686
 21
61.3726
  0
LINE
  8
0
 10
335.686
 20
61.3726
 11
335.734
 21
61.4537
  0
LINE
  8
0
 10
335.734
 20
61.4537
 11
335.786
 21
61.5317
  0
LINE
  8
0
 10
335.786
 20
61.5317
 11
335.844
 21
61.6061
  0
LINE
  8
0
 10
335.844
 20
61.6061
 11
335.907
 21
61.6768
  0
LINE
  8
0
 10
335.907
 20
61.6768
 11
335.973
 21
61.7434
  0
LINE
  8
0
 10
335.973
 20
61.7434
 11
336.044
 21
61.8058
  0
LINE
  8
0
 10
336.044
 20
61.8058
 11
336.118
 21
61.8635
  0
LINE
  8
0
 10
336.118
 20
61.8635
 11
336.196
 21
61.9165
  0
LINE
  8
0
 10
336.196
 20
61.9165
 11
336.277
 21
61.9644
  0
LINE
  8
0
 10
336.277
 20
61.9644
 11
336.361
 21
62.0072
  0
LINE
  8
0
 10
336.361
 20
62.0072
 11
336.448
 21
62.0447
  0
LINE
  8
0
 10
336.448
 20
62.0447
 11
336.536
 21
62.0766
  0
LINE
  8
0
 10
336.536
 20
62.0766
 11
336.627
 21
62.1029
  0
LINE
  8
0
 10
336.627
 20
62.1029
 11
336.719
 21
62.1234
  0
LINE
  8
0
 10
336.719
 20
62.1234
 11
336.812
 21
62.1382
  0
LINE
  8
0
 10
336.812
 20
62.1382
 11
336.906
 21
62.147
  0
LINE
  8
0
 10
336.906
 20
62.147
 11
337
 21
62.15
  0
LINE
  8
0
 10
337
 20
62.15
 11
377
 21
62.15
  0
LINE
  8
0
 10
377
 20
62.15
 11
377.094
 21
62.147
  0
LINE
  8
0
 10
377.094
 20
62.147
 11
377.188
 21
62.1382
  0
LINE
  8
0
 10
377.188
 20
62.1382
 11
377.281
 21
62.1234
  0
LINE
  8
0
 10
377.281
 20
62.1234
 11
377.373
 21
62.1029
  0
LINE
  8
0
 10
377.373
 20
62.1029
 11
377.464
 21
62.0766
  0
LINE
  8
0
 10
377.464
 20
62.0766
 11
377.552
 21
62.0447
  0
LINE
  8
0
 10
377.552
 20
62.0447
 11
377.639
 21
62.0072
  0
LINE
  8
0
 10
377.639
 20
62.0072
 11
377.723
 21
61.9644
  0
LINE
  8
0
 10
377.723
 20
61.9644
 11
377.804
 21
61.9165
  0
LINE
  8
0
 10
377.804
 20
61.9165
 11
377.882
 21
61.8635
  0
LINE
  8
0
 10
377.882
 20
61.8635
 11
377.956
 21
61.8058
  0
LINE
  8
0
 10
377.956
 20
61.8058
 11
378.027
 21
61.7434
  0
LINE
  8
0
 10
378.027
 20
61.7434
 11
378.093
 21
61.6768
  0
LINE
  8
0
 10
378.093
 20
61.6768
 11
378.156
 21
61.6061
  0
LINE
  8
0
 10
378.156
 20
61.6061
 11
378.214
 21
61.5317
  0
LINE
  8
0
 10
378.214
 20
61.5317
 11
378.266
 21
61.4537
  0
LINE
  8
0
 10
378.266
 20
61.4537
 11
378.314
 21
61.3726
  0
LINE
  8
0
 10
378.314
 20
61.3726
 11
378.357
 21
61.2887
  0
LINE
  8
0
 10
378.357
 20
61.2887
 11
378.395
 21
61.2022
  0
LINE
  8
0
 10
378.395
 20
61.2022
 11
378.427
 21
61.1135
  0
LINE
  8
0
 10
378.427
 20
61.1135
 11
378.453
 21
61.023
  0
LINE
  8
0
 10
378.453
 20
61.023
 11
378.473
 21
60.9311
  0
LINE
  8
0
 10
378.473
 20
60.9311
 11
378.488
 21
60.838
  0
LINE
  8
0
 10
378.488
 20
60.838
 11
378.497
 21
60.7442
  0
LINE
  8
0
 10
378.497
 20
60.7442
 11
378.5
 21
60.65
  0
LINE
  8
0
 10
378.5
 20
60.65
 11
378.497
 21
60.5558
  0
LINE
  8
0
 10
378.497
 20
60.5558
 11
378.488
 21
60.462
  0
LINE
  8
0
 10
378.488
 20
60.462
 11
378.473
 21
60.3689
  0
LINE
  8
0
 10
378.473
 20
60.3689
 11
378.453
 21
60.277
  0
LINE
  8
0
 10
378.453
 20
60.277
 11
378.427
 21
60.1865
  0
LINE
  8
0
 10
378.427
 20
60.1865
 11
378.395
 21
60.0978
  0
LINE
  8
0
 10
378.395
 20
60.0978
 11
378.357
 21
60.0113
  0
LINE
  8
0
 10
378.357
 20
60.0113
 11
378.314
 21
59.9274
  0
LINE
  8
0
 10
378.314
 20
59.9274
 11
378.266
 21
59.8463
  0
LINE
  8
0
 10
378.266
 20
59.8463
 11
378.214
 21
59.7683
  0
LINE
  8
0
 10
378.214
 20
59.7683
 11
378.156
 21
59.6939
  0
LINE
  8
0
 10
378.156
 20
59.6939
 11
378.093
 21
59.6232
  0
LINE
  8
0
 10
378.093
 20
59.6232
 11
378.027
 21
59.5565
  0
LINE
  8
0
 10
378.027
 20
59.5565
 11
377.956
 21
59.4942
  0
LINE
  8
0
 10
377.956
 20
59.4942
 11
377.882
 21
59.4365
  0
LINE
  8
0
 10
377.882
 20
59.4365
 11
377.804
 21
59.3835
  0
LINE
  8
0
 10
377.804
 20
59.3835
 11
377.723
 21
59.3355
  0
LINE
  8
0
 10
377.723
 20
59.3355
 11
377.639
 21
59.2928
  0
LINE
  8
0
 10
377.639
 20
59.2928
 11
377.552
 21
59.2553
  0
LINE
  8
0
 10
377.552
 20
59.2553
 11
377.464
 21
59.2234
  0
LINE
  8
0
 10
377.464
 20
59.2234
 11
377.373
 21
59.1971
  0
LINE
  8
0
 10
377.373
 20
59.1971
 11
377.281
 21
59.1766
  0
LINE
  8
0
 10
377.281
 20
59.1766
 11
377.188
 21
59.1618
  0
LINE
  8
0
 10
377.188
 20
59.1618
 11
377.094
 21
59.153
  0
LINE
  8
0
 10
377.094
 20
59.153
 11
377
 21
59.15
  0
LINE
  8
0
 10
377
 20
59.15
 11
337
 21
59.15
  0
LINE
  8
0
 10
336.106
 20
53.953
 11
336.012
 21
53.9618
  0
LINE
  8
0
 10
336.012
 20
53.9618
 11
335.919
 21
53.9766
  0
LINE
  8
0
 10
335.919
 20
53.9766
 11
335.827
 21
53.9971
  0
LINE
  8
0
 10
335.827
 20
53.9971
 11
335.736
 21
54.0234
  0
LINE
  8
0
 10
335.736
 20
54.0234
 11
335.648
 21
54.0553
  0
LINE
  8
0
 10
335.648
 20
54.0553
 11
335.561
 21
54.0928
  0
LINE
  8
0
 10
335.561
 20
54.0928
 11
335.477
 21
54.1355
  0
LINE
  8
0
 10
335.477
 20
54.1355
 11
335.396
 21
54.1835
  0
LINE
  8
0
 10
335.396
 20
54.1835
 11
335.318
 21
54.2365
  0
LINE
  8
0
 10
335.318
 20
54.2365
 11
335.244
 21
54.2942
  0
LINE
  8
0
 10
335.244
 20
54.2942
 11
335.173
 21
54.3565
  0
LINE
  8
0
 10
335.173
 20
54.3565
 11
335.107
 21
54.4232
  0
LINE
  8
0
 10
335.107
 20
54.4232
 11
335.044
 21
54.4939
  0
LINE
  8
0
 10
335.044
 20
54.4939
 11
334.986
 21
54.5683
  0
LINE
  8
0
 10
334.986
 20
54.5683
 11
334.934
 21
54.6463
  0
LINE
  8
0
 10
334.934
 20
54.6463
 11
334.886
 21
54.7274
  0
LINE
  8
0
 10
334.886
 20
54.7274
 11
334.843
 21
54.8113
  0
LINE
  8
0
 10
334.843
 20
54.8113
 11
334.805
 21
54.8978
  0
LINE
  8
0
 10
334.805
 20
54.8978
 11
334.773
 21
54.9865
  0
LINE
  8
0
 10
334.773
 20
54.9865
 11
334.747
 21
55.077
  0
LINE
  8
0
 10
334.747
 20
55.077
 11
334.727
 21
55.1689
  0
LINE
  8
0
 10
334.727
 20
55.1689
 11
334.712
 21
55.262
  0
LINE
  8
0
 10
334.712
 20
55.262
 11
334.703
 21
55.3558
  0
LINE
  8
0
 10
334.703
 20
55.3558
 11
334.7
 21
55.45
  0
LINE
  8
0
 10
334.7
 20
55.45
 11
334.703
 21
55.5442
  0
LINE
  8
0
 10
334.703
 20
55.5442
 11
334.712
 21
55.638
  0
LINE
  8
0
 10
334.712
 20
55.638
 11
334.727
 21
55.7311
  0
LINE
  8
0
 10
334.727
 20
55.7311
 11
334.747
 21
55.823
  0
LINE
  8
0
 10
334.747
 20
55.823
 11
334.773
 21
55.9135
  0
LINE
  8
0
 10
334.773
 20
55.9135
 11
334.805
 21
56.0022
  0
LINE
  8
0
 10
334.805
 20
56.0022
 11
334.843
 21
56.0887
  0
LINE
  8
0
 10
334.843
 20
56.0887
 11
334.886
 21
56.1726
  0
LINE
  8
0
 10
334.886
 20
56.1726
 11
334.934
 21
56.2537
  0
LINE
  8
0
 10
334.934
 20
56.2537
 11
334.986
 21
56.3317
  0
LINE
  8
0
 10
334.986
 20
56.3317
 11
335.044
 21
56.4061
  0
LINE
  8
0
 10
335.044
 20
56.4061
 11
335.107
 21
56.4768
  0
LINE
  8
0
 10
335.107
 20
56.4768
 11
335.173
 21
56.5434
  0
LINE
  8
0
 10
335.173
 20
56.5434
 11
335.244
 21
56.6058
  0
LINE
  8
0
 10
335.244
 20
56.6058
 11
335.318
 21
56.6635
  0
LINE
  8
0
 10
335.318
 20
56.6635
 11
335.396
 21
56.7165
  0
LINE
  8
0
 10
335.396
 20
56.7165
 11
335.477
 21
56.7645
  0
LINE
  8
0
 10
335.477
 20
56.7645
 11
335.561
 21
56.8072
  0
LINE
  8
0
 10
335.561
 20
56.8072
 11
335.648
 21
56.8447
  0
LINE
  8
0
 10
335.648
 20
56.8447
 11
335.736
 21
56.8766
  0
LINE
  8
0
 10
335.736
 20
56.8766
 11
335.827
 21
56.9029
  0
LINE
  8
0
 10
335.827
 20
56.9029
 11
335.919
 21
56.9234
  0
LINE
  8
0
 10
335.919
 20
56.9234
 11
336.012
 21
56.9382
  0
LINE
  8
0
 10
336.012
 20
56.9382
 11
336.106
 21
56.947
  0
LINE
  8
0
 10
336.106
 20
56.947
 11
336.2
 21
56.95
  0
LINE
  8
0
 10
336.2
 20
56.95
 11
336.294
 21
56.947
  0
LINE
  8
0
 10
336.294
 20
56.947
 11
336.388
 21
56.9382
  0
LINE
  8
0
 10
336.388
 20
56.9382
 11
336.481
 21
56.9234
  0
LINE
  8
0
 10
336.481
 20
56.9234
 11
336.573
 21
56.9029
  0
LINE
  8
0
 10
336.573
 20
56.9029
 11
336.664
 21
56.8766
  0
LINE
  8
0
 10
336.664
 20
56.8766
 11
336.752
 21
56.8447
  0
LINE
  8
0
 10
336.752
 20
56.8447
 11
336.839
 21
56.8072
  0
LINE
  8
0
 10
336.839
 20
56.8072
 11
336.923
 21
56.7645
  0
LINE
  8
0
 10
336.923
 20
56.7645
 11
337.004
 21
56.7165
  0
LINE
  8
0
 10
337.004
 20
56.7165
 11
337.082
 21
56.6635
  0
LINE
  8
0
 10
337.082
 20
56.6635
 11
337.156
 21
56.6058
  0
LINE
  8
0
 10
337.156
 20
56.6058
 11
337.227
 21
56.5434
  0
LINE
  8
0
 10
337.227
 20
56.5434
 11
337.293
 21
56.4768
  0
LINE
  8
0
 10
337.293
 20
56.4768
 11
337.356
 21
56.4061
  0
LINE
  8
0
 10
337.356
 20
56.4061
 11
337.414
 21
56.3317
  0
LINE
  8
0
 10
337.414
 20
56.3317
 11
337.466
 21
56.2537
  0
LINE
  8
0
 10
337.466
 20
56.2537
 11
337.514
 21
56.1726
  0
LINE
  8
0
 10
337.514
 20
56.1726
 11
337.557
 21
56.0887
  0
LINE
  8
0
 10
337.557
 20
56.0887
 11
337.595
 21
56.0022
  0
LINE
  8
0
 10
337.595
 20
56.0022
 11
337.627
 21
55.9135
  0
LINE
  8
0
 10
337.627
 20
55.9135
 11
337.653
 21
55.823
  0
LINE
  8
0
 10
337.653
 20
55.823
 11
337.673
 21
55.7311
  0
LINE
  8
0
 10
337.673
 20
55.7311
 11
337.688
 21
55.638
  0
LINE
  8
0
 10
337.688
 20
55.638
 11
337.697
 21
55.5442
  0
LINE
  8
0
 10
337.697
 20
55.5442
 11
337.7
 21
55.45
  0
LINE
  8
0
 10
337.7
 20
55.45
 11
337.697
 21
55.3558
  0
LINE
  8
0
 10
337.697
 20
55.3558
 11
337.688
 21
55.262
  0
LINE
  8
0
 10
337.688
 20
55.262
 11
337.673
 21
55.1689
  0
LINE
  8
0
 10
337.673
 20
55.1689
 11
337.653
 21
55.077
  0
LINE
  8
0
 10
337.653
 20
55.077
 11
337.627
 21
54.9865
  0
LINE
  8
0
 10
337.627
 20
54.9865
 11
337.595
 21
54.8978
  0
LINE
  8
0
 10
337.595
 20
54.8978
 11
337.557
 21
54.8113
  0
LINE
  8
0
 10
337.557
 20
54.8113
 11
337.514
 21
54.7274
  0
LINE
  8
0
 10
337.514
 20
54.7274
 11
337.466
 21
54.6463
  0
LINE
  8
0
 10
337.466
 20
54.6463
 11
337.414
 21
54.5683
  0
LINE
  8
0
 10
337.414
 20
54.5683
 11
337.356
 21
54.4939
  0
LINE
  8
0
 10
337.356
 20
54.4939
 11
337.293
 21
54.4232
  0
LINE
  8
0
 10
337.293
 20
54.4232
 11
337.227
 21
54.3565
  0
LINE
  8
0
 10
337.227
 20
54.3565
 11
337.156
 21
54.2942
  0
LINE
  8
0
 10
337.156
 20
54.2942
 11
337.082
 21
54.2365
  0
LINE
  8
0
 10
337.082
 20
54.2365
 11
337.004
 21
54.1835
  0
LINE
  8
0
 10
337.004
 20
54.1835
 11
336.923
 21
54.1355
  0
LINE
  8
0
 10
336.923
 20
54.1355
 11
336.839
 21
54.0928
  0
LINE
  8
0
 10
336.839
 20
54.0928
 11
336.752
 21
54.0553
  0
LINE
  8
0
 10
336.752
 20
54.0553
 11
336.664
 21
54.0234
  0
LINE
  8
0
 10
336.664
 20
54.0234
 11
336.573
 21
53.9971
  0
LINE
  8
0
 10
336.573
 20
53.9971
 11
336.481
 21
53.9766
  0
LINE
  8
0
 10
336.481
 20
53.9766
 11
336.388
 21
53.9618
  0
LINE
  8
0
 10
336.388
 20
53.9618
 11
336.294
 21
53.953
  0
LINE
  8
0
 10
336.294
 20
53.953
 11
336.2
 21
53.95
  0
LINE
  8
0
 10
336.2
 20
53.95
 11
336.106
 21
53.953
  0
LINE
  8
0
 10
336.106
 20
26.0529
 11
336.012
 21
26.0618
  0
LINE
  8
0
 10
336.012
 20
26.0618
 11
335.919
 21
26.0766
  0
LINE
  8
0
 10
335.919
 20
26.0766
 11
335.827
 21
26.0971
  0
LINE
  8
0
 10
335.827
 20
26.0971
 11
335.736
 21
26.1234
  0
LINE
  8
0
 10
335.736
 20
26.1234
 11
335.648
 21
26.1553
  0
LINE
  8
0
 10
335.648
 20
26.1553
 11
335.561
 21
26.1927
  0
LINE
  8
0
 10
335.561
 20
26.1927
 11
335.477
 21
26.2355
  0
LINE
  8
0
 10
335.477
 20
26.2355
 11
335.396
 21
26.2835
  0
LINE
  8
0
 10
335.396
 20
26.2835
 11
335.318
 21
26.3365
  0
LINE
  8
0
 10
335.318
 20
26.3365
 11
335.244
 21
26.3942
  0
LINE
  8
0
 10
335.244
 20
26.3942
 11
335.173
 21
26.4565
  0
LINE
  8
0
 10
335.173
 20
26.4565
 11
335.107
 21
26.5232
  0
LINE
  8
0
 10
335.107
 20
26.5232
 11
335.044
 21
26.5939
  0
LINE
  8
0
 10
335.044
 20
26.5939
 11
334.986
 21
26.6683
  0
LINE
  8
0
 10
334.986
 20
26.6683
 11
334.934
 21
26.7462
  0
LINE
  8
0
 10
334.934
 20
26.7462
 11
334.886
 21
26.8274
  0
LINE
  8
0
 10
334.886
 20
26.8274
 11
334.843
 21
26.9113
  0
LINE
  8
0
 10
334.843
 20
26.9113
 11
334.805
 21
26.9978
  0
LINE
  8
0
 10
334.805
 20
26.9978
 11
334.773
 21
27.0865
  0
LINE
  8
0
 10
334.773
 20
27.0865
 11
334.747
 21
27.177
  0
LINE
  8
0
 10
334.747
 20
27.177
 11
334.727
 21
27.2689
  0
LINE
  8
0
 10
334.727
 20
27.2689
 11
334.712
 21
27.362
  0
LINE
  8
0
 10
334.712
 20
27.362
 11
334.703
 21
27.4558
  0
LINE
  8
0
 10
334.703
 20
27.4558
 11
334.7
 21
27.55
  0
LINE
  8
0
 10
334.7
 20
27.55
 11
334.703
 21
27.6442
  0
LINE
  8
0
 10
334.703
 20
27.6442
 11
334.712
 21
27.738
  0
LINE
  8
0
 10
334.712
 20
27.738
 11
334.727
 21
27.8311
  0
LINE
  8
0
 10
334.727
 20
27.8311
 11
334.747
 21
27.923
  0
LINE
  8
0
 10
334.747
 20
27.923
 11
334.773
 21
28.0135
  0
LINE
  8
0
 10
334.773
 20
28.0135
 11
334.805
 21
28.1022
  0
LINE
  8
0
 10
334.805
 20
28.1022
 11
334.843
 21
28.1887
  0
LINE
  8
0
 10
334.843
 20
28.1887
 11
334.886
 21
28.2726
  0
LINE
  8
0
 10
334.886
 20
28.2726
 11
334.934
 21
28.3537
  0
LINE
  8
0
 10
334.934
 20
28.3537
 11
334.986
 21
28.4317
  0
LINE
  8
0
 10
334.986
 20
28.4317
 11
335.044
 21
28.5061
  0
LINE
  8
0
 10
335.044
 20
28.5061
 11
335.107
 21
28.5768
  0
LINE
  8
0
 10
335.107
 20
28.5768
 11
335.173
 21
28.6434
  0
LINE
  8
0
 10
335.173
 20
28.6434
 11
335.244
 21
28.7058
  0
LINE
  8
0
 10
335.244
 20
28.7058
 11
335.318
 21
28.7635
  0
LINE
  8
0
 10
335.318
 20
28.7635
 11
335.396
 21
28.8165
  0
LINE
  8
0
 10
335.396
 20
28.8165
 11
335.477
 21
28.8645
  0
LINE
  8
0
 10
335.477
 20
28.8645
 11
335.561
 21
28.9072
  0
LINE
  8
0
 10
335.561
 20
28.9072
 11
335.648
 21
28.9447
  0
LINE
  8
0
 10
335.648
 20
28.9447
 11
335.736
 21
28.9766
  0
LINE
  8
0
 10
335.736
 20
28.9766
 11
335.827
 21
29.0029
  0
LINE
  8
0
 10
335.827
 20
29.0029
 11
335.919
 21
29.0234
  0
LINE
  8
0
 10
335.919
 20
29.0234
 11
336.012
 21
29.0382
  0
LINE
  8
0
 10
336.012
 20
29.0382
 11
336.106
 21
29.047
  0
LINE
  8
0
 10
336.106
 20
29.047
 11
336.2
 21
29.05
  0
LINE
  8
0
 10
336.2
 20
29.05
 11
336.294
 21
29.047
  0
LINE
  8
0
 10
336.294
 20
29.047
 11
336.388
 21
29.0382
  0
LINE
  8
0
 10
336.388
 20
29.0382
 11
336.481
 21
29.0234
  0
LINE
  8
0
 10
336.481
 20
29.0234
 11
336.573
 21
29.0029
  0
LINE
  8
0
 10
336.573
 20
29.0029
 11
336.664
 21
28.9766
  0
LINE
  8
0
 10
336.664
 20
28.9766
 11
336.752
 21
28.9447
  0
LINE
  8
0
 10
336.752
 20
28.9447
 11
336.839
 21
28.9072
  0
LINE
  8
0
 10
336.839
 20
28.9072
 11
336.923
 21
28.8645
  0
LINE
  8
0
 10
336.923
 20
28.8645
 11
337.004
 21
28.8165
  0
LINE
  8
0
 10
337.004
 20
28.8165
 11
337.082
 21
28.7635
  0
LINE
  8
0
 10
337.082
 20
28.7635
 11
337.156
 21
28.7058
  0
LINE
  8
0
 10
337.156
 20
28.7058
 11
337.227
 21
28.6434
  0
LINE
  8
0
 10
337.227
 20
28.6434
 11
337.293
 21
28.5768
  0
LINE
  8
0
 10
337.293
 20
28.5768
 11
337.356
 21
28.5061
  0
LINE
  8
0
 10
337.356
 20
28.5061
 11
337.414
 21
28.4317
  0
LINE
  8
0
 10
337.414
 20
28.4317
 11
337.466
 21
28.3537
  0
LINE
  8
0
 10
337.466
 20
28.3537
 11
337.514
 21
28.2726
  0
LINE
  8
0
 10
337.514
 20
28.2726
 11
337.557
 21
28.1887
  0
LINE
  8
0
 10
337.557
 20
28.1887
 11
337.595
 21
28.1022
  0
LINE
  8
0
 10
337.595
 20
28.1022
 11
337.627
 21
28.0135
  0
LINE
  8
0
 10
337.627
 20
28.0135
 11
337.653
 21
27.923
  0
LINE
  8
0
 10
337.653
 20
27.923
 11
337.673
 21
27.8311
  0
LINE
  8
0
 10
337.673
 20
27.8311
 11
337.688
 21
27.738
  0
LINE
  8
0
 10
337.688
 20
27.738
 11
337.697
 21
27.6442
  0
LINE
  8
0
 10
337.697
 20
27.6442
 11
337.7
 21
27.55
  0
LINE
  8
0
 10
337.7
 20
27.55
 11
337.697
 21
27.4558
  0
LINE
  8
0
 10
337.697
 20
27.4558
 11
337.688
 21
27.362
  0
LINE
  8
0
 10
337.688
 20
27.362
 11
337.673
 21
27.2689
  0
LINE
  8
0
 10
337.673
 20
27.2689
 11
337.653
 21
27.177
  0
LINE
  8
0
 10
337.653
 20
27.177
 11
337.627
 21
27.0865
  0
LINE
  8
0
 10
337.627
 20
27.0865
 11
337.595
 21
26.9978
  0
LINE
  8
0
 10
337.595
 20
26.9978
 11
337.557
 21
26.9113
  0
LINE
  8
0
 10
337.557
 20
26.9113
 11
337.514
 21
26.8274
  0
LINE
  8
0
 10
337.514
 20
26.8274
 11
337.466
 21
26.7462
  0
LINE
  8
0
 10
337.466
 20
26.7462
 11
337.414
 21
26.6683
  0
LINE
  8
0
 10
337.414
 20
26.6683
 11
337.356
 21
26.5939
  0
LINE
  8
0
 10
337.356
 20
26.5939
 11
337.293
 21
26.5232
  0
LINE
  8
0
 10
337.293
 20
26.5232
 11
337.227
 21
26.4565
  0
LINE
  8
0
 10
337.227
 20
26.4565
 11
337.156
 21
26.3942
  0
LINE
  8
0
 10
337.156
 20
26.3942
 11
337.082
 21
26.3365
  0
LINE
  8
0
 10
337.082
 20
26.3365
 11
337.004
 21
26.2835
  0
LINE
  8
0
 10
337.004
 20
26.2835
 11
336.923
 21
26.2355
  0
LINE
  8
0
 10
336.923
 20
26.2355
 11
336.839
 21
26.1927
  0
LINE
  8
0
 10
336.839
 20
26.1927
 11
336.752
 21
26.1553
  0
LINE
  8
0
 10
336.752
 20
26.1553
 11
336.664
 21
26.1234
  0
LINE
  8
0
 10
336.664
 20
26.1234
 11
336.573
 21
26.0971
  0
LINE
  8
0
 10
336.573
 20
26.0971
 11
336.481
 21
26.0766
  0
LINE
  8
0
 10
336.481
 20
26.0766
 11
336.388
 21
26.0618
  0
LINE
  8
0
 10
336.388
 20
26.0618
 11
336.294
 21
26.0529
  0
LINE
  8
0
 10
336.294
 20
26.0529
 11
336.2
 21
26.05
  0
LINE
  8
0
 10
336.2
 20
26.05
 11
336.106
 21
26.0529
  0
LINE
  8
0
 10
386.906
 20
10.853
 11
386.812
 21
10.8618
  0
LINE
  8
0
 10
386.812
 20
10.8618
 11
386.719
 21
10.8766
  0
LINE
  8
0
 10
386.719
 20
10.8766
 11
386.627
 21
10.8971
  0
LINE
  8
0
 10
386.627
 20
10.8971
 11
386.536
 21
10.9234
  0
LINE
  8
0
 10
386.536
 20
10.9234
 11
386.448
 21
10.9553
  0
LINE
  8
0
 10
386.448
 20
10.9553
 11
386.361
 21
10.9928
  0
LINE
  8
0
 10
386.361
 20
10.9928
 11
386.277
 21
11.0355
  0
LINE
  8
0
 10
386.277
 20
11.0355
 11
386.196
 21
11.0835
  0
LINE
  8
0
 10
386.196
 20
11.0835
 11
386.118
 21
11.1365
  0
LINE
  8
0
 10
386.118
 20
11.1365
 11
386.044
 21
11.1942
  0
LINE
  8
0
 10
386.044
 20
11.1942
 11
385.973
 21
11.2565
  0
LINE
  8
0
 10
385.973
 20
11.2565
 11
385.907
 21
11.3232
  0
LINE
  8
0
 10
385.907
 20
11.3232
 11
385.844
 21
11.3939
  0
LINE
  8
0
 10
385.844
 20
11.3939
 11
385.786
 21
11.4683
  0
LINE
  8
0
 10
385.786
 20
11.4683
 11
385.734
 21
11.5462
  0
LINE
  8
0
 10
385.734
 20
11.5462
 11
385.686
 21
11.6274
  0
LINE
  8
0
 10
385.686
 20
11.6274
 11
385.643
 21
11.7113
  0
LINE
  8
0
 10
385.643
 20
11.7113
 11
385.605
 21
11.7978
  0
LINE
  8
0
 10
385.605
 20
11.7978
 11
385.573
 21
11.8865
  0
LINE
  8
0
 10
385.573
 20
11.8865
 11
385.547
 21
11.977
  0
LINE
  8
0
 10
385.547
 20
11.977
 11
385.527
 21
12.0689
  0
LINE
  8
0
 10
385.527
 20
12.0689
 11
385.512
 21
12.162
  0
LINE
  8
0
 10
385.512
 20
12.162
 11
385.503
 21
12.2558
  0
LINE
  8
0
 10
385.503
 20
12.2558
 11
385.5
 21
12.35
  0
LINE
  8
0
 10
385.5
 20
12.35
 11
385.503
 21
12.4442
  0
LINE
  8
0
 10
385.503
 20
12.4442
 11
385.512
 21
12.538
  0
LINE
  8
0
 10
385.512
 20
12.538
 11
385.527
 21
12.6311
  0
LINE
  8
0
 10
385.527
 20
12.6311
 11
385.547
 21
12.723
  0
LINE
  8
0
 10
385.547
 20
12.723
 11
385.573
 21
12.8135
  0
LINE
  8
0
 10
385.573
 20
12.8135
 11
385.605
 21
12.9022
  0
LINE
  8
0
 10
385.605
 20
12.9022
 11
385.643
 21
12.9887
  0
LINE
  8
0
 10
385.643
 20
12.9887
 11
385.686
 21
13.0726
  0
LINE
  8
0
 10
385.686
 20
13.0726
 11
385.734
 21
13.1537
  0
LINE
  8
0
 10
385.734
 20
13.1537
 11
385.786
 21
13.2317
  0
LINE
  8
0
 10
385.786
 20
13.2317
 11
385.844
 21
13.3061
  0
LINE
  8
0
 10
385.844
 20
13.3061
 11
385.907
 21
13.3768
  0
LINE
  8
0
 10
385.907
 20
13.3768
 11
385.973
 21
13.4435
  0
LINE
  8
0
 10
385.973
 20
13.4435
 11
386.044
 21
13.5058
  0
LINE
  8
0
 10
386.044
 20
13.5058
 11
386.118
 21
13.5635
  0
LINE
  8
0
 10
386.118
 20
13.5635
 11
386.196
 21
13.6165
  0
LINE
  8
0
 10
386.196
 20
13.6165
 11
386.277
 21
13.6645
  0
LINE
  8
0
 10
386.277
 20
13.6645
 11
386.361
 21
13.7072
  0
LINE
  8
0
 10
386.361
 20
13.7072
 11
386.448
 21
13.7447
  0
LINE
  8
0
 10
386.448
 20
13.7447
 11
386.536
 21
13.7766
  0
LINE
  8
0
 10
386.536
 20
13.7766
 11
386.627
 21
13.8029
  0
LINE
  8
0
 10
386.627
 20
13.8029
 11
386.719
 21
13.8234
  0
LINE
  8
0
 10
386.719
 20
13.8234
 11
386.812
 21
13.8382
  0
LINE
  8
0
 10
386.812
 20
13.8382
 11
386.906
 21
13.847
  0
LINE
  8
0
 10
386.906
 20
13.847
 11
387
 21
13.85
  0
LINE
  8
0
 10
387
 20
13.85
 11
387.094
 21
13.847
  0
LINE
  8
0
 10
387.094
 20
13.847
 11
387.188
 21
13.8382
  0
LINE
  8
0
 10
387.188
 20
13.8382
 11
387.281
 21
13.8234
  0
LINE
  8
0
 10
387.281
 20
13.8234
 11
387.373
 21
13.8029
  0
LINE
  8
0
 10
387.373
 20
13.8029
 11
387.464
 21
13.7766
  0
LINE
  8
0
 10
387.464
 20
13.7766
 11
387.552
 21
13.7447
  0
LINE
  8
0
 10
387.552
 20
13.7447
 11
387.639
 21
13.7072
  0
LINE
  8
0
 10
387.639
 20
13.7072
 11
387.723
 21
13.6645
  0
LINE
  8
0
 10
387.723
 20
13.6645
 11
387.804
 21
13.6165
  0
LINE
  8
0
 10
387.804
 20
13.6165
 11
387.882
 21
13.5635
  0
LINE
  8
0
 10
387.882
 20
13.5635
 11
387.956
 21
13.5058
  0
LINE
  8
0
 10
387.956
 20
13.5058
 11
388.027
 21
13.4435
  0
LINE
  8
0
 10
388.027
 20
13.4435
 11
388.093
 21
13.3768
  0
LINE
  8
0
 10
388.093
 20
13.3768
 11
388.156
 21
13.3061
  0
LINE
  8
0
 10
388.156
 20
13.3061
 11
388.214
 21
13.2317
  0
LINE
  8
0
 10
388.214
 20
13.2317
 11
388.266
 21
13.1537
  0
LINE
  8
0
 10
388.266
 20
13.1537
 11
388.314
 21
13.0726
  0
LINE
  8
0
 10
388.314
 20
13.0726
 11
388.357
 21
12.9887
  0
LINE
  8
0
 10
388.357
 20
12.9887
 11
388.395
 21
12.9022
  0
LINE
  8
0
 10
388.395
 20
12.9022
 11
388.427
 21
12.8135
  0
LINE
  8
0
 10
388.427
 20
12.8135
 11
388.453
 21
12.723
  0
LINE
  8
0
 10
388.453
 20
12.723
 11
388.473
 21
12.6311
  0
LINE
  8
0
 10
388.473
 20
12.6311
 11
388.488
 21
12.538
  0
LINE
  8
0
 10
388.488
 20
12.538
 11
388.497
 21
12.4442
  0
LINE
  8
0
 10
388.497
 20
12.4442
 11
388.5
 21
12.35
  0
LINE
  8
0
 10
388.5
 20
12.35
 11
388.497
 21
12.2558
  0
LINE
  8
0
 10
388.497
 20
12.2558
 11
388.488
 21
12.162
  0
LINE
  8
0
 10
388.488
 20
12.162
 11
388.473
 21
12.0689
  0
LINE
  8
0
 10
388.473
 20
12.0689
 11
388.453
 21
11.977
  0
LINE
  8
0
 10
388.453
 20
11.977
 11
388.427
 21
11.8865
  0
LINE
  8
0
 10
388.427
 20
11.8865
 11
388.395
 21
11.7978
  0
LINE
  8
0
 10
388.395
 20
11.7978
 11
388.357
 21
11.7113
  0
LINE
  8
0
 10
388.357
 20
11.7113
 11
388.314
 21
11.6274
  0
LINE
  8
0
 10
388.314
 20
11.6274
 11
388.266
 21
11.5462
  0
LINE
  8
0
 10
388.266
 20
11.5462
 11
388.214
 21
11.4683
  0
LINE
  8
0
 10
388.214
 20
11.4683
 11
388.156
 21
11.3939
  0
LINE
  8
0
 10
388.156
 20
11.3939
 11
388.093
 21
11.3232
  0
LINE
  8
0
 10
388.093
 20
11.3232
 11
388.027
 21
11.2565
  0
LINE
  8
0
 10
388.027
 20
11.2565
 11
387.956
 21
11.1942
  0
LINE
  8
0
 10
387.956
 20
11.1942
 11
387.882
 21
11.1365
  0
LINE
  8
0
 10
387.882
 20
11.1365
 11
387.804
 21
11.0835
  0
LINE
  8
0
 10
387.804
 20
11.0835
 11
387.723
 21
11.0355
  0
LINE
  8
0
 10
387.723
 20
11.0355
 11
387.639
 21
10.9928
  0
LINE
  8
0
 10
387.639
 20
10.9928
 11
387.552
 21
10.9553
  0
LINE
  8
0
 10
387.552
 20
10.9553
 11
387.464
 21
10.9234
  0
LINE
  8
0
 10
387.464
 20
10.9234
 11
387.373
 21
10.8971
  0
LINE
  8
0
 10
387.373
 20
10.8971
 11
387.281
 21
10.8766
  0
LINE
  8
0
 10
387.281
 20
10.8766
 11
387.188
 21
10.8618
  0
LINE
  8
0
 10
387.188
 20
10.8618
 11
387.094
 21
10.853
  0
LINE
  8
0
 10
387.094
 20
10.853
 11
387
 21
10.85
  0
LINE
  8
0
 10
387
 20
10.85
 11
386.906
 21
10.853
  0
LINE
  8
0
 10
337
 20
10.85
 11
336.906
 21
10.853
  0
LINE
  8
0
 10
336.906
 20
10.853
 11
336.812
 21
10.8618
  0
LINE
  8
0
 10
336.812
 20
10.8618
 11
336.719
 21
10.8766
  0
LINE
  8
0
 10
336.719
 20
10.8766
 11
336.627
 21
10.8971
  0
LINE
  8
0
 10
336.627
 20
10.8971
 11
336.536
 21
10.9234
  0
LINE
  8
0
 10
336.536
 20
10.9234
 11
336.448
 21
10.9553
  0
LINE
  8
0
 10
336.448
 20
10.9553
 11
336.361
 21
10.9928
  0
LINE
  8
0
 10
336.361
 20
10.9928
 11
336.277
 21
11.0355
  0
LINE
  8
0
 10
336.277
 20
11.0355
 11
336.196
 21
11.0835
  0
LINE
  8
0
 10
336.196
 20
11.0835
 11
336.118
 21
11.1365
  0
LINE
  8
0
 10
336.118
 20
11.1365
 11
336.044
 21
11.1942
  0
LINE
  8
0
 10
336.044
 20
11.1942
 11
335.973
 21
11.2565
  0
LINE
  8
0
 10
335.973
 20
11.2565
 11
335.907
 21
11.3232
  0
LINE
  8
0
 10
335.907
 20
11.3232
 11
335.844
 21
11.3939
  0
LINE
  8
0
 10
335.844
 20
11.3939
 11
335.786
 21
11.4683
  0
LINE
  8
0
 10
335.786
 20
11.4683
 11
335.734
 21
11.5462
  0
LINE
  8
0
 10
335.734
 20
11.5462
 11
335.686
 21
11.6274
  0
LINE
  8
0
 10
335.686
 20
11.6274
 11
335.643
 21
11.7113
  0
LINE
  8
0
 10
335.643
 20
11.7113
 11
335.605
 21
11.7978
  0
LINE
  8
0
 10
335.605
 20
11.7978
 11
335.573
 21
11.8865
  0
LINE
  8
0
 10
335.573
 20
11.8865
 11
335.547
 21
11.977
  0
LINE
  8
0
 10
335.547
 20
11.977
 11
335.527
 21
12.0689
  0
LINE
  8
0
 10
335.527
 20
12.0689
 11
335.512
 21
12.162
  0
LINE
  8
0
 10
335.512
 20
12.162
 11
335.503
 21
12.2558
  0
LINE
  8
0
 10
335.503
 20
12.2558
 11
335.5
 21
12.35
  0
LINE
  8
0
 10
335.5
 20
12.35
 11
335.503
 21
12.4442
  0
LINE
  8
0
 10
335.503
 20
12.4442
 11
335.512
 21
12.538
  0
LINE
  8
0
 10
335.512
 20
12.538
 11
335.527
 21
12.6311
  0
LINE
  8
0
 10
335.527
 20
12.6311
 11
335.547
 21
12.723
  0
LINE
  8
0
 10
335.547
 20
12.723
 11
335.573
 21
12.8135
  0
LINE
  8
0
 10
335.573
 20
12.8135
 11
335.605
 21
12.9022
  0
LINE
  8
0
 10
335.605
 20
12.9022
 11
335.643
 21
12.9887
  0
LINE
  8
0
 10
335.643
 20
12.9887
 11
335.686
 21
13.0726
  0
LINE
  8
0
 10
335.686
 20
13.0726
 11
335.734
 21
13.1537
  0
LINE
  8
0
 10
335.734
 20
13.1537
 11
335.786
 21
13.2317
  0
LINE
  8
0
 10
335.786
 20
13.2317
 11
335.844
 21
13.3061
  0
LINE
  8
0
 10
335.844
 20
13.3061
 11
335.907
 21
13.3768
  0
LINE
  8
0
 10
335.907
 20
13.3768
 11
335.973
 21
13.4435
  0
LINE
  8
0
 10
335.973
 20
13.4435
 11
336.044
 21
13.5058
  0
LINE
  8
0
 10
336.044
 20
13.5058
 11
336.118
 21
13.5635
  0
LINE
  8
0
 10
336.118
 20
13.5635
 11
336.196
 21
13.6165
  0
LINE
  8
0
 10
336.196
 20
13.6165
 11
336.277
 21
13.6645
  0
LINE
  8
0
 10
336.277
 20
13.6645
 11
336.361
 21
13.7072
  0
LINE
  8
0
 10
336.361
 20
13.7072
 11
336.448
 21
13.7447
  0
LINE
  8
0
 10
336.448
 20
13.7447
 11
336.536
 21
13.7766
  0
LINE
  8
0
 10
336.536
 20
13.7766
 11
336.627
 21
13.8029
  0
LINE
  8
0
 10
336.627
 20
13.8029
 11
336.719
 21
13.8234
  0
LINE
  8
0
 10
336.719
 20
13.8234
 11
336.812
 21
13.8382
  0
LINE
  8
0
 10
336.812
 20
13.8382
 11
336.906
 21
13.847
  0
LINE
  8
0
 10
336.906
 20
13.847
 11
337
 21
13.85
  0
LINE
  8
0
 10
337
 20
13.85
 11
381
 21
13.85
  0
LINE
  8
0
 10
381
 20
13.85
 11
381.094
 21
13.847
  0
LINE
  8
0
 10
381.094
 20
13.847
 11
381.188
 21
13.8382
  0
LINE
  8
0
 10
381.188
 20
13.8382
 11
381.281
 21
13.8234
  0
LINE
  8
0
 10
381.281
 20
13.8234
 11
381.373
 21
13.8029
  0
LINE
  8
0
 10
381.373
 20
13.8029
 11
381.464
 21
13.7766
  0
LINE
  8
0
 10
381.464
 20
13.7766
 11
381.552
 21
13.7447
  0
LINE
  8
0
 10
381.552
 20
13.7447
 11
381.639
 21
13.7072
  0
LINE
  8
0
 10
381.639
 20
13.7072
 11
381.723
 21
13.6645
  0
LINE
  8
0
 10
381.723
 20
13.6645
 11
381.804
 21
13.6165
  0
LINE
  8
0
 10
381.804
 20
13.6165
 11
381.882
 21
13.5635
  0
LINE
  8
0
 10
381.882
 20
13.5635
 11
381.956
 21
13.5058
  0
LINE
  8
0
 10
381.956
 20
13.5058
 11
382.027
 21
13.4435
  0
LINE
  8
0
 10
382.027
 20
13.4435
 11
382.093
 21
13.3768
  0
LINE
  8
0
 10
382.093
 20
13.3768
 11
382.156
 21
13.3061
  0
LINE
  8
0
 10
382.156
 20
13.3061
 11
382.214
 21
13.2317
  0
LINE
  8
0
 10
382.214
 20
13.2317
 11
382.266
 21
13.1537
  0
LINE
  8
0
 10
382.266
 20
13.1537
 11
382.314
 21
13.0726
  0
LINE
  8
0
 10
382.314
 20
13.0726
 11
382.357
 21
12.9887
  0
LINE
  8
0
 10
382.357
 20
12.9887
 11
382.395
 21
12.9022
  0
LINE
  8
0
 10
382.395
 20
12.9022
 11
382.427
 21
12.8135
  0
LINE
  8
0
 10
382.427
 20
12.8135
 11
382.453
 21
12.723
  0
LINE
  8
0
 10
382.453
 20
12.723
 11
382.473
 21
12.6311
  0
LINE
  8
0
 10
382.473
 20
12.6311
 11
382.488
 21
12.538
  0
LINE
  8
0
 10
382.488
 20
12.538
 11
382.497
 21
12.4442
  0
LINE
  8
0
 10
382.497
 20
12.4442
 11
382.5
 21
12.35
  0
LINE
  8
0
 10
382.5
 20
12.35
 11
382.497
 21
12.2558
  0
LINE
  8
0
 10
382.497
 20
12.2558
 11
382.488
 21
12.162
  0
LINE
  8
0
 10
382.488
 20
12.162
 11
382.473
 21
12.0689
  0
LINE
  8
0
 10
382.473
 20
12.0689
 11
382.453
 21
11.977
  0
LINE
  8
0
 10
382.453
 20
11.977
 11
382.427
 21
11.8865
  0
LINE
  8
0
 10
382.427
 20
11.8865
 11
382.395
 21
11.7978
  0
LINE
  8
0
 10
382.395
 20
11.7978
 11
382.357
 21
11.7113
  0
LINE
  8
0
 10
382.357
 20
11.7113
 11
382.314
 21
11.6274
  0
LINE
  8
0
 10
382.314
 20
11.6274
 11
382.266
 21
11.5462
  0
LINE
  8
0
 10
382.266
 20
11.5462
 11
382.214
 21
11.4683
  0
LINE
  8
0
 10
382.214
 20
11.4683
 11
382.156
 21
11.3939
  0
LINE
  8
0
 10
382.156
 20
11.3939
 11
382.093
 21
11.3232
  0
LINE
  8
0
 10
382.093
 20
11.3232
 11
382.027
 21
11.2565
  0
LINE
  8
0
 10
382.027
 20
11.2565
 11
381.956
 21
11.1942
  0
LINE
  8
0
 10
381.956
 20
11.1942
 11
381.882
 21
11.1365
  0
LINE
  8
0
 10
381.882
 20
11.1365
 11
381.804
 21
11.0835
  0
LINE
  8
0
 10
381.804
 20
11.0835
 11
381.723
 21
11.0355
  0
LINE
  8
0
 10
381.723
 20
11.0355
 11
381.639
 21
10.9928
  0
LINE
  8
0
 10
381.639
 20
10.9928
 11
381.552
 21
10.9553
  0
LINE
  8
0
 10
381.552
 20
10.9553
 11
381.464
 21
10.9234
  0
LINE
  8
0
 10
381.464
 20
10.9234
 11
381.373
 21
10.8971
  0
LINE
  8
0
 10
381.373
 20
10.8971
 11
381.281
 21
10.8766
  0
LINE
  8
0
 10
381.281
 20
10.8766
 11
381.188
 21
10.8618
  0
LINE
  8
0
 10
381.188
 20
10.8618
 11
381.094
 21
10.853
  0
LINE
  8
0
 10
381.094
 20
10.853
 11
381
 21
10.85
  0
LINE
  8
0
 10
381
 20
10.85
 11
337
 21
10.85
  0
LINE
  8
0
 10
101.5
 20
3
 11
124.5
 21
3
  0
LINE
  8
0
 10
124.5
 20
3
 11
124.5
 21
0
  0
LINE
  8
0
 10
124.5
 20
0
 11
136.5
 21
0
  0
LINE
  8
0
 10
136.5
 20
0
 11
136.5
 21
3
  0
LINE
  8
0
 10
136.5
 20
3
 11
159.5
 21
3
  0
LINE
  8
0
 10
159.5
 20
3
 11
159.5
 21
0
  0
LINE
  8
0
 10
159.5
 20
0
 11
171.5
 21
0
  0
LINE
  8
0
 10
171.5
 20
0
 11
171.5
 21
3
  0
LINE
  8
0
 10
171.5
 20
3
 11
178.5
 21
3
  0
LINE
  8
0
 10
178.5
 20
3
 11
178.5
 21
6
  0
LINE
  8
0
 10
178.5
 20
6
 11
177.25
 21
6
  0
LINE
  8
0
 10
177.25
 20
6
 11
177.25
 21
8.5
  0
LINE
  8
0
 10
177.25
 20
8.5
 11
178.5
 21
8.5
  0
LINE
  8
0
 10
178.5
 20
8.5
 11
178.5
 21
11
  0
LINE
  8
0
 10
178.5
 20
11
 11
181.5
 21
11
  0
LINE
  8
0
 10
181.5
 20
11
 11
181.5
 21
8.5
  0
LINE
  8
0
 10
181.5
 20
8.5
 11
182.75
 21
8.5
  0
LINE
  8
0
 10
182.75
 20
8.5
 11
182.75
 21
6
  0
LINE
  8
0
 10
182.75
 20
6
 11
181.5
 21
6
  0
LINE
  8
0
 10
181.5
 20
6
 11
181.5
 21
3
  0
LINE
  8
0
 10
181.5
 20
3
 11
186
 21
3
  0
LINE
  8
0
 10
186
 20
3
 11
186
 21
13.75
  0
LINE
  8
0
 10
186
 20
13.75
 11
183
 21
13.75
  0
LINE
  8
0
 10
183
 20
13.75
 11
183
 21
18.25
  0
LINE
  8
0
 10
183
 20
18.25
 11
180
 21
18.25
  0
LINE
  8
0
 10
180
 20
18.25
 11
180
 21
17
  0
LINE
  8
0
 10
180
 20
17
 11
177.5
 21
17
  0
LINE
  8
0
 10
177.5
 20
17
 11
177.5
 21
18.25
  0
LINE
  8
0
 10
177.5
 20
18.25
 11
175
 21
18.25
  0
LINE
  8
0
 10
175
 20
18.25
 11
175
 21
21.25
  0
LINE
  8
0
 10
175
 20
21.25
 11
177.5
 21
21.25
  0
LINE
  8
0
 10
177.5
 20
21.25
 11
177.5
 21
22.5
  0
LINE
  8
0
 10
177.5
 20
22.5
 11
180
 21
22.5
  0
LINE
  8
0
 10
180
 20
22.5
 11
180
 21
21.25
  0
LINE
  8
0
 10
180
 20
21.25
 11
183
 21
21.25
  0
LINE
  8
0
 10
183
 20
21.25
 11
183
 21
25.75
  0
LINE
  8
0
 10
183
 20
25.75
 11
186
 21
25.75
  0
LINE
  8
0
 10
186
 20
25.75
 11
186
 21
47.25
  0
LINE
  8
0
 10
186
 20
47.25
 11
183
 21
47.25
  0
LINE
  8
0
 10
183
 20
47.25
 11
183
 21
51.75
  0
LINE
  8
0
 10
183
 20
51.75
 11
180
 21
51.75
  0
LINE
  8
0
 10
180
 20
51.75
 11
180
 21
50.5
  0
LINE
  8
0
 10
180
 20
50.5
 11
177.5
 21
50.5
  0
LINE
  8
0
 10
177.5
 20
50.5
 11
177.5
 21
51.75
  0
LINE
  8
0
 10
177.5
 20
51.75
 11
175
 21
51.75
  0
LINE
  8
0
 10
175
 20
51.75
 11
175
 21
54.75
  0
LINE
  8
0
 10
175
 20
54.75
 11
177.5
 21
54.75
  0
LINE
  8
0
 10
177.5
 20
54.75
 11
177.5
 21
56
  0
LINE
  8
0
 10
177.5
 20
56
 11
180
 21
56
  0
LINE
  8
0
 10
180
 20
56
 11
180
 21
54.75
  0
LINE
  8
0
 10
180
 20
54.75
 11
183
 21
54.75
  0
LINE
  8
0
 10
183
 20
54.75
 11
183
 21
59.25
  0
LINE
  8
0
 10
183
 20
59.25
 11
186
 21
59.25
  0
LINE
  8
0
 10
186
 20
59.25
 11
186
 21
70
  0
LINE
  8
0
 10
186
 20
70
 11
181.5
 21
70
  0
LINE
  8
0
 10
181.5
 20
70
 11
181.5
 21
67
  0
LINE
  8
0
 10
181.5
 20
67
 11
182.75
 21
67
  0
LINE
  8
0
 10
182.75
 20
67
 11
182.75
 21
64.5
  0
LINE
  8
0
 10
182.75
 20
64.5
 11
181.5
 21
64.5
  0
LINE
  8
0
 10
181.5
 20
64.5
 11
181.5
 21
62
  0
LINE
  8
0
 10
181.5
 20
62
 11
178.5
 21
62
  0
LINE
  8
0
 10
178.5
 20
62
 11
178.5
 21
64.5
  0
LINE
  8
0
 10
178.5
 20
64.5
 11
177.25
 21
64.5
  0
LINE
  8
0
 10
177.25
 20
64.5
 11
177.25
 21
67
  0
LINE
  8
0
 10
177.25
 20
67
 11
178.5
 21
67
  0
LINE
  8
0
 10
178.5
 20
67
 11
178.5
 21
70
  0
LINE
  8
0
 10
178.5
 20
70
 11
171.5
 21
70
  0
LINE
  8
0
 10
171.5
 20
70
 11
171.5
 21
73
  0
LINE
  8
0
 10
171.5
 20
73
 11
159.5
 21
73
  0
LINE
  8
0
 10
159.5
 20
73
 11
159.5
 21
70
  0
LINE
  8
0
 10
159.5
 20
70
 11
136.5
 21
70
  0
LINE
  8
0
 10
136.5
 20
70
 11
136.5
 21
73
  0
LINE
  8
0
 10
136.5
 20
73
 11
124.5
 21
73
  0
LINE
  8
0
 10
124.5
 20
73
 11
124.5
 21
70
  0
LINE
  8
0
 10
124.5
 20
70
 11
101.5
 21
70
  0
LINE
  8
0
 10
101.5
 20
70
 11
101.5
 21
73
  0
LINE
  8
0
 10
101.5
 20
73
 11
89.5
 21
73
  0
LINE
  8
0
 10
89.5
 20
73
 11
89.5
 21
70
  0
LINE
  8
0
 10
89.5
 20
70
 11
82.5
 21
70
  0
LINE
  8
0
 10
82.5
 20
70
 11
82.5
 21
67
  0
LINE
  8
0
 10
82.5
 20
67
 11
83.75
 21
67
  0
LINE
  8
0
 10
83.75
 20
67
 11
83.75
 21
64.5
  0
LINE
  8
0
 10
83.75
 20
64.5
 11
82.5
 21
64.5
  0
LINE
  8
0
 10
82.5
 20
64.5
 11
82.5
 21
62
  0
LINE
  8
0
 10
82.5
 20
62
 11
79.5
 21
62
  0
LINE
  8
0
 10
79.5
 20
62
 11
79.5
 21
64.5
  0
LINE
  8
0
 10
79.5
 20
64.5
 11
78.25
 21
64.5
  0
LINE
  8
0
 10
78.25
 20
64.5
 11
78.25
 21
67
  0
LINE
  8
0
 10
78.25
 20
67
 11
79.5
 21
67
  0
LINE
  8
0
 10
79.5
 20
67
 11
79.5
 21
70
  0
LINE
  8
0
 10
79.5
 20
70
 11
75
 21
70
  0
LINE
  8
0
 10
75
 20
70
 11
75
 21
59.25
  0
LINE
  8
0
 10
75
 20
59.25
 11
78
 21
59.25
  0
LINE
  8
0
 10
78
 20
59.25
 11
78
 21
54.75
  0
LINE
  8
0
 10
78
 20
54.75
 11
81
 21
54.75
  0
LINE
  8
0
 10
81
 20
54.75
 11
81
 21
56
  0
LINE
  8
0
 10
81
 20
56
 11
83.5
 21
56
  0
LINE
  8
0
 10
83.5
 20
56
 11
83.5
 21
54.75
  0
LINE
  8
0
 10
83.5
 20
54.75
 11
86
 21
54.75
  0
LINE
  8
0
 10
86
 20
54.75
 11
86
 21
51.75
  0
LINE
  8
0
 10
86
 20
51.75
 11
83.5
 21
51.75
  0
LINE
  8
0
 10
83.5
 20
51.75
 11
83.5
 21
50.5
  0
LINE
  8
0
 10
83.5
 20
50.5
 11
81
 21
50.5
  0
LINE
  8
0
 10
81
 20
50.5
 11
81
 21
51.75
  0
LINE
  8
0
 10
81
 20
51.75
 11
78
 21
51.75
  0
LINE
  8
0
 10
78
 20
51.75
 11
78
 21
47.25
  0
LINE
  8
0
 10
78
 20
47.25
 11
75
 21
47.25
  0
LINE
  8
0
 10
75
 20
47.25
 11
75
 21
25.75
  0
LINE
  8
0
 10
75
 20
25.75
 11
78
 21
25.75
  0
LINE
  8
0
 10
78
 20
25.75
 11
78
 21
21.25
  0
LINE
  8
0
 10
78
 20
21.25
 11
81
 21
21.25
  0
LINE
  8
0
 10
81
 20
21.25
 11
81
 21
22.5
  0
LINE
  8
0
 10
81
 20
22.5
 11
83.5
 21
22.5
  0
LINE
  8
0
 10
83.5
 20
22.5
 11
83.5
 21
21.25
  0
LINE
  8
0
 10
83.5
 20
21.25
 11
86
 21
21.25
  0
LINE
  8
0
 10
86
 20
21.25
 11
86
 21
18.25
  0
LINE
  8
0
 10
86
 20
18.25
 11
83.5
 21
18.25
  0
LINE
  8
0
 10
83.5
 20
18.25
 11
83.5
 21
17
  0
LINE
  8
0
 10
83.5
 20
17
 11
81
 21
17
  0
LINE
  8
0
 10
81
 20
17
 11
81
 21
18.25
  0
LINE
  8
0
 10
81
 20
18.25
 11
78
 21
18.25
  0
LINE
  8
0
 10
78
 20
18.25
 11
78
 21
13.75
  0
LINE
  8
0
 10
78
 20
13.75
 11
75
 21
13.75
  0
LINE
  8
0
 10
75
 20
13.75
 11
75
 21
3
  0
LINE
  8
0
 10
75
 20
3
 11
79.5
 21
3
  0
LINE
  8
0
 10
79.5
 20
3
 11
79.5
 21
6
  0
LINE
  8
0
 10
79.5
 20
6
 11
78.25
 21
6
  0
LINE
  8
0
 10
78.25
 20
6
 11
78.25
 21
8.5
  0
LINE
  8
0
 10
78.25
 20
8.5
 11
79.5
 21
8.5
  0
LINE
  8
0
 10
79.5
 20
8.5
 11
79.5
 21
11
  0
LINE
  8
0
 10
79.5
 20
11
 11
82.5
 21
11
  0
LINE
  8
0
 10
82.5
 20
11
 11
82.5
 21
8.5
  0
LINE
  8
0
 10
82.5
 20
8.5
 11
83.75
 21
8.5
  0
LINE
  8
0
 10
83.75
 20
8.5
 11
83.75
 21
6
  0
LINE
  8
0
 10
83.75
 20
6
 11
82.5
 21
6
  0
LINE
  8
0
 10
82.5
 20
6
 11
82.5
 21
3
  0
LINE
  8
0
 10
82.5
 20
3
 11
89.5
 21
3
  0
LINE
  8
0
 10
89.5
 20
3
 11
89.5
 21
0
  0
LINE
  8
0
 10
89.5
 20
0
 11
101.5
 21
0
  0
LINE
  8
0
 10
101.5
 20
0
 11
101.5
 21
3
  0
LINE
  8
0
 10
93.25
 20
43.95
 11
93.25
 21
46.95
  0
LINE
  8
0
 10
93.25
 20
46.95
 11
98.25
 21
46.95
  0
LINE
  8
0
 10
98.25
 20
46.95
 11
98.25
 21
43.95
  0
LINE
  8
0
 10
98.25
 20
43.95
 11
93.25
 21
43.95
  0
LINE
  8
0
 10
87.0558
 20
33.153
 11
86.962
 21
33.1618
  0
LINE
  8
0
 10
86.962
 20
33.1618
 11
86.8689
 21
33.1766
  0
LINE
  8
0
 10
86.8689
 20
33.1766
 11
86.777
 21
33.1971
  0
LINE
  8
0
 10
86.777
 20
33.1971
 11
86.6865
 21
33.2234
  0
LINE
  8
0
 10
86.6865
 20
33.2234
 11
86.5978
 21
33.2553
  0
LINE
  8
0
 10
86.5978
 20
33.2553
 11
86.5113
 21
33.2928
  0
LINE
  8
0
 10
86.5113
 20
33.2928
 11
86.4274
 21
33.3355
  0
LINE
  8
0
 10
86.4274
 20
33.3355
 11
86.3463
 21
33.3835
  0
LINE
  8
0
 10
86.3463
 20
33.3835
 11
86.2683
 21
33.4365
  0
LINE
  8
0
 10
86.2683
 20
33.4365
 11
86.1939
 21
33.4942
  0
LINE
  8
0
 10
86.1939
 20
33.4942
 11
86.1232
 21
33.5565
  0
LINE
  8
0
 10
86.1232
 20
33.5565
 11
86.0565
 21
33.6232
  0
LINE
  8
0
 10
86.0565
 20
33.6232
 11
85.9942
 21
33.6939
  0
LINE
  8
0
 10
85.9942
 20
33.6939
 11
85.9365
 21
33.7683
  0
LINE
  8
0
 10
85.9365
 20
33.7683
 11
85.8835
 21
33.8463
  0
LINE
  8
0
 10
85.8835
 20
33.8463
 11
85.8355
 21
33.9274
  0
LINE
  8
0
 10
85.8355
 20
33.9274
 11
85.7928
 21
34.0113
  0
LINE
  8
0
 10
85.7928
 20
34.0113
 11
85.7553
 21
34.0978
  0
LINE
  8
0
 10
85.7553
 20
34.0978
 11
85.7234
 21
34.1865
  0
LINE
  8
0
 10
85.7234
 20
34.1865
 11
85.6971
 21
34.277
  0
LINE
  8
0
 10
85.6971
 20
34.277
 11
85.6766
 21
34.3689
  0
LINE
  8
0
 10
85.6766
 20
34.3689
 11
85.6618
 21
34.462
  0
LINE
  8
0
 10
85.6618
 20
34.462
 11
85.653
 21
34.5558
  0
LINE
  8
0
 10
85.653
 20
34.5558
 11
85.65
 21
34.65
  0
LINE
  8
0
 10
85.65
 20
34.65
 11
85.653
 21
34.7442
  0
LINE
  8
0
 10
85.653
 20
34.7442
 11
85.6618
 21
34.838
  0
LINE
  8
0
 10
85.6618
 20
34.838
 11
85.6766
 21
34.9311
  0
LINE
  8
0
 10
85.6766
 20
34.9311
 11
85.6971
 21
35.023
  0
LINE
  8
0
 10
85.6971
 20
35.023
 11
85.7234
 21
35.1135
  0
LINE
  8
0
 10
85.7234
 20
35.1135
 11
85.7553
 21
35.2022
  0
LINE
  8
0
 10
85.7553
 20
35.2022
 11
85.7928
 21
35.2887
  0
LINE
  8
0
 10
85.7928
 20
35.2887
 11
85.8355
 21
35.3726
  0
LINE
  8
0
 10
85.8355
 20
35.3726
 11
85.8835
 21
35.4537
  0
LINE
  8
0
 10
85.8835
 20
35.4537
 11
85.9365
 21
35.5317
  0
LINE
  8
0
 10
85.9365
 20
35.5317
 11
85.9942
 21
35.6061
  0
LINE
  8
0
 10
85.9942
 20
35.6061
 11
86.0565
 21
35.6768
  0
LINE
  8
0
 10
86.0565
 20
35.6768
 11
86.1232
 21
35.7434
  0
LINE
  8
0
 10
86.1232
 20
35.7434
 11
86.1939
 21
35.8058
  0
LINE
  8
0
 10
86.1939
 20
35.8058
 11
86.2683
 21
35.8635
  0
LINE
  8
0
 10
86.2683
 20
35.8635
 11
86.3463
 21
35.9165
  0
LINE
  8
0
 10
86.3463
 20
35.9165
 11
86.4274
 21
35.9644
  0
LINE
  8
0
 10
86.4274
 20
35.9644
 11
86.5113
 21
36.0072
  0
LINE
  8
0
 10
86.5113
 20
36.0072
 11
86.5978
 21
36.0447
  0
LINE
  8
0
 10
86.5978
 20
36.0447
 11
86.6865
 21
36.0766
  0
LINE
  8
0
 10
86.6865
 20
36.0766
 11
86.777
 21
36.1029
  0
LINE
  8
0
 10
86.777
 20
36.1029
 11
86.8689
 21
36.1234
  0
LINE
  8
0
 10
86.8689
 20
36.1234
 11
86.962
 21
36.1382
  0
LINE
  8
0
 10
86.962
 20
36.1382
 11
87.0558
 21
36.147
  0
LINE
  8
0
 10
87.0558
 20
36.147
 11
87.15
 21
36.15
  0
LINE
  8
0
 10
87.15
 20
36.15
 11
87.2442
 21
36.147
  0
LINE
  8
0
 10
87.2442
 20
36.147
 11
87.338
 21
36.1382
  0
LINE
  8
0
 10
87.338
 20
36.1382
 11
87.4311
 21
36.1234
  0
LINE
  8
0
 10
87.4311
 20
36.1234
 11
87.523
 21
36.1029
  0
LINE
  8
0
 10
87.523
 20
36.1029
 11
87.6135
 21
36.0766
  0
LINE
  8
0
 10
87.6135
 20
36.0766
 11
87.7022
 21
36.0447
  0
LINE
  8
0
 10
87.7022
 20
36.0447
 11
87.7887
 21
36.0072
  0
LINE
  8
0
 10
87.7887
 20
36.0072
 11
87.8726
 21
35.9644
  0
LINE
  8
0
 10
87.8726
 20
35.9644
 11
87.9537
 21
35.9165
  0
LINE
  8
0
 10
87.9537
 20
35.9165
 11
88.0317
 21
35.8635
  0
LINE
  8
0
 10
88.0317
 20
35.8635
 11
88.1061
 21
35.8058
  0
LINE
  8
0
 10
88.1061
 20
35.8058
 11
88.1768
 21
35.7434
  0
LINE
  8
0
 10
88.1768
 20
35.7434
 11
88.2434
 21
35.6768
  0
LINE
  8
0
 10
88.2434
 20
35.6768
 11
88.3058
 21
35.6061
  0
LINE
  8
0
 10
88.3058
 20
35.6061
 11
88.3635
 21
35.5317
  0
LINE
  8
0
 10
88.3635
 20
35.5317
 11
88.4165
 21
35.4537
  0
LINE
  8
0
 10
88.4165
 20
35.4537
 11
88.4644
 21
35.3726
  0
LINE
  8
0
 10
88.4644
 20
35.3726
 11
88.5072
 21
35.2887
  0
LINE
  8
0
 10
88.5072
 20
35.2887
 11
88.5447
 21
35.2022
  0
LINE
  8
0
 10
88.5447
 20
35.2022
 11
88.5766
 21
35.1135
  0
LINE
  8
0
 10
88.5766
 20
35.1135
 11
88.6029
 21
35.023
  0
LINE
  8
0
 10
88.6029
 20
35.023
 11
88.6234
 21
34.9311
  0
LINE
  8
0
 10
88.6234
 20
34.9311
 11
88.6382
 21
34.838
  0
LINE
  8
0
 10
88.6382
 20
34.838
 11
88.647
 21
34.7442
  0
LINE
  8
0
 10
88.647
 20
34.7442
 11
88.65
 21
34.65
  0
LINE
  8
0
 10
88.65
 20
34.65
 11
88.647
 21
34.5558
  0
LINE
  8
0
 10
88.647
 20
34.5558
 11
88.6382
 21
34.462
  0
LINE
  8
0
 10
88.6382
 20
34.462
 11
88.6234
 21
34.3689
  0
LINE
  8
0
 10
88.6234
 20
34.3689
 11
88.6029
 21
34.277
  0
LINE
  8
0
 10
88.6029
 20
34.277
 11
88.5766
 21
34.1865
  0
LINE
  8
0
 10
88.5766
 20
34.1865
 11
88.5447
 21
34.0978
  0
LINE
  8
0
 10
88.5447
 20
34.0978
 11
88.5072
 21
34.0113
  0
LINE
  8
0
 10
88.5072
 20
34.0113
 11
88.4644
 21
33.9274
  0
LINE
  8
0
 10
88.4644
 20
33.9274
 11
88.4165
 21
33.8463
  0
LINE
  8
0
 10
88.4165
 20
33.8463
 11
88.3635
 21
33.7683
  0
LINE
  8
0
 10
88.3635
 20
33.7683
 11
88.3058
 21
33.6939
  0
LINE
  8
0
 10
88.3058
 20
33.6939
 11
88.2434
 21
33.6232
  0
LINE
  8
0
 10
88.2434
 20
33.6232
 11
88.1768
 21
33.5565
  0
LINE
  8
0
 10
88.1768
 20
33.5565
 11
88.1061
 21
33.4942
  0
LINE
  8
0
 10
88.1061
 20
33.4942
 11
88.0317
 21
33.4365
  0
LINE
  8
0
 10
88.0317
 20
33.4365
 11
87.9537
 21
33.3835
  0
LINE
  8
0
 10
87.9537
 20
33.3835
 11
87.8726
 21
33.3355
  0
LINE
  8
0
 10
87.8726
 20
33.3355
 11
87.7887
 21
33.2928
  0
LINE
  8
0
 10
87.7887
 20
33.2928
 11
87.7022
 21
33.2553
  0
LINE
  8
0
 10
87.7022
 20
33.2553
 11
87.6135
 21
33.2234
  0
LINE
  8
0
 10
87.6135
 20
33.2234
 11
87.523
 21
33.1971
  0
LINE
  8
0
 10
87.523
 20
33.1971
 11
87.4311
 21
33.1766
  0
LINE
  8
0
 10
87.4311
 20
33.1766
 11
87.338
 21
33.1618
  0
LINE
  8
0
 10
87.338
 20
33.1618
 11
87.2442
 21
33.153
  0
LINE
  8
0
 10
87.2442
 20
33.153
 11
87.15
 21
33.15
  0
LINE
  8
0
 10
87.15
 20
33.15
 11
87.0558
 21
33.153
  0
LINE
  8
0
 10
104.256
 20
33.153
 11
104.162
 21
33.1618
  0
LINE
  8
0
 10
104.162
 20
33.1618
 11
104.069
 21
33.1766
  0
LINE
  8
0
 10
104.069
 20
33.1766
 11
103.977
 21
33.1971
  0
LINE
  8
0
 10
103.977
 20
33.1971
 11
103.886
 21
33.2234
  0
LINE
  8
0
 10
103.886
 20
33.2234
 11
103.798
 21
33.2553
  0
LINE
  8
0
 10
103.798
 20
33.2553
 11
103.711
 21
33.2928
  0
LINE
  8
0
 10
103.711
 20
33.2928
 11
103.627
 21
33.3355
  0
LINE
  8
0
 10
103.627
 20
33.3355
 11
103.546
 21
33.3835
  0
LINE
  8
0
 10
103.546
 20
33.3835
 11
103.468
 21
33.4365
  0
LINE
  8
0
 10
103.468
 20
33.4365
 11
103.394
 21
33.4942
  0
LINE
  8
0
 10
103.394
 20
33.4942
 11
103.323
 21
33.5565
  0
LINE
  8
0
 10
103.323
 20
33.5565
 11
103.257
 21
33.6232
  0
LINE
  8
0
 10
103.257
 20
33.6232
 11
103.194
 21
33.6939
  0
LINE
  8
0
 10
103.194
 20
33.6939
 11
103.136
 21
33.7683
  0
LINE
  8
0
 10
103.136
 20
33.7683
 11
103.083
 21
33.8463
  0
LINE
  8
0
 10
103.083
 20
33.8463
 11
103.036
 21
33.9274
  0
LINE
  8
0
 10
103.036
 20
33.9274
 11
102.993
 21
34.0113
  0
LINE
  8
0
 10
102.993
 20
34.0113
 11
102.955
 21
34.0978
  0
LINE
  8
0
 10
102.955
 20
34.0978
 11
102.923
 21
34.1865
  0
LINE
  8
0
 10
102.923
 20
34.1865
 11
102.897
 21
34.277
  0
LINE
  8
0
 10
102.897
 20
34.277
 11
102.877
 21
34.3689
  0
LINE
  8
0
 10
102.877
 20
34.3689
 11
102.862
 21
34.462
  0
LINE
  8
0
 10
102.862
 20
34.462
 11
102.853
 21
34.5558
  0
LINE
  8
0
 10
102.853
 20
34.5558
 11
102.85
 21
34.65
  0
LINE
  8
0
 10
102.85
 20
34.65
 11
102.853
 21
34.7442
  0
LINE
  8
0
 10
102.853
 20
34.7442
 11
102.862
 21
34.838
  0
LINE
  8
0
 10
102.862
 20
34.838
 11
102.877
 21
34.9311
  0
LINE
  8
0
 10
102.877
 20
34.9311
 11
102.897
 21
35.023
  0
LINE
  8
0
 10
102.897
 20
35.023
 11
102.923
 21
35.1135
  0
LINE
  8
0
 10
102.923
 20
35.1135
 11
102.955
 21
35.2022
  0
LINE
  8
0
 10
102.955
 20
35.2022
 11
102.993
 21
35.2887
  0
LINE
  8
0
 10
102.993
 20
35.2887
 11
103.036
 21
35.3726
  0
LINE
  8
0
 10
103.036
 20
35.3726
 11
103.083
 21
35.4537
  0
LINE
  8
0
 10
103.083
 20
35.4537
 11
103.136
 21
35.5317
  0
LINE
  8
0
 10
103.136
 20
35.5317
 11
103.194
 21
35.6061
  0
LINE
  8
0
 10
103.194
 20
35.6061
 11
103.257
 21
35.6768
  0
LINE
  8
0
 10
103.257
 20
35.6768
 11
103.323
 21
35.7434
  0
LINE
  8
0
 10
103.323
 20
35.7434
 11
103.394
 21
35.8058
  0
LINE
  8
0
 10
103.394
 20
35.8058
 11
103.468
 21
35.8635
  0
LINE
  8
0
 10
103.468
 20
35.8635
 11
103.546
 21
35.9165
  0
LINE
  8
0
 10
103.546
 20
35.9165
 11
103.627
 21
35.9644
  0
LINE
  8
0
 10
103.627
 20
35.9644
 11
103.711
 21
36.0072
  0
LINE
  8
0
 10
103.711
 20
36.0072
 11
103.798
 21
36.0447
  0
LINE
  8
0
 10
103.798
 20
36.0447
 11
103.886
 21
36.0766
  0
LINE
  8
0
 10
103.886
 20
36.0766
 11
103.977
 21
36.1029
  0
LINE
  8
0
 10
103.977
 20
36.1029
 11
104.069
 21
36.1234
  0
LINE
  8
0
 10
104.069
 20
36.1234
 11
104.162
 21
36.1382
  0
LINE
  8
0
 10
104.162
 20
36.1382
 11
104.256
 21
36.147
  0
LINE
  8
0
 10
104.256
 20
36.147
 11
104.35
 21
36.15
  0
LINE
  8
0
 10
104.35
 20
36.15
 11
104.444
 21
36.147
  0
LINE
  8
0
 10
104.444
 20
36.147
 11
104.538
 21
36.1382
  0
LINE
  8
0
 10
104.538
 20
36.1382
 11
104.631
 21
36.1234
  0
LINE
  8
0
 10
104.631
 20
36.1234
 11
104.723
 21
36.1029
  0
LINE
  8
0
 10
104.723
 20
36.1029
 11
104.814
 21
36.0766
  0
LINE
  8
0
 10
104.814
 20
36.0766
 11
104.902
 21
36.0447
  0
LINE
  8
0
 10
104.902
 20
36.0447
 11
104.989
 21
36.0072
  0
LINE
  8
0
 10
104.989
 20
36.0072
 11
105.073
 21
35.9644
  0
LINE
  8
0
 10
105.073
 20
35.9644
 11
105.154
 21
35.9165
  0
LINE
  8
0
 10
105.154
 20
35.9165
 11
105.232
 21
35.8635
  0
LINE
  8
0
 10
105.232
 20
35.8635
 11
105.306
 21
35.8058
  0
LINE
  8
0
 10
105.306
 20
35.8058
 11
105.377
 21
35.7434
  0
LINE
  8
0
 10
105.377
 20
35.7434
 11
105.443
 21
35.6768
  0
LINE
  8
0
 10
105.443
 20
35.6768
 11
105.506
 21
35.6061
  0
LINE
  8
0
 10
105.506
 20
35.6061
 11
105.564
 21
35.5317
  0
LINE
  8
0
 10
105.564
 20
35.5317
 11
105.616
 21
35.4537
  0
LINE
  8
0
 10
105.616
 20
35.4537
 11
105.664
 21
35.3726
  0
LINE
  8
0
 10
105.664
 20
35.3726
 11
105.707
 21
35.2887
  0
LINE
  8
0
 10
105.707
 20
35.2887
 11
105.745
 21
35.2022
  0
LINE
  8
0
 10
105.745
 20
35.2022
 11
105.777
 21
35.1135
  0
LINE
  8
0
 10
105.777
 20
35.1135
 11
105.803
 21
35.023
  0
LINE
  8
0
 10
105.803
 20
35.023
 11
105.823
 21
34.9311
  0
LINE
  8
0
 10
105.823
 20
34.9311
 11
105.838
 21
34.838
  0
LINE
  8
0
 10
105.838
 20
34.838
 11
105.847
 21
34.7442
  0
LINE
  8
0
 10
105.847
 20
34.7442
 11
105.85
 21
34.65
  0
LINE
  8
0
 10
105.85
 20
34.65
 11
105.847
 21
34.5558
  0
LINE
  8
0
 10
105.847
 20
34.5558
 11
105.838
 21
34.462
  0
LINE
  8
0
 10
105.838
 20
34.462
 11
105.823
 21
34.3689
  0
LINE
  8
0
 10
105.823
 20
34.3689
 11
105.803
 21
34.277
  0
LINE
  8
0
 10
105.803
 20
34.277
 11
105.777
 21
34.1865
  0
LINE
  8
0
 10
105.777
 20
34.1865
 11
105.745
 21
34.0978
  0
LINE
  8
0
 10
105.745
 20
34.0978
 11
105.707
 21
34.0113
  0
LINE
  8
0
 10
105.707
 20
34.0113
 11
105.664
 21
33.9274
  0
LINE
  8
0
 10
105.664
 20
33.9274
 11
105.616
 21
33.8463
  0
LINE
  8
0
 10
105.616
 20
33.8463
 11
105.564
 21
33.7683
  0
LINE
  8
0
 10
105.564
 20
33.7683
 11
105.506
 21
33.6939
  0
LINE
  8
0
 10
105.506
 20
33.6939
 11
105.443
 21
33.6232
  0
LINE
  8
0
 10
105.443
 20
33.6232
 11
105.377
 21
33.5565
  0
LINE
  8
0
 10
105.377
 20
33.5565
 11
105.306
 21
33.4942
  0
LINE
  8
0
 10
105.306
 20
33.4942
 11
105.232
 21
33.4365
  0
LINE
  8
0
 10
105.232
 20
33.4365
 11
105.154
 21
33.3835
  0
LINE
  8
0
 10
105.154
 20
33.3835
 11
105.073
 21
33.3355
  0
LINE
  8
0
 10
105.073
 20
33.3355
 11
104.989
 21
33.2928
  0
LINE
  8
0
 10
104.989
 20
33.2928
 11
104.902
 21
33.2553
  0
LINE
  8
0
 10
104.902
 20
33.2553
 11
104.814
 21
33.2234
  0
LINE
  8
0
 10
104.814
 20
33.2234
 11
104.723
 21
33.1971
  0
LINE
  8
0
 10
104.723
 20
33.1971
 11
104.631
 21
33.1766
  0
LINE
  8
0
 10
104.631
 20
33.1766
 11
104.538
 21
33.1618
  0
LINE
  8
0
 10
104.538
 20
33.1618
 11
104.444
 21
33.153
  0
LINE
  8
0
 10
104.444
 20
33.153
 11
104.35
 21
33.15
  0
LINE
  8
0
 10
104.35
 20
33.15
 11
104.256
 21
33.153
  0
LINE
  8
0
 10
95.6244
 20
23.4539
 11
95.4993
 21
23.4658
  0
LINE
  8
0
 10
95.4993
 20
23.4658
 11
95.3752
 21
23.4854
  0
LINE
  8
0
 10
95.3752
 20
23.4854
 11
95.2526
 21
23.5128
  0
LINE
  8
0
 10
95.2526
 20
23.5128
 11
95.132
 21
23.5479
  0
LINE
  8
0
 10
95.132
 20
23.5479
 11
95.0137
 21
23.5904
  0
LINE
  8
0
 10
95.0137
 20
23.5904
 11
94.8984
 21
23.6403
  0
LINE
  8
0
 10
94.8984
 20
23.6403
 11
94.7865
 21
23.6974
  0
LINE
  8
0
 10
94.7865
 20
23.6974
 11
94.6783
 21
23.7613
  0
LINE
  8
0
 10
94.6783
 20
23.7613
 11
94.5744
 21
23.832
  0
LINE
  8
0
 10
94.5744
 20
23.832
 11
94.4751
 21
23.909
  0
LINE
  8
0
 10
94.4751
 20
23.909
 11
94.3809
 21
23.9921
  0
LINE
  8
0
 10
94.3809
 20
23.9921
 11
94.2921
 21
24.0809
  0
LINE
  8
0
 10
94.2921
 20
24.0809
 11
94.209
 21
24.1751
  0
LINE
  8
0
 10
94.209
 20
24.1751
 11
94.132
 21
24.2744
  0
LINE
  8
0
 10
94.132
 20
24.2744
 11
94.0613
 21
24.3783
  0
LINE
  8
0
 10
94.0613
 20
24.3783
 11
93.9974
 21
24.4865
  0
LINE
  8
0
 10
93.9974
 20
24.4865
 11
93.9403
 21
24.5984
  0
LINE
  8
0
 10
93.9403
 20
24.5984
 11
93.8904
 21
24.7137
  0
LINE
  8
0
 10
93.8904
 20
24.7137
 11
93.8479
 21
24.832
  0
LINE
  8
0
 10
93.8479
 20
24.832
 11
93.8128
 21
24.9526
  0
LINE
  8
0
 10
93.8128
 20
24.9526
 11
93.7854
 21
25.0752
  0
LINE
  8
0
 10
93.7854
 20
25.0752
 11
93.7658
 21
25.1993
  0
LINE
  8
0
 10
93.7658
 20
25.1993
 11
93.7539
 21
25.3244
  0
LINE
  8
0
 10
93.7539
 20
25.3244
 11
93.75
 21
25.45
  0
LINE
  8
0
 10
93.75
 20
25.45
 11
93.7539
 21
25.5756
  0
LINE
  8
0
 10
93.7539
 20
25.5756
 11
93.7658
 21
25.7007
  0
LINE
  8
0
 10
93.7658
 20
25.7007
 11
93.7854
 21
25.8248
  0
LINE
  8
0
 10
93.7854
 20
25.8248
 11
93.8128
 21
25.9474
  0
LINE
  8
0
 10
93.8128
 20
25.9474
 11
93.8479
 21
26.068
  0
LINE
  8
0
 10
93.8479
 20
26.068
 11
93.8904
 21
26.1862
  0
LINE
  8
0
 10
93.8904
 20
26.1862
 11
93.9403
 21
26.3015
  0
LINE
  8
0
 10
93.9403
 20
26.3015
 11
93.9974
 21
26.4135
  0
LINE
  8
0
 10
93.9974
 20
26.4135
 11
94.0613
 21
26.5217
  0
LINE
  8
0
 10
94.0613
 20
26.5217
 11
94.132
 21
26.6256
  0
LINE
  8
0
 10
94.132
 20
26.6256
 11
94.209
 21
26.7248
  0
LINE
  8
0
 10
94.209
 20
26.7248
 11
94.2921
 21
26.8191
  0
LINE
  8
0
 10
94.2921
 20
26.8191
 11
94.3809
 21
26.9079
  0
LINE
  8
0
 10
94.3809
 20
26.9079
 11
94.4751
 21
26.991
  0
LINE
  8
0
 10
94.4751
 20
26.991
 11
94.5744
 21
27.068
  0
LINE
  8
0
 10
94.5744
 20
27.068
 11
94.6783
 21
27.1386
  0
LINE
  8
0
 10
94.6783
 20
27.1386
 11
94.7865
 21
27.2026
  0
LINE
  8
0
 10
94.7865
 20
27.2026
 11
94.8984
 21
27.2596
  0
LINE
  8
0
 10
94.8984
 20
27.2596
 11
95.0137
 21
27.3095
  0
LINE
  8
0
 10
95.0137
 20
27.3095
 11
95.132
 21
27.3521
  0
LINE
  8
0
 10
95.132
 20
27.3521
 11
95.2526
 21
27.3872
  0
LINE
  8
0
 10
95.2526
 20
27.3872
 11
95.3752
 21
27.4146
  0
LINE
  8
0
 10
95.3752
 20
27.4146
 11
95.4993
 21
27.4342
  0
LINE
  8
0
 10
95.4993
 20
27.4342
 11
95.6244
 21
27.446
  0
LINE
  8
0
 10
95.6244
 20
27.446
 11
95.75
 21
27.45
  0
LINE
  8
0
 10
95.75
 20
27.45
 11
95.8756
 21
27.446
  0
LINE
  8
0
 10
95.8756
 20
27.446
 11
96.0007
 21
27.4342
  0
LINE
  8
0
 10
96.0007
 20
27.4342
 11
96.1248
 21
27.4146
  0
LINE
  8
0
 10
96.1248
 20
27.4146
 11
96.2474
 21
27.3872
  0
LINE
  8
0
 10
96.2474
 20
27.3872
 11
96.368
 21
27.3521
  0
LINE
  8
0
 10
96.368
 20
27.3521
 11
96.4862
 21
27.3095
  0
LINE
  8
0
 10
96.4862
 20
27.3095
 11
96.6015
 21
27.2596
  0
LINE
  8
0
 10
96.6015
 20
27.2596
 11
96.7135
 21
27.2026
  0
LINE
  8
0
 10
96.7135
 20
27.2026
 11
96.8216
 21
27.1386
  0
LINE
  8
0
 10
96.8216
 20
27.1386
 11
96.9256
 21
27.068
  0
LINE
  8
0
 10
96.9256
 20
27.068
 11
97.0248
 21
26.991
  0
LINE
  8
0
 10
97.0248
 20
26.991
 11
97.1191
 21
26.9079
  0
LINE
  8
0
 10
97.1191
 20
26.9079
 11
97.2079
 21
26.8191
  0
LINE
  8
0
 10
97.2079
 20
26.8191
 11
97.291
 21
26.7248
  0
LINE
  8
0
 10
97.291
 20
26.7248
 11
97.368
 21
26.6256
  0
LINE
  8
0
 10
97.368
 20
26.6256
 11
97.4386
 21
26.5217
  0
LINE
  8
0
 10
97.4386
 20
26.5217
 11
97.5026
 21
26.4135
  0
LINE
  8
0
 10
97.5026
 20
26.4135
 11
97.5596
 21
26.3015
  0
LINE
  8
0
 10
97.5596
 20
26.3015
 11
97.6095
 21
26.1862
  0
LINE
  8
0
 10
97.6095
 20
26.1862
 11
97.6521
 21
26.068
  0
LINE
  8
0
 10
97.6521
 20
26.068
 11
97.6872
 21
25.9474
  0
LINE
  8
0
 10
97.6872
 20
25.9474
 11
97.7146
 21
25.8248
  0
LINE
  8
0
 10
97.7146
 20
25.8248
 11
97.7342
 21
25.7007
  0
LINE
  8
0
 10
97.7342
 20
25.7007
 11
97.746
 21
25.5756
  0
LINE
  8
0
 10
97.746
 20
25.5756
 11
97.75
 21
25.45
  0
LINE
  8
0
 10
97.75
 20
25.45
 11
97.746
 21
25.3244
  0
LINE
  8
0
 10
97.746
 20
25.3244
 11
97.7342
 21
25.1993
  0
LINE
  8
0
 10
97.7342
 20
25.1993
 11
97.7146
 21
25.0752
  0
LINE
  8
0
 10
97.7146
 20
25.0752
 11
97.6872
 21
24.9526
  0
LINE
  8
0
 10
97.6872
 20
24.9526
 11
97.6521
 21
24.832
  0
LINE
  8
0
 10
97.6521
 20
24.832
 11
97.6095
 21
24.7137
  0
LINE
  8
0
 10
97.6095
 20
24.7137
 11
97.5596
 21
24.5984
  0
LINE
  8
0
 10
97.5596
 20
24.5984
 11
97.5026
 21
24.4865
  0
LINE
  8
0
 10
97.5026
 20
24.4865
 11
97.4386
 21
24.3783
  0
LINE
  8
0
 10
97.4386
 20
24.3783
 11
97.368
 21
24.2744
  0
LINE
  8
0
 10
97.368
 20
24.2744
 11
97.291
 21
24.1751
  0
LINE
  8
0
 10
97.291
 20
24.1751
 11
97.2079
 21
24.0809
  0
LINE
  8
0
 10
97.2079
 20
24.0809
 11
97.1191
 21
23.9921
  0
LINE
  8
0
 10
97.1191
 20
23.9921
 11
97.0248
 21
23.909
  0
LINE
  8
0
 10
97.0248
 20
23.909
 11
96.9256
 21
23.832
  0
LINE
  8
0
 10
96.9256
 20
23.832
 11
96.8216
 21
23.7613
  0
LINE
  8
0
 10
96.8216
 20
23.7613
 11
96.7135
 21
23.6974
  0
LINE
  8
0
 10
96.7135
 20
23.6974
 11
96.6015
 21
23.6403
  0
LINE
  8
0
 10
96.6015
 20
23.6403
 11
96.4862
 21
23.5904
  0
LINE
  8
0
 10
96.4862
 20
23.5904
 11
96.368
 21
23.5479
  0
LINE
  8
0
 10
96.368
 20
23.5479
 11
96.2474
 21
23.5128
  0
LINE
  8
0
 10
96.2474
 20
23.5128
 11
96.1248
 21
23.4854
  0
LINE
  8
0
 10
96.1248
 20
23.4854
 11
96.0007
 21
23.4658
  0
LINE
  8
0
 10
96.0007
 20
23.4658
 11
95.8756
 21
23.4539
  0
LINE
  8
0
 10
95.8756
 20
23.4539
 11
95.75
 21
23.45
  0
LINE
  8
0
 10
95.75
 20
23.45
 11
95.6244
 21
23.4539
  0
LINE
  8
0
 10
95.5145
 20
10.4574
 11
95.28
 21
10.4796
  0
LINE
  8
0
 10
95.28
 20
10.4796
 11
95.0473
 21
10.5164
  0
LINE
  8
0
 10
95.0473
 20
10.5164
 11
94.8174
 21
10.5678
  0
LINE
  8
0
 10
94.8174
 20
10.5678
 11
94.5912
 21
10.6335
  0
LINE
  8
0
 10
94.5912
 20
10.6335
 11
94.3695
 21
10.7133
  0
LINE
  8
0
 10
94.3695
 20
10.7133
 11
94.1533
 21
10.8069
  0
LINE
  8
0
 10
94.1533
 20
10.8069
 11
93.9434
 21
10.9138
  0
LINE
  8
0
 10
93.9434
 20
10.9138
 11
93.7406
 21
11.0338
  0
LINE
  8
0
 10
93.7406
 20
11.0338
 11
93.5458
 21
11.1662
  0
LINE
  8
0
 10
93.5458
 20
11.1662
 11
93.3596
 21
11.3106
  0
LINE
  8
0
 10
93.3596
 20
11.3106
 11
93.1829
 21
11.4664
  0
LINE
  8
0
 10
93.1829
 20
11.4664
 11
93.0164
 21
11.6329
  0
LINE
  8
0
 10
93.0164
 20
11.6329
 11
92.8606
 21
11.8096
  0
LINE
  8
0
 10
92.8606
 20
11.8096
 11
92.7162
 21
11.9958
  0
LINE
  8
0
 10
92.7162
 20
11.9958
 11
92.5838
 21
12.1906
  0
LINE
  8
0
 10
92.5838
 20
12.1906
 11
92.4638
 21
12.3934
  0
LINE
  8
0
 10
92.4638
 20
12.3934
 11
92.3569
 21
12.6033
  0
LINE
  8
0
 10
92.3569
 20
12.6033
 11
92.2633
 21
12.8195
  0
LINE
  8
0
 10
92.2633
 20
12.8195
 11
92.1835
 21
13.0412
  0
LINE
  8
0
 10
92.1835
 20
13.0412
 11
92.1178
 21
13.2674
  0
LINE
  8
0
 10
92.1178
 20
13.2674
 11
92.0664
 21
13.4973
  0
LINE
  8
0
 10
92.0664
 20
13.4973
 11
92.0296
 21
13.73
  0
LINE
  8
0
 10
92.0296
 20
13.73
 11
92.0074
 21
13.9645
  0
LINE
  8
0
 10
92.0074
 20
13.9645
 11
92
 21
14.2
  0
LINE
  8
0
 10
92
 20
14.2
 11
92.0074
 21
14.4355
  0
LINE
  8
0
 10
92.0074
 20
14.4355
 11
92.0296
 21
14.67
  0
LINE
  8
0
 10
92.0296
 20
14.67
 11
92.0664
 21
14.9027
  0
LINE
  8
0
 10
92.0664
 20
14.9027
 11
92.1178
 21
15.1326
  0
LINE
  8
0
 10
92.1178
 20
15.1326
 11
92.1835
 21
15.3588
  0
LINE
  8
0
 10
92.1835
 20
15.3588
 11
92.2633
 21
15.5805
  0
LINE
  8
0
 10
92.2633
 20
15.5805
 11
92.3569
 21
15.7967
  0
LINE
  8
0
 10
92.3569
 20
15.7967
 11
92.4638
 21
16.0066
  0
LINE
  8
0
 10
92.4638
 20
16.0066
 11
92.5838
 21
16.2093
  0
LINE
  8
0
 10
92.5838
 20
16.2093
 11
92.7162
 21
16.4042
  0
LINE
  8
0
 10
92.7162
 20
16.4042
 11
92.8606
 21
16.5903
  0
LINE
  8
0
 10
92.8606
 20
16.5903
 11
93.0164
 21
16.767
  0
LINE
  8
0
 10
93.0164
 20
16.767
 11
93.1829
 21
16.9336
  0
LINE
  8
0
 10
93.1829
 20
16.9336
 11
93.3596
 21
17.0894
  0
LINE
  8
0
 10
93.3596
 20
17.0894
 11
93.5458
 21
17.2338
  0
LINE
  8
0
 10
93.5458
 20
17.2338
 11
93.7406
 21
17.3662
  0
LINE
  8
0
 10
93.7406
 20
17.3662
 11
93.9434
 21
17.4861
  0
LINE
  8
0
 10
93.9434
 20
17.4861
 11
94.1533
 21
17.5931
  0
LINE
  8
0
 10
94.1533
 20
17.5931
 11
94.3695
 21
17.6867
  0
LINE
  8
0
 10
94.3695
 20
17.6867
 11
94.5912
 21
17.7664
  0
LINE
  8
0
 10
94.5912
 20
17.7664
 11
94.8174
 21
17.8322
  0
LINE
  8
0
 10
94.8174
 20
17.8322
 11
95.0473
 21
17.8836
  0
LINE
  8
0
 10
95.0473
 20
17.8836
 11
95.28
 21
17.9204
  0
LINE
  8
0
 10
95.28
 20
17.9204
 11
95.5145
 21
17.9426
  0
LINE
  8
0
 10
95.5145
 20
17.9426
 11
95.75
 21
17.95
  0
LINE
  8
0
 10
95.75
 20
17.95
 11
95.9855
 21
17.9426
  0
LINE
  8
0
 10
95.9855
 20
17.9426
 11
96.22
 21
17.9204
  0
LINE
  8
0
 10
96.22
 20
17.9204
 11
96.4527
 21
17.8836
  0
LINE
  8
0
 10
96.4527
 20
17.8836
 11
96.6826
 21
17.8322
  0
LINE
  8
0
 10
96.6826
 20
17.8322
 11
96.9088
 21
17.7664
  0
LINE
  8
0
 10
96.9088
 20
17.7664
 11
97.1305
 21
17.6867
  0
LINE
  8
0
 10
97.1305
 20
17.6867
 11
97.3467
 21
17.5931
  0
LINE
  8
0
 10
97.3467
 20
17.5931
 11
97.5566
 21
17.4861
  0
LINE
  8
0
 10
97.5566
 20
17.4861
 11
97.7593
 21
17.3662
  0
LINE
  8
0
 10
97.7593
 20
17.3662
 11
97.9542
 21
17.2338
  0
LINE
  8
0
 10
97.9542
 20
17.2338
 11
98.1403
 21
17.0894
  0
LINE
  8
0
 10
98.1403
 20
17.0894
 11
98.317
 21
16.9336
  0
LINE
  8
0
 10
98.317
 20
16.9336
 11
98.4836
 21
16.767
  0
LINE
  8
0
 10
98.4836
 20
16.767
 11
98.6394
 21
16.5903
  0
LINE
  8
0
 10
98.6394
 20
16.5903
 11
98.7838
 21
16.4042
  0
LINE
  8
0
 10
98.7838
 20
16.4042
 11
98.9162
 21
16.2093
  0
LINE
  8
0
 10
98.9162
 20
16.2093
 11
99.0361
 21
16.0066
  0
LINE
  8
0
 10
99.0361
 20
16.0066
 11
99.1431
 21
15.7967
  0
LINE
  8
0
 10
99.1431
 20
15.7967
 11
99.2366
 21
15.5805
  0
LINE
  8
0
 10
99.2366
 20
15.5805
 11
99.3165
 21
15.3588
  0
LINE
  8
0
 10
99.3165
 20
15.3588
 11
99.3822
 21
15.1326
  0
LINE
  8
0
 10
99.3822
 20
15.1326
 11
99.4336
 21
14.9027
  0
LINE
  8
0
 10
99.4336
 20
14.9027
 11
99.4704
 21
14.67
  0
LINE
  8
0
 10
99.4704
 20
14.67
 11
99.4926
 21
14.4355
  0
LINE
  8
0
 10
99.4926
 20
14.4355
 11
99.5
 21
14.2
  0
LINE
  8
0
 10
99.5
 20
14.2
 11
99.4926
 21
13.9645
  0
LINE
  8
0
 10
99.4926
 20
13.9645
 11
99.4704
 21
13.73
  0
LINE
  8
0
 10
99.4704
 20
13.73
 11
99.4336
 21
13.4973
  0
LINE
  8
0
 10
99.4336
 20
13.4973
 11
99.3822
 21
13.2674
  0
LINE
  8
0
 10
99.3822
 20
13.2674
 11
99.3165
 21
13.0412
  0
LINE
  8
0
 10
99.3165
 20
13.0412
 11
99.2366
 21
12.8195
  0
LINE
  8
0
 10
99.2366
 20
12.8195
 11
99.1431
 21
12.6033
  0
LINE
  8
0
 10
99.1431
 20
12.6033
 11
99.0361
 21
12.3934
  0
LINE
  8
0
 10
99.0361
 20
12.3934
 11
98.9162
 21
12.1906
  0
LINE
  8
0
 10
98.9162
 20
12.1906
 11
98.7838
 21
11.9958
  0
LINE
  8
0
 10
98.7838
 20
11.9958
 11
98.6394
 21
11.8096
  0
LINE
  8
0
 10
98.6394
 20
11.8096
 11
98.4836
 21
11.6329
  0
LINE
  8
0
 10
98.4836
 20
11.6329
 11
98.317
 21
11.4664
  0
LINE
  8
0
 10
98.317
 20
11.4664
 11
98.1403
 21
11.3106
  0
LINE
  8
0
 10
98.1403
 20
11.3106
 11
97.9542
 21
11.1662
  0
LINE
  8
0
 10
97.9542
 20
11.1662
 11
97.7593
 21
11.0338
  0
LINE
  8
0
 10
97.7593
 20
11.0338
 11
97.5566
 21
10.9138
  0
LINE
  8
0
 10
97.5566
 20
10.9138
 11
97.3467
 21
10.8069
  0
LINE
  8
0
 10
97.3467
 20
10.8069
 11
97.1305
 21
10.7133
  0
LINE
  8
0
 10
97.1305
 20
10.7133
 11
96.9088
 21
10.6335
  0
LINE
  8
0
 10
96.9088
 20
10.6335
 11
96.6826
 21
10.5678
  0
LINE
  8
0
 10
96.6826
 20
10.5678
 11
96.4527
 21
10.5164
  0
LINE
  8
0
 10
96.4527
 20
10.5164
 11
96.22
 21
10.4796
  0
LINE
  8
0
 10
96.22
 20
10.4796
 11
95.9855
 21
10.4574
  0
LINE
  8
0
 10
95.9855
 20
10.4574
 11
95.75
 21
10.45
  0
LINE
  8
0
 10
95.75
 20
10.45
 11
95.5145
 21
10.4574
  0
LINE
  8
0
 10
25.75
 20
3
 11
47.25
 21
3
  0
LINE
  8
0
 10
47.25
 20
3
 11
47.25
 21
0
  0
LINE
  8
0
 10
47.25
 20
0
 11
59.25
 21
0
  0
LINE
  8
0
 10
59.25
 20
0
 11
59.25
 21
3
  0
LINE
  8
0
 10
59.25
 20
3
 11
70
 21
3
  0
LINE
  8
0
 10
70
 20
3
 11
70
 21
13.75
  0
LINE
  8
0
 10
70
 20
13.75
 11
73
 21
13.75
  0
LINE
  8
0
 10
73
 20
13.75
 11
73
 21
18.25
  0
LINE
  8
0
 10
73
 20
18.25
 11
71
 21
18.25
  0
LINE
  8
0
 10
71
 20
18.25
 11
70.9058
 21
18.2529
  0
LINE
  8
0
 10
70.9058
 20
18.2529
 11
70.812
 21
18.2618
  0
LINE
  8
0
 10
70.812
 20
18.2618
 11
70.7189
 21
18.2766
  0
LINE
  8
0
 10
70.7189
 20
18.2766
 11
70.627
 21
18.2971
  0
LINE
  8
0
 10
70.627
 20
18.2971
 11
70.5365
 21
18.3234
  0
LINE
  8
0
 10
70.5365
 20
18.3234
 11
70.4478
 21
18.3553
  0
LINE
  8
0
 10
70.4478
 20
18.3553
 11
70.3613
 21
18.3927
  0
LINE
  8
0
 10
70.3613
 20
18.3927
 11
70.2774
 21
18.4355
  0
LINE
  8
0
 10
70.2774
 20
18.4355
 11
70.1963
 21
18.4835
  0
LINE
  8
0
 10
70.1963
 20
18.4835
 11
70.1183
 21
18.5365
  0
LINE
  8
0
 10
70.1183
 20
18.5365
 11
70.0439
 21
18.5942
  0
LINE
  8
0
 10
70.0439
 20
18.5942
 11
69.9732
 21
18.6565
  0
LINE
  8
0
 10
69.9732
 20
18.6565
 11
69.9065
 21
18.7232
  0
LINE
  8
0
 10
69.9065
 20
18.7232
 11
69.8442
 21
18.7939
  0
LINE
  8
0
 10
69.8442
 20
18.7939
 11
69.7865
 21
18.8683
  0
LINE
  8
0
 10
69.7865
 20
18.8683
 11
69.7335
 21
18.9463
  0
LINE
  8
0
 10
69.7335
 20
18.9463
 11
69.6855
 21
19.0274
  0
LINE
  8
0
 10
69.6855
 20
19.0274
 11
69.6427
 21
19.1113
  0
LINE
  8
0
 10
69.6427
 20
19.1113
 11
69.6053
 21
19.1978
  0
LINE
  8
0
 10
69.6053
 20
19.1978
 11
69.5734
 21
19.2865
  0
LINE
  8
0
 10
69.5734
 20
19.2865
 11
69.5471
 21
19.377
  0
LINE
  8
0
 10
69.5471
 20
19.377
 11
69.5266
 21
19.4689
  0
LINE
  8
0
 10
69.5266
 20
19.4689
 11
69.5118
 21
19.562
  0
LINE
  8
0
 10
69.5118
 20
19.562
 11
69.5029
 21
19.6558
  0
LINE
  8
0
 10
69.5029
 20
19.6558
 11
69.5
 21
19.75
  0
LINE
  8
0
 10
69.5
 20
19.75
 11
69.5029
 21
19.8442
  0
LINE
  8
0
 10
69.5029
 20
19.8442
 11
69.5118
 21
19.938
  0
LINE
  8
0
 10
69.5118
 20
19.938
 11
69.5266
 21
20.0311
  0
LINE
  8
0
 10
69.5266
 20
20.0311
 11
69.5471
 21
20.123
  0
LINE
  8
0
 10
69.5471
 20
20.123
 11
69.5734
 21
20.2135
  0
LINE
  8
0
 10
69.5734
 20
20.2135
 11
69.6053
 21
20.3022
  0
LINE
  8
0
 10
69.6053
 20
20.3022
 11
69.6427
 21
20.3887
  0
LINE
  8
0
 10
69.6427
 20
20.3887
 11
69.6855
 21
20.4726
  0
LINE
  8
0
 10
69.6855
 20
20.4726
 11
69.7335
 21
20.5537
  0
LINE
  8
0
 10
69.7335
 20
20.5537
 11
69.7865
 21
20.6317
  0
LINE
  8
0
 10
69.7865
 20
20.6317
 11
69.8442
 21
20.7061
  0
LINE
  8
0
 10
69.8442
 20
20.7061
 11
69.9065
 21
20.7768
  0
LINE
  8
0
 10
69.9065
 20
20.7768
 11
69.9732
 21
20.8434
  0
LINE
  8
0
 10
69.9732
 20
20.8434
 11
70.0439
 21
20.9058
  0
LINE
  8
0
 10
70.0439
 20
20.9058
 11
70.1183
 21
20.9635
  0
LINE
  8
0
 10
70.1183
 20
20.9635
 11
70.1963
 21
21.0165
  0
LINE
  8
0
 10
70.1963
 20
21.0165
 11
70.2774
 21
21.0645
  0
LINE
  8
0
 10
70.2774
 20
21.0645
 11
70.3613
 21
21.1072
  0
LINE
  8
0
 10
70.3613
 20
21.1072
 11
70.4478
 21
21.1447
  0
LINE
  8
0
 10
70.4478
 20
21.1447
 11
70.5365
 21
21.1766
  0
LINE
  8
0
 10
70.5365
 20
21.1766
 11
70.627
 21
21.2029
  0
LINE
  8
0
 10
70.627
 20
21.2029
 11
70.7189
 21
21.2234
  0
LINE
  8
0
 10
70.7189
 20
21.2234
 11
70.812
 21
21.2382
  0
LINE
  8
0
 10
70.812
 20
21.2382
 11
70.9058
 21
21.247
  0
LINE
  8
0
 10
70.9058
 20
21.247
 11
71
 21
21.25
  0
LINE
  8
0
 10
71
 20
21.25
 11
73
 21
21.25
  0
LINE
  8
0
 10
73
 20
21.25
 11
73
 21
25.75
  0
LINE
  8
0
 10
73
 20
25.75
 11
70
 21
25.75
  0
LINE
  8
0
 10
70
 20
25.75
 11
70
 21
47.25
  0
LINE
  8
0
 10
70
 20
47.25
 11
73
 21
47.25
  0
LINE
  8
0
 10
73
 20
47.25
 11
73
 21
51.75
  0
LINE
  8
0
 10
73
 20
51.75
 11
71
 21
51.75
  0
LINE
  8
0
 10
71
 20
51.75
 11
70.9058
 21
51.7529
  0
LINE
  8
0
 10
70.9058
 20
51.7529
 11
70.812
 21
51.7618
  0
LINE
  8
0
 10
70.812
 20
51.7618
 11
70.7189
 21
51.7766
  0
LINE
  8
0
 10
70.7189
 20
51.7766
 11
70.627
 21
51.7971
  0
LINE
  8
0
 10
70.627
 20
51.7971
 11
70.5365
 21
51.8234
  0
LINE
  8
0
 10
70.5365
 20
51.8234
 11
70.4478
 21
51.8553
  0
LINE
  8
0
 10
70.4478
 20
51.8553
 11
70.3613
 21
51.8927
  0
LINE
  8
0
 10
70.3613
 20
51.8927
 11
70.2774
 21
51.9355
  0
LINE
  8
0
 10
70.2774
 20
51.9355
 11
70.1963
 21
51.9835
  0
LINE
  8
0
 10
70.1963
 20
51.9835
 11
70.1183
 21
52.0365
  0
LINE
  8
0
 10
70.1183
 20
52.0365
 11
70.0439
 21
52.0942
  0
LINE
  8
0
 10
70.0439
 20
52.0942
 11
69.9732
 21
52.1565
  0
LINE
  8
0
 10
69.9732
 20
52.1565
 11
69.9065
 21
52.2232
  0
LINE
  8
0
 10
69.9065
 20
52.2232
 11
69.8442
 21
52.2939
  0
LINE
  8
0
 10
69.8442
 20
52.2939
 11
69.7865
 21
52.3683
  0
LINE
  8
0
 10
69.7865
 20
52.3683
 11
69.7335
 21
52.4463
  0
LINE
  8
0
 10
69.7335
 20
52.4463
 11
69.6855
 21
52.5274
  0
LINE
  8
0
 10
69.6855
 20
52.5274
 11
69.6427
 21
52.6113
  0
LINE
  8
0
 10
69.6427
 20
52.6113
 11
69.6053
 21
52.6978
  0
LINE
  8
0
 10
69.6053
 20
52.6978
 11
69.5734
 21
52.7865
  0
LINE
  8
0
 10
69.5734
 20
52.7865
 11
69.5471
 21
52.877
  0
LINE
  8
0
 10
69.5471
 20
52.877
 11
69.5266
 21
52.9689
  0
LINE
  8
0
 10
69.5266
 20
52.9689
 11
69.5118
 21
53.062
  0
LINE
  8
0
 10
69.5118
 20
53.062
 11
69.5029
 21
53.1558
  0
LINE
  8
0
 10
69.5029
 20
53.1558
 11
69.5
 21
53.25
  0
LINE
  8
0
 10
69.5
 20
53.25
 11
69.5029
 21
53.3442
  0
LINE
  8
0
 10
69.5029
 20
53.3442
 11
69.5118
 21
53.438
  0
LINE
  8
0
 10
69.5118
 20
53.438
 11
69.5266
 21
53.5311
  0
LINE
  8
0
 10
69.5266
 20
53.5311
 11
69.5471
 21
53.623
  0
LINE
  8
0
 10
69.5471
 20
53.623
 11
69.5734
 21
53.7135
  0
LINE
  8
0
 10
69.5734
 20
53.7135
 11
69.6053
 21
53.8022
  0
LINE
  8
0
 10
69.6053
 20
53.8022
 11
69.6427
 21
53.8887
  0
LINE
  8
0
 10
69.6427
 20
53.8887
 11
69.6855
 21
53.9726
  0
LINE
  8
0
 10
69.6855
 20
53.9726
 11
69.7335
 21
54.0537
  0
LINE
  8
0
 10
69.7335
 20
54.0537
 11
69.7865
 21
54.1317
  0
LINE
  8
0
 10
69.7865
 20
54.1317
 11
69.8442
 21
54.2061
  0
LINE
  8
0
 10
69.8442
 20
54.2061
 11
69.9065
 21
54.2768
  0
LINE
  8
0
 10
69.9065
 20
54.2768
 11
69.9732
 21
54.3434
  0
LINE
  8
0
 10
69.9732
 20
54.3434
 11
70.0439
 21
54.4058
  0
LINE
  8
0
 10
70.0439
 20
54.4058
 11
70.1183
 21
54.4635
  0
LINE
  8
0
 10
70.1183
 20
54.4635
 11
70.1963
 21
54.5165
  0
LINE
  8
0
 10
70.1963
 20
54.5165
 11
70.2774
 21
54.5645
  0
LINE
  8
0
 10
70.2774
 20
54.5645
 11
70.3613
 21
54.6072
  0
LINE
  8
0
 10
70.3613
 20
54.6072
 11
70.4478
 21
54.6447
  0
LINE
  8
0
 10
70.4478
 20
54.6447
 11
70.5365
 21
54.6766
  0
LINE
  8
0
 10
70.5365
 20
54.6766
 11
70.627
 21
54.7029
  0
LINE
  8
0
 10
70.627
 20
54.7029
 11
70.7189
 21
54.7234
  0
LINE
  8
0
 10
70.7189
 20
54.7234
 11
70.812
 21
54.7382
  0
LINE
  8
0
 10
70.812
 20
54.7382
 11
70.9058
 21
54.747
  0
LINE
  8
0
 10
70.9058
 20
54.747
 11
71
 21
54.75
  0
LINE
  8
0
 10
71
 20
54.75
 11
73
 21
54.75
  0
LINE
  8
0
 10
73
 20
54.75
 11
73
 21
59.25
  0
LINE
  8
0
 10
73
 20
59.25
 11
70
 21
59.25
  0
LINE
  8
0
 10
70
 20
59.25
 11
70
 21
70
  0
LINE
  8
0
 10
70
 20
70
 11
59.25
 21
70
  0
LINE
  8
0
 10
59.25
 20
70
 11
59.25
 21
73
  0
LINE
  8
0
 10
59.25
 20
73
 11
47.25
 21
73
  0
LINE
  8
0
 10
47.25
 20
73
 11
47.25
 21
70
  0
LINE
  8
0
 10
47.25
 20
70
 11
25.75
 21
70
  0
LINE
  8
0
 10
25.75
 20
70
 11
25.75
 21
73
  0
LINE
  8
0
 10
25.75
 20
73
 11
13.75
 21
73
  0
LINE
  8
0
 10
13.75
 20
73
 11
13.75
 21
70
  0
LINE
  8
0
 10
13.75
 20
70
 11
3
 21
70
  0
LINE
  8
0
 10
3
 20
70
 11
3
 21
59.25
  0
LINE
  8
0
 10
3
 20
59.25
 11
0
 21
59.25
  0
LINE
  8
0
 10
0
 20
59.25
 11
0
 21
54.75
  0
LINE
  8
0
 10
0
 20
54.75
 11
2.00002
 21
54.75
  0
LINE
  8
0
 10
2.00002
 20
54.75
 11
2.09419
 21
54.747
  0
LINE
  8
0
 10
2.09419
 20
54.747
 11
2.188
 21
54.7382
  0
LINE
  8
0
 10
2.188
 20
54.7382
 11
2.28108
 21
54.7234
  0
LINE
  8
0
 10
2.28108
 20
54.7234
 11
2.37305
 21
54.7029
  0
LINE
  8
0
 10
2.37305
 20
54.7029
 11
2.46353
 21
54.6766
  0
LINE
  8
0
 10
2.46353
 20
54.6766
 11
2.5522
 21
54.6447
  0
LINE
  8
0
 10
2.5522
 20
54.6447
 11
2.63867
 21
54.6072
  0
LINE
  8
0
 10
2.63867
 20
54.6072
 11
2.72264
 21
54.5645
  0
LINE
  8
0
 10
2.72264
 20
54.5645
 11
2.80374
 21
54.5165
  0
LINE
  8
0
 10
2.80374
 20
54.5165
 11
2.88168
 21
54.4635
  0
LINE
  8
0
 10
2.88168
 20
54.4635
 11
2.95615
 21
54.4058
  0
LINE
  8
0
 10
2.95615
 20
54.4058
 11
3.02681
 21
54.3434
  0
LINE
  8
0
 10
3.02681
 20
54.3434
 11
3.09344
 21
54.2768
  0
LINE
  8
0
 10
3.09344
 20
54.2768
 11
3.15576
 21
54.2061
  0
LINE
  8
0
 10
3.15576
 20
54.2061
 11
3.21352
 21
54.1317
  0
LINE
  8
0
 10
3.21352
 20
54.1317
 11
3.26648
 21
54.0537
  0
LINE
  8
0
 10
3.26648
 20
54.0537
 11
3.31445
 21
53.9726
  0
LINE
  8
0
 10
3.31445
 20
53.9726
 11
3.35724
 21
53.8887
  0
LINE
  8
0
 10
3.35724
 20
53.8887
 11
3.39465
 21
53.8022
  0
LINE
  8
0
 10
3.39465
 20
53.8022
 11
3.42657
 21
53.7135
  0
LINE
  8
0
 10
3.42657
 20
53.7135
 11
3.45287
 21
53.623
  0
LINE
  8
0
 10
3.45287
 20
53.623
 11
3.47342
 21
53.5311
  0
LINE
  8
0
 10
3.47342
 20
53.5311
 11
3.48816
 21
53.438
  0
LINE
  8
0
 10
3.48816
 20
53.438
 11
3.49704
 21
53.3442
  0
LINE
  8
0
 10
3.49704
 20
53.3442
 11
3.5
 21
53.25
  0
LINE
  8
0
 10
3.5
 20
53.25
 11
3.49704
 21
53.1558
  0
LINE
  8
0
 10
3.49704
 20
53.1558
 11
3.48816
 21
53.062
  0
LINE
  8
0
 10
3.48816
 20
53.062
 11
3.47342
 21
52.9689
  0
LINE
  8
0
 10
3.47342
 20
52.9689
 11
3.45287
 21
52.877
  0
LINE
  8
0
 10
3.45287
 20
52.877
 11
3.42657
 21
52.7865
  0
LINE
  8
0
 10
3.42657
 20
52.7865
 11
3.39465
 21
52.6978
  0
LINE
  8
0
 10
3.39465
 20
52.6978
 11
3.35724
 21
52.6113
  0
LINE
  8
0
 10
3.35724
 20
52.6113
 11
3.31445
 21
52.5274
  0
LINE
  8
0
 10
3.31445
 20
52.5274
 11
3.26648
 21
52.4463
  0
LINE
  8
0
 10
3.26648
 20
52.4463
 11
3.21352
 21
52.3683
  0
LINE
  8
0
 10
3.21352
 20
52.3683
 11
3.15576
 21
52.2939
  0
LINE
  8
0
 10
3.15576
 20
52.2939
 11
3.09344
 21
52.2232
  0
LINE
  8
0
 10
3.09344
 20
52.2232
 11
3.02681
 21
52.1565
  0
LINE
  8
0
 10
3.02681
 20
52.1565
 11
2.95615
 21
52.0942
  0
LINE
  8
0
 10
2.95615
 20
52.0942
 11
2.88168
 21
52.0365
  0
LINE
  8
0
 10
2.88168
 20
52.0365
 11
2.80374
 21
51.9835
  0
LINE
  8
0
 10
2.80374
 20
51.9835
 11
2.72264
 21
51.9355
  0
LINE
  8
0
 10
2.72264
 20
51.9355
 11
2.63867
 21
51.8927
  0
LINE
  8
0
 10
2.63867
 20
51.8927
 11
2.5522
 21
51.8553
  0
LINE
  8
0
 10
2.5522
 20
51.8553
 11
2.46353
 21
51.8234
  0
LINE
  8
0
 10
2.46353
 20
51.8234
 11
2.37305
 21
51.7971
  0
LINE
  8
0
 10
2.37305
 20
51.7971
 11
2.28108
 21
51.7766
  0
LINE
  8
0
 10
2.28108
 20
51.7766
 11
2.188
 21
51.7618
  0
LINE
  8
0
 10
2.188
 20
51.7618
 11
2.09419
 21
51.7529
  0
LINE
  8
0
 10
2.09419
 20
51.7529
 11
2
 21
51.75
  0
LINE
  8
0
 10
2
 20
51.75
 11
0
 21
51.75
  0
LINE
  8
0
 10
0
 20
51.75
 11
0
 21
47.25
  0
LINE
  8
0
 10
0
 20
47.25
 11
3
 21
47.25
  0
LINE
  8
0
 10
3
 20
47.25
 11
3
 21
25.75
  0
LINE
  8
0
 10
3
 20
25.75
 11
0
 21
25.75
  0
LINE
  8
0
 10
0
 20
25.75
 11
0
 21
21.25
  0
LINE
  8
0
 10
0
 20
21.25
 11
2.00002
 21
21.25
  0
LINE
  8
0
 10
2.00002
 20
21.25
 11
2.09419
 21
21.247
  0
LINE
  8
0
 10
2.09419
 20
21.247
 11
2.188
 21
21.2382
  0
LINE
  8
0
 10
2.188
 20
21.2382
 11
2.28108
 21
21.2234
  0
LINE
  8
0
 10
2.28108
 20
21.2234
 11
2.37305
 21
21.2029
  0
LINE
  8
0
 10
2.37305
 20
21.2029
 11
2.46353
 21
21.1766
  0
LINE
  8
0
 10
2.46353
 20
21.1766
 11
2.5522
 21
21.1447
  0
LINE
  8
0
 10
2.5522
 20
21.1447
 11
2.63867
 21
21.1072
  0
LINE
  8
0
 10
2.63867
 20
21.1072
 11
2.72264
 21
21.0645
  0
LINE
  8
0
 10
2.72264
 20
21.0645
 11
2.80374
 21
21.0165
  0
LINE
  8
0
 10
2.80374
 20
21.0165
 11
2.88168
 21
20.9635
  0
LINE
  8
0
 10
2.88168
 20
20.9635
 11
2.95615
 21
20.9058
  0
LINE
  8
0
 10
2.95615
 20
20.9058
 11
3.02681
 21
20.8434
  0
LINE
  8
0
 10
3.02681
 20
20.8434
 11
3.09344
 21
20.7768
  0
LINE
  8
0
 10
3.09344
 20
20.7768
 11
3.15576
 21
20.7061
  0
LINE
  8
0
 10
3.15576
 20
20.7061
 11
3.21352
 21
20.6317
  0
LINE
  8
0
 10
3.21352
 20
20.6317
 11
3.26648
 21
20.5537
  0
LINE
  8
0
 10
3.26648
 20
20.5537
 11
3.31445
 21
20.4726
  0
LINE
  8
0
 10
3.31445
 20
20.4726
 11
3.35724
 21
20.3887
  0
LINE
  8
0
 10
3.35724
 20
20.3887
 11
3.39465
 21
20.3022
  0
LINE
  8
0
 10
3.39465
 20
20.3022
 11
3.42657
 21
20.2135
  0
LINE
  8
0
 10
3.42657
 20
20.2135
 11
3.45287
 21
20.123
  0
LINE
  8
0
 10
3.45287
 20
20.123
 11
3.47342
 21
20.0311
  0
LINE
  8
0
 10
3.47342
 20
20.0311
 11
3.48816
 21
19.938
  0
LINE
  8
0
 10
3.48816
 20
19.938
 11
3.49704
 21
19.8442
  0
LINE
  8
0
 10
3.49704
 20
19.8442
 11
3.5
 21
19.75
  0
LINE
  8
0
 10
3.5
 20
19.75
 11
3.49704
 21
19.6558
  0
LINE
  8
0
 10
3.49704
 20
19.6558
 11
3.48816
 21
19.562
  0
LINE
  8
0
 10
3.48816
 20
19.562
 11
3.47342
 21
19.4689
  0
LINE
  8
0
 10
3.47342
 20
19.4689
 11
3.45287
 21
19.377
  0
LINE
  8
0
 10
3.45287
 20
19.377
 11
3.42657
 21
19.2865
  0
LINE
  8
0
 10
3.42657
 20
19.2865
 11
3.39465
 21
19.1978
  0
LINE
  8
0
 10
3.39465
 20
19.1978
 11
3.35724
 21
19.1113
  0
LINE
  8
0
 10
3.35724
 20
19.1113
 11
3.31445
 21
19.0274
  0
LINE
  8
0
 10
3.31445
 20
19.0274
 11
3.26648
 21
18.9463
  0
LINE
  8
0
 10
3.26648
 20
18.9463
 11
3.21352
 21
18.8683
  0
LINE
  8
0
 10
3.21352
 20
18.8683
 11
3.15576
 21
18.7939
  0
LINE
  8
0
 10
3.15576
 20
18.7939
 11
3.09344
 21
18.7232
  0
LINE
  8
0
 10
3.09344
 20
18.7232
 11
3.02681
 21
18.6565
  0
LINE
  8
0
 10
3.02681
 20
18.6565
 11
2.95615
 21
18.5942
  0
LINE
  8
0
 10
2.95615
 20
18.5942
 11
2.88168
 21
18.5365
  0
LINE
  8
0
 10
2.88168
 20
18.5365
 11
2.80374
 21
18.4835
  0
LINE
  8
0
 10
2.80374
 20
18.4835
 11
2.72264
 21
18.4355
  0
LINE
  8
0
 10
2.72264
 20
18.4355
 11
2.63867
 21
18.3927
  0
LINE
  8
0
 10
2.63867
 20
18.3927
 11
2.5522
 21
18.3553
  0
LINE
  8
0
 10
2.5522
 20
18.3553
 11
2.46353
 21
18.3234
  0
LINE
  8
0
 10
2.46353
 20
18.3234
 11
2.37305
 21
18.2971
  0
LINE
  8
0
 10
2.37305
 20
18.2971
 11
2.28108
 21
18.2766
  0
LINE
  8
0
 10
2.28108
 20
18.2766
 11
2.188
 21
18.2618
  0
LINE
  8
0
 10
2.188
 20
18.2618
 11
2.09419
 21
18.2529
  0
LINE
  8
0
 10
2.09419
 20
18.2529
 11
2
 21
18.25
  0
LINE
  8
0
 10
2
 20
18.25
 11
0
 21
18.25
  0
LINE
  8
0
 10
0
 20
18.25
 11
0
 21
13.75
  0
LINE
  8
0
 10
0
 20
13.75
 11
3
 21
13.75
  0
LINE
  8
0
 10
3
 20
13.75
 11
3
 21
3
  0
LINE
  8
0
 10
3
 20
3
 11
13.75
 21
3
  0
LINE
  8
0
 10
13.75
 20
3
 11
13.75
 21
0
  0
LINE
  8
0
 10
13.75
 20
0
 11
25.75
 21
0
  0
LINE
  8
0
 10
25.75
 20
0
 11
25.75
 21
3
  0
LINE
  8
0
 10
39.4498
 20
54.8682
 11
39.3997
 21
54.873
  0
LINE
  8
0
 10
39.3997
 20
54.873
 11
39.3501
 21
54.8808
  0
LINE
  8
0
 10
39.3501
 20
54.8808
 11
39.301
 21
54.8918
  0
LINE
  8
0
 10
39.301
 20
54.8918
 11
39.2528
 21
54.9058
  0
LINE
  8
0
 10
39.2528
 20
54.9058
 11
39.2055
 21
54.9228
  0
LINE
  8
0
 10
39.2055
 20
54.9228
 11
39.1594
 21
54.9428
  0
LINE
  8
0
 10
39.1594
 20
54.9428
 11
39.1146
 21
54.9656
  0
LINE
  8
0
 10
39.1146
 20
54.9656
 11
39.0713
 21
54.9912
  0
LINE
  8
0
 10
39.0713
 20
54.9912
 11
39.0298
 21
55.0194
  0
LINE
  8
0
 10
39.0298
 20
55.0194
 11
38.9901
 21
55.0502
  0
LINE
  8
0
 10
38.9901
 20
55.0502
 11
38.9524
 21
55.0835
  0
LINE
  8
0
 10
38.9524
 20
55.0835
 11
38.9168
 21
55.119
  0
LINE
  8
0
 10
38.9168
 20
55.119
 11
38.8836
 21
55.1567
  0
LINE
  8
0
 10
38.8836
 20
55.1567
 11
38.8528
 21
55.1964
  0
LINE
  8
0
 10
38.8528
 20
55.1964
 11
38.8245
 21
55.238
  0
LINE
  8
0
 10
38.8245
 20
55.238
 11
38.799
 21
55.2812
  0
LINE
  8
0
 10
38.799
 20
55.2812
 11
38.7761
 21
55.326
  0
LINE
  8
0
 10
38.7761
 20
55.326
 11
38.7562
 21
55.3722
  0
LINE
  8
0
 10
38.7562
 20
55.3722
 11
38.7392
 21
55.4194
  0
LINE
  8
0
 10
38.7392
 20
55.4194
 11
38.7251
 21
55.4677
  0
LINE
  8
0
 10
38.7251
 20
55.4677
 11
38.7142
 21
55.5168
  0
LINE
  8
0
 10
38.7142
 20
55.5168
 11
38.7063
 21
55.5664
  0
LINE
  8
0
 10
38.7063
 20
55.5664
 11
38.7016
 21
55.6164
  0
LINE
  8
0
 10
38.7016
 20
55.6164
 11
38.7
 21
55.6667
  0
LINE
  8
0
 10
38.7
 20
55.6667
 11
38.7016
 21
55.7169
  0
LINE
  8
0
 10
38.7016
 20
55.7169
 11
38.7063
 21
55.7669
  0
LINE
  8
0
 10
38.7063
 20
55.7669
 11
38.7142
 21
55.8166
  0
LINE
  8
0
 10
38.7142
 20
55.8166
 11
38.7251
 21
55.8656
  0
LINE
  8
0
 10
38.7251
 20
55.8656
 11
38.7392
 21
55.9139
  0
LINE
  8
0
 10
38.7392
 20
55.9139
 11
38.7562
 21
55.9612
  0
LINE
  8
0
 10
38.7562
 20
55.9612
 11
38.7761
 21
56.0073
  0
LINE
  8
0
 10
38.7761
 20
56.0073
 11
38.799
 21
56.0521
  0
LINE
  8
0
 10
38.799
 20
56.0521
 11
38.8245
 21
56.0953
  0
LINE
  8
0
 10
38.8245
 20
56.0953
 11
38.8528
 21
56.1369
  0
LINE
  8
0
 10
38.8528
 20
56.1369
 11
38.8836
 21
56.1766
  0
LINE
  8
0
 10
38.8836
 20
56.1766
 11
38.9168
 21
56.2143
  0
LINE
  8
0
 10
38.9168
 20
56.2143
 11
38.9524
 21
56.2498
  0
LINE
  8
0
 10
38.9524
 20
56.2498
 11
38.9901
 21
56.2831
  0
LINE
  8
0
 10
38.9901
 20
56.2831
 11
39.0298
 21
56.3139
  0
LINE
  8
0
 10
39.0298
 20
56.3139
 11
39.0713
 21
56.3421
  0
LINE
  8
0
 10
39.0713
 20
56.3421
 11
47.0713
 21
61.3421
  0
LINE
  8
0
 10
47.0713
 20
61.3421
 11
47.1146
 21
61.3677
  0
LINE
  8
0
 10
47.1146
 20
61.3677
 11
47.1594
 21
61.3905
  0
LINE
  8
0
 10
47.1594
 20
61.3905
 11
47.2055
 21
61.4105
  0
LINE
  8
0
 10
47.2055
 20
61.4105
 11
47.2528
 21
61.4275
  0
LINE
  8
0
 10
47.2528
 20
61.4275
 11
47.301
 21
61.4415
  0
LINE
  8
0
 10
47.301
 20
61.4415
 11
47.3501
 21
61.4525
  0
LINE
  8
0
 10
47.3501
 20
61.4525
 11
47.3997
 21
61.4604
  0
LINE
  8
0
 10
47.3997
 20
61.4604
 11
47.4498
 21
61.4651
  0
LINE
  8
0
 10
47.4498
 20
61.4651
 11
47.5
 21
61.4667
  0
LINE
  8
0
 10
47.5
 20
61.4667
 11
47.5502
 21
61.4651
  0
LINE
  8
0
 10
47.5502
 20
61.4651
 11
47.6003
 21
61.4604
  0
LINE
  8
0
 10
47.6003
 20
61.4604
 11
47.6499
 21
61.4525
  0
LINE
  8
0
 10
47.6499
 20
61.4525
 11
47.6989
 21
61.4415
  0
LINE
  8
0
 10
47.6989
 20
61.4415
 11
47.7472
 21
61.4275
  0
LINE
  8
0
 10
47.7472
 20
61.4275
 11
47.7945
 21
61.4105
  0
LINE
  8
0
 10
47.7945
 20
61.4105
 11
47.8406
 21
61.3905
  0
LINE
  8
0
 10
47.8406
 20
61.3905
 11
47.8854
 21
61.3677
  0
LINE
  8
0
 10
47.8854
 20
61.3677
 11
47.9286
 21
61.3421
  0
LINE
  8
0
 10
47.9286
 20
61.3421
 11
47.9702
 21
61.3139
  0
LINE
  8
0
 10
47.9702
 20
61.3139
 11
48.0099
 21
61.2831
  0
LINE
  8
0
 10
48.0099
 20
61.2831
 11
48.0476
 21
61.2498
  0
LINE
  8
0
 10
48.0476
 20
61.2498
 11
48.0832
 21
61.2143
  0
LINE
  8
0
 10
48.0832
 20
61.2143
 11
48.1164
 21
61.1766
  0
LINE
  8
0
 10
48.1164
 20
61.1766
 11
48.1472
 21
61.1369
  0
LINE
  8
0
 10
48.1472
 20
61.1369
 11
48.1755
 21
61.0953
  0
LINE
  8
0
 10
48.1755
 20
61.0953
 11
48.201
 21
61.0521
  0
LINE
  8
0
 10
48.201
 20
61.0521
 11
48.2238
 21
61.0073
  0
LINE
  8
0
 10
48.2238
 20
61.0073
 11
48.2438
 21
60.9612
  0
LINE
  8
0
 10
48.2438
 20
60.9612
 11
48.2608
 21
60.9139
  0
LINE
  8
0
 10
48.2608
 20
60.9139
 11
48.2749
 21
60.8656
  0
LINE
  8
0
 10
48.2749
 20
60.8656
 11
48.2858
 21
60.8166
  0
LINE
  8
0
 10
48.2858
 20
60.8166
 11
48.2937
 21
60.7669
  0
LINE
  8
0
 10
48.2937
 20
60.7669
 11
48.2984
 21
60.7169
  0
LINE
  8
0
 10
48.2984
 20
60.7169
 11
48.3
 21
60.6667
  0
LINE
  8
0
 10
48.3
 20
60.6667
 11
48.2984
 21
60.6164
  0
LINE
  8
0
 10
48.2984
 20
60.6164
 11
48.2937
 21
60.5664
  0
LINE
  8
0
 10
48.2937
 20
60.5664
 11
48.2858
 21
60.5168
  0
LINE
  8
0
 10
48.2858
 20
60.5168
 11
48.2749
 21
60.4677
  0
LINE
  8
0
 10
48.2749
 20
60.4677
 11
48.2608
 21
60.4194
  0
LINE
  8
0
 10
48.2608
 20
60.4194
 11
48.2438
 21
60.3722
  0
LINE
  8
0
 10
48.2438
 20
60.3722
 11
48.2238
 21
60.326
  0
LINE
  8
0
 10
48.2238
 20
60.326
 11
48.201
 21
60.2812
  0
LINE
  8
0
 10
48.201
 20
60.2812
 11
48.1755
 21
60.238
  0
LINE
  8
0
 10
48.1755
 20
60.238
 11
48.1472
 21
60.1964
  0
LINE
  8
0
 10
48.1472
 20
60.1964
 11
48.1164
 21
60.1567
  0
LINE
  8
0
 10
48.1164
 20
60.1567
 11
48.0832
 21
60.119
  0
LINE
  8
0
 10
48.0832
 20
60.119
 11
48.0476
 21
60.0835
  0
LINE
  8
0
 10
48.0476
 20
60.0835
 11
48.0099
 21
60.0502
  0
LINE
  8
0
 10
48.0099
 20
60.0502
 11
47.9702
 21
60.0194
  0
LINE
  8
0
 10
47.9702
 20
60.0194
 11
47.9286
 21
59.9912
  0
LINE
  8
0
 10
47.9286
 20
59.9912
 11
39.9286
 21
54.9912
  0
LINE
  8
0
 10
39.9286
 20
54.9912
 11
39.8854
 21
54.9656
  0
LINE
  8
0
 10
39.8854
 20
54.9656
 11
39.8406
 21
54.9428
  0
LINE
  8
0
 10
39.8406
 20
54.9428
 11
39.7945
 21
54.9228
  0
LINE
  8
0
 10
39.7945
 20
54.9228
 11
39.7472
 21
54.9058
  0
LINE
  8
0
 10
39.7472
 20
54.9058
 11
39.6989
 21
54.8918
  0
LINE
  8
0
 10
39.6989
 20
54.8918
 11
39.6499
 21
54.8808
  0
LINE
  8
0
 10
39.6499
 20
54.8808
 11
39.6003
 21
54.873
  0
LINE
  8
0
 10
39.6003
 20
54.873
 11
39.5502
 21
54.8682
  0
LINE
  8
0
 10
39.5502
 20
54.8682
 11
39.5
 21
54.8667
  0
LINE
  8
0
 10
39.5
 20
54.8667
 11
39.4498
 21
54.8682
  0
LINE
  8
0
 10
33.4498
 20
54.8682
 11
33.3997
 21
54.873
  0
LINE
  8
0
 10
33.3997
 20
54.873
 11
33.3501
 21
54.8808
  0
LINE
  8
0
 10
33.3501
 20
54.8808
 11
33.301
 21
54.8918
  0
LINE
  8
0
 10
33.301
 20
54.8918
 11
33.2528
 21
54.9058
  0
LINE
  8
0
 10
33.2528
 20
54.9058
 11
33.2055
 21
54.9228
  0
LINE
  8
0
 10
33.2055
 20
54.9228
 11
33.1594
 21
54.9428
  0
LINE
  8
0
 10
33.1594
 20
54.9428
 11
33.1146
 21
54.9656
  0
LINE
  8
0
 10
33.1146
 20
54.9656
 11
33.0713
 21
54.9912
  0
LINE
  8
0
 10
33.0713
 20
54.9912
 11
25.0713
 21
59.9912
  0
LINE
  8
0
 10
25.0713
 20
59.9912
 11
25.0298
 21
60.0194
  0
LINE
  8
0
 10
25.0298
 20
60.0194
 11
24.9901
 21
60.0502
  0
LINE
  8
0
 10
24.9901
 20
60.0502
 11
24.9524
 21
60.0835
  0
LINE
  8
0
 10
24.9524
 20
60.0835
 11
24.9168
 21
60.119
  0
LINE
  8
0
 10
24.9168
 20
60.119
 11
24.8836
 21
60.1567
  0
LINE
  8
0
 10
24.8836
 20
60.1567
 11
24.8528
 21
60.1964
  0
LINE
  8
0
 10
24.8528
 20
60.1964
 11
24.8245
 21
60.238
  0
LINE
  8
0
 10
24.8245
 20
60.238
 11
24.799
 21
60.2812
  0
LINE
  8
0
 10
24.799
 20
60.2812
 11
24.7761
 21
60.326
  0
LINE
  8
0
 10
24.7761
 20
60.326
 11
24.7562
 21
60.3722
  0
LINE
  8
0
 10
24.7562
 20
60.3722
 11
24.7392
 21
60.4194
  0
LINE
  8
0
 10
24.7392
 20
60.4194
 11
24.7251
 21
60.4677
  0
LINE
  8
0
 10
24.7251
 20
60.4677
 11
24.7142
 21
60.5168
  0
LINE
  8
0
 10
24.7142
 20
60.5168
 11
24.7063
 21
60.5664
  0
LINE
  8
0
 10
24.7063
 20
60.5664
 11
24.7016
 21
60.6164
  0
LINE
  8
0
 10
24.7016
 20
60.6164
 11
24.7
 21
60.6667
  0
LINE
  8
0
 10
24.7
 20
60.6667
 11
24.7016
 21
60.7169
  0
LINE
  8
0
 10
24.7016
 20
60.7169
 11
24.7063
 21
60.7669
  0
LINE
  8
0
 10
24.7063
 20
60.7669
 11
24.7142
 21
60.8166
  0
LINE
  8
0
 10
24.7142
 20
60.8166
 11
24.7251
 21
60.8656
  0
LINE
  8
0
 10
24.7251
 20
60.8656
 11
24.7392
 21
60.9139
  0
LINE
  8
0
 10
24.7392
 20
60.9139
 11
24.7562
 21
60.9612
  0
LINE
  8
0
 10
24.7562
 20
60.9612
 11
24.7761
 21
61.0073
  0
LINE
  8
0
 10
24.7761
 20
61.0073
 11
24.799
 21
61.0521
  0
LINE
  8
0
 10
24.799
 20
61.0521
 11
24.8245
 21
61.0953
  0
LINE
  8
0
 10
24.8245
 20
61.0953
 11
24.8528
 21
61.1369
  0
LINE
  8
0
 10
24.8528
 20
61.1369
 11
24.8836
 21
61.1766
  0
LINE
  8
0
 10
24.8836
 20
61.1766
 11
24.9168
 21
61.2143
  0
LINE
  8
0
 10
24.9168
 20
61.2143
 11
24.9524
 21
61.2498
  0
LINE
  8
0
 10
24.9524
 20
61.2498
 11
24.9901
 21
61.2831
  0
LINE
  8
0
 10
24.9901
 20
61.2831
 11
25.0298
 21
61.3139
  0
LINE
  8
0
 10
25.0298
 20
61.3139
 11
25.0713
 21
61.3421
  0
LINE
  8
0
 10
25.0713
 20
61.3421
 11
25.1146
 21
61.3677
  0
LINE
  8
0
 10
25.1146
 20
61.3677
 11
25.1594
 21
61.3905
  0
LINE
  8
0
 10
25.1594
 20
61.3905
 11
25.2055
 21
61.4105
  0
LINE
  8
0
 10
25.2055
 20
61.4105
 11
25.2528
 21
61.4275
  0
LINE
  8
0
 10
25.2528
 20
61.4275
 11
25.301
 21
61.4415
  0
LINE
  8
0
 10
25.301
 20
61.4415
 11
25.3501
 21
61.4525
  0
LINE
  8
0
 10
25.3501
 20
61.4525
 11
25.3997
 21
61.4604
  0
LINE
  8
0
 10
25.3997
 20
61.4604
 11
25.4498
 21
61.4651
  0
LINE
  8
0
 10
25.4498
 20
61.4651
 11
25.5
 21
61.4667
  0
LINE
  8
0
 10
25.5
 20
61.4667
 11
25.5502
 21
61.4651
  0
LINE
  8
0
 10
25.5502
 20
61.4651
 11
25.6003
 21
61.4604
  0
LINE
  8
0
 10
25.6003
 20
61.4604
 11
25.6499
 21
61.4525
  0
LINE
  8
0
 10
25.6499
 20
61.4525
 11
25.6989
 21
61.4415
  0
LINE
  8
0
 10
25.6989
 20
61.4415
 11
25.7472
 21
61.4275
  0
LINE
  8
0
 10
25.7472
 20
61.4275
 11
25.7945
 21
61.4105
  0
LINE
  8
0
 10
25.7945
 20
61.4105
 11
25.8406
 21
61.3905
  0
LINE
  8
0
 10
25.8406
 20
61.3905
 11
25.8854
 21
61.3677
  0
LINE
  8
0
 10
25.8854
 20
61.3677
 11
25.9286
 21
61.3421
  0
LINE
  8
0
 10
25.9286
 20
61.3421
 11
33.9286
 21
56.3421
  0
LINE
  8
0
 10
33.9286
 20
56.3421
 11
33.9702
 21
56.3139
  0
LINE
  8
0
 10
33.9702
 20
56.3139
 11
34.0099
 21
56.2831
  0
LINE
  8
0
 10
34.0099
 20
56.2831
 11
34.0476
 21
56.2498
  0
LINE
  8
0
 10
34.0476
 20
56.2498
 11
34.0832
 21
56.2143
  0
LINE
  8
0
 10
34.0832
 20
56.2143
 11
34.1164
 21
56.1766
  0
LINE
  8
0
 10
34.1164
 20
56.1766
 11
34.1472
 21
56.1369
  0
LINE
  8
0
 10
34.1472
 20
56.1369
 11
34.1755
 21
56.0953
  0
LINE
  8
0
 10
34.1755
 20
56.0953
 11
34.201
 21
56.0521
  0
LINE
  8
0
 10
34.201
 20
56.0521
 11
34.2238
 21
56.0073
  0
LINE
  8
0
 10
34.2238
 20
56.0073
 11
34.2438
 21
55.9612
  0
LINE
  8
0
 10
34.2438
 20
55.9612
 11
34.2608
 21
55.9139
  0
LINE
  8
0
 10
34.2608
 20
55.9139
 11
34.2749
 21
55.8656
  0
LINE
  8
0
 10
34.2749
 20
55.8656
 11
34.2858
 21
55.8166
  0
LINE
  8
0
 10
34.2858
 20
55.8166
 11
34.2937
 21
55.7669
  0
LINE
  8
0
 10
34.2937
 20
55.7669
 11
34.2984
 21
55.7169
  0
LINE
  8
0
 10
34.2984
 20
55.7169
 11
34.3
 21
55.6667
  0
LINE
  8
0
 10
34.3
 20
55.6667
 11
34.2984
 21
55.6164
  0
LINE
  8
0
 10
34.2984
 20
55.6164
 11
34.2937
 21
55.5664
  0
LINE
  8
0
 10
34.2937
 20
55.5664
 11
34.2858
 21
55.5168
  0
LINE
  8
0
 10
34.2858
 20
55.5168
 11
34.2749
 21
55.4677
  0
LINE
  8
0
 10
34.2749
 20
55.4677
 11
34.2608
 21
55.4194
  0
LINE
  8
0
 10
34.2608
 20
55.4194
 11
34.2438
 21
55.3722
  0
LINE
  8
0
 10
34.2438
 20
55.3722
 11
34.2238
 21
55.326
  0
LINE
  8
0
 10
34.2238
 20
55.326
 11
34.201
 21
55.2812
  0
LINE
  8
0
 10
34.201
 20
55.2812
 11
34.1755
 21
55.238
  0
LINE
  8
0
 10
34.1755
 20
55.238
 11
34.1472
 21
55.1964
  0
LINE
  8
0
 10
34.1472
 20
55.1964
 11
34.1164
 21
55.1567
  0
LINE
  8
0
 10
34.1164
 20
55.1567
 11
34.0832
 21
55.119
  0
LINE
  8
0
 10
34.0832
 20
55.119
 11
34.0476
 21
55.0835
  0
LINE
  8
0
 10
34.0476
 20
55.0835
 11
34.0099
 21
55.0502
  0
LINE
  8
0
 10
34.0099
 20
55.0502
 11
33.9702
 21
55.0194
  0
LINE
  8
0
 10
33.9702
 20
55.0194
 11
33.9286
 21
54.9912
  0
LINE
  8
0
 10
33.9286
 20
54.9912
 11
33.8854
 21
54.9656
  0
LINE
  8
0
 10
33.8854
 20
54.9656
 11
33.8406
 21
54.9428
  0
LINE
  8
0
 10
33.8406
 20
54.9428
 11
33.7945
 21
54.9228
  0
LINE
  8
0
 10
33.7945
 20
54.9228
 11
33.7472
 21
54.9058
  0
LINE
  8
0
 10
33.7472
 20
54.9058
 11
33.6989
 21
54.8918
  0
LINE
  8
0
 10
33.6989
 20
54.8918
 11
33.6499
 21
54.8808
  0
LINE
  8
0
 10
33.6499
 20
54.8808
 11
33.6003
 21
54.873
  0
LINE
  8
0
 10
33.6003
 20
54.873
 11
33.5502
 21
54.8682
  0
LINE
  8
0
 10
33.5502
 20
54.8682
 11
33.5
 21
54.8667
  0
LINE
  8
0
 10
33.5
 20
54.8667
 11
33.4498
 21
54.8682
  0
LINE
  8
0
 10
22.9914
 20
39.5826
 11
22.4848
 21
39.6305
  0
LINE
  8
0
 10
22.4848
 20
39.6305
 11
21.9822
 21
39.7101
  0
LINE
  8
0
 10
21.9822
 20
39.7101
 11
21.4856
 21
39.8211
  0
LINE
  8
0
 10
21.4856
 20
39.8211
 11
20.997
 21
39.9631
  0
LINE
  8
0
 10
20.997
 20
39.9631
 11
20.5182
 21
40.1355
  0
LINE
  8
0
 10
20.5182
 20
40.1355
 11
20.0512
 21
40.3376
  0
LINE
  8
0
 10
20.0512
 20
40.3376
 11
19.5978
 21
40.5686
  0
LINE
  8
0
 10
19.5978
 20
40.5686
 11
19.1598
 21
40.8276
  0
LINE
  8
0
 10
19.1598
 20
40.8276
 11
18.739
 21
41.1136
  0
LINE
  8
0
 10
18.739
 20
41.1136
 11
18.3369
 21
41.4255
  0
LINE
  8
0
 10
18.3369
 20
41.4255
 11
17.9552
 21
41.762
  0
LINE
  8
0
 10
17.9552
 20
41.762
 11
17.5954
 21
42.1218
  0
LINE
  8
0
 10
17.5954
 20
42.1218
 11
17.2589
 21
42.5035
  0
LINE
  8
0
 10
17.2589
 20
42.5035
 11
16.947
 21
42.9056
  0
LINE
  8
0
 10
16.947
 20
42.9056
 11
16.6609
 21
43.3265
  0
LINE
  8
0
 10
16.6609
 20
43.3265
 11
16.4019
 21
43.7645
  0
LINE
  8
0
 10
16.4019
 20
43.7645
 11
16.1709
 21
44.2178
  0
LINE
  8
0
 10
16.1709
 20
44.2178
 11
15.9688
 21
44.6849
  0
LINE
  8
0
 10
15.9688
 20
44.6849
 11
15.7964
 21
45.1636
  0
LINE
  8
0
 10
15.7964
 20
45.1636
 11
15.6545
 21
45.6523
  0
LINE
  8
0
 10
15.6545
 20
45.6523
 11
15.5435
 21
46.1489
  0
LINE
  8
0
 10
15.5435
 20
46.1489
 11
15.4639
 21
46.6515
  0
LINE
  8
0
 10
15.4639
 20
46.6515
 11
15.416
 21
47.1581
  0
LINE
  8
0
 10
15.416
 20
47.1581
 11
15.4
 21
47.6667
  0
LINE
  8
0
 10
15.4
 20
47.6667
 11
15.416
 21
48.1752
  0
LINE
  8
0
 10
15.416
 20
48.1752
 11
15.4639
 21
48.6819
  0
LINE
  8
0
 10
15.4639
 20
48.6819
 11
15.5435
 21
49.1844
  0
LINE
  8
0
 10
15.5435
 20
49.1844
 11
15.6545
 21
49.681
  0
LINE
  8
0
 10
15.6545
 20
49.681
 11
15.7964
 21
50.1697
  0
LINE
  8
0
 10
15.7964
 20
50.1697
 11
15.9688
 21
50.6485
  0
LINE
  8
0
 10
15.9688
 20
50.6485
 11
16.1709
 21
51.1155
  0
LINE
  8
0
 10
16.1709
 20
51.1155
 11
16.4019
 21
51.5688
  0
LINE
  8
0
 10
16.4019
 20
51.5688
 11
16.6609
 21
52.0069
  0
LINE
  8
0
 10
16.6609
 20
52.0069
 11
16.947
 21
52.4277
  0
LINE
  8
0
 10
16.947
 20
52.4277
 11
17.2589
 21
52.8298
  0
LINE
  8
0
 10
17.2589
 20
52.8298
 11
17.5954
 21
53.2115
  0
LINE
  8
0
 10
17.5954
 20
53.2115
 11
17.9552
 21
53.5713
  0
LINE
  8
0
 10
17.9552
 20
53.5713
 11
18.3369
 21
53.9078
  0
LINE
  8
0
 10
18.3369
 20
53.9078
 11
18.739
 21
54.2197
  0
LINE
  8
0
 10
18.739
 20
54.2197
 11
19.1598
 21
54.5057
  0
LINE
  8
0
 10
19.1598
 20
54.5057
 11
19.5978
 21
54.7647
  0
LINE
  8
0
 10
19.5978
 20
54.7647
 11
20.0512
 21
54.9957
  0
LINE
  8
0
 10
20.0512
 20
54.9957
 11
20.5182
 21
55.1978
  0
LINE
  8
0
 10
20.5182
 20
55.1978
 11
20.997
 21
55.3702
  0
LINE
  8
0
 10
20.997
 20
55.3702
 11
21.4856
 21
55.5122
  0
LINE
  8
0
 10
21.4856
 20
55.5122
 11
21.9822
 21
55.6232
  0
LINE
  8
0
 10
21.9822
 20
55.6232
 11
22.4848
 21
55.7028
  0
LINE
  8
0
 10
22.4848
 20
55.7028
 11
22.9914
 21
55.7507
  0
LINE
  8
0
 10
22.9914
 20
55.7507
 11
23.5
 21
55.7666
  0
LINE
  8
0
 10
23.5
 20
55.7666
 11
24.0086
 21
55.7507
  0
LINE
  8
0
 10
24.0086
 20
55.7507
 11
24.5152
 21
55.7028
  0
LINE
  8
0
 10
24.5152
 20
55.7028
 11
25.0178
 21
55.6232
  0
LINE
  8
0
 10
25.0178
 20
55.6232
 11
25.5144
 21
55.5122
  0
LINE
  8
0
 10
25.5144
 20
55.5122
 11
26.0031
 21
55.3702
  0
LINE
  8
0
 10
26.0031
 20
55.3702
 11
26.4818
 21
55.1978
  0
LINE
  8
0
 10
26.4818
 20
55.1978
 11
26.9488
 21
54.9957
  0
LINE
  8
0
 10
26.9488
 20
54.9957
 11
27.4022
 21
54.7647
  0
LINE
  8
0
 10
27.4022
 20
54.7647
 11
27.8402
 21
54.5057
  0
LINE
  8
0
 10
27.8402
 20
54.5057
 11
28.2611
 21
54.2197
  0
LINE
  8
0
 10
28.2611
 20
54.2197
 11
28.6631
 21
53.9078
  0
LINE
  8
0
 10
28.6631
 20
53.9078
 11
29.0448
 21
53.5713
  0
LINE
  8
0
 10
29.0448
 20
53.5713
 11
29.4046
 21
53.2115
  0
LINE
  8
0
 10
29.4046
 20
53.2115
 11
29.7412
 21
52.8298
  0
LINE
  8
0
 10
29.7412
 20
52.8298
 11
30.053
 21
52.4277
  0
LINE
  8
0
 10
30.053
 20
52.4277
 11
30.3391
 21
52.0069
  0
LINE
  8
0
 10
30.3391
 20
52.0069
 11
30.5981
 21
51.5688
  0
LINE
  8
0
 10
30.5981
 20
51.5688
 11
30.8291
 21
51.1155
  0
LINE
  8
0
 10
30.8291
 20
51.1155
 11
31.0312
 21
50.6485
  0
LINE
  8
0
 10
31.0312
 20
50.6485
 11
31.2036
 21
50.1697
  0
LINE
  8
0
 10
31.2036
 20
50.1697
 11
31.3455
 21
49.681
  0
LINE
  8
0
 10
31.3455
 20
49.681
 11
31.4565
 21
49.1844
  0
LINE
  8
0
 10
31.4565
 20
49.1844
 11
31.5361
 21
48.6819
  0
LINE
  8
0
 10
31.5361
 20
48.6819
 11
31.584
 21
48.1752
  0
LINE
  8
0
 10
31.584
 20
48.1752
 11
31.6
 21
47.6667
  0
LINE
  8
0
 10
31.6
 20
47.6667
 11
31.584
 21
47.1581
  0
LINE
  8
0
 10
31.584
 20
47.1581
 11
31.5361
 21
46.6515
  0
LINE
  8
0
 10
31.5361
 20
46.6515
 11
31.4565
 21
46.1489
  0
LINE
  8
0
 10
31.4565
 20
46.1489
 11
31.3455
 21
45.6523
  0
LINE
  8
0
 10
31.3455
 20
45.6523
 11
31.2036
 21
45.1636
  0
LINE
  8
0
 10
31.2036
 20
45.1636
 11
31.0312
 21
44.6849
  0
LINE
  8
0
 10
31.0312
 20
44.6849
 11
30.8291
 21
44.2178
  0
LINE
  8
0
 10
30.8291
 20
44.2178
 11
30.5981
 21
43.7645
  0
LINE
  8
0
 10
30.5981
 20
43.7645
 11
30.3391
 21
43.3265
  0
LINE
  8
0
 10
30.3391
 20
43.3265
 11
30.053
 21
42.9056
  0
LINE
  8
0
 10
30.053
 20
42.9056
 11
29.7412
 21
42.5035
  0
LINE
  8
0
 10
29.7412
 20
42.5035
 11
29.4046
 21
42.1218
  0
LINE
  8
0
 10
29.4046
 20
42.1218
 11
29.0448
 21
41.762
  0
LINE
  8
0
 10
29.0448
 20
41.762
 11
28.6631
 21
41.4255
  0
LINE
  8
0
 10
28.6631
 20
41.4255
 11
28.2611
 21
41.1136
  0
LINE
  8
0
 10
28.2611
 20
41.1136
 11
27.8402
 21
40.8276
  0
LINE
  8
0
 10
27.8402
 20
40.8276
 11
27.4022
 21
40.5686
  0
LINE
  8
0
 10
27.4022
 20
40.5686
 11
26.9488
 21
40.3376
  0
LINE
  8
0
 10
26.9488
 20
40.3376
 11
26.4818
 21
40.1355
  0
LINE
  8
0
 10
26.4818
 20
40.1355
 11
26.0031
 21
39.9631
  0
LINE
  8
0
 10
26.0031
 20
39.9631
 11
25.5144
 21
39.8211
  0
LINE
  8
0
 10
25.5144
 20
39.8211
 11
25.0178
 21
39.7101
  0
LINE
  8
0
 10
25.0178
 20
39.7101
 11
24.5152
 21
39.6305
  0
LINE
  8
0
 10
24.5152
 20
39.6305
 11
24.0086
 21
39.5826
  0
LINE
  8
0
 10
24.0086
 20
39.5826
 11
23.5
 21
39.5667
  0
LINE
  8
0
 10
23.5
 20
39.5667
 11
22.9914
 21
39.5826
  0
LINE
  8
0
 10
48.9914
 20
39.5826
 11
48.4848
 21
39.6305
  0
LINE
  8
0
 10
48.4848
 20
39.6305
 11
47.9822
 21
39.7101
  0
LINE
  8
0
 10
47.9822
 20
39.7101
 11
47.4856
 21
39.8211
  0
LINE
  8
0
 10
47.4856
 20
39.8211
 11
46.9969
 21
39.9631
  0
LINE
  8
0
 10
46.9969
 20
39.9631
 11
46.5182
 21
40.1355
  0
LINE
  8
0
 10
46.5182
 20
40.1355
 11
46.0512
 21
40.3376
  0
LINE
  8
0
 10
46.0512
 20
40.3376
 11
45.5978
 21
40.5686
  0
LINE
  8
0
 10
45.5978
 20
40.5686
 11
45.1598
 21
40.8276
  0
LINE
  8
0
 10
45.1598
 20
40.8276
 11
44.7389
 21
41.1136
  0
LINE
  8
0
 10
44.7389
 20
41.1136
 11
44.3369
 21
41.4255
  0
LINE
  8
0
 10
44.3369
 20
41.4255
 11
43.9552
 21
41.762
  0
LINE
  8
0
 10
43.9552
 20
41.762
 11
43.5954
 21
42.1218
  0
LINE
  8
0
 10
43.5954
 20
42.1218
 11
43.2588
 21
42.5035
  0
LINE
  8
0
 10
43.2588
 20
42.5035
 11
42.947
 21
42.9056
  0
LINE
  8
0
 10
42.947
 20
42.9056
 11
42.6609
 21
43.3265
  0
LINE
  8
0
 10
42.6609
 20
43.3265
 11
42.4019
 21
43.7645
  0
LINE
  8
0
 10
42.4019
 20
43.7645
 11
42.1709
 21
44.2178
  0
LINE
  8
0
 10
42.1709
 20
44.2178
 11
41.9688
 21
44.6849
  0
LINE
  8
0
 10
41.9688
 20
44.6849
 11
41.7964
 21
45.1636
  0
LINE
  8
0
 10
41.7964
 20
45.1636
 11
41.6545
 21
45.6523
  0
LINE
  8
0
 10
41.6545
 20
45.6523
 11
41.5435
 21
46.1489
  0
LINE
  8
0
 10
41.5435
 20
46.1489
 11
41.4639
 21
46.6515
  0
LINE
  8
0
 10
41.4639
 20
46.6515
 11
41.416
 21
47.1581
  0
LINE
  8
0
 10
41.416
 20
47.1581
 11
41.4
 21
47.6667
  0
LINE
  8
0
 10
41.4
 20
47.6667
 11
41.416
 21
48.1752
  0
LINE
  8
0
 10
41.416
 20
48.1752
 11
41.4639
 21
48.6819
  0
LINE
  8
0
 10
41.4639
 20
48.6819
 11
41.5435
 21
49.1844
  0
LINE
  8
0
 10
41.5435
 20
49.1844
 11
41.6545
 21
49.681
  0
LINE
  8
0
 10
41.6545
 20
49.681
 11
41.7964
 21
50.1697
  0
LINE
  8
0
 10
41.7964
 20
50.1697
 11
41.9688
 21
50.6485
  0
LINE
  8
0
 10
41.9688
 20
50.6485
 11
42.1709
 21
51.1155
  0
LINE
  8
0
 10
42.1709
 20
51.1155
 11
42.4019
 21
51.5688
  0
LINE
  8
0
 10
42.4019
 20
51.5688
 11
42.6609
 21
52.0069
  0
LINE
  8
0
 10
42.6609
 20
52.0069
 11
42.947
 21
52.4277
  0
LINE
  8
0
 10
42.947
 20
52.4277
 11
43.2588
 21
52.8298
  0
LINE
  8
0
 10
43.2588
 20
52.8298
 11
43.5954
 21
53.2115
  0
LINE
  8
0
 10
43.5954
 20
53.2115
 11
43.9552
 21
53.5713
  0
LINE
  8
0
 10
43.9552
 20
53.5713
 11
44.3369
 21
53.9078
  0
LINE
  8
0
 10
44.3369
 20
53.9078
 11
44.7389
 21
54.2197
  0
LINE
  8
0
 10
44.7389
 20
54.2197
 11
45.1598
 21
54.5057
  0
LINE
  8
0
 10
45.1598
 20
54.5057
 11
45.5978
 21
54.7647
  0
LINE
  8
0
 10
45.5978
 20
54.7647
 11
46.0512
 21
54.9957
  0
LINE
  8
0
 10
46.0512
 20
54.9957
 11
46.5182
 21
55.1978
  0
LINE
  8
0
 10
46.5182
 20
55.1978
 11
46.9969
 21
55.3702
  0
LINE
  8
0
 10
46.9969
 20
55.3702
 11
47.4856
 21
55.5122
  0
LINE
  8
0
 10
47.4856
 20
55.5122
 11
47.9822
 21
55.6232
  0
LINE
  8
0
 10
47.9822
 20
55.6232
 11
48.4848
 21
55.7028
  0
LINE
  8
0
 10
48.4848
 20
55.7028
 11
48.9914
 21
55.7507
  0
LINE
  8
0
 10
48.9914
 20
55.7507
 11
49.5
 21
55.7666
  0
LINE
  8
0
 10
49.5
 20
55.7666
 11
50.0086
 21
55.7507
  0
LINE
  8
0
 10
50.0086
 20
55.7507
 11
50.5152
 21
55.7028
  0
LINE
  8
0
 10
50.5152
 20
55.7028
 11
51.0178
 21
55.6232
  0
LINE
  8
0
 10
51.0178
 20
55.6232
 11
51.5144
 21
55.5122
  0
LINE
  8
0
 10
51.5144
 20
55.5122
 11
52.003
 21
55.3702
  0
LINE
  8
0
 10
52.003
 20
55.3702
 11
52.4818
 21
55.1978
  0
LINE
  8
0
 10
52.4818
 20
55.1978
 11
52.9488
 21
54.9957
  0
LINE
  8
0
 10
52.9488
 20
54.9957
 11
53.4022
 21
54.7647
  0
LINE
  8
0
 10
53.4022
 20
54.7647
 11
53.8402
 21
54.5057
  0
LINE
  8
0
 10
53.8402
 20
54.5057
 11
54.261
 21
54.2197
  0
LINE
  8
0
 10
54.261
 20
54.2197
 11
54.6631
 21
53.9078
  0
LINE
  8
0
 10
54.6631
 20
53.9078
 11
55.0448
 21
53.5713
  0
LINE
  8
0
 10
55.0448
 20
53.5713
 11
55.4046
 21
53.2115
  0
LINE
  8
0
 10
55.4046
 20
53.2115
 11
55.7411
 21
52.8298
  0
LINE
  8
0
 10
55.7411
 20
52.8298
 11
56.053
 21
52.4277
  0
LINE
  8
0
 10
56.053
 20
52.4277
 11
56.3391
 21
52.0069
  0
LINE
  8
0
 10
56.3391
 20
52.0069
 11
56.5981
 21
51.5688
  0
LINE
  8
0
 10
56.5981
 20
51.5688
 11
56.8291
 21
51.1155
  0
LINE
  8
0
 10
56.8291
 20
51.1155
 11
57.0312
 21
50.6485
  0
LINE
  8
0
 10
57.0312
 20
50.6485
 11
57.2036
 21
50.1697
  0
LINE
  8
0
 10
57.2036
 20
50.1697
 11
57.3455
 21
49.681
  0
LINE
  8
0
 10
57.3455
 20
49.681
 11
57.4565
 21
49.1844
  0
LINE
  8
0
 10
57.4565
 20
49.1844
 11
57.5361
 21
48.6819
  0
LINE
  8
0
 10
57.5361
 20
48.6819
 11
57.584
 21
48.1752
  0
LINE
  8
0
 10
57.584
 20
48.1752
 11
57.6
 21
47.6667
  0
LINE
  8
0
 10
57.6
 20
47.6667
 11
57.584
 21
47.1581
  0
LINE
  8
0
 10
57.584
 20
47.1581
 11
57.5361
 21
46.6515
  0
LINE
  8
0
 10
57.5361
 20
46.6515
 11
57.4565
 21
46.1489
  0
LINE
  8
0
 10
57.4565
 20
46.1489
 11
57.3455
 21
45.6523
  0
LINE
  8
0
 10
57.3455
 20
45.6523
 11
57.2036
 21
45.1636
  0
LINE
  8
0
 10
57.2036
 20
45.1636
 11
57.0312
 21
44.6849
  0
LINE
  8
0
 10
57.0312
 20
44.6849
 11
56.8291
 21
44.2178
  0
LINE
  8
0
 10
56.8291
 20
44.2178
 11
56.5981
 21
43.7645
  0
LINE
  8
0
 10
56.5981
 20
43.7645
 11
56.3391
 21
43.3265
  0
LINE
  8
0
 10
56.3391
 20
43.3265
 11
56.053
 21
42.9056
  0
LINE
  8
0
 10
56.053
 20
42.9056
 11
55.7411
 21
42.5035
  0
LINE
  8
0
 10
55.7411
 20
42.5035
 11
55.4046
 21
42.1218
  0
LINE
  8
0
 10
55.4046
 20
42.1218
 11
55.0448
 21
41.762
  0
LINE
  8
0
 10
55.0448
 20
41.762
 11
54.6631
 21
41.4255
  0
LINE
  8
0
 10
54.6631
 20
41.4255
 11
54.261
 21
41.1136
  0
LINE
  8
0
 10
54.261
 20
41.1136
 11
53.8402
 21
40.8276
  0
LINE
  8
0
 10
53.8402
 20
40.8276
 11
53.4022
 21
40.5686
  0
LINE
  8
0
 10
53.4022
 20
40.5686
 11
52.9488
 21
40.3376
  0
LINE
  8
0
 10
52.9488
 20
40.3376
 11
52.4818
 21
40.1355
  0
LINE
  8
0
 10
52.4818
 20
40.1355
 11
52.003
 21
39.9631
  0
LINE
  8
0
 10
52.003
 20
39.9631
 11
51.5144
 21
39.8211
  0
LINE
  8
0
 10
51.5144
 20
39.8211
 11
51.0178
 21
39.7101
  0
LINE
  8
0
 10
51.0178
 20
39.7101
 11
50.5152
 21
39.6305
  0
LINE
  8
0
 10
50.5152
 20
39.6305
 11
50.0086
 21
39.5826
  0
LINE
  8
0
 10
50.0086
 20
39.5826
 11
49.5
 21
39.5667
  0
LINE
  8
0
 10
49.5
 20
39.5667
 11
48.9914
 21
39.5826
  0
LINE
  8
0
 10
30.4058
 20
18.8363
 11
30.312
 21
18.8452
  0
LINE
  8
0
 10
30.312
 20
18.8452
 11
30.2189
 21
18.8599
  0
LINE
  8
0
 10
30.2189
 20
18.8599
 11
30.127
 21
18.8804
  0
LINE
  8
0
 10
30.127
 20
18.8804
 11
30.0365
 21
18.9067
  0
LINE
  8
0
 10
30.0365
 20
18.9067
 11
29.9478
 21
18.9387
  0
LINE
  8
0
 10
29.9478
 20
18.9387
 11
29.8613
 21
18.9761
  0
LINE
  8
0
 10
29.8613
 20
18.9761
 11
29.7774
 21
19.0189
  0
LINE
  8
0
 10
29.7774
 20
19.0189
 11
29.6963
 21
19.0668
  0
LINE
  8
0
 10
29.6963
 20
19.0668
 11
29.6183
 21
19.1198
  0
LINE
  8
0
 10
29.6183
 20
19.1198
 11
29.5439
 21
19.1776
  0
LINE
  8
0
 10
29.5439
 20
19.1776
 11
29.4732
 21
19.2399
  0
LINE
  8
0
 10
29.4732
 20
19.2399
 11
29.4065
 21
19.3065
  0
LINE
  8
0
 10
29.4065
 20
19.3065
 11
29.3442
 21
19.3772
  0
LINE
  8
0
 10
29.3442
 20
19.3772
 11
29.2865
 21
19.4516
  0
LINE
  8
0
 10
29.2865
 20
19.4516
 11
29.2335
 21
19.5296
  0
LINE
  8
0
 10
29.2335
 20
19.5296
 11
29.1855
 21
19.6107
  0
LINE
  8
0
 10
29.1855
 20
19.6107
 11
29.1427
 21
19.6947
  0
LINE
  8
0
 10
29.1427
 20
19.6947
 11
29.1053
 21
19.7811
  0
LINE
  8
0
 10
29.1053
 20
19.7811
 11
29.0734
 21
19.8698
  0
LINE
  8
0
 10
29.0734
 20
19.8698
 11
29.0471
 21
19.9603
  0
LINE
  8
0
 10
29.0471
 20
19.9603
 11
29.0266
 21
20.0523
  0
LINE
  8
0
 10
29.0266
 20
20.0523
 11
29.0118
 21
20.1453
  0
LINE
  8
0
 10
29.0118
 20
20.1453
 11
29.0029
 21
20.2391
  0
LINE
  8
0
 10
29.0029
 20
20.2391
 11
29
 21
20.3333
  0
LINE
  8
0
 10
29
 20
20.3333
 11
29.0029
 21
20.4275
  0
LINE
  8
0
 10
29.0029
 20
20.4275
 11
29.0118
 21
20.5213
  0
LINE
  8
0
 10
29.0118
 20
20.5213
 11
29.0266
 21
20.6144
  0
LINE
  8
0
 10
29.0266
 20
20.6144
 11
29.0471
 21
20.7064
  0
LINE
  8
0
 10
29.0471
 20
20.7064
 11
29.0734
 21
20.7968
  0
LINE
  8
0
 10
29.0734
 20
20.7968
 11
29.1053
 21
20.8855
  0
LINE
  8
0
 10
29.1053
 20
20.8855
 11
29.1427
 21
20.972
  0
LINE
  8
0
 10
29.1427
 20
20.972
 11
29.1855
 21
21.056
  0
LINE
  8
0
 10
29.1855
 20
21.056
 11
29.2335
 21
21.1371
  0
LINE
  8
0
 10
29.2335
 20
21.1371
 11
29.2865
 21
21.215
  0
LINE
  8
0
 10
29.2865
 20
21.215
 11
29.3442
 21
21.2895
  0
LINE
  8
0
 10
29.3442
 20
21.2895
 11
29.4065
 21
21.3602
  0
LINE
  8
0
 10
29.4065
 20
21.3602
 11
29.4732
 21
21.4268
  0
LINE
  8
0
 10
29.4732
 20
21.4268
 11
29.5439
 21
21.4891
  0
LINE
  8
0
 10
29.5439
 20
21.4891
 11
29.6183
 21
21.5468
  0
LINE
  8
0
 10
29.6183
 20
21.5468
 11
29.6963
 21
21.5998
  0
LINE
  8
0
 10
29.6963
 20
21.5998
 11
29.7774
 21
21.6478
  0
LINE
  8
0
 10
29.7774
 20
21.6478
 11
29.8613
 21
21.6906
  0
LINE
  8
0
 10
29.8613
 20
21.6906
 11
29.9478
 21
21.728
  0
LINE
  8
0
 10
29.9478
 20
21.728
 11
53.9478
 21
30.728
  0
LINE
  8
0
 10
53.9478
 20
30.728
 11
54.0365
 21
30.7599
  0
LINE
  8
0
 10
54.0365
 20
30.7599
 11
54.127
 21
30.7862
  0
LINE
  8
0
 10
54.127
 20
30.7862
 11
54.2189
 21
30.8068
  0
LINE
  8
0
 10
54.2189
 20
30.8068
 11
54.312
 21
30.8215
  0
LINE
  8
0
 10
54.312
 20
30.8215
 11
54.4058
 21
30.8304
  0
LINE
  8
0
 10
54.4058
 20
30.8304
 11
54.5
 21
30.8333
  0
LINE
  8
0
 10
54.5
 20
30.8333
 11
54.5942
 21
30.8304
  0
LINE
  8
0
 10
54.5942
 20
30.8304
 11
54.688
 21
30.8215
  0
LINE
  8
0
 10
54.688
 20
30.8215
 11
54.7811
 21
30.8068
  0
LINE
  8
0
 10
54.7811
 20
30.8068
 11
54.873
 21
30.7862
  0
LINE
  8
0
 10
54.873
 20
30.7862
 11
54.9635
 21
30.7599
  0
LINE
  8
0
 10
54.9635
 20
30.7599
 11
55.0522
 21
30.728
  0
LINE
  8
0
 10
55.0522
 20
30.728
 11
55.1387
 21
30.6906
  0
LINE
  8
0
 10
55.1387
 20
30.6906
 11
55.2226
 21
30.6478
  0
LINE
  8
0
 10
55.2226
 20
30.6478
 11
55.3037
 21
30.5998
  0
LINE
  8
0
 10
55.3037
 20
30.5998
 11
55.3817
 21
30.5468
  0
LINE
  8
0
 10
55.3817
 20
30.5468
 11
55.4561
 21
30.4891
  0
LINE
  8
0
 10
55.4561
 20
30.4891
 11
55.5268
 21
30.4268
  0
LINE
  8
0
 10
55.5268
 20
30.4268
 11
55.5934
 21
30.3602
  0
LINE
  8
0
 10
55.5934
 20
30.3602
 11
55.6558
 21
30.2895
  0
LINE
  8
0
 10
55.6558
 20
30.2895
 11
55.7135
 21
30.215
  0
LINE
  8
0
 10
55.7135
 20
30.215
 11
55.7665
 21
30.1371
  0
LINE
  8
0
 10
55.7665
 20
30.1371
 11
55.8145
 21
30.056
  0
LINE
  8
0
 10
55.8145
 20
30.056
 11
55.8572
 21
29.972
  0
LINE
  8
0
 10
55.8572
 20
29.972
 11
55.8947
 21
29.8855
  0
LINE
  8
0
 10
55.8947
 20
29.8855
 11
55.9266
 21
29.7968
  0
LINE
  8
0
 10
55.9266
 20
29.7968
 11
55.9529
 21
29.7064
  0
LINE
  8
0
 10
55.9529
 20
29.7064
 11
55.9734
 21
29.6144
  0
LINE
  8
0
 10
55.9734
 20
29.6144
 11
55.9882
 21
29.5213
  0
LINE
  8
0
 10
55.9882
 20
29.5213
 11
55.997
 21
29.4275
  0
LINE
  8
0
 10
55.997
 20
29.4275
 11
56
 21
29.3333
  0
LINE
  8
0
 10
56
 20
29.3333
 11
55.997
 21
29.2391
  0
LINE
  8
0
 10
55.997
 20
29.2391
 11
55.9882
 21
29.1453
  0
LINE
  8
0
 10
55.9882
 20
29.1453
 11
55.9734
 21
29.0523
  0
LINE
  8
0
 10
55.9734
 20
29.0523
 11
55.9529
 21
28.9603
  0
LINE
  8
0
 10
55.9529
 20
28.9603
 11
55.9266
 21
28.8698
  0
LINE
  8
0
 10
55.9266
 20
28.8698
 11
55.8947
 21
28.7811
  0
LINE
  8
0
 10
55.8947
 20
28.7811
 11
55.8572
 21
28.6947
  0
LINE
  8
0
 10
55.8572
 20
28.6947
 11
55.8145
 21
28.6107
  0
LINE
  8
0
 10
55.8145
 20
28.6107
 11
55.7665
 21
28.5296
  0
LINE
  8
0
 10
55.7665
 20
28.5296
 11
55.7135
 21
28.4516
  0
LINE
  8
0
 10
55.7135
 20
28.4516
 11
55.6558
 21
28.3772
  0
LINE
  8
0
 10
55.6558
 20
28.3772
 11
55.5934
 21
28.3065
  0
LINE
  8
0
 10
55.5934
 20
28.3065
 11
55.5268
 21
28.2399
  0
LINE
  8
0
 10
55.5268
 20
28.2399
 11
55.4561
 21
28.1776
  0
LINE
  8
0
 10
55.4561
 20
28.1776
 11
55.3817
 21
28.1198
  0
LINE
  8
0
 10
55.3817
 20
28.1198
 11
55.3037
 21
28.0668
  0
LINE
  8
0
 10
55.3037
 20
28.0668
 11
55.2226
 21
28.0189
  0
LINE
  8
0
 10
55.2226
 20
28.0189
 11
55.1387
 21
27.9761
  0
LINE
  8
0
 10
55.1387
 20
27.9761
 11
55.0522
 21
27.9387
  0
LINE
  8
0
 10
55.0522
 20
27.9387
 11
31.0522
 21
18.9387
  0
LINE
  8
0
 10
31.0522
 20
18.9387
 11
30.9635
 21
18.9067
  0
LINE
  8
0
 10
30.9635
 20
18.9067
 11
30.873
 21
18.8804
  0
LINE
  8
0
 10
30.873
 20
18.8804
 11
30.7811
 21
18.8599
  0
LINE
  8
0
 10
30.7811
 20
18.8599
 11
30.688
 21
18.8452
  0
LINE
  8
0
 10
30.688
 20
18.8452
 11
30.5942
 21
18.8363
  0
LINE
  8
0
 10
30.5942
 20
18.8363
 11
30.5
 21
18.8333
  0
LINE
  8
0
 10
30.5
 20
18.8333
 11
30.4058
 21
18.8363
  0
ENDSEC
  0
SECTION
  2
OBJECTS
  0
DICTIONARY
  0
ENDSEC
  0
EOF
