  0
SECTION
  2
BLOCKS
  0
ENDSEC
  0
SECTION
  2
ENTITIES
  0
LINE
  8
0
 10
103
 20
81
 11
128
 21
81
  0
LINE
  8
0
 10
128
 20
81
 11
128
 21
78
  0
LINE
  8
0
 10
128
 20
78
 11
140
 21
78
  0
LINE
  8
0
 10
140
 20
78
 11
140
 21
81
  0
LINE
  8
0
 10
140
 20
81
 11
148
 21
81
  0
LINE
  8
0
 10
148
 20
81
 11
148
 21
151
  0
LINE
  8
0
 10
148
 20
151
 11
140
 21
151
  0
LINE
  8
0
 10
140
 20
151
 11
140
 21
154
  0
LINE
  8
0
 10
140
 20
154
 11
128
 21
154
  0
LINE
  8
0
 10
128
 20
154
 11
128
 21
151
  0
LINE
  8
0
 10
128
 20
151
 11
103
 21
151
  0
LINE
  8
0
 10
103
 20
151
 11
103
 21
154
  0
LINE
  8
0
 10
103
 20
154
 11
91
 21
154
  0
LINE
  8
0
 10
91
 20
154
 11
91
 21
151
  0
LINE
  8
0
 10
91
 20
151
 11
78
 21
151
  0
LINE
  8
0
 10
78
 20
151
 11
78
 21
81
  0
LINE
  8
0
 10
78
 20
81
 11
91
 21
81
  0
LINE
  8
0
 10
91
 20
81
 11
91
 21
78
  0
LINE
  8
0
 10
91
 20
78
 11
103
 21
78
  0
LINE
  8
0
 10
103
 20
78
 11
103
 21
81
  0
LINE
  8
0
 10
134.206
 20
138.653
 11
134.112
 21
138.662
  0
LINE
  8
0
 10
134.112
 20
138.662
 11
134.019
 21
138.677
  0
LINE
  8
0
 10
134.019
 20
138.677
 11
133.927
 21
138.697
  0
LINE
  8
0
 10
133.927
 20
138.697
 11
133.836
 21
138.723
  0
LINE
  8
0
 10
133.836
 20
138.723
 11
133.748
 21
138.755
  0
LINE
  8
0
 10
133.748
 20
138.755
 11
133.661
 21
138.793
  0
LINE
  8
0
 10
133.661
 20
138.793
 11
133.577
 21
138.836
  0
LINE
  8
0
 10
133.577
 20
138.836
 11
133.496
 21
138.883
  0
LINE
  8
0
 10
133.496
 20
138.883
 11
133.418
 21
138.936
  0
LINE
  8
0
 10
133.418
 20
138.936
 11
133.344
 21
138.994
  0
LINE
  8
0
 10
133.344
 20
138.994
 11
133.273
 21
139.057
  0
LINE
  8
0
 10
133.273
 20
139.057
 11
133.207
 21
139.123
  0
LINE
  8
0
 10
133.207
 20
139.123
 11
133.144
 21
139.194
  0
LINE
  8
0
 10
133.144
 20
139.194
 11
133.086
 21
139.268
  0
LINE
  8
0
 10
133.086
 20
139.268
 11
133.033
 21
139.346
  0
LINE
  8
0
 10
133.033
 20
139.346
 11
132.986
 21
139.427
  0
LINE
  8
0
 10
132.986
 20
139.427
 11
132.943
 21
139.511
  0
LINE
  8
0
 10
132.943
 20
139.511
 11
132.905
 21
139.598
  0
LINE
  8
0
 10
132.905
 20
139.598
 11
132.873
 21
139.686
  0
LINE
  8
0
 10
132.873
 20
139.686
 11
132.847
 21
139.777
  0
LINE
  8
0
 10
132.847
 20
139.777
 11
132.827
 21
139.869
  0
LINE
  8
0
 10
132.827
 20
139.869
 11
132.812
 21
139.962
  0
LINE
  8
0
 10
132.812
 20
139.962
 11
132.803
 21
140.056
  0
LINE
  8
0
 10
132.803
 20
140.056
 11
132.8
 21
140.15
  0
LINE
  8
0
 10
132.8
 20
140.15
 11
132.803
 21
140.244
  0
LINE
  8
0
 10
132.803
 20
140.244
 11
132.812
 21
140.338
  0
LINE
  8
0
 10
132.812
 20
140.338
 11
132.827
 21
140.431
  0
LINE
  8
0
 10
132.827
 20
140.431
 11
132.847
 21
140.523
  0
LINE
  8
0
 10
132.847
 20
140.523
 11
132.873
 21
140.614
  0
LINE
  8
0
 10
132.873
 20
140.614
 11
132.905
 21
140.702
  0
LINE
  8
0
 10
132.905
 20
140.702
 11
132.943
 21
140.789
  0
LINE
  8
0
 10
132.943
 20
140.789
 11
132.986
 21
140.873
  0
LINE
  8
0
 10
132.986
 20
140.873
 11
133.033
 21
140.954
  0
LINE
  8
0
 10
133.033
 20
140.954
 11
133.086
 21
141.032
  0
LINE
  8
0
 10
133.086
 20
141.032
 11
133.144
 21
141.106
  0
LINE
  8
0
 10
133.144
 20
141.106
 11
133.207
 21
141.177
  0
LINE
  8
0
 10
133.207
 20
141.177
 11
133.273
 21
141.243
  0
LINE
  8
0
 10
133.273
 20
141.243
 11
133.344
 21
141.306
  0
LINE
  8
0
 10
133.344
 20
141.306
 11
133.418
 21
141.364
  0
LINE
  8
0
 10
133.418
 20
141.364
 11
133.496
 21
141.416
  0
LINE
  8
0
 10
133.496
 20
141.416
 11
133.577
 21
141.464
  0
LINE
  8
0
 10
133.577
 20
141.464
 11
133.661
 21
141.507
  0
LINE
  8
0
 10
133.661
 20
141.507
 11
133.748
 21
141.545
  0
LINE
  8
0
 10
133.748
 20
141.545
 11
133.836
 21
141.577
  0
LINE
  8
0
 10
133.836
 20
141.577
 11
133.927
 21
141.603
  0
LINE
  8
0
 10
133.927
 20
141.603
 11
134.019
 21
141.623
  0
LINE
  8
0
 10
134.019
 20
141.623
 11
134.112
 21
141.638
  0
LINE
  8
0
 10
134.112
 20
141.638
 11
134.206
 21
141.647
  0
LINE
  8
0
 10
134.206
 20
141.647
 11
134.3
 21
141.65
  0
LINE
  8
0
 10
134.3
 20
141.65
 11
134.394
 21
141.647
  0
LINE
  8
0
 10
134.394
 20
141.647
 11
134.488
 21
141.638
  0
LINE
  8
0
 10
134.488
 20
141.638
 11
134.581
 21
141.623
  0
LINE
  8
0
 10
134.581
 20
141.623
 11
134.673
 21
141.603
  0
LINE
  8
0
 10
134.673
 20
141.603
 11
134.764
 21
141.577
  0
LINE
  8
0
 10
134.764
 20
141.577
 11
134.852
 21
141.545
  0
LINE
  8
0
 10
134.852
 20
141.545
 11
134.939
 21
141.507
  0
LINE
  8
0
 10
134.939
 20
141.507
 11
135.023
 21
141.464
  0
LINE
  8
0
 10
135.023
 20
141.464
 11
135.104
 21
141.416
  0
LINE
  8
0
 10
135.104
 20
141.416
 11
135.182
 21
141.364
  0
LINE
  8
0
 10
135.182
 20
141.364
 11
135.256
 21
141.306
  0
LINE
  8
0
 10
135.256
 20
141.306
 11
135.327
 21
141.243
  0
LINE
  8
0
 10
135.327
 20
141.243
 11
135.393
 21
141.177
  0
LINE
  8
0
 10
135.393
 20
141.177
 11
135.456
 21
141.106
  0
LINE
  8
0
 10
135.456
 20
141.106
 11
135.514
 21
141.032
  0
LINE
  8
0
 10
135.514
 20
141.032
 11
135.566
 21
140.954
  0
LINE
  8
0
 10
135.566
 20
140.954
 11
135.614
 21
140.873
  0
LINE
  8
0
 10
135.614
 20
140.873
 11
135.657
 21
140.789
  0
LINE
  8
0
 10
135.657
 20
140.789
 11
135.695
 21
140.702
  0
LINE
  8
0
 10
135.695
 20
140.702
 11
135.727
 21
140.614
  0
LINE
  8
0
 10
135.727
 20
140.614
 11
135.753
 21
140.523
  0
LINE
  8
0
 10
135.753
 20
140.523
 11
135.773
 21
140.431
  0
LINE
  8
0
 10
135.773
 20
140.431
 11
135.788
 21
140.338
  0
LINE
  8
0
 10
135.788
 20
140.338
 11
135.797
 21
140.244
  0
LINE
  8
0
 10
135.797
 20
140.244
 11
135.8
 21
140.15
  0
LINE
  8
0
 10
135.8
 20
140.15
 11
135.797
 21
140.056
  0
LINE
  8
0
 10
135.797
 20
140.056
 11
135.788
 21
139.962
  0
LINE
  8
0
 10
135.788
 20
139.962
 11
135.773
 21
139.869
  0
LINE
  8
0
 10
135.773
 20
139.869
 11
135.753
 21
139.777
  0
LINE
  8
0
 10
135.753
 20
139.777
 11
135.727
 21
139.686
  0
LINE
  8
0
 10
135.727
 20
139.686
 11
135.695
 21
139.598
  0
LINE
  8
0
 10
135.695
 20
139.598
 11
135.657
 21
139.511
  0
LINE
  8
0
 10
135.657
 20
139.511
 11
135.614
 21
139.427
  0
LINE
  8
0
 10
135.614
 20
139.427
 11
135.566
 21
139.346
  0
LINE
  8
0
 10
135.566
 20
139.346
 11
135.514
 21
139.268
  0
LINE
  8
0
 10
135.514
 20
139.268
 11
135.456
 21
139.194
  0
LINE
  8
0
 10
135.456
 20
139.194
 11
135.393
 21
139.123
  0
LINE
  8
0
 10
135.393
 20
139.123
 11
135.327
 21
139.057
  0
LINE
  8
0
 10
135.327
 20
139.057
 11
135.256
 21
138.994
  0
LINE
  8
0
 10
135.256
 20
138.994
 11
135.182
 21
138.936
  0
LINE
  8
0
 10
135.182
 20
138.936
 11
135.104
 21
138.883
  0
LINE
  8
0
 10
135.104
 20
138.883
 11
135.023
 21
138.836
  0
LINE
  8
0
 10
135.023
 20
138.836
 11
134.939
 21
138.793
  0
LINE
  8
0
 10
134.939
 20
138.793
 11
134.852
 21
138.755
  0
LINE
  8
0
 10
134.852
 20
138.755
 11
134.764
 21
138.723
  0
LINE
  8
0
 10
134.764
 20
138.723
 11
134.673
 21
138.697
  0
LINE
  8
0
 10
134.673
 20
138.697
 11
134.581
 21
138.677
  0
LINE
  8
0
 10
134.581
 20
138.677
 11
134.488
 21
138.662
  0
LINE
  8
0
 10
134.488
 20
138.662
 11
134.394
 21
138.653
  0
LINE
  8
0
 10
134.394
 20
138.653
 11
134.3
 21
138.65
  0
LINE
  8
0
 10
134.3
 20
138.65
 11
134.206
 21
138.653
  0
LINE
  8
0
 10
82.1058
 20
133.453
 11
82.012
 21
133.462
  0
LINE
  8
0
 10
82.012
 20
133.462
 11
81.9189
 21
133.477
  0
LINE
  8
0
 10
81.9189
 20
133.477
 11
81.827
 21
133.497
  0
LINE
  8
0
 10
81.827
 20
133.497
 11
81.7365
 21
133.523
  0
LINE
  8
0
 10
81.7365
 20
133.523
 11
81.6478
 21
133.555
  0
LINE
  8
0
 10
81.6478
 20
133.555
 11
81.5613
 21
133.593
  0
LINE
  8
0
 10
81.5613
 20
133.593
 11
81.4774
 21
133.636
  0
LINE
  8
0
 10
81.4774
 20
133.636
 11
81.3963
 21
133.684
  0
LINE
  8
0
 10
81.3963
 20
133.684
 11
81.3183
 21
133.736
  0
LINE
  8
0
 10
81.3183
 20
133.736
 11
81.2439
 21
133.794
  0
LINE
  8
0
 10
81.2439
 20
133.794
 11
81.1732
 21
133.857
  0
LINE
  8
0
 10
81.1732
 20
133.857
 11
81.1065
 21
133.923
  0
LINE
  8
0
 10
81.1065
 20
133.923
 11
81.0442
 21
133.994
  0
LINE
  8
0
 10
81.0442
 20
133.994
 11
80.9865
 21
134.068
  0
LINE
  8
0
 10
80.9865
 20
134.068
 11
80.9335
 21
134.146
  0
LINE
  8
0
 10
80.9335
 20
134.146
 11
80.8855
 21
134.227
  0
LINE
  8
0
 10
80.8855
 20
134.227
 11
80.8428
 21
134.311
  0
LINE
  8
0
 10
80.8428
 20
134.311
 11
80.8053
 21
134.398
  0
LINE
  8
0
 10
80.8053
 20
134.398
 11
80.7734
 21
134.486
  0
LINE
  8
0
 10
80.7734
 20
134.486
 11
80.7471
 21
134.577
  0
LINE
  8
0
 10
80.7471
 20
134.577
 11
80.7266
 21
134.669
  0
LINE
  8
0
 10
80.7266
 20
134.669
 11
80.7118
 21
134.762
  0
LINE
  8
0
 10
80.7118
 20
134.762
 11
80.703
 21
134.856
  0
LINE
  8
0
 10
80.703
 20
134.856
 11
80.7
 21
134.95
  0
LINE
  8
0
 10
80.7
 20
134.95
 11
80.703
 21
135.044
  0
LINE
  8
0
 10
80.703
 20
135.044
 11
80.7118
 21
135.138
  0
LINE
  8
0
 10
80.7118
 20
135.138
 11
80.7266
 21
135.231
  0
LINE
  8
0
 10
80.7266
 20
135.231
 11
80.7471
 21
135.323
  0
LINE
  8
0
 10
80.7471
 20
135.323
 11
80.7734
 21
135.414
  0
LINE
  8
0
 10
80.7734
 20
135.414
 11
80.8053
 21
135.502
  0
LINE
  8
0
 10
80.8053
 20
135.502
 11
80.8428
 21
135.589
  0
LINE
  8
0
 10
80.8428
 20
135.589
 11
80.8855
 21
135.673
  0
LINE
  8
0
 10
80.8855
 20
135.673
 11
80.9335
 21
135.754
  0
LINE
  8
0
 10
80.9335
 20
135.754
 11
80.9865
 21
135.832
  0
LINE
  8
0
 10
80.9865
 20
135.832
 11
81.0442
 21
135.906
  0
LINE
  8
0
 10
81.0442
 20
135.906
 11
81.1065
 21
135.977
  0
LINE
  8
0
 10
81.1065
 20
135.977
 11
81.1732
 21
136.043
  0
LINE
  8
0
 10
81.1732
 20
136.043
 11
81.2439
 21
136.106
  0
LINE
  8
0
 10
81.2439
 20
136.106
 11
81.3183
 21
136.164
  0
LINE
  8
0
 10
81.3183
 20
136.164
 11
81.3963
 21
136.216
  0
LINE
  8
0
 10
81.3963
 20
136.216
 11
81.4774
 21
136.264
  0
LINE
  8
0
 10
81.4774
 20
136.264
 11
81.5613
 21
136.307
  0
LINE
  8
0
 10
81.5613
 20
136.307
 11
81.6478
 21
136.345
  0
LINE
  8
0
 10
81.6478
 20
136.345
 11
81.7365
 21
136.377
  0
LINE
  8
0
 10
81.7365
 20
136.377
 11
81.827
 21
136.403
  0
LINE
  8
0
 10
81.827
 20
136.403
 11
81.9189
 21
136.423
  0
LINE
  8
0
 10
81.9189
 20
136.423
 11
82.012
 21
136.438
  0
LINE
  8
0
 10
82.012
 20
136.438
 11
82.1058
 21
136.447
  0
LINE
  8
0
 10
82.1058
 20
136.447
 11
82.2
 21
136.45
  0
LINE
  8
0
 10
82.2
 20
136.45
 11
82.2942
 21
136.447
  0
LINE
  8
0
 10
82.2942
 20
136.447
 11
82.388
 21
136.438
  0
LINE
  8
0
 10
82.388
 20
136.438
 11
82.4811
 21
136.423
  0
LINE
  8
0
 10
82.4811
 20
136.423
 11
82.573
 21
136.403
  0
LINE
  8
0
 10
82.573
 20
136.403
 11
82.6635
 21
136.377
  0
LINE
  8
0
 10
82.6635
 20
136.377
 11
82.7522
 21
136.345
  0
LINE
  8
0
 10
82.7522
 20
136.345
 11
82.8387
 21
136.307
  0
LINE
  8
0
 10
82.8387
 20
136.307
 11
82.9226
 21
136.264
  0
LINE
  8
0
 10
82.9226
 20
136.264
 11
83.0037
 21
136.216
  0
LINE
  8
0
 10
83.0037
 20
136.216
 11
83.0817
 21
136.164
  0
LINE
  8
0
 10
83.0817
 20
136.164
 11
83.1561
 21
136.106
  0
LINE
  8
0
 10
83.1561
 20
136.106
 11
83.2268
 21
136.043
  0
LINE
  8
0
 10
83.2268
 20
136.043
 11
83.2934
 21
135.977
  0
LINE
  8
0
 10
83.2934
 20
135.977
 11
83.3558
 21
135.906
  0
LINE
  8
0
 10
83.3558
 20
135.906
 11
83.4135
 21
135.832
  0
LINE
  8
0
 10
83.4135
 20
135.832
 11
83.4665
 21
135.754
  0
LINE
  8
0
 10
83.4665
 20
135.754
 11
83.5145
 21
135.673
  0
LINE
  8
0
 10
83.5145
 20
135.673
 11
83.5572
 21
135.589
  0
LINE
  8
0
 10
83.5572
 20
135.589
 11
83.5947
 21
135.502
  0
LINE
  8
0
 10
83.5947
 20
135.502
 11
83.6266
 21
135.414
  0
LINE
  8
0
 10
83.6266
 20
135.414
 11
83.6529
 21
135.323
  0
LINE
  8
0
 10
83.6529
 20
135.323
 11
83.6734
 21
135.231
  0
LINE
  8
0
 10
83.6734
 20
135.231
 11
83.6882
 21
135.138
  0
LINE
  8
0
 10
83.6882
 20
135.138
 11
83.697
 21
135.044
  0
LINE
  8
0
 10
83.697
 20
135.044
 11
83.7
 21
134.95
  0
LINE
  8
0
 10
83.7
 20
134.95
 11
83.697
 21
134.856
  0
LINE
  8
0
 10
83.697
 20
134.856
 11
83.6882
 21
134.762
  0
LINE
  8
0
 10
83.6882
 20
134.762
 11
83.6734
 21
134.669
  0
LINE
  8
0
 10
83.6734
 20
134.669
 11
83.6529
 21
134.577
  0
LINE
  8
0
 10
83.6529
 20
134.577
 11
83.6266
 21
134.486
  0
LINE
  8
0
 10
83.6266
 20
134.486
 11
83.5947
 21
134.398
  0
LINE
  8
0
 10
83.5947
 20
134.398
 11
83.5572
 21
134.311
  0
LINE
  8
0
 10
83.5572
 20
134.311
 11
83.5145
 21
134.227
  0
LINE
  8
0
 10
83.5145
 20
134.227
 11
83.4665
 21
134.146
  0
LINE
  8
0
 10
83.4665
 20
134.146
 11
83.4135
 21
134.068
  0
LINE
  8
0
 10
83.4135
 20
134.068
 11
83.3558
 21
133.994
  0
LINE
  8
0
 10
83.3558
 20
133.994
 11
83.2934
 21
133.923
  0
LINE
  8
0
 10
83.2934
 20
133.923
 11
83.2268
 21
133.857
  0
LINE
  8
0
 10
83.2268
 20
133.857
 11
83.1561
 21
133.794
  0
LINE
  8
0
 10
83.1561
 20
133.794
 11
83.0817
 21
133.736
  0
LINE
  8
0
 10
83.0817
 20
133.736
 11
83.0037
 21
133.684
  0
LINE
  8
0
 10
83.0037
 20
133.684
 11
82.9226
 21
133.636
  0
LINE
  8
0
 10
82.9226
 20
133.636
 11
82.8387
 21
133.593
  0
LINE
  8
0
 10
82.8387
 20
133.593
 11
82.7522
 21
133.555
  0
LINE
  8
0
 10
82.7522
 20
133.555
 11
82.6635
 21
133.523
  0
LINE
  8
0
 10
82.6635
 20
133.523
 11
82.573
 21
133.497
  0
LINE
  8
0
 10
82.573
 20
133.497
 11
82.4811
 21
133.477
  0
LINE
  8
0
 10
82.4811
 20
133.477
 11
82.388
 21
133.462
  0
LINE
  8
0
 10
82.388
 20
133.462
 11
82.2942
 21
133.453
  0
LINE
  8
0
 10
82.2942
 20
133.453
 11
82.2
 21
133.45
  0
LINE
  8
0
 10
82.2
 20
133.45
 11
82.1058
 21
133.453
  0
LINE
  8
0
 10
82.1058
 20
105.553
 11
82.012
 21
105.562
  0
LINE
  8
0
 10
82.012
 20
105.562
 11
81.9189
 21
105.577
  0
LINE
  8
0
 10
81.9189
 20
105.577
 11
81.827
 21
105.597
  0
LINE
  8
0
 10
81.827
 20
105.597
 11
81.7365
 21
105.623
  0
LINE
  8
0
 10
81.7365
 20
105.623
 11
81.6478
 21
105.655
  0
LINE
  8
0
 10
81.6478
 20
105.655
 11
81.5613
 21
105.693
  0
LINE
  8
0
 10
81.5613
 20
105.693
 11
81.4774
 21
105.736
  0
LINE
  8
0
 10
81.4774
 20
105.736
 11
81.3963
 21
105.783
  0
LINE
  8
0
 10
81.3963
 20
105.783
 11
81.3183
 21
105.836
  0
LINE
  8
0
 10
81.3183
 20
105.836
 11
81.2439
 21
105.894
  0
LINE
  8
0
 10
81.2439
 20
105.894
 11
81.1732
 21
105.957
  0
LINE
  8
0
 10
81.1732
 20
105.957
 11
81.1065
 21
106.023
  0
LINE
  8
0
 10
81.1065
 20
106.023
 11
81.0442
 21
106.094
  0
LINE
  8
0
 10
81.0442
 20
106.094
 11
80.9865
 21
106.168
  0
LINE
  8
0
 10
80.9865
 20
106.168
 11
80.9335
 21
106.246
  0
LINE
  8
0
 10
80.9335
 20
106.246
 11
80.8855
 21
106.327
  0
LINE
  8
0
 10
80.8855
 20
106.327
 11
80.8428
 21
106.411
  0
LINE
  8
0
 10
80.8428
 20
106.411
 11
80.8053
 21
106.498
  0
LINE
  8
0
 10
80.8053
 20
106.498
 11
80.7734
 21
106.586
  0
LINE
  8
0
 10
80.7734
 20
106.586
 11
80.7471
 21
106.677
  0
LINE
  8
0
 10
80.7471
 20
106.677
 11
80.7266
 21
106.769
  0
LINE
  8
0
 10
80.7266
 20
106.769
 11
80.7118
 21
106.862
  0
LINE
  8
0
 10
80.7118
 20
106.862
 11
80.703
 21
106.956
  0
LINE
  8
0
 10
80.703
 20
106.956
 11
80.7
 21
107.05
  0
LINE
  8
0
 10
80.7
 20
107.05
 11
80.703
 21
107.144
  0
LINE
  8
0
 10
80.703
 20
107.144
 11
80.7118
 21
107.238
  0
LINE
  8
0
 10
80.7118
 20
107.238
 11
80.7266
 21
107.331
  0
LINE
  8
0
 10
80.7266
 20
107.331
 11
80.7471
 21
107.423
  0
LINE
  8
0
 10
80.7471
 20
107.423
 11
80.7734
 21
107.514
  0
LINE
  8
0
 10
80.7734
 20
107.514
 11
80.8053
 21
107.602
  0
LINE
  8
0
 10
80.8053
 20
107.602
 11
80.8428
 21
107.689
  0
LINE
  8
0
 10
80.8428
 20
107.689
 11
80.8855
 21
107.773
  0
LINE
  8
0
 10
80.8855
 20
107.773
 11
80.9335
 21
107.854
  0
LINE
  8
0
 10
80.9335
 20
107.854
 11
80.9865
 21
107.932
  0
LINE
  8
0
 10
80.9865
 20
107.932
 11
81.0442
 21
108.006
  0
LINE
  8
0
 10
81.0442
 20
108.006
 11
81.1065
 21
108.077
  0
LINE
  8
0
 10
81.1065
 20
108.077
 11
81.1732
 21
108.143
  0
LINE
  8
0
 10
81.1732
 20
108.143
 11
81.2439
 21
108.206
  0
LINE
  8
0
 10
81.2439
 20
108.206
 11
81.3183
 21
108.264
  0
LINE
  8
0
 10
81.3183
 20
108.264
 11
81.3963
 21
108.316
  0
LINE
  8
0
 10
81.3963
 20
108.316
 11
81.4774
 21
108.364
  0
LINE
  8
0
 10
81.4774
 20
108.364
 11
81.5613
 21
108.407
  0
LINE
  8
0
 10
81.5613
 20
108.407
 11
81.6478
 21
108.445
  0
LINE
  8
0
 10
81.6478
 20
108.445
 11
81.7365
 21
108.477
  0
LINE
  8
0
 10
81.7365
 20
108.477
 11
81.827
 21
108.503
  0
LINE
  8
0
 10
81.827
 20
108.503
 11
81.9189
 21
108.523
  0
LINE
  8
0
 10
81.9189
 20
108.523
 11
82.012
 21
108.538
  0
LINE
  8
0
 10
82.012
 20
108.538
 11
82.1058
 21
108.547
  0
LINE
  8
0
 10
82.1058
 20
108.547
 11
82.2
 21
108.55
  0
LINE
  8
0
 10
82.2
 20
108.55
 11
82.2942
 21
108.547
  0
LINE
  8
0
 10
82.2942
 20
108.547
 11
82.388
 21
108.538
  0
LINE
  8
0
 10
82.388
 20
108.538
 11
82.4811
 21
108.523
  0
LINE
  8
0
 10
82.4811
 20
108.523
 11
82.573
 21
108.503
  0
LINE
  8
0
 10
82.573
 20
108.503
 11
82.6635
 21
108.477
  0
LINE
  8
0
 10
82.6635
 20
108.477
 11
82.7522
 21
108.445
  0
LINE
  8
0
 10
82.7522
 20
108.445
 11
82.8387
 21
108.407
  0
LINE
  8
0
 10
82.8387
 20
108.407
 11
82.9226
 21
108.364
  0
LINE
  8
0
 10
82.9226
 20
108.364
 11
83.0037
 21
108.316
  0
LINE
  8
0
 10
83.0037
 20
108.316
 11
83.0817
 21
108.264
  0
LINE
  8
0
 10
83.0817
 20
108.264
 11
83.1561
 21
108.206
  0
LINE
  8
0
 10
83.1561
 20
108.206
 11
83.2268
 21
108.143
  0
LINE
  8
0
 10
83.2268
 20
108.143
 11
83.2934
 21
108.077
  0
LINE
  8
0
 10
83.2934
 20
108.077
 11
83.3558
 21
108.006
  0
LINE
  8
0
 10
83.3558
 20
108.006
 11
83.4135
 21
107.932
  0
LINE
  8
0
 10
83.4135
 20
107.932
 11
83.4665
 21
107.854
  0
LINE
  8
0
 10
83.4665
 20
107.854
 11
83.5145
 21
107.773
  0
LINE
  8
0
 10
83.5145
 20
107.773
 11
83.5572
 21
107.689
  0
LINE
  8
0
 10
83.5572
 20
107.689
 11
83.5947
 21
107.602
  0
LINE
  8
0
 10
83.5947
 20
107.602
 11
83.6266
 21
107.514
  0
LINE
  8
0
 10
83.6266
 20
107.514
 11
83.6529
 21
107.423
  0
LINE
  8
0
 10
83.6529
 20
107.423
 11
83.6734
 21
107.331
  0
LINE
  8
0
 10
83.6734
 20
107.331
 11
83.6882
 21
107.238
  0
LINE
  8
0
 10
83.6882
 20
107.238
 11
83.697
 21
107.144
  0
LINE
  8
0
 10
83.697
 20
107.144
 11
83.7
 21
107.05
  0
LINE
  8
0
 10
83.7
 20
107.05
 11
83.697
 21
106.956
  0
LINE
  8
0
 10
83.697
 20
106.956
 11
83.6882
 21
106.862
  0
LINE
  8
0
 10
83.6882
 20
106.862
 11
83.6734
 21
106.769
  0
LINE
  8
0
 10
83.6734
 20
106.769
 11
83.6529
 21
106.677
  0
LINE
  8
0
 10
83.6529
 20
106.677
 11
83.6266
 21
106.586
  0
LINE
  8
0
 10
83.6266
 20
106.586
 11
83.5947
 21
106.498
  0
LINE
  8
0
 10
83.5947
 20
106.498
 11
83.5572
 21
106.411
  0
LINE
  8
0
 10
83.5572
 20
106.411
 11
83.5145
 21
106.327
  0
LINE
  8
0
 10
83.5145
 20
106.327
 11
83.4665
 21
106.246
  0
LINE
  8
0
 10
83.4665
 20
106.246
 11
83.4135
 21
106.168
  0
LINE
  8
0
 10
83.4135
 20
106.168
 11
83.3558
 21
106.094
  0
LINE
  8
0
 10
83.3558
 20
106.094
 11
83.2934
 21
106.023
  0
LINE
  8
0
 10
83.2934
 20
106.023
 11
83.2268
 21
105.957
  0
LINE
  8
0
 10
83.2268
 20
105.957
 11
83.1561
 21
105.894
  0
LINE
  8
0
 10
83.1561
 20
105.894
 11
83.0817
 21
105.836
  0
LINE
  8
0
 10
83.0817
 20
105.836
 11
83.0037
 21
105.783
  0
LINE
  8
0
 10
83.0037
 20
105.783
 11
82.9226
 21
105.736
  0
LINE
  8
0
 10
82.9226
 20
105.736
 11
82.8387
 21
105.693
  0
LINE
  8
0
 10
82.8387
 20
105.693
 11
82.7522
 21
105.655
  0
LINE
  8
0
 10
82.7522
 20
105.655
 11
82.6635
 21
105.623
  0
LINE
  8
0
 10
82.6635
 20
105.623
 11
82.573
 21
105.597
  0
LINE
  8
0
 10
82.573
 20
105.597
 11
82.4811
 21
105.577
  0
LINE
  8
0
 10
82.4811
 20
105.577
 11
82.388
 21
105.562
  0
LINE
  8
0
 10
82.388
 20
105.562
 11
82.2942
 21
105.553
  0
LINE
  8
0
 10
82.2942
 20
105.553
 11
82.2
 21
105.55
  0
LINE
  8
0
 10
82.2
 20
105.55
 11
82.1058
 21
105.553
  0
LINE
  8
0
 10
132.906
 20
90.353
 11
132.812
 21
90.3618
  0
LINE
  8
0
 10
132.812
 20
90.3618
 11
132.719
 21
90.3766
  0
LINE
  8
0
 10
132.719
 20
90.3766
 11
132.627
 21
90.3971
  0
LINE
  8
0
 10
132.627
 20
90.3971
 11
132.536
 21
90.4234
  0
LINE
  8
0
 10
132.536
 20
90.4234
 11
132.448
 21
90.4553
  0
LINE
  8
0
 10
132.448
 20
90.4553
 11
132.361
 21
90.4928
  0
LINE
  8
0
 10
132.361
 20
90.4928
 11
132.277
 21
90.5355
  0
LINE
  8
0
 10
132.277
 20
90.5355
 11
132.196
 21
90.5835
  0
LINE
  8
0
 10
132.196
 20
90.5835
 11
132.118
 21
90.6365
  0
LINE
  8
0
 10
132.118
 20
90.6365
 11
132.044
 21
90.6942
  0
LINE
  8
0
 10
132.044
 20
90.6942
 11
131.973
 21
90.7565
  0
LINE
  8
0
 10
131.973
 20
90.7565
 11
131.907
 21
90.8232
  0
LINE
  8
0
 10
131.907
 20
90.8232
 11
131.844
 21
90.8939
  0
LINE
  8
0
 10
131.844
 20
90.8939
 11
131.786
 21
90.9683
  0
LINE
  8
0
 10
131.786
 20
90.9683
 11
131.734
 21
91.0462
  0
LINE
  8
0
 10
131.734
 20
91.0462
 11
131.686
 21
91.1274
  0
LINE
  8
0
 10
131.686
 20
91.1274
 11
131.643
 21
91.2113
  0
LINE
  8
0
 10
131.643
 20
91.2113
 11
131.605
 21
91.2978
  0
LINE
  8
0
 10
131.605
 20
91.2978
 11
131.573
 21
91.3865
  0
LINE
  8
0
 10
131.573
 20
91.3865
 11
131.547
 21
91.477
  0
LINE
  8
0
 10
131.547
 20
91.477
 11
131.527
 21
91.5689
  0
LINE
  8
0
 10
131.527
 20
91.5689
 11
131.512
 21
91.662
  0
LINE
  8
0
 10
131.512
 20
91.662
 11
131.503
 21
91.7558
  0
LINE
  8
0
 10
131.503
 20
91.7558
 11
131.5
 21
91.85
  0
LINE
  8
0
 10
131.5
 20
91.85
 11
131.503
 21
91.9442
  0
LINE
  8
0
 10
131.503
 20
91.9442
 11
131.512
 21
92.038
  0
LINE
  8
0
 10
131.512
 20
92.038
 11
131.527
 21
92.1311
  0
LINE
  8
0
 10
131.527
 20
92.1311
 11
131.547
 21
92.223
  0
LINE
  8
0
 10
131.547
 20
92.223
 11
131.573
 21
92.3135
  0
LINE
  8
0
 10
131.573
 20
92.3135
 11
131.605
 21
92.4022
  0
LINE
  8
0
 10
131.605
 20
92.4022
 11
131.643
 21
92.4887
  0
LINE
  8
0
 10
131.643
 20
92.4887
 11
131.686
 21
92.5726
  0
LINE
  8
0
 10
131.686
 20
92.5726
 11
131.734
 21
92.6537
  0
LINE
  8
0
 10
131.734
 20
92.6537
 11
131.786
 21
92.7317
  0
LINE
  8
0
 10
131.786
 20
92.7317
 11
131.844
 21
92.8061
  0
LINE
  8
0
 10
131.844
 20
92.8061
 11
131.907
 21
92.8768
  0
LINE
  8
0
 10
131.907
 20
92.8768
 11
131.973
 21
92.9435
  0
LINE
  8
0
 10
131.973
 20
92.9435
 11
132.044
 21
93.0058
  0
LINE
  8
0
 10
132.044
 20
93.0058
 11
132.118
 21
93.0635
  0
LINE
  8
0
 10
132.118
 20
93.0635
 11
132.196
 21
93.1165
  0
LINE
  8
0
 10
132.196
 20
93.1165
 11
132.277
 21
93.1645
  0
LINE
  8
0
 10
132.277
 20
93.1645
 11
132.361
 21
93.2072
  0
LINE
  8
0
 10
132.361
 20
93.2072
 11
132.448
 21
93.2447
  0
LINE
  8
0
 10
132.448
 20
93.2447
 11
132.536
 21
93.2766
  0
LINE
  8
0
 10
132.536
 20
93.2766
 11
132.627
 21
93.3029
  0
LINE
  8
0
 10
132.627
 20
93.3029
 11
132.719
 21
93.3234
  0
LINE
  8
0
 10
132.719
 20
93.3234
 11
132.812
 21
93.3382
  0
LINE
  8
0
 10
132.812
 20
93.3382
 11
132.906
 21
93.347
  0
LINE
  8
0
 10
132.906
 20
93.347
 11
133
 21
93.35
  0
LINE
  8
0
 10
133
 20
93.35
 11
133.094
 21
93.347
  0
LINE
  8
0
 10
133.094
 20
93.347
 11
133.188
 21
93.3382
  0
LINE
  8
0
 10
133.188
 20
93.3382
 11
133.281
 21
93.3234
  0
LINE
  8
0
 10
133.281
 20
93.3234
 11
133.373
 21
93.3029
  0
LINE
  8
0
 10
133.373
 20
93.3029
 11
133.464
 21
93.2766
  0
LINE
  8
0
 10
133.464
 20
93.2766
 11
133.552
 21
93.2447
  0
LINE
  8
0
 10
133.552
 20
93.2447
 11
133.639
 21
93.2072
  0
LINE
  8
0
 10
133.639
 20
93.2072
 11
133.723
 21
93.1645
  0
LINE
  8
0
 10
133.723
 20
93.1645
 11
133.804
 21
93.1165
  0
LINE
  8
0
 10
133.804
 20
93.1165
 11
133.882
 21
93.0635
  0
LINE
  8
0
 10
133.882
 20
93.0635
 11
133.956
 21
93.0058
  0
LINE
  8
0
 10
133.956
 20
93.0058
 11
134.027
 21
92.9435
  0
LINE
  8
0
 10
134.027
 20
92.9435
 11
134.093
 21
92.8768
  0
LINE
  8
0
 10
134.093
 20
92.8768
 11
134.156
 21
92.8061
  0
LINE
  8
0
 10
134.156
 20
92.8061
 11
134.214
 21
92.7317
  0
LINE
  8
0
 10
134.214
 20
92.7317
 11
134.266
 21
92.6537
  0
LINE
  8
0
 10
134.266
 20
92.6537
 11
134.314
 21
92.5726
  0
LINE
  8
0
 10
134.314
 20
92.5726
 11
134.357
 21
92.4887
  0
LINE
  8
0
 10
134.357
 20
92.4887
 11
134.395
 21
92.4022
  0
LINE
  8
0
 10
134.395
 20
92.4022
 11
134.427
 21
92.3135
  0
LINE
  8
0
 10
134.427
 20
92.3135
 11
134.453
 21
92.223
  0
LINE
  8
0
 10
134.453
 20
92.223
 11
134.473
 21
92.1311
  0
LINE
  8
0
 10
134.473
 20
92.1311
 11
134.488
 21
92.038
  0
LINE
  8
0
 10
134.488
 20
92.038
 11
134.497
 21
91.9442
  0
LINE
  8
0
 10
134.497
 20
91.9442
 11
134.5
 21
91.85
  0
LINE
  8
0
 10
134.5
 20
91.85
 11
134.497
 21
91.7558
  0
LINE
  8
0
 10
134.497
 20
91.7558
 11
134.488
 21
91.662
  0
LINE
  8
0
 10
134.488
 20
91.662
 11
134.473
 21
91.5689
  0
LINE
  8
0
 10
134.473
 20
91.5689
 11
134.453
 21
91.477
  0
LINE
  8
0
 10
134.453
 20
91.477
 11
134.427
 21
91.3865
  0
LINE
  8
0
 10
134.427
 20
91.3865
 11
134.395
 21
91.2978
  0
LINE
  8
0
 10
134.395
 20
91.2978
 11
134.357
 21
91.2113
  0
LINE
  8
0
 10
134.357
 20
91.2113
 11
134.314
 21
91.1274
  0
LINE
  8
0
 10
134.314
 20
91.1274
 11
134.266
 21
91.0462
  0
LINE
  8
0
 10
134.266
 20
91.0462
 11
134.214
 21
90.9683
  0
LINE
  8
0
 10
134.214
 20
90.9683
 11
134.156
 21
90.8939
  0
LINE
  8
0
 10
134.156
 20
90.8939
 11
134.093
 21
90.8232
  0
LINE
  8
0
 10
134.093
 20
90.8232
 11
134.027
 21
90.7565
  0
LINE
  8
0
 10
134.027
 20
90.7565
 11
133.956
 21
90.6942
  0
LINE
  8
0
 10
133.956
 20
90.6942
 11
133.882
 21
90.6365
  0
LINE
  8
0
 10
133.882
 20
90.6365
 11
133.804
 21
90.5835
  0
LINE
  8
0
 10
133.804
 20
90.5835
 11
133.723
 21
90.5355
  0
LINE
  8
0
 10
133.723
 20
90.5355
 11
133.639
 21
90.4928
  0
LINE
  8
0
 10
133.639
 20
90.4928
 11
133.552
 21
90.4553
  0
LINE
  8
0
 10
133.552
 20
90.4553
 11
133.464
 21
90.4234
  0
LINE
  8
0
 10
133.464
 20
90.4234
 11
133.373
 21
90.3971
  0
LINE
  8
0
 10
133.373
 20
90.3971
 11
133.281
 21
90.3766
  0
LINE
  8
0
 10
133.281
 20
90.3766
 11
133.188
 21
90.3618
  0
LINE
  8
0
 10
133.188
 20
90.3618
 11
133.094
 21
90.353
  0
LINE
  8
0
 10
133.094
 20
90.353
 11
133
 21
90.35
  0
LINE
  8
0
 10
133
 20
90.35
 11
132.906
 21
90.353
  0
LINE
  8
0
 10
26.5
 20
81
 11
49.5
 21
81
  0
LINE
  8
0
 10
49.5
 20
81
 11
49.5
 21
78
  0
LINE
  8
0
 10
49.5
 20
78
 11
61.5
 21
78
  0
LINE
  8
0
 10
61.5
 20
78
 11
61.5
 21
81
  0
LINE
  8
0
 10
61.5
 20
81
 11
73
 21
81
  0
LINE
  8
0
 10
73
 20
81
 11
73
 21
92.5
  0
LINE
  8
0
 10
73
 20
92.5
 11
76
 21
92.5
  0
LINE
  8
0
 10
76
 20
92.5
 11
76
 21
97
  0
LINE
  8
0
 10
76
 20
97
 11
74.5
 21
97
  0
LINE
  8
0
 10
74.5
 20
97
 11
74.4058
 21
97.0029
  0
LINE
  8
0
 10
74.4058
 20
97.0029
 11
74.312
 21
97.0118
  0
LINE
  8
0
 10
74.312
 20
97.0118
 11
74.2189
 21
97.0266
  0
LINE
  8
0
 10
74.2189
 20
97.0266
 11
74.127
 21
97.0471
  0
LINE
  8
0
 10
74.127
 20
97.0471
 11
74.0365
 21
97.0734
  0
LINE
  8
0
 10
74.0365
 20
97.0734
 11
73.9478
 21
97.1053
  0
LINE
  8
0
 10
73.9478
 20
97.1053
 11
73.8613
 21
97.1427
  0
LINE
  8
0
 10
73.8613
 20
97.1427
 11
73.7774
 21
97.1855
  0
LINE
  8
0
 10
73.7774
 20
97.1855
 11
73.6963
 21
97.2335
  0
LINE
  8
0
 10
73.6963
 20
97.2335
 11
73.6183
 21
97.2865
  0
LINE
  8
0
 10
73.6183
 20
97.2865
 11
73.5439
 21
97.3442
  0
LINE
  8
0
 10
73.5439
 20
97.3442
 11
73.4732
 21
97.4065
  0
LINE
  8
0
 10
73.4732
 20
97.4065
 11
73.4065
 21
97.4732
  0
LINE
  8
0
 10
73.4065
 20
97.4732
 11
73.3442
 21
97.5439
  0
LINE
  8
0
 10
73.3442
 20
97.5439
 11
73.2865
 21
97.6183
  0
LINE
  8
0
 10
73.2865
 20
97.6183
 11
73.2335
 21
97.6963
  0
LINE
  8
0
 10
73.2335
 20
97.6963
 11
73.1855
 21
97.7774
  0
LINE
  8
0
 10
73.1855
 20
97.7774
 11
73.1427
 21
97.8613
  0
LINE
  8
0
 10
73.1427
 20
97.8613
 11
73.1053
 21
97.9478
  0
LINE
  8
0
 10
73.1053
 20
97.9478
 11
73.0734
 21
98.0365
  0
LINE
  8
0
 10
73.0734
 20
98.0365
 11
73.0471
 21
98.127
  0
LINE
  8
0
 10
73.0471
 20
98.127
 11
73.0266
 21
98.2189
  0
LINE
  8
0
 10
73.0266
 20
98.2189
 11
73.0118
 21
98.312
  0
LINE
  8
0
 10
73.0118
 20
98.312
 11
73.0029
 21
98.4058
  0
LINE
  8
0
 10
73.0029
 20
98.4058
 11
73
 21
98.5
  0
LINE
  8
0
 10
73
 20
98.5
 11
73.0029
 21
98.5942
  0
LINE
  8
0
 10
73.0029
 20
98.5942
 11
73.0118
 21
98.688
  0
LINE
  8
0
 10
73.0118
 20
98.688
 11
73.0266
 21
98.7811
  0
LINE
  8
0
 10
73.0266
 20
98.7811
 11
73.0471
 21
98.873
  0
LINE
  8
0
 10
73.0471
 20
98.873
 11
73.0734
 21
98.9635
  0
LINE
  8
0
 10
73.0734
 20
98.9635
 11
73.1053
 21
99.0522
  0
LINE
  8
0
 10
73.1053
 20
99.0522
 11
73.1427
 21
99.1387
  0
LINE
  8
0
 10
73.1427
 20
99.1387
 11
73.1855
 21
99.2226
  0
LINE
  8
0
 10
73.1855
 20
99.2226
 11
73.2335
 21
99.3037
  0
LINE
  8
0
 10
73.2335
 20
99.3037
 11
73.2865
 21
99.3817
  0
LINE
  8
0
 10
73.2865
 20
99.3817
 11
73.3442
 21
99.4561
  0
LINE
  8
0
 10
73.3442
 20
99.4561
 11
73.4065
 21
99.5268
  0
LINE
  8
0
 10
73.4065
 20
99.5268
 11
73.4732
 21
99.5934
  0
LINE
  8
0
 10
73.4732
 20
99.5934
 11
73.5439
 21
99.6558
  0
LINE
  8
0
 10
73.5439
 20
99.6558
 11
73.6183
 21
99.7135
  0
LINE
  8
0
 10
73.6183
 20
99.7135
 11
73.6963
 21
99.7665
  0
LINE
  8
0
 10
73.6963
 20
99.7665
 11
73.7774
 21
99.8145
  0
LINE
  8
0
 10
73.7774
 20
99.8145
 11
73.8613
 21
99.8572
  0
LINE
  8
0
 10
73.8613
 20
99.8572
 11
73.9478
 21
99.8947
  0
LINE
  8
0
 10
73.9478
 20
99.8947
 11
74.0365
 21
99.9266
  0
LINE
  8
0
 10
74.0365
 20
99.9266
 11
74.127
 21
99.9529
  0
LINE
  8
0
 10
74.127
 20
99.9529
 11
74.2189
 21
99.9734
  0
LINE
  8
0
 10
74.2189
 20
99.9734
 11
74.312
 21
99.9882
  0
LINE
  8
0
 10
74.312
 20
99.9882
 11
74.4058
 21
99.997
  0
LINE
  8
0
 10
74.4058
 20
99.997
 11
74.5
 21
100
  0
LINE
  8
0
 10
74.5
 20
100
 11
76
 21
100
  0
LINE
  8
0
 10
76
 20
100
 11
76
 21
104.5
  0
LINE
  8
0
 10
76
 20
104.5
 11
73
 21
104.5
  0
LINE
  8
0
 10
73
 20
104.5
 11
73
 21
127.5
  0
LINE
  8
0
 10
73
 20
127.5
 11
76
 21
127.5
  0
LINE
  8
0
 10
76
 20
127.5
 11
76
 21
132
  0
LINE
  8
0
 10
76
 20
132
 11
74.5
 21
132
  0
LINE
  8
0
 10
74.5
 20
132
 11
74.4058
 21
132.003
  0
LINE
  8
0
 10
74.4058
 20
132.003
 11
74.312
 21
132.012
  0
LINE
  8
0
 10
74.312
 20
132.012
 11
74.2189
 21
132.027
  0
LINE
  8
0
 10
74.2189
 20
132.027
 11
74.127
 21
132.047
  0
LINE
  8
0
 10
74.127
 20
132.047
 11
74.0365
 21
132.073
  0
LINE
  8
0
 10
74.0365
 20
132.073
 11
73.9478
 21
132.105
  0
LINE
  8
0
 10
73.9478
 20
132.105
 11
73.8613
 21
132.143
  0
LINE
  8
0
 10
73.8613
 20
132.143
 11
73.7774
 21
132.186
  0
LINE
  8
0
 10
73.7774
 20
132.186
 11
73.6963
 21
132.234
  0
LINE
  8
0
 10
73.6963
 20
132.234
 11
73.6183
 21
132.286
  0
LINE
  8
0
 10
73.6183
 20
132.286
 11
73.5439
 21
132.344
  0
LINE
  8
0
 10
73.5439
 20
132.344
 11
73.4732
 21
132.407
  0
LINE
  8
0
 10
73.4732
 20
132.407
 11
73.4065
 21
132.473
  0
LINE
  8
0
 10
73.4065
 20
132.473
 11
73.3442
 21
132.544
  0
LINE
  8
0
 10
73.3442
 20
132.544
 11
73.2865
 21
132.618
  0
LINE
  8
0
 10
73.2865
 20
132.618
 11
73.2335
 21
132.696
  0
LINE
  8
0
 10
73.2335
 20
132.696
 11
73.1855
 21
132.777
  0
LINE
  8
0
 10
73.1855
 20
132.777
 11
73.1427
 21
132.861
  0
LINE
  8
0
 10
73.1427
 20
132.861
 11
73.1053
 21
132.948
  0
LINE
  8
0
 10
73.1053
 20
132.948
 11
73.0734
 21
133.036
  0
LINE
  8
0
 10
73.0734
 20
133.036
 11
73.0471
 21
133.127
  0
LINE
  8
0
 10
73.0471
 20
133.127
 11
73.0266
 21
133.219
  0
LINE
  8
0
 10
73.0266
 20
133.219
 11
73.0118
 21
133.312
  0
LINE
  8
0
 10
73.0118
 20
133.312
 11
73.0029
 21
133.406
  0
LINE
  8
0
 10
73.0029
 20
133.406
 11
73
 21
133.5
  0
LINE
  8
0
 10
73
 20
133.5
 11
73.0029
 21
133.594
  0
LINE
  8
0
 10
73.0029
 20
133.594
 11
73.0118
 21
133.688
  0
LINE
  8
0
 10
73.0118
 20
133.688
 11
73.0266
 21
133.781
  0
LINE
  8
0
 10
73.0266
 20
133.781
 11
73.0471
 21
133.873
  0
LINE
  8
0
 10
73.0471
 20
133.873
 11
73.0734
 21
133.964
  0
LINE
  8
0
 10
73.0734
 20
133.964
 11
73.1053
 21
134.052
  0
LINE
  8
0
 10
73.1053
 20
134.052
 11
73.1427
 21
134.139
  0
LINE
  8
0
 10
73.1427
 20
134.139
 11
73.1855
 21
134.223
  0
LINE
  8
0
 10
73.1855
 20
134.223
 11
73.2335
 21
134.304
  0
LINE
  8
0
 10
73.2335
 20
134.304
 11
73.2865
 21
134.382
  0
LINE
  8
0
 10
73.2865
 20
134.382
 11
73.3442
 21
134.456
  0
LINE
  8
0
 10
73.3442
 20
134.456
 11
73.4065
 21
134.527
  0
LINE
  8
0
 10
73.4065
 20
134.527
 11
73.4732
 21
134.593
  0
LINE
  8
0
 10
73.4732
 20
134.593
 11
73.5439
 21
134.656
  0
LINE
  8
0
 10
73.5439
 20
134.656
 11
73.6183
 21
134.714
  0
LINE
  8
0
 10
73.6183
 20
134.714
 11
73.6963
 21
134.766
  0
LINE
  8
0
 10
73.6963
 20
134.766
 11
73.7774
 21
134.814
  0
LINE
  8
0
 10
73.7774
 20
134.814
 11
73.8613
 21
134.857
  0
LINE
  8
0
 10
73.8613
 20
134.857
 11
73.9478
 21
134.895
  0
LINE
  8
0
 10
73.9478
 20
134.895
 11
74.0365
 21
134.927
  0
LINE
  8
0
 10
74.0365
 20
134.927
 11
74.127
 21
134.953
  0
LINE
  8
0
 10
74.127
 20
134.953
 11
74.2189
 21
134.973
  0
LINE
  8
0
 10
74.2189
 20
134.973
 11
74.312
 21
134.988
  0
LINE
  8
0
 10
74.312
 20
134.988
 11
74.4058
 21
134.997
  0
LINE
  8
0
 10
74.4058
 20
134.997
 11
74.5
 21
135
  0
LINE
  8
0
 10
74.5
 20
135
 11
76
 21
135
  0
LINE
  8
0
 10
76
 20
135
 11
76
 21
139.5
  0
LINE
  8
0
 10
76
 20
139.5
 11
73
 21
139.5
  0
LINE
  8
0
 10
73
 20
139.5
 11
73
 21
151
  0
LINE
  8
0
 10
73
 20
151
 11
61.5
 21
151
  0
LINE
  8
0
 10
61.5
 20
151
 11
61.5
 21
154
  0
LINE
  8
0
 10
61.5
 20
154
 11
49.5
 21
154
  0
LINE
  8
0
 10
49.5
 20
154
 11
49.5
 21
151
  0
LINE
  8
0
 10
49.5
 20
151
 11
26.5
 21
151
  0
LINE
  8
0
 10
26.5
 20
151
 11
26.5
 21
154
  0
LINE
  8
0
 10
26.5
 20
154
 11
14.5
 21
154
  0
LINE
  8
0
 10
14.5
 20
154
 11
14.5
 21
151
  0
LINE
  8
0
 10
14.5
 20
151
 11
3
 21
151
  0
LINE
  8
0
 10
3
 20
151
 11
3
 21
139.5
  0
LINE
  8
0
 10
3
 20
139.5
 11
0
 21
139.5
  0
LINE
  8
0
 10
0
 20
139.5
 11
0
 21
135
  0
LINE
  8
0
 10
0
 20
135
 11
1.50002
 21
135
  0
LINE
  8
0
 10
1.50002
 20
135
 11
1.59419
 21
134.997
  0
LINE
  8
0
 10
1.59419
 20
134.997
 11
1.688
 21
134.988
  0
LINE
  8
0
 10
1.688
 20
134.988
 11
1.78108
 21
134.973
  0
LINE
  8
0
 10
1.78108
 20
134.973
 11
1.87305
 21
134.953
  0
LINE
  8
0
 10
1.87305
 20
134.953
 11
1.96353
 21
134.927
  0
LINE
  8
0
 10
1.96353
 20
134.927
 11
2.0522
 21
134.895
  0
LINE
  8
0
 10
2.0522
 20
134.895
 11
2.13867
 21
134.857
  0
LINE
  8
0
 10
2.13867
 20
134.857
 11
2.22264
 21
134.814
  0
LINE
  8
0
 10
2.22264
 20
134.814
 11
2.30374
 21
134.766
  0
LINE
  8
0
 10
2.30374
 20
134.766
 11
2.38168
 21
134.714
  0
LINE
  8
0
 10
2.38168
 20
134.714
 11
2.45615
 21
134.656
  0
LINE
  8
0
 10
2.45615
 20
134.656
 11
2.52682
 21
134.593
  0
LINE
  8
0
 10
2.52682
 20
134.593
 11
2.59346
 21
134.527
  0
LINE
  8
0
 10
2.59346
 20
134.527
 11
2.65578
 21
134.456
  0
LINE
  8
0
 10
2.65578
 20
134.456
 11
2.71353
 21
134.382
  0
LINE
  8
0
 10
2.71353
 20
134.382
 11
2.76649
 21
134.304
  0
LINE
  8
0
 10
2.76649
 20
134.304
 11
2.81447
 21
134.223
  0
LINE
  8
0
 10
2.81447
 20
134.223
 11
2.85725
 21
134.139
  0
LINE
  8
0
 10
2.85725
 20
134.139
 11
2.89467
 21
134.052
  0
LINE
  8
0
 10
2.89467
 20
134.052
 11
2.92659
 21
133.964
  0
LINE
  8
0
 10
2.92659
 20
133.964
 11
2.95288
 21
133.873
  0
LINE
  8
0
 10
2.95288
 20
133.873
 11
2.97343
 21
133.781
  0
LINE
  8
0
 10
2.97343
 20
133.781
 11
2.98817
 21
133.688
  0
LINE
  8
0
 10
2.98817
 20
133.688
 11
2.99706
 21
133.594
  0
LINE
  8
0
 10
2.99706
 20
133.594
 11
3
 21
133.5
  0
LINE
  8
0
 10
3
 20
133.5
 11
2.99706
 21
133.406
  0
LINE
  8
0
 10
2.99706
 20
133.406
 11
2.98817
 21
133.312
  0
LINE
  8
0
 10
2.98817
 20
133.312
 11
2.97343
 21
133.219
  0
LINE
  8
0
 10
2.97343
 20
133.219
 11
2.95288
 21
133.127
  0
LINE
  8
0
 10
2.95288
 20
133.127
 11
2.92659
 21
133.036
  0
LINE
  8
0
 10
2.92659
 20
133.036
 11
2.89467
 21
132.948
  0
LINE
  8
0
 10
2.89467
 20
132.948
 11
2.85725
 21
132.861
  0
LINE
  8
0
 10
2.85725
 20
132.861
 11
2.81447
 21
132.777
  0
LINE
  8
0
 10
2.81447
 20
132.777
 11
2.76649
 21
132.696
  0
LINE
  8
0
 10
2.76649
 20
132.696
 11
2.71353
 21
132.618
  0
LINE
  8
0
 10
2.71353
 20
132.618
 11
2.65578
 21
132.544
  0
LINE
  8
0
 10
2.65578
 20
132.544
 11
2.59346
 21
132.473
  0
LINE
  8
0
 10
2.59346
 20
132.473
 11
2.52682
 21
132.407
  0
LINE
  8
0
 10
2.52682
 20
132.407
 11
2.45615
 21
132.344
  0
LINE
  8
0
 10
2.45615
 20
132.344
 11
2.38168
 21
132.286
  0
LINE
  8
0
 10
2.38168
 20
132.286
 11
2.30374
 21
132.234
  0
LINE
  8
0
 10
2.30374
 20
132.234
 11
2.22264
 21
132.186
  0
LINE
  8
0
 10
2.22264
 20
132.186
 11
2.13867
 21
132.143
  0
LINE
  8
0
 10
2.13867
 20
132.143
 11
2.0522
 21
132.105
  0
LINE
  8
0
 10
2.0522
 20
132.105
 11
1.96353
 21
132.073
  0
LINE
  8
0
 10
1.96353
 20
132.073
 11
1.87305
 21
132.047
  0
LINE
  8
0
 10
1.87305
 20
132.047
 11
1.78108
 21
132.027
  0
LINE
  8
0
 10
1.78108
 20
132.027
 11
1.688
 21
132.012
  0
LINE
  8
0
 10
1.688
 20
132.012
 11
1.59419
 21
132.003
  0
LINE
  8
0
 10
1.59419
 20
132.003
 11
1.5
 21
132
  0
LINE
  8
0
 10
1.5
 20
132
 11
0
 21
132
  0
LINE
  8
0
 10
0
 20
132
 11
0
 21
127.5
  0
LINE
  8
0
 10
0
 20
127.5
 11
3
 21
127.5
  0
LINE
  8
0
 10
3
 20
127.5
 11
3
 21
104.5
  0
LINE
  8
0
 10
3
 20
104.5
 11
0
 21
104.5
  0
LINE
  8
0
 10
0
 20
104.5
 11
0
 21
100
  0
LINE
  8
0
 10
0
 20
100
 11
1.50002
 21
100
  0
LINE
  8
0
 10
1.50002
 20
100
 11
1.59419
 21
99.997
  0
LINE
  8
0
 10
1.59419
 20
99.997
 11
1.688
 21
99.9882
  0
LINE
  8
0
 10
1.688
 20
99.9882
 11
1.78108
 21
99.9734
  0
LINE
  8
0
 10
1.78108
 20
99.9734
 11
1.87305
 21
99.9529
  0
LINE
  8
0
 10
1.87305
 20
99.9529
 11
1.96353
 21
99.9266
  0
LINE
  8
0
 10
1.96353
 20
99.9266
 11
2.0522
 21
99.8947
  0
LINE
  8
0
 10
2.0522
 20
99.8947
 11
2.13867
 21
99.8572
  0
LINE
  8
0
 10
2.13867
 20
99.8572
 11
2.22264
 21
99.8145
  0
LINE
  8
0
 10
2.22264
 20
99.8145
 11
2.30374
 21
99.7665
  0
LINE
  8
0
 10
2.30374
 20
99.7665
 11
2.38168
 21
99.7135
  0
LINE
  8
0
 10
2.38168
 20
99.7135
 11
2.45615
 21
99.6558
  0
LINE
  8
0
 10
2.45615
 20
99.6558
 11
2.52682
 21
99.5934
  0
LINE
  8
0
 10
2.52682
 20
99.5934
 11
2.59346
 21
99.5268
  0
LINE
  8
0
 10
2.59346
 20
99.5268
 11
2.65578
 21
99.4561
  0
LINE
  8
0
 10
2.65578
 20
99.4561
 11
2.71353
 21
99.3817
  0
LINE
  8
0
 10
2.71353
 20
99.3817
 11
2.76649
 21
99.3037
  0
LINE
  8
0
 10
2.76649
 20
99.3037
 11
2.81447
 21
99.2226
  0
LINE
  8
0
 10
2.81447
 20
99.2226
 11
2.85725
 21
99.1387
  0
LINE
  8
0
 10
2.85725
 20
99.1387
 11
2.89467
 21
99.0522
  0
LINE
  8
0
 10
2.89467
 20
99.0522
 11
2.92659
 21
98.9635
  0
LINE
  8
0
 10
2.92659
 20
98.9635
 11
2.95288
 21
98.873
  0
LINE
  8
0
 10
2.95288
 20
98.873
 11
2.97343
 21
98.7811
  0
LINE
  8
0
 10
2.97343
 20
98.7811
 11
2.98817
 21
98.688
  0
LINE
  8
0
 10
2.98817
 20
98.688
 11
2.99706
 21
98.5942
  0
LINE
  8
0
 10
2.99706
 20
98.5942
 11
3
 21
98.5
  0
LINE
  8
0
 10
3
 20
98.5
 11
2.99706
 21
98.4058
  0
LINE
  8
0
 10
2.99706
 20
98.4058
 11
2.98817
 21
98.312
  0
LINE
  8
0
 10
2.98817
 20
98.312
 11
2.97343
 21
98.2189
  0
LINE
  8
0
 10
2.97343
 20
98.2189
 11
2.95288
 21
98.127
  0
LINE
  8
0
 10
2.95288
 20
98.127
 11
2.92659
 21
98.0365
  0
LINE
  8
0
 10
2.92659
 20
98.0365
 11
2.89467
 21
97.9478
  0
LINE
  8
0
 10
2.89467
 20
97.9478
 11
2.85725
 21
97.8613
  0
LINE
  8
0
 10
2.85725
 20
97.8613
 11
2.81447
 21
97.7774
  0
LINE
  8
0
 10
2.81447
 20
97.7774
 11
2.76649
 21
97.6963
  0
LINE
  8
0
 10
2.76649
 20
97.6963
 11
2.71353
 21
97.6183
  0
LINE
  8
0
 10
2.71353
 20
97.6183
 11
2.65578
 21
97.5439
  0
LINE
  8
0
 10
2.65578
 20
97.5439
 11
2.59346
 21
97.4732
  0
LINE
  8
0
 10
2.59346
 20
97.4732
 11
2.52682
 21
97.4065
  0
LINE
  8
0
 10
2.52682
 20
97.4065
 11
2.45615
 21
97.3442
  0
LINE
  8
0
 10
2.45615
 20
97.3442
 11
2.38168
 21
97.2865
  0
LINE
  8
0
 10
2.38168
 20
97.2865
 11
2.30374
 21
97.2335
  0
LINE
  8
0
 10
2.30374
 20
97.2335
 11
2.22264
 21
97.1855
  0
LINE
  8
0
 10
2.22264
 20
97.1855
 11
2.13867
 21
97.1427
  0
LINE
  8
0
 10
2.13867
 20
97.1427
 11
2.0522
 21
97.1053
  0
LINE
  8
0
 10
2.0522
 20
97.1053
 11
1.96353
 21
97.0734
  0
LINE
  8
0
 10
1.96353
 20
97.0734
 11
1.87305
 21
97.0471
  0
LINE
  8
0
 10
1.87305
 20
97.0471
 11
1.78108
 21
97.0266
  0
LINE
  8
0
 10
1.78108
 20
97.0266
 11
1.688
 21
97.0118
  0
LINE
  8
0
 10
1.688
 20
97.0118
 11
1.59419
 21
97.0029
  0
LINE
  8
0
 10
1.59419
 20
97.0029
 11
1.5
 21
97
  0
LINE
  8
0
 10
1.5
 20
97
 11
0
 21
97
  0
LINE
  8
0
 10
0
 20
97
 11
0
 21
92.5
  0
LINE
  8
0
 10
0
 20
92.5
 11
3
 21
92.5
  0
LINE
  8
0
 10
3
 20
92.5
 11
3
 21
81
  0
LINE
  8
0
 10
3
 20
81
 11
14.5
 21
81
  0
LINE
  8
0
 10
14.5
 20
81
 11
14.5
 21
78
  0
LINE
  8
0
 10
14.5
 20
78
 11
26.5
 21
78
  0
LINE
  8
0
 10
26.5
 20
78
 11
26.5
 21
81
  0
LINE
  8
0
 10
55.65
 20
140
 11
55.65
 21
147
  0
LINE
  8
0
 10
55.65
 20
147
 11
63.65
 21
147
  0
LINE
  8
0
 10
63.65
 20
147
 11
63.65
 21
140
  0
LINE
  8
0
 10
63.65
 20
140
 11
55.65
 21
140
  0
LINE
  8
0
 10
19.35
 20
125
 11
19.35
 21
138
  0
LINE
  8
0
 10
19.35
 20
138
 11
33.35
 21
138
  0
LINE
  8
0
 10
33.35
 20
138
 11
33.35
 21
125
  0
LINE
  8
0
 10
33.35
 20
125
 11
19.35
 21
125
  0
LINE
  8
0
 10
50.65
 20
125
 11
50.65
 21
137
  0
LINE
  8
0
 10
50.65
 20
137
 11
59.65
 21
137
  0
LINE
  8
0
 10
59.65
 20
137
 11
59.65
 21
125
  0
LINE
  8
0
 10
59.65
 20
125
 11
50.65
 21
125
  0
LINE
  8
0
 10
318.5
 20
1.5
 11
318.503
 21
1.59418
  0
LINE
  8
0
 10
318.503
 20
1.59418
 11
318.512
 21
1.68799
  0
LINE
  8
0
 10
318.512
 20
1.68799
 11
318.527
 21
1.78107
  0
LINE
  8
0
 10
318.527
 20
1.78107
 11
318.547
 21
1.87303
  0
LINE
  8
0
 10
318.547
 20
1.87303
 11
318.573
 21
1.96352
  0
LINE
  8
0
 10
318.573
 20
1.96352
 11
318.605
 21
2.05219
  0
LINE
  8
0
 10
318.605
 20
2.05219
 11
318.643
 21
2.13866
  0
LINE
  8
0
 10
318.643
 20
2.13866
 11
318.686
 21
2.22263
  0
LINE
  8
0
 10
318.686
 20
2.22263
 11
318.734
 21
2.30373
  0
LINE
  8
0
 10
318.734
 20
2.30373
 11
318.786
 21
2.38167
  0
LINE
  8
0
 10
318.786
 20
2.38167
 11
318.844
 21
2.45613
  0
LINE
  8
0
 10
318.844
 20
2.45613
 11
318.907
 21
2.52681
  0
LINE
  8
0
 10
318.907
 20
2.52681
 11
318.973
 21
2.59344
  0
LINE
  8
0
 10
318.973
 20
2.59344
 11
319.044
 21
2.65576
  0
LINE
  8
0
 10
319.044
 20
2.65576
 11
319.118
 21
2.71352
  0
LINE
  8
0
 10
319.118
 20
2.71352
 11
319.196
 21
2.76648
  0
LINE
  8
0
 10
319.196
 20
2.76648
 11
319.277
 21
2.81445
  0
LINE
  8
0
 10
319.277
 20
2.81445
 11
319.361
 21
2.85724
  0
LINE
  8
0
 10
319.361
 20
2.85724
 11
319.448
 21
2.89465
  0
LINE
  8
0
 10
319.448
 20
2.89465
 11
319.536
 21
2.92657
  0
LINE
  8
0
 10
319.536
 20
2.92657
 11
319.627
 21
2.95287
  0
LINE
  8
0
 10
319.627
 20
2.95287
 11
319.719
 21
2.97342
  0
LINE
  8
0
 10
319.719
 20
2.97342
 11
319.812
 21
2.98816
  0
LINE
  8
0
 10
319.812
 20
2.98816
 11
319.906
 21
2.99704
  0
LINE
  8
0
 10
319.906
 20
2.99704
 11
320
 21
3
  0
LINE
  8
0
 10
320
 20
3
 11
320.094
 21
2.99704
  0
LINE
  8
0
 10
320.094
 20
2.99704
 11
320.188
 21
2.98816
  0
LINE
  8
0
 10
320.188
 20
2.98816
 11
320.281
 21
2.97342
  0
LINE
  8
0
 10
320.281
 20
2.97342
 11
320.373
 21
2.95287
  0
LINE
  8
0
 10
320.373
 20
2.95287
 11
320.464
 21
2.92657
  0
LINE
  8
0
 10
320.464
 20
2.92657
 11
320.552
 21
2.89465
  0
LINE
  8
0
 10
320.552
 20
2.89465
 11
320.639
 21
2.85724
  0
LINE
  8
0
 10
320.639
 20
2.85724
 11
320.723
 21
2.81445
  0
LINE
  8
0
 10
320.723
 20
2.81445
 11
320.804
 21
2.76648
  0
LINE
  8
0
 10
320.804
 20
2.76648
 11
320.882
 21
2.71352
  0
LINE
  8
0
 10
320.882
 20
2.71352
 11
320.956
 21
2.65576
  0
LINE
  8
0
 10
320.956
 20
2.65576
 11
321.027
 21
2.59344
  0
LINE
  8
0
 10
321.027
 20
2.59344
 11
321.093
 21
2.52681
  0
LINE
  8
0
 10
321.093
 20
2.52681
 11
321.156
 21
2.45613
  0
LINE
  8
0
 10
321.156
 20
2.45613
 11
321.214
 21
2.38167
  0
LINE
  8
0
 10
321.214
 20
2.38167
 11
321.266
 21
2.30373
  0
LINE
  8
0
 10
321.266
 20
2.30373
 11
321.314
 21
2.22263
  0
LINE
  8
0
 10
321.314
 20
2.22263
 11
321.357
 21
2.13866
  0
LINE
  8
0
 10
321.357
 20
2.13866
 11
321.395
 21
2.05219
  0
LINE
  8
0
 10
321.395
 20
2.05219
 11
321.427
 21
1.96352
  0
LINE
  8
0
 10
321.427
 20
1.96352
 11
321.453
 21
1.87303
  0
LINE
  8
0
 10
321.453
 20
1.87303
 11
321.473
 21
1.78107
  0
LINE
  8
0
 10
321.473
 20
1.78107
 11
321.488
 21
1.68799
  0
LINE
  8
0
 10
321.488
 20
1.68799
 11
321.497
 21
1.59418
  0
LINE
  8
0
 10
321.497
 20
1.59418
 11
321.5
 21
1.49998
  0
LINE
  8
0
 10
321.5
 20
1.49998
 11
321.5
 21
0
  0
LINE
  8
0
 10
321.5
 20
0
 11
329.333
 21
0
  0
LINE
  8
0
 10
329.333
 20
0
 11
329.333
 21
3
  0
LINE
  8
0
 10
329.333
 20
3
 11
341.333
 21
3
  0
LINE
  8
0
 10
341.333
 20
3
 11
341.333
 21
0
  0
LINE
  8
0
 10
341.333
 20
0
 11
366
 21
0
  0
LINE
  8
0
 10
366
 20
0
 11
366
 21
3
  0
LINE
  8
0
 10
366
 20
3
 11
378
 21
3
  0
LINE
  8
0
 10
378
 20
3
 11
378
 21
0
  0
LINE
  8
0
 10
378
 20
0
 11
402.667
 21
0
  0
LINE
  8
0
 10
402.667
 20
0
 11
402.667
 21
3
  0
LINE
  8
0
 10
402.667
 20
3
 11
414.667
 21
3
  0
LINE
  8
0
 10
414.667
 20
3
 11
414.667
 21
0
  0
LINE
  8
0
 10
414.667
 20
0
 11
422.5
 21
0
  0
LINE
  8
0
 10
422.5
 20
0
 11
422.5
 21
1.5
  0
LINE
  8
0
 10
422.5
 20
1.5
 11
422.503
 21
1.59418
  0
LINE
  8
0
 10
422.503
 20
1.59418
 11
422.512
 21
1.68799
  0
LINE
  8
0
 10
422.512
 20
1.68799
 11
422.527
 21
1.78107
  0
LINE
  8
0
 10
422.527
 20
1.78107
 11
422.547
 21
1.87303
  0
LINE
  8
0
 10
422.547
 20
1.87303
 11
422.573
 21
1.96352
  0
LINE
  8
0
 10
422.573
 20
1.96352
 11
422.605
 21
2.05219
  0
LINE
  8
0
 10
422.605
 20
2.05219
 11
422.643
 21
2.13866
  0
LINE
  8
0
 10
422.643
 20
2.13866
 11
422.686
 21
2.22263
  0
LINE
  8
0
 10
422.686
 20
2.22263
 11
422.734
 21
2.30373
  0
LINE
  8
0
 10
422.734
 20
2.30373
 11
422.786
 21
2.38167
  0
LINE
  8
0
 10
422.786
 20
2.38167
 11
422.844
 21
2.45613
  0
LINE
  8
0
 10
422.844
 20
2.45613
 11
422.907
 21
2.52681
  0
LINE
  8
0
 10
422.907
 20
2.52681
 11
422.973
 21
2.59344
  0
LINE
  8
0
 10
422.973
 20
2.59344
 11
423.044
 21
2.65576
  0
LINE
  8
0
 10
423.044
 20
2.65576
 11
423.118
 21
2.71352
  0
LINE
  8
0
 10
423.118
 20
2.71352
 11
423.196
 21
2.76648
  0
LINE
  8
0
 10
423.196
 20
2.76648
 11
423.277
 21
2.81445
  0
LINE
  8
0
 10
423.277
 20
2.81445
 11
423.361
 21
2.85724
  0
LINE
  8
0
 10
423.361
 20
2.85724
 11
423.448
 21
2.89465
  0
LINE
  8
0
 10
423.448
 20
2.89465
 11
423.536
 21
2.92657
  0
LINE
  8
0
 10
423.536
 20
2.92657
 11
423.627
 21
2.95287
  0
LINE
  8
0
 10
423.627
 20
2.95287
 11
423.719
 21
2.97342
  0
LINE
  8
0
 10
423.719
 20
2.97342
 11
423.812
 21
2.98816
  0
LINE
  8
0
 10
423.812
 20
2.98816
 11
423.906
 21
2.99704
  0
LINE
  8
0
 10
423.906
 20
2.99704
 11
424
 21
3
  0
LINE
  8
0
 10
424
 20
3
 11
424.094
 21
2.99704
  0
LINE
  8
0
 10
424.094
 20
2.99704
 11
424.188
 21
2.98816
  0
LINE
  8
0
 10
424.188
 20
2.98816
 11
424.281
 21
2.97342
  0
LINE
  8
0
 10
424.281
 20
2.97342
 11
424.373
 21
2.95287
  0
LINE
  8
0
 10
424.373
 20
2.95287
 11
424.464
 21
2.92657
  0
LINE
  8
0
 10
424.464
 20
2.92657
 11
424.552
 21
2.89465
  0
LINE
  8
0
 10
424.552
 20
2.89465
 11
424.639
 21
2.85724
  0
LINE
  8
0
 10
424.639
 20
2.85724
 11
424.723
 21
2.81445
  0
LINE
  8
0
 10
424.723
 20
2.81445
 11
424.804
 21
2.76648
  0
LINE
  8
0
 10
424.804
 20
2.76648
 11
424.882
 21
2.71352
  0
LINE
  8
0
 10
424.882
 20
2.71352
 11
424.956
 21
2.65576
  0
LINE
  8
0
 10
424.956
 20
2.65576
 11
425.027
 21
2.59344
  0
LINE
  8
0
 10
425.027
 20
2.59344
 11
425.093
 21
2.52681
  0
LINE
  8
0
 10
425.093
 20
2.52681
 11
425.156
 21
2.45613
  0
LINE
  8
0
 10
425.156
 20
2.45613
 11
425.214
 21
2.38167
  0
LINE
  8
0
 10
425.214
 20
2.38167
 11
425.266
 21
2.30373
  0
LINE
  8
0
 10
425.266
 20
2.30373
 11
425.314
 21
2.22263
  0
LINE
  8
0
 10
425.314
 20
2.22263
 11
425.357
 21
2.13866
  0
LINE
  8
0
 10
425.357
 20
2.13866
 11
425.395
 21
2.05219
  0
LINE
  8
0
 10
425.395
 20
2.05219
 11
425.427
 21
1.96352
  0
LINE
  8
0
 10
425.427
 20
1.96352
 11
425.453
 21
1.87303
  0
LINE
  8
0
 10
425.453
 20
1.87303
 11
425.473
 21
1.78107
  0
LINE
  8
0
 10
425.473
 20
1.78107
 11
425.488
 21
1.68799
  0
LINE
  8
0
 10
425.488
 20
1.68799
 11
425.497
 21
1.59418
  0
LINE
  8
0
 10
425.497
 20
1.59418
 11
425.5
 21
1.49998
  0
LINE
  8
0
 10
425.5
 20
1.49998
 11
425.5
 21
0
  0
LINE
  8
0
 10
425.5
 20
0
 11
430
 21
0
  0
LINE
  8
0
 10
430
 20
0
 11
430
 21
14.5
  0
LINE
  8
0
 10
430
 20
14.5
 11
427
 21
14.5
  0
LINE
  8
0
 10
427
 20
14.5
 11
427
 21
26.5
  0
LINE
  8
0
 10
427
 20
26.5
 11
430
 21
26.5
  0
LINE
  8
0
 10
430
 20
26.5
 11
430
 21
49.5
  0
LINE
  8
0
 10
430
 20
49.5
 11
427
 21
49.5
  0
LINE
  8
0
 10
427
 20
49.5
 11
427
 21
61.5
  0
LINE
  8
0
 10
427
 20
61.5
 11
430
 21
61.5
  0
LINE
  8
0
 10
430
 20
61.5
 11
430
 21
76
  0
LINE
  8
0
 10
430
 20
76
 11
425.5
 21
76
  0
LINE
  8
0
 10
425.5
 20
76
 11
425.5
 21
74.5
  0
LINE
  8
0
 10
425.5
 20
74.5
 11
425.497
 21
74.4058
  0
LINE
  8
0
 10
425.497
 20
74.4058
 11
425.488
 21
74.312
  0
LINE
  8
0
 10
425.488
 20
74.312
 11
425.473
 21
74.2189
  0
LINE
  8
0
 10
425.473
 20
74.2189
 11
425.453
 21
74.127
  0
LINE
  8
0
 10
425.453
 20
74.127
 11
425.427
 21
74.0365
  0
LINE
  8
0
 10
425.427
 20
74.0365
 11
425.395
 21
73.9478
  0
LINE
  8
0
 10
425.395
 20
73.9478
 11
425.357
 21
73.8613
  0
LINE
  8
0
 10
425.357
 20
73.8613
 11
425.314
 21
73.7774
  0
LINE
  8
0
 10
425.314
 20
73.7774
 11
425.266
 21
73.6963
  0
LINE
  8
0
 10
425.266
 20
73.6963
 11
425.214
 21
73.6183
  0
LINE
  8
0
 10
425.214
 20
73.6183
 11
425.156
 21
73.5439
  0
LINE
  8
0
 10
425.156
 20
73.5439
 11
425.093
 21
73.4732
  0
LINE
  8
0
 10
425.093
 20
73.4732
 11
425.027
 21
73.4065
  0
LINE
  8
0
 10
425.027
 20
73.4065
 11
424.956
 21
73.3442
  0
LINE
  8
0
 10
424.956
 20
73.3442
 11
424.882
 21
73.2865
  0
LINE
  8
0
 10
424.882
 20
73.2865
 11
424.804
 21
73.2335
  0
LINE
  8
0
 10
424.804
 20
73.2335
 11
424.723
 21
73.1855
  0
LINE
  8
0
 10
424.723
 20
73.1855
 11
424.639
 21
73.1427
  0
LINE
  8
0
 10
424.639
 20
73.1427
 11
424.552
 21
73.1053
  0
LINE
  8
0
 10
424.552
 20
73.1053
 11
424.464
 21
73.0734
  0
LINE
  8
0
 10
424.464
 20
73.0734
 11
424.373
 21
73.0471
  0
LINE
  8
0
 10
424.373
 20
73.0471
 11
424.281
 21
73.0266
  0
LINE
  8
0
 10
424.281
 20
73.0266
 11
424.188
 21
73.0118
  0
LINE
  8
0
 10
424.188
 20
73.0118
 11
424.094
 21
73.0029
  0
LINE
  8
0
 10
424.094
 20
73.0029
 11
424
 21
73
  0
LINE
  8
0
 10
424
 20
73
 11
423.906
 21
73.0029
  0
LINE
  8
0
 10
423.906
 20
73.0029
 11
423.812
 21
73.0118
  0
LINE
  8
0
 10
423.812
 20
73.0118
 11
423.719
 21
73.0266
  0
LINE
  8
0
 10
423.719
 20
73.0266
 11
423.627
 21
73.0471
  0
LINE
  8
0
 10
423.627
 20
73.0471
 11
423.536
 21
73.0734
  0
LINE
  8
0
 10
423.536
 20
73.0734
 11
423.448
 21
73.1053
  0
LINE
  8
0
 10
423.448
 20
73.1053
 11
423.361
 21
73.1427
  0
LINE
  8
0
 10
423.361
 20
73.1427
 11
423.277
 21
73.1855
  0
LINE
  8
0
 10
423.277
 20
73.1855
 11
423.196
 21
73.2335
  0
LINE
  8
0
 10
423.196
 20
73.2335
 11
423.118
 21
73.2865
  0
LINE
  8
0
 10
423.118
 20
73.2865
 11
423.044
 21
73.3442
  0
LINE
  8
0
 10
423.044
 20
73.3442
 11
422.973
 21
73.4065
  0
LINE
  8
0
 10
422.973
 20
73.4065
 11
422.907
 21
73.4732
  0
LINE
  8
0
 10
422.907
 20
73.4732
 11
422.844
 21
73.5439
  0
LINE
  8
0
 10
422.844
 20
73.5439
 11
422.786
 21
73.6183
  0
LINE
  8
0
 10
422.786
 20
73.6183
 11
422.734
 21
73.6963
  0
LINE
  8
0
 10
422.734
 20
73.6963
 11
422.686
 21
73.7774
  0
LINE
  8
0
 10
422.686
 20
73.7774
 11
422.643
 21
73.8613
  0
LINE
  8
0
 10
422.643
 20
73.8613
 11
422.605
 21
73.9478
  0
LINE
  8
0
 10
422.605
 20
73.9478
 11
422.573
 21
74.0365
  0
LINE
  8
0
 10
422.573
 20
74.0365
 11
422.547
 21
74.127
  0
LINE
  8
0
 10
422.547
 20
74.127
 11
422.527
 21
74.2189
  0
LINE
  8
0
 10
422.527
 20
74.2189
 11
422.512
 21
74.312
  0
LINE
  8
0
 10
422.512
 20
74.312
 11
422.503
 21
74.4058
  0
LINE
  8
0
 10
422.503
 20
74.4058
 11
422.5
 21
74.5
  0
LINE
  8
0
 10
422.5
 20
74.5
 11
422.5
 21
76
  0
LINE
  8
0
 10
422.5
 20
76
 11
414.667
 21
76
  0
LINE
  8
0
 10
414.667
 20
76
 11
414.667
 21
73
  0
LINE
  8
0
 10
414.667
 20
73
 11
402.667
 21
73
  0
LINE
  8
0
 10
402.667
 20
73
 11
402.667
 21
76
  0
LINE
  8
0
 10
402.667
 20
76
 11
378
 21
76
  0
LINE
  8
0
 10
378
 20
76
 11
378
 21
73
  0
LINE
  8
0
 10
378
 20
73
 11
366
 21
73
  0
LINE
  8
0
 10
366
 20
73
 11
366
 21
76
  0
LINE
  8
0
 10
366
 20
76
 11
341.333
 21
76
  0
LINE
  8
0
 10
341.333
 20
76
 11
341.333
 21
73
  0
LINE
  8
0
 10
341.333
 20
73
 11
329.333
 21
73
  0
LINE
  8
0
 10
329.333
 20
73
 11
329.333
 21
76
  0
LINE
  8
0
 10
329.333
 20
76
 11
321.5
 21
76
  0
LINE
  8
0
 10
321.5
 20
76
 11
321.5
 21
74.5
  0
LINE
  8
0
 10
321.5
 20
74.5
 11
321.497
 21
74.4058
  0
LINE
  8
0
 10
321.497
 20
74.4058
 11
321.488
 21
74.312
  0
LINE
  8
0
 10
321.488
 20
74.312
 11
321.473
 21
74.2189
  0
LINE
  8
0
 10
321.473
 20
74.2189
 11
321.453
 21
74.127
  0
LINE
  8
0
 10
321.453
 20
74.127
 11
321.427
 21
74.0365
  0
LINE
  8
0
 10
321.427
 20
74.0365
 11
321.395
 21
73.9478
  0
LINE
  8
0
 10
321.395
 20
73.9478
 11
321.357
 21
73.8613
  0
LINE
  8
0
 10
321.357
 20
73.8613
 11
321.314
 21
73.7774
  0
LINE
  8
0
 10
321.314
 20
73.7774
 11
321.266
 21
73.6963
  0
LINE
  8
0
 10
321.266
 20
73.6963
 11
321.214
 21
73.6183
  0
LINE
  8
0
 10
321.214
 20
73.6183
 11
321.156
 21
73.5439
  0
LINE
  8
0
 10
321.156
 20
73.5439
 11
321.093
 21
73.4732
  0
LINE
  8
0
 10
321.093
 20
73.4732
 11
321.027
 21
73.4065
  0
LINE
  8
0
 10
321.027
 20
73.4065
 11
320.956
 21
73.3442
  0
LINE
  8
0
 10
320.956
 20
73.3442
 11
320.882
 21
73.2865
  0
LINE
  8
0
 10
320.882
 20
73.2865
 11
320.804
 21
73.2335
  0
LINE
  8
0
 10
320.804
 20
73.2335
 11
320.723
 21
73.1855
  0
LINE
  8
0
 10
320.723
 20
73.1855
 11
320.639
 21
73.1427
  0
LINE
  8
0
 10
320.639
 20
73.1427
 11
320.552
 21
73.1053
  0
LINE
  8
0
 10
320.552
 20
73.1053
 11
320.464
 21
73.0734
  0
LINE
  8
0
 10
320.464
 20
73.0734
 11
320.373
 21
73.0471
  0
LINE
  8
0
 10
320.373
 20
73.0471
 11
320.281
 21
73.0266
  0
LINE
  8
0
 10
320.281
 20
73.0266
 11
320.188
 21
73.0118
  0
LINE
  8
0
 10
320.188
 20
73.0118
 11
320.094
 21
73.0029
  0
LINE
  8
0
 10
320.094
 20
73.0029
 11
320
 21
73
  0
LINE
  8
0
 10
320
 20
73
 11
319.906
 21
73.0029
  0
LINE
  8
0
 10
319.906
 20
73.0029
 11
319.812
 21
73.0118
  0
LINE
  8
0
 10
319.812
 20
73.0118
 11
319.719
 21
73.0266
  0
LINE
  8
0
 10
319.719
 20
73.0266
 11
319.627
 21
73.0471
  0
LINE
  8
0
 10
319.627
 20
73.0471
 11
319.536
 21
73.0734
  0
LINE
  8
0
 10
319.536
 20
73.0734
 11
319.448
 21
73.1053
  0
LINE
  8
0
 10
319.448
 20
73.1053
 11
319.361
 21
73.1427
  0
LINE
  8
0
 10
319.361
 20
73.1427
 11
319.277
 21
73.1855
  0
LINE
  8
0
 10
319.277
 20
73.1855
 11
319.196
 21
73.2335
  0
LINE
  8
0
 10
319.196
 20
73.2335
 11
319.118
 21
73.2865
  0
LINE
  8
0
 10
319.118
 20
73.2865
 11
319.044
 21
73.3442
  0
LINE
  8
0
 10
319.044
 20
73.3442
 11
318.973
 21
73.4065
  0
LINE
  8
0
 10
318.973
 20
73.4065
 11
318.907
 21
73.4732
  0
LINE
  8
0
 10
318.907
 20
73.4732
 11
318.844
 21
73.5439
  0
LINE
  8
0
 10
318.844
 20
73.5439
 11
318.786
 21
73.6183
  0
LINE
  8
0
 10
318.786
 20
73.6183
 11
318.734
 21
73.6963
  0
LINE
  8
0
 10
318.734
 20
73.6963
 11
318.686
 21
73.7774
  0
LINE
  8
0
 10
318.686
 20
73.7774
 11
318.643
 21
73.8613
  0
LINE
  8
0
 10
318.643
 20
73.8613
 11
318.605
 21
73.9478
  0
LINE
  8
0
 10
318.605
 20
73.9478
 11
318.573
 21
74.0365
  0
LINE
  8
0
 10
318.573
 20
74.0365
 11
318.547
 21
74.127
  0
LINE
  8
0
 10
318.547
 20
74.127
 11
318.527
 21
74.2189
  0
LINE
  8
0
 10
318.527
 20
74.2189
 11
318.512
 21
74.312
  0
LINE
  8
0
 10
318.512
 20
74.312
 11
318.503
 21
74.4058
  0
LINE
  8
0
 10
318.503
 20
74.4058
 11
318.5
 21
74.5
  0
LINE
  8
0
 10
318.5
 20
74.5
 11
318.5
 21
76
  0
LINE
  8
0
 10
318.5
 20
76
 11
314
 21
76
  0
LINE
  8
0
 10
314
 20
76
 11
314
 21
61.5
  0
LINE
  8
0
 10
314
 20
61.5
 11
317
 21
61.5
  0
LINE
  8
0
 10
317
 20
61.5
 11
317
 21
49.5
  0
LINE
  8
0
 10
317
 20
49.5
 11
314
 21
49.5
  0
LINE
  8
0
 10
314
 20
49.5
 11
314
 21
26.5
  0
LINE
  8
0
 10
314
 20
26.5
 11
317
 21
26.5
  0
LINE
  8
0
 10
317
 20
26.5
 11
317
 21
21
  0
LINE
  8
0
 10
317
 20
21
 11
322
 21
21
  0
LINE
  8
0
 10
322
 20
21
 11
322.188
 21
20.9941
  0
LINE
  8
0
 10
322.188
 20
20.9941
 11
322.376
 21
20.9763
  0
LINE
  8
0
 10
322.376
 20
20.9763
 11
322.562
 21
20.9469
  0
LINE
  8
0
 10
322.562
 20
20.9469
 11
322.746
 21
20.9057
  0
LINE
  8
0
 10
322.746
 20
20.9057
 11
322.927
 21
20.8532
  0
LINE
  8
0
 10
322.927
 20
20.8532
 11
323.104
 21
20.7893
  0
LINE
  8
0
 10
323.104
 20
20.7893
 11
323.277
 21
20.7145
  0
LINE
  8
0
 10
323.277
 20
20.7145
 11
323.445
 21
20.6289
  0
LINE
  8
0
 10
323.445
 20
20.6289
 11
323.607
 21
20.533
  0
LINE
  8
0
 10
323.607
 20
20.533
 11
323.763
 21
20.427
  0
LINE
  8
0
 10
323.763
 20
20.427
 11
323.912
 21
20.3115
  0
LINE
  8
0
 10
323.912
 20
20.3115
 11
324.054
 21
20.1869
  0
LINE
  8
0
 10
324.054
 20
20.1869
 11
324.187
 21
20.0536
  0
LINE
  8
0
 10
324.187
 20
20.0536
 11
324.312
 21
19.9123
  0
LINE
  8
0
 10
324.312
 20
19.9123
 11
324.427
 21
19.7634
  0
LINE
  8
0
 10
324.427
 20
19.7634
 11
324.533
 21
19.6075
  0
LINE
  8
0
 10
324.533
 20
19.6075
 11
324.629
 21
19.4453
  0
LINE
  8
0
 10
324.629
 20
19.4453
 11
324.714
 21
19.2773
  0
LINE
  8
0
 10
324.714
 20
19.2773
 11
324.789
 21
19.1044
  0
LINE
  8
0
 10
324.789
 20
19.1044
 11
324.853
 21
18.927
  0
LINE
  8
0
 10
324.853
 20
18.927
 11
324.906
 21
18.7461
  0
LINE
  8
0
 10
324.906
 20
18.7461
 11
324.947
 21
18.5621
  0
LINE
  8
0
 10
324.947
 20
18.5621
 11
324.976
 21
18.376
  0
LINE
  8
0
 10
324.976
 20
18.376
 11
324.994
 21
18.1884
  0
LINE
  8
0
 10
324.994
 20
18.1884
 11
325
 21
18
  0
LINE
  8
0
 10
325
 20
18
 11
324.994
 21
17.8116
  0
LINE
  8
0
 10
324.994
 20
17.8116
 11
324.976
 21
17.624
  0
LINE
  8
0
 10
324.976
 20
17.624
 11
324.947
 21
17.4379
  0
LINE
  8
0
 10
324.947
 20
17.4379
 11
324.906
 21
17.2539
  0
LINE
  8
0
 10
324.906
 20
17.2539
 11
324.853
 21
17.0729
  0
LINE
  8
0
 10
324.853
 20
17.0729
 11
324.789
 21
16.8956
  0
LINE
  8
0
 10
324.789
 20
16.8956
 11
324.714
 21
16.7227
  0
LINE
  8
0
 10
324.714
 20
16.7227
 11
324.629
 21
16.5547
  0
LINE
  8
0
 10
324.629
 20
16.5547
 11
324.533
 21
16.3925
  0
LINE
  8
0
 10
324.533
 20
16.3925
 11
324.427
 21
16.2366
  0
LINE
  8
0
 10
324.427
 20
16.2366
 11
324.312
 21
16.0877
  0
LINE
  8
0
 10
324.312
 20
16.0877
 11
324.187
 21
15.9464
  0
LINE
  8
0
 10
324.187
 20
15.9464
 11
324.054
 21
15.8131
  0
LINE
  8
0
 10
324.054
 20
15.8131
 11
323.912
 21
15.6884
  0
LINE
  8
0
 10
323.912
 20
15.6884
 11
323.763
 21
15.5729
  0
LINE
  8
0
 10
323.763
 20
15.5729
 11
323.607
 21
15.467
  0
LINE
  8
0
 10
323.607
 20
15.467
 11
323.445
 21
15.3711
  0
LINE
  8
0
 10
323.445
 20
15.3711
 11
323.277
 21
15.2855
  0
LINE
  8
0
 10
323.277
 20
15.2855
 11
323.104
 21
15.2107
  0
LINE
  8
0
 10
323.104
 20
15.2107
 11
322.927
 21
15.1468
  0
LINE
  8
0
 10
322.927
 20
15.1468
 11
322.746
 21
15.0942
  0
LINE
  8
0
 10
322.746
 20
15.0942
 11
322.562
 21
15.0531
  0
LINE
  8
0
 10
322.562
 20
15.0531
 11
322.376
 21
15.0237
  0
LINE
  8
0
 10
322.376
 20
15.0237
 11
322.188
 21
15.0059
  0
LINE
  8
0
 10
322.188
 20
15.0059
 11
322
 21
15
  0
LINE
  8
0
 10
322
 20
15
 11
317
 21
15
  0
LINE
  8
0
 10
317
 20
15
 11
317
 21
14.5
  0
LINE
  8
0
 10
317
 20
14.5
 11
314
 21
14.5
  0
LINE
  8
0
 10
314
 20
14.5
 11
314
 21
0
  0
LINE
  8
0
 10
314
 20
0
 11
318.5
 21
0
  0
LINE
  8
0
 10
318.5
 20
0
 11
318.5
 21
1.5
  0
LINE
  8
0
 10
415.374
 20
55.6539
 11
415.249
 21
55.6658
  0
LINE
  8
0
 10
415.249
 20
55.6658
 11
415.125
 21
55.6854
  0
LINE
  8
0
 10
415.125
 20
55.6854
 11
415.003
 21
55.7128
  0
LINE
  8
0
 10
415.003
 20
55.7128
 11
414.882
 21
55.7479
  0
LINE
  8
0
 10
414.882
 20
55.7479
 11
414.764
 21
55.7904
  0
LINE
  8
0
 10
414.764
 20
55.7904
 11
414.648
 21
55.8403
  0
LINE
  8
0
 10
414.648
 20
55.8403
 11
414.536
 21
55.8974
  0
LINE
  8
0
 10
414.536
 20
55.8974
 11
414.428
 21
55.9613
  0
LINE
  8
0
 10
414.428
 20
55.9613
 11
414.324
 21
56.032
  0
LINE
  8
0
 10
414.324
 20
56.032
 11
414.225
 21
56.109
  0
LINE
  8
0
 10
414.225
 20
56.109
 11
414.131
 21
56.1921
  0
LINE
  8
0
 10
414.131
 20
56.1921
 11
414.042
 21
56.2809
  0
LINE
  8
0
 10
414.042
 20
56.2809
 11
413.959
 21
56.3751
  0
LINE
  8
0
 10
413.959
 20
56.3751
 11
413.882
 21
56.4744
  0
LINE
  8
0
 10
413.882
 20
56.4744
 11
413.811
 21
56.5783
  0
LINE
  8
0
 10
413.811
 20
56.5783
 11
413.747
 21
56.6865
  0
LINE
  8
0
 10
413.747
 20
56.6865
 11
413.69
 21
56.7984
  0
LINE
  8
0
 10
413.69
 20
56.7984
 11
413.64
 21
56.9137
  0
LINE
  8
0
 10
413.64
 20
56.9137
 11
413.598
 21
57.032
  0
LINE
  8
0
 10
413.598
 20
57.032
 11
413.563
 21
57.1526
  0
LINE
  8
0
 10
413.563
 20
57.1526
 11
413.535
 21
57.2752
  0
LINE
  8
0
 10
413.535
 20
57.2752
 11
413.516
 21
57.3993
  0
LINE
  8
0
 10
413.516
 20
57.3993
 11
413.504
 21
57.5244
  0
LINE
  8
0
 10
413.504
 20
57.5244
 11
413.5
 21
57.65
  0
LINE
  8
0
 10
413.5
 20
57.65
 11
413.5
 21
61.65
  0
LINE
  8
0
 10
413.5
 20
61.65
 11
413.504
 21
61.7756
  0
LINE
  8
0
 10
413.504
 20
61.7756
 11
413.516
 21
61.9007
  0
LINE
  8
0
 10
413.516
 20
61.9007
 11
413.535
 21
62.0247
  0
LINE
  8
0
 10
413.535
 20
62.0247
 11
413.563
 21
62.1474
  0
LINE
  8
0
 10
413.563
 20
62.1474
 11
413.598
 21
62.268
  0
LINE
  8
0
 10
413.598
 20
62.268
 11
413.64
 21
62.3862
  0
LINE
  8
0
 10
413.64
 20
62.3862
 11
413.69
 21
62.5016
  0
LINE
  8
0
 10
413.69
 20
62.5016
 11
413.747
 21
62.6135
  0
LINE
  8
0
 10
413.747
 20
62.6135
 11
413.811
 21
62.7216
  0
LINE
  8
0
 10
413.811
 20
62.7216
 11
413.882
 21
62.8256
  0
LINE
  8
0
 10
413.882
 20
62.8256
 11
413.959
 21
62.9248
  0
LINE
  8
0
 10
413.959
 20
62.9248
 11
414.042
 21
63.0191
  0
LINE
  8
0
 10
414.042
 20
63.0191
 11
414.131
 21
63.1079
  0
LINE
  8
0
 10
414.131
 20
63.1079
 11
414.225
 21
63.191
  0
LINE
  8
0
 10
414.225
 20
63.191
 11
414.324
 21
63.268
  0
LINE
  8
0
 10
414.324
 20
63.268
 11
414.428
 21
63.3387
  0
LINE
  8
0
 10
414.428
 20
63.3387
 11
414.536
 21
63.4026
  0
LINE
  8
0
 10
414.536
 20
63.4026
 11
414.648
 21
63.4596
  0
LINE
  8
0
 10
414.648
 20
63.4596
 11
414.764
 21
63.5096
  0
LINE
  8
0
 10
414.764
 20
63.5096
 11
414.882
 21
63.5521
  0
LINE
  8
0
 10
414.882
 20
63.5521
 11
415.003
 21
63.5872
  0
LINE
  8
0
 10
415.003
 20
63.5872
 11
415.125
 21
63.6146
  0
LINE
  8
0
 10
415.125
 20
63.6146
 11
415.249
 21
63.6342
  0
LINE
  8
0
 10
415.249
 20
63.6342
 11
415.374
 21
63.646
  0
LINE
  8
0
 10
415.374
 20
63.646
 11
415.5
 21
63.65
  0
LINE
  8
0
 10
415.5
 20
63.65
 11
415.626
 21
63.646
  0
LINE
  8
0
 10
415.626
 20
63.646
 11
415.751
 21
63.6342
  0
LINE
  8
0
 10
415.751
 20
63.6342
 11
415.875
 21
63.6146
  0
LINE
  8
0
 10
415.875
 20
63.6146
 11
415.997
 21
63.5872
  0
LINE
  8
0
 10
415.997
 20
63.5872
 11
416.118
 21
63.5521
  0
LINE
  8
0
 10
416.118
 20
63.5521
 11
416.236
 21
63.5096
  0
LINE
  8
0
 10
416.236
 20
63.5096
 11
416.352
 21
63.4596
  0
LINE
  8
0
 10
416.352
 20
63.4596
 11
416.464
 21
63.4026
  0
LINE
  8
0
 10
416.464
 20
63.4026
 11
416.572
 21
63.3387
  0
LINE
  8
0
 10
416.572
 20
63.3387
 11
416.676
 21
63.268
  0
LINE
  8
0
 10
416.676
 20
63.268
 11
416.775
 21
63.191
  0
LINE
  8
0
 10
416.775
 20
63.191
 11
416.869
 21
63.1079
  0
LINE
  8
0
 10
416.869
 20
63.1079
 11
416.958
 21
63.0191
  0
LINE
  8
0
 10
416.958
 20
63.0191
 11
417.041
 21
62.9248
  0
LINE
  8
0
 10
417.041
 20
62.9248
 11
417.118
 21
62.8256
  0
LINE
  8
0
 10
417.118
 20
62.8256
 11
417.189
 21
62.7216
  0
LINE
  8
0
 10
417.189
 20
62.7216
 11
417.253
 21
62.6135
  0
LINE
  8
0
 10
417.253
 20
62.6135
 11
417.31
 21
62.5016
  0
LINE
  8
0
 10
417.31
 20
62.5016
 11
417.36
 21
62.3862
  0
LINE
  8
0
 10
417.36
 20
62.3862
 11
417.402
 21
62.268
  0
LINE
  8
0
 10
417.402
 20
62.268
 11
417.437
 21
62.1474
  0
LINE
  8
0
 10
417.437
 20
62.1474
 11
417.465
 21
62.0247
  0
LINE
  8
0
 10
417.465
 20
62.0247
 11
417.484
 21
61.9007
  0
LINE
  8
0
 10
417.484
 20
61.9007
 11
417.496
 21
61.7756
  0
LINE
  8
0
 10
417.496
 20
61.7756
 11
417.5
 21
61.65
  0
LINE
  8
0
 10
417.5
 20
61.65
 11
417.5
 21
57.65
  0
LINE
  8
0
 10
417.5
 20
57.65
 11
417.496
 21
57.5244
  0
LINE
  8
0
 10
417.496
 20
57.5244
 11
417.484
 21
57.3993
  0
LINE
  8
0
 10
417.484
 20
57.3993
 11
417.465
 21
57.2752
  0
LINE
  8
0
 10
417.465
 20
57.2752
 11
417.437
 21
57.1526
  0
LINE
  8
0
 10
417.437
 20
57.1526
 11
417.402
 21
57.032
  0
LINE
  8
0
 10
417.402
 20
57.032
 11
417.36
 21
56.9137
  0
LINE
  8
0
 10
417.36
 20
56.9137
 11
417.31
 21
56.7984
  0
LINE
  8
0
 10
417.31
 20
56.7984
 11
417.253
 21
56.6865
  0
LINE
  8
0
 10
417.253
 20
56.6865
 11
417.189
 21
56.5783
  0
LINE
  8
0
 10
417.189
 20
56.5783
 11
417.118
 21
56.4744
  0
LINE
  8
0
 10
417.118
 20
56.4744
 11
417.041
 21
56.3751
  0
LINE
  8
0
 10
417.041
 20
56.3751
 11
416.958
 21
56.2809
  0
LINE
  8
0
 10
416.958
 20
56.2809
 11
416.869
 21
56.1921
  0
LINE
  8
0
 10
416.869
 20
56.1921
 11
416.775
 21
56.109
  0
LINE
  8
0
 10
416.775
 20
56.109
 11
416.676
 21
56.032
  0
LINE
  8
0
 10
416.676
 20
56.032
 11
416.572
 21
55.9613
  0
LINE
  8
0
 10
416.572
 20
55.9613
 11
416.464
 21
55.8974
  0
LINE
  8
0
 10
416.464
 20
55.8974
 11
416.352
 21
55.8403
  0
LINE
  8
0
 10
416.352
 20
55.8403
 11
416.236
 21
55.7904
  0
LINE
  8
0
 10
416.236
 20
55.7904
 11
416.118
 21
55.7479
  0
LINE
  8
0
 10
416.118
 20
55.7479
 11
415.997
 21
55.7128
  0
LINE
  8
0
 10
415.997
 20
55.7128
 11
415.875
 21
55.6854
  0
LINE
  8
0
 10
415.875
 20
55.6854
 11
415.751
 21
55.6658
  0
LINE
  8
0
 10
415.751
 20
55.6658
 11
415.626
 21
55.6539
  0
LINE
  8
0
 10
415.626
 20
55.6539
 11
415.5
 21
55.65
  0
LINE
  8
0
 10
415.5
 20
55.65
 11
415.374
 21
55.6539
  0
LINE
  8
0
 10
355
 20
60.65
 11
354.906
 21
60.653
  0
LINE
  8
0
 10
354.906
 20
60.653
 11
354.812
 21
60.6618
  0
LINE
  8
0
 10
354.812
 20
60.6618
 11
354.719
 21
60.6766
  0
LINE
  8
0
 10
354.719
 20
60.6766
 11
354.627
 21
60.6971
  0
LINE
  8
0
 10
354.627
 20
60.6971
 11
354.536
 21
60.7234
  0
LINE
  8
0
 10
354.536
 20
60.7234
 11
354.448
 21
60.7553
  0
LINE
  8
0
 10
354.448
 20
60.7553
 11
354.361
 21
60.7928
  0
LINE
  8
0
 10
354.361
 20
60.7928
 11
354.277
 21
60.8355
  0
LINE
  8
0
 10
354.277
 20
60.8355
 11
354.196
 21
60.8835
  0
LINE
  8
0
 10
354.196
 20
60.8835
 11
354.118
 21
60.9365
  0
LINE
  8
0
 10
354.118
 20
60.9365
 11
354.044
 21
60.9942
  0
LINE
  8
0
 10
354.044
 20
60.9942
 11
353.973
 21
61.0565
  0
LINE
  8
0
 10
353.973
 20
61.0565
 11
353.907
 21
61.1232
  0
LINE
  8
0
 10
353.907
 20
61.1232
 11
353.844
 21
61.1939
  0
LINE
  8
0
 10
353.844
 20
61.1939
 11
353.786
 21
61.2683
  0
LINE
  8
0
 10
353.786
 20
61.2683
 11
353.734
 21
61.3463
  0
LINE
  8
0
 10
353.734
 20
61.3463
 11
353.686
 21
61.4274
  0
LINE
  8
0
 10
353.686
 20
61.4274
 11
353.643
 21
61.5113
  0
LINE
  8
0
 10
353.643
 20
61.5113
 11
353.605
 21
61.5978
  0
LINE
  8
0
 10
353.605
 20
61.5978
 11
353.573
 21
61.6865
  0
LINE
  8
0
 10
353.573
 20
61.6865
 11
353.547
 21
61.777
  0
LINE
  8
0
 10
353.547
 20
61.777
 11
353.527
 21
61.8689
  0
LINE
  8
0
 10
353.527
 20
61.8689
 11
353.512
 21
61.962
  0
LINE
  8
0
 10
353.512
 20
61.962
 11
353.503
 21
62.0558
  0
LINE
  8
0
 10
353.503
 20
62.0558
 11
353.5
 21
62.15
  0
LINE
  8
0
 10
353.5
 20
62.15
 11
353.503
 21
62.2442
  0
LINE
  8
0
 10
353.503
 20
62.2442
 11
353.512
 21
62.338
  0
LINE
  8
0
 10
353.512
 20
62.338
 11
353.527
 21
62.4311
  0
LINE
  8
0
 10
353.527
 20
62.4311
 11
353.547
 21
62.523
  0
LINE
  8
0
 10
353.547
 20
62.523
 11
353.573
 21
62.6135
  0
LINE
  8
0
 10
353.573
 20
62.6135
 11
353.605
 21
62.7022
  0
LINE
  8
0
 10
353.605
 20
62.7022
 11
353.643
 21
62.7887
  0
LINE
  8
0
 10
353.643
 20
62.7887
 11
353.686
 21
62.8726
  0
LINE
  8
0
 10
353.686
 20
62.8726
 11
353.734
 21
62.9537
  0
LINE
  8
0
 10
353.734
 20
62.9537
 11
353.786
 21
63.0317
  0
LINE
  8
0
 10
353.786
 20
63.0317
 11
353.844
 21
63.1061
  0
LINE
  8
0
 10
353.844
 20
63.1061
 11
353.907
 21
63.1768
  0
LINE
  8
0
 10
353.907
 20
63.1768
 11
353.973
 21
63.2434
  0
LINE
  8
0
 10
353.973
 20
63.2434
 11
354.044
 21
63.3058
  0
LINE
  8
0
 10
354.044
 20
63.3058
 11
354.118
 21
63.3635
  0
LINE
  8
0
 10
354.118
 20
63.3635
 11
354.196
 21
63.4165
  0
LINE
  8
0
 10
354.196
 20
63.4165
 11
354.277
 21
63.4644
  0
LINE
  8
0
 10
354.277
 20
63.4644
 11
354.361
 21
63.5072
  0
LINE
  8
0
 10
354.361
 20
63.5072
 11
354.448
 21
63.5447
  0
LINE
  8
0
 10
354.448
 20
63.5447
 11
354.536
 21
63.5766
  0
LINE
  8
0
 10
354.536
 20
63.5766
 11
354.627
 21
63.6029
  0
LINE
  8
0
 10
354.627
 20
63.6029
 11
354.719
 21
63.6234
  0
LINE
  8
0
 10
354.719
 20
63.6234
 11
354.812
 21
63.6382
  0
LINE
  8
0
 10
354.812
 20
63.6382
 11
354.906
 21
63.647
  0
LINE
  8
0
 10
354.906
 20
63.647
 11
355
 21
63.65
  0
LINE
  8
0
 10
355
 20
63.65
 11
395
 21
63.65
  0
LINE
  8
0
 10
395
 20
63.65
 11
395.094
 21
63.647
  0
LINE
  8
0
 10
395.094
 20
63.647
 11
395.188
 21
63.6382
  0
LINE
  8
0
 10
395.188
 20
63.6382
 11
395.281
 21
63.6234
  0
LINE
  8
0
 10
395.281
 20
63.6234
 11
395.373
 21
63.6029
  0
LINE
  8
0
 10
395.373
 20
63.6029
 11
395.464
 21
63.5766
  0
LINE
  8
0
 10
395.464
 20
63.5766
 11
395.552
 21
63.5447
  0
LINE
  8
0
 10
395.552
 20
63.5447
 11
395.639
 21
63.5072
  0
LINE
  8
0
 10
395.639
 20
63.5072
 11
395.723
 21
63.4644
  0
LINE
  8
0
 10
395.723
 20
63.4644
 11
395.804
 21
63.4165
  0
LINE
  8
0
 10
395.804
 20
63.4165
 11
395.882
 21
63.3635
  0
LINE
  8
0
 10
395.882
 20
63.3635
 11
395.956
 21
63.3058
  0
LINE
  8
0
 10
395.956
 20
63.3058
 11
396.027
 21
63.2434
  0
LINE
  8
0
 10
396.027
 20
63.2434
 11
396.093
 21
63.1768
  0
LINE
  8
0
 10
396.093
 20
63.1768
 11
396.156
 21
63.1061
  0
LINE
  8
0
 10
396.156
 20
63.1061
 11
396.214
 21
63.0317
  0
LINE
  8
0
 10
396.214
 20
63.0317
 11
396.266
 21
62.9537
  0
LINE
  8
0
 10
396.266
 20
62.9537
 11
396.314
 21
62.8726
  0
LINE
  8
0
 10
396.314
 20
62.8726
 11
396.357
 21
62.7887
  0
LINE
  8
0
 10
396.357
 20
62.7887
 11
396.395
 21
62.7022
  0
LINE
  8
0
 10
396.395
 20
62.7022
 11
396.427
 21
62.6135
  0
LINE
  8
0
 10
396.427
 20
62.6135
 11
396.453
 21
62.523
  0
LINE
  8
0
 10
396.453
 20
62.523
 11
396.473
 21
62.4311
  0
LINE
  8
0
 10
396.473
 20
62.4311
 11
396.488
 21
62.338
  0
LINE
  8
0
 10
396.488
 20
62.338
 11
396.497
 21
62.2442
  0
LINE
  8
0
 10
396.497
 20
62.2442
 11
396.5
 21
62.15
  0
LINE
  8
0
 10
396.5
 20
62.15
 11
396.497
 21
62.0558
  0
LINE
  8
0
 10
396.497
 20
62.0558
 11
396.488
 21
61.962
  0
LINE
  8
0
 10
396.488
 20
61.962
 11
396.473
 21
61.8689
  0
LINE
  8
0
 10
396.473
 20
61.8689
 11
396.453
 21
61.777
  0
LINE
  8
0
 10
396.453
 20
61.777
 11
396.427
 21
61.6865
  0
LINE
  8
0
 10
396.427
 20
61.6865
 11
396.395
 21
61.5978
  0
LINE
  8
0
 10
396.395
 20
61.5978
 11
396.357
 21
61.5113
  0
LINE
  8
0
 10
396.357
 20
61.5113
 11
396.314
 21
61.4274
  0
LINE
  8
0
 10
396.314
 20
61.4274
 11
396.266
 21
61.3463
  0
LINE
  8
0
 10
396.266
 20
61.3463
 11
396.214
 21
61.2683
  0
LINE
  8
0
 10
396.214
 20
61.2683
 11
396.156
 21
61.1939
  0
LINE
  8
0
 10
396.156
 20
61.1939
 11
396.093
 21
61.1232
  0
LINE
  8
0
 10
396.093
 20
61.1232
 11
396.027
 21
61.0565
  0
LINE
  8
0
 10
396.027
 20
61.0565
 11
395.956
 21
60.9942
  0
LINE
  8
0
 10
395.956
 20
60.9942
 11
395.882
 21
60.9365
  0
LINE
  8
0
 10
395.882
 20
60.9365
 11
395.804
 21
60.8835
  0
LINE
  8
0
 10
395.804
 20
60.8835
 11
395.723
 21
60.8355
  0
LINE
  8
0
 10
395.723
 20
60.8355
 11
395.639
 21
60.7928
  0
LINE
  8
0
 10
395.639
 20
60.7928
 11
395.552
 21
60.7553
  0
LINE
  8
0
 10
395.552
 20
60.7553
 11
395.464
 21
60.7234
  0
LINE
  8
0
 10
395.464
 20
60.7234
 11
395.373
 21
60.6971
  0
LINE
  8
0
 10
395.373
 20
60.6971
 11
395.281
 21
60.6766
  0
LINE
  8
0
 10
395.281
 20
60.6766
 11
395.188
 21
60.6618
  0
LINE
  8
0
 10
395.188
 20
60.6618
 11
395.094
 21
60.653
  0
LINE
  8
0
 10
395.094
 20
60.653
 11
395
 21
60.65
  0
LINE
  8
0
 10
395
 20
60.65
 11
355
 21
60.65
  0
LINE
  8
0
 10
355
 20
12.35
 11
354.906
 21
12.353
  0
LINE
  8
0
 10
354.906
 20
12.353
 11
354.812
 21
12.3618
  0
LINE
  8
0
 10
354.812
 20
12.3618
 11
354.719
 21
12.3766
  0
LINE
  8
0
 10
354.719
 20
12.3766
 11
354.627
 21
12.3971
  0
LINE
  8
0
 10
354.627
 20
12.3971
 11
354.536
 21
12.4234
  0
LINE
  8
0
 10
354.536
 20
12.4234
 11
354.448
 21
12.4553
  0
LINE
  8
0
 10
354.448
 20
12.4553
 11
354.361
 21
12.4928
  0
LINE
  8
0
 10
354.361
 20
12.4928
 11
354.277
 21
12.5355
  0
LINE
  8
0
 10
354.277
 20
12.5355
 11
354.196
 21
12.5835
  0
LINE
  8
0
 10
354.196
 20
12.5835
 11
354.118
 21
12.6365
  0
LINE
  8
0
 10
354.118
 20
12.6365
 11
354.044
 21
12.6942
  0
LINE
  8
0
 10
354.044
 20
12.6942
 11
353.973
 21
12.7565
  0
LINE
  8
0
 10
353.973
 20
12.7565
 11
353.907
 21
12.8232
  0
LINE
  8
0
 10
353.907
 20
12.8232
 11
353.844
 21
12.8939
  0
LINE
  8
0
 10
353.844
 20
12.8939
 11
353.786
 21
12.9683
  0
LINE
  8
0
 10
353.786
 20
12.9683
 11
353.734
 21
13.0462
  0
LINE
  8
0
 10
353.734
 20
13.0462
 11
353.686
 21
13.1274
  0
LINE
  8
0
 10
353.686
 20
13.1274
 11
353.643
 21
13.2113
  0
LINE
  8
0
 10
353.643
 20
13.2113
 11
353.605
 21
13.2978
  0
LINE
  8
0
 10
353.605
 20
13.2978
 11
353.573
 21
13.3865
  0
LINE
  8
0
 10
353.573
 20
13.3865
 11
353.547
 21
13.477
  0
LINE
  8
0
 10
353.547
 20
13.477
 11
353.527
 21
13.5689
  0
LINE
  8
0
 10
353.527
 20
13.5689
 11
353.512
 21
13.662
  0
LINE
  8
0
 10
353.512
 20
13.662
 11
353.503
 21
13.7558
  0
LINE
  8
0
 10
353.503
 20
13.7558
 11
353.5
 21
13.85
  0
LINE
  8
0
 10
353.5
 20
13.85
 11
353.503
 21
13.9442
  0
LINE
  8
0
 10
353.503
 20
13.9442
 11
353.512
 21
14.038
  0
LINE
  8
0
 10
353.512
 20
14.038
 11
353.527
 21
14.1311
  0
LINE
  8
0
 10
353.527
 20
14.1311
 11
353.547
 21
14.223
  0
LINE
  8
0
 10
353.547
 20
14.223
 11
353.573
 21
14.3135
  0
LINE
  8
0
 10
353.573
 20
14.3135
 11
353.605
 21
14.4022
  0
LINE
  8
0
 10
353.605
 20
14.4022
 11
353.643
 21
14.4887
  0
LINE
  8
0
 10
353.643
 20
14.4887
 11
353.686
 21
14.5726
  0
LINE
  8
0
 10
353.686
 20
14.5726
 11
353.734
 21
14.6537
  0
LINE
  8
0
 10
353.734
 20
14.6537
 11
353.786
 21
14.7317
  0
LINE
  8
0
 10
353.786
 20
14.7317
 11
353.844
 21
14.8061
  0
LINE
  8
0
 10
353.844
 20
14.8061
 11
353.907
 21
14.8768
  0
LINE
  8
0
 10
353.907
 20
14.8768
 11
353.973
 21
14.9435
  0
LINE
  8
0
 10
353.973
 20
14.9435
 11
354.044
 21
15.0058
  0
LINE
  8
0
 10
354.044
 20
15.0058
 11
354.118
 21
15.0635
  0
LINE
  8
0
 10
354.118
 20
15.0635
 11
354.196
 21
15.1165
  0
LINE
  8
0
 10
354.196
 20
15.1165
 11
354.277
 21
15.1645
  0
LINE
  8
0
 10
354.277
 20
15.1645
 11
354.361
 21
15.2072
  0
LINE
  8
0
 10
354.361
 20
15.2072
 11
354.448
 21
15.2447
  0
LINE
  8
0
 10
354.448
 20
15.2447
 11
354.536
 21
15.2766
  0
LINE
  8
0
 10
354.536
 20
15.2766
 11
354.627
 21
15.3029
  0
LINE
  8
0
 10
354.627
 20
15.3029
 11
354.719
 21
15.3234
  0
LINE
  8
0
 10
354.719
 20
15.3234
 11
354.812
 21
15.3382
  0
LINE
  8
0
 10
354.812
 20
15.3382
 11
354.906
 21
15.347
  0
LINE
  8
0
 10
354.906
 20
15.347
 11
355
 21
15.35
  0
LINE
  8
0
 10
355
 20
15.35
 11
399
 21
15.35
  0
LINE
  8
0
 10
399
 20
15.35
 11
399.094
 21
15.347
  0
LINE
  8
0
 10
399.094
 20
15.347
 11
399.188
 21
15.3382
  0
LINE
  8
0
 10
399.188
 20
15.3382
 11
399.281
 21
15.3234
  0
LINE
  8
0
 10
399.281
 20
15.3234
 11
399.373
 21
15.3029
  0
LINE
  8
0
 10
399.373
 20
15.3029
 11
399.464
 21
15.2766
  0
LINE
  8
0
 10
399.464
 20
15.2766
 11
399.552
 21
15.2447
  0
LINE
  8
0
 10
399.552
 20
15.2447
 11
399.639
 21
15.2072
  0
LINE
  8
0
 10
399.639
 20
15.2072
 11
399.723
 21
15.1645
  0
LINE
  8
0
 10
399.723
 20
15.1645
 11
399.804
 21
15.1165
  0
LINE
  8
0
 10
399.804
 20
15.1165
 11
399.882
 21
15.0635
  0
LINE
  8
0
 10
399.882
 20
15.0635
 11
399.956
 21
15.0058
  0
LINE
  8
0
 10
399.956
 20
15.0058
 11
400.027
 21
14.9435
  0
LINE
  8
0
 10
400.027
 20
14.9435
 11
400.093
 21
14.8768
  0
LINE
  8
0
 10
400.093
 20
14.8768
 11
400.156
 21
14.8061
  0
LINE
  8
0
 10
400.156
 20
14.8061
 11
400.214
 21
14.7317
  0
LINE
  8
0
 10
400.214
 20
14.7317
 11
400.266
 21
14.6537
  0
LINE
  8
0
 10
400.266
 20
14.6537
 11
400.314
 21
14.5726
  0
LINE
  8
0
 10
400.314
 20
14.5726
 11
400.357
 21
14.4887
  0
LINE
  8
0
 10
400.357
 20
14.4887
 11
400.395
 21
14.4022
  0
LINE
  8
0
 10
400.395
 20
14.4022
 11
400.427
 21
14.3135
  0
LINE
  8
0
 10
400.427
 20
14.3135
 11
400.453
 21
14.223
  0
LINE
  8
0
 10
400.453
 20
14.223
 11
400.473
 21
14.1311
  0
LINE
  8
0
 10
400.473
 20
14.1311
 11
400.488
 21
14.038
  0
LINE
  8
0
 10
400.488
 20
14.038
 11
400.497
 21
13.9442
  0
LINE
  8
0
 10
400.497
 20
13.9442
 11
400.5
 21
13.85
  0
LINE
  8
0
 10
400.5
 20
13.85
 11
400.497
 21
13.7558
  0
LINE
  8
0
 10
400.497
 20
13.7558
 11
400.488
 21
13.662
  0
LINE
  8
0
 10
400.488
 20
13.662
 11
400.473
 21
13.5689
  0
LINE
  8
0
 10
400.473
 20
13.5689
 11
400.453
 21
13.477
  0
LINE
  8
0
 10
400.453
 20
13.477
 11
400.427
 21
13.3865
  0
LINE
  8
0
 10
400.427
 20
13.3865
 11
400.395
 21
13.2978
  0
LINE
  8
0
 10
400.395
 20
13.2978
 11
400.357
 21
13.2113
  0
LINE
  8
0
 10
400.357
 20
13.2113
 11
400.314
 21
13.1274
  0
LINE
  8
0
 10
400.314
 20
13.1274
 11
400.266
 21
13.0462
  0
LINE
  8
0
 10
400.266
 20
13.0462
 11
400.214
 21
12.9683
  0
LINE
  8
0
 10
400.214
 20
12.9683
 11
400.156
 21
12.8939
  0
LINE
  8
0
 10
400.156
 20
12.8939
 11
400.093
 21
12.8232
  0
LINE
  8
0
 10
400.093
 20
12.8232
 11
400.027
 21
12.7565
  0
LINE
  8
0
 10
400.027
 20
12.7565
 11
399.956
 21
12.6942
  0
LINE
  8
0
 10
399.956
 20
12.6942
 11
399.882
 21
12.6365
  0
LINE
  8
0
 10
399.882
 20
12.6365
 11
399.804
 21
12.5835
  0
LINE
  8
0
 10
399.804
 20
12.5835
 11
399.723
 21
12.5355
  0
LINE
  8
0
 10
399.723
 20
12.5355
 11
399.639
 21
12.4928
  0
LINE
  8
0
 10
399.639
 20
12.4928
 11
399.552
 21
12.4553
  0
LINE
  8
0
 10
399.552
 20
12.4553
 11
399.464
 21
12.4234
  0
LINE
  8
0
 10
399.464
 20
12.4234
 11
399.373
 21
12.3971
  0
LINE
  8
0
 10
399.373
 20
12.3971
 11
399.281
 21
12.3766
  0
LINE
  8
0
 10
399.281
 20
12.3766
 11
399.188
 21
12.3618
  0
LINE
  8
0
 10
399.188
 20
12.3618
 11
399.094
 21
12.353
  0
LINE
  8
0
 10
399.094
 20
12.353
 11
399
 21
12.35
  0
LINE
  8
0
 10
399
 20
12.35
 11
355
 21
12.35
  0
LINE
  8
0
 10
200.5
 20
1.5
 11
200.503
 21
1.59418
  0
LINE
  8
0
 10
200.503
 20
1.59418
 11
200.512
 21
1.68799
  0
LINE
  8
0
 10
200.512
 20
1.68799
 11
200.527
 21
1.78107
  0
LINE
  8
0
 10
200.527
 20
1.78107
 11
200.547
 21
1.87303
  0
LINE
  8
0
 10
200.547
 20
1.87303
 11
200.573
 21
1.96352
  0
LINE
  8
0
 10
200.573
 20
1.96352
 11
200.605
 21
2.05219
  0
LINE
  8
0
 10
200.605
 20
2.05219
 11
200.643
 21
2.13866
  0
LINE
  8
0
 10
200.643
 20
2.13866
 11
200.686
 21
2.22263
  0
LINE
  8
0
 10
200.686
 20
2.22263
 11
200.734
 21
2.30373
  0
LINE
  8
0
 10
200.734
 20
2.30373
 11
200.786
 21
2.38167
  0
LINE
  8
0
 10
200.786
 20
2.38167
 11
200.844
 21
2.45613
  0
LINE
  8
0
 10
200.844
 20
2.45613
 11
200.907
 21
2.52681
  0
LINE
  8
0
 10
200.907
 20
2.52681
 11
200.973
 21
2.59344
  0
LINE
  8
0
 10
200.973
 20
2.59344
 11
201.044
 21
2.65576
  0
LINE
  8
0
 10
201.044
 20
2.65576
 11
201.118
 21
2.71352
  0
LINE
  8
0
 10
201.118
 20
2.71352
 11
201.196
 21
2.76648
  0
LINE
  8
0
 10
201.196
 20
2.76648
 11
201.277
 21
2.81445
  0
LINE
  8
0
 10
201.277
 20
2.81445
 11
201.361
 21
2.85724
  0
LINE
  8
0
 10
201.361
 20
2.85724
 11
201.448
 21
2.89465
  0
LINE
  8
0
 10
201.448
 20
2.89465
 11
201.536
 21
2.92657
  0
LINE
  8
0
 10
201.536
 20
2.92657
 11
201.627
 21
2.95287
  0
LINE
  8
0
 10
201.627
 20
2.95287
 11
201.719
 21
2.97342
  0
LINE
  8
0
 10
201.719
 20
2.97342
 11
201.812
 21
2.98816
  0
LINE
  8
0
 10
201.812
 20
2.98816
 11
201.906
 21
2.99704
  0
LINE
  8
0
 10
201.906
 20
2.99704
 11
202
 21
3
  0
LINE
  8
0
 10
202
 20
3
 11
202.094
 21
2.99704
  0
LINE
  8
0
 10
202.094
 20
2.99704
 11
202.188
 21
2.98816
  0
LINE
  8
0
 10
202.188
 20
2.98816
 11
202.281
 21
2.97342
  0
LINE
  8
0
 10
202.281
 20
2.97342
 11
202.373
 21
2.95287
  0
LINE
  8
0
 10
202.373
 20
2.95287
 11
202.464
 21
2.92657
  0
LINE
  8
0
 10
202.464
 20
2.92657
 11
202.552
 21
2.89465
  0
LINE
  8
0
 10
202.552
 20
2.89465
 11
202.639
 21
2.85724
  0
LINE
  8
0
 10
202.639
 20
2.85724
 11
202.723
 21
2.81445
  0
LINE
  8
0
 10
202.723
 20
2.81445
 11
202.804
 21
2.76648
  0
LINE
  8
0
 10
202.804
 20
2.76648
 11
202.882
 21
2.71352
  0
LINE
  8
0
 10
202.882
 20
2.71352
 11
202.956
 21
2.65576
  0
LINE
  8
0
 10
202.956
 20
2.65576
 11
203.027
 21
2.59344
  0
LINE
  8
0
 10
203.027
 20
2.59344
 11
203.093
 21
2.52681
  0
LINE
  8
0
 10
203.093
 20
2.52681
 11
203.156
 21
2.45613
  0
LINE
  8
0
 10
203.156
 20
2.45613
 11
203.214
 21
2.38167
  0
LINE
  8
0
 10
203.214
 20
2.38167
 11
203.266
 21
2.30373
  0
LINE
  8
0
 10
203.266
 20
2.30373
 11
203.314
 21
2.22263
  0
LINE
  8
0
 10
203.314
 20
2.22263
 11
203.357
 21
2.13866
  0
LINE
  8
0
 10
203.357
 20
2.13866
 11
203.395
 21
2.05219
  0
LINE
  8
0
 10
203.395
 20
2.05219
 11
203.427
 21
1.96352
  0
LINE
  8
0
 10
203.427
 20
1.96352
 11
203.453
 21
1.87303
  0
LINE
  8
0
 10
203.453
 20
1.87303
 11
203.473
 21
1.78107
  0
LINE
  8
0
 10
203.473
 20
1.78107
 11
203.488
 21
1.68799
  0
LINE
  8
0
 10
203.488
 20
1.68799
 11
203.497
 21
1.59418
  0
LINE
  8
0
 10
203.497
 20
1.59418
 11
203.5
 21
1.49998
  0
LINE
  8
0
 10
203.5
 20
1.49998
 11
203.5
 21
0
  0
LINE
  8
0
 10
203.5
 20
0
 11
211.333
 21
0
  0
LINE
  8
0
 10
211.333
 20
0
 11
211.333
 21
3
  0
LINE
  8
0
 10
211.333
 20
3
 11
223.333
 21
3
  0
LINE
  8
0
 10
223.333
 20
3
 11
223.333
 21
0
  0
LINE
  8
0
 10
223.333
 20
0
 11
248
 21
0
  0
LINE
  8
0
 10
248
 20
0
 11
248
 21
3
  0
LINE
  8
0
 10
248
 20
3
 11
260
 21
3
  0
LINE
  8
0
 10
260
 20
3
 11
260
 21
0
  0
LINE
  8
0
 10
260
 20
0
 11
284.667
 21
0
  0
LINE
  8
0
 10
284.667
 20
0
 11
284.667
 21
3
  0
LINE
  8
0
 10
284.667
 20
3
 11
296.667
 21
3
  0
LINE
  8
0
 10
296.667
 20
3
 11
296.667
 21
0
  0
LINE
  8
0
 10
296.667
 20
0
 11
304.5
 21
0
  0
LINE
  8
0
 10
304.5
 20
0
 11
304.5
 21
1.5
  0
LINE
  8
0
 10
304.5
 20
1.5
 11
304.503
 21
1.59418
  0
LINE
  8
0
 10
304.503
 20
1.59418
 11
304.512
 21
1.68799
  0
LINE
  8
0
 10
304.512
 20
1.68799
 11
304.527
 21
1.78107
  0
LINE
  8
0
 10
304.527
 20
1.78107
 11
304.547
 21
1.87303
  0
LINE
  8
0
 10
304.547
 20
1.87303
 11
304.573
 21
1.96352
  0
LINE
  8
0
 10
304.573
 20
1.96352
 11
304.605
 21
2.05219
  0
LINE
  8
0
 10
304.605
 20
2.05219
 11
304.643
 21
2.13866
  0
LINE
  8
0
 10
304.643
 20
2.13866
 11
304.686
 21
2.22263
  0
LINE
  8
0
 10
304.686
 20
2.22263
 11
304.734
 21
2.30373
  0
LINE
  8
0
 10
304.734
 20
2.30373
 11
304.786
 21
2.38167
  0
LINE
  8
0
 10
304.786
 20
2.38167
 11
304.844
 21
2.45613
  0
LINE
  8
0
 10
304.844
 20
2.45613
 11
304.907
 21
2.52681
  0
LINE
  8
0
 10
304.907
 20
2.52681
 11
304.973
 21
2.59344
  0
LINE
  8
0
 10
304.973
 20
2.59344
 11
305.044
 21
2.65576
  0
LINE
  8
0
 10
305.044
 20
2.65576
 11
305.118
 21
2.71352
  0
LINE
  8
0
 10
305.118
 20
2.71352
 11
305.196
 21
2.76648
  0
LINE
  8
0
 10
305.196
 20
2.76648
 11
305.277
 21
2.81445
  0
LINE
  8
0
 10
305.277
 20
2.81445
 11
305.361
 21
2.85724
  0
LINE
  8
0
 10
305.361
 20
2.85724
 11
305.448
 21
2.89465
  0
LINE
  8
0
 10
305.448
 20
2.89465
 11
305.536
 21
2.92657
  0
LINE
  8
0
 10
305.536
 20
2.92657
 11
305.627
 21
2.95287
  0
LINE
  8
0
 10
305.627
 20
2.95287
 11
305.719
 21
2.97342
  0
LINE
  8
0
 10
305.719
 20
2.97342
 11
305.812
 21
2.98816
  0
LINE
  8
0
 10
305.812
 20
2.98816
 11
305.906
 21
2.99704
  0
LINE
  8
0
 10
305.906
 20
2.99704
 11
306
 21
3
  0
LINE
  8
0
 10
306
 20
3
 11
306.094
 21
2.99704
  0
LINE
  8
0
 10
306.094
 20
2.99704
 11
306.188
 21
2.98816
  0
LINE
  8
0
 10
306.188
 20
2.98816
 11
306.281
 21
2.97342
  0
LINE
  8
0
 10
306.281
 20
2.97342
 11
306.373
 21
2.95287
  0
LINE
  8
0
 10
306.373
 20
2.95287
 11
306.464
 21
2.92657
  0
LINE
  8
0
 10
306.464
 20
2.92657
 11
306.552
 21
2.89465
  0
LINE
  8
0
 10
306.552
 20
2.89465
 11
306.639
 21
2.85724
  0
LINE
  8
0
 10
306.639
 20
2.85724
 11
306.723
 21
2.81445
  0
LINE
  8
0
 10
306.723
 20
2.81445
 11
306.804
 21
2.76648
  0
LINE
  8
0
 10
306.804
 20
2.76648
 11
306.882
 21
2.71352
  0
LINE
  8
0
 10
306.882
 20
2.71352
 11
306.956
 21
2.65576
  0
LINE
  8
0
 10
306.956
 20
2.65576
 11
307.027
 21
2.59344
  0
LINE
  8
0
 10
307.027
 20
2.59344
 11
307.093
 21
2.52681
  0
LINE
  8
0
 10
307.093
 20
2.52681
 11
307.156
 21
2.45613
  0
LINE
  8
0
 10
307.156
 20
2.45613
 11
307.214
 21
2.38167
  0
LINE
  8
0
 10
307.214
 20
2.38167
 11
307.266
 21
2.30373
  0
LINE
  8
0
 10
307.266
 20
2.30373
 11
307.314
 21
2.22263
  0
LINE
  8
0
 10
307.314
 20
2.22263
 11
307.357
 21
2.13866
  0
LINE
  8
0
 10
307.357
 20
2.13866
 11
307.395
 21
2.05219
  0
LINE
  8
0
 10
307.395
 20
2.05219
 11
307.427
 21
1.96352
  0
LINE
  8
0
 10
307.427
 20
1.96352
 11
307.453
 21
1.87303
  0
LINE
  8
0
 10
307.453
 20
1.87303
 11
307.473
 21
1.78107
  0
LINE
  8
0
 10
307.473
 20
1.78107
 11
307.488
 21
1.68799
  0
LINE
  8
0
 10
307.488
 20
1.68799
 11
307.497
 21
1.59418
  0
LINE
  8
0
 10
307.497
 20
1.59418
 11
307.5
 21
1.49998
  0
LINE
  8
0
 10
307.5
 20
1.49998
 11
307.5
 21
0
  0
LINE
  8
0
 10
307.5
 20
0
 11
312
 21
0
  0
LINE
  8
0
 10
312
 20
0
 11
312
 21
14.5
  0
LINE
  8
0
 10
312
 20
14.5
 11
309
 21
14.5
  0
LINE
  8
0
 10
309
 20
14.5
 11
309
 21
26.5
  0
LINE
  8
0
 10
309
 20
26.5
 11
312
 21
26.5
  0
LINE
  8
0
 10
312
 20
26.5
 11
312
 21
49.5
  0
LINE
  8
0
 10
312
 20
49.5
 11
309
 21
49.5
  0
LINE
  8
0
 10
309
 20
49.5
 11
309
 21
61.5
  0
LINE
  8
0
 10
309
 20
61.5
 11
312
 21
61.5
  0
LINE
  8
0
 10
312
 20
61.5
 11
312
 21
76
  0
LINE
  8
0
 10
312
 20
76
 11
307.5
 21
76
  0
LINE
  8
0
 10
307.5
 20
76
 11
307.5
 21
74.5
  0
LINE
  8
0
 10
307.5
 20
74.5
 11
307.497
 21
74.4058
  0
LINE
  8
0
 10
307.497
 20
74.4058
 11
307.488
 21
74.312
  0
LINE
  8
0
 10
307.488
 20
74.312
 11
307.473
 21
74.2189
  0
LINE
  8
0
 10
307.473
 20
74.2189
 11
307.453
 21
74.127
  0
LINE
  8
0
 10
307.453
 20
74.127
 11
307.427
 21
74.0365
  0
LINE
  8
0
 10
307.427
 20
74.0365
 11
307.395
 21
73.9478
  0
LINE
  8
0
 10
307.395
 20
73.9478
 11
307.357
 21
73.8613
  0
LINE
  8
0
 10
307.357
 20
73.8613
 11
307.314
 21
73.7774
  0
LINE
  8
0
 10
307.314
 20
73.7774
 11
307.266
 21
73.6963
  0
LINE
  8
0
 10
307.266
 20
73.6963
 11
307.214
 21
73.6183
  0
LINE
  8
0
 10
307.214
 20
73.6183
 11
307.156
 21
73.5439
  0
LINE
  8
0
 10
307.156
 20
73.5439
 11
307.093
 21
73.4732
  0
LINE
  8
0
 10
307.093
 20
73.4732
 11
307.027
 21
73.4065
  0
LINE
  8
0
 10
307.027
 20
73.4065
 11
306.956
 21
73.3442
  0
LINE
  8
0
 10
306.956
 20
73.3442
 11
306.882
 21
73.2865
  0
LINE
  8
0
 10
306.882
 20
73.2865
 11
306.804
 21
73.2335
  0
LINE
  8
0
 10
306.804
 20
73.2335
 11
306.723
 21
73.1855
  0
LINE
  8
0
 10
306.723
 20
73.1855
 11
306.639
 21
73.1427
  0
LINE
  8
0
 10
306.639
 20
73.1427
 11
306.552
 21
73.1053
  0
LINE
  8
0
 10
306.552
 20
73.1053
 11
306.464
 21
73.0734
  0
LINE
  8
0
 10
306.464
 20
73.0734
 11
306.373
 21
73.0471
  0
LINE
  8
0
 10
306.373
 20
73.0471
 11
306.281
 21
73.0266
  0
LINE
  8
0
 10
306.281
 20
73.0266
 11
306.188
 21
73.0118
  0
LINE
  8
0
 10
306.188
 20
73.0118
 11
306.094
 21
73.0029
  0
LINE
  8
0
 10
306.094
 20
73.0029
 11
306
 21
73
  0
LINE
  8
0
 10
306
 20
73
 11
305.906
 21
73.0029
  0
LINE
  8
0
 10
305.906
 20
73.0029
 11
305.812
 21
73.0118
  0
LINE
  8
0
 10
305.812
 20
73.0118
 11
305.719
 21
73.0266
  0
LINE
  8
0
 10
305.719
 20
73.0266
 11
305.627
 21
73.0471
  0
LINE
  8
0
 10
305.627
 20
73.0471
 11
305.536
 21
73.0734
  0
LINE
  8
0
 10
305.536
 20
73.0734
 11
305.448
 21
73.1053
  0
LINE
  8
0
 10
305.448
 20
73.1053
 11
305.361
 21
73.1427
  0
LINE
  8
0
 10
305.361
 20
73.1427
 11
305.277
 21
73.1855
  0
LINE
  8
0
 10
305.277
 20
73.1855
 11
305.196
 21
73.2335
  0
LINE
  8
0
 10
305.196
 20
73.2335
 11
305.118
 21
73.2865
  0
LINE
  8
0
 10
305.118
 20
73.2865
 11
305.044
 21
73.3442
  0
LINE
  8
0
 10
305.044
 20
73.3442
 11
304.973
 21
73.4065
  0
LINE
  8
0
 10
304.973
 20
73.4065
 11
304.907
 21
73.4732
  0
LINE
  8
0
 10
304.907
 20
73.4732
 11
304.844
 21
73.5439
  0
LINE
  8
0
 10
304.844
 20
73.5439
 11
304.786
 21
73.6183
  0
LINE
  8
0
 10
304.786
 20
73.6183
 11
304.734
 21
73.6963
  0
LINE
  8
0
 10
304.734
 20
73.6963
 11
304.686
 21
73.7774
  0
LINE
  8
0
 10
304.686
 20
73.7774
 11
304.643
 21
73.8613
  0
LINE
  8
0
 10
304.643
 20
73.8613
 11
304.605
 21
73.9478
  0
LINE
  8
0
 10
304.605
 20
73.9478
 11
304.573
 21
74.0365
  0
LINE
  8
0
 10
304.573
 20
74.0365
 11
304.547
 21
74.127
  0
LINE
  8
0
 10
304.547
 20
74.127
 11
304.527
 21
74.2189
  0
LINE
  8
0
 10
304.527
 20
74.2189
 11
304.512
 21
74.312
  0
LINE
  8
0
 10
304.512
 20
74.312
 11
304.503
 21
74.4058
  0
LINE
  8
0
 10
304.503
 20
74.4058
 11
304.5
 21
74.5
  0
LINE
  8
0
 10
304.5
 20
74.5
 11
304.5
 21
76
  0
LINE
  8
0
 10
304.5
 20
76
 11
296.667
 21
76
  0
LINE
  8
0
 10
296.667
 20
76
 11
296.667
 21
73
  0
LINE
  8
0
 10
296.667
 20
73
 11
284.667
 21
73
  0
LINE
  8
0
 10
284.667
 20
73
 11
284.667
 21
76
  0
LINE
  8
0
 10
284.667
 20
76
 11
260
 21
76
  0
LINE
  8
0
 10
260
 20
76
 11
260
 21
73
  0
LINE
  8
0
 10
260
 20
73
 11
248
 21
73
  0
LINE
  8
0
 10
248
 20
73
 11
248
 21
76
  0
LINE
  8
0
 10
248
 20
76
 11
223.333
 21
76
  0
LINE
  8
0
 10
223.333
 20
76
 11
223.333
 21
73
  0
LINE
  8
0
 10
223.333
 20
73
 11
211.333
 21
73
  0
LINE
  8
0
 10
211.333
 20
73
 11
211.333
 21
76
  0
LINE
  8
0
 10
211.333
 20
76
 11
203.5
 21
76
  0
LINE
  8
0
 10
203.5
 20
76
 11
203.5
 21
74.5
  0
LINE
  8
0
 10
203.5
 20
74.5
 11
203.497
 21
74.4058
  0
LINE
  8
0
 10
203.497
 20
74.4058
 11
203.488
 21
74.312
  0
LINE
  8
0
 10
203.488
 20
74.312
 11
203.473
 21
74.2189
  0
LINE
  8
0
 10
203.473
 20
74.2189
 11
203.453
 21
74.127
  0
LINE
  8
0
 10
203.453
 20
74.127
 11
203.427
 21
74.0365
  0
LINE
  8
0
 10
203.427
 20
74.0365
 11
203.395
 21
73.9478
  0
LINE
  8
0
 10
203.395
 20
73.9478
 11
203.357
 21
73.8613
  0
LINE
  8
0
 10
203.357
 20
73.8613
 11
203.314
 21
73.7774
  0
LINE
  8
0
 10
203.314
 20
73.7774
 11
203.266
 21
73.6963
  0
LINE
  8
0
 10
203.266
 20
73.6963
 11
203.214
 21
73.6183
  0
LINE
  8
0
 10
203.214
 20
73.6183
 11
203.156
 21
73.5439
  0
LINE
  8
0
 10
203.156
 20
73.5439
 11
203.093
 21
73.4732
  0
LINE
  8
0
 10
203.093
 20
73.4732
 11
203.027
 21
73.4065
  0
LINE
  8
0
 10
203.027
 20
73.4065
 11
202.956
 21
73.3442
  0
LINE
  8
0
 10
202.956
 20
73.3442
 11
202.882
 21
73.2865
  0
LINE
  8
0
 10
202.882
 20
73.2865
 11
202.804
 21
73.2335
  0
LINE
  8
0
 10
202.804
 20
73.2335
 11
202.723
 21
73.1855
  0
LINE
  8
0
 10
202.723
 20
73.1855
 11
202.639
 21
73.1427
  0
LINE
  8
0
 10
202.639
 20
73.1427
 11
202.552
 21
73.1053
  0
LINE
  8
0
 10
202.552
 20
73.1053
 11
202.464
 21
73.0734
  0
LINE
  8
0
 10
202.464
 20
73.0734
 11
202.373
 21
73.0471
  0
LINE
  8
0
 10
202.373
 20
73.0471
 11
202.281
 21
73.0266
  0
LINE
  8
0
 10
202.281
 20
73.0266
 11
202.188
 21
73.0118
  0
LINE
  8
0
 10
202.188
 20
73.0118
 11
202.094
 21
73.0029
  0
LINE
  8
0
 10
202.094
 20
73.0029
 11
202
 21
73
  0
LINE
  8
0
 10
202
 20
73
 11
201.906
 21
73.0029
  0
LINE
  8
0
 10
201.906
 20
73.0029
 11
201.812
 21
73.0118
  0
LINE
  8
0
 10
201.812
 20
73.0118
 11
201.719
 21
73.0266
  0
LINE
  8
0
 10
201.719
 20
73.0266
 11
201.627
 21
73.0471
  0
LINE
  8
0
 10
201.627
 20
73.0471
 11
201.536
 21
73.0734
  0
LINE
  8
0
 10
201.536
 20
73.0734
 11
201.448
 21
73.1053
  0
LINE
  8
0
 10
201.448
 20
73.1053
 11
201.361
 21
73.1427
  0
LINE
  8
0
 10
201.361
 20
73.1427
 11
201.277
 21
73.1855
  0
LINE
  8
0
 10
201.277
 20
73.1855
 11
201.196
 21
73.2335
  0
LINE
  8
0
 10
201.196
 20
73.2335
 11
201.118
 21
73.2865
  0
LINE
  8
0
 10
201.118
 20
73.2865
 11
201.044
 21
73.3442
  0
LINE
  8
0
 10
201.044
 20
73.3442
 11
200.973
 21
73.4065
  0
LINE
  8
0
 10
200.973
 20
73.4065
 11
200.907
 21
73.4732
  0
LINE
  8
0
 10
200.907
 20
73.4732
 11
200.844
 21
73.5439
  0
LINE
  8
0
 10
200.844
 20
73.5439
 11
200.786
 21
73.6183
  0
LINE
  8
0
 10
200.786
 20
73.6183
 11
200.734
 21
73.6963
  0
LINE
  8
0
 10
200.734
 20
73.6963
 11
200.686
 21
73.7774
  0
LINE
  8
0
 10
200.686
 20
73.7774
 11
200.643
 21
73.8613
  0
LINE
  8
0
 10
200.643
 20
73.8613
 11
200.605
 21
73.9478
  0
LINE
  8
0
 10
200.605
 20
73.9478
 11
200.573
 21
74.0365
  0
LINE
  8
0
 10
200.573
 20
74.0365
 11
200.547
 21
74.127
  0
LINE
  8
0
 10
200.547
 20
74.127
 11
200.527
 21
74.2189
  0
LINE
  8
0
 10
200.527
 20
74.2189
 11
200.512
 21
74.312
  0
LINE
  8
0
 10
200.512
 20
74.312
 11
200.503
 21
74.4058
  0
LINE
  8
0
 10
200.503
 20
74.4058
 11
200.5
 21
74.5
  0
LINE
  8
0
 10
200.5
 20
74.5
 11
200.5
 21
76
  0
LINE
  8
0
 10
200.5
 20
76
 11
196
 21
76
  0
LINE
  8
0
 10
196
 20
76
 11
196
 21
61.5
  0
LINE
  8
0
 10
196
 20
61.5
 11
199
 21
61.5
  0
LINE
  8
0
 10
199
 20
61.5
 11
199
 21
49.5
  0
LINE
  8
0
 10
199
 20
49.5
 11
196
 21
49.5
  0
LINE
  8
0
 10
196
 20
49.5
 11
196
 21
26.5
  0
LINE
  8
0
 10
196
 20
26.5
 11
199
 21
26.5
  0
LINE
  8
0
 10
199
 20
26.5
 11
199
 21
14.5
  0
LINE
  8
0
 10
199
 20
14.5
 11
196
 21
14.5
  0
LINE
  8
0
 10
196
 20
14.5
 11
196
 21
0
  0
LINE
  8
0
 10
196
 20
0
 11
200.5
 21
0
  0
LINE
  8
0
 10
200.5
 20
0
 11
200.5
 21
1.5
  0
LINE
  8
0
 10
288.906
 20
56.0029
 11
288.812
 21
56.0118
  0
LINE
  8
0
 10
288.812
 20
56.0118
 11
288.719
 21
56.0266
  0
LINE
  8
0
 10
288.719
 20
56.0266
 11
288.627
 21
56.0471
  0
LINE
  8
0
 10
288.627
 20
56.0471
 11
288.536
 21
56.0734
  0
LINE
  8
0
 10
288.536
 20
56.0734
 11
288.448
 21
56.1053
  0
LINE
  8
0
 10
288.448
 20
56.1053
 11
288.361
 21
56.1427
  0
LINE
  8
0
 10
288.361
 20
56.1427
 11
288.277
 21
56.1855
  0
LINE
  8
0
 10
288.277
 20
56.1855
 11
288.196
 21
56.2335
  0
LINE
  8
0
 10
288.196
 20
56.2335
 11
288.118
 21
56.2865
  0
LINE
  8
0
 10
288.118
 20
56.2865
 11
288.044
 21
56.3442
  0
LINE
  8
0
 10
288.044
 20
56.3442
 11
287.973
 21
56.4065
  0
LINE
  8
0
 10
287.973
 20
56.4065
 11
287.907
 21
56.4732
  0
LINE
  8
0
 10
287.907
 20
56.4732
 11
287.844
 21
56.5439
  0
LINE
  8
0
 10
287.844
 20
56.5439
 11
287.786
 21
56.6183
  0
LINE
  8
0
 10
287.786
 20
56.6183
 11
287.734
 21
56.6963
  0
LINE
  8
0
 10
287.734
 20
56.6963
 11
287.686
 21
56.7774
  0
LINE
  8
0
 10
287.686
 20
56.7774
 11
287.643
 21
56.8613
  0
LINE
  8
0
 10
287.643
 20
56.8613
 11
287.605
 21
56.9478
  0
LINE
  8
0
 10
287.605
 20
56.9478
 11
287.573
 21
57.0365
  0
LINE
  8
0
 10
287.573
 20
57.0365
 11
287.547
 21
57.127
  0
LINE
  8
0
 10
287.547
 20
57.127
 11
287.527
 21
57.2189
  0
LINE
  8
0
 10
287.527
 20
57.2189
 11
287.512
 21
57.312
  0
LINE
  8
0
 10
287.512
 20
57.312
 11
287.503
 21
57.4058
  0
LINE
  8
0
 10
287.503
 20
57.4058
 11
287.5
 21
57.5
  0
LINE
  8
0
 10
287.5
 20
57.5
 11
287.503
 21
57.5942
  0
LINE
  8
0
 10
287.503
 20
57.5942
 11
287.512
 21
57.688
  0
LINE
  8
0
 10
287.512
 20
57.688
 11
287.527
 21
57.7811
  0
LINE
  8
0
 10
287.527
 20
57.7811
 11
287.547
 21
57.873
  0
LINE
  8
0
 10
287.547
 20
57.873
 11
287.573
 21
57.9635
  0
LINE
  8
0
 10
287.573
 20
57.9635
 11
287.605
 21
58.0522
  0
LINE
  8
0
 10
287.605
 20
58.0522
 11
287.643
 21
58.1387
  0
LINE
  8
0
 10
287.643
 20
58.1387
 11
287.686
 21
58.2226
  0
LINE
  8
0
 10
287.686
 20
58.2226
 11
287.734
 21
58.3037
  0
LINE
  8
0
 10
287.734
 20
58.3037
 11
287.786
 21
58.3817
  0
LINE
  8
0
 10
287.786
 20
58.3817
 11
287.844
 21
58.4561
  0
LINE
  8
0
 10
287.844
 20
58.4561
 11
287.907
 21
58.5268
  0
LINE
  8
0
 10
287.907
 20
58.5268
 11
287.973
 21
58.5934
  0
LINE
  8
0
 10
287.973
 20
58.5934
 11
288.044
 21
58.6558
  0
LINE
  8
0
 10
288.044
 20
58.6558
 11
288.118
 21
58.7135
  0
LINE
  8
0
 10
288.118
 20
58.7135
 11
288.196
 21
58.7665
  0
LINE
  8
0
 10
288.196
 20
58.7665
 11
288.277
 21
58.8145
  0
LINE
  8
0
 10
288.277
 20
58.8145
 11
288.361
 21
58.8572
  0
LINE
  8
0
 10
288.361
 20
58.8572
 11
288.448
 21
58.8947
  0
LINE
  8
0
 10
288.448
 20
58.8947
 11
288.536
 21
58.9266
  0
LINE
  8
0
 10
288.536
 20
58.9266
 11
288.627
 21
58.9529
  0
LINE
  8
0
 10
288.627
 20
58.9529
 11
288.719
 21
58.9734
  0
LINE
  8
0
 10
288.719
 20
58.9734
 11
288.812
 21
58.9882
  0
LINE
  8
0
 10
288.812
 20
58.9882
 11
288.906
 21
58.997
  0
LINE
  8
0
 10
288.906
 20
58.997
 11
289
 21
59
  0
LINE
  8
0
 10
289
 20
59
 11
289.094
 21
58.997
  0
LINE
  8
0
 10
289.094
 20
58.997
 11
289.188
 21
58.9882
  0
LINE
  8
0
 10
289.188
 20
58.9882
 11
289.281
 21
58.9734
  0
LINE
  8
0
 10
289.281
 20
58.9734
 11
289.373
 21
58.9529
  0
LINE
  8
0
 10
289.373
 20
58.9529
 11
289.464
 21
58.9266
  0
LINE
  8
0
 10
289.464
 20
58.9266
 11
289.552
 21
58.8947
  0
LINE
  8
0
 10
289.552
 20
58.8947
 11
289.639
 21
58.8572
  0
LINE
  8
0
 10
289.639
 20
58.8572
 11
289.723
 21
58.8145
  0
LINE
  8
0
 10
289.723
 20
58.8145
 11
289.804
 21
58.7665
  0
LINE
  8
0
 10
289.804
 20
58.7665
 11
289.882
 21
58.7135
  0
LINE
  8
0
 10
289.882
 20
58.7135
 11
289.956
 21
58.6558
  0
LINE
  8
0
 10
289.956
 20
58.6558
 11
290.027
 21
58.5934
  0
LINE
  8
0
 10
290.027
 20
58.5934
 11
290.093
 21
58.5268
  0
LINE
  8
0
 10
290.093
 20
58.5268
 11
290.156
 21
58.4561
  0
LINE
  8
0
 10
290.156
 20
58.4561
 11
290.214
 21
58.3817
  0
LINE
  8
0
 10
290.214
 20
58.3817
 11
290.266
 21
58.3037
  0
LINE
  8
0
 10
290.266
 20
58.3037
 11
290.314
 21
58.2226
  0
LINE
  8
0
 10
290.314
 20
58.2226
 11
290.357
 21
58.1387
  0
LINE
  8
0
 10
290.357
 20
58.1387
 11
290.395
 21
58.0522
  0
LINE
  8
0
 10
290.395
 20
58.0522
 11
290.427
 21
57.9635
  0
LINE
  8
0
 10
290.427
 20
57.9635
 11
290.453
 21
57.873
  0
LINE
  8
0
 10
290.453
 20
57.873
 11
290.473
 21
57.7811
  0
LINE
  8
0
 10
290.473
 20
57.7811
 11
290.488
 21
57.688
  0
LINE
  8
0
 10
290.488
 20
57.688
 11
290.497
 21
57.5942
  0
LINE
  8
0
 10
290.497
 20
57.5942
 11
290.5
 21
57.5
  0
LINE
  8
0
 10
290.5
 20
57.5
 11
290.497
 21
57.4058
  0
LINE
  8
0
 10
290.497
 20
57.4058
 11
290.488
 21
57.312
  0
LINE
  8
0
 10
290.488
 20
57.312
 11
290.473
 21
57.2189
  0
LINE
  8
0
 10
290.473
 20
57.2189
 11
290.453
 21
57.127
  0
LINE
  8
0
 10
290.453
 20
57.127
 11
290.427
 21
57.0365
  0
LINE
  8
0
 10
290.427
 20
57.0365
 11
290.395
 21
56.9478
  0
LINE
  8
0
 10
290.395
 20
56.9478
 11
290.357
 21
56.8613
  0
LINE
  8
0
 10
290.357
 20
56.8613
 11
290.314
 21
56.7774
  0
LINE
  8
0
 10
290.314
 20
56.7774
 11
290.266
 21
56.6963
  0
LINE
  8
0
 10
290.266
 20
56.6963
 11
290.214
 21
56.6183
  0
LINE
  8
0
 10
290.214
 20
56.6183
 11
290.156
 21
56.5439
  0
LINE
  8
0
 10
290.156
 20
56.5439
 11
290.093
 21
56.4732
  0
LINE
  8
0
 10
290.093
 20
56.4732
 11
290.027
 21
56.4065
  0
LINE
  8
0
 10
290.027
 20
56.4065
 11
289.956
 21
56.3442
  0
LINE
  8
0
 10
289.956
 20
56.3442
 11
289.882
 21
56.2865
  0
LINE
  8
0
 10
289.882
 20
56.2865
 11
289.804
 21
56.2335
  0
LINE
  8
0
 10
289.804
 20
56.2335
 11
289.723
 21
56.1855
  0
LINE
  8
0
 10
289.723
 20
56.1855
 11
289.639
 21
56.1427
  0
LINE
  8
0
 10
289.639
 20
56.1427
 11
289.552
 21
56.1053
  0
LINE
  8
0
 10
289.552
 20
56.1053
 11
289.464
 21
56.0734
  0
LINE
  8
0
 10
289.464
 20
56.0734
 11
289.373
 21
56.0471
  0
LINE
  8
0
 10
289.373
 20
56.0471
 11
289.281
 21
56.0266
  0
LINE
  8
0
 10
289.281
 20
56.0266
 11
289.188
 21
56.0118
  0
LINE
  8
0
 10
289.188
 20
56.0118
 11
289.094
 21
56.0029
  0
LINE
  8
0
 10
289.094
 20
56.0029
 11
289
 21
56
  0
LINE
  8
0
 10
289
 20
56
 11
288.906
 21
56.0029
  0
LINE
  8
0
 10
288.906
 20
17.0029
 11
288.812
 21
17.0118
  0
LINE
  8
0
 10
288.812
 20
17.0118
 11
288.719
 21
17.0266
  0
LINE
  8
0
 10
288.719
 20
17.0266
 11
288.627
 21
17.0471
  0
LINE
  8
0
 10
288.627
 20
17.0471
 11
288.536
 21
17.0734
  0
LINE
  8
0
 10
288.536
 20
17.0734
 11
288.448
 21
17.1053
  0
LINE
  8
0
 10
288.448
 20
17.1053
 11
288.361
 21
17.1427
  0
LINE
  8
0
 10
288.361
 20
17.1427
 11
288.277
 21
17.1855
  0
LINE
  8
0
 10
288.277
 20
17.1855
 11
288.196
 21
17.2335
  0
LINE
  8
0
 10
288.196
 20
17.2335
 11
288.118
 21
17.2865
  0
LINE
  8
0
 10
288.118
 20
17.2865
 11
288.044
 21
17.3442
  0
LINE
  8
0
 10
288.044
 20
17.3442
 11
287.973
 21
17.4065
  0
LINE
  8
0
 10
287.973
 20
17.4065
 11
287.907
 21
17.4732
  0
LINE
  8
0
 10
287.907
 20
17.4732
 11
287.844
 21
17.5439
  0
LINE
  8
0
 10
287.844
 20
17.5439
 11
287.786
 21
17.6183
  0
LINE
  8
0
 10
287.786
 20
17.6183
 11
287.734
 21
17.6963
  0
LINE
  8
0
 10
287.734
 20
17.6963
 11
287.686
 21
17.7774
  0
LINE
  8
0
 10
287.686
 20
17.7774
 11
287.643
 21
17.8613
  0
LINE
  8
0
 10
287.643
 20
17.8613
 11
287.605
 21
17.9478
  0
LINE
  8
0
 10
287.605
 20
17.9478
 11
287.573
 21
18.0365
  0
LINE
  8
0
 10
287.573
 20
18.0365
 11
287.547
 21
18.127
  0
LINE
  8
0
 10
287.547
 20
18.127
 11
287.527
 21
18.2189
  0
LINE
  8
0
 10
287.527
 20
18.2189
 11
287.512
 21
18.312
  0
LINE
  8
0
 10
287.512
 20
18.312
 11
287.503
 21
18.4058
  0
LINE
  8
0
 10
287.503
 20
18.4058
 11
287.5
 21
18.5
  0
LINE
  8
0
 10
287.5
 20
18.5
 11
287.503
 21
18.5942
  0
LINE
  8
0
 10
287.503
 20
18.5942
 11
287.512
 21
18.688
  0
LINE
  8
0
 10
287.512
 20
18.688
 11
287.527
 21
18.7811
  0
LINE
  8
0
 10
287.527
 20
18.7811
 11
287.547
 21
18.873
  0
LINE
  8
0
 10
287.547
 20
18.873
 11
287.573
 21
18.9635
  0
LINE
  8
0
 10
287.573
 20
18.9635
 11
287.605
 21
19.0522
  0
LINE
  8
0
 10
287.605
 20
19.0522
 11
287.643
 21
19.1387
  0
LINE
  8
0
 10
287.643
 20
19.1387
 11
287.686
 21
19.2226
  0
LINE
  8
0
 10
287.686
 20
19.2226
 11
287.734
 21
19.3037
  0
LINE
  8
0
 10
287.734
 20
19.3037
 11
287.786
 21
19.3817
  0
LINE
  8
0
 10
287.786
 20
19.3817
 11
287.844
 21
19.4561
  0
LINE
  8
0
 10
287.844
 20
19.4561
 11
287.907
 21
19.5268
  0
LINE
  8
0
 10
287.907
 20
19.5268
 11
287.973
 21
19.5934
  0
LINE
  8
0
 10
287.973
 20
19.5934
 11
288.044
 21
19.6558
  0
LINE
  8
0
 10
288.044
 20
19.6558
 11
288.118
 21
19.7135
  0
LINE
  8
0
 10
288.118
 20
19.7135
 11
288.196
 21
19.7665
  0
LINE
  8
0
 10
288.196
 20
19.7665
 11
288.277
 21
19.8145
  0
LINE
  8
0
 10
288.277
 20
19.8145
 11
288.361
 21
19.8572
  0
LINE
  8
0
 10
288.361
 20
19.8572
 11
288.448
 21
19.8947
  0
LINE
  8
0
 10
288.448
 20
19.8947
 11
288.536
 21
19.9266
  0
LINE
  8
0
 10
288.536
 20
19.9266
 11
288.627
 21
19.9529
  0
LINE
  8
0
 10
288.627
 20
19.9529
 11
288.719
 21
19.9734
  0
LINE
  8
0
 10
288.719
 20
19.9734
 11
288.812
 21
19.9882
  0
LINE
  8
0
 10
288.812
 20
19.9882
 11
288.906
 21
19.997
  0
LINE
  8
0
 10
288.906
 20
19.997
 11
289
 21
20
  0
LINE
  8
0
 10
289
 20
20
 11
289.094
 21
19.997
  0
LINE
  8
0
 10
289.094
 20
19.997
 11
289.188
 21
19.9882
  0
LINE
  8
0
 10
289.188
 20
19.9882
 11
289.281
 21
19.9734
  0
LINE
  8
0
 10
289.281
 20
19.9734
 11
289.373
 21
19.9529
  0
LINE
  8
0
 10
289.373
 20
19.9529
 11
289.464
 21
19.9266
  0
LINE
  8
0
 10
289.464
 20
19.9266
 11
289.552
 21
19.8947
  0
LINE
  8
0
 10
289.552
 20
19.8947
 11
289.639
 21
19.8572
  0
LINE
  8
0
 10
289.639
 20
19.8572
 11
289.723
 21
19.8145
  0
LINE
  8
0
 10
289.723
 20
19.8145
 11
289.804
 21
19.7665
  0
LINE
  8
0
 10
289.804
 20
19.7665
 11
289.882
 21
19.7135
  0
LINE
  8
0
 10
289.882
 20
19.7135
 11
289.956
 21
19.6558
  0
LINE
  8
0
 10
289.956
 20
19.6558
 11
290.027
 21
19.5934
  0
LINE
  8
0
 10
290.027
 20
19.5934
 11
290.093
 21
19.5268
  0
LINE
  8
0
 10
290.093
 20
19.5268
 11
290.156
 21
19.4561
  0
LINE
  8
0
 10
290.156
 20
19.4561
 11
290.214
 21
19.3817
  0
LINE
  8
0
 10
290.214
 20
19.3817
 11
290.266
 21
19.3037
  0
LINE
  8
0
 10
290.266
 20
19.3037
 11
290.314
 21
19.2226
  0
LINE
  8
0
 10
290.314
 20
19.2226
 11
290.357
 21
19.1387
  0
LINE
  8
0
 10
290.357
 20
19.1387
 11
290.395
 21
19.0522
  0
LINE
  8
0
 10
290.395
 20
19.0522
 11
290.427
 21
18.9635
  0
LINE
  8
0
 10
290.427
 20
18.9635
 11
290.453
 21
18.873
  0
LINE
  8
0
 10
290.453
 20
18.873
 11
290.473
 21
18.7811
  0
LINE
  8
0
 10
290.473
 20
18.7811
 11
290.488
 21
18.688
  0
LINE
  8
0
 10
290.488
 20
18.688
 11
290.497
 21
18.5942
  0
LINE
  8
0
 10
290.497
 20
18.5942
 11
290.5
 21
18.5
  0
LINE
  8
0
 10
290.5
 20
18.5
 11
290.497
 21
18.4058
  0
LINE
  8
0
 10
290.497
 20
18.4058
 11
290.488
 21
18.312
  0
LINE
  8
0
 10
290.488
 20
18.312
 11
290.473
 21
18.2189
  0
LINE
  8
0
 10
290.473
 20
18.2189
 11
290.453
 21
18.127
  0
LINE
  8
0
 10
290.453
 20
18.127
 11
290.427
 21
18.0365
  0
LINE
  8
0
 10
290.427
 20
18.0365
 11
290.395
 21
17.9478
  0
LINE
  8
0
 10
290.395
 20
17.9478
 11
290.357
 21
17.8613
  0
LINE
  8
0
 10
290.357
 20
17.8613
 11
290.314
 21
17.7774
  0
LINE
  8
0
 10
290.314
 20
17.7774
 11
290.266
 21
17.6963
  0
LINE
  8
0
 10
290.266
 20
17.6963
 11
290.214
 21
17.6183
  0
LINE
  8
0
 10
290.214
 20
17.6183
 11
290.156
 21
17.5439
  0
LINE
  8
0
 10
290.156
 20
17.5439
 11
290.093
 21
17.4732
  0
LINE
  8
0
 10
290.093
 20
17.4732
 11
290.027
 21
17.4065
  0
LINE
  8
0
 10
290.027
 20
17.4065
 11
289.956
 21
17.3442
  0
LINE
  8
0
 10
289.956
 20
17.3442
 11
289.882
 21
17.2865
  0
LINE
  8
0
 10
289.882
 20
17.2865
 11
289.804
 21
17.2335
  0
LINE
  8
0
 10
289.804
 20
17.2335
 11
289.723
 21
17.1855
  0
LINE
  8
0
 10
289.723
 20
17.1855
 11
289.639
 21
17.1427
  0
LINE
  8
0
 10
289.639
 20
17.1427
 11
289.552
 21
17.1053
  0
LINE
  8
0
 10
289.552
 20
17.1053
 11
289.464
 21
17.0734
  0
LINE
  8
0
 10
289.464
 20
17.0734
 11
289.373
 21
17.0471
  0
LINE
  8
0
 10
289.373
 20
17.0471
 11
289.281
 21
17.0266
  0
LINE
  8
0
 10
289.281
 20
17.0266
 11
289.188
 21
17.0118
  0
LINE
  8
0
 10
289.188
 20
17.0118
 11
289.094
 21
17.0029
  0
LINE
  8
0
 10
289.094
 20
17.0029
 11
289
 21
17
  0
LINE
  8
0
 10
289
 20
17
 11
288.906
 21
17.0029
  0
LINE
  8
0
 10
26.5
 20
3
 11
49.5
 21
3
  0
LINE
  8
0
 10
49.5
 20
3
 11
49.5
 21
0
  0
LINE
  8
0
 10
49.5
 20
0
 11
61.5
 21
0
  0
LINE
  8
0
 10
61.5
 20
0
 11
61.5
 21
3
  0
LINE
  8
0
 10
61.5
 20
3
 11
73
 21
3
  0
LINE
  8
0
 10
73
 20
3
 11
73
 21
14.5
  0
LINE
  8
0
 10
73
 20
14.5
 11
76
 21
14.5
  0
LINE
  8
0
 10
76
 20
14.5
 11
76
 21
19
  0
LINE
  8
0
 10
76
 20
19
 11
74.5
 21
19
  0
LINE
  8
0
 10
74.5
 20
19
 11
74.4058
 21
19.0029
  0
LINE
  8
0
 10
74.4058
 20
19.0029
 11
74.312
 21
19.0118
  0
LINE
  8
0
 10
74.312
 20
19.0118
 11
74.2189
 21
19.0266
  0
LINE
  8
0
 10
74.2189
 20
19.0266
 11
74.127
 21
19.0471
  0
LINE
  8
0
 10
74.127
 20
19.0471
 11
74.0365
 21
19.0734
  0
LINE
  8
0
 10
74.0365
 20
19.0734
 11
73.9478
 21
19.1053
  0
LINE
  8
0
 10
73.9478
 20
19.1053
 11
73.8613
 21
19.1427
  0
LINE
  8
0
 10
73.8613
 20
19.1427
 11
73.7774
 21
19.1855
  0
LINE
  8
0
 10
73.7774
 20
19.1855
 11
73.6963
 21
19.2335
  0
LINE
  8
0
 10
73.6963
 20
19.2335
 11
73.6183
 21
19.2865
  0
LINE
  8
0
 10
73.6183
 20
19.2865
 11
73.5439
 21
19.3442
  0
LINE
  8
0
 10
73.5439
 20
19.3442
 11
73.4732
 21
19.4065
  0
LINE
  8
0
 10
73.4732
 20
19.4065
 11
73.4065
 21
19.4732
  0
LINE
  8
0
 10
73.4065
 20
19.4732
 11
73.3442
 21
19.5439
  0
LINE
  8
0
 10
73.3442
 20
19.5439
 11
73.2865
 21
19.6183
  0
LINE
  8
0
 10
73.2865
 20
19.6183
 11
73.2335
 21
19.6963
  0
LINE
  8
0
 10
73.2335
 20
19.6963
 11
73.1855
 21
19.7774
  0
LINE
  8
0
 10
73.1855
 20
19.7774
 11
73.1427
 21
19.8613
  0
LINE
  8
0
 10
73.1427
 20
19.8613
 11
73.1053
 21
19.9478
  0
LINE
  8
0
 10
73.1053
 20
19.9478
 11
73.0734
 21
20.0365
  0
LINE
  8
0
 10
73.0734
 20
20.0365
 11
73.0471
 21
20.127
  0
LINE
  8
0
 10
73.0471
 20
20.127
 11
73.0266
 21
20.2189
  0
LINE
  8
0
 10
73.0266
 20
20.2189
 11
73.0118
 21
20.312
  0
LINE
  8
0
 10
73.0118
 20
20.312
 11
73.0029
 21
20.4058
  0
LINE
  8
0
 10
73.0029
 20
20.4058
 11
73
 21
20.5
  0
LINE
  8
0
 10
73
 20
20.5
 11
73.0029
 21
20.5942
  0
LINE
  8
0
 10
73.0029
 20
20.5942
 11
73.0118
 21
20.688
  0
LINE
  8
0
 10
73.0118
 20
20.688
 11
73.0266
 21
20.7811
  0
LINE
  8
0
 10
73.0266
 20
20.7811
 11
73.0471
 21
20.873
  0
LINE
  8
0
 10
73.0471
 20
20.873
 11
73.0734
 21
20.9635
  0
LINE
  8
0
 10
73.0734
 20
20.9635
 11
73.1053
 21
21.0522
  0
LINE
  8
0
 10
73.1053
 20
21.0522
 11
73.1427
 21
21.1387
  0
LINE
  8
0
 10
73.1427
 20
21.1387
 11
73.1855
 21
21.2226
  0
LINE
  8
0
 10
73.1855
 20
21.2226
 11
73.2335
 21
21.3037
  0
LINE
  8
0
 10
73.2335
 20
21.3037
 11
73.2865
 21
21.3817
  0
LINE
  8
0
 10
73.2865
 20
21.3817
 11
73.3442
 21
21.4561
  0
LINE
  8
0
 10
73.3442
 20
21.4561
 11
73.4065
 21
21.5268
  0
LINE
  8
0
 10
73.4065
 20
21.5268
 11
73.4732
 21
21.5934
  0
LINE
  8
0
 10
73.4732
 20
21.5934
 11
73.5439
 21
21.6558
  0
LINE
  8
0
 10
73.5439
 20
21.6558
 11
73.6183
 21
21.7135
  0
LINE
  8
0
 10
73.6183
 20
21.7135
 11
73.6963
 21
21.7665
  0
LINE
  8
0
 10
73.6963
 20
21.7665
 11
73.7774
 21
21.8145
  0
LINE
  8
0
 10
73.7774
 20
21.8145
 11
73.8613
 21
21.8572
  0
LINE
  8
0
 10
73.8613
 20
21.8572
 11
73.9478
 21
21.8947
  0
LINE
  8
0
 10
73.9478
 20
21.8947
 11
74.0365
 21
21.9266
  0
LINE
  8
0
 10
74.0365
 20
21.9266
 11
74.127
 21
21.9529
  0
LINE
  8
0
 10
74.127
 20
21.9529
 11
74.2189
 21
21.9734
  0
LINE
  8
0
 10
74.2189
 20
21.9734
 11
74.312
 21
21.9882
  0
LINE
  8
0
 10
74.312
 20
21.9882
 11
74.4058
 21
21.997
  0
LINE
  8
0
 10
74.4058
 20
21.997
 11
74.5
 21
22
  0
LINE
  8
0
 10
74.5
 20
22
 11
76
 21
22
  0
LINE
  8
0
 10
76
 20
22
 11
76
 21
26.5
  0
LINE
  8
0
 10
76
 20
26.5
 11
73
 21
26.5
  0
LINE
  8
0
 10
73
 20
26.5
 11
73
 21
49.5
  0
LINE
  8
0
 10
73
 20
49.5
 11
76
 21
49.5
  0
LINE
  8
0
 10
76
 20
49.5
 11
76
 21
54
  0
LINE
  8
0
 10
76
 20
54
 11
74.5
 21
54
  0
LINE
  8
0
 10
74.5
 20
54
 11
74.4058
 21
54.0029
  0
LINE
  8
0
 10
74.4058
 20
54.0029
 11
74.312
 21
54.0118
  0
LINE
  8
0
 10
74.312
 20
54.0118
 11
74.2189
 21
54.0266
  0
LINE
  8
0
 10
74.2189
 20
54.0266
 11
74.127
 21
54.0471
  0
LINE
  8
0
 10
74.127
 20
54.0471
 11
74.0365
 21
54.0734
  0
LINE
  8
0
 10
74.0365
 20
54.0734
 11
73.9478
 21
54.1053
  0
LINE
  8
0
 10
73.9478
 20
54.1053
 11
73.8613
 21
54.1427
  0
LINE
  8
0
 10
73.8613
 20
54.1427
 11
73.7774
 21
54.1855
  0
LINE
  8
0
 10
73.7774
 20
54.1855
 11
73.6963
 21
54.2335
  0
LINE
  8
0
 10
73.6963
 20
54.2335
 11
73.6183
 21
54.2865
  0
LINE
  8
0
 10
73.6183
 20
54.2865
 11
73.5439
 21
54.3442
  0
LINE
  8
0
 10
73.5439
 20
54.3442
 11
73.4732
 21
54.4065
  0
LINE
  8
0
 10
73.4732
 20
54.4065
 11
73.4065
 21
54.4732
  0
LINE
  8
0
 10
73.4065
 20
54.4732
 11
73.3442
 21
54.5439
  0
LINE
  8
0
 10
73.3442
 20
54.5439
 11
73.2865
 21
54.6183
  0
LINE
  8
0
 10
73.2865
 20
54.6183
 11
73.2335
 21
54.6963
  0
LINE
  8
0
 10
73.2335
 20
54.6963
 11
73.1855
 21
54.7774
  0
LINE
  8
0
 10
73.1855
 20
54.7774
 11
73.1427
 21
54.8613
  0
LINE
  8
0
 10
73.1427
 20
54.8613
 11
73.1053
 21
54.9478
  0
LINE
  8
0
 10
73.1053
 20
54.9478
 11
73.0734
 21
55.0365
  0
LINE
  8
0
 10
73.0734
 20
55.0365
 11
73.0471
 21
55.127
  0
LINE
  8
0
 10
73.0471
 20
55.127
 11
73.0266
 21
55.2189
  0
LINE
  8
0
 10
73.0266
 20
55.2189
 11
73.0118
 21
55.312
  0
LINE
  8
0
 10
73.0118
 20
55.312
 11
73.0029
 21
55.4058
  0
LINE
  8
0
 10
73.0029
 20
55.4058
 11
73
 21
55.5
  0
LINE
  8
0
 10
73
 20
55.5
 11
73.0029
 21
55.5942
  0
LINE
  8
0
 10
73.0029
 20
55.5942
 11
73.0118
 21
55.688
  0
LINE
  8
0
 10
73.0118
 20
55.688
 11
73.0266
 21
55.7811
  0
LINE
  8
0
 10
73.0266
 20
55.7811
 11
73.0471
 21
55.873
  0
LINE
  8
0
 10
73.0471
 20
55.873
 11
73.0734
 21
55.9635
  0
LINE
  8
0
 10
73.0734
 20
55.9635
 11
73.1053
 21
56.0522
  0
LINE
  8
0
 10
73.1053
 20
56.0522
 11
73.1427
 21
56.1387
  0
LINE
  8
0
 10
73.1427
 20
56.1387
 11
73.1855
 21
56.2226
  0
LINE
  8
0
 10
73.1855
 20
56.2226
 11
73.2335
 21
56.3037
  0
LINE
  8
0
 10
73.2335
 20
56.3037
 11
73.2865
 21
56.3817
  0
LINE
  8
0
 10
73.2865
 20
56.3817
 11
73.3442
 21
56.4561
  0
LINE
  8
0
 10
73.3442
 20
56.4561
 11
73.4065
 21
56.5268
  0
LINE
  8
0
 10
73.4065
 20
56.5268
 11
73.4732
 21
56.5934
  0
LINE
  8
0
 10
73.4732
 20
56.5934
 11
73.5439
 21
56.6558
  0
LINE
  8
0
 10
73.5439
 20
56.6558
 11
73.6183
 21
56.7135
  0
LINE
  8
0
 10
73.6183
 20
56.7135
 11
73.6963
 21
56.7665
  0
LINE
  8
0
 10
73.6963
 20
56.7665
 11
73.7774
 21
56.8145
  0
LINE
  8
0
 10
73.7774
 20
56.8145
 11
73.8613
 21
56.8572
  0
LINE
  8
0
 10
73.8613
 20
56.8572
 11
73.9478
 21
56.8947
  0
LINE
  8
0
 10
73.9478
 20
56.8947
 11
74.0365
 21
56.9266
  0
LINE
  8
0
 10
74.0365
 20
56.9266
 11
74.127
 21
56.9529
  0
LINE
  8
0
 10
74.127
 20
56.9529
 11
74.2189
 21
56.9734
  0
LINE
  8
0
 10
74.2189
 20
56.9734
 11
74.312
 21
56.9882
  0
LINE
  8
0
 10
74.312
 20
56.9882
 11
74.4058
 21
56.997
  0
LINE
  8
0
 10
74.4058
 20
56.997
 11
74.5
 21
57
  0
LINE
  8
0
 10
74.5
 20
57
 11
76
 21
57
  0
LINE
  8
0
 10
76
 20
57
 11
76
 21
61.5
  0
LINE
  8
0
 10
76
 20
61.5
 11
73
 21
61.5
  0
LINE
  8
0
 10
73
 20
61.5
 11
73
 21
73
  0
LINE
  8
0
 10
73
 20
73
 11
61.5
 21
73
  0
LINE
  8
0
 10
61.5
 20
73
 11
61.5
 21
76
  0
LINE
  8
0
 10
61.5
 20
76
 11
49.5
 21
76
  0
LINE
  8
0
 10
49.5
 20
76
 11
49.5
 21
73
  0
LINE
  8
0
 10
49.5
 20
73
 11
26.5
 21
73
  0
LINE
  8
0
 10
26.5
 20
73
 11
26.5
 21
76
  0
LINE
  8
0
 10
26.5
 20
76
 11
14.5
 21
76
  0
LINE
  8
0
 10
14.5
 20
76
 11
14.5
 21
73
  0
LINE
  8
0
 10
14.5
 20
73
 11
3
 21
73
  0
LINE
  8
0
 10
3
 20
73
 11
3
 21
61.5
  0
LINE
  8
0
 10
3
 20
61.5
 11
0
 21
61.5
  0
LINE
  8
0
 10
0
 20
61.5
 11
0
 21
57
  0
LINE
  8
0
 10
0
 20
57
 11
1.50002
 21
57
  0
LINE
  8
0
 10
1.50002
 20
57
 11
1.59419
 21
56.997
  0
LINE
  8
0
 10
1.59419
 20
56.997
 11
1.688
 21
56.9882
  0
LINE
  8
0
 10
1.688
 20
56.9882
 11
1.78108
 21
56.9734
  0
LINE
  8
0
 10
1.78108
 20
56.9734
 11
1.87305
 21
56.9529
  0
LINE
  8
0
 10
1.87305
 20
56.9529
 11
1.96353
 21
56.9266
  0
LINE
  8
0
 10
1.96353
 20
56.9266
 11
2.0522
 21
56.8947
  0
LINE
  8
0
 10
2.0522
 20
56.8947
 11
2.13867
 21
56.8572
  0
LINE
  8
0
 10
2.13867
 20
56.8572
 11
2.22264
 21
56.8145
  0
LINE
  8
0
 10
2.22264
 20
56.8145
 11
2.30374
 21
56.7665
  0
LINE
  8
0
 10
2.30374
 20
56.7665
 11
2.38168
 21
56.7135
  0
LINE
  8
0
 10
2.38168
 20
56.7135
 11
2.45615
 21
56.6558
  0
LINE
  8
0
 10
2.45615
 20
56.6558
 11
2.52682
 21
56.5934
  0
LINE
  8
0
 10
2.52682
 20
56.5934
 11
2.59346
 21
56.5268
  0
LINE
  8
0
 10
2.59346
 20
56.5268
 11
2.65578
 21
56.4561
  0
LINE
  8
0
 10
2.65578
 20
56.4561
 11
2.71353
 21
56.3817
  0
LINE
  8
0
 10
2.71353
 20
56.3817
 11
2.76649
 21
56.3037
  0
LINE
  8
0
 10
2.76649
 20
56.3037
 11
2.81447
 21
56.2226
  0
LINE
  8
0
 10
2.81447
 20
56.2226
 11
2.85725
 21
56.1387
  0
LINE
  8
0
 10
2.85725
 20
56.1387
 11
2.89467
 21
56.0522
  0
LINE
  8
0
 10
2.89467
 20
56.0522
 11
2.92659
 21
55.9635
  0
LINE
  8
0
 10
2.92659
 20
55.9635
 11
2.95288
 21
55.873
  0
LINE
  8
0
 10
2.95288
 20
55.873
 11
2.97343
 21
55.7811
  0
LINE
  8
0
 10
2.97343
 20
55.7811
 11
2.98817
 21
55.688
  0
LINE
  8
0
 10
2.98817
 20
55.688
 11
2.99706
 21
55.5942
  0
LINE
  8
0
 10
2.99706
 20
55.5942
 11
3
 21
55.5
  0
LINE
  8
0
 10
3
 20
55.5
 11
2.99706
 21
55.4058
  0
LINE
  8
0
 10
2.99706
 20
55.4058
 11
2.98817
 21
55.312
  0
LINE
  8
0
 10
2.98817
 20
55.312
 11
2.97343
 21
55.2189
  0
LINE
  8
0
 10
2.97343
 20
55.2189
 11
2.95288
 21
55.127
  0
LINE
  8
0
 10
2.95288
 20
55.127
 11
2.92659
 21
55.0365
  0
LINE
  8
0
 10
2.92659
 20
55.0365
 11
2.89467
 21
54.9478
  0
LINE
  8
0
 10
2.89467
 20
54.9478
 11
2.85725
 21
54.8613
  0
LINE
  8
0
 10
2.85725
 20
54.8613
 11
2.81447
 21
54.7774
  0
LINE
  8
0
 10
2.81447
 20
54.7774
 11
2.76649
 21
54.6963
  0
LINE
  8
0
 10
2.76649
 20
54.6963
 11
2.71353
 21
54.6183
  0
LINE
  8
0
 10
2.71353
 20
54.6183
 11
2.65578
 21
54.5439
  0
LINE
  8
0
 10
2.65578
 20
54.5439
 11
2.59346
 21
54.4732
  0
LINE
  8
0
 10
2.59346
 20
54.4732
 11
2.52682
 21
54.4065
  0
LINE
  8
0
 10
2.52682
 20
54.4065
 11
2.45615
 21
54.3442
  0
LINE
  8
0
 10
2.45615
 20
54.3442
 11
2.38168
 21
54.2865
  0
LINE
  8
0
 10
2.38168
 20
54.2865
 11
2.30374
 21
54.2335
  0
LINE
  8
0
 10
2.30374
 20
54.2335
 11
2.22264
 21
54.1855
  0
LINE
  8
0
 10
2.22264
 20
54.1855
 11
2.13867
 21
54.1427
  0
LINE
  8
0
 10
2.13867
 20
54.1427
 11
2.0522
 21
54.1053
  0
LINE
  8
0
 10
2.0522
 20
54.1053
 11
1.96353
 21
54.0734
  0
LINE
  8
0
 10
1.96353
 20
54.0734
 11
1.87305
 21
54.0471
  0
LINE
  8
0
 10
1.87305
 20
54.0471
 11
1.78108
 21
54.0266
  0
LINE
  8
0
 10
1.78108
 20
54.0266
 11
1.688
 21
54.0118
  0
LINE
  8
0
 10
1.688
 20
54.0118
 11
1.59419
 21
54.0029
  0
LINE
  8
0
 10
1.59419
 20
54.0029
 11
1.5
 21
54
  0
LINE
  8
0
 10
1.5
 20
54
 11
0
 21
54
  0
LINE
  8
0
 10
0
 20
54
 11
0
 21
49.5
  0
LINE
  8
0
 10
0
 20
49.5
 11
3
 21
49.5
  0
LINE
  8
0
 10
3
 20
49.5
 11
3
 21
26.5
  0
LINE
  8
0
 10
3
 20
26.5
 11
0
 21
26.5
  0
LINE
  8
0
 10
0
 20
26.5
 11
0
 21
22
  0
LINE
  8
0
 10
0
 20
22
 11
1.50002
 21
22
  0
LINE
  8
0
 10
1.50002
 20
22
 11
1.59419
 21
21.997
  0
LINE
  8
0
 10
1.59419
 20
21.997
 11
1.688
 21
21.9882
  0
LINE
  8
0
 10
1.688
 20
21.9882
 11
1.78108
 21
21.9734
  0
LINE
  8
0
 10
1.78108
 20
21.9734
 11
1.87305
 21
21.9529
  0
LINE
  8
0
 10
1.87305
 20
21.9529
 11
1.96353
 21
21.9266
  0
LINE
  8
0
 10
1.96353
 20
21.9266
 11
2.0522
 21
21.8947
  0
LINE
  8
0
 10
2.0522
 20
21.8947
 11
2.13867
 21
21.8572
  0
LINE
  8
0
 10
2.13867
 20
21.8572
 11
2.22264
 21
21.8145
  0
LINE
  8
0
 10
2.22264
 20
21.8145
 11
2.30374
 21
21.7665
  0
LINE
  8
0
 10
2.30374
 20
21.7665
 11
2.38168
 21
21.7135
  0
LINE
  8
0
 10
2.38168
 20
21.7135
 11
2.45615
 21
21.6558
  0
LINE
  8
0
 10
2.45615
 20
21.6558
 11
2.52682
 21
21.5934
  0
LINE
  8
0
 10
2.52682
 20
21.5934
 11
2.59346
 21
21.5268
  0
LINE
  8
0
 10
2.59346
 20
21.5268
 11
2.65578
 21
21.4561
  0
LINE
  8
0
 10
2.65578
 20
21.4561
 11
2.71353
 21
21.3817
  0
LINE
  8
0
 10
2.71353
 20
21.3817
 11
2.76649
 21
21.3037
  0
LINE
  8
0
 10
2.76649
 20
21.3037
 11
2.81447
 21
21.2226
  0
LINE
  8
0
 10
2.81447
 20
21.2226
 11
2.85725
 21
21.1387
  0
LINE
  8
0
 10
2.85725
 20
21.1387
 11
2.89467
 21
21.0522
  0
LINE
  8
0
 10
2.89467
 20
21.0522
 11
2.92659
 21
20.9635
  0
LINE
  8
0
 10
2.92659
 20
20.9635
 11
2.95288
 21
20.873
  0
LINE
  8
0
 10
2.95288
 20
20.873
 11
2.97343
 21
20.7811
  0
LINE
  8
0
 10
2.97343
 20
20.7811
 11
2.98817
 21
20.688
  0
LINE
  8
0
 10
2.98817
 20
20.688
 11
2.99706
 21
20.5942
  0
LINE
  8
0
 10
2.99706
 20
20.5942
 11
3
 21
20.5
  0
LINE
  8
0
 10
3
 20
20.5
 11
2.99706
 21
20.4058
  0
LINE
  8
0
 10
2.99706
 20
20.4058
 11
2.98817
 21
20.312
  0
LINE
  8
0
 10
2.98817
 20
20.312
 11
2.97343
 21
20.2189
  0
LINE
  8
0
 10
2.97343
 20
20.2189
 11
2.95288
 21
20.127
  0
LINE
  8
0
 10
2.95288
 20
20.127
 11
2.92659
 21
20.0365
  0
LINE
  8
0
 10
2.92659
 20
20.0365
 11
2.89467
 21
19.9478
  0
LINE
  8
0
 10
2.89467
 20
19.9478
 11
2.85725
 21
19.8613
  0
LINE
  8
0
 10
2.85725
 20
19.8613
 11
2.81447
 21
19.7774
  0
LINE
  8
0
 10
2.81447
 20
19.7774
 11
2.76649
 21
19.6963
  0
LINE
  8
0
 10
2.76649
 20
19.6963
 11
2.71353
 21
19.6183
  0
LINE
  8
0
 10
2.71353
 20
19.6183
 11
2.65578
 21
19.5439
  0
LINE
  8
0
 10
2.65578
 20
19.5439
 11
2.59346
 21
19.4732
  0
LINE
  8
0
 10
2.59346
 20
19.4732
 11
2.52682
 21
19.4065
  0
LINE
  8
0
 10
2.52682
 20
19.4065
 11
2.45615
 21
19.3442
  0
LINE
  8
0
 10
2.45615
 20
19.3442
 11
2.38168
 21
19.2865
  0
LINE
  8
0
 10
2.38168
 20
19.2865
 11
2.30374
 21
19.2335
  0
LINE
  8
0
 10
2.30374
 20
19.2335
 11
2.22264
 21
19.1855
  0
LINE
  8
0
 10
2.22264
 20
19.1855
 11
2.13867
 21
19.1427
  0
LINE
  8
0
 10
2.13867
 20
19.1427
 11
2.0522
 21
19.1053
  0
LINE
  8
0
 10
2.0522
 20
19.1053
 11
1.96353
 21
19.0734
  0
LINE
  8
0
 10
1.96353
 20
19.0734
 11
1.87305
 21
19.0471
  0
LINE
  8
0
 10
1.87305
 20
19.0471
 11
1.78108
 21
19.0266
  0
LINE
  8
0
 10
1.78108
 20
19.0266
 11
1.688
 21
19.0118
  0
LINE
  8
0
 10
1.688
 20
19.0118
 11
1.59419
 21
19.0029
  0
LINE
  8
0
 10
1.59419
 20
19.0029
 11
1.5
 21
19
  0
LINE
  8
0
 10
1.5
 20
19
 11
0
 21
19
  0
LINE
  8
0
 10
0
 20
19
 11
0
 21
14.5
  0
LINE
  8
0
 10
0
 20
14.5
 11
3
 21
14.5
  0
LINE
  8
0
 10
3
 20
14.5
 11
3
 21
3
  0
LINE
  8
0
 10
3
 20
3
 11
14.5
 21
3
  0
LINE
  8
0
 10
14.5
 20
3
 11
14.5
 21
0
  0
LINE
  8
0
 10
14.5
 20
0
 11
26.5
 21
0
  0
LINE
  8
0
 10
26.5
 20
0
 11
26.5
 21
3
  0
LINE
  8
0
 10
24.4977
 20
41.6824
 11
23.9973
 21
41.7298
  0
LINE
  8
0
 10
23.9973
 20
41.7298
 11
23.501
 21
41.8084
  0
LINE
  8
0
 10
23.501
 20
41.8084
 11
23.0105
 21
41.918
  0
LINE
  8
0
 10
23.0105
 20
41.918
 11
22.5279
 21
42.0582
  0
LINE
  8
0
 10
22.5279
 20
42.0582
 11
22.055
 21
42.2285
  0
LINE
  8
0
 10
22.055
 20
42.2285
 11
21.5938
 21
42.4281
  0
LINE
  8
0
 10
21.5938
 20
42.4281
 11
21.146
 21
42.6562
  0
LINE
  8
0
 10
21.146
 20
42.6562
 11
20.7134
 21
42.912
  0
LINE
  8
0
 10
20.7134
 20
42.912
 11
20.2977
 21
43.1945
  0
LINE
  8
0
 10
20.2977
 20
43.1945
 11
19.9006
 21
43.5026
  0
LINE
  8
0
 10
19.9006
 20
43.5026
 11
19.5236
 21
43.8349
  0
LINE
  8
0
 10
19.5236
 20
43.8349
 11
19.1683
 21
44.1903
  0
LINE
  8
0
 10
19.1683
 20
44.1903
 11
18.8359
 21
44.5673
  0
LINE
  8
0
 10
18.8359
 20
44.5673
 11
18.5279
 21
44.9644
  0
LINE
  8
0
 10
18.5279
 20
44.9644
 11
18.2454
 21
45.3801
  0
LINE
  8
0
 10
18.2454
 20
45.3801
 11
17.9895
 21
45.8126
  0
LINE
  8
0
 10
17.9895
 20
45.8126
 11
17.7614
 21
46.2604
  0
LINE
  8
0
 10
17.7614
 20
46.2604
 11
17.5618
 21
46.7217
  0
LINE
  8
0
 10
17.5618
 20
46.7217
 11
17.3916
 21
47.1945
  0
LINE
  8
0
 10
17.3916
 20
47.1945
 11
17.2513
 21
47.6771
  0
LINE
  8
0
 10
17.2513
 20
47.6771
 11
17.1417
 21
48.1676
  0
LINE
  8
0
 10
17.1417
 20
48.1676
 11
17.0631
 21
48.664
  0
LINE
  8
0
 10
17.0631
 20
48.664
 11
17.0158
 21
49.1643
  0
LINE
  8
0
 10
17.0158
 20
49.1643
 11
17
 21
49.6667
  0
LINE
  8
0
 10
17
 20
49.6667
 11
17.0158
 21
50.169
  0
LINE
  8
0
 10
17.0158
 20
50.169
 11
17.0631
 21
50.6693
  0
LINE
  8
0
 10
17.0631
 20
50.6693
 11
17.1417
 21
51.1657
  0
LINE
  8
0
 10
17.1417
 20
51.1657
 11
17.2513
 21
51.6562
  0
LINE
  8
0
 10
17.2513
 20
51.6562
 11
17.3916
 21
52.1388
  0
LINE
  8
0
 10
17.3916
 20
52.1388
 11
17.5618
 21
52.6116
  0
LINE
  8
0
 10
17.5618
 20
52.6116
 11
17.7614
 21
53.0729
  0
LINE
  8
0
 10
17.7614
 20
53.0729
 11
17.9895
 21
53.5207
  0
LINE
  8
0
 10
17.9895
 20
53.5207
 11
18.2454
 21
53.9533
  0
LINE
  8
0
 10
18.2454
 20
53.9533
 11
18.5279
 21
54.3689
  0
LINE
  8
0
 10
18.5279
 20
54.3689
 11
18.8359
 21
54.766
  0
LINE
  8
0
 10
18.8359
 20
54.766
 11
19.1683
 21
55.143
  0
LINE
  8
0
 10
19.1683
 20
55.143
 11
19.5236
 21
55.4984
  0
LINE
  8
0
 10
19.5236
 20
55.4984
 11
19.9006
 21
55.8307
  0
LINE
  8
0
 10
19.9006
 20
55.8307
 11
20.2977
 21
56.1388
  0
LINE
  8
0
 10
20.2977
 20
56.1388
 11
20.7134
 21
56.4213
  0
LINE
  8
0
 10
20.7134
 20
56.4213
 11
21.146
 21
56.6771
  0
LINE
  8
0
 10
21.146
 20
56.6771
 11
21.5938
 21
56.9053
  0
LINE
  8
0
 10
21.5938
 20
56.9053
 11
22.055
 21
57.1049
  0
LINE
  8
0
 10
22.055
 20
57.1049
 11
22.5279
 21
57.2751
  0
LINE
  8
0
 10
22.5279
 20
57.2751
 11
23.0105
 21
57.4153
  0
LINE
  8
0
 10
23.0105
 20
57.4153
 11
23.501
 21
57.5249
  0
LINE
  8
0
 10
23.501
 20
57.5249
 11
23.9973
 21
57.6036
  0
LINE
  8
0
 10
23.9973
 20
57.6036
 11
24.4977
 21
57.6509
  0
LINE
  8
0
 10
24.4977
 20
57.6509
 11
25
 21
57.6667
  0
LINE
  8
0
 10
25
 20
57.6667
 11
25.5023
 21
57.6509
  0
LINE
  8
0
 10
25.5023
 20
57.6509
 11
26.0027
 21
57.6036
  0
LINE
  8
0
 10
26.0027
 20
57.6036
 11
26.4991
 21
57.5249
  0
LINE
  8
0
 10
26.4991
 20
57.5249
 11
26.9895
 21
57.4153
  0
LINE
  8
0
 10
26.9895
 20
57.4153
 11
27.4721
 21
57.2751
  0
LINE
  8
0
 10
27.4721
 20
57.2751
 11
27.945
 21
57.1049
  0
LINE
  8
0
 10
27.945
 20
57.1049
 11
28.4062
 21
56.9053
  0
LINE
  8
0
 10
28.4062
 20
56.9053
 11
28.854
 21
56.6771
  0
LINE
  8
0
 10
28.854
 20
56.6771
 11
29.2866
 21
56.4213
  0
LINE
  8
0
 10
29.2866
 20
56.4213
 11
29.7023
 21
56.1388
  0
LINE
  8
0
 10
29.7023
 20
56.1388
 11
30.0994
 21
55.8307
  0
LINE
  8
0
 10
30.0994
 20
55.8307
 11
30.4764
 21
55.4984
  0
LINE
  8
0
 10
30.4764
 20
55.4984
 11
30.8318
 21
55.143
  0
LINE
  8
0
 10
30.8318
 20
55.143
 11
31.1641
 21
54.766
  0
LINE
  8
0
 10
31.1641
 20
54.766
 11
31.4721
 21
54.3689
  0
LINE
  8
0
 10
31.4721
 20
54.3689
 11
31.7546
 21
53.9533
  0
LINE
  8
0
 10
31.7546
 20
53.9533
 11
32.0105
 21
53.5207
  0
LINE
  8
0
 10
32.0105
 20
53.5207
 11
32.2386
 21
53.0729
  0
LINE
  8
0
 10
32.2386
 20
53.0729
 11
32.4382
 21
52.6116
  0
LINE
  8
0
 10
32.4382
 20
52.6116
 11
32.6085
 21
52.1388
  0
LINE
  8
0
 10
32.6085
 20
52.1388
 11
32.7487
 21
51.6562
  0
LINE
  8
0
 10
32.7487
 20
51.6562
 11
32.8583
 21
51.1657
  0
LINE
  8
0
 10
32.8583
 20
51.1657
 11
32.9369
 21
50.6693
  0
LINE
  8
0
 10
32.9369
 20
50.6693
 11
32.9842
 21
50.169
  0
LINE
  8
0
 10
32.9842
 20
50.169
 11
33
 21
49.6667
  0
LINE
  8
0
 10
33
 20
49.6667
 11
32.9842
 21
49.1643
  0
LINE
  8
0
 10
32.9842
 20
49.1643
 11
32.9369
 21
48.664
  0
LINE
  8
0
 10
32.9369
 20
48.664
 11
32.8583
 21
48.1676
  0
LINE
  8
0
 10
32.8583
 20
48.1676
 11
32.7487
 21
47.6771
  0
LINE
  8
0
 10
32.7487
 20
47.6771
 11
32.6085
 21
47.1945
  0
LINE
  8
0
 10
32.6085
 20
47.1945
 11
32.4382
 21
46.7217
  0
LINE
  8
0
 10
32.4382
 20
46.7217
 11
32.2386
 21
46.2604
  0
LINE
  8
0
 10
32.2386
 20
46.2604
 11
32.0105
 21
45.8126
  0
LINE
  8
0
 10
32.0105
 20
45.8126
 11
31.7546
 21
45.3801
  0
LINE
  8
0
 10
31.7546
 20
45.3801
 11
31.4721
 21
44.9644
  0
LINE
  8
0
 10
31.4721
 20
44.9644
 11
31.1641
 21
44.5673
  0
LINE
  8
0
 10
31.1641
 20
44.5673
 11
30.8318
 21
44.1903
  0
LINE
  8
0
 10
30.8318
 20
44.1903
 11
30.4764
 21
43.8349
  0
LINE
  8
0
 10
30.4764
 20
43.8349
 11
30.0994
 21
43.5026
  0
LINE
  8
0
 10
30.0994
 20
43.5026
 11
29.7023
 21
43.1945
  0
LINE
  8
0
 10
29.7023
 20
43.1945
 11
29.2866
 21
42.912
  0
LINE
  8
0
 10
29.2866
 20
42.912
 11
28.854
 21
42.6562
  0
LINE
  8
0
 10
28.854
 20
42.6562
 11
28.4062
 21
42.4281
  0
LINE
  8
0
 10
28.4062
 20
42.4281
 11
27.945
 21
42.2285
  0
LINE
  8
0
 10
27.945
 20
42.2285
 11
27.4721
 21
42.0582
  0
LINE
  8
0
 10
27.4721
 20
42.0582
 11
26.9895
 21
41.918
  0
LINE
  8
0
 10
26.9895
 20
41.918
 11
26.4991
 21
41.8084
  0
LINE
  8
0
 10
26.4991
 20
41.8084
 11
26.0027
 21
41.7298
  0
LINE
  8
0
 10
26.0027
 20
41.7298
 11
25.5023
 21
41.6824
  0
LINE
  8
0
 10
25.5023
 20
41.6824
 11
25
 21
41.6667
  0
LINE
  8
0
 10
25
 20
41.6667
 11
24.4977
 21
41.6824
  0
LINE
  8
0
 10
50.4977
 20
41.6824
 11
49.9973
 21
41.7298
  0
LINE
  8
0
 10
49.9973
 20
41.7298
 11
49.5009
 21
41.8084
  0
LINE
  8
0
 10
49.5009
 20
41.8084
 11
49.0105
 21
41.918
  0
LINE
  8
0
 10
49.0105
 20
41.918
 11
48.5279
 21
42.0582
  0
LINE
  8
0
 10
48.5279
 20
42.0582
 11
48.055
 21
42.2285
  0
LINE
  8
0
 10
48.055
 20
42.2285
 11
47.5938
 21
42.4281
  0
LINE
  8
0
 10
47.5938
 20
42.4281
 11
47.146
 21
42.6562
  0
LINE
  8
0
 10
47.146
 20
42.6562
 11
46.7134
 21
42.912
  0
LINE
  8
0
 10
46.7134
 20
42.912
 11
46.2977
 21
43.1945
  0
LINE
  8
0
 10
46.2977
 20
43.1945
 11
45.9006
 21
43.5026
  0
LINE
  8
0
 10
45.9006
 20
43.5026
 11
45.5236
 21
43.8349
  0
LINE
  8
0
 10
45.5236
 20
43.8349
 11
45.1682
 21
44.1903
  0
LINE
  8
0
 10
45.1682
 20
44.1903
 11
44.8359
 21
44.5673
  0
LINE
  8
0
 10
44.8359
 20
44.5673
 11
44.5279
 21
44.9644
  0
LINE
  8
0
 10
44.5279
 20
44.9644
 11
44.2454
 21
45.3801
  0
LINE
  8
0
 10
44.2454
 20
45.3801
 11
43.9895
 21
45.8126
  0
LINE
  8
0
 10
43.9895
 20
45.8126
 11
43.7614
 21
46.2604
  0
LINE
  8
0
 10
43.7614
 20
46.2604
 11
43.5618
 21
46.7217
  0
LINE
  8
0
 10
43.5618
 20
46.7217
 11
43.3915
 21
47.1945
  0
LINE
  8
0
 10
43.3915
 20
47.1945
 11
43.2513
 21
47.6771
  0
LINE
  8
0
 10
43.2513
 20
47.6771
 11
43.1417
 21
48.1676
  0
LINE
  8
0
 10
43.1417
 20
48.1676
 11
43.0631
 21
48.664
  0
LINE
  8
0
 10
43.0631
 20
48.664
 11
43.0158
 21
49.1643
  0
LINE
  8
0
 10
43.0158
 20
49.1643
 11
43
 21
49.6667
  0
LINE
  8
0
 10
43
 20
49.6667
 11
43.0158
 21
50.169
  0
LINE
  8
0
 10
43.0158
 20
50.169
 11
43.0631
 21
50.6693
  0
LINE
  8
0
 10
43.0631
 20
50.6693
 11
43.1417
 21
51.1657
  0
LINE
  8
0
 10
43.1417
 20
51.1657
 11
43.2513
 21
51.6562
  0
LINE
  8
0
 10
43.2513
 20
51.6562
 11
43.3915
 21
52.1388
  0
LINE
  8
0
 10
43.3915
 20
52.1388
 11
43.5618
 21
52.6116
  0
LINE
  8
0
 10
43.5618
 20
52.6116
 11
43.7614
 21
53.0729
  0
LINE
  8
0
 10
43.7614
 20
53.0729
 11
43.9895
 21
53.5207
  0
LINE
  8
0
 10
43.9895
 20
53.5207
 11
44.2454
 21
53.9533
  0
LINE
  8
0
 10
44.2454
 20
53.9533
 11
44.5279
 21
54.3689
  0
LINE
  8
0
 10
44.5279
 20
54.3689
 11
44.8359
 21
54.766
  0
LINE
  8
0
 10
44.8359
 20
54.766
 11
45.1682
 21
55.143
  0
LINE
  8
0
 10
45.1682
 20
55.143
 11
45.5236
 21
55.4984
  0
LINE
  8
0
 10
45.5236
 20
55.4984
 11
45.9006
 21
55.8307
  0
LINE
  8
0
 10
45.9006
 20
55.8307
 11
46.2977
 21
56.1388
  0
LINE
  8
0
 10
46.2977
 20
56.1388
 11
46.7134
 21
56.4213
  0
LINE
  8
0
 10
46.7134
 20
56.4213
 11
47.146
 21
56.6771
  0
LINE
  8
0
 10
47.146
 20
56.6771
 11
47.5938
 21
56.9053
  0
LINE
  8
0
 10
47.5938
 20
56.9053
 11
48.055
 21
57.1049
  0
LINE
  8
0
 10
48.055
 20
57.1049
 11
48.5279
 21
57.2751
  0
LINE
  8
0
 10
48.5279
 20
57.2751
 11
49.0105
 21
57.4153
  0
LINE
  8
0
 10
49.0105
 20
57.4153
 11
49.5009
 21
57.5249
  0
LINE
  8
0
 10
49.5009
 20
57.5249
 11
49.9973
 21
57.6036
  0
LINE
  8
0
 10
49.9973
 20
57.6036
 11
50.4977
 21
57.6509
  0
LINE
  8
0
 10
50.4977
 20
57.6509
 11
51
 21
57.6667
  0
LINE
  8
0
 10
51
 20
57.6667
 11
51.5023
 21
57.6509
  0
LINE
  8
0
 10
51.5023
 20
57.6509
 11
52.0027
 21
57.6036
  0
LINE
  8
0
 10
52.0027
 20
57.6036
 11
52.499
 21
57.5249
  0
LINE
  8
0
 10
52.499
 20
57.5249
 11
52.9895
 21
57.4153
  0
LINE
  8
0
 10
52.9895
 20
57.4153
 11
53.4721
 21
57.2751
  0
LINE
  8
0
 10
53.4721
 20
57.2751
 11
53.945
 21
57.1049
  0
LINE
  8
0
 10
53.945
 20
57.1049
 11
54.4062
 21
56.9053
  0
LINE
  8
0
 10
54.4062
 20
56.9053
 11
54.854
 21
56.6771
  0
LINE
  8
0
 10
54.854
 20
56.6771
 11
55.2866
 21
56.4213
  0
LINE
  8
0
 10
55.2866
 20
56.4213
 11
55.7023
 21
56.1388
  0
LINE
  8
0
 10
55.7023
 20
56.1388
 11
56.0994
 21
55.8307
  0
LINE
  8
0
 10
56.0994
 20
55.8307
 11
56.4764
 21
55.4984
  0
LINE
  8
0
 10
56.4764
 20
55.4984
 11
56.8317
 21
55.143
  0
LINE
  8
0
 10
56.8317
 20
55.143
 11
57.1641
 21
54.766
  0
LINE
  8
0
 10
57.1641
 20
54.766
 11
57.4721
 21
54.3689
  0
LINE
  8
0
 10
57.4721
 20
54.3689
 11
57.7546
 21
53.9533
  0
LINE
  8
0
 10
57.7546
 20
53.9533
 11
58.0105
 21
53.5207
  0
LINE
  8
0
 10
58.0105
 20
53.5207
 11
58.2386
 21
53.0729
  0
LINE
  8
0
 10
58.2386
 20
53.0729
 11
58.4382
 21
52.6116
  0
LINE
  8
0
 10
58.4382
 20
52.6116
 11
58.6084
 21
52.1388
  0
LINE
  8
0
 10
58.6084
 20
52.1388
 11
58.7487
 21
51.6562
  0
LINE
  8
0
 10
58.7487
 20
51.6562
 11
58.8583
 21
51.1657
  0
LINE
  8
0
 10
58.8583
 20
51.1657
 11
58.9369
 21
50.6693
  0
LINE
  8
0
 10
58.9369
 20
50.6693
 11
58.9842
 21
50.169
  0
LINE
  8
0
 10
58.9842
 20
50.169
 11
59
 21
49.6667
  0
LINE
  8
0
 10
59
 20
49.6667
 11
58.9842
 21
49.1643
  0
LINE
  8
0
 10
58.9842
 20
49.1643
 11
58.9369
 21
48.664
  0
LINE
  8
0
 10
58.9369
 20
48.664
 11
58.8583
 21
48.1676
  0
LINE
  8
0
 10
58.8583
 20
48.1676
 11
58.7487
 21
47.6771
  0
LINE
  8
0
 10
58.7487
 20
47.6771
 11
58.6084
 21
47.1945
  0
LINE
  8
0
 10
58.6084
 20
47.1945
 11
58.4382
 21
46.7217
  0
LINE
  8
0
 10
58.4382
 20
46.7217
 11
58.2386
 21
46.2604
  0
LINE
  8
0
 10
58.2386
 20
46.2604
 11
58.0105
 21
45.8126
  0
LINE
  8
0
 10
58.0105
 20
45.8126
 11
57.7546
 21
45.3801
  0
LINE
  8
0
 10
57.7546
 20
45.3801
 11
57.4721
 21
44.9644
  0
LINE
  8
0
 10
57.4721
 20
44.9644
 11
57.1641
 21
44.5673
  0
LINE
  8
0
 10
57.1641
 20
44.5673
 11
56.8317
 21
44.1903
  0
LINE
  8
0
 10
56.8317
 20
44.1903
 11
56.4764
 21
43.8349
  0
LINE
  8
0
 10
56.4764
 20
43.8349
 11
56.0994
 21
43.5026
  0
LINE
  8
0
 10
56.0994
 20
43.5026
 11
55.7023
 21
43.1945
  0
LINE
  8
0
 10
55.7023
 20
43.1945
 11
55.2866
 21
42.912
  0
LINE
  8
0
 10
55.2866
 20
42.912
 11
54.854
 21
42.6562
  0
LINE
  8
0
 10
54.854
 20
42.6562
 11
54.4062
 21
42.4281
  0
LINE
  8
0
 10
54.4062
 20
42.4281
 11
53.945
 21
42.2285
  0
LINE
  8
0
 10
53.945
 20
42.2285
 11
53.4721
 21
42.0582
  0
LINE
  8
0
 10
53.4721
 20
42.0582
 11
52.9895
 21
41.918
  0
LINE
  8
0
 10
52.9895
 20
41.918
 11
52.499
 21
41.8084
  0
LINE
  8
0
 10
52.499
 20
41.8084
 11
52.0027
 21
41.7298
  0
LINE
  8
0
 10
52.0027
 20
41.7298
 11
51.5023
 21
41.6824
  0
LINE
  8
0
 10
51.5023
 20
41.6824
 11
51
 21
41.6667
  0
LINE
  8
0
 10
51
 20
41.6667
 11
50.4977
 21
41.6824
  0
LINE
  8
0
 10
31.9058
 20
19.8363
 11
31.812
 21
19.8452
  0
LINE
  8
0
 10
31.812
 20
19.8452
 11
31.7189
 21
19.8599
  0
LINE
  8
0
 10
31.7189
 20
19.8599
 11
31.627
 21
19.8804
  0
LINE
  8
0
 10
31.627
 20
19.8804
 11
31.5365
 21
19.9067
  0
LINE
  8
0
 10
31.5365
 20
19.9067
 11
31.4478
 21
19.9387
  0
LINE
  8
0
 10
31.4478
 20
19.9387
 11
31.3613
 21
19.9761
  0
LINE
  8
0
 10
31.3613
 20
19.9761
 11
31.2774
 21
20.0189
  0
LINE
  8
0
 10
31.2774
 20
20.0189
 11
31.1963
 21
20.0668
  0
LINE
  8
0
 10
31.1963
 20
20.0668
 11
31.1183
 21
20.1198
  0
LINE
  8
0
 10
31.1183
 20
20.1198
 11
31.0439
 21
20.1776
  0
LINE
  8
0
 10
31.0439
 20
20.1776
 11
30.9732
 21
20.2399
  0
LINE
  8
0
 10
30.9732
 20
20.2399
 11
30.9065
 21
20.3065
  0
LINE
  8
0
 10
30.9065
 20
20.3065
 11
30.8442
 21
20.3772
  0
LINE
  8
0
 10
30.8442
 20
20.3772
 11
30.7865
 21
20.4516
  0
LINE
  8
0
 10
30.7865
 20
20.4516
 11
30.7335
 21
20.5296
  0
LINE
  8
0
 10
30.7335
 20
20.5296
 11
30.6855
 21
20.6107
  0
LINE
  8
0
 10
30.6855
 20
20.6107
 11
30.6427
 21
20.6947
  0
LINE
  8
0
 10
30.6427
 20
20.6947
 11
30.6053
 21
20.7811
  0
LINE
  8
0
 10
30.6053
 20
20.7811
 11
30.5734
 21
20.8698
  0
LINE
  8
0
 10
30.5734
 20
20.8698
 11
30.5471
 21
20.9603
  0
LINE
  8
0
 10
30.5471
 20
20.9603
 11
30.5266
 21
21.0523
  0
LINE
  8
0
 10
30.5266
 20
21.0523
 11
30.5118
 21
21.1453
  0
LINE
  8
0
 10
30.5118
 20
21.1453
 11
30.5029
 21
21.2391
  0
LINE
  8
0
 10
30.5029
 20
21.2391
 11
30.5
 21
21.3333
  0
LINE
  8
0
 10
30.5
 20
21.3333
 11
30.5029
 21
21.4275
  0
LINE
  8
0
 10
30.5029
 20
21.4275
 11
30.5118
 21
21.5213
  0
LINE
  8
0
 10
30.5118
 20
21.5213
 11
30.5266
 21
21.6144
  0
LINE
  8
0
 10
30.5266
 20
21.6144
 11
30.5471
 21
21.7064
  0
LINE
  8
0
 10
30.5471
 20
21.7064
 11
30.5734
 21
21.7968
  0
LINE
  8
0
 10
30.5734
 20
21.7968
 11
30.6053
 21
21.8855
  0
LINE
  8
0
 10
30.6053
 20
21.8855
 11
30.6427
 21
21.972
  0
LINE
  8
0
 10
30.6427
 20
21.972
 11
30.6855
 21
22.056
  0
LINE
  8
0
 10
30.6855
 20
22.056
 11
30.7335
 21
22.1371
  0
LINE
  8
0
 10
30.7335
 20
22.1371
 11
30.7865
 21
22.215
  0
LINE
  8
0
 10
30.7865
 20
22.215
 11
30.8442
 21
22.2895
  0
LINE
  8
0
 10
30.8442
 20
22.2895
 11
30.9065
 21
22.3602
  0
LINE
  8
0
 10
30.9065
 20
22.3602
 11
30.9732
 21
22.4268
  0
LINE
  8
0
 10
30.9732
 20
22.4268
 11
31.0439
 21
22.4891
  0
LINE
  8
0
 10
31.0439
 20
22.4891
 11
31.1183
 21
22.5468
  0
LINE
  8
0
 10
31.1183
 20
22.5468
 11
31.1963
 21
22.5998
  0
LINE
  8
0
 10
31.1963
 20
22.5998
 11
31.2774
 21
22.6478
  0
LINE
  8
0
 10
31.2774
 20
22.6478
 11
31.3613
 21
22.6906
  0
LINE
  8
0
 10
31.3613
 20
22.6906
 11
31.4478
 21
22.728
  0
LINE
  8
0
 10
31.4478
 20
22.728
 11
55.4478
 21
31.728
  0
LINE
  8
0
 10
55.4478
 20
31.728
 11
55.5365
 21
31.7599
  0
LINE
  8
0
 10
55.5365
 20
31.7599
 11
55.627
 21
31.7862
  0
LINE
  8
0
 10
55.627
 20
31.7862
 11
55.7189
 21
31.8068
  0
LINE
  8
0
 10
55.7189
 20
31.8068
 11
55.812
 21
31.8215
  0
LINE
  8
0
 10
55.812
 20
31.8215
 11
55.9058
 21
31.8304
  0
LINE
  8
0
 10
55.9058
 20
31.8304
 11
56
 21
31.8333
  0
LINE
  8
0
 10
56
 20
31.8333
 11
56.0942
 21
31.8304
  0
LINE
  8
0
 10
56.0942
 20
31.8304
 11
56.188
 21
31.8215
  0
LINE
  8
0
 10
56.188
 20
31.8215
 11
56.2811
 21
31.8068
  0
LINE
  8
0
 10
56.2811
 20
31.8068
 11
56.373
 21
31.7862
  0
LINE
  8
0
 10
56.373
 20
31.7862
 11
56.4635
 21
31.7599
  0
LINE
  8
0
 10
56.4635
 20
31.7599
 11
56.5522
 21
31.728
  0
LINE
  8
0
 10
56.5522
 20
31.728
 11
56.6387
 21
31.6906
  0
LINE
  8
0
 10
56.6387
 20
31.6906
 11
56.7226
 21
31.6478
  0
LINE
  8
0
 10
56.7226
 20
31.6478
 11
56.8037
 21
31.5998
  0
LINE
  8
0
 10
56.8037
 20
31.5998
 11
56.8817
 21
31.5468
  0
LINE
  8
0
 10
56.8817
 20
31.5468
 11
56.9561
 21
31.4891
  0
LINE
  8
0
 10
56.9561
 20
31.4891
 11
57.0268
 21
31.4268
  0
LINE
  8
0
 10
57.0268
 20
31.4268
 11
57.0934
 21
31.3602
  0
LINE
  8
0
 10
57.0934
 20
31.3602
 11
57.1558
 21
31.2895
  0
LINE
  8
0
 10
57.1558
 20
31.2895
 11
57.2135
 21
31.215
  0
LINE
  8
0
 10
57.2135
 20
31.215
 11
57.2665
 21
31.1371
  0
LINE
  8
0
 10
57.2665
 20
31.1371
 11
57.3145
 21
31.056
  0
LINE
  8
0
 10
57.3145
 20
31.056
 11
57.3572
 21
30.972
  0
LINE
  8
0
 10
57.3572
 20
30.972
 11
57.3947
 21
30.8855
  0
LINE
  8
0
 10
57.3947
 20
30.8855
 11
57.4266
 21
30.7968
  0
LINE
  8
0
 10
57.4266
 20
30.7968
 11
57.4529
 21
30.7064
  0
LINE
  8
0
 10
57.4529
 20
30.7064
 11
57.4734
 21
30.6144
  0
LINE
  8
0
 10
57.4734
 20
30.6144
 11
57.4882
 21
30.5213
  0
LINE
  8
0
 10
57.4882
 20
30.5213
 11
57.497
 21
30.4275
  0
LINE
  8
0
 10
57.497
 20
30.4275
 11
57.5
 21
30.3333
  0
LINE
  8
0
 10
57.5
 20
30.3333
 11
57.497
 21
30.2391
  0
LINE
  8
0
 10
57.497
 20
30.2391
 11
57.4882
 21
30.1453
  0
LINE
  8
0
 10
57.4882
 20
30.1453
 11
57.4734
 21
30.0523
  0
LINE
  8
0
 10
57.4734
 20
30.0523
 11
57.4529
 21
29.9603
  0
LINE
  8
0
 10
57.4529
 20
29.9603
 11
57.4266
 21
29.8698
  0
LINE
  8
0
 10
57.4266
 20
29.8698
 11
57.3947
 21
29.7811
  0
LINE
  8
0
 10
57.3947
 20
29.7811
 11
57.3572
 21
29.6947
  0
LINE
  8
0
 10
57.3572
 20
29.6947
 11
57.3145
 21
29.6107
  0
LINE
  8
0
 10
57.3145
 20
29.6107
 11
57.2665
 21
29.5296
  0
LINE
  8
0
 10
57.2665
 20
29.5296
 11
57.2135
 21
29.4516
  0
LINE
  8
0
 10
57.2135
 20
29.4516
 11
57.1558
 21
29.3772
  0
LINE
  8
0
 10
57.1558
 20
29.3772
 11
57.0934
 21
29.3065
  0
LINE
  8
0
 10
57.0934
 20
29.3065
 11
57.0268
 21
29.2399
  0
LINE
  8
0
 10
57.0268
 20
29.2399
 11
56.9561
 21
29.1776
  0
LINE
  8
0
 10
56.9561
 20
29.1776
 11
56.8817
 21
29.1198
  0
LINE
  8
0
 10
56.8817
 20
29.1198
 11
56.8037
 21
29.0668
  0
LINE
  8
0
 10
56.8037
 20
29.0668
 11
56.7226
 21
29.0189
  0
LINE
  8
0
 10
56.7226
 20
29.0189
 11
56.6387
 21
28.9761
  0
LINE
  8
0
 10
56.6387
 20
28.9761
 11
56.5522
 21
28.9387
  0
LINE
  8
0
 10
56.5522
 20
28.9387
 11
32.5522
 21
19.9387
  0
LINE
  8
0
 10
32.5522
 20
19.9387
 11
32.4635
 21
19.9067
  0
LINE
  8
0
 10
32.4635
 20
19.9067
 11
32.373
 21
19.8804
  0
LINE
  8
0
 10
32.373
 20
19.8804
 11
32.2811
 21
19.8599
  0
LINE
  8
0
 10
32.2811
 20
19.8599
 11
32.188
 21
19.8452
  0
LINE
  8
0
 10
32.188
 20
19.8452
 11
32.0942
 21
19.8363
  0
LINE
  8
0
 10
32.0942
 20
19.8363
 11
32
 21
19.8333
  0
LINE
  8
0
 10
32
 20
19.8333
 11
31.9058
 21
19.8363
  0
LINE
  8
0
 10
105.333
 20
3
 11
130
 21
3
  0
LINE
  8
0
 10
130
 20
3
 11
130
 21
0
  0
LINE
  8
0
 10
130
 20
0
 11
142
 21
0
  0
LINE
  8
0
 10
142
 20
0
 11
142
 21
3
  0
LINE
  8
0
 10
142
 20
3
 11
166.667
 21
3
  0
LINE
  8
0
 10
166.667
 20
3
 11
166.667
 21
0
  0
LINE
  8
0
 10
166.667
 20
0
 11
178.667
 21
0
  0
LINE
  8
0
 10
178.667
 20
0
 11
178.667
 21
3
  0
LINE
  8
0
 10
178.667
 20
3
 11
186.5
 21
3
  0
LINE
  8
0
 10
186.5
 20
3
 11
186.5
 21
6
  0
LINE
  8
0
 10
186.5
 20
6
 11
185.25
 21
6
  0
LINE
  8
0
 10
185.25
 20
6
 11
185.25
 21
8.5
  0
LINE
  8
0
 10
185.25
 20
8.5
 11
186.5
 21
8.5
  0
LINE
  8
0
 10
186.5
 20
8.5
 11
186.5
 21
11
  0
LINE
  8
0
 10
186.5
 20
11
 11
189.5
 21
11
  0
LINE
  8
0
 10
189.5
 20
11
 11
189.5
 21
8.5
  0
LINE
  8
0
 10
189.5
 20
8.5
 11
190.75
 21
8.5
  0
LINE
  8
0
 10
190.75
 20
8.5
 11
190.75
 21
6
  0
LINE
  8
0
 10
190.75
 20
6
 11
189.5
 21
6
  0
LINE
  8
0
 10
189.5
 20
6
 11
189.5
 21
3
  0
LINE
  8
0
 10
189.5
 20
3
 11
194
 21
3
  0
LINE
  8
0
 10
194
 20
3
 11
194
 21
14.5
  0
LINE
  8
0
 10
194
 20
14.5
 11
191
 21
14.5
  0
LINE
  8
0
 10
191
 20
14.5
 11
191
 21
19
  0
LINE
  8
0
 10
191
 20
19
 11
188
 21
19
  0
LINE
  8
0
 10
188
 20
19
 11
188
 21
17.75
  0
LINE
  8
0
 10
188
 20
17.75
 11
185.5
 21
17.75
  0
LINE
  8
0
 10
185.5
 20
17.75
 11
185.5
 21
19
  0
LINE
  8
0
 10
185.5
 20
19
 11
183
 21
19
  0
LINE
  8
0
 10
183
 20
19
 11
183
 21
22
  0
LINE
  8
0
 10
183
 20
22
 11
185.5
 21
22
  0
LINE
  8
0
 10
185.5
 20
22
 11
185.5
 21
23.25
  0
LINE
  8
0
 10
185.5
 20
23.25
 11
188
 21
23.25
  0
LINE
  8
0
 10
188
 20
23.25
 11
188
 21
22
  0
LINE
  8
0
 10
188
 20
22
 11
191
 21
22
  0
LINE
  8
0
 10
191
 20
22
 11
191
 21
26.5
  0
LINE
  8
0
 10
191
 20
26.5
 11
194
 21
26.5
  0
LINE
  8
0
 10
194
 20
26.5
 11
194
 21
49.5
  0
LINE
  8
0
 10
194
 20
49.5
 11
191
 21
49.5
  0
LINE
  8
0
 10
191
 20
49.5
 11
191
 21
54
  0
LINE
  8
0
 10
191
 20
54
 11
188
 21
54
  0
LINE
  8
0
 10
188
 20
54
 11
188
 21
52.75
  0
LINE
  8
0
 10
188
 20
52.75
 11
185.5
 21
52.75
  0
LINE
  8
0
 10
185.5
 20
52.75
 11
185.5
 21
54
  0
LINE
  8
0
 10
185.5
 20
54
 11
183
 21
54
  0
LINE
  8
0
 10
183
 20
54
 11
183
 21
57
  0
LINE
  8
0
 10
183
 20
57
 11
185.5
 21
57
  0
LINE
  8
0
 10
185.5
 20
57
 11
185.5
 21
58.25
  0
LINE
  8
0
 10
185.5
 20
58.25
 11
188
 21
58.25
  0
LINE
  8
0
 10
188
 20
58.25
 11
188
 21
57
  0
LINE
  8
0
 10
188
 20
57
 11
191
 21
57
  0
LINE
  8
0
 10
191
 20
57
 11
191
 21
61.5
  0
LINE
  8
0
 10
191
 20
61.5
 11
194
 21
61.5
  0
LINE
  8
0
 10
194
 20
61.5
 11
194
 21
73
  0
LINE
  8
0
 10
194
 20
73
 11
189.5
 21
73
  0
LINE
  8
0
 10
189.5
 20
73
 11
189.5
 21
70
  0
LINE
  8
0
 10
189.5
 20
70
 11
190.75
 21
70
  0
LINE
  8
0
 10
190.75
 20
70
 11
190.75
 21
67.5
  0
LINE
  8
0
 10
190.75
 20
67.5
 11
189.5
 21
67.5
  0
LINE
  8
0
 10
189.5
 20
67.5
 11
189.5
 21
65
  0
LINE
  8
0
 10
189.5
 20
65
 11
186.5
 21
65
  0
LINE
  8
0
 10
186.5
 20
65
 11
186.5
 21
67.5
  0
LINE
  8
0
 10
186.5
 20
67.5
 11
185.25
 21
67.5
  0
LINE
  8
0
 10
185.25
 20
67.5
 11
185.25
 21
70
  0
LINE
  8
0
 10
185.25
 20
70
 11
186.5
 21
70
  0
LINE
  8
0
 10
186.5
 20
70
 11
186.5
 21
73
  0
LINE
  8
0
 10
186.5
 20
73
 11
178.667
 21
73
  0
LINE
  8
0
 10
178.667
 20
73
 11
178.667
 21
76
  0
LINE
  8
0
 10
178.667
 20
76
 11
166.667
 21
76
  0
LINE
  8
0
 10
166.667
 20
76
 11
166.667
 21
73
  0
LINE
  8
0
 10
166.667
 20
73
 11
142
 21
73
  0
LINE
  8
0
 10
142
 20
73
 11
142
 21
76
  0
LINE
  8
0
 10
142
 20
76
 11
130
 21
76
  0
LINE
  8
0
 10
130
 20
76
 11
130
 21
73
  0
LINE
  8
0
 10
130
 20
73
 11
105.333
 21
73
  0
LINE
  8
0
 10
105.333
 20
73
 11
105.333
 21
76
  0
LINE
  8
0
 10
105.333
 20
76
 11
93.3333
 21
76
  0
LINE
  8
0
 10
93.3333
 20
76
 11
93.3333
 21
73
  0
LINE
  8
0
 10
93.3333
 20
73
 11
85.5
 21
73
  0
LINE
  8
0
 10
85.5
 20
73
 11
85.5
 21
70
  0
LINE
  8
0
 10
85.5
 20
70
 11
86.75
 21
70
  0
LINE
  8
0
 10
86.75
 20
70
 11
86.75
 21
67.5
  0
LINE
  8
0
 10
86.75
 20
67.5
 11
85.5
 21
67.5
  0
LINE
  8
0
 10
85.5
 20
67.5
 11
85.5
 21
65
  0
LINE
  8
0
 10
85.5
 20
65
 11
82.5
 21
65
  0
LINE
  8
0
 10
82.5
 20
65
 11
82.5
 21
67.5
  0
LINE
  8
0
 10
82.5
 20
67.5
 11
81.25
 21
67.5
  0
LINE
  8
0
 10
81.25
 20
67.5
 11
81.25
 21
70
  0
LINE
  8
0
 10
81.25
 20
70
 11
82.5
 21
70
  0
LINE
  8
0
 10
82.5
 20
70
 11
82.5
 21
73
  0
LINE
  8
0
 10
82.5
 20
73
 11
78
 21
73
  0
LINE
  8
0
 10
78
 20
73
 11
78
 21
61.5
  0
LINE
  8
0
 10
78
 20
61.5
 11
81
 21
61.5
  0
LINE
  8
0
 10
81
 20
61.5
 11
81
 21
57
  0
LINE
  8
0
 10
81
 20
57
 11
84
 21
57
  0
LINE
  8
0
 10
84
 20
57
 11
84
 21
58.25
  0
LINE
  8
0
 10
84
 20
58.25
 11
86.5
 21
58.25
  0
LINE
  8
0
 10
86.5
 20
58.25
 11
86.5
 21
57
  0
LINE
  8
0
 10
86.5
 20
57
 11
89
 21
57
  0
LINE
  8
0
 10
89
 20
57
 11
89
 21
54
  0
LINE
  8
0
 10
89
 20
54
 11
86.5
 21
54
  0
LINE
  8
0
 10
86.5
 20
54
 11
86.5
 21
52.75
  0
LINE
  8
0
 10
86.5
 20
52.75
 11
84
 21
52.75
  0
LINE
  8
0
 10
84
 20
52.75
 11
84
 21
54
  0
LINE
  8
0
 10
84
 20
54
 11
81
 21
54
  0
LINE
  8
0
 10
81
 20
54
 11
81
 21
49.5
  0
LINE
  8
0
 10
81
 20
49.5
 11
78
 21
49.5
  0
LINE
  8
0
 10
78
 20
49.5
 11
78
 21
26.5
  0
LINE
  8
0
 10
78
 20
26.5
 11
81
 21
26.5
  0
LINE
  8
0
 10
81
 20
26.5
 11
81
 21
22
  0
LINE
  8
0
 10
81
 20
22
 11
84
 21
22
  0
LINE
  8
0
 10
84
 20
22
 11
84
 21
23.25
  0
LINE
  8
0
 10
84
 20
23.25
 11
86.5
 21
23.25
  0
LINE
  8
0
 10
86.5
 20
23.25
 11
86.5
 21
22
  0
LINE
  8
0
 10
86.5
 20
22
 11
89
 21
22
  0
LINE
  8
0
 10
89
 20
22
 11
89
 21
19
  0
LINE
  8
0
 10
89
 20
19
 11
86.5
 21
19
  0
LINE
  8
0
 10
86.5
 20
19
 11
86.5
 21
17.75
  0
LINE
  8
0
 10
86.5
 20
17.75
 11
84
 21
17.75
  0
LINE
  8
0
 10
84
 20
17.75
 11
84
 21
19
  0
LINE
  8
0
 10
84
 20
19
 11
81
 21
19
  0
LINE
  8
0
 10
81
 20
19
 11
81
 21
14.5
  0
LINE
  8
0
 10
81
 20
14.5
 11
78
 21
14.5
  0
LINE
  8
0
 10
78
 20
14.5
 11
78
 21
3
  0
LINE
  8
0
 10
78
 20
3
 11
82.5
 21
3
  0
LINE
  8
0
 10
82.5
 20
3
 11
82.5
 21
6
  0
LINE
  8
0
 10
82.5
 20
6
 11
81.25
 21
6
  0
LINE
  8
0
 10
81.25
 20
6
 11
81.25
 21
8.5
  0
LINE
  8
0
 10
81.25
 20
8.5
 11
82.5
 21
8.5
  0
LINE
  8
0
 10
82.5
 20
8.5
 11
82.5
 21
11
  0
LINE
  8
0
 10
82.5
 20
11
 11
85.5
 21
11
  0
LINE
  8
0
 10
85.5
 20
11
 11
85.5
 21
8.5
  0
LINE
  8
0
 10
85.5
 20
8.5
 11
86.75
 21
8.5
  0
LINE
  8
0
 10
86.75
 20
8.5
 11
86.75
 21
6
  0
LINE
  8
0
 10
86.75
 20
6
 11
85.5
 21
6
  0
LINE
  8
0
 10
85.5
 20
6
 11
85.5
 21
3
  0
LINE
  8
0
 10
85.5
 20
3
 11
93.3333
 21
3
  0
LINE
  8
0
 10
93.3333
 20
3
 11
93.3333
 21
0
  0
LINE
  8
0
 10
93.3333
 20
0
 11
105.333
 21
0
  0
LINE
  8
0
 10
105.333
 20
0
 11
105.333
 21
3
  0
LINE
  8
0
 10
127
 20
40
 11
127
 21
43
  0
LINE
  8
0
 10
127
 20
43
 11
139
 21
43
  0
LINE
  8
0
 10
139
 20
43
 11
139
 21
40
  0
LINE
  8
0
 10
139
 20
40
 11
127
 21
40
  0
LINE
  8
0
 10
164
 20
40
 11
164
 21
43
  0
LINE
  8
0
 10
164
 20
43
 11
176
 21
43
  0
LINE
  8
0
 10
176
 20
43
 11
176
 21
40
  0
LINE
  8
0
 10
176
 20
40
 11
164
 21
40
  0
LINE
  8
0
 10
117.606
 20
21.3029
 11
117.512
 21
21.3118
  0
LINE
  8
0
 10
117.512
 20
21.3118
 11
117.419
 21
21.3266
  0
LINE
  8
0
 10
117.419
 20
21.3266
 11
117.327
 21
21.3471
  0
LINE
  8
0
 10
117.327
 20
21.3471
 11
117.236
 21
21.3734
  0
LINE
  8
0
 10
117.236
 20
21.3734
 11
117.148
 21
21.4053
  0
LINE
  8
0
 10
117.148
 20
21.4053
 11
117.061
 21
21.4427
  0
LINE
  8
0
 10
117.061
 20
21.4427
 11
116.977
 21
21.4855
  0
LINE
  8
0
 10
116.977
 20
21.4855
 11
116.896
 21
21.5335
  0
LINE
  8
0
 10
116.896
 20
21.5335
 11
116.818
 21
21.5865
  0
LINE
  8
0
 10
116.818
 20
21.5865
 11
116.744
 21
21.6442
  0
LINE
  8
0
 10
116.744
 20
21.6442
 11
116.673
 21
21.7065
  0
LINE
  8
0
 10
116.673
 20
21.7065
 11
116.607
 21
21.7732
  0
LINE
  8
0
 10
116.607
 20
21.7732
 11
116.544
 21
21.8439
  0
LINE
  8
0
 10
116.544
 20
21.8439
 11
116.486
 21
21.9183
  0
LINE
  8
0
 10
116.486
 20
21.9183
 11
116.434
 21
21.9962
  0
LINE
  8
0
 10
116.434
 20
21.9962
 11
116.386
 21
22.0774
  0
LINE
  8
0
 10
116.386
 20
22.0774
 11
116.343
 21
22.1613
  0
LINE
  8
0
 10
116.343
 20
22.1613
 11
116.305
 21
22.2478
  0
LINE
  8
0
 10
116.305
 20
22.2478
 11
116.273
 21
22.3365
  0
LINE
  8
0
 10
116.273
 20
22.3365
 11
116.247
 21
22.427
  0
LINE
  8
0
 10
116.247
 20
22.427
 11
116.227
 21
22.5189
  0
LINE
  8
0
 10
116.227
 20
22.5189
 11
116.212
 21
22.612
  0
LINE
  8
0
 10
116.212
 20
22.612
 11
116.203
 21
22.7058
  0
LINE
  8
0
 10
116.203
 20
22.7058
 11
116.2
 21
22.8
  0
LINE
  8
0
 10
116.2
 20
22.8
 11
116.203
 21
22.8942
  0
LINE
  8
0
 10
116.203
 20
22.8942
 11
116.212
 21
22.988
  0
LINE
  8
0
 10
116.212
 20
22.988
 11
116.227
 21
23.0811
  0
LINE
  8
0
 10
116.227
 20
23.0811
 11
116.247
 21
23.173
  0
LINE
  8
0
 10
116.247
 20
23.173
 11
116.273
 21
23.2635
  0
LINE
  8
0
 10
116.273
 20
23.2635
 11
116.305
 21
23.3522
  0
LINE
  8
0
 10
116.305
 20
23.3522
 11
116.343
 21
23.4387
  0
LINE
  8
0
 10
116.343
 20
23.4387
 11
116.386
 21
23.5226
  0
LINE
  8
0
 10
116.386
 20
23.5226
 11
116.434
 21
23.6037
  0
LINE
  8
0
 10
116.434
 20
23.6037
 11
116.486
 21
23.6817
  0
LINE
  8
0
 10
116.486
 20
23.6817
 11
116.544
 21
23.7561
  0
LINE
  8
0
 10
116.544
 20
23.7561
 11
116.607
 21
23.8268
  0
LINE
  8
0
 10
116.607
 20
23.8268
 11
116.673
 21
23.8934
  0
LINE
  8
0
 10
116.673
 20
23.8934
 11
116.744
 21
23.9558
  0
LINE
  8
0
 10
116.744
 20
23.9558
 11
116.818
 21
24.0135
  0
LINE
  8
0
 10
116.818
 20
24.0135
 11
116.896
 21
24.0665
  0
LINE
  8
0
 10
116.896
 20
24.0665
 11
116.977
 21
24.1145
  0
LINE
  8
0
 10
116.977
 20
24.1145
 11
117.061
 21
24.1572
  0
LINE
  8
0
 10
117.061
 20
24.1572
 11
117.148
 21
24.1947
  0
LINE
  8
0
 10
117.148
 20
24.1947
 11
117.236
 21
24.2266
  0
LINE
  8
0
 10
117.236
 20
24.2266
 11
117.327
 21
24.2529
  0
LINE
  8
0
 10
117.327
 20
24.2529
 11
117.419
 21
24.2734
  0
LINE
  8
0
 10
117.419
 20
24.2734
 11
117.512
 21
24.2882
  0
LINE
  8
0
 10
117.512
 20
24.2882
 11
117.606
 21
24.297
  0
LINE
  8
0
 10
117.606
 20
24.297
 11
117.7
 21
24.3
  0
LINE
  8
0
 10
117.7
 20
24.3
 11
117.794
 21
24.297
  0
LINE
  8
0
 10
117.794
 20
24.297
 11
117.888
 21
24.2882
  0
LINE
  8
0
 10
117.888
 20
24.2882
 11
117.981
 21
24.2734
  0
LINE
  8
0
 10
117.981
 20
24.2734
 11
118.073
 21
24.2529
  0
LINE
  8
0
 10
118.073
 20
24.2529
 11
118.164
 21
24.2266
  0
LINE
  8
0
 10
118.164
 20
24.2266
 11
118.252
 21
24.1947
  0
LINE
  8
0
 10
118.252
 20
24.1947
 11
118.339
 21
24.1572
  0
LINE
  8
0
 10
118.339
 20
24.1572
 11
118.423
 21
24.1145
  0
LINE
  8
0
 10
118.423
 20
24.1145
 11
118.504
 21
24.0665
  0
LINE
  8
0
 10
118.504
 20
24.0665
 11
118.582
 21
24.0135
  0
LINE
  8
0
 10
118.582
 20
24.0135
 11
118.656
 21
23.9558
  0
LINE
  8
0
 10
118.656
 20
23.9558
 11
118.727
 21
23.8934
  0
LINE
  8
0
 10
118.727
 20
23.8934
 11
118.793
 21
23.8268
  0
LINE
  8
0
 10
118.793
 20
23.8268
 11
118.856
 21
23.7561
  0
LINE
  8
0
 10
118.856
 20
23.7561
 11
118.914
 21
23.6817
  0
LINE
  8
0
 10
118.914
 20
23.6817
 11
118.966
 21
23.6037
  0
LINE
  8
0
 10
118.966
 20
23.6037
 11
119.014
 21
23.5226
  0
LINE
  8
0
 10
119.014
 20
23.5226
 11
119.057
 21
23.4387
  0
LINE
  8
0
 10
119.057
 20
23.4387
 11
119.095
 21
23.3522
  0
LINE
  8
0
 10
119.095
 20
23.3522
 11
119.127
 21
23.2635
  0
LINE
  8
0
 10
119.127
 20
23.2635
 11
119.153
 21
23.173
  0
LINE
  8
0
 10
119.153
 20
23.173
 11
119.173
 21
23.0811
  0
LINE
  8
0
 10
119.173
 20
23.0811
 11
119.188
 21
22.988
  0
LINE
  8
0
 10
119.188
 20
22.988
 11
119.197
 21
22.8942
  0
LINE
  8
0
 10
119.197
 20
22.8942
 11
119.2
 21
22.8
  0
LINE
  8
0
 10
119.2
 20
22.8
 11
119.197
 21
22.7058
  0
LINE
  8
0
 10
119.197
 20
22.7058
 11
119.188
 21
22.612
  0
LINE
  8
0
 10
119.188
 20
22.612
 11
119.173
 21
22.5189
  0
LINE
  8
0
 10
119.173
 20
22.5189
 11
119.153
 21
22.427
  0
LINE
  8
0
 10
119.153
 20
22.427
 11
119.127
 21
22.3365
  0
LINE
  8
0
 10
119.127
 20
22.3365
 11
119.095
 21
22.2478
  0
LINE
  8
0
 10
119.095
 20
22.2478
 11
119.057
 21
22.1613
  0
LINE
  8
0
 10
119.057
 20
22.1613
 11
119.014
 21
22.0774
  0
LINE
  8
0
 10
119.014
 20
22.0774
 11
118.966
 21
21.9962
  0
LINE
  8
0
 10
118.966
 20
21.9962
 11
118.914
 21
21.9183
  0
LINE
  8
0
 10
118.914
 20
21.9183
 11
118.856
 21
21.8439
  0
LINE
  8
0
 10
118.856
 20
21.8439
 11
118.793
 21
21.7732
  0
LINE
  8
0
 10
118.793
 20
21.7732
 11
118.727
 21
21.7065
  0
LINE
  8
0
 10
118.727
 20
21.7065
 11
118.656
 21
21.6442
  0
LINE
  8
0
 10
118.656
 20
21.6442
 11
118.582
 21
21.5865
  0
LINE
  8
0
 10
118.582
 20
21.5865
 11
118.504
 21
21.5335
  0
LINE
  8
0
 10
118.504
 20
21.5335
 11
118.423
 21
21.4855
  0
LINE
  8
0
 10
118.423
 20
21.4855
 11
118.339
 21
21.4427
  0
LINE
  8
0
 10
118.339
 20
21.4427
 11
118.252
 21
21.4053
  0
LINE
  8
0
 10
118.252
 20
21.4053
 11
118.164
 21
21.3734
  0
LINE
  8
0
 10
118.164
 20
21.3734
 11
118.073
 21
21.3471
  0
LINE
  8
0
 10
118.073
 20
21.3471
 11
117.981
 21
21.3266
  0
LINE
  8
0
 10
117.981
 20
21.3266
 11
117.888
 21
21.3118
  0
LINE
  8
0
 10
117.888
 20
21.3118
 11
117.794
 21
21.3029
  0
LINE
  8
0
 10
117.794
 20
21.3029
 11
117.7
 21
21.3
  0
LINE
  8
0
 10
117.7
 20
21.3
 11
117.606
 21
21.3029
  0
LINE
  8
0
 10
97.0145
 20
10.4574
 11
96.78
 21
10.4796
  0
LINE
  8
0
 10
96.78
 20
10.4796
 11
96.5473
 21
10.5164
  0
LINE
  8
0
 10
96.5473
 20
10.5164
 11
96.3174
 21
10.5678
  0
LINE
  8
0
 10
96.3174
 20
10.5678
 11
96.0912
 21
10.6335
  0
LINE
  8
0
 10
96.0912
 20
10.6335
 11
95.8695
 21
10.7133
  0
LINE
  8
0
 10
95.8695
 20
10.7133
 11
95.6533
 21
10.8069
  0
LINE
  8
0
 10
95.6533
 20
10.8069
 11
95.4434
 21
10.9138
  0
LINE
  8
0
 10
95.4434
 20
10.9138
 11
95.2406
 21
11.0338
  0
LINE
  8
0
 10
95.2406
 20
11.0338
 11
95.0458
 21
11.1662
  0
LINE
  8
0
 10
95.0458
 20
11.1662
 11
94.8596
 21
11.3106
  0
LINE
  8
0
 10
94.8596
 20
11.3106
 11
94.6829
 21
11.4664
  0
LINE
  8
0
 10
94.6829
 20
11.4664
 11
94.5164
 21
11.6329
  0
LINE
  8
0
 10
94.5164
 20
11.6329
 11
94.3606
 21
11.8096
  0
LINE
  8
0
 10
94.3606
 20
11.8096
 11
94.2162
 21
11.9958
  0
LINE
  8
0
 10
94.2162
 20
11.9958
 11
94.0838
 21
12.1906
  0
LINE
  8
0
 10
94.0838
 20
12.1906
 11
93.9638
 21
12.3934
  0
LINE
  8
0
 10
93.9638
 20
12.3934
 11
93.8569
 21
12.6033
  0
LINE
  8
0
 10
93.8569
 20
12.6033
 11
93.7633
 21
12.8195
  0
LINE
  8
0
 10
93.7633
 20
12.8195
 11
93.6835
 21
13.0412
  0
LINE
  8
0
 10
93.6835
 20
13.0412
 11
93.6178
 21
13.2674
  0
LINE
  8
0
 10
93.6178
 20
13.2674
 11
93.5664
 21
13.4973
  0
LINE
  8
0
 10
93.5664
 20
13.4973
 11
93.5296
 21
13.73
  0
LINE
  8
0
 10
93.5296
 20
13.73
 11
93.5074
 21
13.9645
  0
LINE
  8
0
 10
93.5074
 20
13.9645
 11
93.5
 21
14.2
  0
LINE
  8
0
 10
93.5
 20
14.2
 11
93.5074
 21
14.4355
  0
LINE
  8
0
 10
93.5074
 20
14.4355
 11
93.5296
 21
14.67
  0
LINE
  8
0
 10
93.5296
 20
14.67
 11
93.5664
 21
14.9027
  0
LINE
  8
0
 10
93.5664
 20
14.9027
 11
93.6178
 21
15.1326
  0
LINE
  8
0
 10
93.6178
 20
15.1326
 11
93.6835
 21
15.3588
  0
LINE
  8
0
 10
93.6835
 20
15.3588
 11
93.7633
 21
15.5805
  0
LINE
  8
0
 10
93.7633
 20
15.5805
 11
93.8569
 21
15.7967
  0
LINE
  8
0
 10
93.8569
 20
15.7967
 11
93.9638
 21
16.0066
  0
LINE
  8
0
 10
93.9638
 20
16.0066
 11
94.0838
 21
16.2093
  0
LINE
  8
0
 10
94.0838
 20
16.2093
 11
94.2162
 21
16.4042
  0
LINE
  8
0
 10
94.2162
 20
16.4042
 11
94.3606
 21
16.5903
  0
LINE
  8
0
 10
94.3606
 20
16.5903
 11
94.5164
 21
16.767
  0
LINE
  8
0
 10
94.5164
 20
16.767
 11
94.6829
 21
16.9336
  0
LINE
  8
0
 10
94.6829
 20
16.9336
 11
94.8596
 21
17.0894
  0
LINE
  8
0
 10
94.8596
 20
17.0894
 11
95.0458
 21
17.2338
  0
LINE
  8
0
 10
95.0458
 20
17.2338
 11
95.2406
 21
17.3662
  0
LINE
  8
0
 10
95.2406
 20
17.3662
 11
95.4434
 21
17.4861
  0
LINE
  8
0
 10
95.4434
 20
17.4861
 11
95.6533
 21
17.5931
  0
LINE
  8
0
 10
95.6533
 20
17.5931
 11
95.8695
 21
17.6867
  0
LINE
  8
0
 10
95.8695
 20
17.6867
 11
96.0912
 21
17.7664
  0
LINE
  8
0
 10
96.0912
 20
17.7664
 11
96.3174
 21
17.8322
  0
LINE
  8
0
 10
96.3174
 20
17.8322
 11
96.5473
 21
17.8836
  0
LINE
  8
0
 10
96.5473
 20
17.8836
 11
96.78
 21
17.9204
  0
LINE
  8
0
 10
96.78
 20
17.9204
 11
97.0145
 21
17.9426
  0
LINE
  8
0
 10
97.0145
 20
17.9426
 11
97.25
 21
17.95
  0
LINE
  8
0
 10
97.25
 20
17.95
 11
97.4855
 21
17.9426
  0
LINE
  8
0
 10
97.4855
 20
17.9426
 11
97.72
 21
17.9204
  0
LINE
  8
0
 10
97.72
 20
17.9204
 11
97.9527
 21
17.8836
  0
LINE
  8
0
 10
97.9527
 20
17.8836
 11
98.1826
 21
17.8322
  0
LINE
  8
0
 10
98.1826
 20
17.8322
 11
98.4088
 21
17.7664
  0
LINE
  8
0
 10
98.4088
 20
17.7664
 11
98.6305
 21
17.6867
  0
LINE
  8
0
 10
98.6305
 20
17.6867
 11
98.8467
 21
17.5931
  0
LINE
  8
0
 10
98.8467
 20
17.5931
 11
99.0566
 21
17.4861
  0
LINE
  8
0
 10
99.0566
 20
17.4861
 11
99.2593
 21
17.3662
  0
LINE
  8
0
 10
99.2593
 20
17.3662
 11
99.4542
 21
17.2338
  0
LINE
  8
0
 10
99.4542
 20
17.2338
 11
99.6403
 21
17.0894
  0
LINE
  8
0
 10
99.6403
 20
17.0894
 11
99.817
 21
16.9336
  0
LINE
  8
0
 10
99.817
 20
16.9336
 11
99.9836
 21
16.767
  0
LINE
  8
0
 10
99.9836
 20
16.767
 11
100.139
 21
16.5903
  0
LINE
  8
0
 10
100.139
 20
16.5903
 11
100.284
 21
16.4042
  0
LINE
  8
0
 10
100.284
 20
16.4042
 11
100.416
 21
16.2093
  0
LINE
  8
0
 10
100.416
 20
16.2093
 11
100.536
 21
16.0066
  0
LINE
  8
0
 10
100.536
 20
16.0066
 11
100.643
 21
15.7967
  0
LINE
  8
0
 10
100.643
 20
15.7967
 11
100.737
 21
15.5805
  0
LINE
  8
0
 10
100.737
 20
15.5805
 11
100.816
 21
15.3588
  0
LINE
  8
0
 10
100.816
 20
15.3588
 11
100.882
 21
15.1326
  0
LINE
  8
0
 10
100.882
 20
15.1326
 11
100.934
 21
14.9027
  0
LINE
  8
0
 10
100.934
 20
14.9027
 11
100.97
 21
14.67
  0
LINE
  8
0
 10
100.97
 20
14.67
 11
100.993
 21
14.4355
  0
LINE
  8
0
 10
100.993
 20
14.4355
 11
101
 21
14.2
  0
LINE
  8
0
 10
101
 20
14.2
 11
100.993
 21
13.9645
  0
LINE
  8
0
 10
100.993
 20
13.9645
 11
100.97
 21
13.73
  0
LINE
  8
0
 10
100.97
 20
13.73
 11
100.934
 21
13.4973
  0
LINE
  8
0
 10
100.934
 20
13.4973
 11
100.882
 21
13.2674
  0
LINE
  8
0
 10
100.882
 20
13.2674
 11
100.816
 21
13.0412
  0
LINE
  8
0
 10
100.816
 20
13.0412
 11
100.737
 21
12.8195
  0
LINE
  8
0
 10
100.737
 20
12.8195
 11
100.643
 21
12.6033
  0
LINE
  8
0
 10
100.643
 20
12.6033
 11
100.536
 21
12.3934
  0
LINE
  8
0
 10
100.536
 20
12.3934
 11
100.416
 21
12.1906
  0
LINE
  8
0
 10
100.416
 20
12.1906
 11
100.284
 21
11.9958
  0
LINE
  8
0
 10
100.284
 20
11.9958
 11
100.139
 21
11.8096
  0
LINE
  8
0
 10
100.139
 20
11.8096
 11
99.9836
 21
11.6329
  0
LINE
  8
0
 10
99.9836
 20
11.6329
 11
99.817
 21
11.4664
  0
LINE
  8
0
 10
99.817
 20
11.4664
 11
99.6403
 21
11.3106
  0
LINE
  8
0
 10
99.6403
 20
11.3106
 11
99.4542
 21
11.1662
  0
LINE
  8
0
 10
99.4542
 20
11.1662
 11
99.2593
 21
11.0338
  0
LINE
  8
0
 10
99.2593
 20
11.0338
 11
99.0566
 21
10.9138
  0
LINE
  8
0
 10
99.0566
 20
10.9138
 11
98.8467
 21
10.8069
  0
LINE
  8
0
 10
98.8467
 20
10.8069
 11
98.6305
 21
10.7133
  0
LINE
  8
0
 10
98.6305
 20
10.7133
 11
98.4088
 21
10.6335
  0
LINE
  8
0
 10
98.4088
 20
10.6335
 11
98.1826
 21
10.5678
  0
LINE
  8
0
 10
98.1826
 20
10.5678
 11
97.9527
 21
10.5164
  0
LINE
  8
0
 10
97.9527
 20
10.5164
 11
97.72
 21
10.4796
  0
LINE
  8
0
 10
97.72
 20
10.4796
 11
97.4855
 21
10.4574
  0
LINE
  8
0
 10
97.4855
 20
10.4574
 11
97.25
 21
10.45
  0
LINE
  8
0
 10
97.25
 20
10.45
 11
97.0145
 21
10.4574
  0
LINE
  8
0
 10
127
 20
11.7
 11
127
 21
16.7
  0
LINE
  8
0
 10
127
 20
16.7
 11
130
 21
16.7
  0
LINE
  8
0
 10
130
 20
16.7
 11
130
 21
11.7
  0
LINE
  8
0
 10
130
 20
11.7
 11
127
 21
11.7
  0
LINE
  8
0
 10
108.374
 20
12.2039
 11
108.249
 21
12.2158
  0
LINE
  8
0
 10
108.249
 20
12.2158
 11
108.125
 21
12.2354
  0
LINE
  8
0
 10
108.125
 20
12.2354
 11
108.003
 21
12.2628
  0
LINE
  8
0
 10
108.003
 20
12.2628
 11
107.882
 21
12.2979
  0
LINE
  8
0
 10
107.882
 20
12.2979
 11
107.764
 21
12.3404
  0
LINE
  8
0
 10
107.764
 20
12.3404
 11
107.648
 21
12.3903
  0
LINE
  8
0
 10
107.648
 20
12.3903
 11
107.536
 21
12.4474
  0
LINE
  8
0
 10
107.536
 20
12.4474
 11
107.428
 21
12.5113
  0
LINE
  8
0
 10
107.428
 20
12.5113
 11
107.324
 21
12.582
  0
LINE
  8
0
 10
107.324
 20
12.582
 11
107.225
 21
12.659
  0
LINE
  8
0
 10
107.225
 20
12.659
 11
107.131
 21
12.7421
  0
LINE
  8
0
 10
107.131
 20
12.7421
 11
107.042
 21
12.8309
  0
LINE
  8
0
 10
107.042
 20
12.8309
 11
106.959
 21
12.9251
  0
LINE
  8
0
 10
106.959
 20
12.9251
 11
106.882
 21
13.0244
  0
LINE
  8
0
 10
106.882
 20
13.0244
 11
106.811
 21
13.1283
  0
LINE
  8
0
 10
106.811
 20
13.1283
 11
106.747
 21
13.2365
  0
LINE
  8
0
 10
106.747
 20
13.2365
 11
106.69
 21
13.3484
  0
LINE
  8
0
 10
106.69
 20
13.3484
 11
106.64
 21
13.4637
  0
LINE
  8
0
 10
106.64
 20
13.4637
 11
106.598
 21
13.582
  0
LINE
  8
0
 10
106.598
 20
13.582
 11
106.563
 21
13.7026
  0
LINE
  8
0
 10
106.563
 20
13.7026
 11
106.535
 21
13.8252
  0
LINE
  8
0
 10
106.535
 20
13.8252
 11
106.516
 21
13.9493
  0
LINE
  8
0
 10
106.516
 20
13.9493
 11
106.504
 21
14.0744
  0
LINE
  8
0
 10
106.504
 20
14.0744
 11
106.5
 21
14.2
  0
LINE
  8
0
 10
106.5
 20
14.2
 11
106.504
 21
14.3256
  0
LINE
  8
0
 10
106.504
 20
14.3256
 11
106.516
 21
14.4507
  0
LINE
  8
0
 10
106.516
 20
14.4507
 11
106.535
 21
14.5748
  0
LINE
  8
0
 10
106.535
 20
14.5748
 11
106.563
 21
14.6974
  0
LINE
  8
0
 10
106.563
 20
14.6974
 11
106.598
 21
14.818
  0
LINE
  8
0
 10
106.598
 20
14.818
 11
106.64
 21
14.9362
  0
LINE
  8
0
 10
106.64
 20
14.9362
 11
106.69
 21
15.0515
  0
LINE
  8
0
 10
106.69
 20
15.0515
 11
106.747
 21
15.1635
  0
LINE
  8
0
 10
106.747
 20
15.1635
 11
106.811
 21
15.2717
  0
LINE
  8
0
 10
106.811
 20
15.2717
 11
106.882
 21
15.3756
  0
LINE
  8
0
 10
106.882
 20
15.3756
 11
106.959
 21
15.4748
  0
LINE
  8
0
 10
106.959
 20
15.4748
 11
107.042
 21
15.5691
  0
LINE
  8
0
 10
107.042
 20
15.5691
 11
107.131
 21
15.6579
  0
LINE
  8
0
 10
107.131
 20
15.6579
 11
107.225
 21
15.741
  0
LINE
  8
0
 10
107.225
 20
15.741
 11
107.324
 21
15.818
  0
LINE
  8
0
 10
107.324
 20
15.818
 11
107.428
 21
15.8886
  0
LINE
  8
0
 10
107.428
 20
15.8886
 11
107.536
 21
15.9526
  0
LINE
  8
0
 10
107.536
 20
15.9526
 11
107.648
 21
16.0096
  0
LINE
  8
0
 10
107.648
 20
16.0096
 11
107.764
 21
16.0595
  0
LINE
  8
0
 10
107.764
 20
16.0595
 11
107.882
 21
16.1021
  0
LINE
  8
0
 10
107.882
 20
16.1021
 11
108.003
 21
16.1372
  0
LINE
  8
0
 10
108.003
 20
16.1372
 11
108.125
 21
16.1646
  0
LINE
  8
0
 10
108.125
 20
16.1646
 11
108.249
 21
16.1842
  0
LINE
  8
0
 10
108.249
 20
16.1842
 11
108.374
 21
16.196
  0
LINE
  8
0
 10
108.374
 20
16.196
 11
108.5
 21
16.2
  0
LINE
  8
0
 10
108.5
 20
16.2
 11
108.626
 21
16.196
  0
LINE
  8
0
 10
108.626
 20
16.196
 11
108.751
 21
16.1842
  0
LINE
  8
0
 10
108.751
 20
16.1842
 11
108.875
 21
16.1646
  0
LINE
  8
0
 10
108.875
 20
16.1646
 11
108.997
 21
16.1372
  0
LINE
  8
0
 10
108.997
 20
16.1372
 11
109.118
 21
16.1021
  0
LINE
  8
0
 10
109.118
 20
16.1021
 11
109.236
 21
16.0595
  0
LINE
  8
0
 10
109.236
 20
16.0595
 11
109.352
 21
16.0096
  0
LINE
  8
0
 10
109.352
 20
16.0096
 11
109.464
 21
15.9526
  0
LINE
  8
0
 10
109.464
 20
15.9526
 11
109.572
 21
15.8886
  0
LINE
  8
0
 10
109.572
 20
15.8886
 11
109.676
 21
15.818
  0
LINE
  8
0
 10
109.676
 20
15.818
 11
109.775
 21
15.741
  0
LINE
  8
0
 10
109.775
 20
15.741
 11
109.869
 21
15.6579
  0
LINE
  8
0
 10
109.869
 20
15.6579
 11
109.958
 21
15.5691
  0
LINE
  8
0
 10
109.958
 20
15.5691
 11
110.041
 21
15.4748
  0
LINE
  8
0
 10
110.041
 20
15.4748
 11
110.118
 21
15.3756
  0
LINE
  8
0
 10
110.118
 20
15.3756
 11
110.189
 21
15.2717
  0
LINE
  8
0
 10
110.189
 20
15.2717
 11
110.253
 21
15.1635
  0
LINE
  8
0
 10
110.253
 20
15.1635
 11
110.31
 21
15.0515
  0
LINE
  8
0
 10
110.31
 20
15.0515
 11
110.36
 21
14.9362
  0
LINE
  8
0
 10
110.36
 20
14.9362
 11
110.402
 21
14.818
  0
LINE
  8
0
 10
110.402
 20
14.818
 11
110.437
 21
14.6974
  0
LINE
  8
0
 10
110.437
 20
14.6974
 11
110.465
 21
14.5748
  0
LINE
  8
0
 10
110.465
 20
14.5748
 11
110.484
 21
14.4507
  0
LINE
  8
0
 10
110.484
 20
14.4507
 11
110.496
 21
14.3256
  0
LINE
  8
0
 10
110.496
 20
14.3256
 11
110.5
 21
14.2
  0
LINE
  8
0
 10
110.5
 20
14.2
 11
110.496
 21
14.0744
  0
LINE
  8
0
 10
110.496
 20
14.0744
 11
110.484
 21
13.9493
  0
LINE
  8
0
 10
110.484
 20
13.9493
 11
110.465
 21
13.8252
  0
LINE
  8
0
 10
110.465
 20
13.8252
 11
110.437
 21
13.7026
  0
LINE
  8
0
 10
110.437
 20
13.7026
 11
110.402
 21
13.582
  0
LINE
  8
0
 10
110.402
 20
13.582
 11
110.36
 21
13.4637
  0
LINE
  8
0
 10
110.36
 20
13.4637
 11
110.31
 21
13.3484
  0
LINE
  8
0
 10
110.31
 20
13.3484
 11
110.253
 21
13.2365
  0
LINE
  8
0
 10
110.253
 20
13.2365
 11
110.189
 21
13.1283
  0
LINE
  8
0
 10
110.189
 20
13.1283
 11
110.118
 21
13.0244
  0
LINE
  8
0
 10
110.118
 20
13.0244
 11
110.041
 21
12.9251
  0
LINE
  8
0
 10
110.041
 20
12.9251
 11
109.958
 21
12.8309
  0
LINE
  8
0
 10
109.958
 20
12.8309
 11
109.869
 21
12.7421
  0
LINE
  8
0
 10
109.869
 20
12.7421
 11
109.775
 21
12.659
  0
LINE
  8
0
 10
109.775
 20
12.659
 11
109.676
 21
12.582
  0
LINE
  8
0
 10
109.676
 20
12.582
 11
109.572
 21
12.5113
  0
LINE
  8
0
 10
109.572
 20
12.5113
 11
109.464
 21
12.4474
  0
LINE
  8
0
 10
109.464
 20
12.4474
 11
109.352
 21
12.3903
  0
LINE
  8
0
 10
109.352
 20
12.3903
 11
109.236
 21
12.3404
  0
LINE
  8
0
 10
109.236
 20
12.3404
 11
109.118
 21
12.2979
  0
LINE
  8
0
 10
109.118
 20
12.2979
 11
108.997
 21
12.2628
  0
LINE
  8
0
 10
108.997
 20
12.2628
 11
108.875
 21
12.2354
  0
LINE
  8
0
 10
108.875
 20
12.2354
 11
108.751
 21
12.2158
  0
LINE
  8
0
 10
108.751
 20
12.2158
 11
108.626
 21
12.2039
  0
LINE
  8
0
 10
108.626
 20
12.2039
 11
108.5
 21
12.2
  0
LINE
  8
0
 10
108.5
 20
12.2
 11
108.374
 21
12.2039
  0
LINE
  8
0
 10
117.606
 20
4.10295
 11
117.512
 21
4.11182
  0
LINE
  8
0
 10
117.512
 20
4.11182
 11
117.419
 21
4.12656
  0
LINE
  8
0
 10
117.419
 20
4.12656
 11
117.327
 21
4.14713
  0
LINE
  8
0
 10
117.327
 20
4.14713
 11
117.236
 21
4.1734
  0
LINE
  8
0
 10
117.236
 20
4.1734
 11
117.148
 21
4.20532
  0
LINE
  8
0
 10
117.148
 20
4.20532
 11
117.061
 21
4.24275
  0
LINE
  8
0
 10
117.061
 20
4.24275
 11
116.977
 21
4.28554
  0
LINE
  8
0
 10
116.977
 20
4.28554
 11
116.896
 21
4.3335
  0
LINE
  8
0
 10
116.896
 20
4.3335
 11
116.818
 21
4.38646
  0
LINE
  8
0
 10
116.818
 20
4.38646
 11
116.744
 21
4.44423
  0
LINE
  8
0
 10
116.744
 20
4.44423
 11
116.673
 21
4.50655
  0
LINE
  8
0
 10
116.673
 20
4.50655
 11
116.607
 21
4.57317
  0
LINE
  8
0
 10
116.607
 20
4.57317
 11
116.544
 21
4.64386
  0
LINE
  8
0
 10
116.544
 20
4.64386
 11
116.486
 21
4.71831
  0
LINE
  8
0
 10
116.486
 20
4.71831
 11
116.434
 21
4.79625
  0
LINE
  8
0
 10
116.434
 20
4.79625
 11
116.386
 21
4.87737
  0
LINE
  8
0
 10
116.386
 20
4.87737
 11
116.343
 21
4.96132
  0
LINE
  8
0
 10
116.343
 20
4.96132
 11
116.305
 21
5.04781
  0
LINE
  8
0
 10
116.305
 20
5.04781
 11
116.273
 21
5.13646
  0
LINE
  8
0
 10
116.273
 20
5.13646
 11
116.247
 21
5.22696
  0
LINE
  8
0
 10
116.247
 20
5.22696
 11
116.227
 21
5.31892
  0
LINE
  8
0
 10
116.227
 20
5.31892
 11
116.212
 21
5.41199
  0
LINE
  8
0
 10
116.212
 20
5.41199
 11
116.203
 21
5.50581
  0
LINE
  8
0
 10
116.203
 20
5.50581
 11
116.2
 21
5.59999
  0
LINE
  8
0
 10
116.2
 20
5.59999
 11
116.203
 21
5.69418
  0
LINE
  8
0
 10
116.203
 20
5.69418
 11
116.212
 21
5.78799
  0
LINE
  8
0
 10
116.212
 20
5.78799
 11
116.227
 21
5.88106
  0
LINE
  8
0
 10
116.227
 20
5.88106
 11
116.247
 21
5.97302
  0
LINE
  8
0
 10
116.247
 20
5.97302
 11
116.273
 21
6.06352
  0
LINE
  8
0
 10
116.273
 20
6.06352
 11
116.305
 21
6.15218
  0
LINE
  8
0
 10
116.305
 20
6.15218
 11
116.343
 21
6.23866
  0
LINE
  8
0
 10
116.343
 20
6.23866
 11
116.386
 21
6.32262
  0
LINE
  8
0
 10
116.386
 20
6.32262
 11
116.434
 21
6.40373
  0
LINE
  8
0
 10
116.434
 20
6.40373
 11
116.486
 21
6.48167
  0
LINE
  8
0
 10
116.486
 20
6.48167
 11
116.544
 21
6.55612
  0
LINE
  8
0
 10
116.544
 20
6.55612
 11
116.607
 21
6.62682
  0
LINE
  8
0
 10
116.607
 20
6.62682
 11
116.673
 21
6.69345
  0
LINE
  8
0
 10
116.673
 20
6.69345
 11
116.744
 21
6.75577
  0
LINE
  8
0
 10
116.744
 20
6.75577
 11
116.818
 21
6.81352
  0
LINE
  8
0
 10
116.818
 20
6.81352
 11
116.896
 21
6.86649
  0
LINE
  8
0
 10
116.896
 20
6.86649
 11
116.977
 21
6.91446
  0
LINE
  8
0
 10
116.977
 20
6.91446
 11
117.061
 21
6.95723
  0
LINE
  8
0
 10
117.061
 20
6.95723
 11
117.148
 21
6.99466
  0
LINE
  8
0
 10
117.148
 20
6.99466
 11
117.236
 21
7.02658
  0
LINE
  8
0
 10
117.236
 20
7.02658
 11
117.327
 21
7.05287
  0
LINE
  8
0
 10
117.327
 20
7.05287
 11
117.419
 21
7.07343
  0
LINE
  8
0
 10
117.419
 20
7.07343
 11
117.512
 21
7.08817
  0
LINE
  8
0
 10
117.512
 20
7.08817
 11
117.606
 21
7.09703
  0
LINE
  8
0
 10
117.606
 20
7.09703
 11
117.7
 21
7.09999
  0
LINE
  8
0
 10
117.7
 20
7.09999
 11
117.794
 21
7.09703
  0
LINE
  8
0
 10
117.794
 20
7.09703
 11
117.888
 21
7.08817
  0
LINE
  8
0
 10
117.888
 20
7.08817
 11
117.981
 21
7.07343
  0
LINE
  8
0
 10
117.981
 20
7.07343
 11
118.073
 21
7.05287
  0
LINE
  8
0
 10
118.073
 20
7.05287
 11
118.164
 21
7.02658
  0
LINE
  8
0
 10
118.164
 20
7.02658
 11
118.252
 21
6.99466
  0
LINE
  8
0
 10
118.252
 20
6.99466
 11
118.339
 21
6.95723
  0
LINE
  8
0
 10
118.339
 20
6.95723
 11
118.423
 21
6.91446
  0
LINE
  8
0
 10
118.423
 20
6.91446
 11
118.504
 21
6.86649
  0
LINE
  8
0
 10
118.504
 20
6.86649
 11
118.582
 21
6.81352
  0
LINE
  8
0
 10
118.582
 20
6.81352
 11
118.656
 21
6.75577
  0
LINE
  8
0
 10
118.656
 20
6.75577
 11
118.727
 21
6.69345
  0
LINE
  8
0
 10
118.727
 20
6.69345
 11
118.793
 21
6.62682
  0
LINE
  8
0
 10
118.793
 20
6.62682
 11
118.856
 21
6.55612
  0
LINE
  8
0
 10
118.856
 20
6.55612
 11
118.914
 21
6.48167
  0
LINE
  8
0
 10
118.914
 20
6.48167
 11
118.966
 21
6.40373
  0
LINE
  8
0
 10
118.966
 20
6.40373
 11
119.014
 21
6.32262
  0
LINE
  8
0
 10
119.014
 20
6.32262
 11
119.057
 21
6.23866
  0
LINE
  8
0
 10
119.057
 20
6.23866
 11
119.095
 21
6.15218
  0
LINE
  8
0
 10
119.095
 20
6.15218
 11
119.127
 21
6.06352
  0
LINE
  8
0
 10
119.127
 20
6.06352
 11
119.153
 21
5.97302
  0
LINE
  8
0
 10
119.153
 20
5.97302
 11
119.173
 21
5.88106
  0
LINE
  8
0
 10
119.173
 20
5.88106
 11
119.188
 21
5.78799
  0
LINE
  8
0
 10
119.188
 20
5.78799
 11
119.197
 21
5.69418
  0
LINE
  8
0
 10
119.197
 20
5.69418
 11
119.2
 21
5.59999
  0
LINE
  8
0
 10
119.2
 20
5.59999
 11
119.197
 21
5.50581
  0
LINE
  8
0
 10
119.197
 20
5.50581
 11
119.188
 21
5.41199
  0
LINE
  8
0
 10
119.188
 20
5.41199
 11
119.173
 21
5.31892
  0
LINE
  8
0
 10
119.173
 20
5.31892
 11
119.153
 21
5.22696
  0
LINE
  8
0
 10
119.153
 20
5.22696
 11
119.127
 21
5.13646
  0
LINE
  8
0
 10
119.127
 20
5.13646
 11
119.095
 21
5.04781
  0
LINE
  8
0
 10
119.095
 20
5.04781
 11
119.057
 21
4.96132
  0
LINE
  8
0
 10
119.057
 20
4.96132
 11
119.014
 21
4.87737
  0
LINE
  8
0
 10
119.014
 20
4.87737
 11
118.966
 21
4.79625
  0
LINE
  8
0
 10
118.966
 20
4.79625
 11
118.914
 21
4.71831
  0
LINE
  8
0
 10
118.914
 20
4.71831
 11
118.856
 21
4.64386
  0
LINE
  8
0
 10
118.856
 20
4.64386
 11
118.793
 21
4.57317
  0
LINE
  8
0
 10
118.793
 20
4.57317
 11
118.727
 21
4.50655
  0
LINE
  8
0
 10
118.727
 20
4.50655
 11
118.656
 21
4.44423
  0
LINE
  8
0
 10
118.656
 20
4.44423
 11
118.582
 21
4.38646
  0
LINE
  8
0
 10
118.582
 20
4.38646
 11
118.504
 21
4.3335
  0
LINE
  8
0
 10
118.504
 20
4.3335
 11
118.423
 21
4.28554
  0
LINE
  8
0
 10
118.423
 20
4.28554
 11
118.339
 21
4.24275
  0
LINE
  8
0
 10
118.339
 20
4.24275
 11
118.252
 21
4.20532
  0
LINE
  8
0
 10
118.252
 20
4.20532
 11
118.164
 21
4.1734
  0
LINE
  8
0
 10
118.164
 20
4.1734
 11
118.073
 21
4.14713
  0
LINE
  8
0
 10
118.073
 20
4.14713
 11
117.981
 21
4.12656
  0
LINE
  8
0
 10
117.981
 20
4.12656
 11
117.888
 21
4.11182
  0
LINE
  8
0
 10
117.888
 20
4.11182
 11
117.794
 21
4.10295
  0
LINE
  8
0
 10
117.794
 20
4.10295
 11
117.7
 21
4.09999
  0
LINE
  8
0
 10
117.7
 20
4.09999
 11
117.606
 21
4.10295
  0
ENDSEC
  0
SECTION
  2
OBJECTS
  0
DICTIONARY
  0
ENDSEC
  0
EOF
