  0
SECTION
  2
BLOCKS
  0
ENDSEC
  0
SECTION
  2
ENTITIES
  0
LINE
  8
0
 10
93
 20
71
 11
118
 21
71
  0
LINE
  8
0
 10
118
 20
71
 11
118
 21
68
  0
LINE
  8
0
 10
118
 20
68
 11
130
 21
68
  0
LINE
  8
0
 10
130
 20
68
 11
130
 21
71
  0
LINE
  8
0
 10
130
 20
71
 11
138
 21
71
  0
LINE
  8
0
 10
138
 20
71
 11
138
 21
131
  0
LINE
  8
0
 10
138
 20
131
 11
130
 21
131
  0
LINE
  8
0
 10
130
 20
131
 11
130
 21
134
  0
LINE
  8
0
 10
130
 20
134
 11
118
 21
134
  0
LINE
  8
0
 10
118
 20
134
 11
118
 21
131
  0
LINE
  8
0
 10
118
 20
131
 11
93
 21
131
  0
LINE
  8
0
 10
93
 20
131
 11
93
 21
134
  0
LINE
  8
0
 10
93
 20
134
 11
81
 21
134
  0
LINE
  8
0
 10
81
 20
134
 11
81
 21
131
  0
LINE
  8
0
 10
81
 20
131
 11
68
 21
131
  0
LINE
  8
0
 10
68
 20
131
 11
68
 21
71
  0
LINE
  8
0
 10
68
 20
71
 11
81
 21
71
  0
LINE
  8
0
 10
81
 20
71
 11
81
 21
68
  0
LINE
  8
0
 10
81
 20
68
 11
93
 21
68
  0
LINE
  8
0
 10
93
 20
68
 11
93
 21
71
  0
LINE
  8
0
 10
124.206
 20
123.653
 11
124.112
 21
123.662
  0
LINE
  8
0
 10
124.112
 20
123.662
 11
124.019
 21
123.677
  0
LINE
  8
0
 10
124.019
 20
123.677
 11
123.927
 21
123.697
  0
LINE
  8
0
 10
123.927
 20
123.697
 11
123.836
 21
123.723
  0
LINE
  8
0
 10
123.836
 20
123.723
 11
123.748
 21
123.755
  0
LINE
  8
0
 10
123.748
 20
123.755
 11
123.661
 21
123.793
  0
LINE
  8
0
 10
123.661
 20
123.793
 11
123.577
 21
123.836
  0
LINE
  8
0
 10
123.577
 20
123.836
 11
123.496
 21
123.883
  0
LINE
  8
0
 10
123.496
 20
123.883
 11
123.418
 21
123.936
  0
LINE
  8
0
 10
123.418
 20
123.936
 11
123.344
 21
123.994
  0
LINE
  8
0
 10
123.344
 20
123.994
 11
123.273
 21
124.057
  0
LINE
  8
0
 10
123.273
 20
124.057
 11
123.207
 21
124.123
  0
LINE
  8
0
 10
123.207
 20
124.123
 11
123.144
 21
124.194
  0
LINE
  8
0
 10
123.144
 20
124.194
 11
123.086
 21
124.268
  0
LINE
  8
0
 10
123.086
 20
124.268
 11
123.033
 21
124.346
  0
LINE
  8
0
 10
123.033
 20
124.346
 11
122.986
 21
124.427
  0
LINE
  8
0
 10
122.986
 20
124.427
 11
122.943
 21
124.511
  0
LINE
  8
0
 10
122.943
 20
124.511
 11
122.905
 21
124.598
  0
LINE
  8
0
 10
122.905
 20
124.598
 11
122.873
 21
124.686
  0
LINE
  8
0
 10
122.873
 20
124.686
 11
122.847
 21
124.777
  0
LINE
  8
0
 10
122.847
 20
124.777
 11
122.827
 21
124.869
  0
LINE
  8
0
 10
122.827
 20
124.869
 11
122.812
 21
124.962
  0
LINE
  8
0
 10
122.812
 20
124.962
 11
122.803
 21
125.056
  0
LINE
  8
0
 10
122.803
 20
125.056
 11
122.8
 21
125.15
  0
LINE
  8
0
 10
122.8
 20
125.15
 11
122.803
 21
125.244
  0
LINE
  8
0
 10
122.803
 20
125.244
 11
122.812
 21
125.338
  0
LINE
  8
0
 10
122.812
 20
125.338
 11
122.827
 21
125.431
  0
LINE
  8
0
 10
122.827
 20
125.431
 11
122.847
 21
125.523
  0
LINE
  8
0
 10
122.847
 20
125.523
 11
122.873
 21
125.614
  0
LINE
  8
0
 10
122.873
 20
125.614
 11
122.905
 21
125.702
  0
LINE
  8
0
 10
122.905
 20
125.702
 11
122.943
 21
125.789
  0
LINE
  8
0
 10
122.943
 20
125.789
 11
122.986
 21
125.873
  0
LINE
  8
0
 10
122.986
 20
125.873
 11
123.033
 21
125.954
  0
LINE
  8
0
 10
123.033
 20
125.954
 11
123.086
 21
126.032
  0
LINE
  8
0
 10
123.086
 20
126.032
 11
123.144
 21
126.106
  0
LINE
  8
0
 10
123.144
 20
126.106
 11
123.207
 21
126.177
  0
LINE
  8
0
 10
123.207
 20
126.177
 11
123.273
 21
126.243
  0
LINE
  8
0
 10
123.273
 20
126.243
 11
123.344
 21
126.306
  0
LINE
  8
0
 10
123.344
 20
126.306
 11
123.418
 21
126.364
  0
LINE
  8
0
 10
123.418
 20
126.364
 11
123.496
 21
126.416
  0
LINE
  8
0
 10
123.496
 20
126.416
 11
123.577
 21
126.464
  0
LINE
  8
0
 10
123.577
 20
126.464
 11
123.661
 21
126.507
  0
LINE
  8
0
 10
123.661
 20
126.507
 11
123.748
 21
126.545
  0
LINE
  8
0
 10
123.748
 20
126.545
 11
123.836
 21
126.577
  0
LINE
  8
0
 10
123.836
 20
126.577
 11
123.927
 21
126.603
  0
LINE
  8
0
 10
123.927
 20
126.603
 11
124.019
 21
126.623
  0
LINE
  8
0
 10
124.019
 20
126.623
 11
124.112
 21
126.638
  0
LINE
  8
0
 10
124.112
 20
126.638
 11
124.206
 21
126.647
  0
LINE
  8
0
 10
124.206
 20
126.647
 11
124.3
 21
126.65
  0
LINE
  8
0
 10
124.3
 20
126.65
 11
124.394
 21
126.647
  0
LINE
  8
0
 10
124.394
 20
126.647
 11
124.488
 21
126.638
  0
LINE
  8
0
 10
124.488
 20
126.638
 11
124.581
 21
126.623
  0
LINE
  8
0
 10
124.581
 20
126.623
 11
124.673
 21
126.603
  0
LINE
  8
0
 10
124.673
 20
126.603
 11
124.764
 21
126.577
  0
LINE
  8
0
 10
124.764
 20
126.577
 11
124.852
 21
126.545
  0
LINE
  8
0
 10
124.852
 20
126.545
 11
124.939
 21
126.507
  0
LINE
  8
0
 10
124.939
 20
126.507
 11
125.023
 21
126.464
  0
LINE
  8
0
 10
125.023
 20
126.464
 11
125.104
 21
126.416
  0
LINE
  8
0
 10
125.104
 20
126.416
 11
125.182
 21
126.364
  0
LINE
  8
0
 10
125.182
 20
126.364
 11
125.256
 21
126.306
  0
LINE
  8
0
 10
125.256
 20
126.306
 11
125.327
 21
126.243
  0
LINE
  8
0
 10
125.327
 20
126.243
 11
125.393
 21
126.177
  0
LINE
  8
0
 10
125.393
 20
126.177
 11
125.456
 21
126.106
  0
LINE
  8
0
 10
125.456
 20
126.106
 11
125.514
 21
126.032
  0
LINE
  8
0
 10
125.514
 20
126.032
 11
125.566
 21
125.954
  0
LINE
  8
0
 10
125.566
 20
125.954
 11
125.614
 21
125.873
  0
LINE
  8
0
 10
125.614
 20
125.873
 11
125.657
 21
125.789
  0
LINE
  8
0
 10
125.657
 20
125.789
 11
125.695
 21
125.702
  0
LINE
  8
0
 10
125.695
 20
125.702
 11
125.727
 21
125.614
  0
LINE
  8
0
 10
125.727
 20
125.614
 11
125.753
 21
125.523
  0
LINE
  8
0
 10
125.753
 20
125.523
 11
125.773
 21
125.431
  0
LINE
  8
0
 10
125.773
 20
125.431
 11
125.788
 21
125.338
  0
LINE
  8
0
 10
125.788
 20
125.338
 11
125.797
 21
125.244
  0
LINE
  8
0
 10
125.797
 20
125.244
 11
125.8
 21
125.15
  0
LINE
  8
0
 10
125.8
 20
125.15
 11
125.797
 21
125.056
  0
LINE
  8
0
 10
125.797
 20
125.056
 11
125.788
 21
124.962
  0
LINE
  8
0
 10
125.788
 20
124.962
 11
125.773
 21
124.869
  0
LINE
  8
0
 10
125.773
 20
124.869
 11
125.753
 21
124.777
  0
LINE
  8
0
 10
125.753
 20
124.777
 11
125.727
 21
124.686
  0
LINE
  8
0
 10
125.727
 20
124.686
 11
125.695
 21
124.598
  0
LINE
  8
0
 10
125.695
 20
124.598
 11
125.657
 21
124.511
  0
LINE
  8
0
 10
125.657
 20
124.511
 11
125.614
 21
124.427
  0
LINE
  8
0
 10
125.614
 20
124.427
 11
125.566
 21
124.346
  0
LINE
  8
0
 10
125.566
 20
124.346
 11
125.514
 21
124.268
  0
LINE
  8
0
 10
125.514
 20
124.268
 11
125.456
 21
124.194
  0
LINE
  8
0
 10
125.456
 20
124.194
 11
125.393
 21
124.123
  0
LINE
  8
0
 10
125.393
 20
124.123
 11
125.327
 21
124.057
  0
LINE
  8
0
 10
125.327
 20
124.057
 11
125.256
 21
123.994
  0
LINE
  8
0
 10
125.256
 20
123.994
 11
125.182
 21
123.936
  0
LINE
  8
0
 10
125.182
 20
123.936
 11
125.104
 21
123.883
  0
LINE
  8
0
 10
125.104
 20
123.883
 11
125.023
 21
123.836
  0
LINE
  8
0
 10
125.023
 20
123.836
 11
124.939
 21
123.793
  0
LINE
  8
0
 10
124.939
 20
123.793
 11
124.852
 21
123.755
  0
LINE
  8
0
 10
124.852
 20
123.755
 11
124.764
 21
123.723
  0
LINE
  8
0
 10
124.764
 20
123.723
 11
124.673
 21
123.697
  0
LINE
  8
0
 10
124.673
 20
123.697
 11
124.581
 21
123.677
  0
LINE
  8
0
 10
124.581
 20
123.677
 11
124.488
 21
123.662
  0
LINE
  8
0
 10
124.488
 20
123.662
 11
124.394
 21
123.653
  0
LINE
  8
0
 10
124.394
 20
123.653
 11
124.3
 21
123.65
  0
LINE
  8
0
 10
124.3
 20
123.65
 11
124.206
 21
123.653
  0
LINE
  8
0
 10
72.1058
 20
118.453
 11
72.012
 21
118.462
  0
LINE
  8
0
 10
72.012
 20
118.462
 11
71.9189
 21
118.477
  0
LINE
  8
0
 10
71.9189
 20
118.477
 11
71.827
 21
118.497
  0
LINE
  8
0
 10
71.827
 20
118.497
 11
71.7365
 21
118.523
  0
LINE
  8
0
 10
71.7365
 20
118.523
 11
71.6478
 21
118.555
  0
LINE
  8
0
 10
71.6478
 20
118.555
 11
71.5613
 21
118.593
  0
LINE
  8
0
 10
71.5613
 20
118.593
 11
71.4774
 21
118.636
  0
LINE
  8
0
 10
71.4774
 20
118.636
 11
71.3963
 21
118.684
  0
LINE
  8
0
 10
71.3963
 20
118.684
 11
71.3183
 21
118.736
  0
LINE
  8
0
 10
71.3183
 20
118.736
 11
71.2439
 21
118.794
  0
LINE
  8
0
 10
71.2439
 20
118.794
 11
71.1732
 21
118.857
  0
LINE
  8
0
 10
71.1732
 20
118.857
 11
71.1065
 21
118.923
  0
LINE
  8
0
 10
71.1065
 20
118.923
 11
71.0442
 21
118.994
  0
LINE
  8
0
 10
71.0442
 20
118.994
 11
70.9865
 21
119.068
  0
LINE
  8
0
 10
70.9865
 20
119.068
 11
70.9335
 21
119.146
  0
LINE
  8
0
 10
70.9335
 20
119.146
 11
70.8855
 21
119.227
  0
LINE
  8
0
 10
70.8855
 20
119.227
 11
70.8428
 21
119.311
  0
LINE
  8
0
 10
70.8428
 20
119.311
 11
70.8053
 21
119.398
  0
LINE
  8
0
 10
70.8053
 20
119.398
 11
70.7734
 21
119.486
  0
LINE
  8
0
 10
70.7734
 20
119.486
 11
70.7471
 21
119.577
  0
LINE
  8
0
 10
70.7471
 20
119.577
 11
70.7266
 21
119.669
  0
LINE
  8
0
 10
70.7266
 20
119.669
 11
70.7118
 21
119.762
  0
LINE
  8
0
 10
70.7118
 20
119.762
 11
70.703
 21
119.856
  0
LINE
  8
0
 10
70.703
 20
119.856
 11
70.7
 21
119.95
  0
LINE
  8
0
 10
70.7
 20
119.95
 11
70.703
 21
120.044
  0
LINE
  8
0
 10
70.703
 20
120.044
 11
70.7118
 21
120.138
  0
LINE
  8
0
 10
70.7118
 20
120.138
 11
70.7266
 21
120.231
  0
LINE
  8
0
 10
70.7266
 20
120.231
 11
70.7471
 21
120.323
  0
LINE
  8
0
 10
70.7471
 20
120.323
 11
70.7734
 21
120.414
  0
LINE
  8
0
 10
70.7734
 20
120.414
 11
70.8053
 21
120.502
  0
LINE
  8
0
 10
70.8053
 20
120.502
 11
70.8428
 21
120.589
  0
LINE
  8
0
 10
70.8428
 20
120.589
 11
70.8855
 21
120.673
  0
LINE
  8
0
 10
70.8855
 20
120.673
 11
70.9335
 21
120.754
  0
LINE
  8
0
 10
70.9335
 20
120.754
 11
70.9865
 21
120.832
  0
LINE
  8
0
 10
70.9865
 20
120.832
 11
71.0442
 21
120.906
  0
LINE
  8
0
 10
71.0442
 20
120.906
 11
71.1065
 21
120.977
  0
LINE
  8
0
 10
71.1065
 20
120.977
 11
71.1732
 21
121.043
  0
LINE
  8
0
 10
71.1732
 20
121.043
 11
71.2439
 21
121.106
  0
LINE
  8
0
 10
71.2439
 20
121.106
 11
71.3183
 21
121.164
  0
LINE
  8
0
 10
71.3183
 20
121.164
 11
71.3963
 21
121.216
  0
LINE
  8
0
 10
71.3963
 20
121.216
 11
71.4774
 21
121.264
  0
LINE
  8
0
 10
71.4774
 20
121.264
 11
71.5613
 21
121.307
  0
LINE
  8
0
 10
71.5613
 20
121.307
 11
71.6478
 21
121.345
  0
LINE
  8
0
 10
71.6478
 20
121.345
 11
71.7365
 21
121.377
  0
LINE
  8
0
 10
71.7365
 20
121.377
 11
71.827
 21
121.403
  0
LINE
  8
0
 10
71.827
 20
121.403
 11
71.9189
 21
121.423
  0
LINE
  8
0
 10
71.9189
 20
121.423
 11
72.012
 21
121.438
  0
LINE
  8
0
 10
72.012
 20
121.438
 11
72.1058
 21
121.447
  0
LINE
  8
0
 10
72.1058
 20
121.447
 11
72.2
 21
121.45
  0
LINE
  8
0
 10
72.2
 20
121.45
 11
72.2942
 21
121.447
  0
LINE
  8
0
 10
72.2942
 20
121.447
 11
72.388
 21
121.438
  0
LINE
  8
0
 10
72.388
 20
121.438
 11
72.4811
 21
121.423
  0
LINE
  8
0
 10
72.4811
 20
121.423
 11
72.573
 21
121.403
  0
LINE
  8
0
 10
72.573
 20
121.403
 11
72.6635
 21
121.377
  0
LINE
  8
0
 10
72.6635
 20
121.377
 11
72.7522
 21
121.345
  0
LINE
  8
0
 10
72.7522
 20
121.345
 11
72.8387
 21
121.307
  0
LINE
  8
0
 10
72.8387
 20
121.307
 11
72.9226
 21
121.264
  0
LINE
  8
0
 10
72.9226
 20
121.264
 11
73.0037
 21
121.216
  0
LINE
  8
0
 10
73.0037
 20
121.216
 11
73.0817
 21
121.164
  0
LINE
  8
0
 10
73.0817
 20
121.164
 11
73.1561
 21
121.106
  0
LINE
  8
0
 10
73.1561
 20
121.106
 11
73.2268
 21
121.043
  0
LINE
  8
0
 10
73.2268
 20
121.043
 11
73.2934
 21
120.977
  0
LINE
  8
0
 10
73.2934
 20
120.977
 11
73.3558
 21
120.906
  0
LINE
  8
0
 10
73.3558
 20
120.906
 11
73.4135
 21
120.832
  0
LINE
  8
0
 10
73.4135
 20
120.832
 11
73.4665
 21
120.754
  0
LINE
  8
0
 10
73.4665
 20
120.754
 11
73.5145
 21
120.673
  0
LINE
  8
0
 10
73.5145
 20
120.673
 11
73.5572
 21
120.589
  0
LINE
  8
0
 10
73.5572
 20
120.589
 11
73.5947
 21
120.502
  0
LINE
  8
0
 10
73.5947
 20
120.502
 11
73.6266
 21
120.414
  0
LINE
  8
0
 10
73.6266
 20
120.414
 11
73.6529
 21
120.323
  0
LINE
  8
0
 10
73.6529
 20
120.323
 11
73.6734
 21
120.231
  0
LINE
  8
0
 10
73.6734
 20
120.231
 11
73.6882
 21
120.138
  0
LINE
  8
0
 10
73.6882
 20
120.138
 11
73.697
 21
120.044
  0
LINE
  8
0
 10
73.697
 20
120.044
 11
73.7
 21
119.95
  0
LINE
  8
0
 10
73.7
 20
119.95
 11
73.697
 21
119.856
  0
LINE
  8
0
 10
73.697
 20
119.856
 11
73.6882
 21
119.762
  0
LINE
  8
0
 10
73.6882
 20
119.762
 11
73.6734
 21
119.669
  0
LINE
  8
0
 10
73.6734
 20
119.669
 11
73.6529
 21
119.577
  0
LINE
  8
0
 10
73.6529
 20
119.577
 11
73.6266
 21
119.486
  0
LINE
  8
0
 10
73.6266
 20
119.486
 11
73.5947
 21
119.398
  0
LINE
  8
0
 10
73.5947
 20
119.398
 11
73.5572
 21
119.311
  0
LINE
  8
0
 10
73.5572
 20
119.311
 11
73.5145
 21
119.227
  0
LINE
  8
0
 10
73.5145
 20
119.227
 11
73.4665
 21
119.146
  0
LINE
  8
0
 10
73.4665
 20
119.146
 11
73.4135
 21
119.068
  0
LINE
  8
0
 10
73.4135
 20
119.068
 11
73.3558
 21
118.994
  0
LINE
  8
0
 10
73.3558
 20
118.994
 11
73.2934
 21
118.923
  0
LINE
  8
0
 10
73.2934
 20
118.923
 11
73.2268
 21
118.857
  0
LINE
  8
0
 10
73.2268
 20
118.857
 11
73.1561
 21
118.794
  0
LINE
  8
0
 10
73.1561
 20
118.794
 11
73.0817
 21
118.736
  0
LINE
  8
0
 10
73.0817
 20
118.736
 11
73.0037
 21
118.684
  0
LINE
  8
0
 10
73.0037
 20
118.684
 11
72.9226
 21
118.636
  0
LINE
  8
0
 10
72.9226
 20
118.636
 11
72.8387
 21
118.593
  0
LINE
  8
0
 10
72.8387
 20
118.593
 11
72.7522
 21
118.555
  0
LINE
  8
0
 10
72.7522
 20
118.555
 11
72.6635
 21
118.523
  0
LINE
  8
0
 10
72.6635
 20
118.523
 11
72.573
 21
118.497
  0
LINE
  8
0
 10
72.573
 20
118.497
 11
72.4811
 21
118.477
  0
LINE
  8
0
 10
72.4811
 20
118.477
 11
72.388
 21
118.462
  0
LINE
  8
0
 10
72.388
 20
118.462
 11
72.2942
 21
118.453
  0
LINE
  8
0
 10
72.2942
 20
118.453
 11
72.2
 21
118.45
  0
LINE
  8
0
 10
72.2
 20
118.45
 11
72.1058
 21
118.453
  0
LINE
  8
0
 10
72.1058
 20
90.5529
 11
72.012
 21
90.5618
  0
LINE
  8
0
 10
72.012
 20
90.5618
 11
71.9189
 21
90.5766
  0
LINE
  8
0
 10
71.9189
 20
90.5766
 11
71.827
 21
90.5971
  0
LINE
  8
0
 10
71.827
 20
90.5971
 11
71.7365
 21
90.6234
  0
LINE
  8
0
 10
71.7365
 20
90.6234
 11
71.6478
 21
90.6553
  0
LINE
  8
0
 10
71.6478
 20
90.6553
 11
71.5613
 21
90.6927
  0
LINE
  8
0
 10
71.5613
 20
90.6927
 11
71.4774
 21
90.7355
  0
LINE
  8
0
 10
71.4774
 20
90.7355
 11
71.3963
 21
90.7835
  0
LINE
  8
0
 10
71.3963
 20
90.7835
 11
71.3183
 21
90.8365
  0
LINE
  8
0
 10
71.3183
 20
90.8365
 11
71.2439
 21
90.8942
  0
LINE
  8
0
 10
71.2439
 20
90.8942
 11
71.1732
 21
90.9565
  0
LINE
  8
0
 10
71.1732
 20
90.9565
 11
71.1065
 21
91.0232
  0
LINE
  8
0
 10
71.1065
 20
91.0232
 11
71.0442
 21
91.0939
  0
LINE
  8
0
 10
71.0442
 20
91.0939
 11
70.9865
 21
91.1683
  0
LINE
  8
0
 10
70.9865
 20
91.1683
 11
70.9335
 21
91.2462
  0
LINE
  8
0
 10
70.9335
 20
91.2462
 11
70.8855
 21
91.3274
  0
LINE
  8
0
 10
70.8855
 20
91.3274
 11
70.8428
 21
91.4113
  0
LINE
  8
0
 10
70.8428
 20
91.4113
 11
70.8053
 21
91.4978
  0
LINE
  8
0
 10
70.8053
 20
91.4978
 11
70.7734
 21
91.5865
  0
LINE
  8
0
 10
70.7734
 20
91.5865
 11
70.7471
 21
91.677
  0
LINE
  8
0
 10
70.7471
 20
91.677
 11
70.7266
 21
91.7689
  0
LINE
  8
0
 10
70.7266
 20
91.7689
 11
70.7118
 21
91.862
  0
LINE
  8
0
 10
70.7118
 20
91.862
 11
70.703
 21
91.9558
  0
LINE
  8
0
 10
70.703
 20
91.9558
 11
70.7
 21
92.05
  0
LINE
  8
0
 10
70.7
 20
92.05
 11
70.703
 21
92.1442
  0
LINE
  8
0
 10
70.703
 20
92.1442
 11
70.7118
 21
92.238
  0
LINE
  8
0
 10
70.7118
 20
92.238
 11
70.7266
 21
92.3311
  0
LINE
  8
0
 10
70.7266
 20
92.3311
 11
70.7471
 21
92.423
  0
LINE
  8
0
 10
70.7471
 20
92.423
 11
70.7734
 21
92.5135
  0
LINE
  8
0
 10
70.7734
 20
92.5135
 11
70.8053
 21
92.6022
  0
LINE
  8
0
 10
70.8053
 20
92.6022
 11
70.8428
 21
92.6887
  0
LINE
  8
0
 10
70.8428
 20
92.6887
 11
70.8855
 21
92.7726
  0
LINE
  8
0
 10
70.8855
 20
92.7726
 11
70.9335
 21
92.8537
  0
LINE
  8
0
 10
70.9335
 20
92.8537
 11
70.9865
 21
92.9317
  0
LINE
  8
0
 10
70.9865
 20
92.9317
 11
71.0442
 21
93.0061
  0
LINE
  8
0
 10
71.0442
 20
93.0061
 11
71.1065
 21
93.0768
  0
LINE
  8
0
 10
71.1065
 20
93.0768
 11
71.1732
 21
93.1434
  0
LINE
  8
0
 10
71.1732
 20
93.1434
 11
71.2439
 21
93.2058
  0
LINE
  8
0
 10
71.2439
 20
93.2058
 11
71.3183
 21
93.2635
  0
LINE
  8
0
 10
71.3183
 20
93.2635
 11
71.3963
 21
93.3165
  0
LINE
  8
0
 10
71.3963
 20
93.3165
 11
71.4774
 21
93.3645
  0
LINE
  8
0
 10
71.4774
 20
93.3645
 11
71.5613
 21
93.4072
  0
LINE
  8
0
 10
71.5613
 20
93.4072
 11
71.6478
 21
93.4447
  0
LINE
  8
0
 10
71.6478
 20
93.4447
 11
71.7365
 21
93.4766
  0
LINE
  8
0
 10
71.7365
 20
93.4766
 11
71.827
 21
93.5029
  0
LINE
  8
0
 10
71.827
 20
93.5029
 11
71.9189
 21
93.5234
  0
LINE
  8
0
 10
71.9189
 20
93.5234
 11
72.012
 21
93.5382
  0
LINE
  8
0
 10
72.012
 20
93.5382
 11
72.1058
 21
93.547
  0
LINE
  8
0
 10
72.1058
 20
93.547
 11
72.2
 21
93.55
  0
LINE
  8
0
 10
72.2
 20
93.55
 11
72.2942
 21
93.547
  0
LINE
  8
0
 10
72.2942
 20
93.547
 11
72.388
 21
93.5382
  0
LINE
  8
0
 10
72.388
 20
93.5382
 11
72.4811
 21
93.5234
  0
LINE
  8
0
 10
72.4811
 20
93.5234
 11
72.573
 21
93.5029
  0
LINE
  8
0
 10
72.573
 20
93.5029
 11
72.6635
 21
93.4766
  0
LINE
  8
0
 10
72.6635
 20
93.4766
 11
72.7522
 21
93.4447
  0
LINE
  8
0
 10
72.7522
 20
93.4447
 11
72.8387
 21
93.4072
  0
LINE
  8
0
 10
72.8387
 20
93.4072
 11
72.9226
 21
93.3645
  0
LINE
  8
0
 10
72.9226
 20
93.3645
 11
73.0037
 21
93.3165
  0
LINE
  8
0
 10
73.0037
 20
93.3165
 11
73.0817
 21
93.2635
  0
LINE
  8
0
 10
73.0817
 20
93.2635
 11
73.1561
 21
93.2058
  0
LINE
  8
0
 10
73.1561
 20
93.2058
 11
73.2268
 21
93.1434
  0
LINE
  8
0
 10
73.2268
 20
93.1434
 11
73.2934
 21
93.0768
  0
LINE
  8
0
 10
73.2934
 20
93.0768
 11
73.3558
 21
93.0061
  0
LINE
  8
0
 10
73.3558
 20
93.0061
 11
73.4135
 21
92.9317
  0
LINE
  8
0
 10
73.4135
 20
92.9317
 11
73.4665
 21
92.8537
  0
LINE
  8
0
 10
73.4665
 20
92.8537
 11
73.5145
 21
92.7726
  0
LINE
  8
0
 10
73.5145
 20
92.7726
 11
73.5572
 21
92.6887
  0
LINE
  8
0
 10
73.5572
 20
92.6887
 11
73.5947
 21
92.6022
  0
LINE
  8
0
 10
73.5947
 20
92.6022
 11
73.6266
 21
92.5135
  0
LINE
  8
0
 10
73.6266
 20
92.5135
 11
73.6529
 21
92.423
  0
LINE
  8
0
 10
73.6529
 20
92.423
 11
73.6734
 21
92.3311
  0
LINE
  8
0
 10
73.6734
 20
92.3311
 11
73.6882
 21
92.238
  0
LINE
  8
0
 10
73.6882
 20
92.238
 11
73.697
 21
92.1442
  0
LINE
  8
0
 10
73.697
 20
92.1442
 11
73.7
 21
92.05
  0
LINE
  8
0
 10
73.7
 20
92.05
 11
73.697
 21
91.9558
  0
LINE
  8
0
 10
73.697
 20
91.9558
 11
73.6882
 21
91.862
  0
LINE
  8
0
 10
73.6882
 20
91.862
 11
73.6734
 21
91.7689
  0
LINE
  8
0
 10
73.6734
 20
91.7689
 11
73.6529
 21
91.677
  0
LINE
  8
0
 10
73.6529
 20
91.677
 11
73.6266
 21
91.5865
  0
LINE
  8
0
 10
73.6266
 20
91.5865
 11
73.5947
 21
91.4978
  0
LINE
  8
0
 10
73.5947
 20
91.4978
 11
73.5572
 21
91.4113
  0
LINE
  8
0
 10
73.5572
 20
91.4113
 11
73.5145
 21
91.3274
  0
LINE
  8
0
 10
73.5145
 20
91.3274
 11
73.4665
 21
91.2462
  0
LINE
  8
0
 10
73.4665
 20
91.2462
 11
73.4135
 21
91.1683
  0
LINE
  8
0
 10
73.4135
 20
91.1683
 11
73.3558
 21
91.0939
  0
LINE
  8
0
 10
73.3558
 20
91.0939
 11
73.2934
 21
91.0232
  0
LINE
  8
0
 10
73.2934
 20
91.0232
 11
73.2268
 21
90.9565
  0
LINE
  8
0
 10
73.2268
 20
90.9565
 11
73.1561
 21
90.8942
  0
LINE
  8
0
 10
73.1561
 20
90.8942
 11
73.0817
 21
90.8365
  0
LINE
  8
0
 10
73.0817
 20
90.8365
 11
73.0037
 21
90.7835
  0
LINE
  8
0
 10
73.0037
 20
90.7835
 11
72.9226
 21
90.7355
  0
LINE
  8
0
 10
72.9226
 20
90.7355
 11
72.8387
 21
90.6927
  0
LINE
  8
0
 10
72.8387
 20
90.6927
 11
72.7522
 21
90.6553
  0
LINE
  8
0
 10
72.7522
 20
90.6553
 11
72.6635
 21
90.6234
  0
LINE
  8
0
 10
72.6635
 20
90.6234
 11
72.573
 21
90.5971
  0
LINE
  8
0
 10
72.573
 20
90.5971
 11
72.4811
 21
90.5766
  0
LINE
  8
0
 10
72.4811
 20
90.5766
 11
72.388
 21
90.5618
  0
LINE
  8
0
 10
72.388
 20
90.5618
 11
72.2942
 21
90.5529
  0
LINE
  8
0
 10
72.2942
 20
90.5529
 11
72.2
 21
90.55
  0
LINE
  8
0
 10
72.2
 20
90.55
 11
72.1058
 21
90.5529
  0
LINE
  8
0
 10
122.906
 20
75.353
 11
122.812
 21
75.3618
  0
LINE
  8
0
 10
122.812
 20
75.3618
 11
122.719
 21
75.3766
  0
LINE
  8
0
 10
122.719
 20
75.3766
 11
122.627
 21
75.3971
  0
LINE
  8
0
 10
122.627
 20
75.3971
 11
122.536
 21
75.4234
  0
LINE
  8
0
 10
122.536
 20
75.4234
 11
122.448
 21
75.4553
  0
LINE
  8
0
 10
122.448
 20
75.4553
 11
122.361
 21
75.4928
  0
LINE
  8
0
 10
122.361
 20
75.4928
 11
122.277
 21
75.5355
  0
LINE
  8
0
 10
122.277
 20
75.5355
 11
122.196
 21
75.5835
  0
LINE
  8
0
 10
122.196
 20
75.5835
 11
122.118
 21
75.6365
  0
LINE
  8
0
 10
122.118
 20
75.6365
 11
122.044
 21
75.6942
  0
LINE
  8
0
 10
122.044
 20
75.6942
 11
121.973
 21
75.7565
  0
LINE
  8
0
 10
121.973
 20
75.7565
 11
121.907
 21
75.8232
  0
LINE
  8
0
 10
121.907
 20
75.8232
 11
121.844
 21
75.8939
  0
LINE
  8
0
 10
121.844
 20
75.8939
 11
121.786
 21
75.9683
  0
LINE
  8
0
 10
121.786
 20
75.9683
 11
121.734
 21
76.0462
  0
LINE
  8
0
 10
121.734
 20
76.0462
 11
121.686
 21
76.1274
  0
LINE
  8
0
 10
121.686
 20
76.1274
 11
121.643
 21
76.2113
  0
LINE
  8
0
 10
121.643
 20
76.2113
 11
121.605
 21
76.2978
  0
LINE
  8
0
 10
121.605
 20
76.2978
 11
121.573
 21
76.3865
  0
LINE
  8
0
 10
121.573
 20
76.3865
 11
121.547
 21
76.477
  0
LINE
  8
0
 10
121.547
 20
76.477
 11
121.527
 21
76.5689
  0
LINE
  8
0
 10
121.527
 20
76.5689
 11
121.512
 21
76.662
  0
LINE
  8
0
 10
121.512
 20
76.662
 11
121.503
 21
76.7558
  0
LINE
  8
0
 10
121.503
 20
76.7558
 11
121.5
 21
76.85
  0
LINE
  8
0
 10
121.5
 20
76.85
 11
121.503
 21
76.9442
  0
LINE
  8
0
 10
121.503
 20
76.9442
 11
121.512
 21
77.038
  0
LINE
  8
0
 10
121.512
 20
77.038
 11
121.527
 21
77.1311
  0
LINE
  8
0
 10
121.527
 20
77.1311
 11
121.547
 21
77.223
  0
LINE
  8
0
 10
121.547
 20
77.223
 11
121.573
 21
77.3135
  0
LINE
  8
0
 10
121.573
 20
77.3135
 11
121.605
 21
77.4022
  0
LINE
  8
0
 10
121.605
 20
77.4022
 11
121.643
 21
77.4887
  0
LINE
  8
0
 10
121.643
 20
77.4887
 11
121.686
 21
77.5726
  0
LINE
  8
0
 10
121.686
 20
77.5726
 11
121.734
 21
77.6537
  0
LINE
  8
0
 10
121.734
 20
77.6537
 11
121.786
 21
77.7317
  0
LINE
  8
0
 10
121.786
 20
77.7317
 11
121.844
 21
77.8061
  0
LINE
  8
0
 10
121.844
 20
77.8061
 11
121.907
 21
77.8768
  0
LINE
  8
0
 10
121.907
 20
77.8768
 11
121.973
 21
77.9435
  0
LINE
  8
0
 10
121.973
 20
77.9435
 11
122.044
 21
78.0058
  0
LINE
  8
0
 10
122.044
 20
78.0058
 11
122.118
 21
78.0635
  0
LINE
  8
0
 10
122.118
 20
78.0635
 11
122.196
 21
78.1165
  0
LINE
  8
0
 10
122.196
 20
78.1165
 11
122.277
 21
78.1645
  0
LINE
  8
0
 10
122.277
 20
78.1645
 11
122.361
 21
78.2072
  0
LINE
  8
0
 10
122.361
 20
78.2072
 11
122.448
 21
78.2447
  0
LINE
  8
0
 10
122.448
 20
78.2447
 11
122.536
 21
78.2766
  0
LINE
  8
0
 10
122.536
 20
78.2766
 11
122.627
 21
78.3029
  0
LINE
  8
0
 10
122.627
 20
78.3029
 11
122.719
 21
78.3234
  0
LINE
  8
0
 10
122.719
 20
78.3234
 11
122.812
 21
78.3382
  0
LINE
  8
0
 10
122.812
 20
78.3382
 11
122.906
 21
78.347
  0
LINE
  8
0
 10
122.906
 20
78.347
 11
123
 21
78.35
  0
LINE
  8
0
 10
123
 20
78.35
 11
123.094
 21
78.347
  0
LINE
  8
0
 10
123.094
 20
78.347
 11
123.188
 21
78.3382
  0
LINE
  8
0
 10
123.188
 20
78.3382
 11
123.281
 21
78.3234
  0
LINE
  8
0
 10
123.281
 20
78.3234
 11
123.373
 21
78.3029
  0
LINE
  8
0
 10
123.373
 20
78.3029
 11
123.464
 21
78.2766
  0
LINE
  8
0
 10
123.464
 20
78.2766
 11
123.552
 21
78.2447
  0
LINE
  8
0
 10
123.552
 20
78.2447
 11
123.639
 21
78.2072
  0
LINE
  8
0
 10
123.639
 20
78.2072
 11
123.723
 21
78.1645
  0
LINE
  8
0
 10
123.723
 20
78.1645
 11
123.804
 21
78.1165
  0
LINE
  8
0
 10
123.804
 20
78.1165
 11
123.882
 21
78.0635
  0
LINE
  8
0
 10
123.882
 20
78.0635
 11
123.956
 21
78.0058
  0
LINE
  8
0
 10
123.956
 20
78.0058
 11
124.027
 21
77.9435
  0
LINE
  8
0
 10
124.027
 20
77.9435
 11
124.093
 21
77.8768
  0
LINE
  8
0
 10
124.093
 20
77.8768
 11
124.156
 21
77.8061
  0
LINE
  8
0
 10
124.156
 20
77.8061
 11
124.214
 21
77.7317
  0
LINE
  8
0
 10
124.214
 20
77.7317
 11
124.266
 21
77.6537
  0
LINE
  8
0
 10
124.266
 20
77.6537
 11
124.314
 21
77.5726
  0
LINE
  8
0
 10
124.314
 20
77.5726
 11
124.357
 21
77.4887
  0
LINE
  8
0
 10
124.357
 20
77.4887
 11
124.395
 21
77.4022
  0
LINE
  8
0
 10
124.395
 20
77.4022
 11
124.427
 21
77.3135
  0
LINE
  8
0
 10
124.427
 20
77.3135
 11
124.453
 21
77.223
  0
LINE
  8
0
 10
124.453
 20
77.223
 11
124.473
 21
77.1311
  0
LINE
  8
0
 10
124.473
 20
77.1311
 11
124.488
 21
77.038
  0
LINE
  8
0
 10
124.488
 20
77.038
 11
124.497
 21
76.9442
  0
LINE
  8
0
 10
124.497
 20
76.9442
 11
124.5
 21
76.85
  0
LINE
  8
0
 10
124.5
 20
76.85
 11
124.497
 21
76.7558
  0
LINE
  8
0
 10
124.497
 20
76.7558
 11
124.488
 21
76.662
  0
LINE
  8
0
 10
124.488
 20
76.662
 11
124.473
 21
76.5689
  0
LINE
  8
0
 10
124.473
 20
76.5689
 11
124.453
 21
76.477
  0
LINE
  8
0
 10
124.453
 20
76.477
 11
124.427
 21
76.3865
  0
LINE
  8
0
 10
124.427
 20
76.3865
 11
124.395
 21
76.2978
  0
LINE
  8
0
 10
124.395
 20
76.2978
 11
124.357
 21
76.2113
  0
LINE
  8
0
 10
124.357
 20
76.2113
 11
124.314
 21
76.1274
  0
LINE
  8
0
 10
124.314
 20
76.1274
 11
124.266
 21
76.0462
  0
LINE
  8
0
 10
124.266
 20
76.0462
 11
124.214
 21
75.9683
  0
LINE
  8
0
 10
124.214
 20
75.9683
 11
124.156
 21
75.8939
  0
LINE
  8
0
 10
124.156
 20
75.8939
 11
124.093
 21
75.8232
  0
LINE
  8
0
 10
124.093
 20
75.8232
 11
124.027
 21
75.7565
  0
LINE
  8
0
 10
124.027
 20
75.7565
 11
123.956
 21
75.6942
  0
LINE
  8
0
 10
123.956
 20
75.6942
 11
123.882
 21
75.6365
  0
LINE
  8
0
 10
123.882
 20
75.6365
 11
123.804
 21
75.5835
  0
LINE
  8
0
 10
123.804
 20
75.5835
 11
123.723
 21
75.5355
  0
LINE
  8
0
 10
123.723
 20
75.5355
 11
123.639
 21
75.4928
  0
LINE
  8
0
 10
123.639
 20
75.4928
 11
123.552
 21
75.4553
  0
LINE
  8
0
 10
123.552
 20
75.4553
 11
123.464
 21
75.4234
  0
LINE
  8
0
 10
123.464
 20
75.4234
 11
123.373
 21
75.3971
  0
LINE
  8
0
 10
123.373
 20
75.3971
 11
123.281
 21
75.3766
  0
LINE
  8
0
 10
123.281
 20
75.3766
 11
123.188
 21
75.3618
  0
LINE
  8
0
 10
123.188
 20
75.3618
 11
123.094
 21
75.353
  0
LINE
  8
0
 10
123.094
 20
75.353
 11
123
 21
75.35
  0
LINE
  8
0
 10
123
 20
75.35
 11
122.906
 21
75.353
  0
LINE
  8
0
 10
24
 20
71
 11
42
 21
71
  0
LINE
  8
0
 10
42
 20
71
 11
42
 21
68
  0
LINE
  8
0
 10
42
 20
68
 11
54
 21
68
  0
LINE
  8
0
 10
54
 20
68
 11
54
 21
71
  0
LINE
  8
0
 10
54
 20
71
 11
63
 21
71
  0
LINE
  8
0
 10
63
 20
71
 11
63
 21
80
  0
LINE
  8
0
 10
63
 20
80
 11
66
 21
80
  0
LINE
  8
0
 10
66
 20
80
 11
66
 21
84.5
  0
LINE
  8
0
 10
66
 20
84.5
 11
64.5
 21
84.5
  0
LINE
  8
0
 10
64.5
 20
84.5
 11
64.4058
 21
84.5029
  0
LINE
  8
0
 10
64.4058
 20
84.5029
 11
64.312
 21
84.5118
  0
LINE
  8
0
 10
64.312
 20
84.5118
 11
64.2189
 21
84.5266
  0
LINE
  8
0
 10
64.2189
 20
84.5266
 11
64.127
 21
84.5471
  0
LINE
  8
0
 10
64.127
 20
84.5471
 11
64.0365
 21
84.5734
  0
LINE
  8
0
 10
64.0365
 20
84.5734
 11
63.9478
 21
84.6053
  0
LINE
  8
0
 10
63.9478
 20
84.6053
 11
63.8613
 21
84.6427
  0
LINE
  8
0
 10
63.8613
 20
84.6427
 11
63.7774
 21
84.6855
  0
LINE
  8
0
 10
63.7774
 20
84.6855
 11
63.6963
 21
84.7335
  0
LINE
  8
0
 10
63.6963
 20
84.7335
 11
63.6183
 21
84.7865
  0
LINE
  8
0
 10
63.6183
 20
84.7865
 11
63.5439
 21
84.8442
  0
LINE
  8
0
 10
63.5439
 20
84.8442
 11
63.4732
 21
84.9065
  0
LINE
  8
0
 10
63.4732
 20
84.9065
 11
63.4065
 21
84.9732
  0
LINE
  8
0
 10
63.4065
 20
84.9732
 11
63.3442
 21
85.0439
  0
LINE
  8
0
 10
63.3442
 20
85.0439
 11
63.2865
 21
85.1183
  0
LINE
  8
0
 10
63.2865
 20
85.1183
 11
63.2335
 21
85.1963
  0
LINE
  8
0
 10
63.2335
 20
85.1963
 11
63.1855
 21
85.2774
  0
LINE
  8
0
 10
63.1855
 20
85.2774
 11
63.1427
 21
85.3613
  0
LINE
  8
0
 10
63.1427
 20
85.3613
 11
63.1053
 21
85.4478
  0
LINE
  8
0
 10
63.1053
 20
85.4478
 11
63.0734
 21
85.5365
  0
LINE
  8
0
 10
63.0734
 20
85.5365
 11
63.0471
 21
85.627
  0
LINE
  8
0
 10
63.0471
 20
85.627
 11
63.0266
 21
85.7189
  0
LINE
  8
0
 10
63.0266
 20
85.7189
 11
63.0118
 21
85.812
  0
LINE
  8
0
 10
63.0118
 20
85.812
 11
63.0029
 21
85.9058
  0
LINE
  8
0
 10
63.0029
 20
85.9058
 11
63
 21
86
  0
LINE
  8
0
 10
63
 20
86
 11
63.0029
 21
86.0942
  0
LINE
  8
0
 10
63.0029
 20
86.0942
 11
63.0118
 21
86.188
  0
LINE
  8
0
 10
63.0118
 20
86.188
 11
63.0266
 21
86.2811
  0
LINE
  8
0
 10
63.0266
 20
86.2811
 11
63.0471
 21
86.373
  0
LINE
  8
0
 10
63.0471
 20
86.373
 11
63.0734
 21
86.4635
  0
LINE
  8
0
 10
63.0734
 20
86.4635
 11
63.1053
 21
86.5522
  0
LINE
  8
0
 10
63.1053
 20
86.5522
 11
63.1427
 21
86.6387
  0
LINE
  8
0
 10
63.1427
 20
86.6387
 11
63.1855
 21
86.7226
  0
LINE
  8
0
 10
63.1855
 20
86.7226
 11
63.2335
 21
86.8037
  0
LINE
  8
0
 10
63.2335
 20
86.8037
 11
63.2865
 21
86.8817
  0
LINE
  8
0
 10
63.2865
 20
86.8817
 11
63.3442
 21
86.9561
  0
LINE
  8
0
 10
63.3442
 20
86.9561
 11
63.4065
 21
87.0268
  0
LINE
  8
0
 10
63.4065
 20
87.0268
 11
63.4732
 21
87.0934
  0
LINE
  8
0
 10
63.4732
 20
87.0934
 11
63.5439
 21
87.1558
  0
LINE
  8
0
 10
63.5439
 20
87.1558
 11
63.6183
 21
87.2135
  0
LINE
  8
0
 10
63.6183
 20
87.2135
 11
63.6963
 21
87.2665
  0
LINE
  8
0
 10
63.6963
 20
87.2665
 11
63.7774
 21
87.3145
  0
LINE
  8
0
 10
63.7774
 20
87.3145
 11
63.8613
 21
87.3572
  0
LINE
  8
0
 10
63.8613
 20
87.3572
 11
63.9478
 21
87.3947
  0
LINE
  8
0
 10
63.9478
 20
87.3947
 11
64.0365
 21
87.4266
  0
LINE
  8
0
 10
64.0365
 20
87.4266
 11
64.127
 21
87.4529
  0
LINE
  8
0
 10
64.127
 20
87.4529
 11
64.2189
 21
87.4734
  0
LINE
  8
0
 10
64.2189
 20
87.4734
 11
64.312
 21
87.4882
  0
LINE
  8
0
 10
64.312
 20
87.4882
 11
64.4058
 21
87.497
  0
LINE
  8
0
 10
64.4058
 20
87.497
 11
64.5
 21
87.5
  0
LINE
  8
0
 10
64.5
 20
87.5
 11
66
 21
87.5
  0
LINE
  8
0
 10
66
 20
87.5
 11
66
 21
92
  0
LINE
  8
0
 10
66
 20
92
 11
63
 21
92
  0
LINE
  8
0
 10
63
 20
92
 11
63
 21
110
  0
LINE
  8
0
 10
63
 20
110
 11
66
 21
110
  0
LINE
  8
0
 10
66
 20
110
 11
66
 21
114.5
  0
LINE
  8
0
 10
66
 20
114.5
 11
64.5
 21
114.5
  0
LINE
  8
0
 10
64.5
 20
114.5
 11
64.4058
 21
114.503
  0
LINE
  8
0
 10
64.4058
 20
114.503
 11
64.312
 21
114.512
  0
LINE
  8
0
 10
64.312
 20
114.512
 11
64.2189
 21
114.527
  0
LINE
  8
0
 10
64.2189
 20
114.527
 11
64.127
 21
114.547
  0
LINE
  8
0
 10
64.127
 20
114.547
 11
64.0365
 21
114.573
  0
LINE
  8
0
 10
64.0365
 20
114.573
 11
63.9478
 21
114.605
  0
LINE
  8
0
 10
63.9478
 20
114.605
 11
63.8613
 21
114.643
  0
LINE
  8
0
 10
63.8613
 20
114.643
 11
63.7774
 21
114.686
  0
LINE
  8
0
 10
63.7774
 20
114.686
 11
63.6963
 21
114.734
  0
LINE
  8
0
 10
63.6963
 20
114.734
 11
63.6183
 21
114.786
  0
LINE
  8
0
 10
63.6183
 20
114.786
 11
63.5439
 21
114.844
  0
LINE
  8
0
 10
63.5439
 20
114.844
 11
63.4732
 21
114.907
  0
LINE
  8
0
 10
63.4732
 20
114.907
 11
63.4065
 21
114.973
  0
LINE
  8
0
 10
63.4065
 20
114.973
 11
63.3442
 21
115.044
  0
LINE
  8
0
 10
63.3442
 20
115.044
 11
63.2865
 21
115.118
  0
LINE
  8
0
 10
63.2865
 20
115.118
 11
63.2335
 21
115.196
  0
LINE
  8
0
 10
63.2335
 20
115.196
 11
63.1855
 21
115.277
  0
LINE
  8
0
 10
63.1855
 20
115.277
 11
63.1427
 21
115.361
  0
LINE
  8
0
 10
63.1427
 20
115.361
 11
63.1053
 21
115.448
  0
LINE
  8
0
 10
63.1053
 20
115.448
 11
63.0734
 21
115.536
  0
LINE
  8
0
 10
63.0734
 20
115.536
 11
63.0471
 21
115.627
  0
LINE
  8
0
 10
63.0471
 20
115.627
 11
63.0266
 21
115.719
  0
LINE
  8
0
 10
63.0266
 20
115.719
 11
63.0118
 21
115.812
  0
LINE
  8
0
 10
63.0118
 20
115.812
 11
63.0029
 21
115.906
  0
LINE
  8
0
 10
63.0029
 20
115.906
 11
63
 21
116
  0
LINE
  8
0
 10
63
 20
116
 11
63.0029
 21
116.094
  0
LINE
  8
0
 10
63.0029
 20
116.094
 11
63.0118
 21
116.188
  0
LINE
  8
0
 10
63.0118
 20
116.188
 11
63.0266
 21
116.281
  0
LINE
  8
0
 10
63.0266
 20
116.281
 11
63.0471
 21
116.373
  0
LINE
  8
0
 10
63.0471
 20
116.373
 11
63.0734
 21
116.464
  0
LINE
  8
0
 10
63.0734
 20
116.464
 11
63.1053
 21
116.552
  0
LINE
  8
0
 10
63.1053
 20
116.552
 11
63.1427
 21
116.639
  0
LINE
  8
0
 10
63.1427
 20
116.639
 11
63.1855
 21
116.723
  0
LINE
  8
0
 10
63.1855
 20
116.723
 11
63.2335
 21
116.804
  0
LINE
  8
0
 10
63.2335
 20
116.804
 11
63.2865
 21
116.882
  0
LINE
  8
0
 10
63.2865
 20
116.882
 11
63.3442
 21
116.956
  0
LINE
  8
0
 10
63.3442
 20
116.956
 11
63.4065
 21
117.027
  0
LINE
  8
0
 10
63.4065
 20
117.027
 11
63.4732
 21
117.093
  0
LINE
  8
0
 10
63.4732
 20
117.093
 11
63.5439
 21
117.156
  0
LINE
  8
0
 10
63.5439
 20
117.156
 11
63.6183
 21
117.214
  0
LINE
  8
0
 10
63.6183
 20
117.214
 11
63.6963
 21
117.266
  0
LINE
  8
0
 10
63.6963
 20
117.266
 11
63.7774
 21
117.314
  0
LINE
  8
0
 10
63.7774
 20
117.314
 11
63.8613
 21
117.357
  0
LINE
  8
0
 10
63.8613
 20
117.357
 11
63.9478
 21
117.395
  0
LINE
  8
0
 10
63.9478
 20
117.395
 11
64.0365
 21
117.427
  0
LINE
  8
0
 10
64.0365
 20
117.427
 11
64.127
 21
117.453
  0
LINE
  8
0
 10
64.127
 20
117.453
 11
64.2189
 21
117.473
  0
LINE
  8
0
 10
64.2189
 20
117.473
 11
64.312
 21
117.488
  0
LINE
  8
0
 10
64.312
 20
117.488
 11
64.4058
 21
117.497
  0
LINE
  8
0
 10
64.4058
 20
117.497
 11
64.5
 21
117.5
  0
LINE
  8
0
 10
64.5
 20
117.5
 11
66
 21
117.5
  0
LINE
  8
0
 10
66
 20
117.5
 11
66
 21
122
  0
LINE
  8
0
 10
66
 20
122
 11
63
 21
122
  0
LINE
  8
0
 10
63
 20
122
 11
63
 21
131
  0
LINE
  8
0
 10
63
 20
131
 11
54
 21
131
  0
LINE
  8
0
 10
54
 20
131
 11
54
 21
134
  0
LINE
  8
0
 10
54
 20
134
 11
42
 21
134
  0
LINE
  8
0
 10
42
 20
134
 11
42
 21
131
  0
LINE
  8
0
 10
42
 20
131
 11
24
 21
131
  0
LINE
  8
0
 10
24
 20
131
 11
24
 21
134
  0
LINE
  8
0
 10
24
 20
134
 11
12
 21
134
  0
LINE
  8
0
 10
12
 20
134
 11
12
 21
131
  0
LINE
  8
0
 10
12
 20
131
 11
3
 21
131
  0
LINE
  8
0
 10
3
 20
131
 11
3
 21
122
  0
LINE
  8
0
 10
3
 20
122
 11
0
 21
122
  0
LINE
  8
0
 10
0
 20
122
 11
0
 21
117.5
  0
LINE
  8
0
 10
0
 20
117.5
 11
1.50002
 21
117.5
  0
LINE
  8
0
 10
1.50002
 20
117.5
 11
1.59419
 21
117.497
  0
LINE
  8
0
 10
1.59419
 20
117.497
 11
1.688
 21
117.488
  0
LINE
  8
0
 10
1.688
 20
117.488
 11
1.78108
 21
117.473
  0
LINE
  8
0
 10
1.78108
 20
117.473
 11
1.87305
 21
117.453
  0
LINE
  8
0
 10
1.87305
 20
117.453
 11
1.96353
 21
117.427
  0
LINE
  8
0
 10
1.96353
 20
117.427
 11
2.0522
 21
117.395
  0
LINE
  8
0
 10
2.0522
 20
117.395
 11
2.13867
 21
117.357
  0
LINE
  8
0
 10
2.13867
 20
117.357
 11
2.22264
 21
117.314
  0
LINE
  8
0
 10
2.22264
 20
117.314
 11
2.30374
 21
117.266
  0
LINE
  8
0
 10
2.30374
 20
117.266
 11
2.38168
 21
117.214
  0
LINE
  8
0
 10
2.38168
 20
117.214
 11
2.45615
 21
117.156
  0
LINE
  8
0
 10
2.45615
 20
117.156
 11
2.52682
 21
117.093
  0
LINE
  8
0
 10
2.52682
 20
117.093
 11
2.59346
 21
117.027
  0
LINE
  8
0
 10
2.59346
 20
117.027
 11
2.65578
 21
116.956
  0
LINE
  8
0
 10
2.65578
 20
116.956
 11
2.71353
 21
116.882
  0
LINE
  8
0
 10
2.71353
 20
116.882
 11
2.76649
 21
116.804
  0
LINE
  8
0
 10
2.76649
 20
116.804
 11
2.81447
 21
116.723
  0
LINE
  8
0
 10
2.81447
 20
116.723
 11
2.85725
 21
116.639
  0
LINE
  8
0
 10
2.85725
 20
116.639
 11
2.89467
 21
116.552
  0
LINE
  8
0
 10
2.89467
 20
116.552
 11
2.92659
 21
116.464
  0
LINE
  8
0
 10
2.92659
 20
116.464
 11
2.95288
 21
116.373
  0
LINE
  8
0
 10
2.95288
 20
116.373
 11
2.97343
 21
116.281
  0
LINE
  8
0
 10
2.97343
 20
116.281
 11
2.98817
 21
116.188
  0
LINE
  8
0
 10
2.98817
 20
116.188
 11
2.99706
 21
116.094
  0
LINE
  8
0
 10
2.99706
 20
116.094
 11
3
 21
116
  0
LINE
  8
0
 10
3
 20
116
 11
2.99706
 21
115.906
  0
LINE
  8
0
 10
2.99706
 20
115.906
 11
2.98817
 21
115.812
  0
LINE
  8
0
 10
2.98817
 20
115.812
 11
2.97343
 21
115.719
  0
LINE
  8
0
 10
2.97343
 20
115.719
 11
2.95288
 21
115.627
  0
LINE
  8
0
 10
2.95288
 20
115.627
 11
2.92659
 21
115.536
  0
LINE
  8
0
 10
2.92659
 20
115.536
 11
2.89467
 21
115.448
  0
LINE
  8
0
 10
2.89467
 20
115.448
 11
2.85725
 21
115.361
  0
LINE
  8
0
 10
2.85725
 20
115.361
 11
2.81447
 21
115.277
  0
LINE
  8
0
 10
2.81447
 20
115.277
 11
2.76649
 21
115.196
  0
LINE
  8
0
 10
2.76649
 20
115.196
 11
2.71353
 21
115.118
  0
LINE
  8
0
 10
2.71353
 20
115.118
 11
2.65578
 21
115.044
  0
LINE
  8
0
 10
2.65578
 20
115.044
 11
2.59346
 21
114.973
  0
LINE
  8
0
 10
2.59346
 20
114.973
 11
2.52682
 21
114.907
  0
LINE
  8
0
 10
2.52682
 20
114.907
 11
2.45615
 21
114.844
  0
LINE
  8
0
 10
2.45615
 20
114.844
 11
2.38168
 21
114.786
  0
LINE
  8
0
 10
2.38168
 20
114.786
 11
2.30374
 21
114.734
  0
LINE
  8
0
 10
2.30374
 20
114.734
 11
2.22264
 21
114.686
  0
LINE
  8
0
 10
2.22264
 20
114.686
 11
2.13867
 21
114.643
  0
LINE
  8
0
 10
2.13867
 20
114.643
 11
2.0522
 21
114.605
  0
LINE
  8
0
 10
2.0522
 20
114.605
 11
1.96353
 21
114.573
  0
LINE
  8
0
 10
1.96353
 20
114.573
 11
1.87305
 21
114.547
  0
LINE
  8
0
 10
1.87305
 20
114.547
 11
1.78108
 21
114.527
  0
LINE
  8
0
 10
1.78108
 20
114.527
 11
1.688
 21
114.512
  0
LINE
  8
0
 10
1.688
 20
114.512
 11
1.59419
 21
114.503
  0
LINE
  8
0
 10
1.59419
 20
114.503
 11
1.5
 21
114.5
  0
LINE
  8
0
 10
1.5
 20
114.5
 11
0
 21
114.5
  0
LINE
  8
0
 10
0
 20
114.5
 11
0
 21
110
  0
LINE
  8
0
 10
0
 20
110
 11
3
 21
110
  0
LINE
  8
0
 10
3
 20
110
 11
3
 21
92
  0
LINE
  8
0
 10
3
 20
92
 11
0
 21
92
  0
LINE
  8
0
 10
0
 20
92
 11
0
 21
87.5
  0
LINE
  8
0
 10
0
 20
87.5
 11
1.50002
 21
87.5
  0
LINE
  8
0
 10
1.50002
 20
87.5
 11
1.59419
 21
87.497
  0
LINE
  8
0
 10
1.59419
 20
87.497
 11
1.688
 21
87.4882
  0
LINE
  8
0
 10
1.688
 20
87.4882
 11
1.78108
 21
87.4734
  0
LINE
  8
0
 10
1.78108
 20
87.4734
 11
1.87305
 21
87.4529
  0
LINE
  8
0
 10
1.87305
 20
87.4529
 11
1.96353
 21
87.4266
  0
LINE
  8
0
 10
1.96353
 20
87.4266
 11
2.0522
 21
87.3947
  0
LINE
  8
0
 10
2.0522
 20
87.3947
 11
2.13867
 21
87.3572
  0
LINE
  8
0
 10
2.13867
 20
87.3572
 11
2.22264
 21
87.3145
  0
LINE
  8
0
 10
2.22264
 20
87.3145
 11
2.30374
 21
87.2665
  0
LINE
  8
0
 10
2.30374
 20
87.2665
 11
2.38168
 21
87.2135
  0
LINE
  8
0
 10
2.38168
 20
87.2135
 11
2.45615
 21
87.1558
  0
LINE
  8
0
 10
2.45615
 20
87.1558
 11
2.52682
 21
87.0934
  0
LINE
  8
0
 10
2.52682
 20
87.0934
 11
2.59346
 21
87.0268
  0
LINE
  8
0
 10
2.59346
 20
87.0268
 11
2.65578
 21
86.9561
  0
LINE
  8
0
 10
2.65578
 20
86.9561
 11
2.71353
 21
86.8817
  0
LINE
  8
0
 10
2.71353
 20
86.8817
 11
2.76649
 21
86.8037
  0
LINE
  8
0
 10
2.76649
 20
86.8037
 11
2.81447
 21
86.7226
  0
LINE
  8
0
 10
2.81447
 20
86.7226
 11
2.85725
 21
86.6387
  0
LINE
  8
0
 10
2.85725
 20
86.6387
 11
2.89467
 21
86.5522
  0
LINE
  8
0
 10
2.89467
 20
86.5522
 11
2.92659
 21
86.4635
  0
LINE
  8
0
 10
2.92659
 20
86.4635
 11
2.95288
 21
86.373
  0
LINE
  8
0
 10
2.95288
 20
86.373
 11
2.97343
 21
86.2811
  0
LINE
  8
0
 10
2.97343
 20
86.2811
 11
2.98817
 21
86.188
  0
LINE
  8
0
 10
2.98817
 20
86.188
 11
2.99706
 21
86.0942
  0
LINE
  8
0
 10
2.99706
 20
86.0942
 11
3
 21
86
  0
LINE
  8
0
 10
3
 20
86
 11
2.99706
 21
85.9058
  0
LINE
  8
0
 10
2.99706
 20
85.9058
 11
2.98817
 21
85.812
  0
LINE
  8
0
 10
2.98817
 20
85.812
 11
2.97343
 21
85.7189
  0
LINE
  8
0
 10
2.97343
 20
85.7189
 11
2.95288
 21
85.627
  0
LINE
  8
0
 10
2.95288
 20
85.627
 11
2.92659
 21
85.5365
  0
LINE
  8
0
 10
2.92659
 20
85.5365
 11
2.89467
 21
85.4478
  0
LINE
  8
0
 10
2.89467
 20
85.4478
 11
2.85725
 21
85.3613
  0
LINE
  8
0
 10
2.85725
 20
85.3613
 11
2.81447
 21
85.2774
  0
LINE
  8
0
 10
2.81447
 20
85.2774
 11
2.76649
 21
85.1963
  0
LINE
  8
0
 10
2.76649
 20
85.1963
 11
2.71353
 21
85.1183
  0
LINE
  8
0
 10
2.71353
 20
85.1183
 11
2.65578
 21
85.0439
  0
LINE
  8
0
 10
2.65578
 20
85.0439
 11
2.59346
 21
84.9732
  0
LINE
  8
0
 10
2.59346
 20
84.9732
 11
2.52682
 21
84.9065
  0
LINE
  8
0
 10
2.52682
 20
84.9065
 11
2.45615
 21
84.8442
  0
LINE
  8
0
 10
2.45615
 20
84.8442
 11
2.38168
 21
84.7865
  0
LINE
  8
0
 10
2.38168
 20
84.7865
 11
2.30374
 21
84.7335
  0
LINE
  8
0
 10
2.30374
 20
84.7335
 11
2.22264
 21
84.6855
  0
LINE
  8
0
 10
2.22264
 20
84.6855
 11
2.13867
 21
84.6427
  0
LINE
  8
0
 10
2.13867
 20
84.6427
 11
2.0522
 21
84.6053
  0
LINE
  8
0
 10
2.0522
 20
84.6053
 11
1.96353
 21
84.5734
  0
LINE
  8
0
 10
1.96353
 20
84.5734
 11
1.87305
 21
84.5471
  0
LINE
  8
0
 10
1.87305
 20
84.5471
 11
1.78108
 21
84.5266
  0
LINE
  8
0
 10
1.78108
 20
84.5266
 11
1.688
 21
84.5118
  0
LINE
  8
0
 10
1.688
 20
84.5118
 11
1.59419
 21
84.5029
  0
LINE
  8
0
 10
1.59419
 20
84.5029
 11
1.5
 21
84.5
  0
LINE
  8
0
 10
1.5
 20
84.5
 11
0
 21
84.5
  0
LINE
  8
0
 10
0
 20
84.5
 11
0
 21
80
  0
LINE
  8
0
 10
0
 20
80
 11
3
 21
80
  0
LINE
  8
0
 10
3
 20
80
 11
3
 21
71
  0
LINE
  8
0
 10
3
 20
71
 11
12
 21
71
  0
LINE
  8
0
 10
12
 20
71
 11
12
 21
68
  0
LINE
  8
0
 10
12
 20
68
 11
24
 21
68
  0
LINE
  8
0
 10
24
 20
68
 11
24
 21
71
  0
LINE
  8
0
 10
50.65
 20
120
 11
50.65
 21
127
  0
LINE
  8
0
 10
50.65
 20
127
 11
58.65
 21
127
  0
LINE
  8
0
 10
58.65
 20
127
 11
58.65
 21
120
  0
LINE
  8
0
 10
58.65
 20
120
 11
50.65
 21
120
  0
LINE
  8
0
 10
47.65
 20
105
 11
47.65
 21
118
  0
LINE
  8
0
 10
47.65
 20
118
 11
56.65
 21
118
  0
LINE
  8
0
 10
56.65
 20
118
 11
56.65
 21
105
  0
LINE
  8
0
 10
56.65
 20
105
 11
47.65
 21
105
  0
LINE
  8
0
 10
14.35
 20
105
 11
14.35
 21
118
  0
LINE
  8
0
 10
14.35
 20
118
 11
28.35
 21
118
  0
LINE
  8
0
 10
28.35
 20
118
 11
28.35
 21
105
  0
LINE
  8
0
 10
28.35
 20
105
 11
14.35
 21
105
  0
LINE
  8
0
 10
269.5
 20
1.5
 11
269.503
 21
1.59418
  0
LINE
  8
0
 10
269.503
 20
1.59418
 11
269.512
 21
1.68799
  0
LINE
  8
0
 10
269.512
 20
1.68799
 11
269.527
 21
1.78107
  0
LINE
  8
0
 10
269.527
 20
1.78107
 11
269.547
 21
1.87303
  0
LINE
  8
0
 10
269.547
 20
1.87303
 11
269.573
 21
1.96352
  0
LINE
  8
0
 10
269.573
 20
1.96352
 11
269.605
 21
2.05219
  0
LINE
  8
0
 10
269.605
 20
2.05219
 11
269.643
 21
2.13866
  0
LINE
  8
0
 10
269.643
 20
2.13866
 11
269.686
 21
2.22263
  0
LINE
  8
0
 10
269.686
 20
2.22263
 11
269.734
 21
2.30373
  0
LINE
  8
0
 10
269.734
 20
2.30373
 11
269.786
 21
2.38167
  0
LINE
  8
0
 10
269.786
 20
2.38167
 11
269.844
 21
2.45613
  0
LINE
  8
0
 10
269.844
 20
2.45613
 11
269.907
 21
2.52681
  0
LINE
  8
0
 10
269.907
 20
2.52681
 11
269.973
 21
2.59344
  0
LINE
  8
0
 10
269.973
 20
2.59344
 11
270.044
 21
2.65576
  0
LINE
  8
0
 10
270.044
 20
2.65576
 11
270.118
 21
2.71352
  0
LINE
  8
0
 10
270.118
 20
2.71352
 11
270.196
 21
2.76648
  0
LINE
  8
0
 10
270.196
 20
2.76648
 11
270.277
 21
2.81445
  0
LINE
  8
0
 10
270.277
 20
2.81445
 11
270.361
 21
2.85724
  0
LINE
  8
0
 10
270.361
 20
2.85724
 11
270.448
 21
2.89465
  0
LINE
  8
0
 10
270.448
 20
2.89465
 11
270.536
 21
2.92657
  0
LINE
  8
0
 10
270.536
 20
2.92657
 11
270.627
 21
2.95287
  0
LINE
  8
0
 10
270.627
 20
2.95287
 11
270.719
 21
2.97342
  0
LINE
  8
0
 10
270.719
 20
2.97342
 11
270.812
 21
2.98816
  0
LINE
  8
0
 10
270.812
 20
2.98816
 11
270.906
 21
2.99704
  0
LINE
  8
0
 10
270.906
 20
2.99704
 11
271
 21
3
  0
LINE
  8
0
 10
271
 20
3
 11
271.094
 21
2.99704
  0
LINE
  8
0
 10
271.094
 20
2.99704
 11
271.188
 21
2.98816
  0
LINE
  8
0
 10
271.188
 20
2.98816
 11
271.281
 21
2.97342
  0
LINE
  8
0
 10
271.281
 20
2.97342
 11
271.373
 21
2.95287
  0
LINE
  8
0
 10
271.373
 20
2.95287
 11
271.464
 21
2.92657
  0
LINE
  8
0
 10
271.464
 20
2.92657
 11
271.552
 21
2.89465
  0
LINE
  8
0
 10
271.552
 20
2.89465
 11
271.639
 21
2.85724
  0
LINE
  8
0
 10
271.639
 20
2.85724
 11
271.723
 21
2.81445
  0
LINE
  8
0
 10
271.723
 20
2.81445
 11
271.804
 21
2.76648
  0
LINE
  8
0
 10
271.804
 20
2.76648
 11
271.882
 21
2.71352
  0
LINE
  8
0
 10
271.882
 20
2.71352
 11
271.956
 21
2.65576
  0
LINE
  8
0
 10
271.956
 20
2.65576
 11
272.027
 21
2.59344
  0
LINE
  8
0
 10
272.027
 20
2.59344
 11
272.093
 21
2.52681
  0
LINE
  8
0
 10
272.093
 20
2.52681
 11
272.156
 21
2.45613
  0
LINE
  8
0
 10
272.156
 20
2.45613
 11
272.214
 21
2.38167
  0
LINE
  8
0
 10
272.214
 20
2.38167
 11
272.266
 21
2.30373
  0
LINE
  8
0
 10
272.266
 20
2.30373
 11
272.314
 21
2.22263
  0
LINE
  8
0
 10
272.314
 20
2.22263
 11
272.357
 21
2.13866
  0
LINE
  8
0
 10
272.357
 20
2.13866
 11
272.395
 21
2.05219
  0
LINE
  8
0
 10
272.395
 20
2.05219
 11
272.427
 21
1.96352
  0
LINE
  8
0
 10
272.427
 20
1.96352
 11
272.453
 21
1.87303
  0
LINE
  8
0
 10
272.453
 20
1.87303
 11
272.473
 21
1.78107
  0
LINE
  8
0
 10
272.473
 20
1.78107
 11
272.488
 21
1.68799
  0
LINE
  8
0
 10
272.488
 20
1.68799
 11
272.497
 21
1.59418
  0
LINE
  8
0
 10
272.497
 20
1.59418
 11
272.5
 21
1.49998
  0
LINE
  8
0
 10
272.5
 20
1.49998
 11
272.5
 21
0
  0
LINE
  8
0
 10
272.5
 20
0
 11
276
 21
0
  0
LINE
  8
0
 10
276
 20
0
 11
276
 21
3
  0
LINE
  8
0
 10
276
 20
3
 11
288
 21
3
  0
LINE
  8
0
 10
288
 20
3
 11
288
 21
0
  0
LINE
  8
0
 10
288
 20
0
 11
306
 21
0
  0
LINE
  8
0
 10
306
 20
0
 11
306
 21
3
  0
LINE
  8
0
 10
306
 20
3
 11
318
 21
3
  0
LINE
  8
0
 10
318
 20
3
 11
318
 21
0
  0
LINE
  8
0
 10
318
 20
0
 11
336
 21
0
  0
LINE
  8
0
 10
336
 20
0
 11
336
 21
3
  0
LINE
  8
0
 10
336
 20
3
 11
348
 21
3
  0
LINE
  8
0
 10
348
 20
3
 11
348
 21
0
  0
LINE
  8
0
 10
348
 20
0
 11
351.5
 21
0
  0
LINE
  8
0
 10
351.5
 20
0
 11
351.5
 21
1.5
  0
LINE
  8
0
 10
351.5
 20
1.5
 11
351.503
 21
1.59418
  0
LINE
  8
0
 10
351.503
 20
1.59418
 11
351.512
 21
1.68799
  0
LINE
  8
0
 10
351.512
 20
1.68799
 11
351.527
 21
1.78107
  0
LINE
  8
0
 10
351.527
 20
1.78107
 11
351.547
 21
1.87303
  0
LINE
  8
0
 10
351.547
 20
1.87303
 11
351.573
 21
1.96352
  0
LINE
  8
0
 10
351.573
 20
1.96352
 11
351.605
 21
2.05219
  0
LINE
  8
0
 10
351.605
 20
2.05219
 11
351.643
 21
2.13866
  0
LINE
  8
0
 10
351.643
 20
2.13866
 11
351.686
 21
2.22263
  0
LINE
  8
0
 10
351.686
 20
2.22263
 11
351.734
 21
2.30373
  0
LINE
  8
0
 10
351.734
 20
2.30373
 11
351.786
 21
2.38167
  0
LINE
  8
0
 10
351.786
 20
2.38167
 11
351.844
 21
2.45613
  0
LINE
  8
0
 10
351.844
 20
2.45613
 11
351.907
 21
2.52681
  0
LINE
  8
0
 10
351.907
 20
2.52681
 11
351.973
 21
2.59344
  0
LINE
  8
0
 10
351.973
 20
2.59344
 11
352.044
 21
2.65576
  0
LINE
  8
0
 10
352.044
 20
2.65576
 11
352.118
 21
2.71352
  0
LINE
  8
0
 10
352.118
 20
2.71352
 11
352.196
 21
2.76648
  0
LINE
  8
0
 10
352.196
 20
2.76648
 11
352.277
 21
2.81445
  0
LINE
  8
0
 10
352.277
 20
2.81445
 11
352.361
 21
2.85724
  0
LINE
  8
0
 10
352.361
 20
2.85724
 11
352.448
 21
2.89465
  0
LINE
  8
0
 10
352.448
 20
2.89465
 11
352.536
 21
2.92657
  0
LINE
  8
0
 10
352.536
 20
2.92657
 11
352.627
 21
2.95287
  0
LINE
  8
0
 10
352.627
 20
2.95287
 11
352.719
 21
2.97342
  0
LINE
  8
0
 10
352.719
 20
2.97342
 11
352.812
 21
2.98816
  0
LINE
  8
0
 10
352.812
 20
2.98816
 11
352.906
 21
2.99704
  0
LINE
  8
0
 10
352.906
 20
2.99704
 11
353
 21
3
  0
LINE
  8
0
 10
353
 20
3
 11
353.094
 21
2.99704
  0
LINE
  8
0
 10
353.094
 20
2.99704
 11
353.188
 21
2.98816
  0
LINE
  8
0
 10
353.188
 20
2.98816
 11
353.281
 21
2.97342
  0
LINE
  8
0
 10
353.281
 20
2.97342
 11
353.373
 21
2.95287
  0
LINE
  8
0
 10
353.373
 20
2.95287
 11
353.464
 21
2.92657
  0
LINE
  8
0
 10
353.464
 20
2.92657
 11
353.552
 21
2.89465
  0
LINE
  8
0
 10
353.552
 20
2.89465
 11
353.639
 21
2.85724
  0
LINE
  8
0
 10
353.639
 20
2.85724
 11
353.723
 21
2.81445
  0
LINE
  8
0
 10
353.723
 20
2.81445
 11
353.804
 21
2.76648
  0
LINE
  8
0
 10
353.804
 20
2.76648
 11
353.882
 21
2.71352
  0
LINE
  8
0
 10
353.882
 20
2.71352
 11
353.956
 21
2.65576
  0
LINE
  8
0
 10
353.956
 20
2.65576
 11
354.027
 21
2.59344
  0
LINE
  8
0
 10
354.027
 20
2.59344
 11
354.093
 21
2.52681
  0
LINE
  8
0
 10
354.093
 20
2.52681
 11
354.156
 21
2.45613
  0
LINE
  8
0
 10
354.156
 20
2.45613
 11
354.214
 21
2.38167
  0
LINE
  8
0
 10
354.214
 20
2.38167
 11
354.266
 21
2.30373
  0
LINE
  8
0
 10
354.266
 20
2.30373
 11
354.314
 21
2.22263
  0
LINE
  8
0
 10
354.314
 20
2.22263
 11
354.357
 21
2.13866
  0
LINE
  8
0
 10
354.357
 20
2.13866
 11
354.395
 21
2.05219
  0
LINE
  8
0
 10
354.395
 20
2.05219
 11
354.427
 21
1.96352
  0
LINE
  8
0
 10
354.427
 20
1.96352
 11
354.453
 21
1.87303
  0
LINE
  8
0
 10
354.453
 20
1.87303
 11
354.473
 21
1.78107
  0
LINE
  8
0
 10
354.473
 20
1.78107
 11
354.488
 21
1.68799
  0
LINE
  8
0
 10
354.488
 20
1.68799
 11
354.497
 21
1.59418
  0
LINE
  8
0
 10
354.497
 20
1.59418
 11
354.5
 21
1.49998
  0
LINE
  8
0
 10
354.5
 20
1.49998
 11
354.5
 21
0
  0
LINE
  8
0
 10
354.5
 20
0
 11
360
 21
0
  0
LINE
  8
0
 10
360
 20
0
 11
360
 21
12
  0
LINE
  8
0
 10
360
 20
12
 11
357
 21
12
  0
LINE
  8
0
 10
357
 20
12
 11
357
 21
24
  0
LINE
  8
0
 10
357
 20
24
 11
360
 21
24
  0
LINE
  8
0
 10
360
 20
24
 11
360
 21
42
  0
LINE
  8
0
 10
360
 20
42
 11
357
 21
42
  0
LINE
  8
0
 10
357
 20
42
 11
357
 21
54
  0
LINE
  8
0
 10
357
 20
54
 11
360
 21
54
  0
LINE
  8
0
 10
360
 20
54
 11
360
 21
66
  0
LINE
  8
0
 10
360
 20
66
 11
354.5
 21
66
  0
LINE
  8
0
 10
354.5
 20
66
 11
354.5
 21
64.5
  0
LINE
  8
0
 10
354.5
 20
64.5
 11
354.497
 21
64.4058
  0
LINE
  8
0
 10
354.497
 20
64.4058
 11
354.488
 21
64.312
  0
LINE
  8
0
 10
354.488
 20
64.312
 11
354.473
 21
64.2189
  0
LINE
  8
0
 10
354.473
 20
64.2189
 11
354.453
 21
64.127
  0
LINE
  8
0
 10
354.453
 20
64.127
 11
354.427
 21
64.0365
  0
LINE
  8
0
 10
354.427
 20
64.0365
 11
354.395
 21
63.9478
  0
LINE
  8
0
 10
354.395
 20
63.9478
 11
354.357
 21
63.8613
  0
LINE
  8
0
 10
354.357
 20
63.8613
 11
354.314
 21
63.7774
  0
LINE
  8
0
 10
354.314
 20
63.7774
 11
354.266
 21
63.6963
  0
LINE
  8
0
 10
354.266
 20
63.6963
 11
354.214
 21
63.6183
  0
LINE
  8
0
 10
354.214
 20
63.6183
 11
354.156
 21
63.5439
  0
LINE
  8
0
 10
354.156
 20
63.5439
 11
354.093
 21
63.4732
  0
LINE
  8
0
 10
354.093
 20
63.4732
 11
354.027
 21
63.4065
  0
LINE
  8
0
 10
354.027
 20
63.4065
 11
353.956
 21
63.3442
  0
LINE
  8
0
 10
353.956
 20
63.3442
 11
353.882
 21
63.2865
  0
LINE
  8
0
 10
353.882
 20
63.2865
 11
353.804
 21
63.2335
  0
LINE
  8
0
 10
353.804
 20
63.2335
 11
353.723
 21
63.1855
  0
LINE
  8
0
 10
353.723
 20
63.1855
 11
353.639
 21
63.1427
  0
LINE
  8
0
 10
353.639
 20
63.1427
 11
353.552
 21
63.1053
  0
LINE
  8
0
 10
353.552
 20
63.1053
 11
353.464
 21
63.0734
  0
LINE
  8
0
 10
353.464
 20
63.0734
 11
353.373
 21
63.0471
  0
LINE
  8
0
 10
353.373
 20
63.0471
 11
353.281
 21
63.0266
  0
LINE
  8
0
 10
353.281
 20
63.0266
 11
353.188
 21
63.0118
  0
LINE
  8
0
 10
353.188
 20
63.0118
 11
353.094
 21
63.0029
  0
LINE
  8
0
 10
353.094
 20
63.0029
 11
353
 21
63
  0
LINE
  8
0
 10
353
 20
63
 11
352.906
 21
63.0029
  0
LINE
  8
0
 10
352.906
 20
63.0029
 11
352.812
 21
63.0118
  0
LINE
  8
0
 10
352.812
 20
63.0118
 11
352.719
 21
63.0266
  0
LINE
  8
0
 10
352.719
 20
63.0266
 11
352.627
 21
63.0471
  0
LINE
  8
0
 10
352.627
 20
63.0471
 11
352.536
 21
63.0734
  0
LINE
  8
0
 10
352.536
 20
63.0734
 11
352.448
 21
63.1053
  0
LINE
  8
0
 10
352.448
 20
63.1053
 11
352.361
 21
63.1427
  0
LINE
  8
0
 10
352.361
 20
63.1427
 11
352.277
 21
63.1855
  0
LINE
  8
0
 10
352.277
 20
63.1855
 11
352.196
 21
63.2335
  0
LINE
  8
0
 10
352.196
 20
63.2335
 11
352.118
 21
63.2865
  0
LINE
  8
0
 10
352.118
 20
63.2865
 11
352.044
 21
63.3442
  0
LINE
  8
0
 10
352.044
 20
63.3442
 11
351.973
 21
63.4065
  0
LINE
  8
0
 10
351.973
 20
63.4065
 11
351.907
 21
63.4732
  0
LINE
  8
0
 10
351.907
 20
63.4732
 11
351.844
 21
63.5439
  0
LINE
  8
0
 10
351.844
 20
63.5439
 11
351.786
 21
63.6183
  0
LINE
  8
0
 10
351.786
 20
63.6183
 11
351.734
 21
63.6963
  0
LINE
  8
0
 10
351.734
 20
63.6963
 11
351.686
 21
63.7774
  0
LINE
  8
0
 10
351.686
 20
63.7774
 11
351.643
 21
63.8613
  0
LINE
  8
0
 10
351.643
 20
63.8613
 11
351.605
 21
63.9478
  0
LINE
  8
0
 10
351.605
 20
63.9478
 11
351.573
 21
64.0365
  0
LINE
  8
0
 10
351.573
 20
64.0365
 11
351.547
 21
64.127
  0
LINE
  8
0
 10
351.547
 20
64.127
 11
351.527
 21
64.2189
  0
LINE
  8
0
 10
351.527
 20
64.2189
 11
351.512
 21
64.312
  0
LINE
  8
0
 10
351.512
 20
64.312
 11
351.503
 21
64.4058
  0
LINE
  8
0
 10
351.503
 20
64.4058
 11
351.5
 21
64.5
  0
LINE
  8
0
 10
351.5
 20
64.5
 11
351.5
 21
66
  0
LINE
  8
0
 10
351.5
 20
66
 11
348
 21
66
  0
LINE
  8
0
 10
348
 20
66
 11
348
 21
63
  0
LINE
  8
0
 10
348
 20
63
 11
336
 21
63
  0
LINE
  8
0
 10
336
 20
63
 11
336
 21
66
  0
LINE
  8
0
 10
336
 20
66
 11
318
 21
66
  0
LINE
  8
0
 10
318
 20
66
 11
318
 21
63
  0
LINE
  8
0
 10
318
 20
63
 11
306
 21
63
  0
LINE
  8
0
 10
306
 20
63
 11
306
 21
66
  0
LINE
  8
0
 10
306
 20
66
 11
288
 21
66
  0
LINE
  8
0
 10
288
 20
66
 11
288
 21
63
  0
LINE
  8
0
 10
288
 20
63
 11
276
 21
63
  0
LINE
  8
0
 10
276
 20
63
 11
276
 21
66
  0
LINE
  8
0
 10
276
 20
66
 11
272.5
 21
66
  0
LINE
  8
0
 10
272.5
 20
66
 11
272.5
 21
64.5
  0
LINE
  8
0
 10
272.5
 20
64.5
 11
272.497
 21
64.4058
  0
LINE
  8
0
 10
272.497
 20
64.4058
 11
272.488
 21
64.312
  0
LINE
  8
0
 10
272.488
 20
64.312
 11
272.473
 21
64.2189
  0
LINE
  8
0
 10
272.473
 20
64.2189
 11
272.453
 21
64.127
  0
LINE
  8
0
 10
272.453
 20
64.127
 11
272.427
 21
64.0365
  0
LINE
  8
0
 10
272.427
 20
64.0365
 11
272.395
 21
63.9478
  0
LINE
  8
0
 10
272.395
 20
63.9478
 11
272.357
 21
63.8613
  0
LINE
  8
0
 10
272.357
 20
63.8613
 11
272.314
 21
63.7774
  0
LINE
  8
0
 10
272.314
 20
63.7774
 11
272.266
 21
63.6963
  0
LINE
  8
0
 10
272.266
 20
63.6963
 11
272.214
 21
63.6183
  0
LINE
  8
0
 10
272.214
 20
63.6183
 11
272.156
 21
63.5439
  0
LINE
  8
0
 10
272.156
 20
63.5439
 11
272.093
 21
63.4732
  0
LINE
  8
0
 10
272.093
 20
63.4732
 11
272.027
 21
63.4065
  0
LINE
  8
0
 10
272.027
 20
63.4065
 11
271.956
 21
63.3442
  0
LINE
  8
0
 10
271.956
 20
63.3442
 11
271.882
 21
63.2865
  0
LINE
  8
0
 10
271.882
 20
63.2865
 11
271.804
 21
63.2335
  0
LINE
  8
0
 10
271.804
 20
63.2335
 11
271.723
 21
63.1855
  0
LINE
  8
0
 10
271.723
 20
63.1855
 11
271.639
 21
63.1427
  0
LINE
  8
0
 10
271.639
 20
63.1427
 11
271.552
 21
63.1053
  0
LINE
  8
0
 10
271.552
 20
63.1053
 11
271.464
 21
63.0734
  0
LINE
  8
0
 10
271.464
 20
63.0734
 11
271.373
 21
63.0471
  0
LINE
  8
0
 10
271.373
 20
63.0471
 11
271.281
 21
63.0266
  0
LINE
  8
0
 10
271.281
 20
63.0266
 11
271.188
 21
63.0118
  0
LINE
  8
0
 10
271.188
 20
63.0118
 11
271.094
 21
63.0029
  0
LINE
  8
0
 10
271.094
 20
63.0029
 11
271
 21
63
  0
LINE
  8
0
 10
271
 20
63
 11
270.906
 21
63.0029
  0
LINE
  8
0
 10
270.906
 20
63.0029
 11
270.812
 21
63.0118
  0
LINE
  8
0
 10
270.812
 20
63.0118
 11
270.719
 21
63.0266
  0
LINE
  8
0
 10
270.719
 20
63.0266
 11
270.627
 21
63.0471
  0
LINE
  8
0
 10
270.627
 20
63.0471
 11
270.536
 21
63.0734
  0
LINE
  8
0
 10
270.536
 20
63.0734
 11
270.448
 21
63.1053
  0
LINE
  8
0
 10
270.448
 20
63.1053
 11
270.361
 21
63.1427
  0
LINE
  8
0
 10
270.361
 20
63.1427
 11
270.277
 21
63.1855
  0
LINE
  8
0
 10
270.277
 20
63.1855
 11
270.196
 21
63.2335
  0
LINE
  8
0
 10
270.196
 20
63.2335
 11
270.118
 21
63.2865
  0
LINE
  8
0
 10
270.118
 20
63.2865
 11
270.044
 21
63.3442
  0
LINE
  8
0
 10
270.044
 20
63.3442
 11
269.973
 21
63.4065
  0
LINE
  8
0
 10
269.973
 20
63.4065
 11
269.907
 21
63.4732
  0
LINE
  8
0
 10
269.907
 20
63.4732
 11
269.844
 21
63.5439
  0
LINE
  8
0
 10
269.844
 20
63.5439
 11
269.786
 21
63.6183
  0
LINE
  8
0
 10
269.786
 20
63.6183
 11
269.734
 21
63.6963
  0
LINE
  8
0
 10
269.734
 20
63.6963
 11
269.686
 21
63.7774
  0
LINE
  8
0
 10
269.686
 20
63.7774
 11
269.643
 21
63.8613
  0
LINE
  8
0
 10
269.643
 20
63.8613
 11
269.605
 21
63.9478
  0
LINE
  8
0
 10
269.605
 20
63.9478
 11
269.573
 21
64.0365
  0
LINE
  8
0
 10
269.573
 20
64.0365
 11
269.547
 21
64.127
  0
LINE
  8
0
 10
269.547
 20
64.127
 11
269.527
 21
64.2189
  0
LINE
  8
0
 10
269.527
 20
64.2189
 11
269.512
 21
64.312
  0
LINE
  8
0
 10
269.512
 20
64.312
 11
269.503
 21
64.4058
  0
LINE
  8
0
 10
269.503
 20
64.4058
 11
269.5
 21
64.5
  0
LINE
  8
0
 10
269.5
 20
64.5
 11
269.5
 21
66
  0
LINE
  8
0
 10
269.5
 20
66
 11
264
 21
66
  0
LINE
  8
0
 10
264
 20
66
 11
264
 21
54
  0
LINE
  8
0
 10
264
 20
54
 11
267
 21
54
  0
LINE
  8
0
 10
267
 20
54
 11
267
 21
42
  0
LINE
  8
0
 10
267
 20
42
 11
264
 21
42
  0
LINE
  8
0
 10
264
 20
42
 11
264
 21
24
  0
LINE
  8
0
 10
264
 20
24
 11
267
 21
24
  0
LINE
  8
0
 10
267
 20
24
 11
267
 21
21
  0
LINE
  8
0
 10
267
 20
21
 11
272
 21
21
  0
LINE
  8
0
 10
272
 20
21
 11
272.188
 21
20.9941
  0
LINE
  8
0
 10
272.188
 20
20.9941
 11
272.376
 21
20.9763
  0
LINE
  8
0
 10
272.376
 20
20.9763
 11
272.562
 21
20.9469
  0
LINE
  8
0
 10
272.562
 20
20.9469
 11
272.746
 21
20.9057
  0
LINE
  8
0
 10
272.746
 20
20.9057
 11
272.927
 21
20.8532
  0
LINE
  8
0
 10
272.927
 20
20.8532
 11
273.104
 21
20.7893
  0
LINE
  8
0
 10
273.104
 20
20.7893
 11
273.277
 21
20.7145
  0
LINE
  8
0
 10
273.277
 20
20.7145
 11
273.445
 21
20.6289
  0
LINE
  8
0
 10
273.445
 20
20.6289
 11
273.607
 21
20.533
  0
LINE
  8
0
 10
273.607
 20
20.533
 11
273.763
 21
20.427
  0
LINE
  8
0
 10
273.763
 20
20.427
 11
273.912
 21
20.3115
  0
LINE
  8
0
 10
273.912
 20
20.3115
 11
274.054
 21
20.1869
  0
LINE
  8
0
 10
274.054
 20
20.1869
 11
274.187
 21
20.0536
  0
LINE
  8
0
 10
274.187
 20
20.0536
 11
274.312
 21
19.9123
  0
LINE
  8
0
 10
274.312
 20
19.9123
 11
274.427
 21
19.7634
  0
LINE
  8
0
 10
274.427
 20
19.7634
 11
274.533
 21
19.6075
  0
LINE
  8
0
 10
274.533
 20
19.6075
 11
274.629
 21
19.4453
  0
LINE
  8
0
 10
274.629
 20
19.4453
 11
274.714
 21
19.2773
  0
LINE
  8
0
 10
274.714
 20
19.2773
 11
274.789
 21
19.1044
  0
LINE
  8
0
 10
274.789
 20
19.1044
 11
274.853
 21
18.927
  0
LINE
  8
0
 10
274.853
 20
18.927
 11
274.906
 21
18.7461
  0
LINE
  8
0
 10
274.906
 20
18.7461
 11
274.947
 21
18.5621
  0
LINE
  8
0
 10
274.947
 20
18.5621
 11
274.976
 21
18.376
  0
LINE
  8
0
 10
274.976
 20
18.376
 11
274.994
 21
18.1884
  0
LINE
  8
0
 10
274.994
 20
18.1884
 11
275
 21
18
  0
LINE
  8
0
 10
275
 20
18
 11
274.994
 21
17.8116
  0
LINE
  8
0
 10
274.994
 20
17.8116
 11
274.976
 21
17.624
  0
LINE
  8
0
 10
274.976
 20
17.624
 11
274.947
 21
17.4379
  0
LINE
  8
0
 10
274.947
 20
17.4379
 11
274.906
 21
17.2539
  0
LINE
  8
0
 10
274.906
 20
17.2539
 11
274.853
 21
17.0729
  0
LINE
  8
0
 10
274.853
 20
17.0729
 11
274.789
 21
16.8956
  0
LINE
  8
0
 10
274.789
 20
16.8956
 11
274.714
 21
16.7227
  0
LINE
  8
0
 10
274.714
 20
16.7227
 11
274.629
 21
16.5547
  0
LINE
  8
0
 10
274.629
 20
16.5547
 11
274.533
 21
16.3925
  0
LINE
  8
0
 10
274.533
 20
16.3925
 11
274.427
 21
16.2366
  0
LINE
  8
0
 10
274.427
 20
16.2366
 11
274.312
 21
16.0877
  0
LINE
  8
0
 10
274.312
 20
16.0877
 11
274.187
 21
15.9464
  0
LINE
  8
0
 10
274.187
 20
15.9464
 11
274.054
 21
15.8131
  0
LINE
  8
0
 10
274.054
 20
15.8131
 11
273.912
 21
15.6884
  0
LINE
  8
0
 10
273.912
 20
15.6884
 11
273.763
 21
15.5729
  0
LINE
  8
0
 10
273.763
 20
15.5729
 11
273.607
 21
15.467
  0
LINE
  8
0
 10
273.607
 20
15.467
 11
273.445
 21
15.3711
  0
LINE
  8
0
 10
273.445
 20
15.3711
 11
273.277
 21
15.2855
  0
LINE
  8
0
 10
273.277
 20
15.2855
 11
273.104
 21
15.2107
  0
LINE
  8
0
 10
273.104
 20
15.2107
 11
272.927
 21
15.1468
  0
LINE
  8
0
 10
272.927
 20
15.1468
 11
272.746
 21
15.0942
  0
LINE
  8
0
 10
272.746
 20
15.0942
 11
272.562
 21
15.0531
  0
LINE
  8
0
 10
272.562
 20
15.0531
 11
272.376
 21
15.0237
  0
LINE
  8
0
 10
272.376
 20
15.0237
 11
272.188
 21
15.0059
  0
LINE
  8
0
 10
272.188
 20
15.0059
 11
272
 21
15
  0
LINE
  8
0
 10
272
 20
15
 11
267
 21
15
  0
LINE
  8
0
 10
267
 20
15
 11
267
 21
12
  0
LINE
  8
0
 10
267
 20
12
 11
264
 21
12
  0
LINE
  8
0
 10
264
 20
12
 11
264
 21
0
  0
LINE
  8
0
 10
264
 20
0
 11
269.5
 21
0
  0
LINE
  8
0
 10
269.5
 20
0
 11
269.5
 21
1.5
  0
LINE
  8
0
 10
345.374
 20
50.6539
 11
345.249
 21
50.6658
  0
LINE
  8
0
 10
345.249
 20
50.6658
 11
345.125
 21
50.6854
  0
LINE
  8
0
 10
345.125
 20
50.6854
 11
345.003
 21
50.7128
  0
LINE
  8
0
 10
345.003
 20
50.7128
 11
344.882
 21
50.7479
  0
LINE
  8
0
 10
344.882
 20
50.7479
 11
344.764
 21
50.7904
  0
LINE
  8
0
 10
344.764
 20
50.7904
 11
344.648
 21
50.8403
  0
LINE
  8
0
 10
344.648
 20
50.8403
 11
344.536
 21
50.8974
  0
LINE
  8
0
 10
344.536
 20
50.8974
 11
344.428
 21
50.9613
  0
LINE
  8
0
 10
344.428
 20
50.9613
 11
344.324
 21
51.032
  0
LINE
  8
0
 10
344.324
 20
51.032
 11
344.225
 21
51.109
  0
LINE
  8
0
 10
344.225
 20
51.109
 11
344.131
 21
51.1921
  0
LINE
  8
0
 10
344.131
 20
51.1921
 11
344.042
 21
51.2809
  0
LINE
  8
0
 10
344.042
 20
51.2809
 11
343.959
 21
51.3751
  0
LINE
  8
0
 10
343.959
 20
51.3751
 11
343.882
 21
51.4744
  0
LINE
  8
0
 10
343.882
 20
51.4744
 11
343.811
 21
51.5783
  0
LINE
  8
0
 10
343.811
 20
51.5783
 11
343.747
 21
51.6865
  0
LINE
  8
0
 10
343.747
 20
51.6865
 11
343.69
 21
51.7984
  0
LINE
  8
0
 10
343.69
 20
51.7984
 11
343.64
 21
51.9137
  0
LINE
  8
0
 10
343.64
 20
51.9137
 11
343.598
 21
52.032
  0
LINE
  8
0
 10
343.598
 20
52.032
 11
343.563
 21
52.1526
  0
LINE
  8
0
 10
343.563
 20
52.1526
 11
343.535
 21
52.2752
  0
LINE
  8
0
 10
343.535
 20
52.2752
 11
343.516
 21
52.3993
  0
LINE
  8
0
 10
343.516
 20
52.3993
 11
343.504
 21
52.5244
  0
LINE
  8
0
 10
343.504
 20
52.5244
 11
343.5
 21
52.65
  0
LINE
  8
0
 10
343.5
 20
52.65
 11
343.5
 21
56.65
  0
LINE
  8
0
 10
343.5
 20
56.65
 11
343.504
 21
56.7756
  0
LINE
  8
0
 10
343.504
 20
56.7756
 11
343.516
 21
56.9007
  0
LINE
  8
0
 10
343.516
 20
56.9007
 11
343.535
 21
57.0247
  0
LINE
  8
0
 10
343.535
 20
57.0247
 11
343.563
 21
57.1474
  0
LINE
  8
0
 10
343.563
 20
57.1474
 11
343.598
 21
57.268
  0
LINE
  8
0
 10
343.598
 20
57.268
 11
343.64
 21
57.3862
  0
LINE
  8
0
 10
343.64
 20
57.3862
 11
343.69
 21
57.5016
  0
LINE
  8
0
 10
343.69
 20
57.5016
 11
343.747
 21
57.6135
  0
LINE
  8
0
 10
343.747
 20
57.6135
 11
343.811
 21
57.7216
  0
LINE
  8
0
 10
343.811
 20
57.7216
 11
343.882
 21
57.8256
  0
LINE
  8
0
 10
343.882
 20
57.8256
 11
343.959
 21
57.9248
  0
LINE
  8
0
 10
343.959
 20
57.9248
 11
344.042
 21
58.0191
  0
LINE
  8
0
 10
344.042
 20
58.0191
 11
344.131
 21
58.1079
  0
LINE
  8
0
 10
344.131
 20
58.1079
 11
344.225
 21
58.191
  0
LINE
  8
0
 10
344.225
 20
58.191
 11
344.324
 21
58.268
  0
LINE
  8
0
 10
344.324
 20
58.268
 11
344.428
 21
58.3387
  0
LINE
  8
0
 10
344.428
 20
58.3387
 11
344.536
 21
58.4026
  0
LINE
  8
0
 10
344.536
 20
58.4026
 11
344.648
 21
58.4596
  0
LINE
  8
0
 10
344.648
 20
58.4596
 11
344.764
 21
58.5096
  0
LINE
  8
0
 10
344.764
 20
58.5096
 11
344.882
 21
58.5521
  0
LINE
  8
0
 10
344.882
 20
58.5521
 11
345.003
 21
58.5872
  0
LINE
  8
0
 10
345.003
 20
58.5872
 11
345.125
 21
58.6146
  0
LINE
  8
0
 10
345.125
 20
58.6146
 11
345.249
 21
58.6342
  0
LINE
  8
0
 10
345.249
 20
58.6342
 11
345.374
 21
58.646
  0
LINE
  8
0
 10
345.374
 20
58.646
 11
345.5
 21
58.65
  0
LINE
  8
0
 10
345.5
 20
58.65
 11
345.626
 21
58.646
  0
LINE
  8
0
 10
345.626
 20
58.646
 11
345.751
 21
58.6342
  0
LINE
  8
0
 10
345.751
 20
58.6342
 11
345.875
 21
58.6146
  0
LINE
  8
0
 10
345.875
 20
58.6146
 11
345.997
 21
58.5872
  0
LINE
  8
0
 10
345.997
 20
58.5872
 11
346.118
 21
58.5521
  0
LINE
  8
0
 10
346.118
 20
58.5521
 11
346.236
 21
58.5096
  0
LINE
  8
0
 10
346.236
 20
58.5096
 11
346.352
 21
58.4596
  0
LINE
  8
0
 10
346.352
 20
58.4596
 11
346.464
 21
58.4026
  0
LINE
  8
0
 10
346.464
 20
58.4026
 11
346.572
 21
58.3387
  0
LINE
  8
0
 10
346.572
 20
58.3387
 11
346.676
 21
58.268
  0
LINE
  8
0
 10
346.676
 20
58.268
 11
346.775
 21
58.191
  0
LINE
  8
0
 10
346.775
 20
58.191
 11
346.869
 21
58.1079
  0
LINE
  8
0
 10
346.869
 20
58.1079
 11
346.958
 21
58.0191
  0
LINE
  8
0
 10
346.958
 20
58.0191
 11
347.041
 21
57.9248
  0
LINE
  8
0
 10
347.041
 20
57.9248
 11
347.118
 21
57.8256
  0
LINE
  8
0
 10
347.118
 20
57.8256
 11
347.189
 21
57.7216
  0
LINE
  8
0
 10
347.189
 20
57.7216
 11
347.253
 21
57.6135
  0
LINE
  8
0
 10
347.253
 20
57.6135
 11
347.31
 21
57.5016
  0
LINE
  8
0
 10
347.31
 20
57.5016
 11
347.36
 21
57.3862
  0
LINE
  8
0
 10
347.36
 20
57.3862
 11
347.402
 21
57.268
  0
LINE
  8
0
 10
347.402
 20
57.268
 11
347.437
 21
57.1474
  0
LINE
  8
0
 10
347.437
 20
57.1474
 11
347.465
 21
57.0247
  0
LINE
  8
0
 10
347.465
 20
57.0247
 11
347.484
 21
56.9007
  0
LINE
  8
0
 10
347.484
 20
56.9007
 11
347.496
 21
56.7756
  0
LINE
  8
0
 10
347.496
 20
56.7756
 11
347.5
 21
56.65
  0
LINE
  8
0
 10
347.5
 20
56.65
 11
347.5
 21
52.65
  0
LINE
  8
0
 10
347.5
 20
52.65
 11
347.496
 21
52.5244
  0
LINE
  8
0
 10
347.496
 20
52.5244
 11
347.484
 21
52.3993
  0
LINE
  8
0
 10
347.484
 20
52.3993
 11
347.465
 21
52.2752
  0
LINE
  8
0
 10
347.465
 20
52.2752
 11
347.437
 21
52.1526
  0
LINE
  8
0
 10
347.437
 20
52.1526
 11
347.402
 21
52.032
  0
LINE
  8
0
 10
347.402
 20
52.032
 11
347.36
 21
51.9137
  0
LINE
  8
0
 10
347.36
 20
51.9137
 11
347.31
 21
51.7984
  0
LINE
  8
0
 10
347.31
 20
51.7984
 11
347.253
 21
51.6865
  0
LINE
  8
0
 10
347.253
 20
51.6865
 11
347.189
 21
51.5783
  0
LINE
  8
0
 10
347.189
 20
51.5783
 11
347.118
 21
51.4744
  0
LINE
  8
0
 10
347.118
 20
51.4744
 11
347.041
 21
51.3751
  0
LINE
  8
0
 10
347.041
 20
51.3751
 11
346.958
 21
51.2809
  0
LINE
  8
0
 10
346.958
 20
51.2809
 11
346.869
 21
51.1921
  0
LINE
  8
0
 10
346.869
 20
51.1921
 11
346.775
 21
51.109
  0
LINE
  8
0
 10
346.775
 20
51.109
 11
346.676
 21
51.032
  0
LINE
  8
0
 10
346.676
 20
51.032
 11
346.572
 21
50.9613
  0
LINE
  8
0
 10
346.572
 20
50.9613
 11
346.464
 21
50.8974
  0
LINE
  8
0
 10
346.464
 20
50.8974
 11
346.352
 21
50.8403
  0
LINE
  8
0
 10
346.352
 20
50.8403
 11
346.236
 21
50.7904
  0
LINE
  8
0
 10
346.236
 20
50.7904
 11
346.118
 21
50.7479
  0
LINE
  8
0
 10
346.118
 20
50.7479
 11
345.997
 21
50.7128
  0
LINE
  8
0
 10
345.997
 20
50.7128
 11
345.875
 21
50.6854
  0
LINE
  8
0
 10
345.875
 20
50.6854
 11
345.751
 21
50.6658
  0
LINE
  8
0
 10
345.751
 20
50.6658
 11
345.626
 21
50.6539
  0
LINE
  8
0
 10
345.626
 20
50.6539
 11
345.5
 21
50.65
  0
LINE
  8
0
 10
345.5
 20
50.65
 11
345.374
 21
50.6539
  0
LINE
  8
0
 10
287
 20
55.65
 11
286.906
 21
55.653
  0
LINE
  8
0
 10
286.906
 20
55.653
 11
286.812
 21
55.6618
  0
LINE
  8
0
 10
286.812
 20
55.6618
 11
286.719
 21
55.6766
  0
LINE
  8
0
 10
286.719
 20
55.6766
 11
286.627
 21
55.6971
  0
LINE
  8
0
 10
286.627
 20
55.6971
 11
286.536
 21
55.7234
  0
LINE
  8
0
 10
286.536
 20
55.7234
 11
286.448
 21
55.7553
  0
LINE
  8
0
 10
286.448
 20
55.7553
 11
286.361
 21
55.7928
  0
LINE
  8
0
 10
286.361
 20
55.7928
 11
286.277
 21
55.8355
  0
LINE
  8
0
 10
286.277
 20
55.8355
 11
286.196
 21
55.8835
  0
LINE
  8
0
 10
286.196
 20
55.8835
 11
286.118
 21
55.9365
  0
LINE
  8
0
 10
286.118
 20
55.9365
 11
286.044
 21
55.9942
  0
LINE
  8
0
 10
286.044
 20
55.9942
 11
285.973
 21
56.0565
  0
LINE
  8
0
 10
285.973
 20
56.0565
 11
285.907
 21
56.1232
  0
LINE
  8
0
 10
285.907
 20
56.1232
 11
285.844
 21
56.1939
  0
LINE
  8
0
 10
285.844
 20
56.1939
 11
285.786
 21
56.2683
  0
LINE
  8
0
 10
285.786
 20
56.2683
 11
285.734
 21
56.3463
  0
LINE
  8
0
 10
285.734
 20
56.3463
 11
285.686
 21
56.4274
  0
LINE
  8
0
 10
285.686
 20
56.4274
 11
285.643
 21
56.5113
  0
LINE
  8
0
 10
285.643
 20
56.5113
 11
285.605
 21
56.5978
  0
LINE
  8
0
 10
285.605
 20
56.5978
 11
285.573
 21
56.6865
  0
LINE
  8
0
 10
285.573
 20
56.6865
 11
285.547
 21
56.777
  0
LINE
  8
0
 10
285.547
 20
56.777
 11
285.527
 21
56.8689
  0
LINE
  8
0
 10
285.527
 20
56.8689
 11
285.512
 21
56.962
  0
LINE
  8
0
 10
285.512
 20
56.962
 11
285.503
 21
57.0558
  0
LINE
  8
0
 10
285.503
 20
57.0558
 11
285.5
 21
57.15
  0
LINE
  8
0
 10
285.5
 20
57.15
 11
285.503
 21
57.2442
  0
LINE
  8
0
 10
285.503
 20
57.2442
 11
285.512
 21
57.338
  0
LINE
  8
0
 10
285.512
 20
57.338
 11
285.527
 21
57.4311
  0
LINE
  8
0
 10
285.527
 20
57.4311
 11
285.547
 21
57.523
  0
LINE
  8
0
 10
285.547
 20
57.523
 11
285.573
 21
57.6135
  0
LINE
  8
0
 10
285.573
 20
57.6135
 11
285.605
 21
57.7022
  0
LINE
  8
0
 10
285.605
 20
57.7022
 11
285.643
 21
57.7887
  0
LINE
  8
0
 10
285.643
 20
57.7887
 11
285.686
 21
57.8726
  0
LINE
  8
0
 10
285.686
 20
57.8726
 11
285.734
 21
57.9537
  0
LINE
  8
0
 10
285.734
 20
57.9537
 11
285.786
 21
58.0317
  0
LINE
  8
0
 10
285.786
 20
58.0317
 11
285.844
 21
58.1061
  0
LINE
  8
0
 10
285.844
 20
58.1061
 11
285.907
 21
58.1768
  0
LINE
  8
0
 10
285.907
 20
58.1768
 11
285.973
 21
58.2434
  0
LINE
  8
0
 10
285.973
 20
58.2434
 11
286.044
 21
58.3058
  0
LINE
  8
0
 10
286.044
 20
58.3058
 11
286.118
 21
58.3635
  0
LINE
  8
0
 10
286.118
 20
58.3635
 11
286.196
 21
58.4165
  0
LINE
  8
0
 10
286.196
 20
58.4165
 11
286.277
 21
58.4644
  0
LINE
  8
0
 10
286.277
 20
58.4644
 11
286.361
 21
58.5072
  0
LINE
  8
0
 10
286.361
 20
58.5072
 11
286.448
 21
58.5447
  0
LINE
  8
0
 10
286.448
 20
58.5447
 11
286.536
 21
58.5766
  0
LINE
  8
0
 10
286.536
 20
58.5766
 11
286.627
 21
58.6029
  0
LINE
  8
0
 10
286.627
 20
58.6029
 11
286.719
 21
58.6234
  0
LINE
  8
0
 10
286.719
 20
58.6234
 11
286.812
 21
58.6382
  0
LINE
  8
0
 10
286.812
 20
58.6382
 11
286.906
 21
58.647
  0
LINE
  8
0
 10
286.906
 20
58.647
 11
287
 21
58.65
  0
LINE
  8
0
 10
287
 20
58.65
 11
323
 21
58.65
  0
LINE
  8
0
 10
323
 20
58.65
 11
323.094
 21
58.647
  0
LINE
  8
0
 10
323.094
 20
58.647
 11
323.188
 21
58.6382
  0
LINE
  8
0
 10
323.188
 20
58.6382
 11
323.281
 21
58.6234
  0
LINE
  8
0
 10
323.281
 20
58.6234
 11
323.373
 21
58.6029
  0
LINE
  8
0
 10
323.373
 20
58.6029
 11
323.464
 21
58.5766
  0
LINE
  8
0
 10
323.464
 20
58.5766
 11
323.552
 21
58.5447
  0
LINE
  8
0
 10
323.552
 20
58.5447
 11
323.639
 21
58.5072
  0
LINE
  8
0
 10
323.639
 20
58.5072
 11
323.723
 21
58.4644
  0
LINE
  8
0
 10
323.723
 20
58.4644
 11
323.804
 21
58.4165
  0
LINE
  8
0
 10
323.804
 20
58.4165
 11
323.882
 21
58.3635
  0
LINE
  8
0
 10
323.882
 20
58.3635
 11
323.956
 21
58.3058
  0
LINE
  8
0
 10
323.956
 20
58.3058
 11
324.027
 21
58.2434
  0
LINE
  8
0
 10
324.027
 20
58.2434
 11
324.093
 21
58.1768
  0
LINE
  8
0
 10
324.093
 20
58.1768
 11
324.156
 21
58.1061
  0
LINE
  8
0
 10
324.156
 20
58.1061
 11
324.214
 21
58.0317
  0
LINE
  8
0
 10
324.214
 20
58.0317
 11
324.266
 21
57.9537
  0
LINE
  8
0
 10
324.266
 20
57.9537
 11
324.314
 21
57.8726
  0
LINE
  8
0
 10
324.314
 20
57.8726
 11
324.357
 21
57.7887
  0
LINE
  8
0
 10
324.357
 20
57.7887
 11
324.395
 21
57.7022
  0
LINE
  8
0
 10
324.395
 20
57.7022
 11
324.427
 21
57.6135
  0
LINE
  8
0
 10
324.427
 20
57.6135
 11
324.453
 21
57.523
  0
LINE
  8
0
 10
324.453
 20
57.523
 11
324.473
 21
57.4311
  0
LINE
  8
0
 10
324.473
 20
57.4311
 11
324.488
 21
57.338
  0
LINE
  8
0
 10
324.488
 20
57.338
 11
324.497
 21
57.2442
  0
LINE
  8
0
 10
324.497
 20
57.2442
 11
324.5
 21
57.15
  0
LINE
  8
0
 10
324.5
 20
57.15
 11
324.497
 21
57.0558
  0
LINE
  8
0
 10
324.497
 20
57.0558
 11
324.488
 21
56.962
  0
LINE
  8
0
 10
324.488
 20
56.962
 11
324.473
 21
56.8689
  0
LINE
  8
0
 10
324.473
 20
56.8689
 11
324.453
 21
56.777
  0
LINE
  8
0
 10
324.453
 20
56.777
 11
324.427
 21
56.6865
  0
LINE
  8
0
 10
324.427
 20
56.6865
 11
324.395
 21
56.5978
  0
LINE
  8
0
 10
324.395
 20
56.5978
 11
324.357
 21
56.5113
  0
LINE
  8
0
 10
324.357
 20
56.5113
 11
324.314
 21
56.4274
  0
LINE
  8
0
 10
324.314
 20
56.4274
 11
324.266
 21
56.3463
  0
LINE
  8
0
 10
324.266
 20
56.3463
 11
324.214
 21
56.2683
  0
LINE
  8
0
 10
324.214
 20
56.2683
 11
324.156
 21
56.1939
  0
LINE
  8
0
 10
324.156
 20
56.1939
 11
324.093
 21
56.1232
  0
LINE
  8
0
 10
324.093
 20
56.1232
 11
324.027
 21
56.0565
  0
LINE
  8
0
 10
324.027
 20
56.0565
 11
323.956
 21
55.9942
  0
LINE
  8
0
 10
323.956
 20
55.9942
 11
323.882
 21
55.9365
  0
LINE
  8
0
 10
323.882
 20
55.9365
 11
323.804
 21
55.8835
  0
LINE
  8
0
 10
323.804
 20
55.8835
 11
323.723
 21
55.8355
  0
LINE
  8
0
 10
323.723
 20
55.8355
 11
323.639
 21
55.7928
  0
LINE
  8
0
 10
323.639
 20
55.7928
 11
323.552
 21
55.7553
  0
LINE
  8
0
 10
323.552
 20
55.7553
 11
323.464
 21
55.7234
  0
LINE
  8
0
 10
323.464
 20
55.7234
 11
323.373
 21
55.6971
  0
LINE
  8
0
 10
323.373
 20
55.6971
 11
323.281
 21
55.6766
  0
LINE
  8
0
 10
323.281
 20
55.6766
 11
323.188
 21
55.6618
  0
LINE
  8
0
 10
323.188
 20
55.6618
 11
323.094
 21
55.653
  0
LINE
  8
0
 10
323.094
 20
55.653
 11
323
 21
55.65
  0
LINE
  8
0
 10
323
 20
55.65
 11
287
 21
55.65
  0
LINE
  8
0
 10
287
 20
7.34999
 11
286.906
 21
7.35295
  0
LINE
  8
0
 10
286.906
 20
7.35295
 11
286.812
 21
7.36182
  0
LINE
  8
0
 10
286.812
 20
7.36182
 11
286.719
 21
7.37656
  0
LINE
  8
0
 10
286.719
 20
7.37656
 11
286.627
 21
7.39713
  0
LINE
  8
0
 10
286.627
 20
7.39713
 11
286.536
 21
7.4234
  0
LINE
  8
0
 10
286.536
 20
7.4234
 11
286.448
 21
7.45532
  0
LINE
  8
0
 10
286.448
 20
7.45532
 11
286.361
 21
7.49275
  0
LINE
  8
0
 10
286.361
 20
7.49275
 11
286.277
 21
7.53554
  0
LINE
  8
0
 10
286.277
 20
7.53554
 11
286.196
 21
7.5835
  0
LINE
  8
0
 10
286.196
 20
7.5835
 11
286.118
 21
7.63646
  0
LINE
  8
0
 10
286.118
 20
7.63646
 11
286.044
 21
7.69423
  0
LINE
  8
0
 10
286.044
 20
7.69423
 11
285.973
 21
7.75655
  0
LINE
  8
0
 10
285.973
 20
7.75655
 11
285.907
 21
7.82317
  0
LINE
  8
0
 10
285.907
 20
7.82317
 11
285.844
 21
7.89386
  0
LINE
  8
0
 10
285.844
 20
7.89386
 11
285.786
 21
7.96831
  0
LINE
  8
0
 10
285.786
 20
7.96831
 11
285.734
 21
8.04625
  0
LINE
  8
0
 10
285.734
 20
8.04625
 11
285.686
 21
8.12737
  0
LINE
  8
0
 10
285.686
 20
8.12737
 11
285.643
 21
8.21132
  0
LINE
  8
0
 10
285.643
 20
8.21132
 11
285.605
 21
8.29781
  0
LINE
  8
0
 10
285.605
 20
8.29781
 11
285.573
 21
8.38646
  0
LINE
  8
0
 10
285.573
 20
8.38646
 11
285.547
 21
8.47696
  0
LINE
  8
0
 10
285.547
 20
8.47696
 11
285.527
 21
8.56892
  0
LINE
  8
0
 10
285.527
 20
8.56892
 11
285.512
 21
8.66199
  0
LINE
  8
0
 10
285.512
 20
8.66199
 11
285.503
 21
8.75581
  0
LINE
  8
0
 10
285.503
 20
8.75581
 11
285.5
 21
8.84999
  0
LINE
  8
0
 10
285.5
 20
8.84999
 11
285.503
 21
8.94418
  0
LINE
  8
0
 10
285.503
 20
8.94418
 11
285.512
 21
9.03799
  0
LINE
  8
0
 10
285.512
 20
9.03799
 11
285.527
 21
9.13106
  0
LINE
  8
0
 10
285.527
 20
9.13106
 11
285.547
 21
9.22302
  0
LINE
  8
0
 10
285.547
 20
9.22302
 11
285.573
 21
9.31352
  0
LINE
  8
0
 10
285.573
 20
9.31352
 11
285.605
 21
9.40218
  0
LINE
  8
0
 10
285.605
 20
9.40218
 11
285.643
 21
9.48866
  0
LINE
  8
0
 10
285.643
 20
9.48866
 11
285.686
 21
9.57262
  0
LINE
  8
0
 10
285.686
 20
9.57262
 11
285.734
 21
9.65373
  0
LINE
  8
0
 10
285.734
 20
9.65373
 11
285.786
 21
9.73167
  0
LINE
  8
0
 10
285.786
 20
9.73167
 11
285.844
 21
9.80612
  0
LINE
  8
0
 10
285.844
 20
9.80612
 11
285.907
 21
9.87682
  0
LINE
  8
0
 10
285.907
 20
9.87682
 11
285.973
 21
9.94345
  0
LINE
  8
0
 10
285.973
 20
9.94345
 11
286.044
 21
10.0058
  0
LINE
  8
0
 10
286.044
 20
10.0058
 11
286.118
 21
10.0635
  0
LINE
  8
0
 10
286.118
 20
10.0635
 11
286.196
 21
10.1165
  0
LINE
  8
0
 10
286.196
 20
10.1165
 11
286.277
 21
10.1645
  0
LINE
  8
0
 10
286.277
 20
10.1645
 11
286.361
 21
10.2072
  0
LINE
  8
0
 10
286.361
 20
10.2072
 11
286.448
 21
10.2447
  0
LINE
  8
0
 10
286.448
 20
10.2447
 11
286.536
 21
10.2766
  0
LINE
  8
0
 10
286.536
 20
10.2766
 11
286.627
 21
10.3029
  0
LINE
  8
0
 10
286.627
 20
10.3029
 11
286.719
 21
10.3234
  0
LINE
  8
0
 10
286.719
 20
10.3234
 11
286.812
 21
10.3382
  0
LINE
  8
0
 10
286.812
 20
10.3382
 11
286.906
 21
10.347
  0
LINE
  8
0
 10
286.906
 20
10.347
 11
287
 21
10.35
  0
LINE
  8
0
 10
287
 20
10.35
 11
327
 21
10.35
  0
LINE
  8
0
 10
327
 20
10.35
 11
327.094
 21
10.347
  0
LINE
  8
0
 10
327.094
 20
10.347
 11
327.188
 21
10.3382
  0
LINE
  8
0
 10
327.188
 20
10.3382
 11
327.281
 21
10.3234
  0
LINE
  8
0
 10
327.281
 20
10.3234
 11
327.373
 21
10.3029
  0
LINE
  8
0
 10
327.373
 20
10.3029
 11
327.464
 21
10.2766
  0
LINE
  8
0
 10
327.464
 20
10.2766
 11
327.552
 21
10.2447
  0
LINE
  8
0
 10
327.552
 20
10.2447
 11
327.639
 21
10.2072
  0
LINE
  8
0
 10
327.639
 20
10.2072
 11
327.723
 21
10.1645
  0
LINE
  8
0
 10
327.723
 20
10.1645
 11
327.804
 21
10.1165
  0
LINE
  8
0
 10
327.804
 20
10.1165
 11
327.882
 21
10.0635
  0
LINE
  8
0
 10
327.882
 20
10.0635
 11
327.956
 21
10.0058
  0
LINE
  8
0
 10
327.956
 20
10.0058
 11
328.027
 21
9.94345
  0
LINE
  8
0
 10
328.027
 20
9.94345
 11
328.093
 21
9.87682
  0
LINE
  8
0
 10
328.093
 20
9.87682
 11
328.156
 21
9.80612
  0
LINE
  8
0
 10
328.156
 20
9.80612
 11
328.214
 21
9.73167
  0
LINE
  8
0
 10
328.214
 20
9.73167
 11
328.266
 21
9.65373
  0
LINE
  8
0
 10
328.266
 20
9.65373
 11
328.314
 21
9.57262
  0
LINE
  8
0
 10
328.314
 20
9.57262
 11
328.357
 21
9.48866
  0
LINE
  8
0
 10
328.357
 20
9.48866
 11
328.395
 21
9.40218
  0
LINE
  8
0
 10
328.395
 20
9.40218
 11
328.427
 21
9.31352
  0
LINE
  8
0
 10
328.427
 20
9.31352
 11
328.453
 21
9.22302
  0
LINE
  8
0
 10
328.453
 20
9.22302
 11
328.473
 21
9.13106
  0
LINE
  8
0
 10
328.473
 20
9.13106
 11
328.488
 21
9.03799
  0
LINE
  8
0
 10
328.488
 20
9.03799
 11
328.497
 21
8.94418
  0
LINE
  8
0
 10
328.497
 20
8.94418
 11
328.5
 21
8.84999
  0
LINE
  8
0
 10
328.5
 20
8.84999
 11
328.497
 21
8.75581
  0
LINE
  8
0
 10
328.497
 20
8.75581
 11
328.488
 21
8.66199
  0
LINE
  8
0
 10
328.488
 20
8.66199
 11
328.473
 21
8.56892
  0
LINE
  8
0
 10
328.473
 20
8.56892
 11
328.453
 21
8.47696
  0
LINE
  8
0
 10
328.453
 20
8.47696
 11
328.427
 21
8.38646
  0
LINE
  8
0
 10
328.427
 20
8.38646
 11
328.395
 21
8.29781
  0
LINE
  8
0
 10
328.395
 20
8.29781
 11
328.357
 21
8.21132
  0
LINE
  8
0
 10
328.357
 20
8.21132
 11
328.314
 21
8.12737
  0
LINE
  8
0
 10
328.314
 20
8.12737
 11
328.266
 21
8.04625
  0
LINE
  8
0
 10
328.266
 20
8.04625
 11
328.214
 21
7.96831
  0
LINE
  8
0
 10
328.214
 20
7.96831
 11
328.156
 21
7.89386
  0
LINE
  8
0
 10
328.156
 20
7.89386
 11
328.093
 21
7.82317
  0
LINE
  8
0
 10
328.093
 20
7.82317
 11
328.027
 21
7.75655
  0
LINE
  8
0
 10
328.027
 20
7.75655
 11
327.956
 21
7.69423
  0
LINE
  8
0
 10
327.956
 20
7.69423
 11
327.882
 21
7.63646
  0
LINE
  8
0
 10
327.882
 20
7.63646
 11
327.804
 21
7.5835
  0
LINE
  8
0
 10
327.804
 20
7.5835
 11
327.723
 21
7.53554
  0
LINE
  8
0
 10
327.723
 20
7.53554
 11
327.639
 21
7.49275
  0
LINE
  8
0
 10
327.639
 20
7.49275
 11
327.552
 21
7.45532
  0
LINE
  8
0
 10
327.552
 20
7.45532
 11
327.464
 21
7.4234
  0
LINE
  8
0
 10
327.464
 20
7.4234
 11
327.373
 21
7.39713
  0
LINE
  8
0
 10
327.373
 20
7.39713
 11
327.281
 21
7.37656
  0
LINE
  8
0
 10
327.281
 20
7.37656
 11
327.188
 21
7.36182
  0
LINE
  8
0
 10
327.188
 20
7.36182
 11
327.094
 21
7.35295
  0
LINE
  8
0
 10
327.094
 20
7.35295
 11
327
 21
7.34999
  0
LINE
  8
0
 10
327
 20
7.34999
 11
287
 21
7.34999
  0
LINE
  8
0
 10
171.5
 20
1.5
 11
171.503
 21
1.59418
  0
LINE
  8
0
 10
171.503
 20
1.59418
 11
171.512
 21
1.68799
  0
LINE
  8
0
 10
171.512
 20
1.68799
 11
171.527
 21
1.78107
  0
LINE
  8
0
 10
171.527
 20
1.78107
 11
171.547
 21
1.87303
  0
LINE
  8
0
 10
171.547
 20
1.87303
 11
171.573
 21
1.96352
  0
LINE
  8
0
 10
171.573
 20
1.96352
 11
171.605
 21
2.05219
  0
LINE
  8
0
 10
171.605
 20
2.05219
 11
171.643
 21
2.13866
  0
LINE
  8
0
 10
171.643
 20
2.13866
 11
171.686
 21
2.22263
  0
LINE
  8
0
 10
171.686
 20
2.22263
 11
171.734
 21
2.30373
  0
LINE
  8
0
 10
171.734
 20
2.30373
 11
171.786
 21
2.38167
  0
LINE
  8
0
 10
171.786
 20
2.38167
 11
171.844
 21
2.45613
  0
LINE
  8
0
 10
171.844
 20
2.45613
 11
171.907
 21
2.52681
  0
LINE
  8
0
 10
171.907
 20
2.52681
 11
171.973
 21
2.59344
  0
LINE
  8
0
 10
171.973
 20
2.59344
 11
172.044
 21
2.65576
  0
LINE
  8
0
 10
172.044
 20
2.65576
 11
172.118
 21
2.71352
  0
LINE
  8
0
 10
172.118
 20
2.71352
 11
172.196
 21
2.76648
  0
LINE
  8
0
 10
172.196
 20
2.76648
 11
172.277
 21
2.81445
  0
LINE
  8
0
 10
172.277
 20
2.81445
 11
172.361
 21
2.85724
  0
LINE
  8
0
 10
172.361
 20
2.85724
 11
172.448
 21
2.89465
  0
LINE
  8
0
 10
172.448
 20
2.89465
 11
172.536
 21
2.92657
  0
LINE
  8
0
 10
172.536
 20
2.92657
 11
172.627
 21
2.95287
  0
LINE
  8
0
 10
172.627
 20
2.95287
 11
172.719
 21
2.97342
  0
LINE
  8
0
 10
172.719
 20
2.97342
 11
172.812
 21
2.98816
  0
LINE
  8
0
 10
172.812
 20
2.98816
 11
172.906
 21
2.99704
  0
LINE
  8
0
 10
172.906
 20
2.99704
 11
173
 21
3
  0
LINE
  8
0
 10
173
 20
3
 11
173.094
 21
2.99704
  0
LINE
  8
0
 10
173.094
 20
2.99704
 11
173.188
 21
2.98816
  0
LINE
  8
0
 10
173.188
 20
2.98816
 11
173.281
 21
2.97342
  0
LINE
  8
0
 10
173.281
 20
2.97342
 11
173.373
 21
2.95287
  0
LINE
  8
0
 10
173.373
 20
2.95287
 11
173.464
 21
2.92657
  0
LINE
  8
0
 10
173.464
 20
2.92657
 11
173.552
 21
2.89465
  0
LINE
  8
0
 10
173.552
 20
2.89465
 11
173.639
 21
2.85724
  0
LINE
  8
0
 10
173.639
 20
2.85724
 11
173.723
 21
2.81445
  0
LINE
  8
0
 10
173.723
 20
2.81445
 11
173.804
 21
2.76648
  0
LINE
  8
0
 10
173.804
 20
2.76648
 11
173.882
 21
2.71352
  0
LINE
  8
0
 10
173.882
 20
2.71352
 11
173.956
 21
2.65576
  0
LINE
  8
0
 10
173.956
 20
2.65576
 11
174.027
 21
2.59344
  0
LINE
  8
0
 10
174.027
 20
2.59344
 11
174.093
 21
2.52681
  0
LINE
  8
0
 10
174.093
 20
2.52681
 11
174.156
 21
2.45613
  0
LINE
  8
0
 10
174.156
 20
2.45613
 11
174.214
 21
2.38167
  0
LINE
  8
0
 10
174.214
 20
2.38167
 11
174.266
 21
2.30373
  0
LINE
  8
0
 10
174.266
 20
2.30373
 11
174.314
 21
2.22263
  0
LINE
  8
0
 10
174.314
 20
2.22263
 11
174.357
 21
2.13866
  0
LINE
  8
0
 10
174.357
 20
2.13866
 11
174.395
 21
2.05219
  0
LINE
  8
0
 10
174.395
 20
2.05219
 11
174.427
 21
1.96352
  0
LINE
  8
0
 10
174.427
 20
1.96352
 11
174.453
 21
1.87303
  0
LINE
  8
0
 10
174.453
 20
1.87303
 11
174.473
 21
1.78107
  0
LINE
  8
0
 10
174.473
 20
1.78107
 11
174.488
 21
1.68799
  0
LINE
  8
0
 10
174.488
 20
1.68799
 11
174.497
 21
1.59418
  0
LINE
  8
0
 10
174.497
 20
1.59418
 11
174.5
 21
1.49998
  0
LINE
  8
0
 10
174.5
 20
1.49998
 11
174.5
 21
0
  0
LINE
  8
0
 10
174.5
 20
0
 11
178
 21
0
  0
LINE
  8
0
 10
178
 20
0
 11
178
 21
3
  0
LINE
  8
0
 10
178
 20
3
 11
190
 21
3
  0
LINE
  8
0
 10
190
 20
3
 11
190
 21
0
  0
LINE
  8
0
 10
190
 20
0
 11
208
 21
0
  0
LINE
  8
0
 10
208
 20
0
 11
208
 21
3
  0
LINE
  8
0
 10
208
 20
3
 11
220
 21
3
  0
LINE
  8
0
 10
220
 20
3
 11
220
 21
0
  0
LINE
  8
0
 10
220
 20
0
 11
238
 21
0
  0
LINE
  8
0
 10
238
 20
0
 11
238
 21
3
  0
LINE
  8
0
 10
238
 20
3
 11
250
 21
3
  0
LINE
  8
0
 10
250
 20
3
 11
250
 21
0
  0
LINE
  8
0
 10
250
 20
0
 11
253.5
 21
0
  0
LINE
  8
0
 10
253.5
 20
0
 11
253.5
 21
1.5
  0
LINE
  8
0
 10
253.5
 20
1.5
 11
253.503
 21
1.59418
  0
LINE
  8
0
 10
253.503
 20
1.59418
 11
253.512
 21
1.68799
  0
LINE
  8
0
 10
253.512
 20
1.68799
 11
253.527
 21
1.78107
  0
LINE
  8
0
 10
253.527
 20
1.78107
 11
253.547
 21
1.87303
  0
LINE
  8
0
 10
253.547
 20
1.87303
 11
253.573
 21
1.96352
  0
LINE
  8
0
 10
253.573
 20
1.96352
 11
253.605
 21
2.05219
  0
LINE
  8
0
 10
253.605
 20
2.05219
 11
253.643
 21
2.13866
  0
LINE
  8
0
 10
253.643
 20
2.13866
 11
253.686
 21
2.22263
  0
LINE
  8
0
 10
253.686
 20
2.22263
 11
253.734
 21
2.30373
  0
LINE
  8
0
 10
253.734
 20
2.30373
 11
253.786
 21
2.38167
  0
LINE
  8
0
 10
253.786
 20
2.38167
 11
253.844
 21
2.45613
  0
LINE
  8
0
 10
253.844
 20
2.45613
 11
253.907
 21
2.52681
  0
LINE
  8
0
 10
253.907
 20
2.52681
 11
253.973
 21
2.59344
  0
LINE
  8
0
 10
253.973
 20
2.59344
 11
254.044
 21
2.65576
  0
LINE
  8
0
 10
254.044
 20
2.65576
 11
254.118
 21
2.71352
  0
LINE
  8
0
 10
254.118
 20
2.71352
 11
254.196
 21
2.76648
  0
LINE
  8
0
 10
254.196
 20
2.76648
 11
254.277
 21
2.81445
  0
LINE
  8
0
 10
254.277
 20
2.81445
 11
254.361
 21
2.85724
  0
LINE
  8
0
 10
254.361
 20
2.85724
 11
254.448
 21
2.89465
  0
LINE
  8
0
 10
254.448
 20
2.89465
 11
254.536
 21
2.92657
  0
LINE
  8
0
 10
254.536
 20
2.92657
 11
254.627
 21
2.95287
  0
LINE
  8
0
 10
254.627
 20
2.95287
 11
254.719
 21
2.97342
  0
LINE
  8
0
 10
254.719
 20
2.97342
 11
254.812
 21
2.98816
  0
LINE
  8
0
 10
254.812
 20
2.98816
 11
254.906
 21
2.99704
  0
LINE
  8
0
 10
254.906
 20
2.99704
 11
255
 21
3
  0
LINE
  8
0
 10
255
 20
3
 11
255.094
 21
2.99704
  0
LINE
  8
0
 10
255.094
 20
2.99704
 11
255.188
 21
2.98816
  0
LINE
  8
0
 10
255.188
 20
2.98816
 11
255.281
 21
2.97342
  0
LINE
  8
0
 10
255.281
 20
2.97342
 11
255.373
 21
2.95287
  0
LINE
  8
0
 10
255.373
 20
2.95287
 11
255.464
 21
2.92657
  0
LINE
  8
0
 10
255.464
 20
2.92657
 11
255.552
 21
2.89465
  0
LINE
  8
0
 10
255.552
 20
2.89465
 11
255.639
 21
2.85724
  0
LINE
  8
0
 10
255.639
 20
2.85724
 11
255.723
 21
2.81445
  0
LINE
  8
0
 10
255.723
 20
2.81445
 11
255.804
 21
2.76648
  0
LINE
  8
0
 10
255.804
 20
2.76648
 11
255.882
 21
2.71352
  0
LINE
  8
0
 10
255.882
 20
2.71352
 11
255.956
 21
2.65576
  0
LINE
  8
0
 10
255.956
 20
2.65576
 11
256.027
 21
2.59344
  0
LINE
  8
0
 10
256.027
 20
2.59344
 11
256.093
 21
2.52681
  0
LINE
  8
0
 10
256.093
 20
2.52681
 11
256.156
 21
2.45613
  0
LINE
  8
0
 10
256.156
 20
2.45613
 11
256.214
 21
2.38167
  0
LINE
  8
0
 10
256.214
 20
2.38167
 11
256.266
 21
2.30373
  0
LINE
  8
0
 10
256.266
 20
2.30373
 11
256.314
 21
2.22263
  0
LINE
  8
0
 10
256.314
 20
2.22263
 11
256.357
 21
2.13866
  0
LINE
  8
0
 10
256.357
 20
2.13866
 11
256.395
 21
2.05219
  0
LINE
  8
0
 10
256.395
 20
2.05219
 11
256.427
 21
1.96352
  0
LINE
  8
0
 10
256.427
 20
1.96352
 11
256.453
 21
1.87303
  0
LINE
  8
0
 10
256.453
 20
1.87303
 11
256.473
 21
1.78107
  0
LINE
  8
0
 10
256.473
 20
1.78107
 11
256.488
 21
1.68799
  0
LINE
  8
0
 10
256.488
 20
1.68799
 11
256.497
 21
1.59418
  0
LINE
  8
0
 10
256.497
 20
1.59418
 11
256.5
 21
1.49998
  0
LINE
  8
0
 10
256.5
 20
1.49998
 11
256.5
 21
0
  0
LINE
  8
0
 10
256.5
 20
0
 11
262
 21
0
  0
LINE
  8
0
 10
262
 20
0
 11
262
 21
12
  0
LINE
  8
0
 10
262
 20
12
 11
259
 21
12
  0
LINE
  8
0
 10
259
 20
12
 11
259
 21
24
  0
LINE
  8
0
 10
259
 20
24
 11
262
 21
24
  0
LINE
  8
0
 10
262
 20
24
 11
262
 21
42
  0
LINE
  8
0
 10
262
 20
42
 11
259
 21
42
  0
LINE
  8
0
 10
259
 20
42
 11
259
 21
54
  0
LINE
  8
0
 10
259
 20
54
 11
262
 21
54
  0
LINE
  8
0
 10
262
 20
54
 11
262
 21
66
  0
LINE
  8
0
 10
262
 20
66
 11
256.5
 21
66
  0
LINE
  8
0
 10
256.5
 20
66
 11
256.5
 21
64.5
  0
LINE
  8
0
 10
256.5
 20
64.5
 11
256.497
 21
64.4058
  0
LINE
  8
0
 10
256.497
 20
64.4058
 11
256.488
 21
64.312
  0
LINE
  8
0
 10
256.488
 20
64.312
 11
256.473
 21
64.2189
  0
LINE
  8
0
 10
256.473
 20
64.2189
 11
256.453
 21
64.127
  0
LINE
  8
0
 10
256.453
 20
64.127
 11
256.427
 21
64.0365
  0
LINE
  8
0
 10
256.427
 20
64.0365
 11
256.395
 21
63.9478
  0
LINE
  8
0
 10
256.395
 20
63.9478
 11
256.357
 21
63.8613
  0
LINE
  8
0
 10
256.357
 20
63.8613
 11
256.314
 21
63.7774
  0
LINE
  8
0
 10
256.314
 20
63.7774
 11
256.266
 21
63.6963
  0
LINE
  8
0
 10
256.266
 20
63.6963
 11
256.214
 21
63.6183
  0
LINE
  8
0
 10
256.214
 20
63.6183
 11
256.156
 21
63.5439
  0
LINE
  8
0
 10
256.156
 20
63.5439
 11
256.093
 21
63.4732
  0
LINE
  8
0
 10
256.093
 20
63.4732
 11
256.027
 21
63.4065
  0
LINE
  8
0
 10
256.027
 20
63.4065
 11
255.956
 21
63.3442
  0
LINE
  8
0
 10
255.956
 20
63.3442
 11
255.882
 21
63.2865
  0
LINE
  8
0
 10
255.882
 20
63.2865
 11
255.804
 21
63.2335
  0
LINE
  8
0
 10
255.804
 20
63.2335
 11
255.723
 21
63.1855
  0
LINE
  8
0
 10
255.723
 20
63.1855
 11
255.639
 21
63.1427
  0
LINE
  8
0
 10
255.639
 20
63.1427
 11
255.552
 21
63.1053
  0
LINE
  8
0
 10
255.552
 20
63.1053
 11
255.464
 21
63.0734
  0
LINE
  8
0
 10
255.464
 20
63.0734
 11
255.373
 21
63.0471
  0
LINE
  8
0
 10
255.373
 20
63.0471
 11
255.281
 21
63.0266
  0
LINE
  8
0
 10
255.281
 20
63.0266
 11
255.188
 21
63.0118
  0
LINE
  8
0
 10
255.188
 20
63.0118
 11
255.094
 21
63.0029
  0
LINE
  8
0
 10
255.094
 20
63.0029
 11
255
 21
63
  0
LINE
  8
0
 10
255
 20
63
 11
254.906
 21
63.0029
  0
LINE
  8
0
 10
254.906
 20
63.0029
 11
254.812
 21
63.0118
  0
LINE
  8
0
 10
254.812
 20
63.0118
 11
254.719
 21
63.0266
  0
LINE
  8
0
 10
254.719
 20
63.0266
 11
254.627
 21
63.0471
  0
LINE
  8
0
 10
254.627
 20
63.0471
 11
254.536
 21
63.0734
  0
LINE
  8
0
 10
254.536
 20
63.0734
 11
254.448
 21
63.1053
  0
LINE
  8
0
 10
254.448
 20
63.1053
 11
254.361
 21
63.1427
  0
LINE
  8
0
 10
254.361
 20
63.1427
 11
254.277
 21
63.1855
  0
LINE
  8
0
 10
254.277
 20
63.1855
 11
254.196
 21
63.2335
  0
LINE
  8
0
 10
254.196
 20
63.2335
 11
254.118
 21
63.2865
  0
LINE
  8
0
 10
254.118
 20
63.2865
 11
254.044
 21
63.3442
  0
LINE
  8
0
 10
254.044
 20
63.3442
 11
253.973
 21
63.4065
  0
LINE
  8
0
 10
253.973
 20
63.4065
 11
253.907
 21
63.4732
  0
LINE
  8
0
 10
253.907
 20
63.4732
 11
253.844
 21
63.5439
  0
LINE
  8
0
 10
253.844
 20
63.5439
 11
253.786
 21
63.6183
  0
LINE
  8
0
 10
253.786
 20
63.6183
 11
253.734
 21
63.6963
  0
LINE
  8
0
 10
253.734
 20
63.6963
 11
253.686
 21
63.7774
  0
LINE
  8
0
 10
253.686
 20
63.7774
 11
253.643
 21
63.8613
  0
LINE
  8
0
 10
253.643
 20
63.8613
 11
253.605
 21
63.9478
  0
LINE
  8
0
 10
253.605
 20
63.9478
 11
253.573
 21
64.0365
  0
LINE
  8
0
 10
253.573
 20
64.0365
 11
253.547
 21
64.127
  0
LINE
  8
0
 10
253.547
 20
64.127
 11
253.527
 21
64.2189
  0
LINE
  8
0
 10
253.527
 20
64.2189
 11
253.512
 21
64.312
  0
LINE
  8
0
 10
253.512
 20
64.312
 11
253.503
 21
64.4058
  0
LINE
  8
0
 10
253.503
 20
64.4058
 11
253.5
 21
64.5
  0
LINE
  8
0
 10
253.5
 20
64.5
 11
253.5
 21
66
  0
LINE
  8
0
 10
253.5
 20
66
 11
250
 21
66
  0
LINE
  8
0
 10
250
 20
66
 11
250
 21
63
  0
LINE
  8
0
 10
250
 20
63
 11
238
 21
63
  0
LINE
  8
0
 10
238
 20
63
 11
238
 21
66
  0
LINE
  8
0
 10
238
 20
66
 11
220
 21
66
  0
LINE
  8
0
 10
220
 20
66
 11
220
 21
63
  0
LINE
  8
0
 10
220
 20
63
 11
208
 21
63
  0
LINE
  8
0
 10
208
 20
63
 11
208
 21
66
  0
LINE
  8
0
 10
208
 20
66
 11
190
 21
66
  0
LINE
  8
0
 10
190
 20
66
 11
190
 21
63
  0
LINE
  8
0
 10
190
 20
63
 11
178
 21
63
  0
LINE
  8
0
 10
178
 20
63
 11
178
 21
66
  0
LINE
  8
0
 10
178
 20
66
 11
174.5
 21
66
  0
LINE
  8
0
 10
174.5
 20
66
 11
174.5
 21
64.5
  0
LINE
  8
0
 10
174.5
 20
64.5
 11
174.497
 21
64.4058
  0
LINE
  8
0
 10
174.497
 20
64.4058
 11
174.488
 21
64.312
  0
LINE
  8
0
 10
174.488
 20
64.312
 11
174.473
 21
64.2189
  0
LINE
  8
0
 10
174.473
 20
64.2189
 11
174.453
 21
64.127
  0
LINE
  8
0
 10
174.453
 20
64.127
 11
174.427
 21
64.0365
  0
LINE
  8
0
 10
174.427
 20
64.0365
 11
174.395
 21
63.9478
  0
LINE
  8
0
 10
174.395
 20
63.9478
 11
174.357
 21
63.8613
  0
LINE
  8
0
 10
174.357
 20
63.8613
 11
174.314
 21
63.7774
  0
LINE
  8
0
 10
174.314
 20
63.7774
 11
174.266
 21
63.6963
  0
LINE
  8
0
 10
174.266
 20
63.6963
 11
174.214
 21
63.6183
  0
LINE
  8
0
 10
174.214
 20
63.6183
 11
174.156
 21
63.5439
  0
LINE
  8
0
 10
174.156
 20
63.5439
 11
174.093
 21
63.4732
  0
LINE
  8
0
 10
174.093
 20
63.4732
 11
174.027
 21
63.4065
  0
LINE
  8
0
 10
174.027
 20
63.4065
 11
173.956
 21
63.3442
  0
LINE
  8
0
 10
173.956
 20
63.3442
 11
173.882
 21
63.2865
  0
LINE
  8
0
 10
173.882
 20
63.2865
 11
173.804
 21
63.2335
  0
LINE
  8
0
 10
173.804
 20
63.2335
 11
173.723
 21
63.1855
  0
LINE
  8
0
 10
173.723
 20
63.1855
 11
173.639
 21
63.1427
  0
LINE
  8
0
 10
173.639
 20
63.1427
 11
173.552
 21
63.1053
  0
LINE
  8
0
 10
173.552
 20
63.1053
 11
173.464
 21
63.0734
  0
LINE
  8
0
 10
173.464
 20
63.0734
 11
173.373
 21
63.0471
  0
LINE
  8
0
 10
173.373
 20
63.0471
 11
173.281
 21
63.0266
  0
LINE
  8
0
 10
173.281
 20
63.0266
 11
173.188
 21
63.0118
  0
LINE
  8
0
 10
173.188
 20
63.0118
 11
173.094
 21
63.0029
  0
LINE
  8
0
 10
173.094
 20
63.0029
 11
173
 21
63
  0
LINE
  8
0
 10
173
 20
63
 11
172.906
 21
63.0029
  0
LINE
  8
0
 10
172.906
 20
63.0029
 11
172.812
 21
63.0118
  0
LINE
  8
0
 10
172.812
 20
63.0118
 11
172.719
 21
63.0266
  0
LINE
  8
0
 10
172.719
 20
63.0266
 11
172.627
 21
63.0471
  0
LINE
  8
0
 10
172.627
 20
63.0471
 11
172.536
 21
63.0734
  0
LINE
  8
0
 10
172.536
 20
63.0734
 11
172.448
 21
63.1053
  0
LINE
  8
0
 10
172.448
 20
63.1053
 11
172.361
 21
63.1427
  0
LINE
  8
0
 10
172.361
 20
63.1427
 11
172.277
 21
63.1855
  0
LINE
  8
0
 10
172.277
 20
63.1855
 11
172.196
 21
63.2335
  0
LINE
  8
0
 10
172.196
 20
63.2335
 11
172.118
 21
63.2865
  0
LINE
  8
0
 10
172.118
 20
63.2865
 11
172.044
 21
63.3442
  0
LINE
  8
0
 10
172.044
 20
63.3442
 11
171.973
 21
63.4065
  0
LINE
  8
0
 10
171.973
 20
63.4065
 11
171.907
 21
63.4732
  0
LINE
  8
0
 10
171.907
 20
63.4732
 11
171.844
 21
63.5439
  0
LINE
  8
0
 10
171.844
 20
63.5439
 11
171.786
 21
63.6183
  0
LINE
  8
0
 10
171.786
 20
63.6183
 11
171.734
 21
63.6963
  0
LINE
  8
0
 10
171.734
 20
63.6963
 11
171.686
 21
63.7774
  0
LINE
  8
0
 10
171.686
 20
63.7774
 11
171.643
 21
63.8613
  0
LINE
  8
0
 10
171.643
 20
63.8613
 11
171.605
 21
63.9478
  0
LINE
  8
0
 10
171.605
 20
63.9478
 11
171.573
 21
64.0365
  0
LINE
  8
0
 10
171.573
 20
64.0365
 11
171.547
 21
64.127
  0
LINE
  8
0
 10
171.547
 20
64.127
 11
171.527
 21
64.2189
  0
LINE
  8
0
 10
171.527
 20
64.2189
 11
171.512
 21
64.312
  0
LINE
  8
0
 10
171.512
 20
64.312
 11
171.503
 21
64.4058
  0
LINE
  8
0
 10
171.503
 20
64.4058
 11
171.5
 21
64.5
  0
LINE
  8
0
 10
171.5
 20
64.5
 11
171.5
 21
66
  0
LINE
  8
0
 10
171.5
 20
66
 11
166
 21
66
  0
LINE
  8
0
 10
166
 20
66
 11
166
 21
54
  0
LINE
  8
0
 10
166
 20
54
 11
169
 21
54
  0
LINE
  8
0
 10
169
 20
54
 11
169
 21
42
  0
LINE
  8
0
 10
169
 20
42
 11
166
 21
42
  0
LINE
  8
0
 10
166
 20
42
 11
166
 21
24
  0
LINE
  8
0
 10
166
 20
24
 11
169
 21
24
  0
LINE
  8
0
 10
169
 20
24
 11
169
 21
12
  0
LINE
  8
0
 10
169
 20
12
 11
166
 21
12
  0
LINE
  8
0
 10
166
 20
12
 11
166
 21
0
  0
LINE
  8
0
 10
166
 20
0
 11
171.5
 21
0
  0
LINE
  8
0
 10
171.5
 20
0
 11
171.5
 21
1.5
  0
LINE
  8
0
 10
238.906
 20
51.0029
 11
238.812
 21
51.0118
  0
LINE
  8
0
 10
238.812
 20
51.0118
 11
238.719
 21
51.0266
  0
LINE
  8
0
 10
238.719
 20
51.0266
 11
238.627
 21
51.0471
  0
LINE
  8
0
 10
238.627
 20
51.0471
 11
238.536
 21
51.0734
  0
LINE
  8
0
 10
238.536
 20
51.0734
 11
238.448
 21
51.1053
  0
LINE
  8
0
 10
238.448
 20
51.1053
 11
238.361
 21
51.1427
  0
LINE
  8
0
 10
238.361
 20
51.1427
 11
238.277
 21
51.1855
  0
LINE
  8
0
 10
238.277
 20
51.1855
 11
238.196
 21
51.2335
  0
LINE
  8
0
 10
238.196
 20
51.2335
 11
238.118
 21
51.2865
  0
LINE
  8
0
 10
238.118
 20
51.2865
 11
238.044
 21
51.3442
  0
LINE
  8
0
 10
238.044
 20
51.3442
 11
237.973
 21
51.4065
  0
LINE
  8
0
 10
237.973
 20
51.4065
 11
237.907
 21
51.4732
  0
LINE
  8
0
 10
237.907
 20
51.4732
 11
237.844
 21
51.5439
  0
LINE
  8
0
 10
237.844
 20
51.5439
 11
237.786
 21
51.6183
  0
LINE
  8
0
 10
237.786
 20
51.6183
 11
237.734
 21
51.6963
  0
LINE
  8
0
 10
237.734
 20
51.6963
 11
237.686
 21
51.7774
  0
LINE
  8
0
 10
237.686
 20
51.7774
 11
237.643
 21
51.8613
  0
LINE
  8
0
 10
237.643
 20
51.8613
 11
237.605
 21
51.9478
  0
LINE
  8
0
 10
237.605
 20
51.9478
 11
237.573
 21
52.0365
  0
LINE
  8
0
 10
237.573
 20
52.0365
 11
237.547
 21
52.127
  0
LINE
  8
0
 10
237.547
 20
52.127
 11
237.527
 21
52.2189
  0
LINE
  8
0
 10
237.527
 20
52.2189
 11
237.512
 21
52.312
  0
LINE
  8
0
 10
237.512
 20
52.312
 11
237.503
 21
52.4058
  0
LINE
  8
0
 10
237.503
 20
52.4058
 11
237.5
 21
52.5
  0
LINE
  8
0
 10
237.5
 20
52.5
 11
237.503
 21
52.5942
  0
LINE
  8
0
 10
237.503
 20
52.5942
 11
237.512
 21
52.688
  0
LINE
  8
0
 10
237.512
 20
52.688
 11
237.527
 21
52.7811
  0
LINE
  8
0
 10
237.527
 20
52.7811
 11
237.547
 21
52.873
  0
LINE
  8
0
 10
237.547
 20
52.873
 11
237.573
 21
52.9635
  0
LINE
  8
0
 10
237.573
 20
52.9635
 11
237.605
 21
53.0522
  0
LINE
  8
0
 10
237.605
 20
53.0522
 11
237.643
 21
53.1387
  0
LINE
  8
0
 10
237.643
 20
53.1387
 11
237.686
 21
53.2226
  0
LINE
  8
0
 10
237.686
 20
53.2226
 11
237.734
 21
53.3037
  0
LINE
  8
0
 10
237.734
 20
53.3037
 11
237.786
 21
53.3817
  0
LINE
  8
0
 10
237.786
 20
53.3817
 11
237.844
 21
53.4561
  0
LINE
  8
0
 10
237.844
 20
53.4561
 11
237.907
 21
53.5268
  0
LINE
  8
0
 10
237.907
 20
53.5268
 11
237.973
 21
53.5934
  0
LINE
  8
0
 10
237.973
 20
53.5934
 11
238.044
 21
53.6558
  0
LINE
  8
0
 10
238.044
 20
53.6558
 11
238.118
 21
53.7135
  0
LINE
  8
0
 10
238.118
 20
53.7135
 11
238.196
 21
53.7665
  0
LINE
  8
0
 10
238.196
 20
53.7665
 11
238.277
 21
53.8145
  0
LINE
  8
0
 10
238.277
 20
53.8145
 11
238.361
 21
53.8572
  0
LINE
  8
0
 10
238.361
 20
53.8572
 11
238.448
 21
53.8947
  0
LINE
  8
0
 10
238.448
 20
53.8947
 11
238.536
 21
53.9266
  0
LINE
  8
0
 10
238.536
 20
53.9266
 11
238.627
 21
53.9529
  0
LINE
  8
0
 10
238.627
 20
53.9529
 11
238.719
 21
53.9734
  0
LINE
  8
0
 10
238.719
 20
53.9734
 11
238.812
 21
53.9882
  0
LINE
  8
0
 10
238.812
 20
53.9882
 11
238.906
 21
53.997
  0
LINE
  8
0
 10
238.906
 20
53.997
 11
239
 21
54
  0
LINE
  8
0
 10
239
 20
54
 11
239.094
 21
53.997
  0
LINE
  8
0
 10
239.094
 20
53.997
 11
239.188
 21
53.9882
  0
LINE
  8
0
 10
239.188
 20
53.9882
 11
239.281
 21
53.9734
  0
LINE
  8
0
 10
239.281
 20
53.9734
 11
239.373
 21
53.9529
  0
LINE
  8
0
 10
239.373
 20
53.9529
 11
239.464
 21
53.9266
  0
LINE
  8
0
 10
239.464
 20
53.9266
 11
239.552
 21
53.8947
  0
LINE
  8
0
 10
239.552
 20
53.8947
 11
239.639
 21
53.8572
  0
LINE
  8
0
 10
239.639
 20
53.8572
 11
239.723
 21
53.8145
  0
LINE
  8
0
 10
239.723
 20
53.8145
 11
239.804
 21
53.7665
  0
LINE
  8
0
 10
239.804
 20
53.7665
 11
239.882
 21
53.7135
  0
LINE
  8
0
 10
239.882
 20
53.7135
 11
239.956
 21
53.6558
  0
LINE
  8
0
 10
239.956
 20
53.6558
 11
240.027
 21
53.5934
  0
LINE
  8
0
 10
240.027
 20
53.5934
 11
240.093
 21
53.5268
  0
LINE
  8
0
 10
240.093
 20
53.5268
 11
240.156
 21
53.4561
  0
LINE
  8
0
 10
240.156
 20
53.4561
 11
240.214
 21
53.3817
  0
LINE
  8
0
 10
240.214
 20
53.3817
 11
240.266
 21
53.3037
  0
LINE
  8
0
 10
240.266
 20
53.3037
 11
240.314
 21
53.2226
  0
LINE
  8
0
 10
240.314
 20
53.2226
 11
240.357
 21
53.1387
  0
LINE
  8
0
 10
240.357
 20
53.1387
 11
240.395
 21
53.0522
  0
LINE
  8
0
 10
240.395
 20
53.0522
 11
240.427
 21
52.9635
  0
LINE
  8
0
 10
240.427
 20
52.9635
 11
240.453
 21
52.873
  0
LINE
  8
0
 10
240.453
 20
52.873
 11
240.473
 21
52.7811
  0
LINE
  8
0
 10
240.473
 20
52.7811
 11
240.488
 21
52.688
  0
LINE
  8
0
 10
240.488
 20
52.688
 11
240.497
 21
52.5942
  0
LINE
  8
0
 10
240.497
 20
52.5942
 11
240.5
 21
52.5
  0
LINE
  8
0
 10
240.5
 20
52.5
 11
240.497
 21
52.4058
  0
LINE
  8
0
 10
240.497
 20
52.4058
 11
240.488
 21
52.312
  0
LINE
  8
0
 10
240.488
 20
52.312
 11
240.473
 21
52.2189
  0
LINE
  8
0
 10
240.473
 20
52.2189
 11
240.453
 21
52.127
  0
LINE
  8
0
 10
240.453
 20
52.127
 11
240.427
 21
52.0365
  0
LINE
  8
0
 10
240.427
 20
52.0365
 11
240.395
 21
51.9478
  0
LINE
  8
0
 10
240.395
 20
51.9478
 11
240.357
 21
51.8613
  0
LINE
  8
0
 10
240.357
 20
51.8613
 11
240.314
 21
51.7774
  0
LINE
  8
0
 10
240.314
 20
51.7774
 11
240.266
 21
51.6963
  0
LINE
  8
0
 10
240.266
 20
51.6963
 11
240.214
 21
51.6183
  0
LINE
  8
0
 10
240.214
 20
51.6183
 11
240.156
 21
51.5439
  0
LINE
  8
0
 10
240.156
 20
51.5439
 11
240.093
 21
51.4732
  0
LINE
  8
0
 10
240.093
 20
51.4732
 11
240.027
 21
51.4065
  0
LINE
  8
0
 10
240.027
 20
51.4065
 11
239.956
 21
51.3442
  0
LINE
  8
0
 10
239.956
 20
51.3442
 11
239.882
 21
51.2865
  0
LINE
  8
0
 10
239.882
 20
51.2865
 11
239.804
 21
51.2335
  0
LINE
  8
0
 10
239.804
 20
51.2335
 11
239.723
 21
51.1855
  0
LINE
  8
0
 10
239.723
 20
51.1855
 11
239.639
 21
51.1427
  0
LINE
  8
0
 10
239.639
 20
51.1427
 11
239.552
 21
51.1053
  0
LINE
  8
0
 10
239.552
 20
51.1053
 11
239.464
 21
51.0734
  0
LINE
  8
0
 10
239.464
 20
51.0734
 11
239.373
 21
51.0471
  0
LINE
  8
0
 10
239.373
 20
51.0471
 11
239.281
 21
51.0266
  0
LINE
  8
0
 10
239.281
 20
51.0266
 11
239.188
 21
51.0118
  0
LINE
  8
0
 10
239.188
 20
51.0118
 11
239.094
 21
51.0029
  0
LINE
  8
0
 10
239.094
 20
51.0029
 11
239
 21
51
  0
LINE
  8
0
 10
239
 20
51
 11
238.906
 21
51.0029
  0
LINE
  8
0
 10
238.906
 20
12.0029
 11
238.812
 21
12.0118
  0
LINE
  8
0
 10
238.812
 20
12.0118
 11
238.719
 21
12.0266
  0
LINE
  8
0
 10
238.719
 20
12.0266
 11
238.627
 21
12.0471
  0
LINE
  8
0
 10
238.627
 20
12.0471
 11
238.536
 21
12.0734
  0
LINE
  8
0
 10
238.536
 20
12.0734
 11
238.448
 21
12.1053
  0
LINE
  8
0
 10
238.448
 20
12.1053
 11
238.361
 21
12.1427
  0
LINE
  8
0
 10
238.361
 20
12.1427
 11
238.277
 21
12.1855
  0
LINE
  8
0
 10
238.277
 20
12.1855
 11
238.196
 21
12.2335
  0
LINE
  8
0
 10
238.196
 20
12.2335
 11
238.118
 21
12.2865
  0
LINE
  8
0
 10
238.118
 20
12.2865
 11
238.044
 21
12.3442
  0
LINE
  8
0
 10
238.044
 20
12.3442
 11
237.973
 21
12.4065
  0
LINE
  8
0
 10
237.973
 20
12.4065
 11
237.907
 21
12.4732
  0
LINE
  8
0
 10
237.907
 20
12.4732
 11
237.844
 21
12.5439
  0
LINE
  8
0
 10
237.844
 20
12.5439
 11
237.786
 21
12.6183
  0
LINE
  8
0
 10
237.786
 20
12.6183
 11
237.734
 21
12.6963
  0
LINE
  8
0
 10
237.734
 20
12.6963
 11
237.686
 21
12.7774
  0
LINE
  8
0
 10
237.686
 20
12.7774
 11
237.643
 21
12.8613
  0
LINE
  8
0
 10
237.643
 20
12.8613
 11
237.605
 21
12.9478
  0
LINE
  8
0
 10
237.605
 20
12.9478
 11
237.573
 21
13.0365
  0
LINE
  8
0
 10
237.573
 20
13.0365
 11
237.547
 21
13.127
  0
LINE
  8
0
 10
237.547
 20
13.127
 11
237.527
 21
13.2189
  0
LINE
  8
0
 10
237.527
 20
13.2189
 11
237.512
 21
13.312
  0
LINE
  8
0
 10
237.512
 20
13.312
 11
237.503
 21
13.4058
  0
LINE
  8
0
 10
237.503
 20
13.4058
 11
237.5
 21
13.5
  0
LINE
  8
0
 10
237.5
 20
13.5
 11
237.503
 21
13.5942
  0
LINE
  8
0
 10
237.503
 20
13.5942
 11
237.512
 21
13.688
  0
LINE
  8
0
 10
237.512
 20
13.688
 11
237.527
 21
13.7811
  0
LINE
  8
0
 10
237.527
 20
13.7811
 11
237.547
 21
13.873
  0
LINE
  8
0
 10
237.547
 20
13.873
 11
237.573
 21
13.9635
  0
LINE
  8
0
 10
237.573
 20
13.9635
 11
237.605
 21
14.0522
  0
LINE
  8
0
 10
237.605
 20
14.0522
 11
237.643
 21
14.1387
  0
LINE
  8
0
 10
237.643
 20
14.1387
 11
237.686
 21
14.2226
  0
LINE
  8
0
 10
237.686
 20
14.2226
 11
237.734
 21
14.3037
  0
LINE
  8
0
 10
237.734
 20
14.3037
 11
237.786
 21
14.3817
  0
LINE
  8
0
 10
237.786
 20
14.3817
 11
237.844
 21
14.4561
  0
LINE
  8
0
 10
237.844
 20
14.4561
 11
237.907
 21
14.5268
  0
LINE
  8
0
 10
237.907
 20
14.5268
 11
237.973
 21
14.5934
  0
LINE
  8
0
 10
237.973
 20
14.5934
 11
238.044
 21
14.6558
  0
LINE
  8
0
 10
238.044
 20
14.6558
 11
238.118
 21
14.7135
  0
LINE
  8
0
 10
238.118
 20
14.7135
 11
238.196
 21
14.7665
  0
LINE
  8
0
 10
238.196
 20
14.7665
 11
238.277
 21
14.8145
  0
LINE
  8
0
 10
238.277
 20
14.8145
 11
238.361
 21
14.8572
  0
LINE
  8
0
 10
238.361
 20
14.8572
 11
238.448
 21
14.8947
  0
LINE
  8
0
 10
238.448
 20
14.8947
 11
238.536
 21
14.9266
  0
LINE
  8
0
 10
238.536
 20
14.9266
 11
238.627
 21
14.9529
  0
LINE
  8
0
 10
238.627
 20
14.9529
 11
238.719
 21
14.9734
  0
LINE
  8
0
 10
238.719
 20
14.9734
 11
238.812
 21
14.9882
  0
LINE
  8
0
 10
238.812
 20
14.9882
 11
238.906
 21
14.997
  0
LINE
  8
0
 10
238.906
 20
14.997
 11
239
 21
15
  0
LINE
  8
0
 10
239
 20
15
 11
239.094
 21
14.997
  0
LINE
  8
0
 10
239.094
 20
14.997
 11
239.188
 21
14.9882
  0
LINE
  8
0
 10
239.188
 20
14.9882
 11
239.281
 21
14.9734
  0
LINE
  8
0
 10
239.281
 20
14.9734
 11
239.373
 21
14.9529
  0
LINE
  8
0
 10
239.373
 20
14.9529
 11
239.464
 21
14.9266
  0
LINE
  8
0
 10
239.464
 20
14.9266
 11
239.552
 21
14.8947
  0
LINE
  8
0
 10
239.552
 20
14.8947
 11
239.639
 21
14.8572
  0
LINE
  8
0
 10
239.639
 20
14.8572
 11
239.723
 21
14.8145
  0
LINE
  8
0
 10
239.723
 20
14.8145
 11
239.804
 21
14.7665
  0
LINE
  8
0
 10
239.804
 20
14.7665
 11
239.882
 21
14.7135
  0
LINE
  8
0
 10
239.882
 20
14.7135
 11
239.956
 21
14.6558
  0
LINE
  8
0
 10
239.956
 20
14.6558
 11
240.027
 21
14.5934
  0
LINE
  8
0
 10
240.027
 20
14.5934
 11
240.093
 21
14.5268
  0
LINE
  8
0
 10
240.093
 20
14.5268
 11
240.156
 21
14.4561
  0
LINE
  8
0
 10
240.156
 20
14.4561
 11
240.214
 21
14.3817
  0
LINE
  8
0
 10
240.214
 20
14.3817
 11
240.266
 21
14.3037
  0
LINE
  8
0
 10
240.266
 20
14.3037
 11
240.314
 21
14.2226
  0
LINE
  8
0
 10
240.314
 20
14.2226
 11
240.357
 21
14.1387
  0
LINE
  8
0
 10
240.357
 20
14.1387
 11
240.395
 21
14.0522
  0
LINE
  8
0
 10
240.395
 20
14.0522
 11
240.427
 21
13.9635
  0
LINE
  8
0
 10
240.427
 20
13.9635
 11
240.453
 21
13.873
  0
LINE
  8
0
 10
240.453
 20
13.873
 11
240.473
 21
13.7811
  0
LINE
  8
0
 10
240.473
 20
13.7811
 11
240.488
 21
13.688
  0
LINE
  8
0
 10
240.488
 20
13.688
 11
240.497
 21
13.5942
  0
LINE
  8
0
 10
240.497
 20
13.5942
 11
240.5
 21
13.5
  0
LINE
  8
0
 10
240.5
 20
13.5
 11
240.497
 21
13.4058
  0
LINE
  8
0
 10
240.497
 20
13.4058
 11
240.488
 21
13.312
  0
LINE
  8
0
 10
240.488
 20
13.312
 11
240.473
 21
13.2189
  0
LINE
  8
0
 10
240.473
 20
13.2189
 11
240.453
 21
13.127
  0
LINE
  8
0
 10
240.453
 20
13.127
 11
240.427
 21
13.0365
  0
LINE
  8
0
 10
240.427
 20
13.0365
 11
240.395
 21
12.9478
  0
LINE
  8
0
 10
240.395
 20
12.9478
 11
240.357
 21
12.8613
  0
LINE
  8
0
 10
240.357
 20
12.8613
 11
240.314
 21
12.7774
  0
LINE
  8
0
 10
240.314
 20
12.7774
 11
240.266
 21
12.6963
  0
LINE
  8
0
 10
240.266
 20
12.6963
 11
240.214
 21
12.6183
  0
LINE
  8
0
 10
240.214
 20
12.6183
 11
240.156
 21
12.5439
  0
LINE
  8
0
 10
240.156
 20
12.5439
 11
240.093
 21
12.4732
  0
LINE
  8
0
 10
240.093
 20
12.4732
 11
240.027
 21
12.4065
  0
LINE
  8
0
 10
240.027
 20
12.4065
 11
239.956
 21
12.3442
  0
LINE
  8
0
 10
239.956
 20
12.3442
 11
239.882
 21
12.2865
  0
LINE
  8
0
 10
239.882
 20
12.2865
 11
239.804
 21
12.2335
  0
LINE
  8
0
 10
239.804
 20
12.2335
 11
239.723
 21
12.1855
  0
LINE
  8
0
 10
239.723
 20
12.1855
 11
239.639
 21
12.1427
  0
LINE
  8
0
 10
239.639
 20
12.1427
 11
239.552
 21
12.1053
  0
LINE
  8
0
 10
239.552
 20
12.1053
 11
239.464
 21
12.0734
  0
LINE
  8
0
 10
239.464
 20
12.0734
 11
239.373
 21
12.0471
  0
LINE
  8
0
 10
239.373
 20
12.0471
 11
239.281
 21
12.0266
  0
LINE
  8
0
 10
239.281
 20
12.0266
 11
239.188
 21
12.0118
  0
LINE
  8
0
 10
239.188
 20
12.0118
 11
239.094
 21
12.0029
  0
LINE
  8
0
 10
239.094
 20
12.0029
 11
239
 21
12
  0
LINE
  8
0
 10
239
 20
12
 11
238.906
 21
12.0029
  0
LINE
  8
0
 10
24
 20
3
 11
42
 21
3
  0
LINE
  8
0
 10
42
 20
3
 11
42
 21
0
  0
LINE
  8
0
 10
42
 20
0
 11
54
 21
0
  0
LINE
  8
0
 10
54
 20
0
 11
54
 21
3
  0
LINE
  8
0
 10
54
 20
3
 11
63
 21
3
  0
LINE
  8
0
 10
63
 20
3
 11
63
 21
12
  0
LINE
  8
0
 10
63
 20
12
 11
66
 21
12
  0
LINE
  8
0
 10
66
 20
12
 11
66
 21
16.5
  0
LINE
  8
0
 10
66
 20
16.5
 11
64.5
 21
16.5
  0
LINE
  8
0
 10
64.5
 20
16.5
 11
64.4058
 21
16.5029
  0
LINE
  8
0
 10
64.4058
 20
16.5029
 11
64.312
 21
16.5118
  0
LINE
  8
0
 10
64.312
 20
16.5118
 11
64.2189
 21
16.5266
  0
LINE
  8
0
 10
64.2189
 20
16.5266
 11
64.127
 21
16.5471
  0
LINE
  8
0
 10
64.127
 20
16.5471
 11
64.0365
 21
16.5734
  0
LINE
  8
0
 10
64.0365
 20
16.5734
 11
63.9478
 21
16.6053
  0
LINE
  8
0
 10
63.9478
 20
16.6053
 11
63.8613
 21
16.6427
  0
LINE
  8
0
 10
63.8613
 20
16.6427
 11
63.7774
 21
16.6855
  0
LINE
  8
0
 10
63.7774
 20
16.6855
 11
63.6963
 21
16.7335
  0
LINE
  8
0
 10
63.6963
 20
16.7335
 11
63.6183
 21
16.7865
  0
LINE
  8
0
 10
63.6183
 20
16.7865
 11
63.5439
 21
16.8442
  0
LINE
  8
0
 10
63.5439
 20
16.8442
 11
63.4732
 21
16.9065
  0
LINE
  8
0
 10
63.4732
 20
16.9065
 11
63.4065
 21
16.9732
  0
LINE
  8
0
 10
63.4065
 20
16.9732
 11
63.3442
 21
17.0439
  0
LINE
  8
0
 10
63.3442
 20
17.0439
 11
63.2865
 21
17.1183
  0
LINE
  8
0
 10
63.2865
 20
17.1183
 11
63.2335
 21
17.1963
  0
LINE
  8
0
 10
63.2335
 20
17.1963
 11
63.1855
 21
17.2774
  0
LINE
  8
0
 10
63.1855
 20
17.2774
 11
63.1427
 21
17.3613
  0
LINE
  8
0
 10
63.1427
 20
17.3613
 11
63.1053
 21
17.4478
  0
LINE
  8
0
 10
63.1053
 20
17.4478
 11
63.0734
 21
17.5365
  0
LINE
  8
0
 10
63.0734
 20
17.5365
 11
63.0471
 21
17.627
  0
LINE
  8
0
 10
63.0471
 20
17.627
 11
63.0266
 21
17.7189
  0
LINE
  8
0
 10
63.0266
 20
17.7189
 11
63.0118
 21
17.812
  0
LINE
  8
0
 10
63.0118
 20
17.812
 11
63.0029
 21
17.9058
  0
LINE
  8
0
 10
63.0029
 20
17.9058
 11
63
 21
18
  0
LINE
  8
0
 10
63
 20
18
 11
63.0029
 21
18.0942
  0
LINE
  8
0
 10
63.0029
 20
18.0942
 11
63.0118
 21
18.188
  0
LINE
  8
0
 10
63.0118
 20
18.188
 11
63.0266
 21
18.2811
  0
LINE
  8
0
 10
63.0266
 20
18.2811
 11
63.0471
 21
18.373
  0
LINE
  8
0
 10
63.0471
 20
18.373
 11
63.0734
 21
18.4635
  0
LINE
  8
0
 10
63.0734
 20
18.4635
 11
63.1053
 21
18.5522
  0
LINE
  8
0
 10
63.1053
 20
18.5522
 11
63.1427
 21
18.6387
  0
LINE
  8
0
 10
63.1427
 20
18.6387
 11
63.1855
 21
18.7226
  0
LINE
  8
0
 10
63.1855
 20
18.7226
 11
63.2335
 21
18.8037
  0
LINE
  8
0
 10
63.2335
 20
18.8037
 11
63.2865
 21
18.8817
  0
LINE
  8
0
 10
63.2865
 20
18.8817
 11
63.3442
 21
18.9561
  0
LINE
  8
0
 10
63.3442
 20
18.9561
 11
63.4065
 21
19.0268
  0
LINE
  8
0
 10
63.4065
 20
19.0268
 11
63.4732
 21
19.0934
  0
LINE
  8
0
 10
63.4732
 20
19.0934
 11
63.5439
 21
19.1558
  0
LINE
  8
0
 10
63.5439
 20
19.1558
 11
63.6183
 21
19.2135
  0
LINE
  8
0
 10
63.6183
 20
19.2135
 11
63.6963
 21
19.2665
  0
LINE
  8
0
 10
63.6963
 20
19.2665
 11
63.7774
 21
19.3145
  0
LINE
  8
0
 10
63.7774
 20
19.3145
 11
63.8613
 21
19.3572
  0
LINE
  8
0
 10
63.8613
 20
19.3572
 11
63.9478
 21
19.3947
  0
LINE
  8
0
 10
63.9478
 20
19.3947
 11
64.0365
 21
19.4266
  0
LINE
  8
0
 10
64.0365
 20
19.4266
 11
64.127
 21
19.4529
  0
LINE
  8
0
 10
64.127
 20
19.4529
 11
64.2189
 21
19.4734
  0
LINE
  8
0
 10
64.2189
 20
19.4734
 11
64.312
 21
19.4882
  0
LINE
  8
0
 10
64.312
 20
19.4882
 11
64.4058
 21
19.497
  0
LINE
  8
0
 10
64.4058
 20
19.497
 11
64.5
 21
19.5
  0
LINE
  8
0
 10
64.5
 20
19.5
 11
66
 21
19.5
  0
LINE
  8
0
 10
66
 20
19.5
 11
66
 21
24
  0
LINE
  8
0
 10
66
 20
24
 11
63
 21
24
  0
LINE
  8
0
 10
63
 20
24
 11
63
 21
42
  0
LINE
  8
0
 10
63
 20
42
 11
66
 21
42
  0
LINE
  8
0
 10
66
 20
42
 11
66
 21
46.5
  0
LINE
  8
0
 10
66
 20
46.5
 11
64.5
 21
46.5
  0
LINE
  8
0
 10
64.5
 20
46.5
 11
64.4058
 21
46.5029
  0
LINE
  8
0
 10
64.4058
 20
46.5029
 11
64.312
 21
46.5118
  0
LINE
  8
0
 10
64.312
 20
46.5118
 11
64.2189
 21
46.5266
  0
LINE
  8
0
 10
64.2189
 20
46.5266
 11
64.127
 21
46.5471
  0
LINE
  8
0
 10
64.127
 20
46.5471
 11
64.0365
 21
46.5734
  0
LINE
  8
0
 10
64.0365
 20
46.5734
 11
63.9478
 21
46.6053
  0
LINE
  8
0
 10
63.9478
 20
46.6053
 11
63.8613
 21
46.6427
  0
LINE
  8
0
 10
63.8613
 20
46.6427
 11
63.7774
 21
46.6855
  0
LINE
  8
0
 10
63.7774
 20
46.6855
 11
63.6963
 21
46.7335
  0
LINE
  8
0
 10
63.6963
 20
46.7335
 11
63.6183
 21
46.7865
  0
LINE
  8
0
 10
63.6183
 20
46.7865
 11
63.5439
 21
46.8442
  0
LINE
  8
0
 10
63.5439
 20
46.8442
 11
63.4732
 21
46.9065
  0
LINE
  8
0
 10
63.4732
 20
46.9065
 11
63.4065
 21
46.9732
  0
LINE
  8
0
 10
63.4065
 20
46.9732
 11
63.3442
 21
47.0439
  0
LINE
  8
0
 10
63.3442
 20
47.0439
 11
63.2865
 21
47.1183
  0
LINE
  8
0
 10
63.2865
 20
47.1183
 11
63.2335
 21
47.1963
  0
LINE
  8
0
 10
63.2335
 20
47.1963
 11
63.1855
 21
47.2774
  0
LINE
  8
0
 10
63.1855
 20
47.2774
 11
63.1427
 21
47.3613
  0
LINE
  8
0
 10
63.1427
 20
47.3613
 11
63.1053
 21
47.4478
  0
LINE
  8
0
 10
63.1053
 20
47.4478
 11
63.0734
 21
47.5365
  0
LINE
  8
0
 10
63.0734
 20
47.5365
 11
63.0471
 21
47.627
  0
LINE
  8
0
 10
63.0471
 20
47.627
 11
63.0266
 21
47.7189
  0
LINE
  8
0
 10
63.0266
 20
47.7189
 11
63.0118
 21
47.812
  0
LINE
  8
0
 10
63.0118
 20
47.812
 11
63.0029
 21
47.9058
  0
LINE
  8
0
 10
63.0029
 20
47.9058
 11
63
 21
48
  0
LINE
  8
0
 10
63
 20
48
 11
63.0029
 21
48.0942
  0
LINE
  8
0
 10
63.0029
 20
48.0942
 11
63.0118
 21
48.188
  0
LINE
  8
0
 10
63.0118
 20
48.188
 11
63.0266
 21
48.2811
  0
LINE
  8
0
 10
63.0266
 20
48.2811
 11
63.0471
 21
48.373
  0
LINE
  8
0
 10
63.0471
 20
48.373
 11
63.0734
 21
48.4635
  0
LINE
  8
0
 10
63.0734
 20
48.4635
 11
63.1053
 21
48.5522
  0
LINE
  8
0
 10
63.1053
 20
48.5522
 11
63.1427
 21
48.6387
  0
LINE
  8
0
 10
63.1427
 20
48.6387
 11
63.1855
 21
48.7226
  0
LINE
  8
0
 10
63.1855
 20
48.7226
 11
63.2335
 21
48.8037
  0
LINE
  8
0
 10
63.2335
 20
48.8037
 11
63.2865
 21
48.8817
  0
LINE
  8
0
 10
63.2865
 20
48.8817
 11
63.3442
 21
48.9561
  0
LINE
  8
0
 10
63.3442
 20
48.9561
 11
63.4065
 21
49.0268
  0
LINE
  8
0
 10
63.4065
 20
49.0268
 11
63.4732
 21
49.0934
  0
LINE
  8
0
 10
63.4732
 20
49.0934
 11
63.5439
 21
49.1558
  0
LINE
  8
0
 10
63.5439
 20
49.1558
 11
63.6183
 21
49.2135
  0
LINE
  8
0
 10
63.6183
 20
49.2135
 11
63.6963
 21
49.2665
  0
LINE
  8
0
 10
63.6963
 20
49.2665
 11
63.7774
 21
49.3145
  0
LINE
  8
0
 10
63.7774
 20
49.3145
 11
63.8613
 21
49.3572
  0
LINE
  8
0
 10
63.8613
 20
49.3572
 11
63.9478
 21
49.3947
  0
LINE
  8
0
 10
63.9478
 20
49.3947
 11
64.0365
 21
49.4266
  0
LINE
  8
0
 10
64.0365
 20
49.4266
 11
64.127
 21
49.4529
  0
LINE
  8
0
 10
64.127
 20
49.4529
 11
64.2189
 21
49.4734
  0
LINE
  8
0
 10
64.2189
 20
49.4734
 11
64.312
 21
49.4882
  0
LINE
  8
0
 10
64.312
 20
49.4882
 11
64.4058
 21
49.497
  0
LINE
  8
0
 10
64.4058
 20
49.497
 11
64.5
 21
49.5
  0
LINE
  8
0
 10
64.5
 20
49.5
 11
66
 21
49.5
  0
LINE
  8
0
 10
66
 20
49.5
 11
66
 21
54
  0
LINE
  8
0
 10
66
 20
54
 11
63
 21
54
  0
LINE
  8
0
 10
63
 20
54
 11
63
 21
63
  0
LINE
  8
0
 10
63
 20
63
 11
54
 21
63
  0
LINE
  8
0
 10
54
 20
63
 11
54
 21
66
  0
LINE
  8
0
 10
54
 20
66
 11
42
 21
66
  0
LINE
  8
0
 10
42
 20
66
 11
42
 21
63
  0
LINE
  8
0
 10
42
 20
63
 11
24
 21
63
  0
LINE
  8
0
 10
24
 20
63
 11
24
 21
66
  0
LINE
  8
0
 10
24
 20
66
 11
12
 21
66
  0
LINE
  8
0
 10
12
 20
66
 11
12
 21
63
  0
LINE
  8
0
 10
12
 20
63
 11
3
 21
63
  0
LINE
  8
0
 10
3
 20
63
 11
3
 21
54
  0
LINE
  8
0
 10
3
 20
54
 11
0
 21
54
  0
LINE
  8
0
 10
0
 20
54
 11
0
 21
49.5
  0
LINE
  8
0
 10
0
 20
49.5
 11
1.50002
 21
49.5
  0
LINE
  8
0
 10
1.50002
 20
49.5
 11
1.59419
 21
49.497
  0
LINE
  8
0
 10
1.59419
 20
49.497
 11
1.688
 21
49.4882
  0
LINE
  8
0
 10
1.688
 20
49.4882
 11
1.78108
 21
49.4734
  0
LINE
  8
0
 10
1.78108
 20
49.4734
 11
1.87305
 21
49.4529
  0
LINE
  8
0
 10
1.87305
 20
49.4529
 11
1.96353
 21
49.4266
  0
LINE
  8
0
 10
1.96353
 20
49.4266
 11
2.0522
 21
49.3947
  0
LINE
  8
0
 10
2.0522
 20
49.3947
 11
2.13867
 21
49.3572
  0
LINE
  8
0
 10
2.13867
 20
49.3572
 11
2.22264
 21
49.3145
  0
LINE
  8
0
 10
2.22264
 20
49.3145
 11
2.30374
 21
49.2665
  0
LINE
  8
0
 10
2.30374
 20
49.2665
 11
2.38168
 21
49.2135
  0
LINE
  8
0
 10
2.38168
 20
49.2135
 11
2.45615
 21
49.1558
  0
LINE
  8
0
 10
2.45615
 20
49.1558
 11
2.52682
 21
49.0934
  0
LINE
  8
0
 10
2.52682
 20
49.0934
 11
2.59346
 21
49.0268
  0
LINE
  8
0
 10
2.59346
 20
49.0268
 11
2.65578
 21
48.9561
  0
LINE
  8
0
 10
2.65578
 20
48.9561
 11
2.71353
 21
48.8817
  0
LINE
  8
0
 10
2.71353
 20
48.8817
 11
2.76649
 21
48.8037
  0
LINE
  8
0
 10
2.76649
 20
48.8037
 11
2.81447
 21
48.7226
  0
LINE
  8
0
 10
2.81447
 20
48.7226
 11
2.85725
 21
48.6387
  0
LINE
  8
0
 10
2.85725
 20
48.6387
 11
2.89467
 21
48.5522
  0
LINE
  8
0
 10
2.89467
 20
48.5522
 11
2.92659
 21
48.4635
  0
LINE
  8
0
 10
2.92659
 20
48.4635
 11
2.95288
 21
48.373
  0
LINE
  8
0
 10
2.95288
 20
48.373
 11
2.97343
 21
48.2811
  0
LINE
  8
0
 10
2.97343
 20
48.2811
 11
2.98817
 21
48.188
  0
LINE
  8
0
 10
2.98817
 20
48.188
 11
2.99706
 21
48.0942
  0
LINE
  8
0
 10
2.99706
 20
48.0942
 11
3
 21
48
  0
LINE
  8
0
 10
3
 20
48
 11
2.99706
 21
47.9058
  0
LINE
  8
0
 10
2.99706
 20
47.9058
 11
2.98817
 21
47.812
  0
LINE
  8
0
 10
2.98817
 20
47.812
 11
2.97343
 21
47.7189
  0
LINE
  8
0
 10
2.97343
 20
47.7189
 11
2.95288
 21
47.627
  0
LINE
  8
0
 10
2.95288
 20
47.627
 11
2.92659
 21
47.5365
  0
LINE
  8
0
 10
2.92659
 20
47.5365
 11
2.89467
 21
47.4478
  0
LINE
  8
0
 10
2.89467
 20
47.4478
 11
2.85725
 21
47.3613
  0
LINE
  8
0
 10
2.85725
 20
47.3613
 11
2.81447
 21
47.2774
  0
LINE
  8
0
 10
2.81447
 20
47.2774
 11
2.76649
 21
47.1963
  0
LINE
  8
0
 10
2.76649
 20
47.1963
 11
2.71353
 21
47.1183
  0
LINE
  8
0
 10
2.71353
 20
47.1183
 11
2.65578
 21
47.0439
  0
LINE
  8
0
 10
2.65578
 20
47.0439
 11
2.59346
 21
46.9732
  0
LINE
  8
0
 10
2.59346
 20
46.9732
 11
2.52682
 21
46.9065
  0
LINE
  8
0
 10
2.52682
 20
46.9065
 11
2.45615
 21
46.8442
  0
LINE
  8
0
 10
2.45615
 20
46.8442
 11
2.38168
 21
46.7865
  0
LINE
  8
0
 10
2.38168
 20
46.7865
 11
2.30374
 21
46.7335
  0
LINE
  8
0
 10
2.30374
 20
46.7335
 11
2.22264
 21
46.6855
  0
LINE
  8
0
 10
2.22264
 20
46.6855
 11
2.13867
 21
46.6427
  0
LINE
  8
0
 10
2.13867
 20
46.6427
 11
2.0522
 21
46.6053
  0
LINE
  8
0
 10
2.0522
 20
46.6053
 11
1.96353
 21
46.5734
  0
LINE
  8
0
 10
1.96353
 20
46.5734
 11
1.87305
 21
46.5471
  0
LINE
  8
0
 10
1.87305
 20
46.5471
 11
1.78108
 21
46.5266
  0
LINE
  8
0
 10
1.78108
 20
46.5266
 11
1.688
 21
46.5118
  0
LINE
  8
0
 10
1.688
 20
46.5118
 11
1.59419
 21
46.5029
  0
LINE
  8
0
 10
1.59419
 20
46.5029
 11
1.5
 21
46.5
  0
LINE
  8
0
 10
1.5
 20
46.5
 11
0
 21
46.5
  0
LINE
  8
0
 10
0
 20
46.5
 11
0
 21
42
  0
LINE
  8
0
 10
0
 20
42
 11
3
 21
42
  0
LINE
  8
0
 10
3
 20
42
 11
3
 21
24
  0
LINE
  8
0
 10
3
 20
24
 11
0
 21
24
  0
LINE
  8
0
 10
0
 20
24
 11
0
 21
19.5
  0
LINE
  8
0
 10
0
 20
19.5
 11
1.50002
 21
19.5
  0
LINE
  8
0
 10
1.50002
 20
19.5
 11
1.59419
 21
19.497
  0
LINE
  8
0
 10
1.59419
 20
19.497
 11
1.688
 21
19.4882
  0
LINE
  8
0
 10
1.688
 20
19.4882
 11
1.78108
 21
19.4734
  0
LINE
  8
0
 10
1.78108
 20
19.4734
 11
1.87305
 21
19.4529
  0
LINE
  8
0
 10
1.87305
 20
19.4529
 11
1.96353
 21
19.4266
  0
LINE
  8
0
 10
1.96353
 20
19.4266
 11
2.0522
 21
19.3947
  0
LINE
  8
0
 10
2.0522
 20
19.3947
 11
2.13867
 21
19.3572
  0
LINE
  8
0
 10
2.13867
 20
19.3572
 11
2.22264
 21
19.3145
  0
LINE
  8
0
 10
2.22264
 20
19.3145
 11
2.30374
 21
19.2665
  0
LINE
  8
0
 10
2.30374
 20
19.2665
 11
2.38168
 21
19.2135
  0
LINE
  8
0
 10
2.38168
 20
19.2135
 11
2.45615
 21
19.1558
  0
LINE
  8
0
 10
2.45615
 20
19.1558
 11
2.52682
 21
19.0934
  0
LINE
  8
0
 10
2.52682
 20
19.0934
 11
2.59346
 21
19.0268
  0
LINE
  8
0
 10
2.59346
 20
19.0268
 11
2.65578
 21
18.9561
  0
LINE
  8
0
 10
2.65578
 20
18.9561
 11
2.71353
 21
18.8817
  0
LINE
  8
0
 10
2.71353
 20
18.8817
 11
2.76649
 21
18.8037
  0
LINE
  8
0
 10
2.76649
 20
18.8037
 11
2.81447
 21
18.7226
  0
LINE
  8
0
 10
2.81447
 20
18.7226
 11
2.85725
 21
18.6387
  0
LINE
  8
0
 10
2.85725
 20
18.6387
 11
2.89467
 21
18.5522
  0
LINE
  8
0
 10
2.89467
 20
18.5522
 11
2.92659
 21
18.4635
  0
LINE
  8
0
 10
2.92659
 20
18.4635
 11
2.95288
 21
18.373
  0
LINE
  8
0
 10
2.95288
 20
18.373
 11
2.97343
 21
18.2811
  0
LINE
  8
0
 10
2.97343
 20
18.2811
 11
2.98817
 21
18.188
  0
LINE
  8
0
 10
2.98817
 20
18.188
 11
2.99706
 21
18.0942
  0
LINE
  8
0
 10
2.99706
 20
18.0942
 11
3
 21
18
  0
LINE
  8
0
 10
3
 20
18
 11
2.99706
 21
17.9058
  0
LINE
  8
0
 10
2.99706
 20
17.9058
 11
2.98817
 21
17.812
  0
LINE
  8
0
 10
2.98817
 20
17.812
 11
2.97343
 21
17.7189
  0
LINE
  8
0
 10
2.97343
 20
17.7189
 11
2.95288
 21
17.627
  0
LINE
  8
0
 10
2.95288
 20
17.627
 11
2.92659
 21
17.5365
  0
LINE
  8
0
 10
2.92659
 20
17.5365
 11
2.89467
 21
17.4478
  0
LINE
  8
0
 10
2.89467
 20
17.4478
 11
2.85725
 21
17.3613
  0
LINE
  8
0
 10
2.85725
 20
17.3613
 11
2.81447
 21
17.2774
  0
LINE
  8
0
 10
2.81447
 20
17.2774
 11
2.76649
 21
17.1963
  0
LINE
  8
0
 10
2.76649
 20
17.1963
 11
2.71353
 21
17.1183
  0
LINE
  8
0
 10
2.71353
 20
17.1183
 11
2.65578
 21
17.0439
  0
LINE
  8
0
 10
2.65578
 20
17.0439
 11
2.59346
 21
16.9732
  0
LINE
  8
0
 10
2.59346
 20
16.9732
 11
2.52682
 21
16.9065
  0
LINE
  8
0
 10
2.52682
 20
16.9065
 11
2.45615
 21
16.8442
  0
LINE
  8
0
 10
2.45615
 20
16.8442
 11
2.38168
 21
16.7865
  0
LINE
  8
0
 10
2.38168
 20
16.7865
 11
2.30374
 21
16.7335
  0
LINE
  8
0
 10
2.30374
 20
16.7335
 11
2.22264
 21
16.6855
  0
LINE
  8
0
 10
2.22264
 20
16.6855
 11
2.13867
 21
16.6427
  0
LINE
  8
0
 10
2.13867
 20
16.6427
 11
2.0522
 21
16.6053
  0
LINE
  8
0
 10
2.0522
 20
16.6053
 11
1.96353
 21
16.5734
  0
LINE
  8
0
 10
1.96353
 20
16.5734
 11
1.87305
 21
16.5471
  0
LINE
  8
0
 10
1.87305
 20
16.5471
 11
1.78108
 21
16.5266
  0
LINE
  8
0
 10
1.78108
 20
16.5266
 11
1.688
 21
16.5118
  0
LINE
  8
0
 10
1.688
 20
16.5118
 11
1.59419
 21
16.5029
  0
LINE
  8
0
 10
1.59419
 20
16.5029
 11
1.5
 21
16.5
  0
LINE
  8
0
 10
1.5
 20
16.5
 11
0
 21
16.5
  0
LINE
  8
0
 10
0
 20
16.5
 11
0
 21
12
  0
LINE
  8
0
 10
0
 20
12
 11
3
 21
12
  0
LINE
  8
0
 10
3
 20
12
 11
3
 21
3
  0
LINE
  8
0
 10
3
 20
3
 11
12
 21
3
  0
LINE
  8
0
 10
12
 20
3
 11
12
 21
0
  0
LINE
  8
0
 10
12
 20
0
 11
24
 21
0
  0
LINE
  8
0
 10
24
 20
0
 11
24
 21
3
  0
LINE
  8
0
 10
19.4977
 20
35.0158
 11
18.9973
 21
35.0631
  0
LINE
  8
0
 10
18.9973
 20
35.0631
 11
18.501
 21
35.1417
  0
LINE
  8
0
 10
18.501
 20
35.1417
 11
18.0105
 21
35.2513
  0
LINE
  8
0
 10
18.0105
 20
35.2513
 11
17.5279
 21
35.3916
  0
LINE
  8
0
 10
17.5279
 20
35.3916
 11
17.055
 21
35.5618
  0
LINE
  8
0
 10
17.055
 20
35.5618
 11
16.5938
 21
35.7614
  0
LINE
  8
0
 10
16.5938
 20
35.7614
 11
16.146
 21
35.9895
  0
LINE
  8
0
 10
16.146
 20
35.9895
 11
15.7134
 21
36.2454
  0
LINE
  8
0
 10
15.7134
 20
36.2454
 11
15.2977
 21
36.5279
  0
LINE
  8
0
 10
15.2977
 20
36.5279
 11
14.9006
 21
36.8359
  0
LINE
  8
0
 10
14.9006
 20
36.8359
 11
14.5236
 21
37.1683
  0
LINE
  8
0
 10
14.5236
 20
37.1683
 11
14.1683
 21
37.5236
  0
LINE
  8
0
 10
14.1683
 20
37.5236
 11
13.8359
 21
37.9006
  0
LINE
  8
0
 10
13.8359
 20
37.9006
 11
13.5279
 21
38.2977
  0
LINE
  8
0
 10
13.5279
 20
38.2977
 11
13.2454
 21
38.7134
  0
LINE
  8
0
 10
13.2454
 20
38.7134
 11
12.9895
 21
39.146
  0
LINE
  8
0
 10
12.9895
 20
39.146
 11
12.7614
 21
39.5938
  0
LINE
  8
0
 10
12.7614
 20
39.5938
 11
12.5618
 21
40.055
  0
LINE
  8
0
 10
12.5618
 20
40.055
 11
12.3916
 21
40.5279
  0
LINE
  8
0
 10
12.3916
 20
40.5279
 11
12.2513
 21
41.0105
  0
LINE
  8
0
 10
12.2513
 20
41.0105
 11
12.1417
 21
41.501
  0
LINE
  8
0
 10
12.1417
 20
41.501
 11
12.0631
 21
41.9973
  0
LINE
  8
0
 10
12.0631
 20
41.9973
 11
12.0158
 21
42.4977
  0
LINE
  8
0
 10
12.0158
 20
42.4977
 11
12
 21
43
  0
LINE
  8
0
 10
12
 20
43
 11
12.0158
 21
43.5023
  0
LINE
  8
0
 10
12.0158
 20
43.5023
 11
12.0631
 21
44.0027
  0
LINE
  8
0
 10
12.0631
 20
44.0027
 11
12.1417
 21
44.499
  0
LINE
  8
0
 10
12.1417
 20
44.499
 11
12.2513
 21
44.9895
  0
LINE
  8
0
 10
12.2513
 20
44.9895
 11
12.3916
 21
45.4721
  0
LINE
  8
0
 10
12.3916
 20
45.4721
 11
12.5618
 21
45.945
  0
LINE
  8
0
 10
12.5618
 20
45.945
 11
12.7614
 21
46.4062
  0
LINE
  8
0
 10
12.7614
 20
46.4062
 11
12.9895
 21
46.854
  0
LINE
  8
0
 10
12.9895
 20
46.854
 11
13.2454
 21
47.2866
  0
LINE
  8
0
 10
13.2454
 20
47.2866
 11
13.5279
 21
47.7023
  0
LINE
  8
0
 10
13.5279
 20
47.7023
 11
13.8359
 21
48.0994
  0
LINE
  8
0
 10
13.8359
 20
48.0994
 11
14.1683
 21
48.4764
  0
LINE
  8
0
 10
14.1683
 20
48.4764
 11
14.5236
 21
48.8317
  0
LINE
  8
0
 10
14.5236
 20
48.8317
 11
14.9006
 21
49.1641
  0
LINE
  8
0
 10
14.9006
 20
49.1641
 11
15.2977
 21
49.4721
  0
LINE
  8
0
 10
15.2977
 20
49.4721
 11
15.7134
 21
49.7546
  0
LINE
  8
0
 10
15.7134
 20
49.7546
 11
16.146
 21
50.0105
  0
LINE
  8
0
 10
16.146
 20
50.0105
 11
16.5938
 21
50.2386
  0
LINE
  8
0
 10
16.5938
 20
50.2386
 11
17.055
 21
50.4382
  0
LINE
  8
0
 10
17.055
 20
50.4382
 11
17.5279
 21
50.6084
  0
LINE
  8
0
 10
17.5279
 20
50.6084
 11
18.0105
 21
50.7487
  0
LINE
  8
0
 10
18.0105
 20
50.7487
 11
18.501
 21
50.8583
  0
LINE
  8
0
 10
18.501
 20
50.8583
 11
18.9973
 21
50.9369
  0
LINE
  8
0
 10
18.9973
 20
50.9369
 11
19.4977
 21
50.9842
  0
LINE
  8
0
 10
19.4977
 20
50.9842
 11
20
 21
51
  0
LINE
  8
0
 10
20
 20
51
 11
20.5023
 21
50.9842
  0
LINE
  8
0
 10
20.5023
 20
50.9842
 11
21.0027
 21
50.9369
  0
LINE
  8
0
 10
21.0027
 20
50.9369
 11
21.4991
 21
50.8583
  0
LINE
  8
0
 10
21.4991
 20
50.8583
 11
21.9895
 21
50.7487
  0
LINE
  8
0
 10
21.9895
 20
50.7487
 11
22.4721
 21
50.6084
  0
LINE
  8
0
 10
22.4721
 20
50.6084
 11
22.945
 21
50.4382
  0
LINE
  8
0
 10
22.945
 20
50.4382
 11
23.4062
 21
50.2386
  0
LINE
  8
0
 10
23.4062
 20
50.2386
 11
23.854
 21
50.0105
  0
LINE
  8
0
 10
23.854
 20
50.0105
 11
24.2866
 21
49.7546
  0
LINE
  8
0
 10
24.2866
 20
49.7546
 11
24.7023
 21
49.4721
  0
LINE
  8
0
 10
24.7023
 20
49.4721
 11
25.0994
 21
49.1641
  0
LINE
  8
0
 10
25.0994
 20
49.1641
 11
25.4764
 21
48.8317
  0
LINE
  8
0
 10
25.4764
 20
48.8317
 11
25.8318
 21
48.4764
  0
LINE
  8
0
 10
25.8318
 20
48.4764
 11
26.1641
 21
48.0994
  0
LINE
  8
0
 10
26.1641
 20
48.0994
 11
26.4721
 21
47.7023
  0
LINE
  8
0
 10
26.4721
 20
47.7023
 11
26.7546
 21
47.2866
  0
LINE
  8
0
 10
26.7546
 20
47.2866
 11
27.0105
 21
46.854
  0
LINE
  8
0
 10
27.0105
 20
46.854
 11
27.2386
 21
46.4062
  0
LINE
  8
0
 10
27.2386
 20
46.4062
 11
27.4382
 21
45.945
  0
LINE
  8
0
 10
27.4382
 20
45.945
 11
27.6085
 21
45.4721
  0
LINE
  8
0
 10
27.6085
 20
45.4721
 11
27.7487
 21
44.9895
  0
LINE
  8
0
 10
27.7487
 20
44.9895
 11
27.8583
 21
44.499
  0
LINE
  8
0
 10
27.8583
 20
44.499
 11
27.9369
 21
44.0027
  0
LINE
  8
0
 10
27.9369
 20
44.0027
 11
27.9842
 21
43.5023
  0
LINE
  8
0
 10
27.9842
 20
43.5023
 11
28
 21
43
  0
LINE
  8
0
 10
28
 20
43
 11
27.9842
 21
42.4977
  0
LINE
  8
0
 10
27.9842
 20
42.4977
 11
27.9369
 21
41.9973
  0
LINE
  8
0
 10
27.9369
 20
41.9973
 11
27.8583
 21
41.501
  0
LINE
  8
0
 10
27.8583
 20
41.501
 11
27.7487
 21
41.0105
  0
LINE
  8
0
 10
27.7487
 20
41.0105
 11
27.6085
 21
40.5279
  0
LINE
  8
0
 10
27.6085
 20
40.5279
 11
27.4382
 21
40.055
  0
LINE
  8
0
 10
27.4382
 20
40.055
 11
27.2386
 21
39.5938
  0
LINE
  8
0
 10
27.2386
 20
39.5938
 11
27.0105
 21
39.146
  0
LINE
  8
0
 10
27.0105
 20
39.146
 11
26.7546
 21
38.7134
  0
LINE
  8
0
 10
26.7546
 20
38.7134
 11
26.4721
 21
38.2977
  0
LINE
  8
0
 10
26.4721
 20
38.2977
 11
26.1641
 21
37.9006
  0
LINE
  8
0
 10
26.1641
 20
37.9006
 11
25.8318
 21
37.5236
  0
LINE
  8
0
 10
25.8318
 20
37.5236
 11
25.4764
 21
37.1683
  0
LINE
  8
0
 10
25.4764
 20
37.1683
 11
25.0994
 21
36.8359
  0
LINE
  8
0
 10
25.0994
 20
36.8359
 11
24.7023
 21
36.5279
  0
LINE
  8
0
 10
24.7023
 20
36.5279
 11
24.2866
 21
36.2454
  0
LINE
  8
0
 10
24.2866
 20
36.2454
 11
23.854
 21
35.9895
  0
LINE
  8
0
 10
23.854
 20
35.9895
 11
23.4062
 21
35.7614
  0
LINE
  8
0
 10
23.4062
 20
35.7614
 11
22.945
 21
35.5618
  0
LINE
  8
0
 10
22.945
 20
35.5618
 11
22.4721
 21
35.3916
  0
LINE
  8
0
 10
22.4721
 20
35.3916
 11
21.9895
 21
35.2513
  0
LINE
  8
0
 10
21.9895
 20
35.2513
 11
21.4991
 21
35.1417
  0
LINE
  8
0
 10
21.4991
 20
35.1417
 11
21.0027
 21
35.0631
  0
LINE
  8
0
 10
21.0027
 20
35.0631
 11
20.5023
 21
35.0158
  0
LINE
  8
0
 10
20.5023
 20
35.0158
 11
20
 21
35
  0
LINE
  8
0
 10
20
 20
35
 11
19.4977
 21
35.0158
  0
LINE
  8
0
 10
45.4977
 20
35.0158
 11
44.9973
 21
35.0631
  0
LINE
  8
0
 10
44.9973
 20
35.0631
 11
44.5009
 21
35.1417
  0
LINE
  8
0
 10
44.5009
 20
35.1417
 11
44.0105
 21
35.2513
  0
LINE
  8
0
 10
44.0105
 20
35.2513
 11
43.5279
 21
35.3916
  0
LINE
  8
0
 10
43.5279
 20
35.3916
 11
43.055
 21
35.5618
  0
LINE
  8
0
 10
43.055
 20
35.5618
 11
42.5938
 21
35.7614
  0
LINE
  8
0
 10
42.5938
 20
35.7614
 11
42.146
 21
35.9895
  0
LINE
  8
0
 10
42.146
 20
35.9895
 11
41.7134
 21
36.2454
  0
LINE
  8
0
 10
41.7134
 20
36.2454
 11
41.2977
 21
36.5279
  0
LINE
  8
0
 10
41.2977
 20
36.5279
 11
40.9006
 21
36.8359
  0
LINE
  8
0
 10
40.9006
 20
36.8359
 11
40.5236
 21
37.1683
  0
LINE
  8
0
 10
40.5236
 20
37.1683
 11
40.1682
 21
37.5236
  0
LINE
  8
0
 10
40.1682
 20
37.5236
 11
39.8359
 21
37.9006
  0
LINE
  8
0
 10
39.8359
 20
37.9006
 11
39.5279
 21
38.2977
  0
LINE
  8
0
 10
39.5279
 20
38.2977
 11
39.2454
 21
38.7134
  0
LINE
  8
0
 10
39.2454
 20
38.7134
 11
38.9895
 21
39.146
  0
LINE
  8
0
 10
38.9895
 20
39.146
 11
38.7614
 21
39.5938
  0
LINE
  8
0
 10
38.7614
 20
39.5938
 11
38.5618
 21
40.055
  0
LINE
  8
0
 10
38.5618
 20
40.055
 11
38.3915
 21
40.5279
  0
LINE
  8
0
 10
38.3915
 20
40.5279
 11
38.2513
 21
41.0105
  0
LINE
  8
0
 10
38.2513
 20
41.0105
 11
38.1417
 21
41.501
  0
LINE
  8
0
 10
38.1417
 20
41.501
 11
38.0631
 21
41.9973
  0
LINE
  8
0
 10
38.0631
 20
41.9973
 11
38.0158
 21
42.4977
  0
LINE
  8
0
 10
38.0158
 20
42.4977
 11
38
 21
43
  0
LINE
  8
0
 10
38
 20
43
 11
38.0158
 21
43.5023
  0
LINE
  8
0
 10
38.0158
 20
43.5023
 11
38.0631
 21
44.0027
  0
LINE
  8
0
 10
38.0631
 20
44.0027
 11
38.1417
 21
44.499
  0
LINE
  8
0
 10
38.1417
 20
44.499
 11
38.2513
 21
44.9895
  0
LINE
  8
0
 10
38.2513
 20
44.9895
 11
38.3915
 21
45.4721
  0
LINE
  8
0
 10
38.3915
 20
45.4721
 11
38.5618
 21
45.945
  0
LINE
  8
0
 10
38.5618
 20
45.945
 11
38.7614
 21
46.4062
  0
LINE
  8
0
 10
38.7614
 20
46.4062
 11
38.9895
 21
46.854
  0
LINE
  8
0
 10
38.9895
 20
46.854
 11
39.2454
 21
47.2866
  0
LINE
  8
0
 10
39.2454
 20
47.2866
 11
39.5279
 21
47.7023
  0
LINE
  8
0
 10
39.5279
 20
47.7023
 11
39.8359
 21
48.0994
  0
LINE
  8
0
 10
39.8359
 20
48.0994
 11
40.1682
 21
48.4764
  0
LINE
  8
0
 10
40.1682
 20
48.4764
 11
40.5236
 21
48.8317
  0
LINE
  8
0
 10
40.5236
 20
48.8317
 11
40.9006
 21
49.1641
  0
LINE
  8
0
 10
40.9006
 20
49.1641
 11
41.2977
 21
49.4721
  0
LINE
  8
0
 10
41.2977
 20
49.4721
 11
41.7134
 21
49.7546
  0
LINE
  8
0
 10
41.7134
 20
49.7546
 11
42.146
 21
50.0105
  0
LINE
  8
0
 10
42.146
 20
50.0105
 11
42.5938
 21
50.2386
  0
LINE
  8
0
 10
42.5938
 20
50.2386
 11
43.055
 21
50.4382
  0
LINE
  8
0
 10
43.055
 20
50.4382
 11
43.5279
 21
50.6084
  0
LINE
  8
0
 10
43.5279
 20
50.6084
 11
44.0105
 21
50.7487
  0
LINE
  8
0
 10
44.0105
 20
50.7487
 11
44.5009
 21
50.8583
  0
LINE
  8
0
 10
44.5009
 20
50.8583
 11
44.9973
 21
50.9369
  0
LINE
  8
0
 10
44.9973
 20
50.9369
 11
45.4977
 21
50.9842
  0
LINE
  8
0
 10
45.4977
 20
50.9842
 11
46
 21
51
  0
LINE
  8
0
 10
46
 20
51
 11
46.5023
 21
50.9842
  0
LINE
  8
0
 10
46.5023
 20
50.9842
 11
47.0027
 21
50.9369
  0
LINE
  8
0
 10
47.0027
 20
50.9369
 11
47.499
 21
50.8583
  0
LINE
  8
0
 10
47.499
 20
50.8583
 11
47.9895
 21
50.7487
  0
LINE
  8
0
 10
47.9895
 20
50.7487
 11
48.4721
 21
50.6084
  0
LINE
  8
0
 10
48.4721
 20
50.6084
 11
48.945
 21
50.4382
  0
LINE
  8
0
 10
48.945
 20
50.4382
 11
49.4062
 21
50.2386
  0
LINE
  8
0
 10
49.4062
 20
50.2386
 11
49.854
 21
50.0105
  0
LINE
  8
0
 10
49.854
 20
50.0105
 11
50.2866
 21
49.7546
  0
LINE
  8
0
 10
50.2866
 20
49.7546
 11
50.7023
 21
49.4721
  0
LINE
  8
0
 10
50.7023
 20
49.4721
 11
51.0994
 21
49.1641
  0
LINE
  8
0
 10
51.0994
 20
49.1641
 11
51.4764
 21
48.8317
  0
LINE
  8
0
 10
51.4764
 20
48.8317
 11
51.8317
 21
48.4764
  0
LINE
  8
0
 10
51.8317
 20
48.4764
 11
52.1641
 21
48.0994
  0
LINE
  8
0
 10
52.1641
 20
48.0994
 11
52.4721
 21
47.7023
  0
LINE
  8
0
 10
52.4721
 20
47.7023
 11
52.7546
 21
47.2866
  0
LINE
  8
0
 10
52.7546
 20
47.2866
 11
53.0105
 21
46.854
  0
LINE
  8
0
 10
53.0105
 20
46.854
 11
53.2386
 21
46.4062
  0
LINE
  8
0
 10
53.2386
 20
46.4062
 11
53.4382
 21
45.945
  0
LINE
  8
0
 10
53.4382
 20
45.945
 11
53.6084
 21
45.4721
  0
LINE
  8
0
 10
53.6084
 20
45.4721
 11
53.7487
 21
44.9895
  0
LINE
  8
0
 10
53.7487
 20
44.9895
 11
53.8583
 21
44.499
  0
LINE
  8
0
 10
53.8583
 20
44.499
 11
53.9369
 21
44.0027
  0
LINE
  8
0
 10
53.9369
 20
44.0027
 11
53.9842
 21
43.5023
  0
LINE
  8
0
 10
53.9842
 20
43.5023
 11
54
 21
43
  0
LINE
  8
0
 10
54
 20
43
 11
53.9842
 21
42.4977
  0
LINE
  8
0
 10
53.9842
 20
42.4977
 11
53.9369
 21
41.9973
  0
LINE
  8
0
 10
53.9369
 20
41.9973
 11
53.8583
 21
41.501
  0
LINE
  8
0
 10
53.8583
 20
41.501
 11
53.7487
 21
41.0105
  0
LINE
  8
0
 10
53.7487
 20
41.0105
 11
53.6084
 21
40.5279
  0
LINE
  8
0
 10
53.6084
 20
40.5279
 11
53.4382
 21
40.055
  0
LINE
  8
0
 10
53.4382
 20
40.055
 11
53.2386
 21
39.5938
  0
LINE
  8
0
 10
53.2386
 20
39.5938
 11
53.0105
 21
39.146
  0
LINE
  8
0
 10
53.0105
 20
39.146
 11
52.7546
 21
38.7134
  0
LINE
  8
0
 10
52.7546
 20
38.7134
 11
52.4721
 21
38.2977
  0
LINE
  8
0
 10
52.4721
 20
38.2977
 11
52.1641
 21
37.9006
  0
LINE
  8
0
 10
52.1641
 20
37.9006
 11
51.8317
 21
37.5236
  0
LINE
  8
0
 10
51.8317
 20
37.5236
 11
51.4764
 21
37.1683
  0
LINE
  8
0
 10
51.4764
 20
37.1683
 11
51.0994
 21
36.8359
  0
LINE
  8
0
 10
51.0994
 20
36.8359
 11
50.7023
 21
36.5279
  0
LINE
  8
0
 10
50.7023
 20
36.5279
 11
50.2866
 21
36.2454
  0
LINE
  8
0
 10
50.2866
 20
36.2454
 11
49.854
 21
35.9895
  0
LINE
  8
0
 10
49.854
 20
35.9895
 11
49.4062
 21
35.7614
  0
LINE
  8
0
 10
49.4062
 20
35.7614
 11
48.945
 21
35.5618
  0
LINE
  8
0
 10
48.945
 20
35.5618
 11
48.4721
 21
35.3916
  0
LINE
  8
0
 10
48.4721
 20
35.3916
 11
47.9895
 21
35.2513
  0
LINE
  8
0
 10
47.9895
 20
35.2513
 11
47.499
 21
35.1417
  0
LINE
  8
0
 10
47.499
 20
35.1417
 11
47.0027
 21
35.0631
  0
LINE
  8
0
 10
47.0027
 20
35.0631
 11
46.5023
 21
35.0158
  0
LINE
  8
0
 10
46.5023
 20
35.0158
 11
46
 21
35
  0
LINE
  8
0
 10
46
 20
35
 11
45.4977
 21
35.0158
  0
LINE
  8
0
 10
28.9058
 20
16.5029
 11
28.812
 21
16.5118
  0
LINE
  8
0
 10
28.812
 20
16.5118
 11
28.7189
 21
16.5266
  0
LINE
  8
0
 10
28.7189
 20
16.5266
 11
28.627
 21
16.5471
  0
LINE
  8
0
 10
28.627
 20
16.5471
 11
28.5365
 21
16.5734
  0
LINE
  8
0
 10
28.5365
 20
16.5734
 11
28.4478
 21
16.6053
  0
LINE
  8
0
 10
28.4478
 20
16.6053
 11
28.3613
 21
16.6427
  0
LINE
  8
0
 10
28.3613
 20
16.6427
 11
28.2774
 21
16.6855
  0
LINE
  8
0
 10
28.2774
 20
16.6855
 11
28.1963
 21
16.7335
  0
LINE
  8
0
 10
28.1963
 20
16.7335
 11
28.1183
 21
16.7865
  0
LINE
  8
0
 10
28.1183
 20
16.7865
 11
28.0439
 21
16.8442
  0
LINE
  8
0
 10
28.0439
 20
16.8442
 11
27.9732
 21
16.9065
  0
LINE
  8
0
 10
27.9732
 20
16.9065
 11
27.9065
 21
16.9732
  0
LINE
  8
0
 10
27.9065
 20
16.9732
 11
27.8442
 21
17.0439
  0
LINE
  8
0
 10
27.8442
 20
17.0439
 11
27.7865
 21
17.1183
  0
LINE
  8
0
 10
27.7865
 20
17.1183
 11
27.7335
 21
17.1963
  0
LINE
  8
0
 10
27.7335
 20
17.1963
 11
27.6855
 21
17.2774
  0
LINE
  8
0
 10
27.6855
 20
17.2774
 11
27.6427
 21
17.3613
  0
LINE
  8
0
 10
27.6427
 20
17.3613
 11
27.6053
 21
17.4478
  0
LINE
  8
0
 10
27.6053
 20
17.4478
 11
27.5734
 21
17.5365
  0
LINE
  8
0
 10
27.5734
 20
17.5365
 11
27.5471
 21
17.627
  0
LINE
  8
0
 10
27.5471
 20
17.627
 11
27.5266
 21
17.7189
  0
LINE
  8
0
 10
27.5266
 20
17.7189
 11
27.5118
 21
17.812
  0
LINE
  8
0
 10
27.5118
 20
17.812
 11
27.5029
 21
17.9058
  0
LINE
  8
0
 10
27.5029
 20
17.9058
 11
27.5
 21
18
  0
LINE
  8
0
 10
27.5
 20
18
 11
27.5029
 21
18.0942
  0
LINE
  8
0
 10
27.5029
 20
18.0942
 11
27.5118
 21
18.188
  0
LINE
  8
0
 10
27.5118
 20
18.188
 11
27.5266
 21
18.2811
  0
LINE
  8
0
 10
27.5266
 20
18.2811
 11
27.5471
 21
18.373
  0
LINE
  8
0
 10
27.5471
 20
18.373
 11
27.5734
 21
18.4635
  0
LINE
  8
0
 10
27.5734
 20
18.4635
 11
27.6053
 21
18.5522
  0
LINE
  8
0
 10
27.6053
 20
18.5522
 11
27.6427
 21
18.6387
  0
LINE
  8
0
 10
27.6427
 20
18.6387
 11
27.6855
 21
18.7226
  0
LINE
  8
0
 10
27.6855
 20
18.7226
 11
27.7335
 21
18.8037
  0
LINE
  8
0
 10
27.7335
 20
18.8037
 11
27.7865
 21
18.8817
  0
LINE
  8
0
 10
27.7865
 20
18.8817
 11
27.8442
 21
18.9561
  0
LINE
  8
0
 10
27.8442
 20
18.9561
 11
27.9065
 21
19.0268
  0
LINE
  8
0
 10
27.9065
 20
19.0268
 11
27.9732
 21
19.0934
  0
LINE
  8
0
 10
27.9732
 20
19.0934
 11
28.0439
 21
19.1558
  0
LINE
  8
0
 10
28.0439
 20
19.1558
 11
28.1183
 21
19.2135
  0
LINE
  8
0
 10
28.1183
 20
19.2135
 11
28.1963
 21
19.2665
  0
LINE
  8
0
 10
28.1963
 20
19.2665
 11
28.2774
 21
19.3145
  0
LINE
  8
0
 10
28.2774
 20
19.3145
 11
28.3613
 21
19.3572
  0
LINE
  8
0
 10
28.3613
 20
19.3572
 11
28.4478
 21
19.3947
  0
LINE
  8
0
 10
28.4478
 20
19.3947
 11
45.5365
 21
25.4266
  0
LINE
  8
0
 10
45.5365
 20
25.4266
 11
45.627
 21
25.4529
  0
LINE
  8
0
 10
45.627
 20
25.4529
 11
45.7189
 21
25.4734
  0
LINE
  8
0
 10
45.7189
 20
25.4734
 11
45.812
 21
25.4882
  0
LINE
  8
0
 10
45.812
 20
25.4882
 11
45.9058
 21
25.497
  0
LINE
  8
0
 10
45.9058
 20
25.497
 11
46
 21
25.5
  0
LINE
  8
0
 10
46
 20
25.5
 11
46.0942
 21
25.497
  0
LINE
  8
0
 10
46.0942
 20
25.497
 11
46.188
 21
25.4882
  0
LINE
  8
0
 10
46.188
 20
25.4882
 11
46.2811
 21
25.4734
  0
LINE
  8
0
 10
46.2811
 20
25.4734
 11
46.373
 21
25.4529
  0
LINE
  8
0
 10
46.373
 20
25.4529
 11
46.4635
 21
25.4266
  0
LINE
  8
0
 10
46.4635
 20
25.4266
 11
46.5522
 21
25.3947
  0
LINE
  8
0
 10
46.5522
 20
25.3947
 11
46.6387
 21
25.3572
  0
LINE
  8
0
 10
46.6387
 20
25.3572
 11
46.7226
 21
25.3145
  0
LINE
  8
0
 10
46.7226
 20
25.3145
 11
46.8037
 21
25.2665
  0
LINE
  8
0
 10
46.8037
 20
25.2665
 11
46.8817
 21
25.2135
  0
LINE
  8
0
 10
46.8817
 20
25.2135
 11
46.9561
 21
25.1558
  0
LINE
  8
0
 10
46.9561
 20
25.1558
 11
47.0268
 21
25.0934
  0
LINE
  8
0
 10
47.0268
 20
25.0934
 11
47.0934
 21
25.0268
  0
LINE
  8
0
 10
47.0934
 20
25.0268
 11
47.1558
 21
24.9561
  0
LINE
  8
0
 10
47.1558
 20
24.9561
 11
47.2135
 21
24.8817
  0
LINE
  8
0
 10
47.2135
 20
24.8817
 11
47.2665
 21
24.8037
  0
LINE
  8
0
 10
47.2665
 20
24.8037
 11
47.3145
 21
24.7226
  0
LINE
  8
0
 10
47.3145
 20
24.7226
 11
47.3572
 21
24.6387
  0
LINE
  8
0
 10
47.3572
 20
24.6387
 11
47.3947
 21
24.5522
  0
LINE
  8
0
 10
47.3947
 20
24.5522
 11
47.4266
 21
24.4635
  0
LINE
  8
0
 10
47.4266
 20
24.4635
 11
47.4529
 21
24.373
  0
LINE
  8
0
 10
47.4529
 20
24.373
 11
47.4734
 21
24.2811
  0
LINE
  8
0
 10
47.4734
 20
24.2811
 11
47.4882
 21
24.188
  0
LINE
  8
0
 10
47.4882
 20
24.188
 11
47.497
 21
24.0942
  0
LINE
  8
0
 10
47.497
 20
24.0942
 11
47.5
 21
24
  0
LINE
  8
0
 10
47.5
 20
24
 11
47.497
 21
23.9058
  0
LINE
  8
0
 10
47.497
 20
23.9058
 11
47.4882
 21
23.812
  0
LINE
  8
0
 10
47.4882
 20
23.812
 11
47.4734
 21
23.7189
  0
LINE
  8
0
 10
47.4734
 20
23.7189
 11
47.4529
 21
23.627
  0
LINE
  8
0
 10
47.4529
 20
23.627
 11
47.4266
 21
23.5365
  0
LINE
  8
0
 10
47.4266
 20
23.5365
 11
47.3947
 21
23.4478
  0
LINE
  8
0
 10
47.3947
 20
23.4478
 11
47.3572
 21
23.3613
  0
LINE
  8
0
 10
47.3572
 20
23.3613
 11
47.3145
 21
23.2774
  0
LINE
  8
0
 10
47.3145
 20
23.2774
 11
47.2665
 21
23.1963
  0
LINE
  8
0
 10
47.2665
 20
23.1963
 11
47.2135
 21
23.1183
  0
LINE
  8
0
 10
47.2135
 20
23.1183
 11
47.1558
 21
23.0439
  0
LINE
  8
0
 10
47.1558
 20
23.0439
 11
47.0934
 21
22.9732
  0
LINE
  8
0
 10
47.0934
 20
22.9732
 11
47.0268
 21
22.9065
  0
LINE
  8
0
 10
47.0268
 20
22.9065
 11
46.9561
 21
22.8442
  0
LINE
  8
0
 10
46.9561
 20
22.8442
 11
46.8817
 21
22.7865
  0
LINE
  8
0
 10
46.8817
 20
22.7865
 11
46.8037
 21
22.7335
  0
LINE
  8
0
 10
46.8037
 20
22.7335
 11
46.7226
 21
22.6855
  0
LINE
  8
0
 10
46.7226
 20
22.6855
 11
46.6387
 21
22.6427
  0
LINE
  8
0
 10
46.6387
 20
22.6427
 11
46.5522
 21
22.6053
  0
LINE
  8
0
 10
46.5522
 20
22.6053
 11
29.4635
 21
16.5734
  0
LINE
  8
0
 10
29.4635
 20
16.5734
 11
29.373
 21
16.5471
  0
LINE
  8
0
 10
29.373
 20
16.5471
 11
29.2811
 21
16.5266
  0
LINE
  8
0
 10
29.2811
 20
16.5266
 11
29.188
 21
16.5118
  0
LINE
  8
0
 10
29.188
 20
16.5118
 11
29.0942
 21
16.5029
  0
LINE
  8
0
 10
29.0942
 20
16.5029
 11
29
 21
16.5
  0
LINE
  8
0
 10
29
 20
16.5
 11
28.9058
 21
16.5029
  0
LINE
  8
0
 10
92
 20
3
 11
110
 21
3
  0
LINE
  8
0
 10
110
 20
3
 11
110
 21
0
  0
LINE
  8
0
 10
110
 20
0
 11
122
 21
0
  0
LINE
  8
0
 10
122
 20
0
 11
122
 21
3
  0
LINE
  8
0
 10
122
 20
3
 11
140
 21
3
  0
LINE
  8
0
 10
140
 20
3
 11
140
 21
0
  0
LINE
  8
0
 10
140
 20
0
 11
152
 21
0
  0
LINE
  8
0
 10
152
 20
0
 11
152
 21
3
  0
LINE
  8
0
 10
152
 20
3
 11
155.5
 21
3
  0
LINE
  8
0
 10
155.5
 20
3
 11
155.5
 21
6
  0
LINE
  8
0
 10
155.5
 20
6
 11
154.25
 21
6
  0
LINE
  8
0
 10
154.25
 20
6
 11
154.25
 21
8.5
  0
LINE
  8
0
 10
154.25
 20
8.5
 11
155.5
 21
8.5
  0
LINE
  8
0
 10
155.5
 20
8.5
 11
155.5
 21
11
  0
LINE
  8
0
 10
155.5
 20
11
 11
158.5
 21
11
  0
LINE
  8
0
 10
158.5
 20
11
 11
158.5
 21
8.5
  0
LINE
  8
0
 10
158.5
 20
8.5
 11
159.75
 21
8.5
  0
LINE
  8
0
 10
159.75
 20
8.5
 11
159.75
 21
6
  0
LINE
  8
0
 10
159.75
 20
6
 11
158.5
 21
6
  0
LINE
  8
0
 10
158.5
 20
6
 11
158.5
 21
3
  0
LINE
  8
0
 10
158.5
 20
3
 11
164
 21
3
  0
LINE
  8
0
 10
164
 20
3
 11
164
 21
12
  0
LINE
  8
0
 10
164
 20
12
 11
161
 21
12
  0
LINE
  8
0
 10
161
 20
12
 11
161
 21
16.5
  0
LINE
  8
0
 10
161
 20
16.5
 11
158
 21
16.5
  0
LINE
  8
0
 10
158
 20
16.5
 11
158
 21
15.25
  0
LINE
  8
0
 10
158
 20
15.25
 11
155.5
 21
15.25
  0
LINE
  8
0
 10
155.5
 20
15.25
 11
155.5
 21
16.5
  0
LINE
  8
0
 10
155.5
 20
16.5
 11
153
 21
16.5
  0
LINE
  8
0
 10
153
 20
16.5
 11
153
 21
19.5
  0
LINE
  8
0
 10
153
 20
19.5
 11
155.5
 21
19.5
  0
LINE
  8
0
 10
155.5
 20
19.5
 11
155.5
 21
20.75
  0
LINE
  8
0
 10
155.5
 20
20.75
 11
158
 21
20.75
  0
LINE
  8
0
 10
158
 20
20.75
 11
158
 21
19.5
  0
LINE
  8
0
 10
158
 20
19.5
 11
161
 21
19.5
  0
LINE
  8
0
 10
161
 20
19.5
 11
161
 21
24
  0
LINE
  8
0
 10
161
 20
24
 11
164
 21
24
  0
LINE
  8
0
 10
164
 20
24
 11
164
 21
42
  0
LINE
  8
0
 10
164
 20
42
 11
161
 21
42
  0
LINE
  8
0
 10
161
 20
42
 11
161
 21
46.5
  0
LINE
  8
0
 10
161
 20
46.5
 11
158
 21
46.5
  0
LINE
  8
0
 10
158
 20
46.5
 11
158
 21
45.25
  0
LINE
  8
0
 10
158
 20
45.25
 11
155.5
 21
45.25
  0
LINE
  8
0
 10
155.5
 20
45.25
 11
155.5
 21
46.5
  0
LINE
  8
0
 10
155.5
 20
46.5
 11
153
 21
46.5
  0
LINE
  8
0
 10
153
 20
46.5
 11
153
 21
49.5
  0
LINE
  8
0
 10
153
 20
49.5
 11
155.5
 21
49.5
  0
LINE
  8
0
 10
155.5
 20
49.5
 11
155.5
 21
50.75
  0
LINE
  8
0
 10
155.5
 20
50.75
 11
158
 21
50.75
  0
LINE
  8
0
 10
158
 20
50.75
 11
158
 21
49.5
  0
LINE
  8
0
 10
158
 20
49.5
 11
161
 21
49.5
  0
LINE
  8
0
 10
161
 20
49.5
 11
161
 21
54
  0
LINE
  8
0
 10
161
 20
54
 11
164
 21
54
  0
LINE
  8
0
 10
164
 20
54
 11
164
 21
63
  0
LINE
  8
0
 10
164
 20
63
 11
158.5
 21
63
  0
LINE
  8
0
 10
158.5
 20
63
 11
158.5
 21
60
  0
LINE
  8
0
 10
158.5
 20
60
 11
159.75
 21
60
  0
LINE
  8
0
 10
159.75
 20
60
 11
159.75
 21
57.5
  0
LINE
  8
0
 10
159.75
 20
57.5
 11
158.5
 21
57.5
  0
LINE
  8
0
 10
158.5
 20
57.5
 11
158.5
 21
55
  0
LINE
  8
0
 10
158.5
 20
55
 11
155.5
 21
55
  0
LINE
  8
0
 10
155.5
 20
55
 11
155.5
 21
57.5
  0
LINE
  8
0
 10
155.5
 20
57.5
 11
154.25
 21
57.5
  0
LINE
  8
0
 10
154.25
 20
57.5
 11
154.25
 21
60
  0
LINE
  8
0
 10
154.25
 20
60
 11
155.5
 21
60
  0
LINE
  8
0
 10
155.5
 20
60
 11
155.5
 21
63
  0
LINE
  8
0
 10
155.5
 20
63
 11
152
 21
63
  0
LINE
  8
0
 10
152
 20
63
 11
152
 21
66
  0
LINE
  8
0
 10
152
 20
66
 11
140
 21
66
  0
LINE
  8
0
 10
140
 20
66
 11
140
 21
63
  0
LINE
  8
0
 10
140
 20
63
 11
122
 21
63
  0
LINE
  8
0
 10
122
 20
63
 11
122
 21
66
  0
LINE
  8
0
 10
122
 20
66
 11
110
 21
66
  0
LINE
  8
0
 10
110
 20
66
 11
110
 21
63
  0
LINE
  8
0
 10
110
 20
63
 11
92
 21
63
  0
LINE
  8
0
 10
92
 20
63
 11
92
 21
66
  0
LINE
  8
0
 10
92
 20
66
 11
80
 21
66
  0
LINE
  8
0
 10
80
 20
66
 11
80
 21
63
  0
LINE
  8
0
 10
80
 20
63
 11
76.5
 21
63
  0
LINE
  8
0
 10
76.5
 20
63
 11
76.5
 21
60
  0
LINE
  8
0
 10
76.5
 20
60
 11
77.75
 21
60
  0
LINE
  8
0
 10
77.75
 20
60
 11
77.75
 21
57.5
  0
LINE
  8
0
 10
77.75
 20
57.5
 11
76.5
 21
57.5
  0
LINE
  8
0
 10
76.5
 20
57.5
 11
76.5
 21
55
  0
LINE
  8
0
 10
76.5
 20
55
 11
73.5
 21
55
  0
LINE
  8
0
 10
73.5
 20
55
 11
73.5
 21
57.5
  0
LINE
  8
0
 10
73.5
 20
57.5
 11
72.25
 21
57.5
  0
LINE
  8
0
 10
72.25
 20
57.5
 11
72.25
 21
60
  0
LINE
  8
0
 10
72.25
 20
60
 11
73.5
 21
60
  0
LINE
  8
0
 10
73.5
 20
60
 11
73.5
 21
63
  0
LINE
  8
0
 10
73.5
 20
63
 11
68
 21
63
  0
LINE
  8
0
 10
68
 20
63
 11
68
 21
54
  0
LINE
  8
0
 10
68
 20
54
 11
71
 21
54
  0
LINE
  8
0
 10
71
 20
54
 11
71
 21
49.5
  0
LINE
  8
0
 10
71
 20
49.5
 11
74
 21
49.5
  0
LINE
  8
0
 10
74
 20
49.5
 11
74
 21
50.75
  0
LINE
  8
0
 10
74
 20
50.75
 11
76.5
 21
50.75
  0
LINE
  8
0
 10
76.5
 20
50.75
 11
76.5
 21
49.5
  0
LINE
  8
0
 10
76.5
 20
49.5
 11
79
 21
49.5
  0
LINE
  8
0
 10
79
 20
49.5
 11
79
 21
46.5
  0
LINE
  8
0
 10
79
 20
46.5
 11
76.5
 21
46.5
  0
LINE
  8
0
 10
76.5
 20
46.5
 11
76.5
 21
45.25
  0
LINE
  8
0
 10
76.5
 20
45.25
 11
74
 21
45.25
  0
LINE
  8
0
 10
74
 20
45.25
 11
74
 21
46.5
  0
LINE
  8
0
 10
74
 20
46.5
 11
71
 21
46.5
  0
LINE
  8
0
 10
71
 20
46.5
 11
71
 21
42
  0
LINE
  8
0
 10
71
 20
42
 11
68
 21
42
  0
LINE
  8
0
 10
68
 20
42
 11
68
 21
24
  0
LINE
  8
0
 10
68
 20
24
 11
71
 21
24
  0
LINE
  8
0
 10
71
 20
24
 11
71
 21
19.5
  0
LINE
  8
0
 10
71
 20
19.5
 11
74
 21
19.5
  0
LINE
  8
0
 10
74
 20
19.5
 11
74
 21
20.75
  0
LINE
  8
0
 10
74
 20
20.75
 11
76.5
 21
20.75
  0
LINE
  8
0
 10
76.5
 20
20.75
 11
76.5
 21
19.5
  0
LINE
  8
0
 10
76.5
 20
19.5
 11
79
 21
19.5
  0
LINE
  8
0
 10
79
 20
19.5
 11
79
 21
16.5
  0
LINE
  8
0
 10
79
 20
16.5
 11
76.5
 21
16.5
  0
LINE
  8
0
 10
76.5
 20
16.5
 11
76.5
 21
15.25
  0
LINE
  8
0
 10
76.5
 20
15.25
 11
74
 21
15.25
  0
LINE
  8
0
 10
74
 20
15.25
 11
74
 21
16.5
  0
LINE
  8
0
 10
74
 20
16.5
 11
71
 21
16.5
  0
LINE
  8
0
 10
71
 20
16.5
 11
71
 21
12
  0
LINE
  8
0
 10
71
 20
12
 11
68
 21
12
  0
LINE
  8
0
 10
68
 20
12
 11
68
 21
3
  0
LINE
  8
0
 10
68
 20
3
 11
73.5
 21
3
  0
LINE
  8
0
 10
73.5
 20
3
 11
73.5
 21
6
  0
LINE
  8
0
 10
73.5
 20
6
 11
72.25
 21
6
  0
LINE
  8
0
 10
72.25
 20
6
 11
72.25
 21
8.5
  0
LINE
  8
0
 10
72.25
 20
8.5
 11
73.5
 21
8.5
  0
LINE
  8
0
 10
73.5
 20
8.5
 11
73.5
 21
11
  0
LINE
  8
0
 10
73.5
 20
11
 11
76.5
 21
11
  0
LINE
  8
0
 10
76.5
 20
11
 11
76.5
 21
8.5
  0
LINE
  8
0
 10
76.5
 20
8.5
 11
77.75
 21
8.5
  0
LINE
  8
0
 10
77.75
 20
8.5
 11
77.75
 21
6
  0
LINE
  8
0
 10
77.75
 20
6
 11
76.5
 21
6
  0
LINE
  8
0
 10
76.5
 20
6
 11
76.5
 21
3
  0
LINE
  8
0
 10
76.5
 20
3
 11
80
 21
3
  0
LINE
  8
0
 10
80
 20
3
 11
80
 21
0
  0
LINE
  8
0
 10
80
 20
0
 11
92
 21
0
  0
LINE
  8
0
 10
92
 20
0
 11
92
 21
3
  0
LINE
  8
0
 10
97
 20
30
 11
97
 21
33
  0
LINE
  8
0
 10
97
 20
33
 11
109
 21
33
  0
LINE
  8
0
 10
109
 20
33
 11
109
 21
30
  0
LINE
  8
0
 10
109
 20
30
 11
97
 21
30
  0
LINE
  8
0
 10
134
 20
30
 11
134
 21
33
  0
LINE
  8
0
 10
134
 20
33
 11
146
 21
33
  0
LINE
  8
0
 10
146
 20
33
 11
146
 21
30
  0
LINE
  8
0
 10
146
 20
30
 11
134
 21
30
  0
LINE
  8
0
 10
107.606
 20
21.3029
 11
107.512
 21
21.3118
  0
LINE
  8
0
 10
107.512
 20
21.3118
 11
107.419
 21
21.3266
  0
LINE
  8
0
 10
107.419
 20
21.3266
 11
107.327
 21
21.3471
  0
LINE
  8
0
 10
107.327
 20
21.3471
 11
107.236
 21
21.3734
  0
LINE
  8
0
 10
107.236
 20
21.3734
 11
107.148
 21
21.4053
  0
LINE
  8
0
 10
107.148
 20
21.4053
 11
107.061
 21
21.4427
  0
LINE
  8
0
 10
107.061
 20
21.4427
 11
106.977
 21
21.4855
  0
LINE
  8
0
 10
106.977
 20
21.4855
 11
106.896
 21
21.5335
  0
LINE
  8
0
 10
106.896
 20
21.5335
 11
106.818
 21
21.5865
  0
LINE
  8
0
 10
106.818
 20
21.5865
 11
106.744
 21
21.6442
  0
LINE
  8
0
 10
106.744
 20
21.6442
 11
106.673
 21
21.7065
  0
LINE
  8
0
 10
106.673
 20
21.7065
 11
106.607
 21
21.7732
  0
LINE
  8
0
 10
106.607
 20
21.7732
 11
106.544
 21
21.8439
  0
LINE
  8
0
 10
106.544
 20
21.8439
 11
106.486
 21
21.9183
  0
LINE
  8
0
 10
106.486
 20
21.9183
 11
106.434
 21
21.9962
  0
LINE
  8
0
 10
106.434
 20
21.9962
 11
106.386
 21
22.0774
  0
LINE
  8
0
 10
106.386
 20
22.0774
 11
106.343
 21
22.1613
  0
LINE
  8
0
 10
106.343
 20
22.1613
 11
106.305
 21
22.2478
  0
LINE
  8
0
 10
106.305
 20
22.2478
 11
106.273
 21
22.3365
  0
LINE
  8
0
 10
106.273
 20
22.3365
 11
106.247
 21
22.427
  0
LINE
  8
0
 10
106.247
 20
22.427
 11
106.227
 21
22.5189
  0
LINE
  8
0
 10
106.227
 20
22.5189
 11
106.212
 21
22.612
  0
LINE
  8
0
 10
106.212
 20
22.612
 11
106.203
 21
22.7058
  0
LINE
  8
0
 10
106.203
 20
22.7058
 11
106.2
 21
22.8
  0
LINE
  8
0
 10
106.2
 20
22.8
 11
106.203
 21
22.8942
  0
LINE
  8
0
 10
106.203
 20
22.8942
 11
106.212
 21
22.988
  0
LINE
  8
0
 10
106.212
 20
22.988
 11
106.227
 21
23.0811
  0
LINE
  8
0
 10
106.227
 20
23.0811
 11
106.247
 21
23.173
  0
LINE
  8
0
 10
106.247
 20
23.173
 11
106.273
 21
23.2635
  0
LINE
  8
0
 10
106.273
 20
23.2635
 11
106.305
 21
23.3522
  0
LINE
  8
0
 10
106.305
 20
23.3522
 11
106.343
 21
23.4387
  0
LINE
  8
0
 10
106.343
 20
23.4387
 11
106.386
 21
23.5226
  0
LINE
  8
0
 10
106.386
 20
23.5226
 11
106.434
 21
23.6037
  0
LINE
  8
0
 10
106.434
 20
23.6037
 11
106.486
 21
23.6817
  0
LINE
  8
0
 10
106.486
 20
23.6817
 11
106.544
 21
23.7561
  0
LINE
  8
0
 10
106.544
 20
23.7561
 11
106.607
 21
23.8268
  0
LINE
  8
0
 10
106.607
 20
23.8268
 11
106.673
 21
23.8934
  0
LINE
  8
0
 10
106.673
 20
23.8934
 11
106.744
 21
23.9558
  0
LINE
  8
0
 10
106.744
 20
23.9558
 11
106.818
 21
24.0135
  0
LINE
  8
0
 10
106.818
 20
24.0135
 11
106.896
 21
24.0665
  0
LINE
  8
0
 10
106.896
 20
24.0665
 11
106.977
 21
24.1145
  0
LINE
  8
0
 10
106.977
 20
24.1145
 11
107.061
 21
24.1572
  0
LINE
  8
0
 10
107.061
 20
24.1572
 11
107.148
 21
24.1947
  0
LINE
  8
0
 10
107.148
 20
24.1947
 11
107.236
 21
24.2266
  0
LINE
  8
0
 10
107.236
 20
24.2266
 11
107.327
 21
24.2529
  0
LINE
  8
0
 10
107.327
 20
24.2529
 11
107.419
 21
24.2734
  0
LINE
  8
0
 10
107.419
 20
24.2734
 11
107.512
 21
24.2882
  0
LINE
  8
0
 10
107.512
 20
24.2882
 11
107.606
 21
24.297
  0
LINE
  8
0
 10
107.606
 20
24.297
 11
107.7
 21
24.3
  0
LINE
  8
0
 10
107.7
 20
24.3
 11
107.794
 21
24.297
  0
LINE
  8
0
 10
107.794
 20
24.297
 11
107.888
 21
24.2882
  0
LINE
  8
0
 10
107.888
 20
24.2882
 11
107.981
 21
24.2734
  0
LINE
  8
0
 10
107.981
 20
24.2734
 11
108.073
 21
24.2529
  0
LINE
  8
0
 10
108.073
 20
24.2529
 11
108.164
 21
24.2266
  0
LINE
  8
0
 10
108.164
 20
24.2266
 11
108.252
 21
24.1947
  0
LINE
  8
0
 10
108.252
 20
24.1947
 11
108.339
 21
24.1572
  0
LINE
  8
0
 10
108.339
 20
24.1572
 11
108.423
 21
24.1145
  0
LINE
  8
0
 10
108.423
 20
24.1145
 11
108.504
 21
24.0665
  0
LINE
  8
0
 10
108.504
 20
24.0665
 11
108.582
 21
24.0135
  0
LINE
  8
0
 10
108.582
 20
24.0135
 11
108.656
 21
23.9558
  0
LINE
  8
0
 10
108.656
 20
23.9558
 11
108.727
 21
23.8934
  0
LINE
  8
0
 10
108.727
 20
23.8934
 11
108.793
 21
23.8268
  0
LINE
  8
0
 10
108.793
 20
23.8268
 11
108.856
 21
23.7561
  0
LINE
  8
0
 10
108.856
 20
23.7561
 11
108.914
 21
23.6817
  0
LINE
  8
0
 10
108.914
 20
23.6817
 11
108.966
 21
23.6037
  0
LINE
  8
0
 10
108.966
 20
23.6037
 11
109.014
 21
23.5226
  0
LINE
  8
0
 10
109.014
 20
23.5226
 11
109.057
 21
23.4387
  0
LINE
  8
0
 10
109.057
 20
23.4387
 11
109.095
 21
23.3522
  0
LINE
  8
0
 10
109.095
 20
23.3522
 11
109.127
 21
23.2635
  0
LINE
  8
0
 10
109.127
 20
23.2635
 11
109.153
 21
23.173
  0
LINE
  8
0
 10
109.153
 20
23.173
 11
109.173
 21
23.0811
  0
LINE
  8
0
 10
109.173
 20
23.0811
 11
109.188
 21
22.988
  0
LINE
  8
0
 10
109.188
 20
22.988
 11
109.197
 21
22.8942
  0
LINE
  8
0
 10
109.197
 20
22.8942
 11
109.2
 21
22.8
  0
LINE
  8
0
 10
109.2
 20
22.8
 11
109.197
 21
22.7058
  0
LINE
  8
0
 10
109.197
 20
22.7058
 11
109.188
 21
22.612
  0
LINE
  8
0
 10
109.188
 20
22.612
 11
109.173
 21
22.5189
  0
LINE
  8
0
 10
109.173
 20
22.5189
 11
109.153
 21
22.427
  0
LINE
  8
0
 10
109.153
 20
22.427
 11
109.127
 21
22.3365
  0
LINE
  8
0
 10
109.127
 20
22.3365
 11
109.095
 21
22.2478
  0
LINE
  8
0
 10
109.095
 20
22.2478
 11
109.057
 21
22.1613
  0
LINE
  8
0
 10
109.057
 20
22.1613
 11
109.014
 21
22.0774
  0
LINE
  8
0
 10
109.014
 20
22.0774
 11
108.966
 21
21.9962
  0
LINE
  8
0
 10
108.966
 20
21.9962
 11
108.914
 21
21.9183
  0
LINE
  8
0
 10
108.914
 20
21.9183
 11
108.856
 21
21.8439
  0
LINE
  8
0
 10
108.856
 20
21.8439
 11
108.793
 21
21.7732
  0
LINE
  8
0
 10
108.793
 20
21.7732
 11
108.727
 21
21.7065
  0
LINE
  8
0
 10
108.727
 20
21.7065
 11
108.656
 21
21.6442
  0
LINE
  8
0
 10
108.656
 20
21.6442
 11
108.582
 21
21.5865
  0
LINE
  8
0
 10
108.582
 20
21.5865
 11
108.504
 21
21.5335
  0
LINE
  8
0
 10
108.504
 20
21.5335
 11
108.423
 21
21.4855
  0
LINE
  8
0
 10
108.423
 20
21.4855
 11
108.339
 21
21.4427
  0
LINE
  8
0
 10
108.339
 20
21.4427
 11
108.252
 21
21.4053
  0
LINE
  8
0
 10
108.252
 20
21.4053
 11
108.164
 21
21.3734
  0
LINE
  8
0
 10
108.164
 20
21.3734
 11
108.073
 21
21.3471
  0
LINE
  8
0
 10
108.073
 20
21.3471
 11
107.981
 21
21.3266
  0
LINE
  8
0
 10
107.981
 20
21.3266
 11
107.888
 21
21.3118
  0
LINE
  8
0
 10
107.888
 20
21.3118
 11
107.794
 21
21.3029
  0
LINE
  8
0
 10
107.794
 20
21.3029
 11
107.7
 21
21.3
  0
LINE
  8
0
 10
107.7
 20
21.3
 11
107.606
 21
21.3029
  0
LINE
  8
0
 10
87.0145
 20
10.4574
 11
86.78
 21
10.4796
  0
LINE
  8
0
 10
86.78
 20
10.4796
 11
86.5473
 21
10.5164
  0
LINE
  8
0
 10
86.5473
 20
10.5164
 11
86.3174
 21
10.5678
  0
LINE
  8
0
 10
86.3174
 20
10.5678
 11
86.0912
 21
10.6335
  0
LINE
  8
0
 10
86.0912
 20
10.6335
 11
85.8695
 21
10.7133
  0
LINE
  8
0
 10
85.8695
 20
10.7133
 11
85.6533
 21
10.8069
  0
LINE
  8
0
 10
85.6533
 20
10.8069
 11
85.4434
 21
10.9138
  0
LINE
  8
0
 10
85.4434
 20
10.9138
 11
85.2406
 21
11.0338
  0
LINE
  8
0
 10
85.2406
 20
11.0338
 11
85.0458
 21
11.1662
  0
LINE
  8
0
 10
85.0458
 20
11.1662
 11
84.8596
 21
11.3106
  0
LINE
  8
0
 10
84.8596
 20
11.3106
 11
84.6829
 21
11.4664
  0
LINE
  8
0
 10
84.6829
 20
11.4664
 11
84.5164
 21
11.6329
  0
LINE
  8
0
 10
84.5164
 20
11.6329
 11
84.3606
 21
11.8096
  0
LINE
  8
0
 10
84.3606
 20
11.8096
 11
84.2162
 21
11.9958
  0
LINE
  8
0
 10
84.2162
 20
11.9958
 11
84.0838
 21
12.1906
  0
LINE
  8
0
 10
84.0838
 20
12.1906
 11
83.9638
 21
12.3934
  0
LINE
  8
0
 10
83.9638
 20
12.3934
 11
83.8569
 21
12.6033
  0
LINE
  8
0
 10
83.8569
 20
12.6033
 11
83.7633
 21
12.8195
  0
LINE
  8
0
 10
83.7633
 20
12.8195
 11
83.6835
 21
13.0412
  0
LINE
  8
0
 10
83.6835
 20
13.0412
 11
83.6178
 21
13.2674
  0
LINE
  8
0
 10
83.6178
 20
13.2674
 11
83.5664
 21
13.4973
  0
LINE
  8
0
 10
83.5664
 20
13.4973
 11
83.5296
 21
13.73
  0
LINE
  8
0
 10
83.5296
 20
13.73
 11
83.5074
 21
13.9645
  0
LINE
  8
0
 10
83.5074
 20
13.9645
 11
83.5
 21
14.2
  0
LINE
  8
0
 10
83.5
 20
14.2
 11
83.5074
 21
14.4355
  0
LINE
  8
0
 10
83.5074
 20
14.4355
 11
83.5296
 21
14.67
  0
LINE
  8
0
 10
83.5296
 20
14.67
 11
83.5664
 21
14.9027
  0
LINE
  8
0
 10
83.5664
 20
14.9027
 11
83.6178
 21
15.1326
  0
LINE
  8
0
 10
83.6178
 20
15.1326
 11
83.6835
 21
15.3588
  0
LINE
  8
0
 10
83.6835
 20
15.3588
 11
83.7633
 21
15.5805
  0
LINE
  8
0
 10
83.7633
 20
15.5805
 11
83.8569
 21
15.7967
  0
LINE
  8
0
 10
83.8569
 20
15.7967
 11
83.9638
 21
16.0066
  0
LINE
  8
0
 10
83.9638
 20
16.0066
 11
84.0838
 21
16.2093
  0
LINE
  8
0
 10
84.0838
 20
16.2093
 11
84.2162
 21
16.4042
  0
LINE
  8
0
 10
84.2162
 20
16.4042
 11
84.3606
 21
16.5903
  0
LINE
  8
0
 10
84.3606
 20
16.5903
 11
84.5164
 21
16.767
  0
LINE
  8
0
 10
84.5164
 20
16.767
 11
84.6829
 21
16.9336
  0
LINE
  8
0
 10
84.6829
 20
16.9336
 11
84.8596
 21
17.0894
  0
LINE
  8
0
 10
84.8596
 20
17.0894
 11
85.0458
 21
17.2338
  0
LINE
  8
0
 10
85.0458
 20
17.2338
 11
85.2406
 21
17.3662
  0
LINE
  8
0
 10
85.2406
 20
17.3662
 11
85.4434
 21
17.4861
  0
LINE
  8
0
 10
85.4434
 20
17.4861
 11
85.6533
 21
17.5931
  0
LINE
  8
0
 10
85.6533
 20
17.5931
 11
85.8695
 21
17.6867
  0
LINE
  8
0
 10
85.8695
 20
17.6867
 11
86.0912
 21
17.7664
  0
LINE
  8
0
 10
86.0912
 20
17.7664
 11
86.3174
 21
17.8322
  0
LINE
  8
0
 10
86.3174
 20
17.8322
 11
86.5473
 21
17.8836
  0
LINE
  8
0
 10
86.5473
 20
17.8836
 11
86.78
 21
17.9204
  0
LINE
  8
0
 10
86.78
 20
17.9204
 11
87.0145
 21
17.9426
  0
LINE
  8
0
 10
87.0145
 20
17.9426
 11
87.25
 21
17.95
  0
LINE
  8
0
 10
87.25
 20
17.95
 11
87.4855
 21
17.9426
  0
LINE
  8
0
 10
87.4855
 20
17.9426
 11
87.72
 21
17.9204
  0
LINE
  8
0
 10
87.72
 20
17.9204
 11
87.9527
 21
17.8836
  0
LINE
  8
0
 10
87.9527
 20
17.8836
 11
88.1826
 21
17.8322
  0
LINE
  8
0
 10
88.1826
 20
17.8322
 11
88.4088
 21
17.7664
  0
LINE
  8
0
 10
88.4088
 20
17.7664
 11
88.6305
 21
17.6867
  0
LINE
  8
0
 10
88.6305
 20
17.6867
 11
88.8467
 21
17.5931
  0
LINE
  8
0
 10
88.8467
 20
17.5931
 11
89.0566
 21
17.4861
  0
LINE
  8
0
 10
89.0566
 20
17.4861
 11
89.2593
 21
17.3662
  0
LINE
  8
0
 10
89.2593
 20
17.3662
 11
89.4542
 21
17.2338
  0
LINE
  8
0
 10
89.4542
 20
17.2338
 11
89.6403
 21
17.0894
  0
LINE
  8
0
 10
89.6403
 20
17.0894
 11
89.817
 21
16.9336
  0
LINE
  8
0
 10
89.817
 20
16.9336
 11
89.9836
 21
16.767
  0
LINE
  8
0
 10
89.9836
 20
16.767
 11
90.1394
 21
16.5903
  0
LINE
  8
0
 10
90.1394
 20
16.5903
 11
90.2838
 21
16.4042
  0
LINE
  8
0
 10
90.2838
 20
16.4042
 11
90.4162
 21
16.2093
  0
LINE
  8
0
 10
90.4162
 20
16.2093
 11
90.5361
 21
16.0066
  0
LINE
  8
0
 10
90.5361
 20
16.0066
 11
90.6431
 21
15.7967
  0
LINE
  8
0
 10
90.6431
 20
15.7967
 11
90.7366
 21
15.5805
  0
LINE
  8
0
 10
90.7366
 20
15.5805
 11
90.8165
 21
15.3588
  0
LINE
  8
0
 10
90.8165
 20
15.3588
 11
90.8822
 21
15.1326
  0
LINE
  8
0
 10
90.8822
 20
15.1326
 11
90.9336
 21
14.9027
  0
LINE
  8
0
 10
90.9336
 20
14.9027
 11
90.9704
 21
14.67
  0
LINE
  8
0
 10
90.9704
 20
14.67
 11
90.9926
 21
14.4355
  0
LINE
  8
0
 10
90.9926
 20
14.4355
 11
91
 21
14.2
  0
LINE
  8
0
 10
91
 20
14.2
 11
90.9926
 21
13.9645
  0
LINE
  8
0
 10
90.9926
 20
13.9645
 11
90.9704
 21
13.73
  0
LINE
  8
0
 10
90.9704
 20
13.73
 11
90.9336
 21
13.4973
  0
LINE
  8
0
 10
90.9336
 20
13.4973
 11
90.8822
 21
13.2674
  0
LINE
  8
0
 10
90.8822
 20
13.2674
 11
90.8165
 21
13.0412
  0
LINE
  8
0
 10
90.8165
 20
13.0412
 11
90.7366
 21
12.8195
  0
LINE
  8
0
 10
90.7366
 20
12.8195
 11
90.6431
 21
12.6033
  0
LINE
  8
0
 10
90.6431
 20
12.6033
 11
90.5361
 21
12.3934
  0
LINE
  8
0
 10
90.5361
 20
12.3934
 11
90.4162
 21
12.1906
  0
LINE
  8
0
 10
90.4162
 20
12.1906
 11
90.2838
 21
11.9958
  0
LINE
  8
0
 10
90.2838
 20
11.9958
 11
90.1394
 21
11.8096
  0
LINE
  8
0
 10
90.1394
 20
11.8096
 11
89.9836
 21
11.6329
  0
LINE
  8
0
 10
89.9836
 20
11.6329
 11
89.817
 21
11.4664
  0
LINE
  8
0
 10
89.817
 20
11.4664
 11
89.6403
 21
11.3106
  0
LINE
  8
0
 10
89.6403
 20
11.3106
 11
89.4542
 21
11.1662
  0
LINE
  8
0
 10
89.4542
 20
11.1662
 11
89.2593
 21
11.0338
  0
LINE
  8
0
 10
89.2593
 20
11.0338
 11
89.0566
 21
10.9138
  0
LINE
  8
0
 10
89.0566
 20
10.9138
 11
88.8467
 21
10.8069
  0
LINE
  8
0
 10
88.8467
 20
10.8069
 11
88.6305
 21
10.7133
  0
LINE
  8
0
 10
88.6305
 20
10.7133
 11
88.4088
 21
10.6335
  0
LINE
  8
0
 10
88.4088
 20
10.6335
 11
88.1826
 21
10.5678
  0
LINE
  8
0
 10
88.1826
 20
10.5678
 11
87.9527
 21
10.5164
  0
LINE
  8
0
 10
87.9527
 20
10.5164
 11
87.72
 21
10.4796
  0
LINE
  8
0
 10
87.72
 20
10.4796
 11
87.4855
 21
10.4574
  0
LINE
  8
0
 10
87.4855
 20
10.4574
 11
87.25
 21
10.45
  0
LINE
  8
0
 10
87.25
 20
10.45
 11
87.0145
 21
10.4574
  0
LINE
  8
0
 10
117
 20
11.7
 11
117
 21
16.7
  0
LINE
  8
0
 10
117
 20
16.7
 11
120
 21
16.7
  0
LINE
  8
0
 10
120
 20
16.7
 11
120
 21
11.7
  0
LINE
  8
0
 10
120
 20
11.7
 11
117
 21
11.7
  0
LINE
  8
0
 10
98.3744
 20
12.2039
 11
98.2493
 21
12.2158
  0
LINE
  8
0
 10
98.2493
 20
12.2158
 11
98.1252
 21
12.2354
  0
LINE
  8
0
 10
98.1252
 20
12.2354
 11
98.0026
 21
12.2628
  0
LINE
  8
0
 10
98.0026
 20
12.2628
 11
97.882
 21
12.2979
  0
LINE
  8
0
 10
97.882
 20
12.2979
 11
97.7637
 21
12.3404
  0
LINE
  8
0
 10
97.7637
 20
12.3404
 11
97.6484
 21
12.3903
  0
LINE
  8
0
 10
97.6484
 20
12.3903
 11
97.5365
 21
12.4474
  0
LINE
  8
0
 10
97.5365
 20
12.4474
 11
97.4283
 21
12.5113
  0
LINE
  8
0
 10
97.4283
 20
12.5113
 11
97.3244
 21
12.582
  0
LINE
  8
0
 10
97.3244
 20
12.582
 11
97.2251
 21
12.659
  0
LINE
  8
0
 10
97.2251
 20
12.659
 11
97.1309
 21
12.7421
  0
LINE
  8
0
 10
97.1309
 20
12.7421
 11
97.0421
 21
12.8309
  0
LINE
  8
0
 10
97.0421
 20
12.8309
 11
96.959
 21
12.9251
  0
LINE
  8
0
 10
96.959
 20
12.9251
 11
96.882
 21
13.0244
  0
LINE
  8
0
 10
96.882
 20
13.0244
 11
96.8113
 21
13.1283
  0
LINE
  8
0
 10
96.8113
 20
13.1283
 11
96.7474
 21
13.2365
  0
LINE
  8
0
 10
96.7474
 20
13.2365
 11
96.6903
 21
13.3484
  0
LINE
  8
0
 10
96.6903
 20
13.3484
 11
96.6404
 21
13.4637
  0
LINE
  8
0
 10
96.6404
 20
13.4637
 11
96.5979
 21
13.582
  0
LINE
  8
0
 10
96.5979
 20
13.582
 11
96.5628
 21
13.7026
  0
LINE
  8
0
 10
96.5628
 20
13.7026
 11
96.5354
 21
13.8252
  0
LINE
  8
0
 10
96.5354
 20
13.8252
 11
96.5158
 21
13.9493
  0
LINE
  8
0
 10
96.5158
 20
13.9493
 11
96.5039
 21
14.0744
  0
LINE
  8
0
 10
96.5039
 20
14.0744
 11
96.5
 21
14.2
  0
LINE
  8
0
 10
96.5
 20
14.2
 11
96.5039
 21
14.3256
  0
LINE
  8
0
 10
96.5039
 20
14.3256
 11
96.5158
 21
14.4507
  0
LINE
  8
0
 10
96.5158
 20
14.4507
 11
96.5354
 21
14.5748
  0
LINE
  8
0
 10
96.5354
 20
14.5748
 11
96.5628
 21
14.6974
  0
LINE
  8
0
 10
96.5628
 20
14.6974
 11
96.5979
 21
14.818
  0
LINE
  8
0
 10
96.5979
 20
14.818
 11
96.6404
 21
14.9362
  0
LINE
  8
0
 10
96.6404
 20
14.9362
 11
96.6903
 21
15.0515
  0
LINE
  8
0
 10
96.6903
 20
15.0515
 11
96.7474
 21
15.1635
  0
LINE
  8
0
 10
96.7474
 20
15.1635
 11
96.8113
 21
15.2717
  0
LINE
  8
0
 10
96.8113
 20
15.2717
 11
96.882
 21
15.3756
  0
LINE
  8
0
 10
96.882
 20
15.3756
 11
96.959
 21
15.4748
  0
LINE
  8
0
 10
96.959
 20
15.4748
 11
97.0421
 21
15.5691
  0
LINE
  8
0
 10
97.0421
 20
15.5691
 11
97.1309
 21
15.6579
  0
LINE
  8
0
 10
97.1309
 20
15.6579
 11
97.2251
 21
15.741
  0
LINE
  8
0
 10
97.2251
 20
15.741
 11
97.3244
 21
15.818
  0
LINE
  8
0
 10
97.3244
 20
15.818
 11
97.4283
 21
15.8886
  0
LINE
  8
0
 10
97.4283
 20
15.8886
 11
97.5365
 21
15.9526
  0
LINE
  8
0
 10
97.5365
 20
15.9526
 11
97.6484
 21
16.0096
  0
LINE
  8
0
 10
97.6484
 20
16.0096
 11
97.7637
 21
16.0595
  0
LINE
  8
0
 10
97.7637
 20
16.0595
 11
97.882
 21
16.1021
  0
LINE
  8
0
 10
97.882
 20
16.1021
 11
98.0026
 21
16.1372
  0
LINE
  8
0
 10
98.0026
 20
16.1372
 11
98.1252
 21
16.1646
  0
LINE
  8
0
 10
98.1252
 20
16.1646
 11
98.2493
 21
16.1842
  0
LINE
  8
0
 10
98.2493
 20
16.1842
 11
98.3744
 21
16.196
  0
LINE
  8
0
 10
98.3744
 20
16.196
 11
98.5
 21
16.2
  0
LINE
  8
0
 10
98.5
 20
16.2
 11
98.6256
 21
16.196
  0
LINE
  8
0
 10
98.6256
 20
16.196
 11
98.7507
 21
16.1842
  0
LINE
  8
0
 10
98.7507
 20
16.1842
 11
98.8748
 21
16.1646
  0
LINE
  8
0
 10
98.8748
 20
16.1646
 11
98.9974
 21
16.1372
  0
LINE
  8
0
 10
98.9974
 20
16.1372
 11
99.118
 21
16.1021
  0
LINE
  8
0
 10
99.118
 20
16.1021
 11
99.2362
 21
16.0595
  0
LINE
  8
0
 10
99.2362
 20
16.0595
 11
99.3515
 21
16.0096
  0
LINE
  8
0
 10
99.3515
 20
16.0096
 11
99.4635
 21
15.9526
  0
LINE
  8
0
 10
99.4635
 20
15.9526
 11
99.5716
 21
15.8886
  0
LINE
  8
0
 10
99.5716
 20
15.8886
 11
99.6756
 21
15.818
  0
LINE
  8
0
 10
99.6756
 20
15.818
 11
99.7748
 21
15.741
  0
LINE
  8
0
 10
99.7748
 20
15.741
 11
99.8691
 21
15.6579
  0
LINE
  8
0
 10
99.8691
 20
15.6579
 11
99.9579
 21
15.5691
  0
LINE
  8
0
 10
99.9579
 20
15.5691
 11
100.041
 21
15.4748
  0
LINE
  8
0
 10
100.041
 20
15.4748
 11
100.118
 21
15.3756
  0
LINE
  8
0
 10
100.118
 20
15.3756
 11
100.189
 21
15.2717
  0
LINE
  8
0
 10
100.189
 20
15.2717
 11
100.253
 21
15.1635
  0
LINE
  8
0
 10
100.253
 20
15.1635
 11
100.31
 21
15.0515
  0
LINE
  8
0
 10
100.31
 20
15.0515
 11
100.36
 21
14.9362
  0
LINE
  8
0
 10
100.36
 20
14.9362
 11
100.402
 21
14.818
  0
LINE
  8
0
 10
100.402
 20
14.818
 11
100.437
 21
14.6974
  0
LINE
  8
0
 10
100.437
 20
14.6974
 11
100.465
 21
14.5748
  0
LINE
  8
0
 10
100.465
 20
14.5748
 11
100.484
 21
14.4507
  0
LINE
  8
0
 10
100.484
 20
14.4507
 11
100.496
 21
14.3256
  0
LINE
  8
0
 10
100.496
 20
14.3256
 11
100.5
 21
14.2
  0
LINE
  8
0
 10
100.5
 20
14.2
 11
100.496
 21
14.0744
  0
LINE
  8
0
 10
100.496
 20
14.0744
 11
100.484
 21
13.9493
  0
LINE
  8
0
 10
100.484
 20
13.9493
 11
100.465
 21
13.8252
  0
LINE
  8
0
 10
100.465
 20
13.8252
 11
100.437
 21
13.7026
  0
LINE
  8
0
 10
100.437
 20
13.7026
 11
100.402
 21
13.582
  0
LINE
  8
0
 10
100.402
 20
13.582
 11
100.36
 21
13.4637
  0
LINE
  8
0
 10
100.36
 20
13.4637
 11
100.31
 21
13.3484
  0
LINE
  8
0
 10
100.31
 20
13.3484
 11
100.253
 21
13.2365
  0
LINE
  8
0
 10
100.253
 20
13.2365
 11
100.189
 21
13.1283
  0
LINE
  8
0
 10
100.189
 20
13.1283
 11
100.118
 21
13.0244
  0
LINE
  8
0
 10
100.118
 20
13.0244
 11
100.041
 21
12.9251
  0
LINE
  8
0
 10
100.041
 20
12.9251
 11
99.9579
 21
12.8309
  0
LINE
  8
0
 10
99.9579
 20
12.8309
 11
99.8691
 21
12.7421
  0
LINE
  8
0
 10
99.8691
 20
12.7421
 11
99.7748
 21
12.659
  0
LINE
  8
0
 10
99.7748
 20
12.659
 11
99.6756
 21
12.582
  0
LINE
  8
0
 10
99.6756
 20
12.582
 11
99.5716
 21
12.5113
  0
LINE
  8
0
 10
99.5716
 20
12.5113
 11
99.4635
 21
12.4474
  0
LINE
  8
0
 10
99.4635
 20
12.4474
 11
99.3515
 21
12.3903
  0
LINE
  8
0
 10
99.3515
 20
12.3903
 11
99.2362
 21
12.3404
  0
LINE
  8
0
 10
99.2362
 20
12.3404
 11
99.118
 21
12.2979
  0
LINE
  8
0
 10
99.118
 20
12.2979
 11
98.9974
 21
12.2628
  0
LINE
  8
0
 10
98.9974
 20
12.2628
 11
98.8748
 21
12.2354
  0
LINE
  8
0
 10
98.8748
 20
12.2354
 11
98.7507
 21
12.2158
  0
LINE
  8
0
 10
98.7507
 20
12.2158
 11
98.6256
 21
12.2039
  0
LINE
  8
0
 10
98.6256
 20
12.2039
 11
98.5
 21
12.2
  0
LINE
  8
0
 10
98.5
 20
12.2
 11
98.3744
 21
12.2039
  0
LINE
  8
0
 10
107.606
 20
4.10295
 11
107.512
 21
4.11182
  0
LINE
  8
0
 10
107.512
 20
4.11182
 11
107.419
 21
4.12656
  0
LINE
  8
0
 10
107.419
 20
4.12656
 11
107.327
 21
4.14713
  0
LINE
  8
0
 10
107.327
 20
4.14713
 11
107.236
 21
4.1734
  0
LINE
  8
0
 10
107.236
 20
4.1734
 11
107.148
 21
4.20532
  0
LINE
  8
0
 10
107.148
 20
4.20532
 11
107.061
 21
4.24275
  0
LINE
  8
0
 10
107.061
 20
4.24275
 11
106.977
 21
4.28554
  0
LINE
  8
0
 10
106.977
 20
4.28554
 11
106.896
 21
4.3335
  0
LINE
  8
0
 10
106.896
 20
4.3335
 11
106.818
 21
4.38646
  0
LINE
  8
0
 10
106.818
 20
4.38646
 11
106.744
 21
4.44423
  0
LINE
  8
0
 10
106.744
 20
4.44423
 11
106.673
 21
4.50655
  0
LINE
  8
0
 10
106.673
 20
4.50655
 11
106.607
 21
4.57317
  0
LINE
  8
0
 10
106.607
 20
4.57317
 11
106.544
 21
4.64386
  0
LINE
  8
0
 10
106.544
 20
4.64386
 11
106.486
 21
4.71831
  0
LINE
  8
0
 10
106.486
 20
4.71831
 11
106.434
 21
4.79625
  0
LINE
  8
0
 10
106.434
 20
4.79625
 11
106.386
 21
4.87737
  0
LINE
  8
0
 10
106.386
 20
4.87737
 11
106.343
 21
4.96132
  0
LINE
  8
0
 10
106.343
 20
4.96132
 11
106.305
 21
5.04781
  0
LINE
  8
0
 10
106.305
 20
5.04781
 11
106.273
 21
5.13646
  0
LINE
  8
0
 10
106.273
 20
5.13646
 11
106.247
 21
5.22696
  0
LINE
  8
0
 10
106.247
 20
5.22696
 11
106.227
 21
5.31892
  0
LINE
  8
0
 10
106.227
 20
5.31892
 11
106.212
 21
5.41199
  0
LINE
  8
0
 10
106.212
 20
5.41199
 11
106.203
 21
5.50581
  0
LINE
  8
0
 10
106.203
 20
5.50581
 11
106.2
 21
5.59999
  0
LINE
  8
0
 10
106.2
 20
5.59999
 11
106.203
 21
5.69418
  0
LINE
  8
0
 10
106.203
 20
5.69418
 11
106.212
 21
5.78799
  0
LINE
  8
0
 10
106.212
 20
5.78799
 11
106.227
 21
5.88106
  0
LINE
  8
0
 10
106.227
 20
5.88106
 11
106.247
 21
5.97302
  0
LINE
  8
0
 10
106.247
 20
5.97302
 11
106.273
 21
6.06352
  0
LINE
  8
0
 10
106.273
 20
6.06352
 11
106.305
 21
6.15218
  0
LINE
  8
0
 10
106.305
 20
6.15218
 11
106.343
 21
6.23866
  0
LINE
  8
0
 10
106.343
 20
6.23866
 11
106.386
 21
6.32262
  0
LINE
  8
0
 10
106.386
 20
6.32262
 11
106.434
 21
6.40373
  0
LINE
  8
0
 10
106.434
 20
6.40373
 11
106.486
 21
6.48167
  0
LINE
  8
0
 10
106.486
 20
6.48167
 11
106.544
 21
6.55612
  0
LINE
  8
0
 10
106.544
 20
6.55612
 11
106.607
 21
6.62682
  0
LINE
  8
0
 10
106.607
 20
6.62682
 11
106.673
 21
6.69345
  0
LINE
  8
0
 10
106.673
 20
6.69345
 11
106.744
 21
6.75577
  0
LINE
  8
0
 10
106.744
 20
6.75577
 11
106.818
 21
6.81352
  0
LINE
  8
0
 10
106.818
 20
6.81352
 11
106.896
 21
6.86649
  0
LINE
  8
0
 10
106.896
 20
6.86649
 11
106.977
 21
6.91446
  0
LINE
  8
0
 10
106.977
 20
6.91446
 11
107.061
 21
6.95723
  0
LINE
  8
0
 10
107.061
 20
6.95723
 11
107.148
 21
6.99466
  0
LINE
  8
0
 10
107.148
 20
6.99466
 11
107.236
 21
7.02658
  0
LINE
  8
0
 10
107.236
 20
7.02658
 11
107.327
 21
7.05287
  0
LINE
  8
0
 10
107.327
 20
7.05287
 11
107.419
 21
7.07343
  0
LINE
  8
0
 10
107.419
 20
7.07343
 11
107.512
 21
7.08817
  0
LINE
  8
0
 10
107.512
 20
7.08817
 11
107.606
 21
7.09703
  0
LINE
  8
0
 10
107.606
 20
7.09703
 11
107.7
 21
7.09999
  0
LINE
  8
0
 10
107.7
 20
7.09999
 11
107.794
 21
7.09703
  0
LINE
  8
0
 10
107.794
 20
7.09703
 11
107.888
 21
7.08817
  0
LINE
  8
0
 10
107.888
 20
7.08817
 11
107.981
 21
7.07343
  0
LINE
  8
0
 10
107.981
 20
7.07343
 11
108.073
 21
7.05287
  0
LINE
  8
0
 10
108.073
 20
7.05287
 11
108.164
 21
7.02658
  0
LINE
  8
0
 10
108.164
 20
7.02658
 11
108.252
 21
6.99466
  0
LINE
  8
0
 10
108.252
 20
6.99466
 11
108.339
 21
6.95723
  0
LINE
  8
0
 10
108.339
 20
6.95723
 11
108.423
 21
6.91446
  0
LINE
  8
0
 10
108.423
 20
6.91446
 11
108.504
 21
6.86649
  0
LINE
  8
0
 10
108.504
 20
6.86649
 11
108.582
 21
6.81352
  0
LINE
  8
0
 10
108.582
 20
6.81352
 11
108.656
 21
6.75577
  0
LINE
  8
0
 10
108.656
 20
6.75577
 11
108.727
 21
6.69345
  0
LINE
  8
0
 10
108.727
 20
6.69345
 11
108.793
 21
6.62682
  0
LINE
  8
0
 10
108.793
 20
6.62682
 11
108.856
 21
6.55612
  0
LINE
  8
0
 10
108.856
 20
6.55612
 11
108.914
 21
6.48167
  0
LINE
  8
0
 10
108.914
 20
6.48167
 11
108.966
 21
6.40373
  0
LINE
  8
0
 10
108.966
 20
6.40373
 11
109.014
 21
6.32262
  0
LINE
  8
0
 10
109.014
 20
6.32262
 11
109.057
 21
6.23866
  0
LINE
  8
0
 10
109.057
 20
6.23866
 11
109.095
 21
6.15218
  0
LINE
  8
0
 10
109.095
 20
6.15218
 11
109.127
 21
6.06352
  0
LINE
  8
0
 10
109.127
 20
6.06352
 11
109.153
 21
5.97302
  0
LINE
  8
0
 10
109.153
 20
5.97302
 11
109.173
 21
5.88106
  0
LINE
  8
0
 10
109.173
 20
5.88106
 11
109.188
 21
5.78799
  0
LINE
  8
0
 10
109.188
 20
5.78799
 11
109.197
 21
5.69418
  0
LINE
  8
0
 10
109.197
 20
5.69418
 11
109.2
 21
5.59999
  0
LINE
  8
0
 10
109.2
 20
5.59999
 11
109.197
 21
5.50581
  0
LINE
  8
0
 10
109.197
 20
5.50581
 11
109.188
 21
5.41199
  0
LINE
  8
0
 10
109.188
 20
5.41199
 11
109.173
 21
5.31892
  0
LINE
  8
0
 10
109.173
 20
5.31892
 11
109.153
 21
5.22696
  0
LINE
  8
0
 10
109.153
 20
5.22696
 11
109.127
 21
5.13646
  0
LINE
  8
0
 10
109.127
 20
5.13646
 11
109.095
 21
5.04781
  0
LINE
  8
0
 10
109.095
 20
5.04781
 11
109.057
 21
4.96132
  0
LINE
  8
0
 10
109.057
 20
4.96132
 11
109.014
 21
4.87737
  0
LINE
  8
0
 10
109.014
 20
4.87737
 11
108.966
 21
4.79625
  0
LINE
  8
0
 10
108.966
 20
4.79625
 11
108.914
 21
4.71831
  0
LINE
  8
0
 10
108.914
 20
4.71831
 11
108.856
 21
4.64386
  0
LINE
  8
0
 10
108.856
 20
4.64386
 11
108.793
 21
4.57317
  0
LINE
  8
0
 10
108.793
 20
4.57317
 11
108.727
 21
4.50655
  0
LINE
  8
0
 10
108.727
 20
4.50655
 11
108.656
 21
4.44423
  0
LINE
  8
0
 10
108.656
 20
4.44423
 11
108.582
 21
4.38646
  0
LINE
  8
0
 10
108.582
 20
4.38646
 11
108.504
 21
4.3335
  0
LINE
  8
0
 10
108.504
 20
4.3335
 11
108.423
 21
4.28554
  0
LINE
  8
0
 10
108.423
 20
4.28554
 11
108.339
 21
4.24275
  0
LINE
  8
0
 10
108.339
 20
4.24275
 11
108.252
 21
4.20532
  0
LINE
  8
0
 10
108.252
 20
4.20532
 11
108.164
 21
4.1734
  0
LINE
  8
0
 10
108.164
 20
4.1734
 11
108.073
 21
4.14713
  0
LINE
  8
0
 10
108.073
 20
4.14713
 11
107.981
 21
4.12656
  0
LINE
  8
0
 10
107.981
 20
4.12656
 11
107.888
 21
4.11182
  0
LINE
  8
0
 10
107.888
 20
4.11182
 11
107.794
 21
4.10295
  0
LINE
  8
0
 10
107.794
 20
4.10295
 11
107.7
 21
4.09999
  0
LINE
  8
0
 10
107.7
 20
4.09999
 11
107.606
 21
4.10295
  0
ENDSEC
  0
SECTION
  2
OBJECTS
  0
DICTIONARY
  0
ENDSEC
  0
EOF
