  0
SECTION
  2
BLOCKS
  0
ENDSEC
  0
SECTION
  2
ENTITIES
  0
LINE
  8
0
 10
1.13078
 20
-35.9822
 11
2.26045
 21
-35.929
  0
LINE
  8
0
 10
2.26045
 20
-35.929
 11
3.38789
 21
-35.8402
  0
LINE
  8
0
 10
3.38789
 20
-35.8402
 11
4.51199
 21
-35.7161
  0
LINE
  8
0
 10
4.51199
 20
-35.7161
 11
5.63164
 21
-35.5568
  0
LINE
  8
0
 10
5.63164
 20
-35.5568
 11
6.74571
 21
-35.3623
  0
LINE
  8
0
 10
6.74571
 20
-35.3623
 11
7.85315
 21
-35.133
  0
LINE
  8
0
 10
7.85315
 20
-35.133
 11
8.95284
 21
-34.869
  0
LINE
  8
0
 10
8.95284
 20
-34.869
 11
10.0437
 21
-34.5706
  0
LINE
  8
0
 10
10.0437
 20
-34.5706
 11
11.1246
 21
-34.238
  0
LINE
  8
0
 10
11.1246
 20
-34.238
 11
12.1946
 21
-33.8717
  0
LINE
  8
0
 10
12.1946
 20
-33.8717
 11
13.2525
 21
-33.4719
  0
LINE
  8
0
 10
13.2525
 20
-33.4719
 11
14.2973
 21
-33.0392
  0
LINE
  8
0
 10
14.2973
 20
-33.0392
 11
15.328
 21
-32.5738
  0
LINE
  8
0
 10
15.328
 20
-32.5738
 11
16.3436
 21
-32.0762
  0
LINE
  8
0
 10
16.3436
 20
-32.0762
 11
17.3431
 21
-31.547
  0
LINE
  8
0
 10
17.3431
 20
-31.547
 11
18.3255
 21
-30.9867
  0
LINE
  8
0
 10
18.3255
 20
-30.9867
 11
19.2898
 21
-30.3958
  0
LINE
  8
0
 10
19.2898
 20
-30.3958
 11
20.235
 21
-29.7749
  0
LINE
  8
0
 10
20.235
 20
-29.7749
 11
21.1603
 21
-29.1246
  0
LINE
  8
0
 10
21.1603
 20
-29.1246
 11
22.0647
 21
-28.4456
  0
LINE
  8
0
 10
22.0647
 20
-28.4456
 11
22.9473
 21
-27.7385
  0
LINE
  8
0
 10
22.9473
 20
-27.7385
 11
23.8072
 21
-27.004
  0
LINE
  8
0
 10
23.8072
 20
-27.004
 11
24.6437
 21
-26.2429
  0
LINE
  8
0
 10
24.6437
 20
-26.2429
 11
25.4558
 21
-25.4558
  0
LINE
  8
0
 10
25.4558
 20
-25.4558
 11
26.2429
 21
-24.6437
  0
LINE
  8
0
 10
26.2429
 20
-24.6437
 11
27.004
 21
-23.8072
  0
LINE
  8
0
 10
27.004
 20
-23.8072
 11
27.7385
 21
-22.9473
  0
LINE
  8
0
 10
27.7385
 20
-22.9473
 11
28.4456
 21
-22.0647
  0
LINE
  8
0
 10
28.4456
 20
-22.0647
 11
29.1246
 21
-21.1603
  0
LINE
  8
0
 10
29.1246
 20
-21.1603
 11
29.7749
 21
-20.235
  0
LINE
  8
0
 10
29.7749
 20
-20.235
 11
30.3958
 21
-19.2898
  0
LINE
  8
0
 10
30.3958
 20
-19.2898
 11
30.9867
 21
-18.3255
  0
LINE
  8
0
 10
30.9867
 20
-18.3255
 11
31.547
 21
-17.3431
  0
LINE
  8
0
 10
31.547
 20
-17.3431
 11
32.0762
 21
-16.3436
  0
LINE
  8
0
 10
32.0762
 20
-16.3436
 11
32.5738
 21
-15.328
  0
LINE
  8
0
 10
32.5738
 20
-15.328
 11
33.0392
 21
-14.2973
  0
LINE
  8
0
 10
33.0392
 20
-14.2973
 11
33.4719
 21
-13.2525
  0
LINE
  8
0
 10
33.4719
 20
-13.2525
 11
33.8717
 21
-12.1946
  0
LINE
  8
0
 10
33.8717
 20
-12.1946
 11
34.238
 21
-11.1246
  0
LINE
  8
0
 10
34.238
 20
-11.1246
 11
34.5706
 21
-10.0437
  0
LINE
  8
0
 10
34.5706
 20
-10.0437
 11
34.869
 21
-8.95284
  0
LINE
  8
0
 10
34.869
 20
-8.95284
 11
35.133
 21
-7.85315
  0
LINE
  8
0
 10
35.133
 20
-7.85315
 11
35.3623
 21
-6.74571
  0
LINE
  8
0
 10
35.3623
 20
-6.74571
 11
35.5568
 21
-5.63164
  0
LINE
  8
0
 10
35.5568
 20
-5.63164
 11
35.7161
 21
-4.51199
  0
LINE
  8
0
 10
35.7161
 20
-4.51199
 11
35.8402
 21
-3.38789
  0
LINE
  8
0
 10
35.8402
 20
-3.38789
 11
35.929
 21
-2.26045
  0
LINE
  8
0
 10
35.929
 20
-2.26045
 11
35.9822
 21
-1.13078
  0
LINE
  8
0
 10
35.9822
 20
-1.13078
 11
36
 21
0
  0
LINE
  8
0
 10
36
 20
0
 11
35.9822
 21
1.13078
  0
LINE
  8
0
 10
35.9822
 20
1.13078
 11
35.929
 21
2.26045
  0
LINE
  8
0
 10
35.929
 20
2.26045
 11
35.8402
 21
3.38789
  0
LINE
  8
0
 10
35.8402
 20
3.38789
 11
35.7161
 21
4.51199
  0
LINE
  8
0
 10
35.7161
 20
4.51199
 11
35.5568
 21
5.63164
  0
LINE
  8
0
 10
35.5568
 20
5.63164
 11
35.3623
 21
6.74571
  0
LINE
  8
0
 10
35.3623
 20
6.74571
 11
35.133
 21
7.85315
  0
LINE
  8
0
 10
35.133
 20
7.85315
 11
34.869
 21
8.95284
  0
LINE
  8
0
 10
34.869
 20
8.95284
 11
34.5706
 21
10.0437
  0
LINE
  8
0
 10
34.5706
 20
10.0437
 11
34.238
 21
11.1246
  0
LINE
  8
0
 10
34.238
 20
11.1246
 11
33.8717
 21
12.1946
  0
LINE
  8
0
 10
33.8717
 20
12.1946
 11
33.4719
 21
13.2525
  0
LINE
  8
0
 10
33.4719
 20
13.2525
 11
33.0392
 21
14.2973
  0
LINE
  8
0
 10
33.0392
 20
14.2973
 11
32.5738
 21
15.328
  0
LINE
  8
0
 10
32.5738
 20
15.328
 11
32.0762
 21
16.3436
  0
LINE
  8
0
 10
32.0762
 20
16.3436
 11
31.547
 21
17.3431
  0
LINE
  8
0
 10
31.547
 20
17.3431
 11
30.9867
 21
18.3255
  0
LINE
  8
0
 10
30.9867
 20
18.3255
 11
30.3958
 21
19.2898
  0
LINE
  8
0
 10
30.3958
 20
19.2898
 11
29.7749
 21
20.235
  0
LINE
  8
0
 10
29.7749
 20
20.235
 11
29.1246
 21
21.1603
  0
LINE
  8
0
 10
29.1246
 20
21.1603
 11
28.4456
 21
22.0647
  0
LINE
  8
0
 10
28.4456
 20
22.0647
 11
27.7385
 21
22.9473
  0
LINE
  8
0
 10
27.7385
 20
22.9473
 11
27.004
 21
23.8072
  0
LINE
  8
0
 10
27.004
 20
23.8072
 11
26.2429
 21
24.6437
  0
LINE
  8
0
 10
26.2429
 20
24.6437
 11
25.4558
 21
25.4558
  0
LINE
  8
0
 10
25.4558
 20
25.4558
 11
24.6437
 21
26.2429
  0
LINE
  8
0
 10
24.6437
 20
26.2429
 11
23.8072
 21
27.004
  0
LINE
  8
0
 10
23.8072
 20
27.004
 11
22.9473
 21
27.7385
  0
LINE
  8
0
 10
22.9473
 20
27.7385
 11
22.0647
 21
28.4456
  0
LINE
  8
0
 10
22.0647
 20
28.4456
 11
21.1603
 21
29.1246
  0
LINE
  8
0
 10
21.1603
 20
29.1246
 11
20.235
 21
29.7749
  0
LINE
  8
0
 10
20.235
 20
29.7749
 11
19.2898
 21
30.3958
  0
LINE
  8
0
 10
19.2898
 20
30.3958
 11
18.3255
 21
30.9867
  0
LINE
  8
0
 10
18.3255
 20
30.9867
 11
17.3431
 21
31.547
  0
LINE
  8
0
 10
17.3431
 20
31.547
 11
16.3436
 21
32.0762
  0
LINE
  8
0
 10
16.3436
 20
32.0762
 11
15.328
 21
32.5738
  0
LINE
  8
0
 10
15.328
 20
32.5738
 11
14.2973
 21
33.0392
  0
LINE
  8
0
 10
14.2973
 20
33.0392
 11
13.2525
 21
33.4719
  0
LINE
  8
0
 10
13.2525
 20
33.4719
 11
12.1946
 21
33.8717
  0
LINE
  8
0
 10
12.1946
 20
33.8717
 11
11.1246
 21
34.238
  0
LINE
  8
0
 10
11.1246
 20
34.238
 11
10.0437
 21
34.5706
  0
LINE
  8
0
 10
10.0437
 20
34.5706
 11
8.95284
 21
34.869
  0
LINE
  8
0
 10
8.95284
 20
34.869
 11
7.85315
 21
35.133
  0
LINE
  8
0
 10
7.85315
 20
35.133
 11
6.74571
 21
35.3623
  0
LINE
  8
0
 10
6.74571
 20
35.3623
 11
5.63164
 21
35.5568
  0
LINE
  8
0
 10
5.63164
 20
35.5568
 11
4.51199
 21
35.7161
  0
LINE
  8
0
 10
4.51199
 20
35.7161
 11
3.38789
 21
35.8402
  0
LINE
  8
0
 10
3.38789
 20
35.8402
 11
2.26045
 21
35.929
  0
LINE
  8
0
 10
2.26045
 20
35.929
 11
1.13078
 21
35.9822
  0
LINE
  8
0
 10
1.13078
 20
35.9822
 11
0
 21
36
  0
LINE
  8
0
 10
0
 20
36
 11
-1.13078
 21
35.9822
  0
LINE
  8
0
 10
-1.13078
 20
35.9822
 11
-2.26045
 21
35.929
  0
LINE
  8
0
 10
-2.26045
 20
35.929
 11
-3.38789
 21
35.8402
  0
LINE
  8
0
 10
-3.38789
 20
35.8402
 11
-4.51199
 21
35.7161
  0
LINE
  8
0
 10
-4.51199
 20
35.7161
 11
-5.63164
 21
35.5568
  0
LINE
  8
0
 10
-5.63164
 20
35.5568
 11
-6.74571
 21
35.3623
  0
LINE
  8
0
 10
-6.74571
 20
35.3623
 11
-7.85315
 21
35.133
  0
LINE
  8
0
 10
-7.85315
 20
35.133
 11
-8.95284
 21
34.869
  0
LINE
  8
0
 10
-8.95284
 20
34.869
 11
-10.0437
 21
34.5706
  0
LINE
  8
0
 10
-10.0437
 20
34.5706
 11
-11.1246
 21
34.238
  0
LINE
  8
0
 10
-11.1246
 20
34.238
 11
-12.1946
 21
33.8717
  0
LINE
  8
0
 10
-12.1946
 20
33.8717
 11
-13.2525
 21
33.4719
  0
LINE
  8
0
 10
-13.2525
 20
33.4719
 11
-14.2973
 21
33.0392
  0
LINE
  8
0
 10
-14.2973
 20
33.0392
 11
-15.328
 21
32.5738
  0
LINE
  8
0
 10
-15.328
 20
32.5738
 11
-16.3436
 21
32.0762
  0
LINE
  8
0
 10
-16.3436
 20
32.0762
 11
-17.3431
 21
31.547
  0
LINE
  8
0
 10
-17.3431
 20
31.547
 11
-18.3255
 21
30.9867
  0
LINE
  8
0
 10
-18.3255
 20
30.9867
 11
-19.2898
 21
30.3958
  0
LINE
  8
0
 10
-19.2898
 20
30.3958
 11
-20.235
 21
29.7749
  0
LINE
  8
0
 10
-20.235
 20
29.7749
 11
-21.1603
 21
29.1246
  0
LINE
  8
0
 10
-21.1603
 20
29.1246
 11
-22.0647
 21
28.4456
  0
LINE
  8
0
 10
-22.0647
 20
28.4456
 11
-22.9473
 21
27.7385
  0
LINE
  8
0
 10
-22.9473
 20
27.7385
 11
-23.8072
 21
27.004
  0
LINE
  8
0
 10
-23.8072
 20
27.004
 11
-24.6437
 21
26.2429
  0
LINE
  8
0
 10
-24.6437
 20
26.2429
 11
-25.4558
 21
25.4558
  0
LINE
  8
0
 10
-25.4558
 20
25.4558
 11
-26.2429
 21
24.6437
  0
LINE
  8
0
 10
-26.2429
 20
24.6437
 11
-27.004
 21
23.8072
  0
LINE
  8
0
 10
-27.004
 20
23.8072
 11
-27.7385
 21
22.9473
  0
LINE
  8
0
 10
-27.7385
 20
22.9473
 11
-28.4456
 21
22.0647
  0
LINE
  8
0
 10
-28.4456
 20
22.0647
 11
-29.1246
 21
21.1603
  0
LINE
  8
0
 10
-29.1246
 20
21.1603
 11
-29.7749
 21
20.235
  0
LINE
  8
0
 10
-29.7749
 20
20.235
 11
-30.3958
 21
19.2898
  0
LINE
  8
0
 10
-30.3958
 20
19.2898
 11
-30.9867
 21
18.3255
  0
LINE
  8
0
 10
-30.9867
 20
18.3255
 11
-31.547
 21
17.3431
  0
LINE
  8
0
 10
-31.547
 20
17.3431
 11
-32.0762
 21
16.3436
  0
LINE
  8
0
 10
-32.0762
 20
16.3436
 11
-32.5738
 21
15.328
  0
LINE
  8
0
 10
-32.5738
 20
15.328
 11
-33.0392
 21
14.2973
  0
LINE
  8
0
 10
-33.0392
 20
14.2973
 11
-33.4719
 21
13.2525
  0
LINE
  8
0
 10
-33.4719
 20
13.2525
 11
-33.8717
 21
12.1946
  0
LINE
  8
0
 10
-33.8717
 20
12.1946
 11
-34.238
 21
11.1246
  0
LINE
  8
0
 10
-34.238
 20
11.1246
 11
-34.5706
 21
10.0437
  0
LINE
  8
0
 10
-34.5706
 20
10.0437
 11
-34.869
 21
8.95284
  0
LINE
  8
0
 10
-34.869
 20
8.95284
 11
-35.133
 21
7.85315
  0
LINE
  8
0
 10
-35.133
 20
7.85315
 11
-35.3623
 21
6.74571
  0
LINE
  8
0
 10
-35.3623
 20
6.74571
 11
-35.5568
 21
5.63164
  0
LINE
  8
0
 10
-35.5568
 20
5.63164
 11
-35.7161
 21
4.51199
  0
LINE
  8
0
 10
-35.7161
 20
4.51199
 11
-35.8402
 21
3.38789
  0
LINE
  8
0
 10
-35.8402
 20
3.38789
 11
-35.929
 21
2.26045
  0
LINE
  8
0
 10
-35.929
 20
2.26045
 11
-35.9822
 21
1.13078
  0
LINE
  8
0
 10
-35.9822
 20
1.13078
 11
-36
 21
0
  0
LINE
  8
0
 10
-36
 20
0
 11
-35.9822
 21
-1.13078
  0
LINE
  8
0
 10
-35.9822
 20
-1.13078
 11
-35.929
 21
-2.26045
  0
LINE
  8
0
 10
-35.929
 20
-2.26045
 11
-35.8402
 21
-3.38789
  0
LINE
  8
0
 10
-35.8402
 20
-3.38789
 11
-35.7161
 21
-4.51199
  0
LINE
  8
0
 10
-35.7161
 20
-4.51199
 11
-35.5568
 21
-5.63164
  0
LINE
  8
0
 10
-35.5568
 20
-5.63164
 11
-35.3623
 21
-6.74571
  0
LINE
  8
0
 10
-35.3623
 20
-6.74571
 11
-35.133
 21
-7.85315
  0
LINE
  8
0
 10
-35.133
 20
-7.85315
 11
-34.869
 21
-8.95284
  0
LINE
  8
0
 10
-34.869
 20
-8.95284
 11
-34.5706
 21
-10.0437
  0
LINE
  8
0
 10
-34.5706
 20
-10.0437
 11
-34.238
 21
-11.1246
  0
LINE
  8
0
 10
-34.238
 20
-11.1246
 11
-33.8717
 21
-12.1946
  0
LINE
  8
0
 10
-33.8717
 20
-12.1946
 11
-33.4719
 21
-13.2525
  0
LINE
  8
0
 10
-33.4719
 20
-13.2525
 11
-33.0392
 21
-14.2973
  0
LINE
  8
0
 10
-33.0392
 20
-14.2973
 11
-32.5738
 21
-15.328
  0
LINE
  8
0
 10
-32.5738
 20
-15.328
 11
-32.0762
 21
-16.3436
  0
LINE
  8
0
 10
-32.0762
 20
-16.3436
 11
-31.547
 21
-17.3431
  0
LINE
  8
0
 10
-31.547
 20
-17.3431
 11
-30.9867
 21
-18.3255
  0
LINE
  8
0
 10
-30.9867
 20
-18.3255
 11
-30.3958
 21
-19.2898
  0
LINE
  8
0
 10
-30.3958
 20
-19.2898
 11
-29.7749
 21
-20.235
  0
LINE
  8
0
 10
-29.7749
 20
-20.235
 11
-29.1246
 21
-21.1603
  0
LINE
  8
0
 10
-29.1246
 20
-21.1603
 11
-28.4456
 21
-22.0647
  0
LINE
  8
0
 10
-28.4456
 20
-22.0647
 11
-27.7385
 21
-22.9473
  0
LINE
  8
0
 10
-27.7385
 20
-22.9473
 11
-27.004
 21
-23.8072
  0
LINE
  8
0
 10
-27.004
 20
-23.8072
 11
-26.2429
 21
-24.6437
  0
LINE
  8
0
 10
-26.2429
 20
-24.6437
 11
-25.4558
 21
-25.4558
  0
LINE
  8
0
 10
-25.4558
 20
-25.4558
 11
-24.6437
 21
-26.2429
  0
LINE
  8
0
 10
-24.6437
 20
-26.2429
 11
-23.8072
 21
-27.004
  0
LINE
  8
0
 10
-23.8072
 20
-27.004
 11
-22.9473
 21
-27.7385
  0
LINE
  8
0
 10
-22.9473
 20
-27.7385
 11
-22.0647
 21
-28.4456
  0
LINE
  8
0
 10
-22.0647
 20
-28.4456
 11
-21.1603
 21
-29.1246
  0
LINE
  8
0
 10
-21.1603
 20
-29.1246
 11
-20.235
 21
-29.7749
  0
LINE
  8
0
 10
-20.235
 20
-29.7749
 11
-19.2898
 21
-30.3958
  0
LINE
  8
0
 10
-19.2898
 20
-30.3958
 11
-18.3255
 21
-30.9867
  0
LINE
  8
0
 10
-18.3255
 20
-30.9867
 11
-17.3431
 21
-31.547
  0
LINE
  8
0
 10
-17.3431
 20
-31.547
 11
-16.3436
 21
-32.0762
  0
LINE
  8
0
 10
-16.3436
 20
-32.0762
 11
-15.328
 21
-32.5738
  0
LINE
  8
0
 10
-15.328
 20
-32.5738
 11
-14.2973
 21
-33.0392
  0
LINE
  8
0
 10
-14.2973
 20
-33.0392
 11
-13.2525
 21
-33.4719
  0
LINE
  8
0
 10
-13.2525
 20
-33.4719
 11
-12.1946
 21
-33.8717
  0
LINE
  8
0
 10
-12.1946
 20
-33.8717
 11
-11.1246
 21
-34.238
  0
LINE
  8
0
 10
-11.1246
 20
-34.238
 11
-10.0437
 21
-34.5706
  0
LINE
  8
0
 10
-10.0437
 20
-34.5706
 11
-8.95284
 21
-34.869
  0
LINE
  8
0
 10
-8.95284
 20
-34.869
 11
-7.85315
 21
-35.133
  0
LINE
  8
0
 10
-7.85315
 20
-35.133
 11
-6.74571
 21
-35.3623
  0
LINE
  8
0
 10
-6.74571
 20
-35.3623
 11
-5.63164
 21
-35.5568
  0
LINE
  8
0
 10
-5.63164
 20
-35.5568
 11
-4.51199
 21
-35.7161
  0
LINE
  8
0
 10
-4.51199
 20
-35.7161
 11
-3.38789
 21
-35.8402
  0
LINE
  8
0
 10
-3.38789
 20
-35.8402
 11
-2.26045
 21
-35.929
  0
LINE
  8
0
 10
-2.26045
 20
-35.929
 11
-1.13078
 21
-35.9822
  0
LINE
  8
0
 10
-1.13078
 20
-35.9822
 11
0
 21
-36
  0
LINE
  8
0
 10
0
 20
-36
 11
1.13078
 21
-35.9822
  0
LINE
  8
0
 10
-8.88379
 20
18.9709
 11
-8.99864
 21
18.9796
  0
LINE
  8
0
 10
-8.99864
 20
18.9796
 11
-9.11099
 21
18.9942
  0
LINE
  8
0
 10
-9.11099
 20
18.9942
 11
-9.22083
 21
19.0145
  0
LINE
  8
0
 10
-9.22083
 20
19.0145
 11
-9.32814
 21
19.0406
  0
LINE
  8
0
 10
-9.32814
 20
19.0406
 11
-9.43297
 21
19.0726
  0
LINE
  8
0
 10
-9.43297
 20
19.0726
 11
-9.53526
 21
19.1104
  0
LINE
  8
0
 10
-9.53526
 20
19.1104
 11
-9.63507
 21
19.1539
  0
LINE
  8
0
 10
-9.63507
 20
19.1539
 11
-9.73236
 21
19.2033
  0
LINE
  8
0
 10
-9.73236
 20
19.2033
 11
-9.82713
 21
19.2585
  0
LINE
  8
0
 10
-9.82713
 20
19.2585
 11
-9.91942
 21
19.3195
  0
LINE
  8
0
 10
-9.91942
 20
19.3195
 11
-10.0092
 21
19.3864
  0
LINE
  8
0
 10
-10.0092
 20
19.3864
 11
-10.0964
 21
19.459
  0
LINE
  8
0
 10
-10.0964
 20
19.459
 11
-10.179
 21
19.5358
  0
LINE
  8
0
 10
-10.179
 20
19.5358
 11
-10.2549
 21
19.6153
  0
LINE
  8
0
 10
-10.2549
 20
19.6153
 11
-10.3242
 21
19.6975
  0
LINE
  8
0
 10
-10.3242
 20
19.6975
 11
-10.387
 21
19.7823
  0
LINE
  8
0
 10
-10.387
 20
19.7823
 11
-10.4431
 21
19.8697
  0
LINE
  8
0
 10
-10.4431
 20
19.8697
 11
-10.4926
 21
19.9597
  0
LINE
  8
0
 10
-10.4926
 20
19.9597
 11
-10.5356
 21
20.0524
  0
LINE
  8
0
 10
-10.5356
 20
20.0524
 11
-10.5719
 21
20.1478
  0
LINE
  8
0
 10
-10.5719
 20
20.1478
 11
-10.6016
 21
20.2457
  0
LINE
  8
0
 10
-10.6016
 20
20.2457
 11
-10.6247
 21
20.3463
  0
LINE
  8
0
 10
-10.6247
 20
20.3463
 11
-10.6412
 21
20.4496
  0
LINE
  8
0
 10
-10.6412
 20
20.4496
 11
-10.6511
 21
20.5555
  0
LINE
  8
0
 10
-10.6511
 20
20.5555
 11
-10.6544
 21
20.664
  0
LINE
  8
0
 10
-10.6544
 20
20.664
 11
-10.6511
 21
20.7725
  0
LINE
  8
0
 10
-10.6511
 20
20.7725
 11
-10.6412
 21
20.8784
  0
LINE
  8
0
 10
-10.6412
 20
20.8784
 11
-10.6247
 21
20.9817
  0
LINE
  8
0
 10
-10.6247
 20
20.9817
 11
-10.6016
 21
21.0823
  0
LINE
  8
0
 10
-10.6016
 20
21.0823
 11
-10.5719
 21
21.1802
  0
LINE
  8
0
 10
-10.5719
 20
21.1802
 11
-10.5356
 21
21.2756
  0
LINE
  8
0
 10
-10.5356
 20
21.2756
 11
-10.4926
 21
21.3683
  0
LINE
  8
0
 10
-10.4926
 20
21.3683
 11
-10.4431
 21
21.4583
  0
LINE
  8
0
 10
-10.4431
 20
21.4583
 11
-10.387
 21
21.5457
  0
LINE
  8
0
 10
-10.387
 20
21.5457
 11
-10.3242
 21
21.6305
  0
LINE
  8
0
 10
-10.3242
 20
21.6305
 11
-10.2549
 21
21.7126
  0
LINE
  8
0
 10
-10.2549
 20
21.7126
 11
-10.179
 21
21.7921
  0
LINE
  8
0
 10
-10.179
 20
21.7921
 11
-10.0964
 21
21.869
  0
LINE
  8
0
 10
-10.0964
 20
21.869
 11
-10.0092
 21
21.9416
  0
LINE
  8
0
 10
-10.0092
 20
21.9416
 11
-9.91942
 21
22.0085
  0
LINE
  8
0
 10
-9.91942
 20
22.0085
 11
-9.82713
 21
22.0695
  0
LINE
  8
0
 10
-9.82713
 20
22.0695
 11
-9.73236
 21
22.1247
  0
LINE
  8
0
 10
-9.73236
 20
22.1247
 11
-9.63507
 21
22.1741
  0
LINE
  8
0
 10
-9.63507
 20
22.1741
 11
-9.53526
 21
22.2176
  0
LINE
  8
0
 10
-9.53526
 20
22.2176
 11
-9.43297
 21
22.2554
  0
LINE
  8
0
 10
-9.43297
 20
22.2554
 11
-9.32814
 21
22.2874
  0
LINE
  8
0
 10
-9.32814
 20
22.2874
 11
-9.22083
 21
22.3135
  0
LINE
  8
0
 10
-9.22083
 20
22.3135
 11
-9.11099
 21
22.3338
  0
LINE
  8
0
 10
-9.11099
 20
22.3338
 11
-8.99864
 21
22.3484
  0
LINE
  8
0
 10
-8.99864
 20
22.3484
 11
-8.88379
 21
22.3571
  0
LINE
  8
0
 10
-8.88379
 20
22.3571
 11
-8.76643
 21
22.36
  0
LINE
  8
0
 10
-8.76643
 20
22.36
 11
-8.64893
 21
22.3571
  0
LINE
  8
0
 10
-8.64893
 20
22.3571
 11
-8.53395
 21
22.3484
  0
LINE
  8
0
 10
-8.53395
 20
22.3484
 11
-8.42152
 21
22.3338
  0
LINE
  8
0
 10
-8.42152
 20
22.3338
 11
-8.31161
 21
22.3135
  0
LINE
  8
0
 10
-8.31161
 20
22.3135
 11
-8.20424
 21
22.2874
  0
LINE
  8
0
 10
-8.20424
 20
22.2874
 11
-8.0994
 21
22.2554
  0
LINE
  8
0
 10
-8.0994
 20
22.2554
 11
-7.99709
 21
22.2176
  0
LINE
  8
0
 10
-7.99709
 20
22.2176
 11
-7.89732
 21
22.1741
  0
LINE
  8
0
 10
-7.89732
 20
22.1741
 11
-7.80008
 21
22.1247
  0
LINE
  8
0
 10
-7.80008
 20
22.1247
 11
-7.70537
 21
22.0695
  0
LINE
  8
0
 10
-7.70537
 20
22.0695
 11
-7.61319
 21
22.0085
  0
LINE
  8
0
 10
-7.61319
 20
22.0085
 11
-7.52354
 21
21.9416
  0
LINE
  8
0
 10
-7.52354
 20
21.9416
 11
-7.43643
 21
21.869
  0
LINE
  8
0
 10
-7.43643
 20
21.869
 11
-7.35388
 21
21.7921
  0
LINE
  8
0
 10
-7.35388
 20
21.7921
 11
-7.27794
 21
21.7126
  0
LINE
  8
0
 10
-7.27794
 20
21.7126
 11
-7.2086
 21
21.6305
  0
LINE
  8
0
 10
-7.2086
 20
21.6305
 11
-7.14587
 21
21.5457
  0
LINE
  8
0
 10
-7.14587
 20
21.5457
 11
-7.08974
 21
21.4583
  0
LINE
  8
0
 10
-7.08974
 20
21.4583
 11
-7.04022
 21
21.3683
  0
LINE
  8
0
 10
-7.04022
 20
21.3683
 11
-6.9973
 21
21.2756
  0
LINE
  8
0
 10
-6.9973
 20
21.2756
 11
-6.96097
 21
21.1802
  0
LINE
  8
0
 10
-6.96097
 20
21.1802
 11
-6.93126
 21
21.0823
  0
LINE
  8
0
 10
-6.93126
 20
21.0823
 11
-6.90814
 21
20.9817
  0
LINE
  8
0
 10
-6.90814
 20
20.9817
 11
-6.89163
 21
20.8784
  0
LINE
  8
0
 10
-6.89163
 20
20.8784
 11
-6.88173
 21
20.7725
  0
LINE
  8
0
 10
-6.88173
 20
20.7725
 11
-6.87843
 21
20.664
  0
LINE
  8
0
 10
-6.87843
 20
20.664
 11
-6.88173
 21
20.556
  0
LINE
  8
0
 10
-6.88173
 20
20.556
 11
-6.89163
 21
20.4507
  0
LINE
  8
0
 10
-6.89163
 20
20.4507
 11
-6.90814
 21
20.3479
  0
LINE
  8
0
 10
-6.90814
 20
20.3479
 11
-6.93126
 21
20.2476
  0
LINE
  8
0
 10
-6.93126
 20
20.2476
 11
-6.96097
 21
20.1499
  0
LINE
  8
0
 10
-6.96097
 20
20.1499
 11
-6.9973
 21
20.0548
  0
LINE
  8
0
 10
-6.9973
 20
20.0548
 11
-7.04022
 21
19.9623
  0
LINE
  8
0
 10
-7.04022
 20
19.9623
 11
-7.08974
 21
19.8723
  0
LINE
  8
0
 10
-7.08974
 20
19.8723
 11
-7.14587
 21
19.7849
  0
LINE
  8
0
 10
-7.14587
 20
19.7849
 11
-7.2086
 21
19.7001
  0
LINE
  8
0
 10
-7.2086
 20
19.7001
 11
-7.27794
 21
19.6178
  0
LINE
  8
0
 10
-7.27794
 20
19.6178
 11
-7.35388
 21
19.5381
  0
LINE
  8
0
 10
-7.35388
 20
19.5381
 11
-7.43643
 21
19.461
  0
LINE
  8
0
 10
-7.43643
 20
19.461
 11
-7.52354
 21
19.3881
  0
LINE
  8
0
 10
-7.52354
 20
19.3881
 11
-7.61319
 21
19.321
  0
LINE
  8
0
 10
-7.61319
 20
19.321
 11
-7.70537
 21
19.2597
  0
LINE
  8
0
 10
-7.70537
 20
19.2597
 11
-7.80008
 21
19.2043
  0
LINE
  8
0
 10
-7.80008
 20
19.2043
 11
-7.89732
 21
19.1547
  0
LINE
  8
0
 10
-7.89732
 20
19.1547
 11
-7.99709
 21
19.1109
  0
LINE
  8
0
 10
-7.99709
 20
19.1109
 11
-8.0994
 21
19.073
  0
LINE
  8
0
 10
-8.0994
 20
19.073
 11
-8.20424
 21
19.0409
  0
LINE
  8
0
 10
-8.20424
 20
19.0409
 11
-8.31161
 21
19.0147
  0
LINE
  8
0
 10
-8.31161
 20
19.0147
 11
-8.42152
 21
18.9943
  0
LINE
  8
0
 10
-8.42152
 20
18.9943
 11
-8.53395
 21
18.9797
  0
LINE
  8
0
 10
-8.53395
 20
18.9797
 11
-8.64893
 21
18.9709
  0
LINE
  8
0
 10
-8.64893
 20
18.9709
 11
-8.76643
 21
18.968
  0
LINE
  8
0
 10
-8.76643
 20
18.968
 11
-8.88379
 21
18.9709
  0
LINE
  8
0
 10
-8.67557
 20
19.4884
 11
-8.63863
 21
19.5026
  0
LINE
  8
0
 10
-8.63863
 20
19.5026
 11
-8.60767
 21
19.5226
  0
LINE
  8
0
 10
-8.60767
 20
19.5226
 11
-8.5827
 21
19.5482
  0
LINE
  8
0
 10
-8.5827
 20
19.5482
 11
-8.56374
 21
19.5796
  0
LINE
  8
0
 10
-8.56374
 20
19.5796
 11
-8.55075
 21
19.6166
  0
LINE
  8
0
 10
-8.55075
 20
19.6166
 11
-8.54376
 21
19.6593
  0
LINE
  8
0
 10
-8.54376
 20
19.6593
 11
-8.54276
 21
21.6494
  0
LINE
  8
0
 10
-8.54276
 20
21.6494
 11
-8.54776
 21
21.6949
  0
LINE
  8
0
 10
-8.54776
 20
21.6949
 11
-8.55873
 21
21.7346
  0
LINE
  8
0
 10
-8.55873
 20
21.7346
 11
-8.57571
 21
21.7684
  0
LINE
  8
0
 10
-8.57571
 20
21.7684
 11
-8.59868
 21
21.7965
  0
LINE
  8
0
 10
-8.59868
 20
21.7965
 11
-8.62764
 21
21.8187
  0
LINE
  8
0
 10
-8.62764
 20
21.8187
 11
-8.66258
 21
21.8352
  0
LINE
  8
0
 10
-8.66258
 20
21.8352
 11
-8.70352
 21
21.8458
  0
LINE
  8
0
 10
-8.70352
 20
21.8458
 11
-8.75046
 21
21.8507
  0
LINE
  8
0
 10
-8.75046
 20
21.8507
 11
-8.81592
 21
21.8481
  0
LINE
  8
0
 10
-8.81592
 20
21.8481
 11
-8.85847
 21
21.8394
  0
LINE
  8
0
 10
-8.85847
 20
21.8394
 11
-8.8951
 21
21.8249
  0
LINE
  8
0
 10
-8.8951
 20
21.8249
 11
-8.92577
 21
21.8046
  0
LINE
  8
0
 10
-8.92577
 20
21.8046
 11
-8.95052
 21
21.7784
  0
LINE
  8
0
 10
-8.95052
 20
21.7784
 11
-8.96931
 21
21.7465
  0
LINE
  8
0
 10
-8.96931
 20
21.7465
 11
-8.98218
 21
21.7088
  0
LINE
  8
0
 10
-8.98218
 20
21.7088
 11
-8.98911
 21
21.6652
  0
LINE
  8
0
 10
-8.98911
 20
21.6652
 11
-8.99043
 21
19.691
  0
LINE
  8
0
 10
-8.99043
 20
19.691
 11
-8.98799
 21
19.6538
  0
LINE
  8
0
 10
-8.98799
 20
19.6538
 11
-8.9713
 21
19.595
  0
LINE
  8
0
 10
-8.9713
 20
19.595
 11
-8.93878
 21
19.5467
  0
LINE
  8
0
 10
-8.93878
 20
19.5467
 11
-8.88669
 21
19.5069
  0
LINE
  8
0
 10
-8.88669
 20
19.5069
 11
-8.81422
 21
19.481
  0
LINE
  8
0
 10
-8.81422
 20
19.481
 11
-8.71851
 21
19.4798
  0
LINE
  8
0
 10
-8.71851
 20
19.4798
 11
-8.67557
 21
19.4884
  0
LINE
  8
0
 10
-4.28809
 20
18.9709
 11
-4.40294
 21
18.9796
  0
LINE
  8
0
 10
-4.40294
 20
18.9796
 11
-4.51529
 21
18.9942
  0
LINE
  8
0
 10
-4.51529
 20
18.9942
 11
-4.62512
 21
19.0145
  0
LINE
  8
0
 10
-4.62512
 20
19.0145
 11
-4.73244
 21
19.0406
  0
LINE
  8
0
 10
-4.73244
 20
19.0406
 11
-4.83727
 21
19.0726
  0
LINE
  8
0
 10
-4.83727
 20
19.0726
 11
-4.93956
 21
19.1104
  0
LINE
  8
0
 10
-4.93956
 20
19.1104
 11
-5.03937
 21
19.1539
  0
LINE
  8
0
 10
-5.03937
 20
19.1539
 11
-5.13666
 21
19.2033
  0
LINE
  8
0
 10
-5.13666
 20
19.2033
 11
-5.23143
 21
19.2585
  0
LINE
  8
0
 10
-5.23143
 20
19.2585
 11
-5.32372
 21
19.3195
  0
LINE
  8
0
 10
-5.32372
 20
19.3195
 11
-5.41347
 21
19.3864
  0
LINE
  8
0
 10
-5.41347
 20
19.3864
 11
-5.50073
 21
19.459
  0
LINE
  8
0
 10
-5.50073
 20
19.459
 11
-5.58327
 21
19.5358
  0
LINE
  8
0
 10
-5.58327
 20
19.5358
 11
-5.65921
 21
19.6153
  0
LINE
  8
0
 10
-5.65921
 20
19.6153
 11
-5.72855
 21
19.6975
  0
LINE
  8
0
 10
-5.72855
 20
19.6975
 11
-5.79128
 21
19.7823
  0
LINE
  8
0
 10
-5.79128
 20
19.7823
 11
-5.84741
 21
19.8697
  0
LINE
  8
0
 10
-5.84741
 20
19.8697
 11
-5.89694
 21
19.9597
  0
LINE
  8
0
 10
-5.89694
 20
19.9597
 11
-5.93987
 21
20.0524
  0
LINE
  8
0
 10
-5.93987
 20
20.0524
 11
-5.97618
 21
20.1478
  0
LINE
  8
0
 10
-5.97618
 20
20.1478
 11
-6.00591
 21
20.2457
  0
LINE
  8
0
 10
-6.00591
 20
20.2457
 11
-6.02901
 21
20.3463
  0
LINE
  8
0
 10
-6.02901
 20
20.3463
 11
-6.04552
 21
20.4496
  0
LINE
  8
0
 10
-6.04552
 20
20.4496
 11
-6.05542
 21
20.5555
  0
LINE
  8
0
 10
-6.05542
 20
20.5555
 11
-6.05873
 21
20.664
  0
LINE
  8
0
 10
-6.05873
 20
20.664
 11
-6.05542
 21
20.7725
  0
LINE
  8
0
 10
-6.05542
 20
20.7725
 11
-6.04552
 21
20.8784
  0
LINE
  8
0
 10
-6.04552
 20
20.8784
 11
-6.02901
 21
20.9817
  0
LINE
  8
0
 10
-6.02901
 20
20.9817
 11
-6.00591
 21
21.0823
  0
LINE
  8
0
 10
-6.00591
 20
21.0823
 11
-5.97618
 21
21.1802
  0
LINE
  8
0
 10
-5.97618
 20
21.1802
 11
-5.93987
 21
21.2756
  0
LINE
  8
0
 10
-5.93987
 20
21.2756
 11
-5.89694
 21
21.3683
  0
LINE
  8
0
 10
-5.89694
 20
21.3683
 11
-5.84741
 21
21.4583
  0
LINE
  8
0
 10
-5.84741
 20
21.4583
 11
-5.79128
 21
21.5457
  0
LINE
  8
0
 10
-5.79128
 20
21.5457
 11
-5.72855
 21
21.6305
  0
LINE
  8
0
 10
-5.72855
 20
21.6305
 11
-5.65921
 21
21.7126
  0
LINE
  8
0
 10
-5.65921
 20
21.7126
 11
-5.58327
 21
21.7921
  0
LINE
  8
0
 10
-5.58327
 20
21.7921
 11
-5.50073
 21
21.869
  0
LINE
  8
0
 10
-5.50073
 20
21.869
 11
-5.41347
 21
21.9416
  0
LINE
  8
0
 10
-5.41347
 20
21.9416
 11
-5.32372
 21
22.0085
  0
LINE
  8
0
 10
-5.32372
 20
22.0085
 11
-5.23143
 21
22.0695
  0
LINE
  8
0
 10
-5.23143
 20
22.0695
 11
-5.13666
 21
22.1247
  0
LINE
  8
0
 10
-5.13666
 20
22.1247
 11
-5.03937
 21
22.1741
  0
LINE
  8
0
 10
-5.03937
 20
22.1741
 11
-4.93956
 21
22.2176
  0
LINE
  8
0
 10
-4.93956
 20
22.2176
 11
-4.83727
 21
22.2554
  0
LINE
  8
0
 10
-4.83727
 20
22.2554
 11
-4.73244
 21
22.2874
  0
LINE
  8
0
 10
-4.73244
 20
22.2874
 11
-4.62512
 21
22.3135
  0
LINE
  8
0
 10
-4.62512
 20
22.3135
 11
-4.51529
 21
22.3338
  0
LINE
  8
0
 10
-4.51529
 20
22.3338
 11
-4.40294
 21
22.3484
  0
LINE
  8
0
 10
-4.40294
 20
22.3484
 11
-4.28809
 21
22.3571
  0
LINE
  8
0
 10
-4.28809
 20
22.3571
 11
-4.17073
 21
22.36
  0
LINE
  8
0
 10
-4.17073
 20
22.36
 11
-4.05322
 21
22.3571
  0
LINE
  8
0
 10
-4.05322
 20
22.3571
 11
-3.93825
 21
22.3484
  0
LINE
  8
0
 10
-3.93825
 20
22.3484
 11
-3.82582
 21
22.3338
  0
LINE
  8
0
 10
-3.82582
 20
22.3338
 11
-3.71591
 21
22.3135
  0
LINE
  8
0
 10
-3.71591
 20
22.3135
 11
-3.60854
 21
22.2874
  0
LINE
  8
0
 10
-3.60854
 20
22.2874
 11
-3.50369
 21
22.2554
  0
LINE
  8
0
 10
-3.50369
 20
22.2554
 11
-3.40138
 21
22.2176
  0
LINE
  8
0
 10
-3.40138
 20
22.2176
 11
-3.30162
 21
22.1741
  0
LINE
  8
0
 10
-3.30162
 20
22.1741
 11
-3.20438
 21
22.1247
  0
LINE
  8
0
 10
-3.20438
 20
22.1247
 11
-3.10966
 21
22.0695
  0
LINE
  8
0
 10
-3.10966
 20
22.0695
 11
-3.01749
 21
22.0085
  0
LINE
  8
0
 10
-3.01749
 20
22.0085
 11
-2.92784
 21
21.9416
  0
LINE
  8
0
 10
-2.92784
 20
21.9416
 11
-2.84073
 21
21.869
  0
LINE
  8
0
 10
-2.84073
 20
21.869
 11
-2.75818
 21
21.7921
  0
LINE
  8
0
 10
-2.75818
 20
21.7921
 11
-2.68224
 21
21.7126
  0
LINE
  8
0
 10
-2.68224
 20
21.7126
 11
-2.6129
 21
21.6305
  0
LINE
  8
0
 10
-2.6129
 20
21.6305
 11
-2.55017
 21
21.5457
  0
LINE
  8
0
 10
-2.55017
 20
21.5457
 11
-2.49403
 21
21.4583
  0
LINE
  8
0
 10
-2.49403
 20
21.4583
 11
-2.44452
 21
21.3683
  0
LINE
  8
0
 10
-2.44452
 20
21.3683
 11
-2.4016
 21
21.2756
  0
LINE
  8
0
 10
-2.4016
 20
21.2756
 11
-2.36526
 21
21.1802
  0
LINE
  8
0
 10
-2.36526
 20
21.1802
 11
-2.33556
 21
21.0823
  0
LINE
  8
0
 10
-2.33556
 20
21.0823
 11
-2.31244
 21
20.9817
  0
LINE
  8
0
 10
-2.31244
 20
20.9817
 11
-2.29593
 21
20.8784
  0
LINE
  8
0
 10
-2.29593
 20
20.8784
 11
-2.28603
 21
20.7725
  0
LINE
  8
0
 10
-2.28603
 20
20.7725
 11
-2.28273
 21
20.664
  0
LINE
  8
0
 10
-2.28273
 20
20.664
 11
-2.28603
 21
20.556
  0
LINE
  8
0
 10
-2.28603
 20
20.556
 11
-2.29593
 21
20.4507
  0
LINE
  8
0
 10
-2.29593
 20
20.4507
 11
-2.31244
 21
20.3479
  0
LINE
  8
0
 10
-2.31244
 20
20.3479
 11
-2.33556
 21
20.2476
  0
LINE
  8
0
 10
-2.33556
 20
20.2476
 11
-2.36526
 21
20.1499
  0
LINE
  8
0
 10
-2.36526
 20
20.1499
 11
-2.4016
 21
20.0548
  0
LINE
  8
0
 10
-2.4016
 20
20.0548
 11
-2.44452
 21
19.9623
  0
LINE
  8
0
 10
-2.44452
 20
19.9623
 11
-2.49403
 21
19.8723
  0
LINE
  8
0
 10
-2.49403
 20
19.8723
 11
-2.55017
 21
19.7849
  0
LINE
  8
0
 10
-2.55017
 20
19.7849
 11
-2.6129
 21
19.7001
  0
LINE
  8
0
 10
-2.6129
 20
19.7001
 11
-2.68224
 21
19.6178
  0
LINE
  8
0
 10
-2.68224
 20
19.6178
 11
-2.75818
 21
19.5381
  0
LINE
  8
0
 10
-2.75818
 20
19.5381
 11
-2.84073
 21
19.461
  0
LINE
  8
0
 10
-2.84073
 20
19.461
 11
-2.92784
 21
19.3881
  0
LINE
  8
0
 10
-2.92784
 20
19.3881
 11
-3.01749
 21
19.321
  0
LINE
  8
0
 10
-3.01749
 20
19.321
 11
-3.10966
 21
19.2597
  0
LINE
  8
0
 10
-3.10966
 20
19.2597
 11
-3.20438
 21
19.2043
  0
LINE
  8
0
 10
-3.20438
 20
19.2043
 11
-3.30162
 21
19.1547
  0
LINE
  8
0
 10
-3.30162
 20
19.1547
 11
-3.40138
 21
19.1109
  0
LINE
  8
0
 10
-3.40138
 20
19.1109
 11
-3.50369
 21
19.073
  0
LINE
  8
0
 10
-3.50369
 20
19.073
 11
-3.60854
 21
19.0409
  0
LINE
  8
0
 10
-3.60854
 20
19.0409
 11
-3.71591
 21
19.0147
  0
LINE
  8
0
 10
-3.71591
 20
19.0147
 11
-3.82582
 21
18.9943
  0
LINE
  8
0
 10
-3.82582
 20
18.9943
 11
-3.93825
 21
18.9797
  0
LINE
  8
0
 10
-3.93825
 20
18.9797
 11
-4.05322
 21
18.9709
  0
LINE
  8
0
 10
-4.05322
 20
18.9709
 11
-4.17073
 21
18.968
  0
LINE
  8
0
 10
-4.17073
 20
18.968
 11
-4.28809
 21
18.9709
  0
LINE
  8
0
 10
-4.07986
 20
19.4884
 11
-4.04292
 21
19.5026
  0
LINE
  8
0
 10
-4.04292
 20
19.5026
 11
-4.01196
 21
19.5226
  0
LINE
  8
0
 10
-4.01196
 20
19.5226
 11
-3.987
 21
19.5482
  0
LINE
  8
0
 10
-3.987
 20
19.5482
 11
-3.96803
 21
19.5796
  0
LINE
  8
0
 10
-3.96803
 20
19.5796
 11
-3.95505
 21
19.6166
  0
LINE
  8
0
 10
-3.95505
 20
19.6166
 11
-3.94806
 21
19.6593
  0
LINE
  8
0
 10
-3.94806
 20
19.6593
 11
-3.94705
 21
21.6494
  0
LINE
  8
0
 10
-3.94705
 20
21.6494
 11
-3.95206
 21
21.6949
  0
LINE
  8
0
 10
-3.95206
 20
21.6949
 11
-3.96303
 21
21.7346
  0
LINE
  8
0
 10
-3.96303
 20
21.7346
 11
-3.98001
 21
21.7684
  0
LINE
  8
0
 10
-3.98001
 20
21.7684
 11
-4.00298
 21
21.7965
  0
LINE
  8
0
 10
-4.00298
 20
21.7965
 11
-4.03194
 21
21.8187
  0
LINE
  8
0
 10
-4.03194
 20
21.8187
 11
-4.06688
 21
21.8352
  0
LINE
  8
0
 10
-4.06688
 20
21.8352
 11
-4.10782
 21
21.8458
  0
LINE
  8
0
 10
-4.10782
 20
21.8458
 11
-4.15475
 21
21.8507
  0
LINE
  8
0
 10
-4.15475
 20
21.8507
 11
-4.22021
 21
21.8481
  0
LINE
  8
0
 10
-4.22021
 20
21.8481
 11
-4.26277
 21
21.8394
  0
LINE
  8
0
 10
-4.26277
 20
21.8394
 11
-4.29939
 21
21.8249
  0
LINE
  8
0
 10
-4.29939
 20
21.8249
 11
-4.33006
 21
21.8046
  0
LINE
  8
0
 10
-4.33006
 20
21.8046
 11
-4.35481
 21
21.7784
  0
LINE
  8
0
 10
-4.35481
 20
21.7784
 11
-4.37361
 21
21.7465
  0
LINE
  8
0
 10
-4.37361
 20
21.7465
 11
-4.38647
 21
21.7088
  0
LINE
  8
0
 10
-4.38647
 20
21.7088
 11
-4.3934
 21
21.6652
  0
LINE
  8
0
 10
-4.3934
 20
21.6652
 11
-4.39473
 21
19.691
  0
LINE
  8
0
 10
-4.39473
 20
19.691
 11
-4.39229
 21
19.6538
  0
LINE
  8
0
 10
-4.39229
 20
19.6538
 11
-4.3756
 21
19.595
  0
LINE
  8
0
 10
-4.3756
 20
19.595
 11
-4.34308
 21
19.5467
  0
LINE
  8
0
 10
-4.34308
 20
19.5467
 11
-4.29099
 21
19.5069
  0
LINE
  8
0
 10
-4.29099
 20
19.5069
 11
-4.21852
 21
19.481
  0
LINE
  8
0
 10
-4.21852
 20
19.481
 11
-4.1228
 21
19.4798
  0
LINE
  8
0
 10
-4.1228
 20
19.4798
 11
-4.07986
 21
19.4884
  0
LINE
  8
0
 10
-14.658
 20
19
 11
-15.983
 21
22.328
  0
LINE
  8
0
 10
-15.983
 20
22.328
 11
-14.229
 21
22.328
  0
LINE
  8
0
 10
-14.229
 20
22.328
 11
-13.771
 21
21.21
  0
LINE
  8
0
 10
-13.771
 20
21.21
 11
-13.287
 21
22.328
  0
LINE
  8
0
 10
-13.287
 20
22.328
 11
-12.679
 21
22.328
  0
LINE
  8
0
 10
-12.679
 20
22.328
 11
-12.162
 21
21.054
  0
LINE
  8
0
 10
-12.162
 20
21.054
 11
-11.687
 21
22.328
  0
LINE
  8
0
 10
-11.687
 20
22.328
 11
-11.154
 21
22.328
  0
LINE
  8
0
 10
-11.154
 20
22.328
 11
-12.387
 21
19
  0
LINE
  8
0
 10
-12.387
 20
19
 11
-13.233
 21
19
  0
LINE
  8
0
 10
-13.233
 20
19
 11
-13.533
 21
19.749
  0
LINE
  8
0
 10
-13.533
 20
19.749
 11
-13.812
 21
19
  0
LINE
  8
0
 10
-13.812
 20
19
 11
-14.658
 21
19
  0
LINE
  8
0
 10
-1.48328
 20
19
 11
-1.48328
 21
22.328
  0
LINE
  8
0
 10
-1.48328
 20
22.328
 11
0.335403
 21
22.3274
  0
LINE
  8
0
 10
0.335403
 20
22.3274
 11
0.46344
 21
22.3229
  0
LINE
  8
0
 10
0.46344
 20
22.3229
 11
0.587051
 21
22.3138
  0
LINE
  8
0
 10
0.587051
 20
22.3138
 11
0.706238
 21
22.3002
  0
LINE
  8
0
 10
0.706238
 20
22.3002
 11
0.820984
 21
22.282
  0
LINE
  8
0
 10
0.820984
 20
22.282
 11
0.93132
 21
22.2593
  0
LINE
  8
0
 10
0.93132
 20
22.2593
 11
1.03723
 21
22.232
  0
LINE
  8
0
 10
1.03723
 20
22.232
 11
1.1387
 21
22.2002
  0
LINE
  8
0
 10
1.1387
 20
22.2002
 11
1.23576
 21
22.1638
  0
LINE
  8
0
 10
1.23576
 20
22.1638
 11
1.32838
 21
22.1229
  0
LINE
  8
0
 10
1.32838
 20
22.1229
 11
1.41658
 21
22.0775
  0
LINE
  8
0
 10
1.41658
 20
22.0775
 11
1.50037
 21
22.0275
  0
LINE
  8
0
 10
1.50037
 20
22.0275
 11
1.57971
 21
21.973
  0
LINE
  8
0
 10
1.57971
 20
21.973
 11
1.659
 21
21.9102
  0
LINE
  8
0
 10
1.659
 20
21.9102
 11
1.73668
 21
21.839
  0
LINE
  8
0
 10
1.73668
 20
21.839
 11
1.77309
 21
21.8015
  0
LINE
  8
0
 10
1.77309
 20
21.8015
 11
1.80788
 21
21.7628
  0
LINE
  8
0
 10
1.80788
 20
21.7628
 11
1.84106
 21
21.7229
  0
LINE
  8
0
 10
1.84106
 20
21.7229
 11
1.87262
 21
21.6817
  0
LINE
  8
0
 10
1.87262
 20
21.6817
 11
1.90256
 21
21.6393
  0
LINE
  8
0
 10
1.90256
 20
21.6393
 11
1.93088
 21
21.5956
  0
LINE
  8
0
 10
1.93088
 20
21.5956
 11
1.95758
 21
21.5508
  0
LINE
  8
0
 10
1.95758
 20
21.5508
 11
2.00613
 21
21.4573
  0
LINE
  8
0
 10
2.00613
 20
21.4573
 11
2.0482
 21
21.3589
  0
LINE
  8
0
 10
2.0482
 20
21.3589
 11
2.08382
 21
21.2556
  0
LINE
  8
0
 10
2.08382
 20
21.2556
 11
2.11295
 21
21.1474
  0
LINE
  8
0
 10
2.11295
 20
21.1474
 11
2.13559
 21
21.0342
  0
LINE
  8
0
 10
2.13559
 20
21.0342
 11
2.15178
 21
20.916
  0
LINE
  8
0
 10
2.15178
 20
20.916
 11
2.16148
 21
20.793
  0
LINE
  8
0
 10
2.16148
 20
20.793
 11
2.16473
 21
20.665
  0
LINE
  8
0
 10
2.16473
 20
20.665
 11
2.16177
 21
20.5411
  0
LINE
  8
0
 10
2.16177
 20
20.5411
 11
2.15289
 21
20.4218
  0
LINE
  8
0
 10
2.15289
 20
20.4218
 11
2.13809
 21
20.307
  0
LINE
  8
0
 10
2.13809
 20
20.307
 11
2.11739
 21
20.1967
  0
LINE
  8
0
 10
2.11739
 20
20.1967
 11
2.09076
 21
20.091
  0
LINE
  8
0
 10
2.09076
 20
20.091
 11
2.05821
 21
19.9899
  0
LINE
  8
0
 10
2.05821
 20
19.9899
 11
2.01976
 21
19.8932
  0
LINE
  8
0
 10
2.01976
 20
19.8932
 11
1.97537
 21
19.8012
  0
LINE
  8
0
 10
1.97537
 20
19.8012
 11
1.92508
 21
19.7137
  0
LINE
  8
0
 10
1.92508
 20
19.7137
 11
1.86887
 21
19.6307
  0
LINE
  8
0
 10
1.86887
 20
19.6307
 11
1.80673
 21
19.5522
  0
LINE
  8
0
 10
1.80673
 20
19.5522
 11
1.73869
 21
19.4783
  0
LINE
  8
0
 10
1.73869
 20
19.4783
 11
1.66473
 21
19.409
  0
LINE
  8
0
 10
1.66473
 20
19.409
 11
1.59039
 21
19.3485
  0
LINE
  8
0
 10
1.59039
 20
19.3485
 11
1.51202
 21
19.2928
  0
LINE
  8
0
 10
1.51202
 20
19.2928
 11
1.4296
 21
19.242
  0
LINE
  8
0
 10
1.4296
 20
19.242
 11
1.34312
 21
19.196
  0
LINE
  8
0
 10
1.34312
 20
19.196
 11
1.25259
 21
19.1549
  0
LINE
  8
0
 10
1.25259
 20
19.1549
 11
1.15804
 21
19.1186
  0
LINE
  8
0
 10
1.15804
 20
19.1186
 11
1.05942
 21
19.0871
  0
LINE
  8
0
 10
1.05942
 20
19.0871
 11
0.956757
 21
19.0605
  0
LINE
  8
0
 10
0.956757
 20
19.0605
 11
0.850037
 21
19.0387
  0
LINE
  8
0
 10
0.850037
 20
19.0387
 11
0.739288
 21
19.0218
  0
LINE
  8
0
 10
0.739288
 20
19.0218
 11
0.624481
 21
19.0097
  0
LINE
  8
0
 10
0.624481
 20
19.0097
 11
0.50563
 21
19.0024
  0
LINE
  8
0
 10
0.50563
 20
19.0024
 11
0.382721
 21
19
  0
LINE
  8
0
 10
0.382721
 20
19
 11
-1.48328
 21
19
  0
LINE
  8
0
 10
0.391754
 20
19.5132
 11
0.444611
 21
19.5273
  0
LINE
  8
0
 10
0.444611
 20
19.5273
 11
0.477936
 21
19.5428
  0
LINE
  8
0
 10
0.477936
 20
19.5428
 11
0.505875
 21
19.5627
  0
LINE
  8
0
 10
0.505875
 20
19.5627
 11
0.528397
 21
19.5868
  0
LINE
  8
0
 10
0.528397
 20
19.5868
 11
0.545502
 21
19.6152
  0
LINE
  8
0
 10
0.545502
 20
19.6152
 11
0.55722
 21
19.6479
  0
LINE
  8
0
 10
0.55722
 20
19.6479
 11
0.563522
 21
19.685
  0
LINE
  8
0
 10
0.563522
 20
19.685
 11
0.564728
 21
21.616
  0
LINE
  8
0
 10
0.564728
 20
21.616
 11
0.561615
 21
21.6601
  0
LINE
  8
0
 10
0.561615
 20
21.6601
 11
0.552261
 21
21.6989
  0
LINE
  8
0
 10
0.552261
 20
21.6989
 11
0.536682
 21
21.7322
  0
LINE
  8
0
 10
0.536682
 20
21.7322
 11
0.514877
 21
21.7601
  0
LINE
  8
0
 10
0.514877
 20
21.7601
 11
0.486847
 21
21.7827
  0
LINE
  8
0
 10
0.486847
 20
21.7827
 11
0.452576
 21
21.7998
  0
LINE
  8
0
 10
0.452576
 20
21.7998
 11
0.412079
 21
21.8115
  0
LINE
  8
0
 10
0.412079
 20
21.8115
 11
0.365341
 21
21.8178
  0
LINE
  8
0
 10
0.365341
 20
21.8178
 11
0.180725
 21
21.819
  0
LINE
  8
0
 10
0.180725
 20
21.819
 11
0.180725
 21
19.509
  0
LINE
  8
0
 10
0.180725
 20
19.509
 11
0.361725
 21
19.509
  0
LINE
  8
0
 10
0.361725
 20
19.509
 11
0.391754
 21
19.5132
  0
LINE
  8
0
 10
3.22261
 20
19
 11
3.22261
 21
20.83
  0
LINE
  8
0
 10
3.22261
 20
20.83
 11
2.41061
 21
22.328
  0
LINE
  8
0
 10
2.41061
 20
22.328
 11
4.14662
 21
22.328
  0
LINE
  8
0
 10
4.14662
 20
22.328
 11
4.64662
 21
21.428
  0
LINE
  8
0
 10
4.64662
 20
21.428
 11
5.09962
 21
22.328
  0
LINE
  8
0
 10
5.09962
 20
22.328
 11
5.66162
 21
22.328
  0
LINE
  8
0
 10
5.66162
 20
22.328
 11
4.88661
 21
20.787
  0
LINE
  8
0
 10
4.88661
 20
20.787
 11
4.88661
 21
19
  0
LINE
  8
0
 10
4.88661
 20
19
 11
3.22261
 21
19
  0
LINE
  8
0
 10
6.2347
 20
19
 11
6.2347
 21
22.328
  0
LINE
  8
0
 10
6.2347
 20
22.328
 11
8.5387
 21
22.328
  0
LINE
  8
0
 10
8.5387
 20
22.328
 11
8.5387
 21
21.819
  0
LINE
  8
0
 10
8.5387
 20
21.819
 11
7.8987
 21
21.819
  0
LINE
  8
0
 10
7.8987
 20
21.819
 11
7.8987
 21
20.981
  0
LINE
  8
0
 10
7.8987
 20
20.981
 11
8.5387
 21
20.981
  0
LINE
  8
0
 10
8.5387
 20
20.981
 11
8.5387
 21
20.472
  0
LINE
  8
0
 10
8.5387
 20
20.472
 11
7.8987
 21
20.472
  0
LINE
  8
0
 10
7.8987
 20
20.472
 11
7.8987
 21
19.509
  0
LINE
  8
0
 10
7.8987
 20
19.509
 11
8.63469
 21
19.509
  0
LINE
  8
0
 10
8.63469
 20
19.509
 11
8.63469
 21
19
  0
LINE
  8
0
 10
8.63469
 20
19
 11
6.2347
 21
19
  0
LINE
  8
0
 10
9.19229
 20
19
 11
10.4123
 21
22.328
  0
LINE
  8
0
 10
10.4123
 20
22.328
 11
11.2583
 21
22.328
  0
LINE
  8
0
 10
11.2583
 20
22.328
 11
12.5713
 21
19
  0
LINE
  8
0
 10
12.5713
 20
19
 11
10.8083
 21
19
  0
LINE
  8
0
 10
10.8083
 20
19
 11
10.7173
 21
19.323
  0
LINE
  8
0
 10
10.7173
 20
19.323
 11
9.8503
 21
19.323
  0
LINE
  8
0
 10
9.8503
 20
19.323
 11
9.72128
 21
19
  0
LINE
  8
0
 10
9.72128
 20
19
 11
9.19229
 21
19
  0
LINE
  8
0
 10
10.3503
 20
20.688
 11
10.0373
 21
19.832
  0
LINE
  8
0
 10
10.0373
 20
19.832
 11
10.5793
 21
19.832
  0
LINE
  8
0
 10
10.5793
 20
19.832
 11
10.3503
 21
20.688
  0
LINE
  8
0
 10
13.3253
 20
19
 11
13.3253
 21
22.325
  0
LINE
  8
0
 10
13.3253
 20
22.325
 11
15.1943
 21
22.325
  0
LINE
  8
0
 10
15.1943
 20
22.325
 11
15.2922
 21
22.3229
  0
LINE
  8
0
 10
15.2922
 20
22.3229
 11
15.3874
 21
22.3165
  0
LINE
  8
0
 10
15.3874
 20
22.3165
 11
15.4801
 21
22.3059
  0
LINE
  8
0
 10
15.4801
 20
22.3059
 11
15.5701
 21
22.2911
  0
LINE
  8
0
 10
15.5701
 20
22.2911
 11
15.6574
 21
22.272
  0
LINE
  8
0
 10
15.6574
 20
22.272
 11
15.7421
 21
22.2487
  0
LINE
  8
0
 10
15.7421
 20
22.2487
 11
15.8242
 21
22.2212
  0
LINE
  8
0
 10
15.8242
 20
22.2212
 11
15.9037
 21
22.1894
  0
LINE
  8
0
 10
15.9037
 20
22.1894
 11
15.9805
 21
22.1534
  0
LINE
  8
0
 10
15.9805
 20
22.1534
 11
16.0546
 21
22.1132
  0
LINE
  8
0
 10
16.0546
 20
22.1132
 11
16.1261
 21
22.0687
  0
LINE
  8
0
 10
16.1261
 20
22.0687
 11
16.195
 21
22.02
  0
LINE
  8
0
 10
16.195
 20
22.02
 11
16.2613
 21
21.967
  0
LINE
  8
0
 10
16.2613
 20
21.967
 11
16.3287
 21
21.9073
  0
LINE
  8
0
 10
16.3287
 20
21.9073
 11
16.3908
 21
21.8445
  0
LINE
  8
0
 10
16.3908
 20
21.8445
 11
16.4474
 21
21.7787
  0
LINE
  8
0
 10
16.4474
 20
21.7787
 11
16.4987
 21
21.7098
  0
LINE
  8
0
 10
16.4987
 20
21.7098
 11
16.5446
 21
21.6378
  0
LINE
  8
0
 10
16.5446
 20
21.6378
 11
16.5851
 21
21.5627
  0
LINE
  8
0
 10
16.5851
 20
21.5627
 11
16.6201
 21
21.4845
  0
LINE
  8
0
 10
16.6201
 20
21.4845
 11
16.6498
 21
21.4033
  0
LINE
  8
0
 10
16.6498
 20
21.4033
 11
16.6741
 21
21.319
  0
LINE
  8
0
 10
16.6741
 20
21.319
 11
16.693
 21
21.2316
  0
LINE
  8
0
 10
16.693
 20
21.2316
 11
16.7065
 21
21.1411
  0
LINE
  8
0
 10
16.7065
 20
21.1411
 11
16.7146
 21
21.0476
  0
LINE
  8
0
 10
16.7146
 20
21.0476
 11
16.7173
 21
20.951
  0
LINE
  8
0
 10
16.7173
 20
20.951
 11
16.7147
 21
20.8564
  0
LINE
  8
0
 10
16.7147
 20
20.8564
 11
16.7069
 21
20.7647
  0
LINE
  8
0
 10
16.7069
 20
20.7647
 11
16.694
 21
20.6758
  0
LINE
  8
0
 10
16.694
 20
20.6758
 11
16.6759
 21
20.5898
  0
LINE
  8
0
 10
16.6759
 20
20.5898
 11
16.6526
 21
20.5066
  0
LINE
  8
0
 10
16.6526
 20
20.5066
 11
16.6242
 21
20.4263
  0
LINE
  8
0
 10
16.6242
 20
20.4263
 11
16.5906
 21
20.3489
  0
LINE
  8
0
 10
16.5906
 20
20.3489
 11
16.5518
 21
20.2743
  0
LINE
  8
0
 10
16.5518
 20
20.2743
 11
16.5078
 21
20.2025
  0
LINE
  8
0
 10
16.5078
 20
20.2025
 11
16.4587
 21
20.1336
  0
LINE
  8
0
 10
16.4587
 20
20.1336
 11
16.4044
 21
20.0675
  0
LINE
  8
0
 10
16.4044
 20
20.0675
 11
16.3449
 21
20.0043
  0
LINE
  8
0
 10
16.3449
 20
20.0043
 11
16.2803
 21
19.944
  0
LINE
  8
0
 10
16.2803
 20
19.944
 11
16.2633
 21
19.931
  0
LINE
  8
0
 10
16.2633
 20
19.931
 11
17.0213
 21
19
  0
LINE
  8
0
 10
17.0213
 20
19
 11
15.3993
 21
19
  0
LINE
  8
0
 10
15.3993
 20
19
 11
14.9893
 21
19.598
  0
LINE
  8
0
 10
14.9893
 20
19.598
 11
14.9893
 21
19
  0
LINE
  8
0
 10
14.9893
 20
19
 11
13.3253
 21
19
  0
LINE
  8
0
 10
15.0841
 20
20.0885
 11
15.1383
 21
20.0924
  0
LINE
  8
0
 10
15.1383
 20
20.0924
 11
15.188
 21
20.1002
  0
LINE
  8
0
 10
15.188
 20
20.1002
 11
15.2333
 21
20.1118
  0
LINE
  8
0
 10
15.2333
 20
20.1118
 11
15.2739
 21
20.1274
  0
LINE
  8
0
 10
15.2739
 20
20.1274
 11
15.3101
 21
20.1469
  0
LINE
  8
0
 10
15.3101
 20
20.1469
 11
15.3418
 21
20.1702
  0
LINE
  8
0
 10
15.3418
 20
20.1702
 11
15.3689
 21
20.1975
  0
LINE
  8
0
 10
15.3689
 20
20.1975
 11
15.3915
 21
20.2286
  0
LINE
  8
0
 10
15.3915
 20
20.2286
 11
15.4096
 21
20.2637
  0
LINE
  8
0
 10
15.4096
 20
20.2637
 11
15.4231
 21
20.3026
  0
LINE
  8
0
 10
15.4231
 20
20.3026
 11
15.4322
 21
20.3454
  0
LINE
  8
0
 10
15.4322
 20
20.3454
 11
15.4367
 21
20.3922
  0
LINE
  8
0
 10
15.4367
 20
20.3922
 11
15.4371
 21
21.4975
  0
LINE
  8
0
 10
15.4371
 20
21.4975
 11
15.4293
 21
21.5582
  0
LINE
  8
0
 10
15.4293
 20
21.5582
 11
15.4098
 21
21.6142
  0
LINE
  8
0
 10
15.4098
 20
21.6142
 11
15.3785
 21
21.6657
  0
LINE
  8
0
 10
15.3785
 20
21.6657
 11
15.3273
 21
21.72
  0
LINE
  8
0
 10
15.3273
 20
21.72
 11
15.257
 21
21.77
  0
LINE
  8
0
 10
15.257
 20
21.77
 11
15.1913
 21
21.7988
  0
LINE
  8
0
 10
15.1913
 20
21.7988
 11
15.1218
 21
21.8137
  0
LINE
  8
0
 10
15.1218
 20
21.8137
 11
14.9893
 21
21.816
  0
LINE
  8
0
 10
14.9893
 20
21.816
 11
14.9893
 21
20.088
  0
LINE
  8
0
 10
14.9893
 20
20.088
 11
15.0841
 21
20.0885
  0
LINE
  8
0
 10
-4.10985
 20
5.43222
 11
-4.20357
 21
5.44208
  0
LINE
  8
0
 10
-4.20357
 20
5.44208
 11
-4.29648
 21
5.45779
  0
LINE
  8
0
 10
-4.29648
 20
5.45779
 11
-4.38821
 21
5.47931
  0
LINE
  8
0
 10
-4.38821
 20
5.47931
 11
-4.47842
 21
5.50655
  0
LINE
  8
0
 10
-4.47842
 20
5.50655
 11
-4.56676
 21
5.53938
  0
LINE
  8
0
 10
-4.56676
 20
5.53938
 11
-4.65283
 21
5.57771
  0
LINE
  8
0
 10
-4.65283
 20
5.57771
 11
-4.73634
 21
5.62137
  0
LINE
  8
0
 10
-4.73634
 20
5.62137
 11
-4.81696
 21
5.6702
  0
LINE
  8
0
 10
-4.81696
 20
5.6702
 11
-4.89433
 21
5.72397
  0
LINE
  8
0
 10
-4.89433
 20
5.72397
 11
-4.96819
 21
5.7825
  0
LINE
  8
0
 10
-4.96819
 20
5.7825
 11
-5.03821
 21
5.84555
  0
LINE
  8
0
 10
-5.03821
 20
5.84555
 11
-5.10414
 21
5.91289
  0
LINE
  8
0
 10
-5.10414
 20
5.91289
 11
-5.16571
 21
5.98422
  0
LINE
  8
0
 10
-5.16571
 20
5.98422
 11
-5.22269
 21
6.05928
  0
LINE
  8
0
 10
-5.22269
 20
6.05928
 11
-5.27483
 21
6.13776
  0
LINE
  8
0
 10
-5.27483
 20
6.13776
 11
-5.32195
 21
6.21938
  0
LINE
  8
0
 10
-5.32195
 20
6.21938
 11
-5.36385
 21
6.30377
  0
LINE
  8
0
 10
-5.36385
 20
6.30377
 11
-5.40036
 21
6.39064
  0
LINE
  8
0
 10
-5.40036
 20
6.39064
 11
-5.43135
 21
6.47963
  0
LINE
  8
0
 10
-5.43135
 20
6.47963
 11
-5.4567
 21
6.57039
  0
LINE
  8
0
 10
-5.4567
 20
6.57039
 11
-5.47629
 21
6.66257
  0
LINE
  8
0
 10
-5.47629
 20
6.66257
 11
-5.49005
 21
6.75578
  0
LINE
  8
0
 10
-5.49005
 20
6.75578
 11
-5.49794
 21
6.84969
  0
LINE
  8
0
 10
-5.49794
 20
6.84969
 11
-5.49991
 21
6.94391
  0
LINE
  8
0
 10
-5.49991
 20
6.94391
 11
-5.49597
 21
7.03806
  0
LINE
  8
0
 10
-5.49597
 20
7.03806
 11
-5.48611
 21
7.13177
  0
LINE
  8
0
 10
-5.48611
 20
7.13177
 11
-5.4704
 21
7.22469
  0
LINE
  8
0
 10
-5.4704
 20
7.22469
 11
-5.44888
 21
7.31642
  0
LINE
  8
0
 10
-5.44888
 20
7.31642
 11
-5.42165
 21
7.40663
  0
LINE
  8
0
 10
-5.42165
 20
7.40663
 11
-5.38879
 21
7.49495
  0
LINE
  8
0
 10
-5.38879
 20
7.49495
 11
-5.35046
 21
7.58104
  0
LINE
  8
0
 10
-5.35046
 20
7.58104
 11
-5.30681
 21
7.66455
  0
LINE
  8
0
 10
-5.30681
 20
7.66455
 11
-5.258
 21
7.74515
  0
LINE
  8
0
 10
-5.258
 20
7.74515
 11
-5.20422
 21
7.82254
  0
LINE
  8
0
 10
-5.20422
 20
7.82254
 11
-5.14569
 21
7.89638
  0
LINE
  8
0
 10
-5.14569
 20
7.89638
 11
-5.08263
 21
7.96642
  0
LINE
  8
0
 10
-5.08263
 20
7.96642
 11
-5.0153
 21
8.03235
  0
LINE
  8
0
 10
-5.0153
 20
8.03235
 11
-4.94397
 21
8.09392
  0
LINE
  8
0
 10
-4.94397
 20
8.09392
 11
-4.86891
 21
8.15089
  0
LINE
  8
0
 10
-4.86891
 20
8.15089
 11
-4.79042
 21
8.20303
  0
LINE
  8
0
 10
-4.79042
 20
8.20303
 11
-4.70882
 21
8.25015
  0
LINE
  8
0
 10
-4.70882
 20
8.25015
 11
-4.62442
 21
8.29205
  0
LINE
  8
0
 10
-4.62442
 20
8.29205
 11
-4.53755
 21
8.32857
  0
LINE
  8
0
 10
-4.53755
 20
8.32857
 11
-4.44855
 21
8.35956
  0
LINE
  8
0
 10
-4.44855
 20
8.35956
 11
-4.35779
 21
8.3849
  0
LINE
  8
0
 10
-4.35779
 20
8.3849
 11
-4.26562
 21
8.4045
  0
LINE
  8
0
 10
-4.26562
 20
8.4045
 11
-4.17239
 21
8.41826
  0
LINE
  8
0
 10
-4.17239
 20
8.41826
 11
-4.07849
 21
8.42615
  0
LINE
  8
0
 10
-4.07849
 20
8.42615
 11
-3.98428
 21
8.42812
  0
LINE
  8
0
 10
-3.98428
 20
8.42812
 11
-3.89014
 21
8.42416
  0
LINE
  8
0
 10
-3.89014
 20
8.42416
 11
-3.79642
 21
8.41432
  0
LINE
  8
0
 10
-3.79642
 20
8.41432
 11
-3.70351
 21
8.39861
  0
LINE
  8
0
 10
-3.70351
 20
8.39861
 11
-3.61177
 21
8.37709
  0
LINE
  8
0
 10
-3.61177
 20
8.37709
 11
-3.52156
 21
8.34985
  0
LINE
  8
0
 10
-3.52156
 20
8.34985
 11
-3.43323
 21
8.317
  0
LINE
  8
0
 10
-3.43323
 20
8.317
 11
-3.34715
 21
8.27867
  0
LINE
  8
0
 10
-3.34715
 20
8.27867
 11
-3.26364
 21
8.23502
  0
LINE
  8
0
 10
-3.26364
 20
8.23502
 11
-3.18303
 21
8.1862
  0
LINE
  8
0
 10
-3.18303
 20
8.1862
 11
-3.10565
 21
8.13242
  0
LINE
  8
0
 10
-3.10565
 20
8.13242
 11
-3.0318
 21
8.07388
  0
LINE
  8
0
 10
-3.0318
 20
8.07388
 11
-2.96178
 21
8.01083
  0
LINE
  8
0
 10
-2.96178
 20
8.01083
 11
-2.89584
 21
7.94351
  0
LINE
  8
0
 10
-2.89584
 20
7.94351
 11
-2.83427
 21
7.87218
  0
LINE
  8
0
 10
-2.83427
 20
7.87218
 11
-2.7773
 21
7.79712
  0
LINE
  8
0
 10
-2.7773
 20
7.79712
 11
-2.72516
 21
7.71863
  0
LINE
  8
0
 10
-2.72516
 20
7.71863
 11
-2.67804
 21
7.63702
  0
LINE
  8
0
 10
-2.67804
 20
7.63702
 11
-2.63614
 21
7.55261
  0
LINE
  8
0
 10
-2.63614
 20
7.55261
 11
-2.59962
 21
7.46574
  0
LINE
  8
0
 10
-2.59962
 20
7.46574
 11
-2.56863
 21
7.37675
  0
LINE
  8
0
 10
-2.56863
 20
7.37675
 11
-2.54329
 21
7.286
  0
LINE
  8
0
 10
-2.54329
 20
7.286
 11
-2.5237
 21
7.19382
  0
LINE
  8
0
 10
-2.5237
 20
7.19382
 11
-2.50993
 21
7.1006
  0
LINE
  8
0
 10
-2.50993
 20
7.1006
 11
-2.50204
 21
7.0067
  0
LINE
  8
0
 10
-2.50204
 20
7.0067
 11
-2.50008
 21
6.91249
  0
LINE
  8
0
 10
-2.50008
 20
6.91249
 11
-2.50401
 21
6.81834
  0
LINE
  8
0
 10
-2.50401
 20
6.81834
 11
-2.51387
 21
6.72462
  0
LINE
  8
0
 10
-2.51387
 20
6.72462
 11
-2.52959
 21
6.63171
  0
LINE
  8
0
 10
-2.52959
 20
6.63171
 11
-2.5511
 21
6.53996
  0
LINE
  8
0
 10
-2.5511
 20
6.53996
 11
-2.57834
 21
6.44975
  0
LINE
  8
0
 10
-2.57834
 20
6.44975
 11
-2.61119
 21
6.36143
  0
LINE
  8
0
 10
-2.61119
 20
6.36143
 11
-2.64952
 21
6.27534
  0
LINE
  8
0
 10
-2.64952
 20
6.27534
 11
-2.69318
 21
6.19183
  0
LINE
  8
0
 10
-2.69318
 20
6.19183
 11
-2.74199
 21
6.11124
  0
LINE
  8
0
 10
-2.74199
 20
6.11124
 11
-2.79576
 21
6.03386
  0
LINE
  8
0
 10
-2.79576
 20
6.03386
 11
-2.85429
 21
5.96001
  0
LINE
  8
0
 10
-2.85429
 20
5.96001
 11
-2.91736
 21
5.88998
  0
LINE
  8
0
 10
-2.91736
 20
5.88998
 11
-2.98468
 21
5.82405
  0
LINE
  8
0
 10
-2.98468
 20
5.82405
 11
-3.05602
 21
5.76248
  0
LINE
  8
0
 10
-3.05602
 20
5.76248
 11
-3.13107
 21
5.70551
  0
LINE
  8
0
 10
-3.13107
 20
5.70551
 11
-3.20956
 21
5.65335
  0
LINE
  8
0
 10
-3.20956
 20
5.65335
 11
-3.29117
 21
5.60625
  0
LINE
  8
0
 10
-3.29117
 20
5.60625
 11
-3.37556
 21
5.56435
  0
LINE
  8
0
 10
-3.37556
 20
5.56435
 11
-3.46243
 21
5.52783
  0
LINE
  8
0
 10
-3.46243
 20
5.52783
 11
-3.55144
 21
5.49684
  0
LINE
  8
0
 10
-3.55144
 20
5.49684
 11
-3.6422
 21
5.4715
  0
LINE
  8
0
 10
-3.6422
 20
5.4715
 11
-3.73436
 21
5.4519
  0
LINE
  8
0
 10
-3.73436
 20
5.4519
 11
-3.82759
 21
5.43814
  0
LINE
  8
0
 10
-3.82759
 20
5.43814
 11
-3.92149
 21
5.43025
  0
LINE
  8
0
 10
-3.92149
 20
5.43025
 11
-4.0157
 21
5.42828
  0
LINE
  8
0
 10
-4.0157
 20
5.42828
 11
-4.10985
 21
5.43222
  0
LINE
  8
0
 10
-0.0832367
 20
-2.64868
 11
-0.166382
 21
-2.64476
  0
LINE
  8
0
 10
-0.166382
 20
-2.64476
 11
-0.249374
 21
-2.63823
  0
LINE
  8
0
 10
-0.249374
 20
-2.63823
 11
-0.332123
 21
-2.62909
  0
LINE
  8
0
 10
-0.332123
 20
-2.62909
 11
-0.414551
 21
-2.61737
  0
LINE
  8
0
 10
-0.414551
 20
-2.61737
 11
-0.496552
 21
-2.60306
  0
LINE
  8
0
 10
-0.496552
 20
-2.60306
 11
-0.578079
 21
-2.58617
  0
LINE
  8
0
 10
-0.578079
 20
-2.58617
 11
-0.659027
 21
-2.56674
  0
LINE
  8
0
 10
-0.659027
 20
-2.56674
 11
-0.739319
 21
-2.54477
  0
LINE
  8
0
 10
-0.739319
 20
-2.54477
 11
-0.818893
 21
-2.52029
  0
LINE
  8
0
 10
-0.818893
 20
-2.52029
 11
-0.897644
 21
-2.49333
  0
LINE
  8
0
 10
-0.897644
 20
-2.49333
 11
-0.975525
 21
-2.4639
  0
LINE
  8
0
 10
-0.975525
 20
-2.4639
 11
-1.05243
 21
-2.43204
  0
LINE
  8
0
 10
-1.05243
 20
-2.43204
 11
-1.12831
 21
-2.39778
  0
LINE
  8
0
 10
-1.12831
 20
-2.39778
 11
-1.20306
 21
-2.36116
  0
LINE
  8
0
 10
-1.20306
 20
-2.36116
 11
-1.27664
 21
-2.3222
  0
LINE
  8
0
 10
-1.27664
 20
-2.3222
 11
-1.34895
 21
-2.28096
  0
LINE
  8
0
 10
-1.34895
 20
-2.28096
 11
-1.41994
 21
-2.23746
  0
LINE
  8
0
 10
-1.41994
 20
-2.23746
 11
-1.48952
 21
-2.19176
  0
LINE
  8
0
 10
-1.48952
 20
-2.19176
 11
-1.55762
 21
-2.14389
  0
LINE
  8
0
 10
-1.55762
 20
-2.14389
 11
-1.62419
 21
-2.0939
  0
LINE
  8
0
 10
-1.62419
 20
-2.0939
 11
-1.68916
 21
-2.04185
  0
LINE
  8
0
 10
-1.68916
 20
-2.04185
 11
-1.75247
 21
-1.98779
  0
LINE
  8
0
 10
-1.75247
 20
-1.98779
 11
-1.79999
 21
-1.94455
  0
LINE
  8
0
 10
-1.79999
 20
-1.94455
 11
-1.79999
 21
1.94455
  0
LINE
  8
0
 10
-1.79999
 20
1.94455
 11
-1.75247
 21
1.98779
  0
LINE
  8
0
 10
-1.75247
 20
1.98779
 11
-1.68916
 21
2.04185
  0
LINE
  8
0
 10
-1.68916
 20
2.04185
 11
-1.62419
 21
2.0939
  0
LINE
  8
0
 10
-1.62419
 20
2.0939
 11
-1.55762
 21
2.14389
  0
LINE
  8
0
 10
-1.55762
 20
2.14389
 11
-1.48952
 21
2.19176
  0
LINE
  8
0
 10
-1.48952
 20
2.19176
 11
-1.41994
 21
2.23746
  0
LINE
  8
0
 10
-1.41994
 20
2.23746
 11
-1.34895
 21
2.28096
  0
LINE
  8
0
 10
-1.34895
 20
2.28096
 11
-1.27664
 21
2.3222
  0
LINE
  8
0
 10
-1.27664
 20
2.3222
 11
-1.20306
 21
2.36116
  0
LINE
  8
0
 10
-1.20306
 20
2.36116
 11
-1.12831
 21
2.39778
  0
LINE
  8
0
 10
-1.12831
 20
2.39778
 11
-1.05243
 21
2.43204
  0
LINE
  8
0
 10
-1.05243
 20
2.43204
 11
-0.975525
 21
2.4639
  0
LINE
  8
0
 10
-0.975525
 20
2.4639
 11
-0.897644
 21
2.49333
  0
LINE
  8
0
 10
-0.897644
 20
2.49333
 11
-0.818893
 21
2.52029
  0
LINE
  8
0
 10
-0.818893
 20
2.52029
 11
-0.739319
 21
2.54477
  0
LINE
  8
0
 10
-0.739319
 20
2.54477
 11
-0.659027
 21
2.56674
  0
LINE
  8
0
 10
-0.659027
 20
2.56674
 11
-0.578079
 21
2.58617
  0
LINE
  8
0
 10
-0.578079
 20
2.58617
 11
-0.496552
 21
2.60306
  0
LINE
  8
0
 10
-0.496552
 20
2.60306
 11
-0.414551
 21
2.61737
  0
LINE
  8
0
 10
-0.414551
 20
2.61737
 11
-0.332123
 21
2.62909
  0
LINE
  8
0
 10
-0.332123
 20
2.62909
 11
-0.249374
 21
2.63823
  0
LINE
  8
0
 10
-0.249374
 20
2.63823
 11
-0.166382
 21
2.64476
  0
LINE
  8
0
 10
-0.166382
 20
2.64476
 11
-0.0832367
 21
2.64868
  0
LINE
  8
0
 10
-0.0832367
 20
2.64868
 11
0
 21
2.64999
  0
LINE
  8
0
 10
0
 20
2.64999
 11
0.0832367
 21
2.64868
  0
LINE
  8
0
 10
0.0832367
 20
2.64868
 11
0.166382
 21
2.64476
  0
LINE
  8
0
 10
0.166382
 20
2.64476
 11
0.249374
 21
2.63823
  0
LINE
  8
0
 10
0.249374
 20
2.63823
 11
0.332123
 21
2.62909
  0
LINE
  8
0
 10
0.332123
 20
2.62909
 11
0.414551
 21
2.61737
  0
LINE
  8
0
 10
0.414551
 20
2.61737
 11
0.496552
 21
2.60306
  0
LINE
  8
0
 10
0.496552
 20
2.60306
 11
0.578079
 21
2.58617
  0
LINE
  8
0
 10
0.578079
 20
2.58617
 11
0.659027
 21
2.56674
  0
LINE
  8
0
 10
0.659027
 20
2.56674
 11
0.739319
 21
2.54477
  0
LINE
  8
0
 10
0.739319
 20
2.54477
 11
0.818893
 21
2.52029
  0
LINE
  8
0
 10
0.818893
 20
2.52029
 11
0.897644
 21
2.49333
  0
LINE
  8
0
 10
0.897644
 20
2.49333
 11
0.975525
 21
2.4639
  0
LINE
  8
0
 10
0.975525
 20
2.4639
 11
1.05243
 21
2.43204
  0
LINE
  8
0
 10
1.05243
 20
2.43204
 11
1.12831
 21
2.39778
  0
LINE
  8
0
 10
1.12831
 20
2.39778
 11
1.20306
 21
2.36116
  0
LINE
  8
0
 10
1.20306
 20
2.36116
 11
1.27664
 21
2.3222
  0
LINE
  8
0
 10
1.27664
 20
2.3222
 11
1.34895
 21
2.28096
  0
LINE
  8
0
 10
1.34895
 20
2.28096
 11
1.41994
 21
2.23746
  0
LINE
  8
0
 10
1.41994
 20
2.23746
 11
1.48952
 21
2.19176
  0
LINE
  8
0
 10
1.48952
 20
2.19176
 11
1.55762
 21
2.14389
  0
LINE
  8
0
 10
1.55762
 20
2.14389
 11
1.62419
 21
2.0939
  0
LINE
  8
0
 10
1.62419
 20
2.0939
 11
1.68916
 21
2.04185
  0
LINE
  8
0
 10
1.68916
 20
2.04185
 11
1.75247
 21
1.98779
  0
LINE
  8
0
 10
1.75247
 20
1.98779
 11
1.79999
 21
1.94455
  0
LINE
  8
0
 10
1.79999
 20
1.94455
 11
1.79999
 21
-1.94455
  0
LINE
  8
0
 10
1.79999
 20
-1.94455
 11
1.75247
 21
-1.98779
  0
LINE
  8
0
 10
1.75247
 20
-1.98779
 11
1.68916
 21
-2.04185
  0
LINE
  8
0
 10
1.68916
 20
-2.04185
 11
1.62419
 21
-2.0939
  0
LINE
  8
0
 10
1.62419
 20
-2.0939
 11
1.55762
 21
-2.14389
  0
LINE
  8
0
 10
1.55762
 20
-2.14389
 11
1.48952
 21
-2.19176
  0
LINE
  8
0
 10
1.48952
 20
-2.19176
 11
1.41994
 21
-2.23746
  0
LINE
  8
0
 10
1.41994
 20
-2.23746
 11
1.34895
 21
-2.28096
  0
LINE
  8
0
 10
1.34895
 20
-2.28096
 11
1.27664
 21
-2.3222
  0
LINE
  8
0
 10
1.27664
 20
-2.3222
 11
1.20306
 21
-2.36116
  0
LINE
  8
0
 10
1.20306
 20
-2.36116
 11
1.12831
 21
-2.39778
  0
LINE
  8
0
 10
1.12831
 20
-2.39778
 11
1.05243
 21
-2.43204
  0
LINE
  8
0
 10
1.05243
 20
-2.43204
 11
0.975525
 21
-2.4639
  0
LINE
  8
0
 10
0.975525
 20
-2.4639
 11
0.897644
 21
-2.49333
  0
LINE
  8
0
 10
0.897644
 20
-2.49333
 11
0.818893
 21
-2.52029
  0
LINE
  8
0
 10
0.818893
 20
-2.52029
 11
0.739319
 21
-2.54477
  0
LINE
  8
0
 10
0.739319
 20
-2.54477
 11
0.659027
 21
-2.56674
  0
LINE
  8
0
 10
0.659027
 20
-2.56674
 11
0.578079
 21
-2.58617
  0
LINE
  8
0
 10
0.578079
 20
-2.58617
 11
0.496552
 21
-2.60306
  0
LINE
  8
0
 10
0.496552
 20
-2.60306
 11
0.414551
 21
-2.61737
  0
LINE
  8
0
 10
0.414551
 20
-2.61737
 11
0.332123
 21
-2.62909
  0
LINE
  8
0
 10
0.332123
 20
-2.62909
 11
0.249374
 21
-2.63823
  0
LINE
  8
0
 10
0.249374
 20
-2.63823
 11
0.166382
 21
-2.64476
  0
LINE
  8
0
 10
0.166382
 20
-2.64476
 11
0.0832367
 21
-2.64868
  0
LINE
  8
0
 10
0.0832367
 20
-2.64868
 11
0
 21
-2.64999
  0
LINE
  8
0
 10
0
 20
-2.64999
 11
-0.0832367
 21
-2.64868
  0
LINE
  8
0
 10
7.90581
 20
-1.49704
 11
7.812
 21
-1.48816
  0
LINE
  8
0
 10
7.812
 20
-1.48816
 11
7.71892
 21
-1.47342
  0
LINE
  8
0
 10
7.71892
 20
-1.47342
 11
7.62695
 21
-1.45287
  0
LINE
  8
0
 10
7.62695
 20
-1.45287
 11
7.53647
 21
-1.42657
  0
LINE
  8
0
 10
7.53647
 20
-1.42657
 11
7.4478
 21
-1.39465
  0
LINE
  8
0
 10
7.4478
 20
-1.39465
 11
7.36133
 21
-1.35724
  0
LINE
  8
0
 10
7.36133
 20
-1.35724
 11
7.27736
 21
-1.31445
  0
LINE
  8
0
 10
7.27736
 20
-1.31445
 11
7.19626
 21
-1.26648
  0
LINE
  8
0
 10
7.19626
 20
-1.26648
 11
7.11832
 21
-1.21352
  0
LINE
  8
0
 10
7.11832
 20
-1.21352
 11
7.04385
 21
-1.15576
  0
LINE
  8
0
 10
7.04385
 20
-1.15576
 11
6.97318
 21
-1.09344
  0
LINE
  8
0
 10
6.97318
 20
-1.09344
 11
6.90654
 21
-1.02681
  0
LINE
  8
0
 10
6.90654
 20
-1.02681
 11
6.84422
 21
-0.956131
  0
LINE
  8
0
 10
6.84422
 20
-0.956131
 11
6.78647
 21
-0.881668
  0
LINE
  8
0
 10
6.78647
 20
-0.881668
 11
6.73351
 21
-0.803726
  0
LINE
  8
0
 10
6.73351
 20
-0.803726
 11
6.68553
 21
-0.722626
  0
LINE
  8
0
 10
6.68553
 20
-0.722626
 11
6.64275
 21
-0.638657
  0
LINE
  8
0
 10
6.64275
 20
-0.638657
 11
6.60533
 21
-0.552185
  0
LINE
  8
0
 10
6.60533
 20
-0.552185
 11
6.57341
 21
-0.463516
  0
LINE
  8
0
 10
6.57341
 20
-0.463516
 11
6.54712
 21
-0.373032
  0
LINE
  8
0
 10
6.54712
 20
-0.373032
 11
6.52657
 21
-0.281067
  0
LINE
  8
0
 10
6.52657
 20
-0.281067
 11
6.51183
 21
-0.187988
  0
LINE
  8
0
 10
6.51183
 20
-0.187988
 11
6.50294
 21
-0.0941772
  0
LINE
  8
0
 10
6.50294
 20
-0.0941772
 11
6.5
 21
0
  0
LINE
  8
0
 10
6.5
 20
0
 11
6.50294
 21
0.0941772
  0
LINE
  8
0
 10
6.50294
 20
0.0941772
 11
6.51183
 21
0.187988
  0
LINE
  8
0
 10
6.51183
 20
0.187988
 11
6.52657
 21
0.281067
  0
LINE
  8
0
 10
6.52657
 20
0.281067
 11
6.54712
 21
0.373032
  0
LINE
  8
0
 10
6.54712
 20
0.373032
 11
6.57341
 21
0.463516
  0
LINE
  8
0
 10
6.57341
 20
0.463516
 11
6.60533
 21
0.552185
  0
LINE
  8
0
 10
6.60533
 20
0.552185
 11
6.64275
 21
0.638657
  0
LINE
  8
0
 10
6.64275
 20
0.638657
 11
6.68553
 21
0.722626
  0
LINE
  8
0
 10
6.68553
 20
0.722626
 11
6.73351
 21
0.803726
  0
LINE
  8
0
 10
6.73351
 20
0.803726
 11
6.78647
 21
0.881668
  0
LINE
  8
0
 10
6.78647
 20
0.881668
 11
6.84422
 21
0.956131
  0
LINE
  8
0
 10
6.84422
 20
0.956131
 11
6.90654
 21
1.02681
  0
LINE
  8
0
 10
6.90654
 20
1.02681
 11
6.97318
 21
1.09344
  0
LINE
  8
0
 10
6.97318
 20
1.09344
 11
7.04385
 21
1.15576
  0
LINE
  8
0
 10
7.04385
 20
1.15576
 11
7.11832
 21
1.21352
  0
LINE
  8
0
 10
7.11832
 20
1.21352
 11
7.19626
 21
1.26648
  0
LINE
  8
0
 10
7.19626
 20
1.26648
 11
7.27736
 21
1.31445
  0
LINE
  8
0
 10
7.27736
 20
1.31445
 11
7.36133
 21
1.35724
  0
LINE
  8
0
 10
7.36133
 20
1.35724
 11
7.4478
 21
1.39465
  0
LINE
  8
0
 10
7.4478
 20
1.39465
 11
7.53647
 21
1.42657
  0
LINE
  8
0
 10
7.53647
 20
1.42657
 11
7.62695
 21
1.45287
  0
LINE
  8
0
 10
7.62695
 20
1.45287
 11
7.71892
 21
1.47342
  0
LINE
  8
0
 10
7.71892
 20
1.47342
 11
7.812
 21
1.48816
  0
LINE
  8
0
 10
7.812
 20
1.48816
 11
7.90581
 21
1.49704
  0
LINE
  8
0
 10
7.90581
 20
1.49704
 11
8
 21
1.5
  0
LINE
  8
0
 10
8
 20
1.5
 11
8.09418
 21
1.49704
  0
LINE
  8
0
 10
8.09418
 20
1.49704
 11
8.18799
 21
1.48816
  0
LINE
  8
0
 10
8.18799
 20
1.48816
 11
8.28107
 21
1.47342
  0
LINE
  8
0
 10
8.28107
 20
1.47342
 11
8.37303
 21
1.45287
  0
LINE
  8
0
 10
8.37303
 20
1.45287
 11
8.46352
 21
1.42657
  0
LINE
  8
0
 10
8.46352
 20
1.42657
 11
8.55219
 21
1.39465
  0
LINE
  8
0
 10
8.55219
 20
1.39465
 11
8.63866
 21
1.35724
  0
LINE
  8
0
 10
8.63866
 20
1.35724
 11
8.72263
 21
1.31445
  0
LINE
  8
0
 10
8.72263
 20
1.31445
 11
8.80373
 21
1.26648
  0
LINE
  8
0
 10
8.80373
 20
1.26648
 11
8.88167
 21
1.21352
  0
LINE
  8
0
 10
8.88167
 20
1.21352
 11
8.95613
 21
1.15576
  0
LINE
  8
0
 10
8.95613
 20
1.15576
 11
9.02681
 21
1.09344
  0
LINE
  8
0
 10
9.02681
 20
1.09344
 11
9.09344
 21
1.02681
  0
LINE
  8
0
 10
9.09344
 20
1.02681
 11
9.15576
 21
0.956131
  0
LINE
  8
0
 10
9.15576
 20
0.956131
 11
9.21352
 21
0.881668
  0
LINE
  8
0
 10
9.21352
 20
0.881668
 11
9.26648
 21
0.803726
  0
LINE
  8
0
 10
9.26648
 20
0.803726
 11
9.31445
 21
0.722626
  0
LINE
  8
0
 10
9.31445
 20
0.722626
 11
9.35724
 21
0.638657
  0
LINE
  8
0
 10
9.35724
 20
0.638657
 11
9.39465
 21
0.552185
  0
LINE
  8
0
 10
9.39465
 20
0.552185
 11
9.42657
 21
0.463516
  0
LINE
  8
0
 10
9.42657
 20
0.463516
 11
9.45287
 21
0.373032
  0
LINE
  8
0
 10
9.45287
 20
0.373032
 11
9.47342
 21
0.281067
  0
LINE
  8
0
 10
9.47342
 20
0.281067
 11
9.48816
 21
0.187988
  0
LINE
  8
0
 10
9.48816
 20
0.187988
 11
9.49704
 21
0.0941772
  0
LINE
  8
0
 10
9.49704
 20
0.0941772
 11
9.5
 21
0
  0
LINE
  8
0
 10
9.5
 20
0
 11
9.49704
 21
-0.0941772
  0
LINE
  8
0
 10
9.49704
 20
-0.0941772
 11
9.48816
 21
-0.187988
  0
LINE
  8
0
 10
9.48816
 20
-0.187988
 11
9.47342
 21
-0.281067
  0
LINE
  8
0
 10
9.47342
 20
-0.281067
 11
9.45287
 21
-0.373032
  0
LINE
  8
0
 10
9.45287
 20
-0.373032
 11
9.42657
 21
-0.463516
  0
LINE
  8
0
 10
9.42657
 20
-0.463516
 11
9.39465
 21
-0.552185
  0
LINE
  8
0
 10
9.39465
 20
-0.552185
 11
9.35724
 21
-0.638657
  0
LINE
  8
0
 10
9.35724
 20
-0.638657
 11
9.31445
 21
-0.722626
  0
LINE
  8
0
 10
9.31445
 20
-0.722626
 11
9.26648
 21
-0.803726
  0
LINE
  8
0
 10
9.26648
 20
-0.803726
 11
9.21352
 21
-0.881668
  0
LINE
  8
0
 10
9.21352
 20
-0.881668
 11
9.15576
 21
-0.956131
  0
LINE
  8
0
 10
9.15576
 20
-0.956131
 11
9.09344
 21
-1.02681
  0
LINE
  8
0
 10
9.09344
 20
-1.02681
 11
9.02681
 21
-1.09344
  0
LINE
  8
0
 10
9.02681
 20
-1.09344
 11
8.95613
 21
-1.15576
  0
LINE
  8
0
 10
8.95613
 20
-1.15576
 11
8.88167
 21
-1.21352
  0
LINE
  8
0
 10
8.88167
 20
-1.21352
 11
8.80373
 21
-1.26648
  0
LINE
  8
0
 10
8.80373
 20
-1.26648
 11
8.72263
 21
-1.31445
  0
LINE
  8
0
 10
8.72263
 20
-1.31445
 11
8.63866
 21
-1.35724
  0
LINE
  8
0
 10
8.63866
 20
-1.35724
 11
8.55219
 21
-1.39465
  0
LINE
  8
0
 10
8.55219
 20
-1.39465
 11
8.46352
 21
-1.42657
  0
LINE
  8
0
 10
8.46352
 20
-1.42657
 11
8.37303
 21
-1.45287
  0
LINE
  8
0
 10
8.37303
 20
-1.45287
 11
8.28107
 21
-1.47342
  0
LINE
  8
0
 10
8.28107
 20
-1.47342
 11
8.18799
 21
-1.48816
  0
LINE
  8
0
 10
8.18799
 20
-1.48816
 11
8.09418
 21
-1.49704
  0
LINE
  8
0
 10
8.09418
 20
-1.49704
 11
8
 21
-1.5
  0
LINE
  8
0
 10
8
 20
-1.5
 11
7.90581
 21
-1.49704
  0
LINE
  8
0
 10
-4.07849
 20
-8.42615
 11
-4.17239
 21
-8.41826
  0
LINE
  8
0
 10
-4.17239
 20
-8.41826
 11
-4.26562
 21
-8.4045
  0
LINE
  8
0
 10
-4.26562
 20
-8.4045
 11
-4.35779
 21
-8.3849
  0
LINE
  8
0
 10
-4.35779
 20
-8.3849
 11
-4.44855
 21
-8.35956
  0
LINE
  8
0
 10
-4.44855
 20
-8.35956
 11
-4.53755
 21
-8.32857
  0
LINE
  8
0
 10
-4.53755
 20
-8.32857
 11
-4.62442
 21
-8.29205
  0
LINE
  8
0
 10
-4.62442
 20
-8.29205
 11
-4.70882
 21
-8.25015
  0
LINE
  8
0
 10
-4.70882
 20
-8.25015
 11
-4.79042
 21
-8.20303
  0
LINE
  8
0
 10
-4.79042
 20
-8.20303
 11
-4.86891
 21
-8.15089
  0
LINE
  8
0
 10
-4.86891
 20
-8.15089
 11
-4.94397
 21
-8.09392
  0
LINE
  8
0
 10
-4.94397
 20
-8.09392
 11
-5.0153
 21
-8.03235
  0
LINE
  8
0
 10
-5.0153
 20
-8.03235
 11
-5.08263
 21
-7.96642
  0
LINE
  8
0
 10
-5.08263
 20
-7.96642
 11
-5.14569
 21
-7.89638
  0
LINE
  8
0
 10
-5.14569
 20
-7.89638
 11
-5.20422
 21
-7.82254
  0
LINE
  8
0
 10
-5.20422
 20
-7.82254
 11
-5.258
 21
-7.74515
  0
LINE
  8
0
 10
-5.258
 20
-7.74515
 11
-5.30681
 21
-7.66455
  0
LINE
  8
0
 10
-5.30681
 20
-7.66455
 11
-5.35046
 21
-7.58104
  0
LINE
  8
0
 10
-5.35046
 20
-7.58104
 11
-5.38879
 21
-7.49495
  0
LINE
  8
0
 10
-5.38879
 20
-7.49495
 11
-5.42165
 21
-7.40663
  0
LINE
  8
0
 10
-5.42165
 20
-7.40663
 11
-5.44888
 21
-7.31642
  0
LINE
  8
0
 10
-5.44888
 20
-7.31642
 11
-5.4704
 21
-7.22469
  0
LINE
  8
0
 10
-5.4704
 20
-7.22469
 11
-5.48611
 21
-7.13177
  0
LINE
  8
0
 10
-5.48611
 20
-7.13177
 11
-5.49597
 21
-7.03806
  0
LINE
  8
0
 10
-5.49597
 20
-7.03806
 11
-5.49991
 21
-6.94391
  0
LINE
  8
0
 10
-5.49991
 20
-6.94391
 11
-5.49794
 21
-6.84969
  0
LINE
  8
0
 10
-5.49794
 20
-6.84969
 11
-5.49005
 21
-6.75578
  0
LINE
  8
0
 10
-5.49005
 20
-6.75578
 11
-5.47629
 21
-6.66257
  0
LINE
  8
0
 10
-5.47629
 20
-6.66257
 11
-5.4567
 21
-6.57039
  0
LINE
  8
0
 10
-5.4567
 20
-6.57039
 11
-5.43135
 21
-6.47963
  0
LINE
  8
0
 10
-5.43135
 20
-6.47963
 11
-5.40036
 21
-6.39064
  0
LINE
  8
0
 10
-5.40036
 20
-6.39064
 11
-5.36385
 21
-6.30377
  0
LINE
  8
0
 10
-5.36385
 20
-6.30377
 11
-5.32195
 21
-6.21938
  0
LINE
  8
0
 10
-5.32195
 20
-6.21938
 11
-5.27483
 21
-6.13776
  0
LINE
  8
0
 10
-5.27483
 20
-6.13776
 11
-5.22269
 21
-6.05928
  0
LINE
  8
0
 10
-5.22269
 20
-6.05928
 11
-5.16571
 21
-5.98422
  0
LINE
  8
0
 10
-5.16571
 20
-5.98422
 11
-5.10414
 21
-5.91289
  0
LINE
  8
0
 10
-5.10414
 20
-5.91289
 11
-5.03821
 21
-5.84555
  0
LINE
  8
0
 10
-5.03821
 20
-5.84555
 11
-4.96819
 21
-5.7825
  0
LINE
  8
0
 10
-4.96819
 20
-5.7825
 11
-4.89433
 21
-5.72397
  0
LINE
  8
0
 10
-4.89433
 20
-5.72397
 11
-4.81696
 21
-5.6702
  0
LINE
  8
0
 10
-4.81696
 20
-5.6702
 11
-4.73634
 21
-5.62137
  0
LINE
  8
0
 10
-4.73634
 20
-5.62137
 11
-4.65283
 21
-5.57771
  0
LINE
  8
0
 10
-4.65283
 20
-5.57771
 11
-4.56676
 21
-5.53938
  0
LINE
  8
0
 10
-4.56676
 20
-5.53938
 11
-4.47842
 21
-5.50655
  0
LINE
  8
0
 10
-4.47842
 20
-5.50655
 11
-4.38821
 21
-5.47931
  0
LINE
  8
0
 10
-4.38821
 20
-5.47931
 11
-4.29648
 21
-5.45779
  0
LINE
  8
0
 10
-4.29648
 20
-5.45779
 11
-4.20357
 21
-5.44208
  0
LINE
  8
0
 10
-4.20357
 20
-5.44208
 11
-4.10985
 21
-5.43222
  0
LINE
  8
0
 10
-4.10985
 20
-5.43222
 11
-4.0157
 21
-5.42828
  0
LINE
  8
0
 10
-4.0157
 20
-5.42828
 11
-3.92149
 21
-5.43025
  0
LINE
  8
0
 10
-3.92149
 20
-5.43025
 11
-3.82759
 21
-5.43814
  0
LINE
  8
0
 10
-3.82759
 20
-5.43814
 11
-3.73436
 21
-5.4519
  0
LINE
  8
0
 10
-3.73436
 20
-5.4519
 11
-3.6422
 21
-5.4715
  0
LINE
  8
0
 10
-3.6422
 20
-5.4715
 11
-3.55144
 21
-5.49684
  0
LINE
  8
0
 10
-3.55144
 20
-5.49684
 11
-3.46243
 21
-5.52783
  0
LINE
  8
0
 10
-3.46243
 20
-5.52783
 11
-3.37556
 21
-5.56435
  0
LINE
  8
0
 10
-3.37556
 20
-5.56435
 11
-3.29117
 21
-5.60625
  0
LINE
  8
0
 10
-3.29117
 20
-5.60625
 11
-3.20956
 21
-5.65335
  0
LINE
  8
0
 10
-3.20956
 20
-5.65335
 11
-3.13107
 21
-5.70551
  0
LINE
  8
0
 10
-3.13107
 20
-5.70551
 11
-3.05602
 21
-5.76248
  0
LINE
  8
0
 10
-3.05602
 20
-5.76248
 11
-2.98468
 21
-5.82405
  0
LINE
  8
0
 10
-2.98468
 20
-5.82405
 11
-2.91736
 21
-5.88998
  0
LINE
  8
0
 10
-2.91736
 20
-5.88998
 11
-2.85429
 21
-5.96001
  0
LINE
  8
0
 10
-2.85429
 20
-5.96001
 11
-2.79576
 21
-6.03386
  0
LINE
  8
0
 10
-2.79576
 20
-6.03386
 11
-2.74199
 21
-6.11124
  0
LINE
  8
0
 10
-2.74199
 20
-6.11124
 11
-2.69318
 21
-6.19183
  0
LINE
  8
0
 10
-2.69318
 20
-6.19183
 11
-2.64952
 21
-6.27534
  0
LINE
  8
0
 10
-2.64952
 20
-6.27534
 11
-2.61119
 21
-6.36143
  0
LINE
  8
0
 10
-2.61119
 20
-6.36143
 11
-2.57834
 21
-6.44975
  0
LINE
  8
0
 10
-2.57834
 20
-6.44975
 11
-2.5511
 21
-6.53996
  0
LINE
  8
0
 10
-2.5511
 20
-6.53996
 11
-2.52959
 21
-6.63171
  0
LINE
  8
0
 10
-2.52959
 20
-6.63171
 11
-2.51387
 21
-6.72462
  0
LINE
  8
0
 10
-2.51387
 20
-6.72462
 11
-2.50401
 21
-6.81834
  0
LINE
  8
0
 10
-2.50401
 20
-6.81834
 11
-2.50008
 21
-6.91249
  0
LINE
  8
0
 10
-2.50008
 20
-6.91249
 11
-2.50204
 21
-7.0067
  0
LINE
  8
0
 10
-2.50204
 20
-7.0067
 11
-2.50993
 21
-7.1006
  0
LINE
  8
0
 10
-2.50993
 20
-7.1006
 11
-2.5237
 21
-7.19382
  0
LINE
  8
0
 10
-2.5237
 20
-7.19382
 11
-2.54329
 21
-7.286
  0
LINE
  8
0
 10
-2.54329
 20
-7.286
 11
-2.56863
 21
-7.37675
  0
LINE
  8
0
 10
-2.56863
 20
-7.37675
 11
-2.59962
 21
-7.46574
  0
LINE
  8
0
 10
-2.59962
 20
-7.46574
 11
-2.63614
 21
-7.55261
  0
LINE
  8
0
 10
-2.63614
 20
-7.55261
 11
-2.67804
 21
-7.63702
  0
LINE
  8
0
 10
-2.67804
 20
-7.63702
 11
-2.72516
 21
-7.71863
  0
LINE
  8
0
 10
-2.72516
 20
-7.71863
 11
-2.7773
 21
-7.79712
  0
LINE
  8
0
 10
-2.7773
 20
-7.79712
 11
-2.83427
 21
-7.87218
  0
LINE
  8
0
 10
-2.83427
 20
-7.87218
 11
-2.89584
 21
-7.94351
  0
LINE
  8
0
 10
-2.89584
 20
-7.94351
 11
-2.96178
 21
-8.01083
  0
LINE
  8
0
 10
-2.96178
 20
-8.01083
 11
-3.0318
 21
-8.07388
  0
LINE
  8
0
 10
-3.0318
 20
-8.07388
 11
-3.10565
 21
-8.13242
  0
LINE
  8
0
 10
-3.10565
 20
-8.13242
 11
-3.18303
 21
-8.1862
  0
LINE
  8
0
 10
-3.18303
 20
-8.1862
 11
-3.26364
 21
-8.23502
  0
LINE
  8
0
 10
-3.26364
 20
-8.23502
 11
-3.34715
 21
-8.27867
  0
LINE
  8
0
 10
-3.34715
 20
-8.27867
 11
-3.43323
 21
-8.317
  0
LINE
  8
0
 10
-3.43323
 20
-8.317
 11
-3.52156
 21
-8.34985
  0
LINE
  8
0
 10
-3.52156
 20
-8.34985
 11
-3.61177
 21
-8.37709
  0
LINE
  8
0
 10
-3.61177
 20
-8.37709
 11
-3.70351
 21
-8.39861
  0
LINE
  8
0
 10
-3.70351
 20
-8.39861
 11
-3.79642
 21
-8.41432
  0
LINE
  8
0
 10
-3.79642
 20
-8.41432
 11
-3.89014
 21
-8.42416
  0
LINE
  8
0
 10
-3.89014
 20
-8.42416
 11
-3.98428
 21
-8.42812
  0
LINE
  8
0
 10
-3.98428
 20
-8.42812
 11
-4.07849
 21
-8.42615
  0
LINE
  8
0
 10
8.64891
 20
-22.3571
 11
8.53394
 21
-22.3484
  0
LINE
  8
0
 10
8.53394
 20
-22.3484
 11
8.42151
 21
-22.3338
  0
LINE
  8
0
 10
8.42151
 20
-22.3338
 11
8.3116
 21
-22.3135
  0
LINE
  8
0
 10
8.3116
 20
-22.3135
 11
8.20422
 21
-22.2874
  0
LINE
  8
0
 10
8.20422
 20
-22.2874
 11
8.09938
 21
-22.2554
  0
LINE
  8
0
 10
8.09938
 20
-22.2554
 11
7.99707
 21
-22.2176
  0
LINE
  8
0
 10
7.99707
 20
-22.2176
 11
7.89731
 21
-22.1741
  0
LINE
  8
0
 10
7.89731
 20
-22.1741
 11
7.80006
 21
-22.1247
  0
LINE
  8
0
 10
7.80006
 20
-22.1247
 11
7.70535
 21
-22.0695
  0
LINE
  8
0
 10
7.70535
 20
-22.0695
 11
7.61317
 21
-22.0085
  0
LINE
  8
0
 10
7.61317
 20
-22.0085
 11
7.52353
 21
-21.9416
  0
LINE
  8
0
 10
7.52353
 20
-21.9416
 11
7.43642
 21
-21.869
  0
LINE
  8
0
 10
7.43642
 20
-21.869
 11
7.35387
 21
-21.7921
  0
LINE
  8
0
 10
7.35387
 20
-21.7921
 11
7.27792
 21
-21.7126
  0
LINE
  8
0
 10
7.27792
 20
-21.7126
 11
7.20859
 21
-21.6305
  0
LINE
  8
0
 10
7.20859
 20
-21.6305
 11
7.14586
 21
-21.5457
  0
LINE
  8
0
 10
7.14586
 20
-21.5457
 11
7.08972
 21
-21.4583
  0
LINE
  8
0
 10
7.08972
 20
-21.4583
 11
7.04021
 21
-21.3683
  0
LINE
  8
0
 10
7.04021
 20
-21.3683
 11
6.99728
 21
-21.2756
  0
LINE
  8
0
 10
6.99728
 20
-21.2756
 11
6.96095
 21
-21.1802
  0
LINE
  8
0
 10
6.96095
 20
-21.1802
 11
6.93124
 21
-21.0823
  0
LINE
  8
0
 10
6.93124
 20
-21.0823
 11
6.90813
 21
-20.9817
  0
LINE
  8
0
 10
6.90813
 20
-20.9817
 11
6.89162
 21
-20.8784
  0
LINE
  8
0
 10
6.89162
 20
-20.8784
 11
6.88171
 21
-20.7725
  0
LINE
  8
0
 10
6.88171
 20
-20.7725
 11
6.87842
 21
-20.664
  0
LINE
  8
0
 10
6.87842
 20
-20.664
 11
6.88171
 21
-20.556
  0
LINE
  8
0
 10
6.88171
 20
-20.556
 11
6.89162
 21
-20.4507
  0
LINE
  8
0
 10
6.89162
 20
-20.4507
 11
6.90813
 21
-20.3479
  0
LINE
  8
0
 10
6.90813
 20
-20.3479
 11
6.93124
 21
-20.2476
  0
LINE
  8
0
 10
6.93124
 20
-20.2476
 11
6.96095
 21
-20.1499
  0
LINE
  8
0
 10
6.96095
 20
-20.1499
 11
6.99728
 21
-20.0548
  0
LINE
  8
0
 10
6.99728
 20
-20.0548
 11
7.04021
 21
-19.9623
  0
LINE
  8
0
 10
7.04021
 20
-19.9623
 11
7.08972
 21
-19.8723
  0
LINE
  8
0
 10
7.08972
 20
-19.8723
 11
7.14586
 21
-19.7849
  0
LINE
  8
0
 10
7.14586
 20
-19.7849
 11
7.20859
 21
-19.7001
  0
LINE
  8
0
 10
7.20859
 20
-19.7001
 11
7.27792
 21
-19.6178
  0
LINE
  8
0
 10
7.27792
 20
-19.6178
 11
7.35387
 21
-19.5381
  0
LINE
  8
0
 10
7.35387
 20
-19.5381
 11
7.43642
 21
-19.461
  0
LINE
  8
0
 10
7.43642
 20
-19.461
 11
7.52353
 21
-19.3881
  0
LINE
  8
0
 10
7.52353
 20
-19.3881
 11
7.61317
 21
-19.321
  0
LINE
  8
0
 10
7.61317
 20
-19.321
 11
7.70535
 21
-19.2597
  0
LINE
  8
0
 10
7.70535
 20
-19.2597
 11
7.80006
 21
-19.2043
  0
LINE
  8
0
 10
7.80006
 20
-19.2043
 11
7.89731
 21
-19.1547
  0
LINE
  8
0
 10
7.89731
 20
-19.1547
 11
7.99707
 21
-19.1109
  0
LINE
  8
0
 10
7.99707
 20
-19.1109
 11
8.09938
 21
-19.073
  0
LINE
  8
0
 10
8.09938
 20
-19.073
 11
8.20422
 21
-19.0409
  0
LINE
  8
0
 10
8.20422
 20
-19.0409
 11
8.3116
 21
-19.0147
  0
LINE
  8
0
 10
8.3116
 20
-19.0147
 11
8.42151
 21
-18.9943
  0
LINE
  8
0
 10
8.42151
 20
-18.9943
 11
8.53394
 21
-18.9797
  0
LINE
  8
0
 10
8.53394
 20
-18.9797
 11
8.64891
 21
-18.9709
  0
LINE
  8
0
 10
8.64891
 20
-18.9709
 11
8.76642
 21
-18.968
  0
LINE
  8
0
 10
8.76642
 20
-18.968
 11
8.88377
 21
-18.9709
  0
LINE
  8
0
 10
8.88377
 20
-18.9709
 11
8.99863
 21
-18.9796
  0
LINE
  8
0
 10
8.99863
 20
-18.9796
 11
9.11098
 21
-18.9942
  0
LINE
  8
0
 10
9.11098
 20
-18.9942
 11
9.22081
 21
-19.0145
  0
LINE
  8
0
 10
9.22081
 20
-19.0145
 11
9.32812
 21
-19.0406
  0
LINE
  8
0
 10
9.32812
 20
-19.0406
 11
9.43295
 21
-19.0726
  0
LINE
  8
0
 10
9.43295
 20
-19.0726
 11
9.53525
 21
-19.1104
  0
LINE
  8
0
 10
9.53525
 20
-19.1104
 11
9.63506
 21
-19.1539
  0
LINE
  8
0
 10
9.63506
 20
-19.1539
 11
9.73235
 21
-19.2033
  0
LINE
  8
0
 10
9.73235
 20
-19.2033
 11
9.82712
 21
-19.2585
  0
LINE
  8
0
 10
9.82712
 20
-19.2585
 11
9.9194
 21
-19.3195
  0
LINE
  8
0
 10
9.9194
 20
-19.3195
 11
10.0092
 21
-19.3864
  0
LINE
  8
0
 10
10.0092
 20
-19.3864
 11
10.0964
 21
-19.459
  0
LINE
  8
0
 10
10.0964
 20
-19.459
 11
10.179
 21
-19.5358
  0
LINE
  8
0
 10
10.179
 20
-19.5358
 11
10.2549
 21
-19.6153
  0
LINE
  8
0
 10
10.2549
 20
-19.6153
 11
10.3242
 21
-19.6975
  0
LINE
  8
0
 10
10.3242
 20
-19.6975
 11
10.387
 21
-19.7823
  0
LINE
  8
0
 10
10.387
 20
-19.7823
 11
10.4431
 21
-19.8697
  0
LINE
  8
0
 10
10.4431
 20
-19.8697
 11
10.4926
 21
-19.9597
  0
LINE
  8
0
 10
10.4926
 20
-19.9597
 11
10.5356
 21
-20.0524
  0
LINE
  8
0
 10
10.5356
 20
-20.0524
 11
10.5719
 21
-20.1478
  0
LINE
  8
0
 10
10.5719
 20
-20.1478
 11
10.6016
 21
-20.2457
  0
LINE
  8
0
 10
10.6016
 20
-20.2457
 11
10.6247
 21
-20.3463
  0
LINE
  8
0
 10
10.6247
 20
-20.3463
 11
10.6412
 21
-20.4496
  0
LINE
  8
0
 10
10.6412
 20
-20.4496
 11
10.6511
 21
-20.5555
  0
LINE
  8
0
 10
10.6511
 20
-20.5555
 11
10.6544
 21
-20.664
  0
LINE
  8
0
 10
10.6544
 20
-20.664
 11
10.6511
 21
-20.7725
  0
LINE
  8
0
 10
10.6511
 20
-20.7725
 11
10.6412
 21
-20.8784
  0
LINE
  8
0
 10
10.6412
 20
-20.8784
 11
10.6247
 21
-20.9817
  0
LINE
  8
0
 10
10.6247
 20
-20.9817
 11
10.6016
 21
-21.0823
  0
LINE
  8
0
 10
10.6016
 20
-21.0823
 11
10.5719
 21
-21.1802
  0
LINE
  8
0
 10
10.5719
 20
-21.1802
 11
10.5356
 21
-21.2756
  0
LINE
  8
0
 10
10.5356
 20
-21.2756
 11
10.4926
 21
-21.3683
  0
LINE
  8
0
 10
10.4926
 20
-21.3683
 11
10.4431
 21
-21.4583
  0
LINE
  8
0
 10
10.4431
 20
-21.4583
 11
10.387
 21
-21.5457
  0
LINE
  8
0
 10
10.387
 20
-21.5457
 11
10.3242
 21
-21.6305
  0
LINE
  8
0
 10
10.3242
 20
-21.6305
 11
10.2549
 21
-21.7126
  0
LINE
  8
0
 10
10.2549
 20
-21.7126
 11
10.179
 21
-21.7921
  0
LINE
  8
0
 10
10.179
 20
-21.7921
 11
10.0964
 21
-21.869
  0
LINE
  8
0
 10
10.0964
 20
-21.869
 11
10.0092
 21
-21.9416
  0
LINE
  8
0
 10
10.0092
 20
-21.9416
 11
9.9194
 21
-22.0085
  0
LINE
  8
0
 10
9.9194
 20
-22.0085
 11
9.82712
 21
-22.0695
  0
LINE
  8
0
 10
9.82712
 20
-22.0695
 11
9.73235
 21
-22.1247
  0
LINE
  8
0
 10
9.73235
 20
-22.1247
 11
9.63506
 21
-22.1741
  0
LINE
  8
0
 10
9.63506
 20
-22.1741
 11
9.53525
 21
-22.2176
  0
LINE
  8
0
 10
9.53525
 20
-22.2176
 11
9.43295
 21
-22.2554
  0
LINE
  8
0
 10
9.43295
 20
-22.2554
 11
9.32812
 21
-22.2874
  0
LINE
  8
0
 10
9.32812
 20
-22.2874
 11
9.22081
 21
-22.3135
  0
LINE
  8
0
 10
9.22081
 20
-22.3135
 11
9.11098
 21
-22.3338
  0
LINE
  8
0
 10
9.11098
 20
-22.3338
 11
8.99863
 21
-22.3484
  0
LINE
  8
0
 10
8.99863
 20
-22.3484
 11
8.88377
 21
-22.3571
  0
LINE
  8
0
 10
8.88377
 20
-22.3571
 11
8.76642
 21
-22.36
  0
LINE
  8
0
 10
8.76642
 20
-22.36
 11
8.64891
 21
-22.3571
  0
LINE
  8
0
 10
8.8159
 20
-21.8481
 11
8.85846
 21
-21.8394
  0
LINE
  8
0
 10
8.85846
 20
-21.8394
 11
8.89508
 21
-21.8249
  0
LINE
  8
0
 10
8.89508
 20
-21.8249
 11
8.92575
 21
-21.8046
  0
LINE
  8
0
 10
8.92575
 20
-21.8046
 11
8.9505
 21
-21.7784
  0
LINE
  8
0
 10
8.9505
 20
-21.7784
 11
8.9693
 21
-21.7465
  0
LINE
  8
0
 10
8.9693
 20
-21.7465
 11
8.98216
 21
-21.7088
  0
LINE
  8
0
 10
8.98216
 20
-21.7088
 11
8.98909
 21
-21.6652
  0
LINE
  8
0
 10
8.98909
 20
-21.6652
 11
8.99042
 21
-19.691
  0
LINE
  8
0
 10
8.99042
 20
-19.691
 11
8.98798
 21
-19.6538
  0
LINE
  8
0
 10
8.98798
 20
-19.6538
 11
8.97128
 21
-19.595
  0
LINE
  8
0
 10
8.97128
 20
-19.595
 11
8.93877
 21
-19.5467
  0
LINE
  8
0
 10
8.93877
 20
-19.5467
 11
8.88667
 21
-19.5069
  0
LINE
  8
0
 10
8.88667
 20
-19.5069
 11
8.81421
 21
-19.481
  0
LINE
  8
0
 10
8.81421
 20
-19.481
 11
8.71849
 21
-19.4798
  0
LINE
  8
0
 10
8.71849
 20
-19.4798
 11
8.67555
 21
-19.4884
  0
LINE
  8
0
 10
8.67555
 20
-19.4884
 11
8.63861
 21
-19.5026
  0
LINE
  8
0
 10
8.63861
 20
-19.5026
 11
8.60765
 21
-19.5226
  0
LINE
  8
0
 10
8.60765
 20
-19.5226
 11
8.58269
 21
-19.5482
  0
LINE
  8
0
 10
8.58269
 20
-19.5482
 11
8.56372
 21
-19.5796
  0
LINE
  8
0
 10
8.56372
 20
-19.5796
 11
8.55074
 21
-19.6166
  0
LINE
  8
0
 10
8.55074
 20
-19.6166
 11
8.54375
 21
-19.6593
  0
LINE
  8
0
 10
8.54375
 20
-19.6593
 11
8.54274
 21
-21.6494
  0
LINE
  8
0
 10
8.54274
 20
-21.6494
 11
8.54774
 21
-21.6949
  0
LINE
  8
0
 10
8.54774
 20
-21.6949
 11
8.55872
 21
-21.7346
  0
LINE
  8
0
 10
8.55872
 20
-21.7346
 11
8.5757
 21
-21.7684
  0
LINE
  8
0
 10
8.5757
 20
-21.7684
 11
8.59866
 21
-21.7965
  0
LINE
  8
0
 10
8.59866
 20
-21.7965
 11
8.62762
 21
-21.8187
  0
LINE
  8
0
 10
8.62762
 20
-21.8187
 11
8.66257
 21
-21.8352
  0
LINE
  8
0
 10
8.66257
 20
-21.8352
 11
8.70351
 21
-21.8458
  0
LINE
  8
0
 10
8.70351
 20
-21.8458
 11
8.75044
 21
-21.8507
  0
LINE
  8
0
 10
8.75044
 20
-21.8507
 11
8.8159
 21
-21.8481
  0
LINE
  8
0
 10
4.05321
 20
-22.3571
 11
3.93823
 21
-22.3484
  0
LINE
  8
0
 10
3.93823
 20
-22.3484
 11
3.82581
 21
-22.3338
  0
LINE
  8
0
 10
3.82581
 20
-22.3338
 11
3.7159
 21
-22.3135
  0
LINE
  8
0
 10
3.7159
 20
-22.3135
 11
3.60852
 21
-22.2874
  0
LINE
  8
0
 10
3.60852
 20
-22.2874
 11
3.50368
 21
-22.2554
  0
LINE
  8
0
 10
3.50368
 20
-22.2554
 11
3.40137
 21
-22.2176
  0
LINE
  8
0
 10
3.40137
 20
-22.2176
 11
3.30161
 21
-22.1741
  0
LINE
  8
0
 10
3.30161
 20
-22.1741
 11
3.20436
 21
-22.1247
  0
LINE
  8
0
 10
3.20436
 20
-22.1247
 11
3.10965
 21
-22.0695
  0
LINE
  8
0
 10
3.10965
 20
-22.0695
 11
3.01747
 21
-22.0085
  0
LINE
  8
0
 10
3.01747
 20
-22.0085
 11
2.92783
 21
-21.9416
  0
LINE
  8
0
 10
2.92783
 20
-21.9416
 11
2.84071
 21
-21.869
  0
LINE
  8
0
 10
2.84071
 20
-21.869
 11
2.75816
 21
-21.7921
  0
LINE
  8
0
 10
2.75816
 20
-21.7921
 11
2.68222
 21
-21.7126
  0
LINE
  8
0
 10
2.68222
 20
-21.7126
 11
2.61288
 21
-21.6305
  0
LINE
  8
0
 10
2.61288
 20
-21.6305
 11
2.55016
 21
-21.5457
  0
LINE
  8
0
 10
2.55016
 20
-21.5457
 11
2.49402
 21
-21.4583
  0
LINE
  8
0
 10
2.49402
 20
-21.4583
 11
2.4445
 21
-21.3683
  0
LINE
  8
0
 10
2.4445
 20
-21.3683
 11
2.40158
 21
-21.2756
  0
LINE
  8
0
 10
2.40158
 20
-21.2756
 11
2.36525
 21
-21.1802
  0
LINE
  8
0
 10
2.36525
 20
-21.1802
 11
2.33554
 21
-21.0823
  0
LINE
  8
0
 10
2.33554
 20
-21.0823
 11
2.31242
 21
-20.9817
  0
LINE
  8
0
 10
2.31242
 20
-20.9817
 11
2.29591
 21
-20.8784
  0
LINE
  8
0
 10
2.29591
 20
-20.8784
 11
2.28601
 21
-20.7725
  0
LINE
  8
0
 10
2.28601
 20
-20.7725
 11
2.28271
 21
-20.664
  0
LINE
  8
0
 10
2.28271
 20
-20.664
 11
2.28601
 21
-20.556
  0
LINE
  8
0
 10
2.28601
 20
-20.556
 11
2.29591
 21
-20.4507
  0
LINE
  8
0
 10
2.29591
 20
-20.4507
 11
2.31242
 21
-20.3479
  0
LINE
  8
0
 10
2.31242
 20
-20.3479
 11
2.33554
 21
-20.2476
  0
LINE
  8
0
 10
2.33554
 20
-20.2476
 11
2.36525
 21
-20.1499
  0
LINE
  8
0
 10
2.36525
 20
-20.1499
 11
2.40158
 21
-20.0548
  0
LINE
  8
0
 10
2.40158
 20
-20.0548
 11
2.4445
 21
-19.9623
  0
LINE
  8
0
 10
2.4445
 20
-19.9623
 11
2.49402
 21
-19.8723
  0
LINE
  8
0
 10
2.49402
 20
-19.8723
 11
2.55016
 21
-19.7849
  0
LINE
  8
0
 10
2.55016
 20
-19.7849
 11
2.61288
 21
-19.7001
  0
LINE
  8
0
 10
2.61288
 20
-19.7001
 11
2.68222
 21
-19.6178
  0
LINE
  8
0
 10
2.68222
 20
-19.6178
 11
2.75816
 21
-19.5381
  0
LINE
  8
0
 10
2.75816
 20
-19.5381
 11
2.84071
 21
-19.461
  0
LINE
  8
0
 10
2.84071
 20
-19.461
 11
2.92783
 21
-19.3881
  0
LINE
  8
0
 10
2.92783
 20
-19.3881
 11
3.01747
 21
-19.321
  0
LINE
  8
0
 10
3.01747
 20
-19.321
 11
3.10965
 21
-19.2597
  0
LINE
  8
0
 10
3.10965
 20
-19.2597
 11
3.20436
 21
-19.2043
  0
LINE
  8
0
 10
3.20436
 20
-19.2043
 11
3.30161
 21
-19.1547
  0
LINE
  8
0
 10
3.30161
 20
-19.1547
 11
3.40137
 21
-19.1109
  0
LINE
  8
0
 10
3.40137
 20
-19.1109
 11
3.50368
 21
-19.073
  0
LINE
  8
0
 10
3.50368
 20
-19.073
 11
3.60852
 21
-19.0409
  0
LINE
  8
0
 10
3.60852
 20
-19.0409
 11
3.7159
 21
-19.0147
  0
LINE
  8
0
 10
3.7159
 20
-19.0147
 11
3.82581
 21
-18.9943
  0
LINE
  8
0
 10
3.82581
 20
-18.9943
 11
3.93823
 21
-18.9797
  0
LINE
  8
0
 10
3.93823
 20
-18.9797
 11
4.05321
 21
-18.9709
  0
LINE
  8
0
 10
4.05321
 20
-18.9709
 11
4.17072
 21
-18.968
  0
LINE
  8
0
 10
4.17072
 20
-18.968
 11
4.28807
 21
-18.9709
  0
LINE
  8
0
 10
4.28807
 20
-18.9709
 11
4.40292
 21
-18.9796
  0
LINE
  8
0
 10
4.40292
 20
-18.9796
 11
4.51527
 21
-18.9942
  0
LINE
  8
0
 10
4.51527
 20
-18.9942
 11
4.62511
 21
-19.0145
  0
LINE
  8
0
 10
4.62511
 20
-19.0145
 11
4.73242
 21
-19.0406
  0
LINE
  8
0
 10
4.73242
 20
-19.0406
 11
4.83725
 21
-19.0726
  0
LINE
  8
0
 10
4.83725
 20
-19.0726
 11
4.93954
 21
-19.1104
  0
LINE
  8
0
 10
4.93954
 20
-19.1104
 11
5.03935
 21
-19.1539
  0
LINE
  8
0
 10
5.03935
 20
-19.1539
 11
5.13664
 21
-19.2033
  0
LINE
  8
0
 10
5.13664
 20
-19.2033
 11
5.23141
 21
-19.2585
  0
LINE
  8
0
 10
5.23141
 20
-19.2585
 11
5.3237
 21
-19.3195
  0
LINE
  8
0
 10
5.3237
 20
-19.3195
 11
5.41345
 21
-19.3864
  0
LINE
  8
0
 10
5.41345
 20
-19.3864
 11
5.50072
 21
-19.459
  0
LINE
  8
0
 10
5.50072
 20
-19.459
 11
5.58325
 21
-19.5358
  0
LINE
  8
0
 10
5.58325
 20
-19.5358
 11
5.65919
 21
-19.6153
  0
LINE
  8
0
 10
5.65919
 20
-19.6153
 11
5.72853
 21
-19.6975
  0
LINE
  8
0
 10
5.72853
 20
-19.6975
 11
5.79126
 21
-19.7823
  0
LINE
  8
0
 10
5.79126
 20
-19.7823
 11
5.8474
 21
-19.8697
  0
LINE
  8
0
 10
5.8474
 20
-19.8697
 11
5.89693
 21
-19.9597
  0
LINE
  8
0
 10
5.89693
 20
-19.9597
 11
5.93985
 21
-20.0524
  0
LINE
  8
0
 10
5.93985
 20
-20.0524
 11
5.97617
 21
-20.1478
  0
LINE
  8
0
 10
5.97617
 20
-20.1478
 11
6.00589
 21
-20.2457
  0
LINE
  8
0
 10
6.00589
 20
-20.2457
 11
6.02899
 21
-20.3463
  0
LINE
  8
0
 10
6.02899
 20
-20.3463
 11
6.0455
 21
-20.4496
  0
LINE
  8
0
 10
6.0455
 20
-20.4496
 11
6.0554
 21
-20.5555
  0
LINE
  8
0
 10
6.0554
 20
-20.5555
 11
6.05872
 21
-20.664
  0
LINE
  8
0
 10
6.05872
 20
-20.664
 11
6.0554
 21
-20.7725
  0
LINE
  8
0
 10
6.0554
 20
-20.7725
 11
6.0455
 21
-20.8784
  0
LINE
  8
0
 10
6.0455
 20
-20.8784
 11
6.02899
 21
-20.9817
  0
LINE
  8
0
 10
6.02899
 20
-20.9817
 11
6.00589
 21
-21.0823
  0
LINE
  8
0
 10
6.00589
 20
-21.0823
 11
5.97617
 21
-21.1802
  0
LINE
  8
0
 10
5.97617
 20
-21.1802
 11
5.93985
 21
-21.2756
  0
LINE
  8
0
 10
5.93985
 20
-21.2756
 11
5.89693
 21
-21.3683
  0
LINE
  8
0
 10
5.89693
 20
-21.3683
 11
5.8474
 21
-21.4583
  0
LINE
  8
0
 10
5.8474
 20
-21.4583
 11
5.79126
 21
-21.5457
  0
LINE
  8
0
 10
5.79126
 20
-21.5457
 11
5.72853
 21
-21.6305
  0
LINE
  8
0
 10
5.72853
 20
-21.6305
 11
5.65919
 21
-21.7126
  0
LINE
  8
0
 10
5.65919
 20
-21.7126
 11
5.58325
 21
-21.7921
  0
LINE
  8
0
 10
5.58325
 20
-21.7921
 11
5.50072
 21
-21.869
  0
LINE
  8
0
 10
5.50072
 20
-21.869
 11
5.41345
 21
-21.9416
  0
LINE
  8
0
 10
5.41345
 20
-21.9416
 11
5.3237
 21
-22.0085
  0
LINE
  8
0
 10
5.3237
 20
-22.0085
 11
5.23141
 21
-22.0695
  0
LINE
  8
0
 10
5.23141
 20
-22.0695
 11
5.13664
 21
-22.1247
  0
LINE
  8
0
 10
5.13664
 20
-22.1247
 11
5.03935
 21
-22.1741
  0
LINE
  8
0
 10
5.03935
 20
-22.1741
 11
4.93954
 21
-22.2176
  0
LINE
  8
0
 10
4.93954
 20
-22.2176
 11
4.83725
 21
-22.2554
  0
LINE
  8
0
 10
4.83725
 20
-22.2554
 11
4.73242
 21
-22.2874
  0
LINE
  8
0
 10
4.73242
 20
-22.2874
 11
4.62511
 21
-22.3135
  0
LINE
  8
0
 10
4.62511
 20
-22.3135
 11
4.51527
 21
-22.3338
  0
LINE
  8
0
 10
4.51527
 20
-22.3338
 11
4.40292
 21
-22.3484
  0
LINE
  8
0
 10
4.40292
 20
-22.3484
 11
4.28807
 21
-22.3571
  0
LINE
  8
0
 10
4.28807
 20
-22.3571
 11
4.17072
 21
-22.36
  0
LINE
  8
0
 10
4.17072
 20
-22.36
 11
4.05321
 21
-22.3571
  0
LINE
  8
0
 10
4.2202
 20
-21.8481
 11
4.26276
 21
-21.8394
  0
LINE
  8
0
 10
4.26276
 20
-21.8394
 11
4.29938
 21
-21.8249
  0
LINE
  8
0
 10
4.29938
 20
-21.8249
 11
4.33005
 21
-21.8046
  0
LINE
  8
0
 10
4.33005
 20
-21.8046
 11
4.3548
 21
-21.7784
  0
LINE
  8
0
 10
4.3548
 20
-21.7784
 11
4.3736
 21
-21.7465
  0
LINE
  8
0
 10
4.3736
 20
-21.7465
 11
4.38646
 21
-21.7088
  0
LINE
  8
0
 10
4.38646
 20
-21.7088
 11
4.39339
 21
-21.6652
  0
LINE
  8
0
 10
4.39339
 20
-21.6652
 11
4.39471
 21
-19.691
  0
LINE
  8
0
 10
4.39471
 20
-19.691
 11
4.39227
 21
-19.6538
  0
LINE
  8
0
 10
4.39227
 20
-19.6538
 11
4.37558
 21
-19.595
  0
LINE
  8
0
 10
4.37558
 20
-19.595
 11
4.34306
 21
-19.5467
  0
LINE
  8
0
 10
4.34306
 20
-19.5467
 11
4.29097
 21
-19.5069
  0
LINE
  8
0
 10
4.29097
 20
-19.5069
 11
4.21851
 21
-19.481
  0
LINE
  8
0
 10
4.21851
 20
-19.481
 11
4.12279
 21
-19.4798
  0
LINE
  8
0
 10
4.12279
 20
-19.4798
 11
4.07985
 21
-19.4884
  0
LINE
  8
0
 10
4.07985
 20
-19.4884
 11
4.04291
 21
-19.5026
  0
LINE
  8
0
 10
4.04291
 20
-19.5026
 11
4.01195
 21
-19.5226
  0
LINE
  8
0
 10
4.01195
 20
-19.5226
 11
3.98698
 21
-19.5482
  0
LINE
  8
0
 10
3.98698
 20
-19.5482
 11
3.96802
 21
-19.5796
  0
LINE
  8
0
 10
3.96802
 20
-19.5796
 11
3.95503
 21
-19.6166
  0
LINE
  8
0
 10
3.95503
 20
-19.6166
 11
3.94804
 21
-19.6593
  0
LINE
  8
0
 10
3.94804
 20
-19.6593
 11
3.94704
 21
-21.6494
  0
LINE
  8
0
 10
3.94704
 20
-21.6494
 11
3.95204
 21
-21.6949
  0
LINE
  8
0
 10
3.95204
 20
-21.6949
 11
3.96301
 21
-21.7346
  0
LINE
  8
0
 10
3.96301
 20
-21.7346
 11
3.98
 21
-21.7684
  0
LINE
  8
0
 10
3.98
 20
-21.7684
 11
4.00296
 21
-21.7965
  0
LINE
  8
0
 10
4.00296
 20
-21.7965
 11
4.03192
 21
-21.8187
  0
LINE
  8
0
 10
4.03192
 20
-21.8187
 11
4.06686
 21
-21.8352
  0
LINE
  8
0
 10
4.06686
 20
-21.8352
 11
4.1078
 21
-21.8458
  0
LINE
  8
0
 10
4.1078
 20
-21.8458
 11
4.15474
 21
-21.8507
  0
LINE
  8
0
 10
4.15474
 20
-21.8507
 11
4.2202
 21
-21.8481
  0
LINE
  8
0
 10
-15.1943
 20
-22.325
 11
-15.2922
 21
-22.3229
  0
LINE
  8
0
 10
-15.2922
 20
-22.3229
 11
-15.3874
 21
-22.3165
  0
LINE
  8
0
 10
-15.3874
 20
-22.3165
 11
-15.4801
 21
-22.3059
  0
LINE
  8
0
 10
-15.4801
 20
-22.3059
 11
-15.5701
 21
-22.2911
  0
LINE
  8
0
 10
-15.5701
 20
-22.2911
 11
-15.6574
 21
-22.272
  0
LINE
  8
0
 10
-15.6574
 20
-22.272
 11
-15.7421
 21
-22.2487
  0
LINE
  8
0
 10
-15.7421
 20
-22.2487
 11
-15.8242
 21
-22.2212
  0
LINE
  8
0
 10
-15.8242
 20
-22.2212
 11
-15.9037
 21
-22.1894
  0
LINE
  8
0
 10
-15.9037
 20
-22.1894
 11
-15.9805
 21
-22.1534
  0
LINE
  8
0
 10
-15.9805
 20
-22.1534
 11
-16.0546
 21
-22.1131
  0
LINE
  8
0
 10
-16.0546
 20
-22.1131
 11
-16.1261
 21
-22.0687
  0
LINE
  8
0
 10
-16.1261
 20
-22.0687
 11
-16.195
 21
-22.0199
  0
LINE
  8
0
 10
-16.195
 20
-22.0199
 11
-16.2613
 21
-21.967
  0
LINE
  8
0
 10
-16.2613
 20
-21.967
 11
-16.3287
 21
-21.9073
  0
LINE
  8
0
 10
-16.3287
 20
-21.9073
 11
-16.3908
 21
-21.8445
  0
LINE
  8
0
 10
-16.3908
 20
-21.8445
 11
-16.4474
 21
-21.7787
  0
LINE
  8
0
 10
-16.4474
 20
-21.7787
 11
-16.4987
 21
-21.7097
  0
LINE
  8
0
 10
-16.4987
 20
-21.7097
 11
-16.5446
 21
-21.6377
  0
LINE
  8
0
 10
-16.5446
 20
-21.6377
 11
-16.5851
 21
-21.5627
  0
LINE
  8
0
 10
-16.5851
 20
-21.5627
 11
-16.6201
 21
-21.4845
  0
LINE
  8
0
 10
-16.6201
 20
-21.4845
 11
-16.6498
 21
-21.4033
  0
LINE
  8
0
 10
-16.6498
 20
-21.4033
 11
-16.6741
 21
-21.319
  0
LINE
  8
0
 10
-16.6741
 20
-21.319
 11
-16.693
 21
-21.2316
  0
LINE
  8
0
 10
-16.693
 20
-21.2316
 11
-16.7065
 21
-21.1411
  0
LINE
  8
0
 10
-16.7065
 20
-21.1411
 11
-16.7146
 21
-21.0476
  0
LINE
  8
0
 10
-16.7146
 20
-21.0476
 11
-16.7173
 21
-20.951
  0
LINE
  8
0
 10
-16.7173
 20
-20.951
 11
-16.7147
 21
-20.8564
  0
LINE
  8
0
 10
-16.7147
 20
-20.8564
 11
-16.7069
 21
-20.7647
  0
LINE
  8
0
 10
-16.7069
 20
-20.7647
 11
-16.694
 21
-20.6758
  0
LINE
  8
0
 10
-16.694
 20
-20.6758
 11
-16.6759
 21
-20.5898
  0
LINE
  8
0
 10
-16.6759
 20
-20.5898
 11
-16.6526
 21
-20.5066
  0
LINE
  8
0
 10
-16.6526
 20
-20.5066
 11
-16.6242
 21
-20.4263
  0
LINE
  8
0
 10
-16.6242
 20
-20.4263
 11
-16.5906
 21
-20.3488
  0
LINE
  8
0
 10
-16.5906
 20
-20.3488
 11
-16.5518
 21
-20.2742
  0
LINE
  8
0
 10
-16.5518
 20
-20.2742
 11
-16.5078
 21
-20.2025
  0
LINE
  8
0
 10
-16.5078
 20
-20.2025
 11
-16.4587
 21
-20.1336
  0
LINE
  8
0
 10
-16.4587
 20
-20.1336
 11
-16.4044
 21
-20.0675
  0
LINE
  8
0
 10
-16.4044
 20
-20.0675
 11
-16.3449
 21
-20.0043
  0
LINE
  8
0
 10
-16.3449
 20
-20.0043
 11
-16.2803
 21
-19.944
  0
LINE
  8
0
 10
-16.2803
 20
-19.944
 11
-16.2633
 21
-19.931
  0
LINE
  8
0
 10
-16.2633
 20
-19.931
 11
-17.0213
 21
-19
  0
LINE
  8
0
 10
-17.0213
 20
-19
 11
-15.3993
 21
-19
  0
LINE
  8
0
 10
-15.3993
 20
-19
 11
-14.9893
 21
-19.598
  0
LINE
  8
0
 10
-14.9893
 20
-19.598
 11
-14.9893
 21
-19
  0
LINE
  8
0
 10
-14.9893
 20
-19
 11
-13.3253
 21
-19
  0
LINE
  8
0
 10
-13.3253
 20
-19
 11
-13.3253
 21
-22.325
  0
LINE
  8
0
 10
-13.3253
 20
-22.325
 11
-15.1943
 21
-22.325
  0
LINE
  8
0
 10
-14.9893
 20
-20.088
 11
-15.0841
 21
-20.0885
  0
LINE
  8
0
 10
-15.0841
 20
-20.0885
 11
-15.1383
 21
-20.0924
  0
LINE
  8
0
 10
-15.1383
 20
-20.0924
 11
-15.188
 21
-20.1001
  0
LINE
  8
0
 10
-15.188
 20
-20.1001
 11
-15.2333
 21
-20.1118
  0
LINE
  8
0
 10
-15.2333
 20
-20.1118
 11
-15.2739
 21
-20.1274
  0
LINE
  8
0
 10
-15.2739
 20
-20.1274
 11
-15.3101
 21
-20.1469
  0
LINE
  8
0
 10
-15.3101
 20
-20.1469
 11
-15.3418
 21
-20.1702
  0
LINE
  8
0
 10
-15.3418
 20
-20.1702
 11
-15.3689
 21
-20.1975
  0
LINE
  8
0
 10
-15.3689
 20
-20.1975
 11
-15.3915
 21
-20.2286
  0
LINE
  8
0
 10
-15.3915
 20
-20.2286
 11
-15.4096
 21
-20.2637
  0
LINE
  8
0
 10
-15.4096
 20
-20.2637
 11
-15.4231
 21
-20.3026
  0
LINE
  8
0
 10
-15.4231
 20
-20.3026
 11
-15.4322
 21
-20.3454
  0
LINE
  8
0
 10
-15.4322
 20
-20.3454
 11
-15.4367
 21
-20.3922
  0
LINE
  8
0
 10
-15.4367
 20
-20.3922
 11
-15.4371
 21
-21.4975
  0
LINE
  8
0
 10
-15.4371
 20
-21.4975
 11
-15.4293
 21
-21.5582
  0
LINE
  8
0
 10
-15.4293
 20
-21.5582
 11
-15.4098
 21
-21.6142
  0
LINE
  8
0
 10
-15.4098
 20
-21.6142
 11
-15.3785
 21
-21.6657
  0
LINE
  8
0
 10
-15.3785
 20
-21.6657
 11
-15.3273
 21
-21.72
  0
LINE
  8
0
 10
-15.3273
 20
-21.72
 11
-15.257
 21
-21.77
  0
LINE
  8
0
 10
-15.257
 20
-21.77
 11
-15.1913
 21
-21.7988
  0
LINE
  8
0
 10
-15.1913
 20
-21.7988
 11
-15.1218
 21
-21.8137
  0
LINE
  8
0
 10
-15.1218
 20
-21.8137
 11
-14.9893
 21
-21.816
  0
LINE
  8
0
 10
-14.9893
 20
-21.816
 11
-14.9893
 21
-20.088
  0
LINE
  8
0
 10
11.154
 20
-22.328
 11
12.387
 21
-19
  0
LINE
  8
0
 10
12.387
 20
-19
 11
13.233
 21
-19
  0
LINE
  8
0
 10
13.233
 20
-19
 11
13.533
 21
-19.749
  0
LINE
  8
0
 10
13.533
 20
-19.749
 11
13.812
 21
-19
  0
LINE
  8
0
 10
13.812
 20
-19
 11
14.658
 21
-19
  0
LINE
  8
0
 10
14.658
 20
-19
 11
15.983
 21
-22.328
  0
LINE
  8
0
 10
15.983
 20
-22.328
 11
14.229
 21
-22.328
  0
LINE
  8
0
 10
14.229
 20
-22.328
 11
13.771
 21
-21.21
  0
LINE
  8
0
 10
13.771
 20
-21.21
 11
13.287
 21
-22.328
  0
LINE
  8
0
 10
13.287
 20
-22.328
 11
12.679
 21
-22.328
  0
LINE
  8
0
 10
12.679
 20
-22.328
 11
12.162
 21
-21.054
  0
LINE
  8
0
 10
12.162
 20
-21.054
 11
11.687
 21
-22.328
  0
LINE
  8
0
 10
11.687
 20
-22.328
 11
11.154
 21
-22.328
  0
LINE
  8
0
 10
-0.335403
 20
-22.3274
 11
-0.46344
 21
-22.3229
  0
LINE
  8
0
 10
-0.46344
 20
-22.3229
 11
-0.587051
 21
-22.3138
  0
LINE
  8
0
 10
-0.587051
 20
-22.3138
 11
-0.706238
 21
-22.3002
  0
LINE
  8
0
 10
-0.706238
 20
-22.3002
 11
-0.820984
 21
-22.282
  0
LINE
  8
0
 10
-0.820984
 20
-22.282
 11
-0.93132
 21
-22.2593
  0
LINE
  8
0
 10
-0.93132
 20
-22.2593
 11
-1.03723
 21
-22.232
  0
LINE
  8
0
 10
-1.03723
 20
-22.232
 11
-1.1387
 21
-22.2002
  0
LINE
  8
0
 10
-1.1387
 20
-22.2002
 11
-1.23576
 21
-22.1638
  0
LINE
  8
0
 10
-1.23576
 20
-22.1638
 11
-1.32838
 21
-22.1229
  0
LINE
  8
0
 10
-1.32838
 20
-22.1229
 11
-1.41658
 21
-22.0775
  0
LINE
  8
0
 10
-1.41658
 20
-22.0775
 11
-1.50037
 21
-22.0275
  0
LINE
  8
0
 10
-1.50037
 20
-22.0275
 11
-1.57971
 21
-21.973
  0
LINE
  8
0
 10
-1.57971
 20
-21.973
 11
-1.659
 21
-21.9102
  0
LINE
  8
0
 10
-1.659
 20
-21.9102
 11
-1.73668
 21
-21.839
  0
LINE
  8
0
 10
-1.73668
 20
-21.839
 11
-1.77309
 21
-21.8015
  0
LINE
  8
0
 10
-1.77309
 20
-21.8015
 11
-1.80788
 21
-21.7628
  0
LINE
  8
0
 10
-1.80788
 20
-21.7628
 11
-1.84106
 21
-21.7229
  0
LINE
  8
0
 10
-1.84106
 20
-21.7229
 11
-1.87262
 21
-21.6817
  0
LINE
  8
0
 10
-1.87262
 20
-21.6817
 11
-1.90256
 21
-21.6393
  0
LINE
  8
0
 10
-1.90256
 20
-21.6393
 11
-1.93088
 21
-21.5956
  0
LINE
  8
0
 10
-1.93088
 20
-21.5956
 11
-1.95758
 21
-21.5508
  0
LINE
  8
0
 10
-1.95758
 20
-21.5508
 11
-2.00613
 21
-21.4573
  0
LINE
  8
0
 10
-2.00613
 20
-21.4573
 11
-2.0482
 21
-21.3589
  0
LINE
  8
0
 10
-2.0482
 20
-21.3589
 11
-2.08382
 21
-21.2556
  0
LINE
  8
0
 10
-2.08382
 20
-21.2556
 11
-2.11295
 21
-21.1474
  0
LINE
  8
0
 10
-2.11295
 20
-21.1474
 11
-2.13559
 21
-21.0342
  0
LINE
  8
0
 10
-2.13559
 20
-21.0342
 11
-2.15178
 21
-20.916
  0
LINE
  8
0
 10
-2.15178
 20
-20.916
 11
-2.16148
 21
-20.793
  0
LINE
  8
0
 10
-2.16148
 20
-20.793
 11
-2.16473
 21
-20.665
  0
LINE
  8
0
 10
-2.16473
 20
-20.665
 11
-2.16177
 21
-20.5411
  0
LINE
  8
0
 10
-2.16177
 20
-20.5411
 11
-2.15289
 21
-20.4218
  0
LINE
  8
0
 10
-2.15289
 20
-20.4218
 11
-2.13809
 21
-20.307
  0
LINE
  8
0
 10
-2.13809
 20
-20.307
 11
-2.11739
 21
-20.1967
  0
LINE
  8
0
 10
-2.11739
 20
-20.1967
 11
-2.09076
 21
-20.091
  0
LINE
  8
0
 10
-2.09076
 20
-20.091
 11
-2.05821
 21
-19.9899
  0
LINE
  8
0
 10
-2.05821
 20
-19.9899
 11
-2.01976
 21
-19.8932
  0
LINE
  8
0
 10
-2.01976
 20
-19.8932
 11
-1.97537
 21
-19.8012
  0
LINE
  8
0
 10
-1.97537
 20
-19.8012
 11
-1.92508
 21
-19.7137
  0
LINE
  8
0
 10
-1.92508
 20
-19.7137
 11
-1.86887
 21
-19.6307
  0
LINE
  8
0
 10
-1.86887
 20
-19.6307
 11
-1.80673
 21
-19.5522
  0
LINE
  8
0
 10
-1.80673
 20
-19.5522
 11
-1.73869
 21
-19.4783
  0
LINE
  8
0
 10
-1.73869
 20
-19.4783
 11
-1.66473
 21
-19.409
  0
LINE
  8
0
 10
-1.66473
 20
-19.409
 11
-1.59039
 21
-19.3485
  0
LINE
  8
0
 10
-1.59039
 20
-19.3485
 11
-1.51202
 21
-19.2928
  0
LINE
  8
0
 10
-1.51202
 20
-19.2928
 11
-1.4296
 21
-19.242
  0
LINE
  8
0
 10
-1.4296
 20
-19.242
 11
-1.34312
 21
-19.196
  0
LINE
  8
0
 10
-1.34312
 20
-19.196
 11
-1.25259
 21
-19.1549
  0
LINE
  8
0
 10
-1.25259
 20
-19.1549
 11
-1.15804
 21
-19.1186
  0
LINE
  8
0
 10
-1.15804
 20
-19.1186
 11
-1.05942
 21
-19.0871
  0
LINE
  8
0
 10
-1.05942
 20
-19.0871
 11
-0.956757
 21
-19.0605
  0
LINE
  8
0
 10
-0.956757
 20
-19.0605
 11
-0.850037
 21
-19.0387
  0
LINE
  8
0
 10
-0.850037
 20
-19.0387
 11
-0.739288
 21
-19.0218
  0
LINE
  8
0
 10
-0.739288
 20
-19.0218
 11
-0.624481
 21
-19.0097
  0
LINE
  8
0
 10
-0.624481
 20
-19.0097
 11
-0.50563
 21
-19.0024
  0
LINE
  8
0
 10
-0.50563
 20
-19.0024
 11
-0.382721
 21
-19
  0
LINE
  8
0
 10
-0.382721
 20
-19
 11
1.48326
 21
-19
  0
LINE
  8
0
 10
1.48326
 20
-19
 11
1.48326
 21
-22.328
  0
LINE
  8
0
 10
1.48326
 20
-22.328
 11
-0.335403
 21
-22.3274
  0
LINE
  8
0
 10
-0.180725
 20
-19.509
 11
-0.361725
 21
-19.509
  0
LINE
  8
0
 10
-0.361725
 20
-19.509
 11
-0.391754
 21
-19.5132
  0
LINE
  8
0
 10
-0.391754
 20
-19.5132
 11
-0.444611
 21
-19.5273
  0
LINE
  8
0
 10
-0.444611
 20
-19.5273
 11
-0.477936
 21
-19.5428
  0
LINE
  8
0
 10
-0.477936
 20
-19.5428
 11
-0.505875
 21
-19.5627
  0
LINE
  8
0
 10
-0.505875
 20
-19.5627
 11
-0.528397
 21
-19.5868
  0
LINE
  8
0
 10
-0.528397
 20
-19.5868
 11
-0.545502
 21
-19.6152
  0
LINE
  8
0
 10
-0.545502
 20
-19.6152
 11
-0.55722
 21
-19.6479
  0
LINE
  8
0
 10
-0.55722
 20
-19.6479
 11
-0.563522
 21
-19.685
  0
LINE
  8
0
 10
-0.563522
 20
-19.685
 11
-0.564728
 21
-21.616
  0
LINE
  8
0
 10
-0.564728
 20
-21.616
 11
-0.561615
 21
-21.6601
  0
LINE
  8
0
 10
-0.561615
 20
-21.6601
 11
-0.552261
 21
-21.6989
  0
LINE
  8
0
 10
-0.552261
 20
-21.6989
 11
-0.536682
 21
-21.7322
  0
LINE
  8
0
 10
-0.536682
 20
-21.7322
 11
-0.514877
 21
-21.7601
  0
LINE
  8
0
 10
-0.514877
 20
-21.7601
 11
-0.486847
 21
-21.7827
  0
LINE
  8
0
 10
-0.486847
 20
-21.7827
 11
-0.452576
 21
-21.7998
  0
LINE
  8
0
 10
-0.452576
 20
-21.7998
 11
-0.412079
 21
-21.8115
  0
LINE
  8
0
 10
-0.412079
 20
-21.8115
 11
-0.365341
 21
-21.8178
  0
LINE
  8
0
 10
-0.365341
 20
-21.8178
 11
-0.180725
 21
-21.819
  0
LINE
  8
0
 10
-0.180725
 20
-21.819
 11
-0.180725
 21
-19.509
  0
LINE
  8
0
 10
-5.66162
 20
-22.328
 11
-4.88661
 21
-20.787
  0
LINE
  8
0
 10
-4.88661
 20
-20.787
 11
-4.88661
 21
-19
  0
LINE
  8
0
 10
-4.88661
 20
-19
 11
-3.22261
 21
-19
  0
LINE
  8
0
 10
-3.22261
 20
-19
 11
-3.22261
 21
-20.83
  0
LINE
  8
0
 10
-3.22261
 20
-20.83
 11
-2.41061
 21
-22.328
  0
LINE
  8
0
 10
-2.41061
 20
-22.328
 11
-4.14662
 21
-22.328
  0
LINE
  8
0
 10
-4.14662
 20
-22.328
 11
-4.64662
 21
-21.428
  0
LINE
  8
0
 10
-4.64662
 20
-21.428
 11
-5.09962
 21
-22.328
  0
LINE
  8
0
 10
-5.09962
 20
-22.328
 11
-5.66162
 21
-22.328
  0
LINE
  8
0
 10
-8.5387
 20
-22.328
 11
-8.5387
 21
-21.819
  0
LINE
  8
0
 10
-8.5387
 20
-21.819
 11
-7.8987
 21
-21.819
  0
LINE
  8
0
 10
-7.8987
 20
-21.819
 11
-7.8987
 21
-20.981
  0
LINE
  8
0
 10
-7.8987
 20
-20.981
 11
-8.5387
 21
-20.981
  0
LINE
  8
0
 10
-8.5387
 20
-20.981
 11
-8.5387
 21
-20.472
  0
LINE
  8
0
 10
-8.5387
 20
-20.472
 11
-7.8987
 21
-20.472
  0
LINE
  8
0
 10
-7.8987
 20
-20.472
 11
-7.8987
 21
-19.509
  0
LINE
  8
0
 10
-7.8987
 20
-19.509
 11
-8.63469
 21
-19.509
  0
LINE
  8
0
 10
-8.63469
 20
-19.509
 11
-8.63469
 21
-19
  0
LINE
  8
0
 10
-8.63469
 20
-19
 11
-6.2347
 21
-19
  0
LINE
  8
0
 10
-6.2347
 20
-19
 11
-6.2347
 21
-22.328
  0
LINE
  8
0
 10
-6.2347
 20
-22.328
 11
-8.5387
 21
-22.328
  0
LINE
  8
0
 10
-11.2583
 20
-22.328
 11
-12.5713
 21
-19
  0
LINE
  8
0
 10
-12.5713
 20
-19
 11
-10.8083
 21
-19
  0
LINE
  8
0
 10
-10.8083
 20
-19
 11
-10.7173
 21
-19.323
  0
LINE
  8
0
 10
-10.7173
 20
-19.323
 11
-9.8503
 21
-19.323
  0
LINE
  8
0
 10
-9.8503
 20
-19.323
 11
-9.72128
 21
-19
  0
LINE
  8
0
 10
-9.72128
 20
-19
 11
-9.19229
 21
-19
  0
LINE
  8
0
 10
-9.19229
 20
-19
 11
-10.4123
 21
-22.328
  0
LINE
  8
0
 10
-10.4123
 20
-22.328
 11
-11.2583
 21
-22.328
  0
LINE
  8
0
 10
-10.0373
 20
-19.832
 11
-10.5793
 21
-19.832
  0
LINE
  8
0
 10
-10.5793
 20
-19.832
 11
-10.3503
 21
-20.688
  0
LINE
  8
0
 10
-10.3503
 20
-20.688
 11
-10.0373
 21
-19.832
  0
LINE
  8
0
 10
76.0994
 20
-34.9827
 11
77.1977
 21
-34.9309
  0
LINE
  8
0
 10
77.1977
 20
-34.9309
 11
78.2938
 21
-34.8447
  0
LINE
  8
0
 10
78.2938
 20
-34.8447
 11
79.3867
 21
-34.724
  0
LINE
  8
0
 10
79.3867
 20
-34.724
 11
80.4752
 21
-34.5691
  0
LINE
  8
0
 10
80.4752
 20
-34.5691
 11
81.5583
 21
-34.3801
  0
LINE
  8
0
 10
81.5583
 20
-34.3801
 11
82.635
 21
-34.1571
  0
LINE
  8
0
 10
82.635
 20
-34.1571
 11
83.7041
 21
-33.9004
  0
LINE
  8
0
 10
83.7041
 20
-33.9004
 11
84.7647
 21
-33.6103
  0
LINE
  8
0
 10
84.7647
 20
-33.6103
 11
85.8156
 21
-33.287
  0
LINE
  8
0
 10
85.8156
 20
-33.287
 11
86.8558
 21
-32.9308
  0
LINE
  8
0
 10
86.8558
 20
-32.9308
 11
87.8844
 21
-32.5422
  0
LINE
  8
0
 10
87.8844
 20
-32.5422
 11
88.9002
 21
-32.1214
  0
LINE
  8
0
 10
88.9002
 20
-32.1214
 11
89.9023
 21
-31.6689
  0
LINE
  8
0
 10
89.9023
 20
-31.6689
 11
90.8897
 21
-31.1852
  0
LINE
  8
0
 10
90.8897
 20
-31.1852
 11
91.8614
 21
-30.6707
  0
LINE
  8
0
 10
91.8614
 20
-30.6707
 11
92.8164
 21
-30.126
  0
LINE
  8
0
 10
92.8164
 20
-30.126
 11
93.7539
 21
-29.5515
  0
LINE
  8
0
 10
93.7539
 20
-29.5515
 11
94.6729
 21
-28.9478
  0
LINE
  8
0
 10
94.6729
 20
-28.9478
 11
95.5725
 21
-28.3156
  0
LINE
  8
0
 10
95.5725
 20
-28.3156
 11
96.4517
 21
-27.6554
  0
LINE
  8
0
 10
96.4517
 20
-27.6554
 11
97.3098
 21
-26.968
  0
LINE
  8
0
 10
97.3098
 20
-26.968
 11
98.1459
 21
-26.2539
  0
LINE
  8
0
 10
98.1459
 20
-26.2539
 11
98.9591
 21
-25.5139
  0
LINE
  8
0
 10
98.9591
 20
-25.5139
 11
99.7487
 21
-24.7487
  0
LINE
  8
0
 10
99.7487
 20
-24.7487
 11
100.514
 21
-23.9591
  0
LINE
  8
0
 10
100.514
 20
-23.9591
 11
101.254
 21
-23.1459
  0
LINE
  8
0
 10
101.254
 20
-23.1459
 11
101.968
 21
-22.3098
  0
LINE
  8
0
 10
101.968
 20
-22.3098
 11
102.655
 21
-21.4517
  0
LINE
  8
0
 10
102.655
 20
-21.4517
 11
103.316
 21
-20.5725
  0
LINE
  8
0
 10
103.316
 20
-20.5725
 11
103.948
 21
-19.6729
  0
LINE
  8
0
 10
103.948
 20
-19.6729
 11
104.551
 21
-18.7539
  0
LINE
  8
0
 10
104.551
 20
-18.7539
 11
105.126
 21
-17.8164
  0
LINE
  8
0
 10
105.126
 20
-17.8164
 11
105.671
 21
-16.8614
  0
LINE
  8
0
 10
105.671
 20
-16.8614
 11
106.185
 21
-15.8897
  0
LINE
  8
0
 10
106.185
 20
-15.8897
 11
106.669
 21
-14.9023
  0
LINE
  8
0
 10
106.669
 20
-14.9023
 11
107.121
 21
-13.9002
  0
LINE
  8
0
 10
107.121
 20
-13.9002
 11
107.542
 21
-12.8844
  0
LINE
  8
0
 10
107.542
 20
-12.8844
 11
107.931
 21
-11.8558
  0
LINE
  8
0
 10
107.931
 20
-11.8558
 11
108.287
 21
-10.8156
  0
LINE
  8
0
 10
108.287
 20
-10.8156
 11
108.61
 21
-9.76468
  0
LINE
  8
0
 10
108.61
 20
-9.76468
 11
108.9
 21
-8.70413
  0
LINE
  8
0
 10
108.9
 20
-8.70413
 11
109.157
 21
-7.63501
  0
LINE
  8
0
 10
109.157
 20
-7.63501
 11
109.38
 21
-6.55833
  0
LINE
  8
0
 10
109.38
 20
-6.55833
 11
109.569
 21
-5.4752
  0
LINE
  8
0
 10
109.569
 20
-5.4752
 11
109.724
 21
-4.38666
  0
LINE
  8
0
 10
109.724
 20
-4.38666
 11
109.845
 21
-3.29378
  0
LINE
  8
0
 10
109.845
 20
-3.29378
 11
109.931
 21
-2.19766
  0
LINE
  8
0
 10
109.931
 20
-2.19766
 11
109.983
 21
-1.09937
  0
LINE
  8
0
 10
109.983
 20
-1.09937
 11
110
 21
0
  0
LINE
  8
0
 10
110
 20
0
 11
109.983
 21
1.09937
  0
LINE
  8
0
 10
109.983
 20
1.09937
 11
109.931
 21
2.19766
  0
LINE
  8
0
 10
109.931
 20
2.19766
 11
109.845
 21
3.29378
  0
LINE
  8
0
 10
109.845
 20
3.29378
 11
109.724
 21
4.38666
  0
LINE
  8
0
 10
109.724
 20
4.38666
 11
109.569
 21
5.4752
  0
LINE
  8
0
 10
109.569
 20
5.4752
 11
109.38
 21
6.55833
  0
LINE
  8
0
 10
109.38
 20
6.55833
 11
109.157
 21
7.63501
  0
LINE
  8
0
 10
109.157
 20
7.63501
 11
108.9
 21
8.70413
  0
LINE
  8
0
 10
108.9
 20
8.70413
 11
108.61
 21
9.76468
  0
LINE
  8
0
 10
108.61
 20
9.76468
 11
108.287
 21
10.8156
  0
LINE
  8
0
 10
108.287
 20
10.8156
 11
107.931
 21
11.8558
  0
LINE
  8
0
 10
107.931
 20
11.8558
 11
107.542
 21
12.8844
  0
LINE
  8
0
 10
107.542
 20
12.8844
 11
107.121
 21
13.9002
  0
LINE
  8
0
 10
107.121
 20
13.9002
 11
106.669
 21
14.9023
  0
LINE
  8
0
 10
106.669
 20
14.9023
 11
106.185
 21
15.8897
  0
LINE
  8
0
 10
106.185
 20
15.8897
 11
105.671
 21
16.8614
  0
LINE
  8
0
 10
105.671
 20
16.8614
 11
105.126
 21
17.8164
  0
LINE
  8
0
 10
105.126
 20
17.8164
 11
104.551
 21
18.7539
  0
LINE
  8
0
 10
104.551
 20
18.7539
 11
103.948
 21
19.6729
  0
LINE
  8
0
 10
103.948
 20
19.6729
 11
103.316
 21
20.5725
  0
LINE
  8
0
 10
103.316
 20
20.5725
 11
102.655
 21
21.4517
  0
LINE
  8
0
 10
102.655
 20
21.4517
 11
101.968
 21
22.3098
  0
LINE
  8
0
 10
101.968
 20
22.3098
 11
101.254
 21
23.1459
  0
LINE
  8
0
 10
101.254
 20
23.1459
 11
100.514
 21
23.9591
  0
LINE
  8
0
 10
100.514
 20
23.9591
 11
99.7487
 21
24.7487
  0
LINE
  8
0
 10
99.7487
 20
24.7487
 11
98.9591
 21
25.5139
  0
LINE
  8
0
 10
98.9591
 20
25.5139
 11
98.1459
 21
26.2539
  0
LINE
  8
0
 10
98.1459
 20
26.2539
 11
97.3098
 21
26.968
  0
LINE
  8
0
 10
97.3098
 20
26.968
 11
96.4517
 21
27.6554
  0
LINE
  8
0
 10
96.4517
 20
27.6554
 11
95.5725
 21
28.3156
  0
LINE
  8
0
 10
95.5725
 20
28.3156
 11
94.6729
 21
28.9478
  0
LINE
  8
0
 10
94.6729
 20
28.9478
 11
93.7539
 21
29.5515
  0
LINE
  8
0
 10
93.7539
 20
29.5515
 11
92.8164
 21
30.126
  0
LINE
  8
0
 10
92.8164
 20
30.126
 11
91.8614
 21
30.6707
  0
LINE
  8
0
 10
91.8614
 20
30.6707
 11
90.8897
 21
31.1852
  0
LINE
  8
0
 10
90.8897
 20
31.1852
 11
89.9023
 21
31.6689
  0
LINE
  8
0
 10
89.9023
 20
31.6689
 11
88.9002
 21
32.1214
  0
LINE
  8
0
 10
88.9002
 20
32.1214
 11
87.8844
 21
32.5422
  0
LINE
  8
0
 10
87.8844
 20
32.5422
 11
86.8558
 21
32.9308
  0
LINE
  8
0
 10
86.8558
 20
32.9308
 11
85.8156
 21
33.287
  0
LINE
  8
0
 10
85.8156
 20
33.287
 11
84.7647
 21
33.6103
  0
LINE
  8
0
 10
84.7647
 20
33.6103
 11
83.7041
 21
33.9004
  0
LINE
  8
0
 10
83.7041
 20
33.9004
 11
82.635
 21
34.1571
  0
LINE
  8
0
 10
82.635
 20
34.1571
 11
81.5583
 21
34.3801
  0
LINE
  8
0
 10
81.5583
 20
34.3801
 11
80.4752
 21
34.5691
  0
LINE
  8
0
 10
80.4752
 20
34.5691
 11
79.3867
 21
34.724
  0
LINE
  8
0
 10
79.3867
 20
34.724
 11
78.2938
 21
34.8447
  0
LINE
  8
0
 10
78.2938
 20
34.8447
 11
77.1977
 21
34.9309
  0
LINE
  8
0
 10
77.1977
 20
34.9309
 11
76.0994
 21
34.9827
  0
LINE
  8
0
 10
76.0994
 20
34.9827
 11
75
 21
35
  0
LINE
  8
0
 10
75
 20
35
 11
73.9006
 21
34.9827
  0
LINE
  8
0
 10
73.9006
 20
34.9827
 11
72.8023
 21
34.9309
  0
LINE
  8
0
 10
72.8023
 20
34.9309
 11
71.7062
 21
34.8447
  0
LINE
  8
0
 10
71.7062
 20
34.8447
 11
70.6133
 21
34.724
  0
LINE
  8
0
 10
70.6133
 20
34.724
 11
69.5248
 21
34.5691
  0
LINE
  8
0
 10
69.5248
 20
34.5691
 11
68.4417
 21
34.3801
  0
LINE
  8
0
 10
68.4417
 20
34.3801
 11
67.365
 21
34.1571
  0
LINE
  8
0
 10
67.365
 20
34.1571
 11
66.2959
 21
33.9004
  0
LINE
  8
0
 10
66.2959
 20
33.9004
 11
65.2353
 21
33.6103
  0
LINE
  8
0
 10
65.2353
 20
33.6103
 11
64.1844
 21
33.287
  0
LINE
  8
0
 10
64.1844
 20
33.287
 11
63.1442
 21
32.9308
  0
LINE
  8
0
 10
63.1442
 20
32.9308
 11
62.1156
 21
32.5422
  0
LINE
  8
0
 10
62.1156
 20
32.5422
 11
61.0998
 21
32.1214
  0
LINE
  8
0
 10
61.0998
 20
32.1214
 11
60.0977
 21
31.6689
  0
LINE
  8
0
 10
60.0977
 20
31.6689
 11
59.1103
 21
31.1852
  0
LINE
  8
0
 10
59.1103
 20
31.1852
 11
58.1386
 21
30.6707
  0
LINE
  8
0
 10
58.1386
 20
30.6707
 11
57.1836
 21
30.126
  0
LINE
  8
0
 10
57.1836
 20
30.126
 11
56.2461
 21
29.5515
  0
LINE
  8
0
 10
56.2461
 20
29.5515
 11
55.3271
 21
28.9478
  0
LINE
  8
0
 10
55.3271
 20
28.9478
 11
54.4275
 21
28.3156
  0
LINE
  8
0
 10
54.4275
 20
28.3156
 11
53.5483
 21
27.6554
  0
LINE
  8
0
 10
53.5483
 20
27.6554
 11
52.6902
 21
26.968
  0
LINE
  8
0
 10
52.6902
 20
26.968
 11
51.8541
 21
26.2539
  0
LINE
  8
0
 10
51.8541
 20
26.2539
 11
51.0409
 21
25.5139
  0
LINE
  8
0
 10
51.0409
 20
25.5139
 11
50.2513
 21
24.7487
  0
LINE
  8
0
 10
50.2513
 20
24.7487
 11
49.4861
 21
23.9591
  0
LINE
  8
0
 10
49.4861
 20
23.9591
 11
48.7461
 21
23.1459
  0
LINE
  8
0
 10
48.7461
 20
23.1459
 11
48.032
 21
22.3098
  0
LINE
  8
0
 10
48.032
 20
22.3098
 11
47.3446
 21
21.4517
  0
LINE
  8
0
 10
47.3446
 20
21.4517
 11
46.6844
 21
20.5725
  0
LINE
  8
0
 10
46.6844
 20
20.5725
 11
46.0522
 21
19.6729
  0
LINE
  8
0
 10
46.0522
 20
19.6729
 11
45.4485
 21
18.7539
  0
LINE
  8
0
 10
45.4485
 20
18.7539
 11
44.874
 21
17.8164
  0
LINE
  8
0
 10
44.874
 20
17.8164
 11
44.3293
 21
16.8614
  0
LINE
  8
0
 10
44.3293
 20
16.8614
 11
43.8148
 21
15.8897
  0
LINE
  8
0
 10
43.8148
 20
15.8897
 11
43.3311
 21
14.9023
  0
LINE
  8
0
 10
43.3311
 20
14.9023
 11
42.8786
 21
13.9002
  0
LINE
  8
0
 10
42.8786
 20
13.9002
 11
42.4578
 21
12.8844
  0
LINE
  8
0
 10
42.4578
 20
12.8844
 11
42.0692
 21
11.8558
  0
LINE
  8
0
 10
42.0692
 20
11.8558
 11
41.713
 21
10.8156
  0
LINE
  8
0
 10
41.713
 20
10.8156
 11
41.3897
 21
9.76468
  0
LINE
  8
0
 10
41.3897
 20
9.76468
 11
41.0996
 21
8.70413
  0
LINE
  8
0
 10
41.0996
 20
8.70413
 11
40.8429
 21
7.63501
  0
LINE
  8
0
 10
40.8429
 20
7.63501
 11
40.6199
 21
6.55833
  0
LINE
  8
0
 10
40.6199
 20
6.55833
 11
40.4309
 21
5.4752
  0
LINE
  8
0
 10
40.4309
 20
5.4752
 11
40.276
 21
4.38666
  0
LINE
  8
0
 10
40.276
 20
4.38666
 11
40.1553
 21
3.29378
  0
LINE
  8
0
 10
40.1553
 20
3.29378
 11
40.0691
 21
2.19766
  0
LINE
  8
0
 10
40.0691
 20
2.19766
 11
40.0173
 21
1.09937
  0
LINE
  8
0
 10
40.0173
 20
1.09937
 11
40
 21
0
  0
LINE
  8
0
 10
40
 20
0
 11
40.0173
 21
-1.09937
  0
LINE
  8
0
 10
40.0173
 20
-1.09937
 11
40.0691
 21
-2.19766
  0
LINE
  8
0
 10
40.0691
 20
-2.19766
 11
40.1553
 21
-3.29378
  0
LINE
  8
0
 10
40.1553
 20
-3.29378
 11
40.276
 21
-4.38666
  0
LINE
  8
0
 10
40.276
 20
-4.38666
 11
40.4309
 21
-5.4752
  0
LINE
  8
0
 10
40.4309
 20
-5.4752
 11
40.6199
 21
-6.55833
  0
LINE
  8
0
 10
40.6199
 20
-6.55833
 11
40.8429
 21
-7.63501
  0
LINE
  8
0
 10
40.8429
 20
-7.63501
 11
41.0996
 21
-8.70413
  0
LINE
  8
0
 10
41.0996
 20
-8.70413
 11
41.3897
 21
-9.76468
  0
LINE
  8
0
 10
41.3897
 20
-9.76468
 11
41.713
 21
-10.8156
  0
LINE
  8
0
 10
41.713
 20
-10.8156
 11
42.0692
 21
-11.8558
  0
LINE
  8
0
 10
42.0692
 20
-11.8558
 11
42.4578
 21
-12.8844
  0
LINE
  8
0
 10
42.4578
 20
-12.8844
 11
42.8786
 21
-13.9002
  0
LINE
  8
0
 10
42.8786
 20
-13.9002
 11
43.3311
 21
-14.9023
  0
LINE
  8
0
 10
43.3311
 20
-14.9023
 11
43.8148
 21
-15.8897
  0
LINE
  8
0
 10
43.8148
 20
-15.8897
 11
44.3293
 21
-16.8614
  0
LINE
  8
0
 10
44.3293
 20
-16.8614
 11
44.874
 21
-17.8164
  0
LINE
  8
0
 10
44.874
 20
-17.8164
 11
45.4485
 21
-18.7539
  0
LINE
  8
0
 10
45.4485
 20
-18.7539
 11
46.0522
 21
-19.6729
  0
LINE
  8
0
 10
46.0522
 20
-19.6729
 11
46.6844
 21
-20.5725
  0
LINE
  8
0
 10
46.6844
 20
-20.5725
 11
47.3446
 21
-21.4517
  0
LINE
  8
0
 10
47.3446
 20
-21.4517
 11
48.032
 21
-22.3098
  0
LINE
  8
0
 10
48.032
 20
-22.3098
 11
48.7461
 21
-23.1459
  0
LINE
  8
0
 10
48.7461
 20
-23.1459
 11
49.4861
 21
-23.9591
  0
LINE
  8
0
 10
49.4861
 20
-23.9591
 11
50.2513
 21
-24.7487
  0
LINE
  8
0
 10
50.2513
 20
-24.7487
 11
51.0409
 21
-25.5139
  0
LINE
  8
0
 10
51.0409
 20
-25.5139
 11
51.8541
 21
-26.2539
  0
LINE
  8
0
 10
51.8541
 20
-26.2539
 11
52.6902
 21
-26.968
  0
LINE
  8
0
 10
52.6902
 20
-26.968
 11
53.5483
 21
-27.6554
  0
LINE
  8
0
 10
53.5483
 20
-27.6554
 11
54.4275
 21
-28.3156
  0
LINE
  8
0
 10
54.4275
 20
-28.3156
 11
55.3271
 21
-28.9478
  0
LINE
  8
0
 10
55.3271
 20
-28.9478
 11
56.2461
 21
-29.5515
  0
LINE
  8
0
 10
56.2461
 20
-29.5515
 11
57.1836
 21
-30.126
  0
LINE
  8
0
 10
57.1836
 20
-30.126
 11
58.1386
 21
-30.6707
  0
LINE
  8
0
 10
58.1386
 20
-30.6707
 11
59.1103
 21
-31.1852
  0
LINE
  8
0
 10
59.1103
 20
-31.1852
 11
60.0977
 21
-31.6689
  0
LINE
  8
0
 10
60.0977
 20
-31.6689
 11
61.0998
 21
-32.1214
  0
LINE
  8
0
 10
61.0998
 20
-32.1214
 11
62.1156
 21
-32.5422
  0
LINE
  8
0
 10
62.1156
 20
-32.5422
 11
63.1442
 21
-32.9308
  0
LINE
  8
0
 10
63.1442
 20
-32.9308
 11
64.1844
 21
-33.287
  0
LINE
  8
0
 10
64.1844
 20
-33.287
 11
65.2353
 21
-33.6103
  0
LINE
  8
0
 10
65.2353
 20
-33.6103
 11
66.2959
 21
-33.9004
  0
LINE
  8
0
 10
66.2959
 20
-33.9004
 11
67.365
 21
-34.1571
  0
LINE
  8
0
 10
67.365
 20
-34.1571
 11
68.4417
 21
-34.3801
  0
LINE
  8
0
 10
68.4417
 20
-34.3801
 11
69.5248
 21
-34.5691
  0
LINE
  8
0
 10
69.5248
 20
-34.5691
 11
70.6133
 21
-34.724
  0
LINE
  8
0
 10
70.6133
 20
-34.724
 11
71.7062
 21
-34.8447
  0
LINE
  8
0
 10
71.7062
 20
-34.8447
 11
72.8023
 21
-34.9309
  0
LINE
  8
0
 10
72.8023
 20
-34.9309
 11
73.9006
 21
-34.9827
  0
LINE
  8
0
 10
73.9006
 20
-34.9827
 11
75
 21
-35
  0
LINE
  8
0
 10
75
 20
-35
 11
76.0994
 21
-34.9827
  0
LINE
  8
0
 10
70.8902
 20
5.43222
 11
70.7964
 21
5.44208
  0
LINE
  8
0
 10
70.7964
 20
5.44208
 11
70.7035
 21
5.45779
  0
LINE
  8
0
 10
70.7035
 20
5.45779
 11
70.6118
 21
5.47931
  0
LINE
  8
0
 10
70.6118
 20
5.47931
 11
70.5216
 21
5.50655
  0
LINE
  8
0
 10
70.5216
 20
5.50655
 11
70.4332
 21
5.53938
  0
LINE
  8
0
 10
70.4332
 20
5.53938
 11
70.3472
 21
5.57771
  0
LINE
  8
0
 10
70.3472
 20
5.57771
 11
70.2637
 21
5.62137
  0
LINE
  8
0
 10
70.2637
 20
5.62137
 11
70.183
 21
5.6702
  0
LINE
  8
0
 10
70.183
 20
5.6702
 11
70.1057
 21
5.72397
  0
LINE
  8
0
 10
70.1057
 20
5.72397
 11
70.0318
 21
5.7825
  0
LINE
  8
0
 10
70.0318
 20
5.7825
 11
69.9618
 21
5.84555
  0
LINE
  8
0
 10
69.9618
 20
5.84555
 11
69.8959
 21
5.91289
  0
LINE
  8
0
 10
69.8959
 20
5.91289
 11
69.8343
 21
5.98422
  0
LINE
  8
0
 10
69.8343
 20
5.98422
 11
69.7773
 21
6.05928
  0
LINE
  8
0
 10
69.7773
 20
6.05928
 11
69.7252
 21
6.13776
  0
LINE
  8
0
 10
69.7252
 20
6.13776
 11
69.6781
 21
6.21938
  0
LINE
  8
0
 10
69.6781
 20
6.21938
 11
69.6362
 21
6.30377
  0
LINE
  8
0
 10
69.6362
 20
6.30377
 11
69.5996
 21
6.39064
  0
LINE
  8
0
 10
69.5996
 20
6.39064
 11
69.5686
 21
6.47963
  0
LINE
  8
0
 10
69.5686
 20
6.47963
 11
69.5433
 21
6.57039
  0
LINE
  8
0
 10
69.5433
 20
6.57039
 11
69.5237
 21
6.66257
  0
LINE
  8
0
 10
69.5237
 20
6.66257
 11
69.5099
 21
6.75578
  0
LINE
  8
0
 10
69.5099
 20
6.75578
 11
69.5021
 21
6.84969
  0
LINE
  8
0
 10
69.5021
 20
6.84969
 11
69.5001
 21
6.94391
  0
LINE
  8
0
 10
69.5001
 20
6.94391
 11
69.504
 21
7.03806
  0
LINE
  8
0
 10
69.504
 20
7.03806
 11
69.5139
 21
7.13177
  0
LINE
  8
0
 10
69.5139
 20
7.13177
 11
69.5296
 21
7.22469
  0
LINE
  8
0
 10
69.5296
 20
7.22469
 11
69.5511
 21
7.31642
  0
LINE
  8
0
 10
69.5511
 20
7.31642
 11
69.5784
 21
7.40663
  0
LINE
  8
0
 10
69.5784
 20
7.40663
 11
69.6112
 21
7.49495
  0
LINE
  8
0
 10
69.6112
 20
7.49495
 11
69.6495
 21
7.58104
  0
LINE
  8
0
 10
69.6495
 20
7.58104
 11
69.6932
 21
7.66455
  0
LINE
  8
0
 10
69.6932
 20
7.66455
 11
69.742
 21
7.74515
  0
LINE
  8
0
 10
69.742
 20
7.74515
 11
69.7958
 21
7.82254
  0
LINE
  8
0
 10
69.7958
 20
7.82254
 11
69.8543
 21
7.89638
  0
LINE
  8
0
 10
69.8543
 20
7.89638
 11
69.9174
 21
7.96642
  0
LINE
  8
0
 10
69.9174
 20
7.96642
 11
69.9847
 21
8.03235
  0
LINE
  8
0
 10
69.9847
 20
8.03235
 11
70.056
 21
8.09392
  0
LINE
  8
0
 10
70.056
 20
8.09392
 11
70.1311
 21
8.15089
  0
LINE
  8
0
 10
70.1311
 20
8.15089
 11
70.2096
 21
8.20303
  0
LINE
  8
0
 10
70.2096
 20
8.20303
 11
70.2912
 21
8.25015
  0
LINE
  8
0
 10
70.2912
 20
8.25015
 11
70.3756
 21
8.29205
  0
LINE
  8
0
 10
70.3756
 20
8.29205
 11
70.4624
 21
8.32857
  0
LINE
  8
0
 10
70.4624
 20
8.32857
 11
70.5515
 21
8.35956
  0
LINE
  8
0
 10
70.5515
 20
8.35956
 11
70.6422
 21
8.3849
  0
LINE
  8
0
 10
70.6422
 20
8.3849
 11
70.7344
 21
8.4045
  0
LINE
  8
0
 10
70.7344
 20
8.4045
 11
70.8276
 21
8.41826
  0
LINE
  8
0
 10
70.8276
 20
8.41826
 11
70.9215
 21
8.42615
  0
LINE
  8
0
 10
70.9215
 20
8.42615
 11
71.0157
 21
8.42812
  0
LINE
  8
0
 10
71.0157
 20
8.42812
 11
71.1099
 21
8.42416
  0
LINE
  8
0
 10
71.1099
 20
8.42416
 11
71.2036
 21
8.41432
  0
LINE
  8
0
 10
71.2036
 20
8.41432
 11
71.2965
 21
8.39861
  0
LINE
  8
0
 10
71.2965
 20
8.39861
 11
71.3882
 21
8.37709
  0
LINE
  8
0
 10
71.3882
 20
8.37709
 11
71.4784
 21
8.34985
  0
LINE
  8
0
 10
71.4784
 20
8.34985
 11
71.5668
 21
8.317
  0
LINE
  8
0
 10
71.5668
 20
8.317
 11
71.6528
 21
8.27867
  0
LINE
  8
0
 10
71.6528
 20
8.27867
 11
71.7364
 21
8.23502
  0
LINE
  8
0
 10
71.7364
 20
8.23502
 11
71.817
 21
8.1862
  0
LINE
  8
0
 10
71.817
 20
8.1862
 11
71.8943
 21
8.13242
  0
LINE
  8
0
 10
71.8943
 20
8.13242
 11
71.9682
 21
8.07388
  0
LINE
  8
0
 10
71.9682
 20
8.07388
 11
72.0382
 21
8.01083
  0
LINE
  8
0
 10
72.0382
 20
8.01083
 11
72.1042
 21
7.94351
  0
LINE
  8
0
 10
72.1042
 20
7.94351
 11
72.1657
 21
7.87218
  0
LINE
  8
0
 10
72.1657
 20
7.87218
 11
72.2227
 21
7.79712
  0
LINE
  8
0
 10
72.2227
 20
7.79712
 11
72.2748
 21
7.71863
  0
LINE
  8
0
 10
72.2748
 20
7.71863
 11
72.322
 21
7.63702
  0
LINE
  8
0
 10
72.322
 20
7.63702
 11
72.3639
 21
7.55261
  0
LINE
  8
0
 10
72.3639
 20
7.55261
 11
72.4004
 21
7.46574
  0
LINE
  8
0
 10
72.4004
 20
7.46574
 11
72.4314
 21
7.37675
  0
LINE
  8
0
 10
72.4314
 20
7.37675
 11
72.4567
 21
7.286
  0
LINE
  8
0
 10
72.4567
 20
7.286
 11
72.4763
 21
7.19382
  0
LINE
  8
0
 10
72.4763
 20
7.19382
 11
72.4901
 21
7.1006
  0
LINE
  8
0
 10
72.4901
 20
7.1006
 11
72.498
 21
7.0067
  0
LINE
  8
0
 10
72.498
 20
7.0067
 11
72.4999
 21
6.91249
  0
LINE
  8
0
 10
72.4999
 20
6.91249
 11
72.496
 21
6.81834
  0
LINE
  8
0
 10
72.496
 20
6.81834
 11
72.4861
 21
6.72462
  0
LINE
  8
0
 10
72.4861
 20
6.72462
 11
72.4704
 21
6.63171
  0
LINE
  8
0
 10
72.4704
 20
6.63171
 11
72.4489
 21
6.53996
  0
LINE
  8
0
 10
72.4489
 20
6.53996
 11
72.4217
 21
6.44975
  0
LINE
  8
0
 10
72.4217
 20
6.44975
 11
72.3888
 21
6.36143
  0
LINE
  8
0
 10
72.3888
 20
6.36143
 11
72.3505
 21
6.27534
  0
LINE
  8
0
 10
72.3505
 20
6.27534
 11
72.3068
 21
6.19183
  0
LINE
  8
0
 10
72.3068
 20
6.19183
 11
72.258
 21
6.11124
  0
LINE
  8
0
 10
72.258
 20
6.11124
 11
72.2042
 21
6.03386
  0
LINE
  8
0
 10
72.2042
 20
6.03386
 11
72.1457
 21
5.96001
  0
LINE
  8
0
 10
72.1457
 20
5.96001
 11
72.0826
 21
5.88998
  0
LINE
  8
0
 10
72.0826
 20
5.88998
 11
72.0153
 21
5.82405
  0
LINE
  8
0
 10
72.0153
 20
5.82405
 11
71.944
 21
5.76248
  0
LINE
  8
0
 10
71.944
 20
5.76248
 11
71.8689
 21
5.70551
  0
LINE
  8
0
 10
71.8689
 20
5.70551
 11
71.7904
 21
5.65335
  0
LINE
  8
0
 10
71.7904
 20
5.65335
 11
71.7088
 21
5.60625
  0
LINE
  8
0
 10
71.7088
 20
5.60625
 11
71.6244
 21
5.56435
  0
LINE
  8
0
 10
71.6244
 20
5.56435
 11
71.5376
 21
5.52783
  0
LINE
  8
0
 10
71.5376
 20
5.52783
 11
71.4486
 21
5.49684
  0
LINE
  8
0
 10
71.4486
 20
5.49684
 11
71.3578
 21
5.4715
  0
LINE
  8
0
 10
71.3578
 20
5.4715
 11
71.2656
 21
5.4519
  0
LINE
  8
0
 10
71.2656
 20
5.4519
 11
71.1724
 21
5.43814
  0
LINE
  8
0
 10
71.1724
 20
5.43814
 11
71.0785
 21
5.43025
  0
LINE
  8
0
 10
71.0785
 20
5.43025
 11
70.9843
 21
5.42828
  0
LINE
  8
0
 10
70.9843
 20
5.42828
 11
70.8902
 21
5.43222
  0
LINE
  8
0
 10
74.9168
 20
-2.64868
 11
74.8336
 21
-2.64476
  0
LINE
  8
0
 10
74.8336
 20
-2.64476
 11
74.7506
 21
-2.63823
  0
LINE
  8
0
 10
74.7506
 20
-2.63823
 11
74.6679
 21
-2.62909
  0
LINE
  8
0
 10
74.6679
 20
-2.62909
 11
74.5854
 21
-2.61737
  0
LINE
  8
0
 10
74.5854
 20
-2.61737
 11
74.5034
 21
-2.60306
  0
LINE
  8
0
 10
74.5034
 20
-2.60306
 11
74.4219
 21
-2.58617
  0
LINE
  8
0
 10
74.4219
 20
-2.58617
 11
74.341
 21
-2.56674
  0
LINE
  8
0
 10
74.341
 20
-2.56674
 11
74.2607
 21
-2.54477
  0
LINE
  8
0
 10
74.2607
 20
-2.54477
 11
74.1811
 21
-2.52029
  0
LINE
  8
0
 10
74.1811
 20
-2.52029
 11
74.1024
 21
-2.49333
  0
LINE
  8
0
 10
74.1024
 20
-2.49333
 11
74.0245
 21
-2.4639
  0
LINE
  8
0
 10
74.0245
 20
-2.4639
 11
73.9476
 21
-2.43204
  0
LINE
  8
0
 10
73.9476
 20
-2.43204
 11
73.8717
 21
-2.39778
  0
LINE
  8
0
 10
73.8717
 20
-2.39778
 11
73.7969
 21
-2.36116
  0
LINE
  8
0
 10
73.7969
 20
-2.36116
 11
73.7234
 21
-2.3222
  0
LINE
  8
0
 10
73.7234
 20
-2.3222
 11
73.651
 21
-2.28096
  0
LINE
  8
0
 10
73.651
 20
-2.28096
 11
73.5801
 21
-2.23746
  0
LINE
  8
0
 10
73.5801
 20
-2.23746
 11
73.5105
 21
-2.19176
  0
LINE
  8
0
 10
73.5105
 20
-2.19176
 11
73.4424
 21
-2.14389
  0
LINE
  8
0
 10
73.4424
 20
-2.14389
 11
73.3758
 21
-2.0939
  0
LINE
  8
0
 10
73.3758
 20
-2.0939
 11
73.3108
 21
-2.04185
  0
LINE
  8
0
 10
73.3108
 20
-2.04185
 11
73.2475
 21
-1.98779
  0
LINE
  8
0
 10
73.2475
 20
-1.98779
 11
73.2
 21
-1.94455
  0
LINE
  8
0
 10
73.2
 20
-1.94455
 11
73.2
 21
1.94455
  0
LINE
  8
0
 10
73.2
 20
1.94455
 11
73.2475
 21
1.98779
  0
LINE
  8
0
 10
73.2475
 20
1.98779
 11
73.3108
 21
2.04185
  0
LINE
  8
0
 10
73.3108
 20
2.04185
 11
73.3758
 21
2.0939
  0
LINE
  8
0
 10
73.3758
 20
2.0939
 11
73.4424
 21
2.14389
  0
LINE
  8
0
 10
73.4424
 20
2.14389
 11
73.5105
 21
2.19176
  0
LINE
  8
0
 10
73.5105
 20
2.19176
 11
73.5801
 21
2.23746
  0
LINE
  8
0
 10
73.5801
 20
2.23746
 11
73.651
 21
2.28096
  0
LINE
  8
0
 10
73.651
 20
2.28096
 11
73.7234
 21
2.3222
  0
LINE
  8
0
 10
73.7234
 20
2.3222
 11
73.7969
 21
2.36116
  0
LINE
  8
0
 10
73.7969
 20
2.36116
 11
73.8717
 21
2.39778
  0
LINE
  8
0
 10
73.8717
 20
2.39778
 11
73.9476
 21
2.43204
  0
LINE
  8
0
 10
73.9476
 20
2.43204
 11
74.0245
 21
2.4639
  0
LINE
  8
0
 10
74.0245
 20
2.4639
 11
74.1024
 21
2.49333
  0
LINE
  8
0
 10
74.1024
 20
2.49333
 11
74.1811
 21
2.52029
  0
LINE
  8
0
 10
74.1811
 20
2.52029
 11
74.2607
 21
2.54477
  0
LINE
  8
0
 10
74.2607
 20
2.54477
 11
74.341
 21
2.56674
  0
LINE
  8
0
 10
74.341
 20
2.56674
 11
74.4219
 21
2.58617
  0
LINE
  8
0
 10
74.4219
 20
2.58617
 11
74.5034
 21
2.60306
  0
LINE
  8
0
 10
74.5034
 20
2.60306
 11
74.5854
 21
2.61737
  0
LINE
  8
0
 10
74.5854
 20
2.61737
 11
74.6679
 21
2.62909
  0
LINE
  8
0
 10
74.6679
 20
2.62909
 11
74.7506
 21
2.63823
  0
LINE
  8
0
 10
74.7506
 20
2.63823
 11
74.8336
 21
2.64476
  0
LINE
  8
0
 10
74.8336
 20
2.64476
 11
74.9168
 21
2.64868
  0
LINE
  8
0
 10
74.9168
 20
2.64868
 11
75
 21
2.64999
  0
LINE
  8
0
 10
75
 20
2.64999
 11
75.0832
 21
2.64868
  0
LINE
  8
0
 10
75.0832
 20
2.64868
 11
75.1664
 21
2.64476
  0
LINE
  8
0
 10
75.1664
 20
2.64476
 11
75.2494
 21
2.63823
  0
LINE
  8
0
 10
75.2494
 20
2.63823
 11
75.3321
 21
2.62909
  0
LINE
  8
0
 10
75.3321
 20
2.62909
 11
75.4146
 21
2.61737
  0
LINE
  8
0
 10
75.4146
 20
2.61737
 11
75.4966
 21
2.60306
  0
LINE
  8
0
 10
75.4966
 20
2.60306
 11
75.5781
 21
2.58617
  0
LINE
  8
0
 10
75.5781
 20
2.58617
 11
75.659
 21
2.56674
  0
LINE
  8
0
 10
75.659
 20
2.56674
 11
75.7393
 21
2.54477
  0
LINE
  8
0
 10
75.7393
 20
2.54477
 11
75.8189
 21
2.52029
  0
LINE
  8
0
 10
75.8189
 20
2.52029
 11
75.8976
 21
2.49333
  0
LINE
  8
0
 10
75.8976
 20
2.49333
 11
75.9755
 21
2.4639
  0
LINE
  8
0
 10
75.9755
 20
2.4639
 11
76.0524
 21
2.43204
  0
LINE
  8
0
 10
76.0524
 20
2.43204
 11
76.1283
 21
2.39778
  0
LINE
  8
0
 10
76.1283
 20
2.39778
 11
76.2031
 21
2.36116
  0
LINE
  8
0
 10
76.2031
 20
2.36116
 11
76.2766
 21
2.3222
  0
LINE
  8
0
 10
76.2766
 20
2.3222
 11
76.349
 21
2.28096
  0
LINE
  8
0
 10
76.349
 20
2.28096
 11
76.4199
 21
2.23746
  0
LINE
  8
0
 10
76.4199
 20
2.23746
 11
76.4895
 21
2.19176
  0
LINE
  8
0
 10
76.4895
 20
2.19176
 11
76.5576
 21
2.14389
  0
LINE
  8
0
 10
76.5576
 20
2.14389
 11
76.6242
 21
2.0939
  0
LINE
  8
0
 10
76.6242
 20
2.0939
 11
76.6892
 21
2.04185
  0
LINE
  8
0
 10
76.6892
 20
2.04185
 11
76.7525
 21
1.98779
  0
LINE
  8
0
 10
76.7525
 20
1.98779
 11
76.8
 21
1.94455
  0
LINE
  8
0
 10
76.8
 20
1.94455
 11
76.8
 21
-1.94455
  0
LINE
  8
0
 10
76.8
 20
-1.94455
 11
76.7525
 21
-1.98779
  0
LINE
  8
0
 10
76.7525
 20
-1.98779
 11
76.6892
 21
-2.04185
  0
LINE
  8
0
 10
76.6892
 20
-2.04185
 11
76.6242
 21
-2.0939
  0
LINE
  8
0
 10
76.6242
 20
-2.0939
 11
76.5576
 21
-2.14389
  0
LINE
  8
0
 10
76.5576
 20
-2.14389
 11
76.4895
 21
-2.19176
  0
LINE
  8
0
 10
76.4895
 20
-2.19176
 11
76.4199
 21
-2.23746
  0
LINE
  8
0
 10
76.4199
 20
-2.23746
 11
76.349
 21
-2.28096
  0
LINE
  8
0
 10
76.349
 20
-2.28096
 11
76.2766
 21
-2.3222
  0
LINE
  8
0
 10
76.2766
 20
-2.3222
 11
76.2031
 21
-2.36116
  0
LINE
  8
0
 10
76.2031
 20
-2.36116
 11
76.1283
 21
-2.39778
  0
LINE
  8
0
 10
76.1283
 20
-2.39778
 11
76.0524
 21
-2.43204
  0
LINE
  8
0
 10
76.0524
 20
-2.43204
 11
75.9755
 21
-2.4639
  0
LINE
  8
0
 10
75.9755
 20
-2.4639
 11
75.8976
 21
-2.49333
  0
LINE
  8
0
 10
75.8976
 20
-2.49333
 11
75.8189
 21
-2.52029
  0
LINE
  8
0
 10
75.8189
 20
-2.52029
 11
75.7393
 21
-2.54477
  0
LINE
  8
0
 10
75.7393
 20
-2.54477
 11
75.659
 21
-2.56674
  0
LINE
  8
0
 10
75.659
 20
-2.56674
 11
75.5781
 21
-2.58617
  0
LINE
  8
0
 10
75.5781
 20
-2.58617
 11
75.4966
 21
-2.60306
  0
LINE
  8
0
 10
75.4966
 20
-2.60306
 11
75.4146
 21
-2.61737
  0
LINE
  8
0
 10
75.4146
 20
-2.61737
 11
75.3321
 21
-2.62909
  0
LINE
  8
0
 10
75.3321
 20
-2.62909
 11
75.2494
 21
-2.63823
  0
LINE
  8
0
 10
75.2494
 20
-2.63823
 11
75.1664
 21
-2.64476
  0
LINE
  8
0
 10
75.1664
 20
-2.64476
 11
75.0832
 21
-2.64868
  0
LINE
  8
0
 10
75.0832
 20
-2.64868
 11
75
 21
-2.64999
  0
LINE
  8
0
 10
75
 20
-2.64999
 11
74.9168
 21
-2.64868
  0
LINE
  8
0
 10
82.9058
 20
-1.49704
 11
82.812
 21
-1.48816
  0
LINE
  8
0
 10
82.812
 20
-1.48816
 11
82.7189
 21
-1.47342
  0
LINE
  8
0
 10
82.7189
 20
-1.47342
 11
82.627
 21
-1.45287
  0
LINE
  8
0
 10
82.627
 20
-1.45287
 11
82.5365
 21
-1.42657
  0
LINE
  8
0
 10
82.5365
 20
-1.42657
 11
82.4478
 21
-1.39465
  0
LINE
  8
0
 10
82.4478
 20
-1.39465
 11
82.3613
 21
-1.35724
  0
LINE
  8
0
 10
82.3613
 20
-1.35724
 11
82.2774
 21
-1.31445
  0
LINE
  8
0
 10
82.2774
 20
-1.31445
 11
82.1963
 21
-1.26648
  0
LINE
  8
0
 10
82.1963
 20
-1.26648
 11
82.1183
 21
-1.21352
  0
LINE
  8
0
 10
82.1183
 20
-1.21352
 11
82.0439
 21
-1.15576
  0
LINE
  8
0
 10
82.0439
 20
-1.15576
 11
81.9732
 21
-1.09344
  0
LINE
  8
0
 10
81.9732
 20
-1.09344
 11
81.9065
 21
-1.02681
  0
LINE
  8
0
 10
81.9065
 20
-1.02681
 11
81.8442
 21
-0.956131
  0
LINE
  8
0
 10
81.8442
 20
-0.956131
 11
81.7865
 21
-0.881668
  0
LINE
  8
0
 10
81.7865
 20
-0.881668
 11
81.7335
 21
-0.803726
  0
LINE
  8
0
 10
81.7335
 20
-0.803726
 11
81.6855
 21
-0.722626
  0
LINE
  8
0
 10
81.6855
 20
-0.722626
 11
81.6427
 21
-0.638657
  0
LINE
  8
0
 10
81.6427
 20
-0.638657
 11
81.6053
 21
-0.552185
  0
LINE
  8
0
 10
81.6053
 20
-0.552185
 11
81.5734
 21
-0.463516
  0
LINE
  8
0
 10
81.5734
 20
-0.463516
 11
81.5471
 21
-0.373032
  0
LINE
  8
0
 10
81.5471
 20
-0.373032
 11
81.5266
 21
-0.281067
  0
LINE
  8
0
 10
81.5266
 20
-0.281067
 11
81.5118
 21
-0.187988
  0
LINE
  8
0
 10
81.5118
 20
-0.187988
 11
81.5029
 21
-0.0941772
  0
LINE
  8
0
 10
81.5029
 20
-0.0941772
 11
81.5
 21
0
  0
LINE
  8
0
 10
81.5
 20
0
 11
81.5029
 21
0.0941772
  0
LINE
  8
0
 10
81.5029
 20
0.0941772
 11
81.5118
 21
0.187988
  0
LINE
  8
0
 10
81.5118
 20
0.187988
 11
81.5266
 21
0.281067
  0
LINE
  8
0
 10
81.5266
 20
0.281067
 11
81.5471
 21
0.373032
  0
LINE
  8
0
 10
81.5471
 20
0.373032
 11
81.5734
 21
0.463516
  0
LINE
  8
0
 10
81.5734
 20
0.463516
 11
81.6053
 21
0.552185
  0
LINE
  8
0
 10
81.6053
 20
0.552185
 11
81.6427
 21
0.638657
  0
LINE
  8
0
 10
81.6427
 20
0.638657
 11
81.6855
 21
0.722626
  0
LINE
  8
0
 10
81.6855
 20
0.722626
 11
81.7335
 21
0.803726
  0
LINE
  8
0
 10
81.7335
 20
0.803726
 11
81.7865
 21
0.881668
  0
LINE
  8
0
 10
81.7865
 20
0.881668
 11
81.8442
 21
0.956131
  0
LINE
  8
0
 10
81.8442
 20
0.956131
 11
81.9065
 21
1.02681
  0
LINE
  8
0
 10
81.9065
 20
1.02681
 11
81.9732
 21
1.09344
  0
LINE
  8
0
 10
81.9732
 20
1.09344
 11
82.0439
 21
1.15576
  0
LINE
  8
0
 10
82.0439
 20
1.15576
 11
82.1183
 21
1.21352
  0
LINE
  8
0
 10
82.1183
 20
1.21352
 11
82.1963
 21
1.26648
  0
LINE
  8
0
 10
82.1963
 20
1.26648
 11
82.2774
 21
1.31445
  0
LINE
  8
0
 10
82.2774
 20
1.31445
 11
82.3613
 21
1.35724
  0
LINE
  8
0
 10
82.3613
 20
1.35724
 11
82.4478
 21
1.39465
  0
LINE
  8
0
 10
82.4478
 20
1.39465
 11
82.5365
 21
1.42657
  0
LINE
  8
0
 10
82.5365
 20
1.42657
 11
82.627
 21
1.45287
  0
LINE
  8
0
 10
82.627
 20
1.45287
 11
82.7189
 21
1.47342
  0
LINE
  8
0
 10
82.7189
 20
1.47342
 11
82.812
 21
1.48816
  0
LINE
  8
0
 10
82.812
 20
1.48816
 11
82.9058
 21
1.49704
  0
LINE
  8
0
 10
82.9058
 20
1.49704
 11
83
 21
1.5
  0
LINE
  8
0
 10
83
 20
1.5
 11
83.0942
 21
1.49704
  0
LINE
  8
0
 10
83.0942
 20
1.49704
 11
83.188
 21
1.48816
  0
LINE
  8
0
 10
83.188
 20
1.48816
 11
83.2811
 21
1.47342
  0
LINE
  8
0
 10
83.2811
 20
1.47342
 11
83.373
 21
1.45287
  0
LINE
  8
0
 10
83.373
 20
1.45287
 11
83.4635
 21
1.42657
  0
LINE
  8
0
 10
83.4635
 20
1.42657
 11
83.5522
 21
1.39465
  0
LINE
  8
0
 10
83.5522
 20
1.39465
 11
83.6387
 21
1.35724
  0
LINE
  8
0
 10
83.6387
 20
1.35724
 11
83.7226
 21
1.31445
  0
LINE
  8
0
 10
83.7226
 20
1.31445
 11
83.8037
 21
1.26648
  0
LINE
  8
0
 10
83.8037
 20
1.26648
 11
83.8817
 21
1.21352
  0
LINE
  8
0
 10
83.8817
 20
1.21352
 11
83.9561
 21
1.15576
  0
LINE
  8
0
 10
83.9561
 20
1.15576
 11
84.0268
 21
1.09344
  0
LINE
  8
0
 10
84.0268
 20
1.09344
 11
84.0934
 21
1.02681
  0
LINE
  8
0
 10
84.0934
 20
1.02681
 11
84.1558
 21
0.956131
  0
LINE
  8
0
 10
84.1558
 20
0.956131
 11
84.2135
 21
0.881668
  0
LINE
  8
0
 10
84.2135
 20
0.881668
 11
84.2665
 21
0.803726
  0
LINE
  8
0
 10
84.2665
 20
0.803726
 11
84.3145
 21
0.722626
  0
LINE
  8
0
 10
84.3145
 20
0.722626
 11
84.3572
 21
0.638657
  0
LINE
  8
0
 10
84.3572
 20
0.638657
 11
84.3947
 21
0.552185
  0
LINE
  8
0
 10
84.3947
 20
0.552185
 11
84.4266
 21
0.463516
  0
LINE
  8
0
 10
84.4266
 20
0.463516
 11
84.4529
 21
0.373032
  0
LINE
  8
0
 10
84.4529
 20
0.373032
 11
84.4734
 21
0.281067
  0
LINE
  8
0
 10
84.4734
 20
0.281067
 11
84.4882
 21
0.187988
  0
LINE
  8
0
 10
84.4882
 20
0.187988
 11
84.497
 21
0.0941772
  0
LINE
  8
0
 10
84.497
 20
0.0941772
 11
84.5
 21
0
  0
LINE
  8
0
 10
84.5
 20
0
 11
84.497
 21
-0.0941772
  0
LINE
  8
0
 10
84.497
 20
-0.0941772
 11
84.4882
 21
-0.187988
  0
LINE
  8
0
 10
84.4882
 20
-0.187988
 11
84.4734
 21
-0.281067
  0
LINE
  8
0
 10
84.4734
 20
-0.281067
 11
84.4529
 21
-0.373032
  0
LINE
  8
0
 10
84.4529
 20
-0.373032
 11
84.4266
 21
-0.463516
  0
LINE
  8
0
 10
84.4266
 20
-0.463516
 11
84.3947
 21
-0.552185
  0
LINE
  8
0
 10
84.3947
 20
-0.552185
 11
84.3572
 21
-0.638657
  0
LINE
  8
0
 10
84.3572
 20
-0.638657
 11
84.3145
 21
-0.722626
  0
LINE
  8
0
 10
84.3145
 20
-0.722626
 11
84.2665
 21
-0.803726
  0
LINE
  8
0
 10
84.2665
 20
-0.803726
 11
84.2135
 21
-0.881668
  0
LINE
  8
0
 10
84.2135
 20
-0.881668
 11
84.1558
 21
-0.956131
  0
LINE
  8
0
 10
84.1558
 20
-0.956131
 11
84.0934
 21
-1.02681
  0
LINE
  8
0
 10
84.0934
 20
-1.02681
 11
84.0268
 21
-1.09344
  0
LINE
  8
0
 10
84.0268
 20
-1.09344
 11
83.9561
 21
-1.15576
  0
LINE
  8
0
 10
83.9561
 20
-1.15576
 11
83.8817
 21
-1.21352
  0
LINE
  8
0
 10
83.8817
 20
-1.21352
 11
83.8037
 21
-1.26648
  0
LINE
  8
0
 10
83.8037
 20
-1.26648
 11
83.7226
 21
-1.31445
  0
LINE
  8
0
 10
83.7226
 20
-1.31445
 11
83.6387
 21
-1.35724
  0
LINE
  8
0
 10
83.6387
 20
-1.35724
 11
83.5522
 21
-1.39465
  0
LINE
  8
0
 10
83.5522
 20
-1.39465
 11
83.4635
 21
-1.42657
  0
LINE
  8
0
 10
83.4635
 20
-1.42657
 11
83.373
 21
-1.45287
  0
LINE
  8
0
 10
83.373
 20
-1.45287
 11
83.2811
 21
-1.47342
  0
LINE
  8
0
 10
83.2811
 20
-1.47342
 11
83.188
 21
-1.48816
  0
LINE
  8
0
 10
83.188
 20
-1.48816
 11
83.0942
 21
-1.49704
  0
LINE
  8
0
 10
83.0942
 20
-1.49704
 11
83
 21
-1.5
  0
LINE
  8
0
 10
83
 20
-1.5
 11
82.9058
 21
-1.49704
  0
LINE
  8
0
 10
70.9215
 20
-8.42615
 11
70.8276
 21
-8.41826
  0
LINE
  8
0
 10
70.8276
 20
-8.41826
 11
70.7344
 21
-8.4045
  0
LINE
  8
0
 10
70.7344
 20
-8.4045
 11
70.6422
 21
-8.3849
  0
LINE
  8
0
 10
70.6422
 20
-8.3849
 11
70.5515
 21
-8.35956
  0
LINE
  8
0
 10
70.5515
 20
-8.35956
 11
70.4624
 21
-8.32857
  0
LINE
  8
0
 10
70.4624
 20
-8.32857
 11
70.3756
 21
-8.29205
  0
LINE
  8
0
 10
70.3756
 20
-8.29205
 11
70.2912
 21
-8.25015
  0
LINE
  8
0
 10
70.2912
 20
-8.25015
 11
70.2096
 21
-8.20303
  0
LINE
  8
0
 10
70.2096
 20
-8.20303
 11
70.1311
 21
-8.15089
  0
LINE
  8
0
 10
70.1311
 20
-8.15089
 11
70.056
 21
-8.09392
  0
LINE
  8
0
 10
70.056
 20
-8.09392
 11
69.9847
 21
-8.03235
  0
LINE
  8
0
 10
69.9847
 20
-8.03235
 11
69.9174
 21
-7.96642
  0
LINE
  8
0
 10
69.9174
 20
-7.96642
 11
69.8543
 21
-7.89638
  0
LINE
  8
0
 10
69.8543
 20
-7.89638
 11
69.7958
 21
-7.82254
  0
LINE
  8
0
 10
69.7958
 20
-7.82254
 11
69.742
 21
-7.74515
  0
LINE
  8
0
 10
69.742
 20
-7.74515
 11
69.6932
 21
-7.66455
  0
LINE
  8
0
 10
69.6932
 20
-7.66455
 11
69.6495
 21
-7.58104
  0
LINE
  8
0
 10
69.6495
 20
-7.58104
 11
69.6112
 21
-7.49495
  0
LINE
  8
0
 10
69.6112
 20
-7.49495
 11
69.5784
 21
-7.40663
  0
LINE
  8
0
 10
69.5784
 20
-7.40663
 11
69.5511
 21
-7.31642
  0
LINE
  8
0
 10
69.5511
 20
-7.31642
 11
69.5296
 21
-7.22469
  0
LINE
  8
0
 10
69.5296
 20
-7.22469
 11
69.5139
 21
-7.13177
  0
LINE
  8
0
 10
69.5139
 20
-7.13177
 11
69.504
 21
-7.03806
  0
LINE
  8
0
 10
69.504
 20
-7.03806
 11
69.5001
 21
-6.94391
  0
LINE
  8
0
 10
69.5001
 20
-6.94391
 11
69.5021
 21
-6.84969
  0
LINE
  8
0
 10
69.5021
 20
-6.84969
 11
69.5099
 21
-6.75578
  0
LINE
  8
0
 10
69.5099
 20
-6.75578
 11
69.5237
 21
-6.66257
  0
LINE
  8
0
 10
69.5237
 20
-6.66257
 11
69.5433
 21
-6.57039
  0
LINE
  8
0
 10
69.5433
 20
-6.57039
 11
69.5686
 21
-6.47963
  0
LINE
  8
0
 10
69.5686
 20
-6.47963
 11
69.5996
 21
-6.39064
  0
LINE
  8
0
 10
69.5996
 20
-6.39064
 11
69.6362
 21
-6.30377
  0
LINE
  8
0
 10
69.6362
 20
-6.30377
 11
69.6781
 21
-6.21938
  0
LINE
  8
0
 10
69.6781
 20
-6.21938
 11
69.7252
 21
-6.13776
  0
LINE
  8
0
 10
69.7252
 20
-6.13776
 11
69.7773
 21
-6.05928
  0
LINE
  8
0
 10
69.7773
 20
-6.05928
 11
69.8343
 21
-5.98422
  0
LINE
  8
0
 10
69.8343
 20
-5.98422
 11
69.8959
 21
-5.91289
  0
LINE
  8
0
 10
69.8959
 20
-5.91289
 11
69.9618
 21
-5.84555
  0
LINE
  8
0
 10
69.9618
 20
-5.84555
 11
70.0318
 21
-5.7825
  0
LINE
  8
0
 10
70.0318
 20
-5.7825
 11
70.1057
 21
-5.72397
  0
LINE
  8
0
 10
70.1057
 20
-5.72397
 11
70.183
 21
-5.6702
  0
LINE
  8
0
 10
70.183
 20
-5.6702
 11
70.2637
 21
-5.62137
  0
LINE
  8
0
 10
70.2637
 20
-5.62137
 11
70.3472
 21
-5.57771
  0
LINE
  8
0
 10
70.3472
 20
-5.57771
 11
70.4332
 21
-5.53938
  0
LINE
  8
0
 10
70.4332
 20
-5.53938
 11
70.5216
 21
-5.50655
  0
LINE
  8
0
 10
70.5216
 20
-5.50655
 11
70.6118
 21
-5.47931
  0
LINE
  8
0
 10
70.6118
 20
-5.47931
 11
70.7035
 21
-5.45779
  0
LINE
  8
0
 10
70.7035
 20
-5.45779
 11
70.7964
 21
-5.44208
  0
LINE
  8
0
 10
70.7964
 20
-5.44208
 11
70.8902
 21
-5.43222
  0
LINE
  8
0
 10
70.8902
 20
-5.43222
 11
70.9843
 21
-5.42828
  0
LINE
  8
0
 10
70.9843
 20
-5.42828
 11
71.0785
 21
-5.43025
  0
LINE
  8
0
 10
71.0785
 20
-5.43025
 11
71.1724
 21
-5.43814
  0
LINE
  8
0
 10
71.1724
 20
-5.43814
 11
71.2656
 21
-5.4519
  0
LINE
  8
0
 10
71.2656
 20
-5.4519
 11
71.3578
 21
-5.4715
  0
LINE
  8
0
 10
71.3578
 20
-5.4715
 11
71.4486
 21
-5.49684
  0
LINE
  8
0
 10
71.4486
 20
-5.49684
 11
71.5376
 21
-5.52783
  0
LINE
  8
0
 10
71.5376
 20
-5.52783
 11
71.6244
 21
-5.56435
  0
LINE
  8
0
 10
71.6244
 20
-5.56435
 11
71.7088
 21
-5.60625
  0
LINE
  8
0
 10
71.7088
 20
-5.60625
 11
71.7904
 21
-5.65335
  0
LINE
  8
0
 10
71.7904
 20
-5.65335
 11
71.8689
 21
-5.70551
  0
LINE
  8
0
 10
71.8689
 20
-5.70551
 11
71.944
 21
-5.76248
  0
LINE
  8
0
 10
71.944
 20
-5.76248
 11
72.0153
 21
-5.82405
  0
LINE
  8
0
 10
72.0153
 20
-5.82405
 11
72.0826
 21
-5.88998
  0
LINE
  8
0
 10
72.0826
 20
-5.88998
 11
72.1457
 21
-5.96001
  0
LINE
  8
0
 10
72.1457
 20
-5.96001
 11
72.2042
 21
-6.03386
  0
LINE
  8
0
 10
72.2042
 20
-6.03386
 11
72.258
 21
-6.11124
  0
LINE
  8
0
 10
72.258
 20
-6.11124
 11
72.3068
 21
-6.19183
  0
LINE
  8
0
 10
72.3068
 20
-6.19183
 11
72.3505
 21
-6.27534
  0
LINE
  8
0
 10
72.3505
 20
-6.27534
 11
72.3888
 21
-6.36143
  0
LINE
  8
0
 10
72.3888
 20
-6.36143
 11
72.4217
 21
-6.44975
  0
LINE
  8
0
 10
72.4217
 20
-6.44975
 11
72.4489
 21
-6.53996
  0
LINE
  8
0
 10
72.4489
 20
-6.53996
 11
72.4704
 21
-6.63171
  0
LINE
  8
0
 10
72.4704
 20
-6.63171
 11
72.4861
 21
-6.72462
  0
LINE
  8
0
 10
72.4861
 20
-6.72462
 11
72.496
 21
-6.81834
  0
LINE
  8
0
 10
72.496
 20
-6.81834
 11
72.4999
 21
-6.91249
  0
LINE
  8
0
 10
72.4999
 20
-6.91249
 11
72.498
 21
-7.0067
  0
LINE
  8
0
 10
72.498
 20
-7.0067
 11
72.4901
 21
-7.1006
  0
LINE
  8
0
 10
72.4901
 20
-7.1006
 11
72.4763
 21
-7.19382
  0
LINE
  8
0
 10
72.4763
 20
-7.19382
 11
72.4567
 21
-7.286
  0
LINE
  8
0
 10
72.4567
 20
-7.286
 11
72.4314
 21
-7.37675
  0
LINE
  8
0
 10
72.4314
 20
-7.37675
 11
72.4004
 21
-7.46574
  0
LINE
  8
0
 10
72.4004
 20
-7.46574
 11
72.3639
 21
-7.55261
  0
LINE
  8
0
 10
72.3639
 20
-7.55261
 11
72.322
 21
-7.63702
  0
LINE
  8
0
 10
72.322
 20
-7.63702
 11
72.2748
 21
-7.71863
  0
LINE
  8
0
 10
72.2748
 20
-7.71863
 11
72.2227
 21
-7.79712
  0
LINE
  8
0
 10
72.2227
 20
-7.79712
 11
72.1657
 21
-7.87218
  0
LINE
  8
0
 10
72.1657
 20
-7.87218
 11
72.1042
 21
-7.94351
  0
LINE
  8
0
 10
72.1042
 20
-7.94351
 11
72.0382
 21
-8.01083
  0
LINE
  8
0
 10
72.0382
 20
-8.01083
 11
71.9682
 21
-8.07388
  0
LINE
  8
0
 10
71.9682
 20
-8.07388
 11
71.8943
 21
-8.13242
  0
LINE
  8
0
 10
71.8943
 20
-8.13242
 11
71.817
 21
-8.1862
  0
LINE
  8
0
 10
71.817
 20
-8.1862
 11
71.7364
 21
-8.23502
  0
LINE
  8
0
 10
71.7364
 20
-8.23502
 11
71.6528
 21
-8.27867
  0
LINE
  8
0
 10
71.6528
 20
-8.27867
 11
71.5668
 21
-8.317
  0
LINE
  8
0
 10
71.5668
 20
-8.317
 11
71.4784
 21
-8.34985
  0
LINE
  8
0
 10
71.4784
 20
-8.34985
 11
71.3882
 21
-8.37709
  0
LINE
  8
0
 10
71.3882
 20
-8.37709
 11
71.2965
 21
-8.39861
  0
LINE
  8
0
 10
71.2965
 20
-8.39861
 11
71.2036
 21
-8.41432
  0
LINE
  8
0
 10
71.2036
 20
-8.41432
 11
71.1099
 21
-8.42416
  0
LINE
  8
0
 10
71.1099
 20
-8.42416
 11
71.0157
 21
-8.42812
  0
LINE
  8
0
 10
71.0157
 20
-8.42812
 11
70.9215
 21
-8.42615
  0
ENDSEC
  0
SECTION
  2
OBJECTS
  0
DICTIONARY
  0
ENDSEC
  0
EOF
