  0
SECTION
  2
BLOCKS
  0
ENDSEC
  0
SECTION
  2
ENTITIES
  0
LINE
  8
0
 10
1.25642
 20
-39.9803
 11
2.51161
 21
-39.9211
  0
LINE
  8
0
 10
2.51161
 20
-39.9211
 11
3.76433
 21
-39.8225
  0
LINE
  8
0
 10
3.76433
 20
-39.8225
 11
5.01332
 21
-39.6846
  0
LINE
  8
0
 10
5.01332
 20
-39.6846
 11
6.25737
 21
-39.5075
  0
LINE
  8
0
 10
6.25737
 20
-39.5075
 11
7.49524
 21
-39.2915
  0
LINE
  8
0
 10
7.49524
 20
-39.2915
 11
8.72572
 21
-39.0367
  0
LINE
  8
0
 10
8.72572
 20
-39.0367
 11
9.94759
 21
-38.7433
  0
LINE
  8
0
 10
9.94759
 20
-38.7433
 11
11.1596
 21
-38.4117
  0
LINE
  8
0
 10
11.1596
 20
-38.4117
 11
12.3607
 21
-38.0423
  0
LINE
  8
0
 10
12.3607
 20
-38.0423
 11
13.5495
 21
-37.6352
  0
LINE
  8
0
 10
13.5495
 20
-37.6352
 11
14.725
 21
-37.1911
  0
LINE
  8
0
 10
14.725
 20
-37.1911
 11
15.8859
 21
-36.7102
  0
LINE
  8
0
 10
15.8859
 20
-36.7102
 11
17.0312
 21
-36.1931
  0
LINE
  8
0
 10
17.0312
 20
-36.1931
 11
18.1596
 21
-35.6403
  0
LINE
  8
0
 10
18.1596
 20
-35.6403
 11
19.2701
 21
-35.0523
  0
LINE
  8
0
 10
19.2701
 20
-35.0523
 11
20.3616
 21
-34.4297
  0
LINE
  8
0
 10
20.3616
 20
-34.4297
 11
21.4331
 21
-33.7731
  0
LINE
  8
0
 10
21.4331
 20
-33.7731
 11
22.4833
 21
-33.0832
  0
LINE
  8
0
 10
22.4833
 20
-33.0832
 11
23.5114
 21
-32.3607
  0
LINE
  8
0
 10
23.5114
 20
-32.3607
 11
24.5163
 21
-31.6062
  0
LINE
  8
0
 10
24.5163
 20
-31.6062
 11
25.4969
 21
-30.8205
  0
LINE
  8
0
 10
25.4969
 20
-30.8205
 11
26.4525
 21
-30.0044
  0
LINE
  8
0
 10
26.4525
 20
-30.0044
 11
27.3819
 21
-29.1587
  0
LINE
  8
0
 10
27.3819
 20
-29.1587
 11
28.2843
 21
-28.2843
  0
LINE
  8
0
 10
28.2843
 20
-28.2843
 11
29.1587
 21
-27.3819
  0
LINE
  8
0
 10
29.1587
 20
-27.3819
 11
30.0044
 21
-26.4525
  0
LINE
  8
0
 10
30.0044
 20
-26.4525
 11
30.8205
 21
-25.4969
  0
LINE
  8
0
 10
30.8205
 20
-25.4969
 11
31.6062
 21
-24.5163
  0
LINE
  8
0
 10
31.6062
 20
-24.5163
 11
32.3607
 21
-23.5114
  0
LINE
  8
0
 10
32.3607
 20
-23.5114
 11
33.0832
 21
-22.4833
  0
LINE
  8
0
 10
33.0832
 20
-22.4833
 11
33.7731
 21
-21.4331
  0
LINE
  8
0
 10
33.7731
 20
-21.4331
 11
34.4297
 21
-20.3616
  0
LINE
  8
0
 10
34.4297
 20
-20.3616
 11
35.0523
 21
-19.2701
  0
LINE
  8
0
 10
35.0523
 20
-19.2701
 11
35.6403
 21
-18.1596
  0
LINE
  8
0
 10
35.6403
 20
-18.1596
 11
36.1931
 21
-17.0312
  0
LINE
  8
0
 10
36.1931
 20
-17.0312
 11
36.7102
 21
-15.8859
  0
LINE
  8
0
 10
36.7102
 20
-15.8859
 11
37.1911
 21
-14.725
  0
LINE
  8
0
 10
37.1911
 20
-14.725
 11
37.6352
 21
-13.5495
  0
LINE
  8
0
 10
37.6352
 20
-13.5495
 11
38.0423
 21
-12.3607
  0
LINE
  8
0
 10
38.0423
 20
-12.3607
 11
38.4117
 21
-11.1596
  0
LINE
  8
0
 10
38.4117
 20
-11.1596
 11
38.7433
 21
-9.94759
  0
LINE
  8
0
 10
38.7433
 20
-9.94759
 11
39.0367
 21
-8.72572
  0
LINE
  8
0
 10
39.0367
 20
-8.72572
 11
39.2915
 21
-7.49524
  0
LINE
  8
0
 10
39.2915
 20
-7.49524
 11
39.5075
 21
-6.25737
  0
LINE
  8
0
 10
39.5075
 20
-6.25737
 11
39.6846
 21
-5.01332
  0
LINE
  8
0
 10
39.6846
 20
-5.01332
 11
39.8225
 21
-3.76433
  0
LINE
  8
0
 10
39.8225
 20
-3.76433
 11
39.9211
 21
-2.51161
  0
LINE
  8
0
 10
39.9211
 20
-2.51161
 11
39.9803
 21
-1.25642
  0
LINE
  8
0
 10
39.9803
 20
-1.25642
 11
40
 21
0
  0
LINE
  8
0
 10
40
 20
0
 11
39.9803
 21
1.25642
  0
LINE
  8
0
 10
39.9803
 20
1.25642
 11
39.9211
 21
2.51161
  0
LINE
  8
0
 10
39.9211
 20
2.51161
 11
39.8225
 21
3.76433
  0
LINE
  8
0
 10
39.8225
 20
3.76433
 11
39.6846
 21
5.01332
  0
LINE
  8
0
 10
39.6846
 20
5.01332
 11
39.5075
 21
6.25737
  0
LINE
  8
0
 10
39.5075
 20
6.25737
 11
39.2915
 21
7.49524
  0
LINE
  8
0
 10
39.2915
 20
7.49524
 11
39.0367
 21
8.72572
  0
LINE
  8
0
 10
39.0367
 20
8.72572
 11
38.7433
 21
9.94759
  0
LINE
  8
0
 10
38.7433
 20
9.94759
 11
38.4117
 21
11.1596
  0
LINE
  8
0
 10
38.4117
 20
11.1596
 11
38.0423
 21
12.3607
  0
LINE
  8
0
 10
38.0423
 20
12.3607
 11
37.6352
 21
13.5495
  0
LINE
  8
0
 10
37.6352
 20
13.5495
 11
37.1911
 21
14.725
  0
LINE
  8
0
 10
37.1911
 20
14.725
 11
36.7102
 21
15.8859
  0
LINE
  8
0
 10
36.7102
 20
15.8859
 11
36.1931
 21
17.0312
  0
LINE
  8
0
 10
36.1931
 20
17.0312
 11
35.6403
 21
18.1596
  0
LINE
  8
0
 10
35.6403
 20
18.1596
 11
35.0523
 21
19.2701
  0
LINE
  8
0
 10
35.0523
 20
19.2701
 11
34.4297
 21
20.3616
  0
LINE
  8
0
 10
34.4297
 20
20.3616
 11
33.7731
 21
21.4331
  0
LINE
  8
0
 10
33.7731
 20
21.4331
 11
33.0832
 21
22.4833
  0
LINE
  8
0
 10
33.0832
 20
22.4833
 11
32.3607
 21
23.5114
  0
LINE
  8
0
 10
32.3607
 20
23.5114
 11
31.6062
 21
24.5163
  0
LINE
  8
0
 10
31.6062
 20
24.5163
 11
30.8205
 21
25.4969
  0
LINE
  8
0
 10
30.8205
 20
25.4969
 11
30.0044
 21
26.4525
  0
LINE
  8
0
 10
30.0044
 20
26.4525
 11
29.1587
 21
27.3819
  0
LINE
  8
0
 10
29.1587
 20
27.3819
 11
28.2843
 21
28.2843
  0
LINE
  8
0
 10
28.2843
 20
28.2843
 11
27.3819
 21
29.1587
  0
LINE
  8
0
 10
27.3819
 20
29.1587
 11
26.4525
 21
30.0044
  0
LINE
  8
0
 10
26.4525
 20
30.0044
 11
25.4969
 21
30.8205
  0
LINE
  8
0
 10
25.4969
 20
30.8205
 11
24.5163
 21
31.6062
  0
LINE
  8
0
 10
24.5163
 20
31.6062
 11
23.5114
 21
32.3607
  0
LINE
  8
0
 10
23.5114
 20
32.3607
 11
22.4833
 21
33.0832
  0
LINE
  8
0
 10
22.4833
 20
33.0832
 11
21.4331
 21
33.7731
  0
LINE
  8
0
 10
21.4331
 20
33.7731
 11
20.3616
 21
34.4297
  0
LINE
  8
0
 10
20.3616
 20
34.4297
 11
19.2701
 21
35.0523
  0
LINE
  8
0
 10
19.2701
 20
35.0523
 11
18.1596
 21
35.6403
  0
LINE
  8
0
 10
18.1596
 20
35.6403
 11
17.0312
 21
36.1931
  0
LINE
  8
0
 10
17.0312
 20
36.1931
 11
15.8859
 21
36.7102
  0
LINE
  8
0
 10
15.8859
 20
36.7102
 11
14.725
 21
37.1911
  0
LINE
  8
0
 10
14.725
 20
37.1911
 11
13.5495
 21
37.6352
  0
LINE
  8
0
 10
13.5495
 20
37.6352
 11
12.3607
 21
38.0423
  0
LINE
  8
0
 10
12.3607
 20
38.0423
 11
11.1596
 21
38.4117
  0
LINE
  8
0
 10
11.1596
 20
38.4117
 11
9.94759
 21
38.7433
  0
LINE
  8
0
 10
9.94759
 20
38.7433
 11
8.72572
 21
39.0367
  0
LINE
  8
0
 10
8.72572
 20
39.0367
 11
7.49524
 21
39.2915
  0
LINE
  8
0
 10
7.49524
 20
39.2915
 11
6.25737
 21
39.5075
  0
LINE
  8
0
 10
6.25737
 20
39.5075
 11
5.01332
 21
39.6846
  0
LINE
  8
0
 10
5.01332
 20
39.6846
 11
3.76433
 21
39.8225
  0
LINE
  8
0
 10
3.76433
 20
39.8225
 11
2.51161
 21
39.9211
  0
LINE
  8
0
 10
2.51161
 20
39.9211
 11
1.25642
 21
39.9803
  0
LINE
  8
0
 10
1.25642
 20
39.9803
 11
0
 21
40
  0
LINE
  8
0
 10
0
 20
40
 11
-1.25642
 21
39.9803
  0
LINE
  8
0
 10
-1.25642
 20
39.9803
 11
-2.51161
 21
39.9211
  0
LINE
  8
0
 10
-2.51161
 20
39.9211
 11
-3.76433
 21
39.8225
  0
LINE
  8
0
 10
-3.76433
 20
39.8225
 11
-5.01332
 21
39.6846
  0
LINE
  8
0
 10
-5.01332
 20
39.6846
 11
-6.25737
 21
39.5075
  0
LINE
  8
0
 10
-6.25737
 20
39.5075
 11
-7.49524
 21
39.2915
  0
LINE
  8
0
 10
-7.49524
 20
39.2915
 11
-8.72572
 21
39.0367
  0
LINE
  8
0
 10
-8.72572
 20
39.0367
 11
-9.94759
 21
38.7433
  0
LINE
  8
0
 10
-9.94759
 20
38.7433
 11
-11.1596
 21
38.4117
  0
LINE
  8
0
 10
-11.1596
 20
38.4117
 11
-12.3607
 21
38.0423
  0
LINE
  8
0
 10
-12.3607
 20
38.0423
 11
-13.5495
 21
37.6352
  0
LINE
  8
0
 10
-13.5495
 20
37.6352
 11
-14.725
 21
37.1911
  0
LINE
  8
0
 10
-14.725
 20
37.1911
 11
-15.8859
 21
36.7102
  0
LINE
  8
0
 10
-15.8859
 20
36.7102
 11
-17.0312
 21
36.1931
  0
LINE
  8
0
 10
-17.0312
 20
36.1931
 11
-18.1596
 21
35.6403
  0
LINE
  8
0
 10
-18.1596
 20
35.6403
 11
-19.2701
 21
35.0523
  0
LINE
  8
0
 10
-19.2701
 20
35.0523
 11
-20.3616
 21
34.4297
  0
LINE
  8
0
 10
-20.3616
 20
34.4297
 11
-21.4331
 21
33.7731
  0
LINE
  8
0
 10
-21.4331
 20
33.7731
 11
-22.4833
 21
33.0832
  0
LINE
  8
0
 10
-22.4833
 20
33.0832
 11
-23.5114
 21
32.3607
  0
LINE
  8
0
 10
-23.5114
 20
32.3607
 11
-24.5163
 21
31.6062
  0
LINE
  8
0
 10
-24.5163
 20
31.6062
 11
-25.4969
 21
30.8205
  0
LINE
  8
0
 10
-25.4969
 20
30.8205
 11
-26.4525
 21
30.0044
  0
LINE
  8
0
 10
-26.4525
 20
30.0044
 11
-27.3819
 21
29.1587
  0
LINE
  8
0
 10
-27.3819
 20
29.1587
 11
-28.2843
 21
28.2843
  0
LINE
  8
0
 10
-28.2843
 20
28.2843
 11
-29.1587
 21
27.3819
  0
LINE
  8
0
 10
-29.1587
 20
27.3819
 11
-30.0044
 21
26.4525
  0
LINE
  8
0
 10
-30.0044
 20
26.4525
 11
-30.8205
 21
25.4969
  0
LINE
  8
0
 10
-30.8205
 20
25.4969
 11
-31.6062
 21
24.5163
  0
LINE
  8
0
 10
-31.6062
 20
24.5163
 11
-32.3607
 21
23.5114
  0
LINE
  8
0
 10
-32.3607
 20
23.5114
 11
-33.0832
 21
22.4833
  0
LINE
  8
0
 10
-33.0832
 20
22.4833
 11
-33.7731
 21
21.4331
  0
LINE
  8
0
 10
-33.7731
 20
21.4331
 11
-34.4297
 21
20.3616
  0
LINE
  8
0
 10
-34.4297
 20
20.3616
 11
-35.0523
 21
19.2701
  0
LINE
  8
0
 10
-35.0523
 20
19.2701
 11
-35.6403
 21
18.1596
  0
LINE
  8
0
 10
-35.6403
 20
18.1596
 11
-36.1931
 21
17.0312
  0
LINE
  8
0
 10
-36.1931
 20
17.0312
 11
-36.7102
 21
15.8859
  0
LINE
  8
0
 10
-36.7102
 20
15.8859
 11
-37.1911
 21
14.725
  0
LINE
  8
0
 10
-37.1911
 20
14.725
 11
-37.6352
 21
13.5495
  0
LINE
  8
0
 10
-37.6352
 20
13.5495
 11
-38.0423
 21
12.3607
  0
LINE
  8
0
 10
-38.0423
 20
12.3607
 11
-38.4117
 21
11.1596
  0
LINE
  8
0
 10
-38.4117
 20
11.1596
 11
-38.7433
 21
9.94759
  0
LINE
  8
0
 10
-38.7433
 20
9.94759
 11
-39.0367
 21
8.72572
  0
LINE
  8
0
 10
-39.0367
 20
8.72572
 11
-39.2915
 21
7.49524
  0
LINE
  8
0
 10
-39.2915
 20
7.49524
 11
-39.5075
 21
6.25737
  0
LINE
  8
0
 10
-39.5075
 20
6.25737
 11
-39.6846
 21
5.01332
  0
LINE
  8
0
 10
-39.6846
 20
5.01332
 11
-39.8225
 21
3.76433
  0
LINE
  8
0
 10
-39.8225
 20
3.76433
 11
-39.9211
 21
2.51161
  0
LINE
  8
0
 10
-39.9211
 20
2.51161
 11
-39.9803
 21
1.25642
  0
LINE
  8
0
 10
-39.9803
 20
1.25642
 11
-40
 21
0
  0
LINE
  8
0
 10
-40
 20
0
 11
-39.9803
 21
-1.25642
  0
LINE
  8
0
 10
-39.9803
 20
-1.25642
 11
-39.9211
 21
-2.51161
  0
LINE
  8
0
 10
-39.9211
 20
-2.51161
 11
-39.8225
 21
-3.76433
  0
LINE
  8
0
 10
-39.8225
 20
-3.76433
 11
-39.6846
 21
-5.01332
  0
LINE
  8
0
 10
-39.6846
 20
-5.01332
 11
-39.5075
 21
-6.25737
  0
LINE
  8
0
 10
-39.5075
 20
-6.25737
 11
-39.2915
 21
-7.49524
  0
LINE
  8
0
 10
-39.2915
 20
-7.49524
 11
-39.0367
 21
-8.72572
  0
LINE
  8
0
 10
-39.0367
 20
-8.72572
 11
-38.7433
 21
-9.94759
  0
LINE
  8
0
 10
-38.7433
 20
-9.94759
 11
-38.4117
 21
-11.1596
  0
LINE
  8
0
 10
-38.4117
 20
-11.1596
 11
-38.0423
 21
-12.3607
  0
LINE
  8
0
 10
-38.0423
 20
-12.3607
 11
-37.6352
 21
-13.5495
  0
LINE
  8
0
 10
-37.6352
 20
-13.5495
 11
-37.1911
 21
-14.725
  0
LINE
  8
0
 10
-37.1911
 20
-14.725
 11
-36.7102
 21
-15.8859
  0
LINE
  8
0
 10
-36.7102
 20
-15.8859
 11
-36.1931
 21
-17.0312
  0
LINE
  8
0
 10
-36.1931
 20
-17.0312
 11
-35.6403
 21
-18.1596
  0
LINE
  8
0
 10
-35.6403
 20
-18.1596
 11
-35.0523
 21
-19.2701
  0
LINE
  8
0
 10
-35.0523
 20
-19.2701
 11
-34.4297
 21
-20.3616
  0
LINE
  8
0
 10
-34.4297
 20
-20.3616
 11
-33.7731
 21
-21.4331
  0
LINE
  8
0
 10
-33.7731
 20
-21.4331
 11
-33.0832
 21
-22.4833
  0
LINE
  8
0
 10
-33.0832
 20
-22.4833
 11
-32.3607
 21
-23.5114
  0
LINE
  8
0
 10
-32.3607
 20
-23.5114
 11
-31.6062
 21
-24.5163
  0
LINE
  8
0
 10
-31.6062
 20
-24.5163
 11
-30.8205
 21
-25.4969
  0
LINE
  8
0
 10
-30.8205
 20
-25.4969
 11
-30.0044
 21
-26.4525
  0
LINE
  8
0
 10
-30.0044
 20
-26.4525
 11
-29.1587
 21
-27.3819
  0
LINE
  8
0
 10
-29.1587
 20
-27.3819
 11
-28.2843
 21
-28.2843
  0
LINE
  8
0
 10
-28.2843
 20
-28.2843
 11
-27.3819
 21
-29.1587
  0
LINE
  8
0
 10
-27.3819
 20
-29.1587
 11
-26.4525
 21
-30.0044
  0
LINE
  8
0
 10
-26.4525
 20
-30.0044
 11
-25.4969
 21
-30.8205
  0
LINE
  8
0
 10
-25.4969
 20
-30.8205
 11
-24.5163
 21
-31.6062
  0
LINE
  8
0
 10
-24.5163
 20
-31.6062
 11
-23.5114
 21
-32.3607
  0
LINE
  8
0
 10
-23.5114
 20
-32.3607
 11
-22.4833
 21
-33.0832
  0
LINE
  8
0
 10
-22.4833
 20
-33.0832
 11
-21.4331
 21
-33.7731
  0
LINE
  8
0
 10
-21.4331
 20
-33.7731
 11
-20.3616
 21
-34.4297
  0
LINE
  8
0
 10
-20.3616
 20
-34.4297
 11
-19.2701
 21
-35.0523
  0
LINE
  8
0
 10
-19.2701
 20
-35.0523
 11
-18.1596
 21
-35.6403
  0
LINE
  8
0
 10
-18.1596
 20
-35.6403
 11
-17.0312
 21
-36.1931
  0
LINE
  8
0
 10
-17.0312
 20
-36.1931
 11
-15.8859
 21
-36.7102
  0
LINE
  8
0
 10
-15.8859
 20
-36.7102
 11
-14.725
 21
-37.1911
  0
LINE
  8
0
 10
-14.725
 20
-37.1911
 11
-13.5495
 21
-37.6352
  0
LINE
  8
0
 10
-13.5495
 20
-37.6352
 11
-12.3607
 21
-38.0423
  0
LINE
  8
0
 10
-12.3607
 20
-38.0423
 11
-11.1596
 21
-38.4117
  0
LINE
  8
0
 10
-11.1596
 20
-38.4117
 11
-9.94759
 21
-38.7433
  0
LINE
  8
0
 10
-9.94759
 20
-38.7433
 11
-8.72572
 21
-39.0367
  0
LINE
  8
0
 10
-8.72572
 20
-39.0367
 11
-7.49524
 21
-39.2915
  0
LINE
  8
0
 10
-7.49524
 20
-39.2915
 11
-6.25737
 21
-39.5075
  0
LINE
  8
0
 10
-6.25737
 20
-39.5075
 11
-5.01332
 21
-39.6846
  0
LINE
  8
0
 10
-5.01332
 20
-39.6846
 11
-3.76433
 21
-39.8225
  0
LINE
  8
0
 10
-3.76433
 20
-39.8225
 11
-2.51161
 21
-39.9211
  0
LINE
  8
0
 10
-2.51161
 20
-39.9211
 11
-1.25642
 21
-39.9803
  0
LINE
  8
0
 10
-1.25642
 20
-39.9803
 11
0
 21
-40
  0
LINE
  8
0
 10
0
 20
-40
 11
1.25642
 21
-39.9803
  0
LINE
  8
0
 10
-0.0832367
 20
-2.64868
 11
-0.166382
 21
-2.64476
  0
LINE
  8
0
 10
-0.166382
 20
-2.64476
 11
-0.249374
 21
-2.63823
  0
LINE
  8
0
 10
-0.249374
 20
-2.63823
 11
-0.332123
 21
-2.62909
  0
LINE
  8
0
 10
-0.332123
 20
-2.62909
 11
-0.414551
 21
-2.61737
  0
LINE
  8
0
 10
-0.414551
 20
-2.61737
 11
-0.496552
 21
-2.60306
  0
LINE
  8
0
 10
-0.496552
 20
-2.60306
 11
-0.578079
 21
-2.58617
  0
LINE
  8
0
 10
-0.578079
 20
-2.58617
 11
-0.659027
 21
-2.56674
  0
LINE
  8
0
 10
-0.659027
 20
-2.56674
 11
-0.739319
 21
-2.54477
  0
LINE
  8
0
 10
-0.739319
 20
-2.54477
 11
-0.818893
 21
-2.52029
  0
LINE
  8
0
 10
-0.818893
 20
-2.52029
 11
-0.897644
 21
-2.49333
  0
LINE
  8
0
 10
-0.897644
 20
-2.49333
 11
-0.975525
 21
-2.4639
  0
LINE
  8
0
 10
-0.975525
 20
-2.4639
 11
-1.05243
 21
-2.43204
  0
LINE
  8
0
 10
-1.05243
 20
-2.43204
 11
-1.12831
 21
-2.39778
  0
LINE
  8
0
 10
-1.12831
 20
-2.39778
 11
-1.20306
 21
-2.36116
  0
LINE
  8
0
 10
-1.20306
 20
-2.36116
 11
-1.27664
 21
-2.3222
  0
LINE
  8
0
 10
-1.27664
 20
-2.3222
 11
-1.34895
 21
-2.28096
  0
LINE
  8
0
 10
-1.34895
 20
-2.28096
 11
-1.41994
 21
-2.23746
  0
LINE
  8
0
 10
-1.41994
 20
-2.23746
 11
-1.48952
 21
-2.19176
  0
LINE
  8
0
 10
-1.48952
 20
-2.19176
 11
-1.55762
 21
-2.14389
  0
LINE
  8
0
 10
-1.55762
 20
-2.14389
 11
-1.62419
 21
-2.0939
  0
LINE
  8
0
 10
-1.62419
 20
-2.0939
 11
-1.68916
 21
-2.04185
  0
LINE
  8
0
 10
-1.68916
 20
-2.04185
 11
-1.75247
 21
-1.98779
  0
LINE
  8
0
 10
-1.75247
 20
-1.98779
 11
-1.79999
 21
-1.94455
  0
LINE
  8
0
 10
-1.79999
 20
-1.94455
 11
-1.79999
 21
1.94455
  0
LINE
  8
0
 10
-1.79999
 20
1.94455
 11
-1.75247
 21
1.98779
  0
LINE
  8
0
 10
-1.75247
 20
1.98779
 11
-1.68916
 21
2.04185
  0
LINE
  8
0
 10
-1.68916
 20
2.04185
 11
-1.62419
 21
2.0939
  0
LINE
  8
0
 10
-1.62419
 20
2.0939
 11
-1.55762
 21
2.14389
  0
LINE
  8
0
 10
-1.55762
 20
2.14389
 11
-1.48952
 21
2.19176
  0
LINE
  8
0
 10
-1.48952
 20
2.19176
 11
-1.41994
 21
2.23746
  0
LINE
  8
0
 10
-1.41994
 20
2.23746
 11
-1.34895
 21
2.28096
  0
LINE
  8
0
 10
-1.34895
 20
2.28096
 11
-1.27664
 21
2.3222
  0
LINE
  8
0
 10
-1.27664
 20
2.3222
 11
-1.20306
 21
2.36116
  0
LINE
  8
0
 10
-1.20306
 20
2.36116
 11
-1.12831
 21
2.39778
  0
LINE
  8
0
 10
-1.12831
 20
2.39778
 11
-1.05243
 21
2.43204
  0
LINE
  8
0
 10
-1.05243
 20
2.43204
 11
-0.975525
 21
2.4639
  0
LINE
  8
0
 10
-0.975525
 20
2.4639
 11
-0.897644
 21
2.49333
  0
LINE
  8
0
 10
-0.897644
 20
2.49333
 11
-0.818893
 21
2.52029
  0
LINE
  8
0
 10
-0.818893
 20
2.52029
 11
-0.739319
 21
2.54477
  0
LINE
  8
0
 10
-0.739319
 20
2.54477
 11
-0.659027
 21
2.56674
  0
LINE
  8
0
 10
-0.659027
 20
2.56674
 11
-0.578079
 21
2.58617
  0
LINE
  8
0
 10
-0.578079
 20
2.58617
 11
-0.496552
 21
2.60306
  0
LINE
  8
0
 10
-0.496552
 20
2.60306
 11
-0.414551
 21
2.61737
  0
LINE
  8
0
 10
-0.414551
 20
2.61737
 11
-0.332123
 21
2.62909
  0
LINE
  8
0
 10
-0.332123
 20
2.62909
 11
-0.249374
 21
2.63823
  0
LINE
  8
0
 10
-0.249374
 20
2.63823
 11
-0.166382
 21
2.64476
  0
LINE
  8
0
 10
-0.166382
 20
2.64476
 11
-0.0832367
 21
2.64868
  0
LINE
  8
0
 10
-0.0832367
 20
2.64868
 11
0
 21
2.64999
  0
LINE
  8
0
 10
0
 20
2.64999
 11
0.0832367
 21
2.64868
  0
LINE
  8
0
 10
0.0832367
 20
2.64868
 11
0.166382
 21
2.64476
  0
LINE
  8
0
 10
0.166382
 20
2.64476
 11
0.249374
 21
2.63823
  0
LINE
  8
0
 10
0.249374
 20
2.63823
 11
0.332123
 21
2.62909
  0
LINE
  8
0
 10
0.332123
 20
2.62909
 11
0.414551
 21
2.61737
  0
LINE
  8
0
 10
0.414551
 20
2.61737
 11
0.496552
 21
2.60306
  0
LINE
  8
0
 10
0.496552
 20
2.60306
 11
0.578079
 21
2.58617
  0
LINE
  8
0
 10
0.578079
 20
2.58617
 11
0.659027
 21
2.56674
  0
LINE
  8
0
 10
0.659027
 20
2.56674
 11
0.739319
 21
2.54477
  0
LINE
  8
0
 10
0.739319
 20
2.54477
 11
0.818893
 21
2.52029
  0
LINE
  8
0
 10
0.818893
 20
2.52029
 11
0.897644
 21
2.49333
  0
LINE
  8
0
 10
0.897644
 20
2.49333
 11
0.975525
 21
2.4639
  0
LINE
  8
0
 10
0.975525
 20
2.4639
 11
1.05243
 21
2.43204
  0
LINE
  8
0
 10
1.05243
 20
2.43204
 11
1.12831
 21
2.39778
  0
LINE
  8
0
 10
1.12831
 20
2.39778
 11
1.20306
 21
2.36116
  0
LINE
  8
0
 10
1.20306
 20
2.36116
 11
1.27664
 21
2.3222
  0
LINE
  8
0
 10
1.27664
 20
2.3222
 11
1.34895
 21
2.28096
  0
LINE
  8
0
 10
1.34895
 20
2.28096
 11
1.41994
 21
2.23746
  0
LINE
  8
0
 10
1.41994
 20
2.23746
 11
1.48952
 21
2.19176
  0
LINE
  8
0
 10
1.48952
 20
2.19176
 11
1.55762
 21
2.14389
  0
LINE
  8
0
 10
1.55762
 20
2.14389
 11
1.62419
 21
2.0939
  0
LINE
  8
0
 10
1.62419
 20
2.0939
 11
1.68916
 21
2.04185
  0
LINE
  8
0
 10
1.68916
 20
2.04185
 11
1.75247
 21
1.98779
  0
LINE
  8
0
 10
1.75247
 20
1.98779
 11
1.79999
 21
1.94455
  0
LINE
  8
0
 10
1.79999
 20
1.94455
 11
1.79999
 21
-1.94455
  0
LINE
  8
0
 10
1.79999
 20
-1.94455
 11
1.75247
 21
-1.98779
  0
LINE
  8
0
 10
1.75247
 20
-1.98779
 11
1.68916
 21
-2.04185
  0
LINE
  8
0
 10
1.68916
 20
-2.04185
 11
1.62419
 21
-2.0939
  0
LINE
  8
0
 10
1.62419
 20
-2.0939
 11
1.55762
 21
-2.14389
  0
LINE
  8
0
 10
1.55762
 20
-2.14389
 11
1.48952
 21
-2.19176
  0
LINE
  8
0
 10
1.48952
 20
-2.19176
 11
1.41994
 21
-2.23746
  0
LINE
  8
0
 10
1.41994
 20
-2.23746
 11
1.34895
 21
-2.28096
  0
LINE
  8
0
 10
1.34895
 20
-2.28096
 11
1.27664
 21
-2.3222
  0
LINE
  8
0
 10
1.27664
 20
-2.3222
 11
1.20306
 21
-2.36116
  0
LINE
  8
0
 10
1.20306
 20
-2.36116
 11
1.12831
 21
-2.39778
  0
LINE
  8
0
 10
1.12831
 20
-2.39778
 11
1.05243
 21
-2.43204
  0
LINE
  8
0
 10
1.05243
 20
-2.43204
 11
0.975525
 21
-2.4639
  0
LINE
  8
0
 10
0.975525
 20
-2.4639
 11
0.897644
 21
-2.49333
  0
LINE
  8
0
 10
0.897644
 20
-2.49333
 11
0.818893
 21
-2.52029
  0
LINE
  8
0
 10
0.818893
 20
-2.52029
 11
0.739319
 21
-2.54477
  0
LINE
  8
0
 10
0.739319
 20
-2.54477
 11
0.659027
 21
-2.56674
  0
LINE
  8
0
 10
0.659027
 20
-2.56674
 11
0.578079
 21
-2.58617
  0
LINE
  8
0
 10
0.578079
 20
-2.58617
 11
0.496552
 21
-2.60306
  0
LINE
  8
0
 10
0.496552
 20
-2.60306
 11
0.414551
 21
-2.61737
  0
LINE
  8
0
 10
0.414551
 20
-2.61737
 11
0.332123
 21
-2.62909
  0
LINE
  8
0
 10
0.332123
 20
-2.62909
 11
0.249374
 21
-2.63823
  0
LINE
  8
0
 10
0.249374
 20
-2.63823
 11
0.166382
 21
-2.64476
  0
LINE
  8
0
 10
0.166382
 20
-2.64476
 11
0.0832367
 21
-2.64868
  0
LINE
  8
0
 10
0.0832367
 20
-2.64868
 11
0
 21
-2.64999
  0
LINE
  8
0
 10
0
 20
-2.64999
 11
-0.0832367
 21
-2.64868
  0
ENDSEC
  0
SECTION
  2
OBJECTS
  0
DICTIONARY
  0
ENDSEC
  0
EOF
